%TF.GenerationSoftware,KiCad,Pcbnew,9.0.7*%
%TF.CreationDate,2026-02-09T19:02:23-08:00*%
%TF.ProjectId,VCU,5643552e-6b69-4636-9164-5f7063625858,1.5*%
%TF.SameCoordinates,Original*%
%TF.FileFunction,Legend,Bot*%
%TF.FilePolarity,Positive*%
%FSLAX46Y46*%
G04 Gerber Fmt 4.6, Leading zero omitted, Abs format (unit mm)*
G04 Created by KiCad (PCBNEW 9.0.7) date 2026-02-09 19:02:23*
%MOMM*%
%LPD*%
G01*
G04 APERTURE LIST*
%ADD10C,0.150000*%
%ADD11C,0.120000*%
G04 APERTURE END LIST*
D10*
X254593193Y-148168820D02*
X254021765Y-148168820D01*
X254307479Y-149168820D02*
X254307479Y-148168820D01*
X253688431Y-149168820D02*
X253688431Y-148168820D01*
X253688431Y-148168820D02*
X253307479Y-148168820D01*
X253307479Y-148168820D02*
X253212241Y-148216439D01*
X253212241Y-148216439D02*
X253164622Y-148264058D01*
X253164622Y-148264058D02*
X253117003Y-148359296D01*
X253117003Y-148359296D02*
X253117003Y-148502153D01*
X253117003Y-148502153D02*
X253164622Y-148597391D01*
X253164622Y-148597391D02*
X253212241Y-148645010D01*
X253212241Y-148645010D02*
X253307479Y-148692629D01*
X253307479Y-148692629D02*
X253688431Y-148692629D01*
X252164622Y-149168820D02*
X252736050Y-149168820D01*
X252450336Y-149168820D02*
X252450336Y-148168820D01*
X252450336Y-148168820D02*
X252545574Y-148311677D01*
X252545574Y-148311677D02*
X252640812Y-148406915D01*
X252640812Y-148406915D02*
X252736050Y-148454534D01*
X251783669Y-148264058D02*
X251736050Y-148216439D01*
X251736050Y-148216439D02*
X251640812Y-148168820D01*
X251640812Y-148168820D02*
X251402717Y-148168820D01*
X251402717Y-148168820D02*
X251307479Y-148216439D01*
X251307479Y-148216439D02*
X251259860Y-148264058D01*
X251259860Y-148264058D02*
X251212241Y-148359296D01*
X251212241Y-148359296D02*
X251212241Y-148454534D01*
X251212241Y-148454534D02*
X251259860Y-148597391D01*
X251259860Y-148597391D02*
X251831288Y-149168820D01*
X251831288Y-149168820D02*
X251212241Y-149168820D01*
X253323193Y-142834820D02*
X252751765Y-142834820D01*
X253037479Y-143834820D02*
X253037479Y-142834820D01*
X252418431Y-143834820D02*
X252418431Y-142834820D01*
X252418431Y-142834820D02*
X252037479Y-142834820D01*
X252037479Y-142834820D02*
X251942241Y-142882439D01*
X251942241Y-142882439D02*
X251894622Y-142930058D01*
X251894622Y-142930058D02*
X251847003Y-143025296D01*
X251847003Y-143025296D02*
X251847003Y-143168153D01*
X251847003Y-143168153D02*
X251894622Y-143263391D01*
X251894622Y-143263391D02*
X251942241Y-143311010D01*
X251942241Y-143311010D02*
X252037479Y-143358629D01*
X252037479Y-143358629D02*
X252418431Y-143358629D01*
X250894622Y-143834820D02*
X251466050Y-143834820D01*
X251180336Y-143834820D02*
X251180336Y-142834820D01*
X251180336Y-142834820D02*
X251275574Y-142977677D01*
X251275574Y-142977677D02*
X251370812Y-143072915D01*
X251370812Y-143072915D02*
X251466050Y-143120534D01*
X249942241Y-143834820D02*
X250513669Y-143834820D01*
X250227955Y-143834820D02*
X250227955Y-142834820D01*
X250227955Y-142834820D02*
X250323193Y-142977677D01*
X250323193Y-142977677D02*
X250418431Y-143072915D01*
X250418431Y-143072915D02*
X250513669Y-143120534D01*
X249767193Y-140294820D02*
X249195765Y-140294820D01*
X249481479Y-141294820D02*
X249481479Y-140294820D01*
X248862431Y-141294820D02*
X248862431Y-140294820D01*
X248862431Y-140294820D02*
X248481479Y-140294820D01*
X248481479Y-140294820D02*
X248386241Y-140342439D01*
X248386241Y-140342439D02*
X248338622Y-140390058D01*
X248338622Y-140390058D02*
X248291003Y-140485296D01*
X248291003Y-140485296D02*
X248291003Y-140628153D01*
X248291003Y-140628153D02*
X248338622Y-140723391D01*
X248338622Y-140723391D02*
X248386241Y-140771010D01*
X248386241Y-140771010D02*
X248481479Y-140818629D01*
X248481479Y-140818629D02*
X248862431Y-140818629D01*
X247338622Y-141294820D02*
X247910050Y-141294820D01*
X247624336Y-141294820D02*
X247624336Y-140294820D01*
X247624336Y-140294820D02*
X247719574Y-140437677D01*
X247719574Y-140437677D02*
X247814812Y-140532915D01*
X247814812Y-140532915D02*
X247910050Y-140580534D01*
X246481479Y-140628153D02*
X246481479Y-141294820D01*
X246719574Y-140247201D02*
X246957669Y-140961486D01*
X246957669Y-140961486D02*
X246338622Y-140961486D01*
X257133193Y-142580820D02*
X256561765Y-142580820D01*
X256847479Y-143580820D02*
X256847479Y-142580820D01*
X256228431Y-143580820D02*
X256228431Y-142580820D01*
X256228431Y-142580820D02*
X255847479Y-142580820D01*
X255847479Y-142580820D02*
X255752241Y-142628439D01*
X255752241Y-142628439D02*
X255704622Y-142676058D01*
X255704622Y-142676058D02*
X255657003Y-142771296D01*
X255657003Y-142771296D02*
X255657003Y-142914153D01*
X255657003Y-142914153D02*
X255704622Y-143009391D01*
X255704622Y-143009391D02*
X255752241Y-143057010D01*
X255752241Y-143057010D02*
X255847479Y-143104629D01*
X255847479Y-143104629D02*
X256228431Y-143104629D01*
X254704622Y-143580820D02*
X255276050Y-143580820D01*
X254990336Y-143580820D02*
X254990336Y-142580820D01*
X254990336Y-142580820D02*
X255085574Y-142723677D01*
X255085574Y-142723677D02*
X255180812Y-142818915D01*
X255180812Y-142818915D02*
X255276050Y-142866534D01*
X254371288Y-142580820D02*
X253752241Y-142580820D01*
X253752241Y-142580820D02*
X254085574Y-142961772D01*
X254085574Y-142961772D02*
X253942717Y-142961772D01*
X253942717Y-142961772D02*
X253847479Y-143009391D01*
X253847479Y-143009391D02*
X253799860Y-143057010D01*
X253799860Y-143057010D02*
X253752241Y-143152248D01*
X253752241Y-143152248D02*
X253752241Y-143390343D01*
X253752241Y-143390343D02*
X253799860Y-143485581D01*
X253799860Y-143485581D02*
X253847479Y-143533201D01*
X253847479Y-143533201D02*
X253942717Y-143580820D01*
X253942717Y-143580820D02*
X254228431Y-143580820D01*
X254228431Y-143580820D02*
X254323669Y-143533201D01*
X254323669Y-143533201D02*
X254371288Y-143485581D01*
X251545193Y-134706820D02*
X250973765Y-134706820D01*
X251259479Y-135706820D02*
X251259479Y-134706820D01*
X250640431Y-135706820D02*
X250640431Y-134706820D01*
X250640431Y-134706820D02*
X250259479Y-134706820D01*
X250259479Y-134706820D02*
X250164241Y-134754439D01*
X250164241Y-134754439D02*
X250116622Y-134802058D01*
X250116622Y-134802058D02*
X250069003Y-134897296D01*
X250069003Y-134897296D02*
X250069003Y-135040153D01*
X250069003Y-135040153D02*
X250116622Y-135135391D01*
X250116622Y-135135391D02*
X250164241Y-135183010D01*
X250164241Y-135183010D02*
X250259479Y-135230629D01*
X250259479Y-135230629D02*
X250640431Y-135230629D01*
X249116622Y-135706820D02*
X249688050Y-135706820D01*
X249402336Y-135706820D02*
X249402336Y-134706820D01*
X249402336Y-134706820D02*
X249497574Y-134849677D01*
X249497574Y-134849677D02*
X249592812Y-134944915D01*
X249592812Y-134944915D02*
X249688050Y-134992534D01*
X248259479Y-134706820D02*
X248449955Y-134706820D01*
X248449955Y-134706820D02*
X248545193Y-134754439D01*
X248545193Y-134754439D02*
X248592812Y-134802058D01*
X248592812Y-134802058D02*
X248688050Y-134944915D01*
X248688050Y-134944915D02*
X248735669Y-135135391D01*
X248735669Y-135135391D02*
X248735669Y-135516343D01*
X248735669Y-135516343D02*
X248688050Y-135611581D01*
X248688050Y-135611581D02*
X248640431Y-135659201D01*
X248640431Y-135659201D02*
X248545193Y-135706820D01*
X248545193Y-135706820D02*
X248354717Y-135706820D01*
X248354717Y-135706820D02*
X248259479Y-135659201D01*
X248259479Y-135659201D02*
X248211860Y-135611581D01*
X248211860Y-135611581D02*
X248164241Y-135516343D01*
X248164241Y-135516343D02*
X248164241Y-135278248D01*
X248164241Y-135278248D02*
X248211860Y-135183010D01*
X248211860Y-135183010D02*
X248259479Y-135135391D01*
X248259479Y-135135391D02*
X248354717Y-135087772D01*
X248354717Y-135087772D02*
X248545193Y-135087772D01*
X248545193Y-135087772D02*
X248640431Y-135135391D01*
X248640431Y-135135391D02*
X248688050Y-135183010D01*
X248688050Y-135183010D02*
X248735669Y-135278248D01*
X241131193Y-147660820D02*
X240559765Y-147660820D01*
X240845479Y-148660820D02*
X240845479Y-147660820D01*
X240226431Y-148660820D02*
X240226431Y-147660820D01*
X240226431Y-147660820D02*
X239845479Y-147660820D01*
X239845479Y-147660820D02*
X239750241Y-147708439D01*
X239750241Y-147708439D02*
X239702622Y-147756058D01*
X239702622Y-147756058D02*
X239655003Y-147851296D01*
X239655003Y-147851296D02*
X239655003Y-147994153D01*
X239655003Y-147994153D02*
X239702622Y-148089391D01*
X239702622Y-148089391D02*
X239750241Y-148137010D01*
X239750241Y-148137010D02*
X239845479Y-148184629D01*
X239845479Y-148184629D02*
X240226431Y-148184629D01*
X238702622Y-148660820D02*
X239274050Y-148660820D01*
X238988336Y-148660820D02*
X238988336Y-147660820D01*
X238988336Y-147660820D02*
X239083574Y-147803677D01*
X239083574Y-147803677D02*
X239178812Y-147898915D01*
X239178812Y-147898915D02*
X239274050Y-147946534D01*
X237797860Y-147660820D02*
X238274050Y-147660820D01*
X238274050Y-147660820D02*
X238321669Y-148137010D01*
X238321669Y-148137010D02*
X238274050Y-148089391D01*
X238274050Y-148089391D02*
X238178812Y-148041772D01*
X238178812Y-148041772D02*
X237940717Y-148041772D01*
X237940717Y-148041772D02*
X237845479Y-148089391D01*
X237845479Y-148089391D02*
X237797860Y-148137010D01*
X237797860Y-148137010D02*
X237750241Y-148232248D01*
X237750241Y-148232248D02*
X237750241Y-148470343D01*
X237750241Y-148470343D02*
X237797860Y-148565581D01*
X237797860Y-148565581D02*
X237845479Y-148613201D01*
X237845479Y-148613201D02*
X237940717Y-148660820D01*
X237940717Y-148660820D02*
X238178812Y-148660820D01*
X238178812Y-148660820D02*
X238274050Y-148613201D01*
X238274050Y-148613201D02*
X238321669Y-148565581D01*
D11*
%TO.C,TP12*%
X253555099Y-150162001D02*
G75*
G02*
X252155099Y-150162001I-700000J0D01*
G01*
X252155099Y-150162001D02*
G75*
G02*
X253555099Y-150162001I700000J0D01*
G01*
%TO.C,TP11*%
X252793099Y-144828001D02*
G75*
G02*
X251393099Y-144828001I-700000J0D01*
G01*
X251393099Y-144828001D02*
G75*
G02*
X252793099Y-144828001I700000J0D01*
G01*
%TO.C,TP14*%
X248729099Y-142288001D02*
G75*
G02*
X247329099Y-142288001I-700000J0D01*
G01*
X247329099Y-142288001D02*
G75*
G02*
X248729099Y-142288001I700000J0D01*
G01*
%TO.C,TP13*%
X256095099Y-144574001D02*
G75*
G02*
X254695099Y-144574001I-700000J0D01*
G01*
X254695099Y-144574001D02*
G75*
G02*
X256095099Y-144574001I700000J0D01*
G01*
%TO.C,TP16*%
X250507099Y-136700001D02*
G75*
G02*
X249107099Y-136700001I-700000J0D01*
G01*
X249107099Y-136700001D02*
G75*
G02*
X250507099Y-136700001I700000J0D01*
G01*
%TO.C,TP15*%
X240093099Y-149654001D02*
G75*
G02*
X238693099Y-149654001I-700000J0D01*
G01*
X238693099Y-149654001D02*
G75*
G02*
X240093099Y-149654001I700000J0D01*
G01*
%TD*%
M02*
