%TF.GenerationSoftware,KiCad,Pcbnew,9.0.7*%
%TF.CreationDate,2026-02-09T19:02:23-08:00*%
%TF.ProjectId,VCU,5643552e-6b69-4636-9164-5f7063625858,1.5*%
%TF.SameCoordinates,Original*%
%TF.FileFunction,Soldermask,Top*%
%TF.FilePolarity,Negative*%
%FSLAX46Y46*%
G04 Gerber Fmt 4.6, Leading zero omitted, Abs format (unit mm)*
G04 Created by KiCad (PCBNEW 9.0.7) date 2026-02-09 19:02:23*
%MOMM*%
%LPD*%
G01*
G04 APERTURE LIST*
G04 Aperture macros list*
%AMRoundRect*
0 Rectangle with rounded corners*
0 $1 Rounding radius*
0 $2 $3 $4 $5 $6 $7 $8 $9 X,Y pos of 4 corners*
0 Add a 4 corners polygon primitive as box body*
4,1,4,$2,$3,$4,$5,$6,$7,$8,$9,$2,$3,0*
0 Add four circle primitives for the rounded corners*
1,1,$1+$1,$2,$3*
1,1,$1+$1,$4,$5*
1,1,$1+$1,$6,$7*
1,1,$1+$1,$8,$9*
0 Add four rect primitives between the rounded corners*
20,1,$1+$1,$2,$3,$4,$5,0*
20,1,$1+$1,$4,$5,$6,$7,0*
20,1,$1+$1,$6,$7,$8,$9,0*
20,1,$1+$1,$8,$9,$2,$3,0*%
G04 Aperture macros list end*
%ADD10RoundRect,0.237500X0.250000X0.237500X-0.250000X0.237500X-0.250000X-0.237500X0.250000X-0.237500X0*%
%ADD11RoundRect,0.150000X-0.825000X-0.150000X0.825000X-0.150000X0.825000X0.150000X-0.825000X0.150000X0*%
%ADD12RoundRect,0.150000X0.825000X0.150000X-0.825000X0.150000X-0.825000X-0.150000X0.825000X-0.150000X0*%
%ADD13RoundRect,0.237500X-0.237500X0.250000X-0.237500X-0.250000X0.237500X-0.250000X0.237500X0.250000X0*%
%ADD14RoundRect,0.237500X0.237500X-0.300000X0.237500X0.300000X-0.237500X0.300000X-0.237500X-0.300000X0*%
%ADD15RoundRect,0.237500X0.287500X0.237500X-0.287500X0.237500X-0.287500X-0.237500X0.287500X-0.237500X0*%
%ADD16RoundRect,0.237500X0.300000X0.237500X-0.300000X0.237500X-0.300000X-0.237500X0.300000X-0.237500X0*%
%ADD17RoundRect,0.237500X-0.300000X-0.237500X0.300000X-0.237500X0.300000X0.237500X-0.300000X0.237500X0*%
%ADD18RoundRect,0.250000X-0.337500X-0.475000X0.337500X-0.475000X0.337500X0.475000X-0.337500X0.475000X0*%
%ADD19RoundRect,0.150000X0.587500X0.150000X-0.587500X0.150000X-0.587500X-0.150000X0.587500X-0.150000X0*%
%ADD20RoundRect,0.237500X-0.237500X0.300000X-0.237500X-0.300000X0.237500X-0.300000X0.237500X0.300000X0*%
%ADD21C,1.600200*%
%ADD22RoundRect,0.250000X0.750000X0.650000X-0.750000X0.650000X-0.750000X-0.650000X0.750000X-0.650000X0*%
%ADD23RoundRect,0.237500X0.237500X-0.250000X0.237500X0.250000X-0.237500X0.250000X-0.237500X-0.250000X0*%
%ADD24RoundRect,0.150000X0.150000X-0.825000X0.150000X0.825000X-0.150000X0.825000X-0.150000X-0.825000X0*%
%ADD25RoundRect,0.075000X-0.075000X0.700000X-0.075000X-0.700000X0.075000X-0.700000X0.075000X0.700000X0*%
%ADD26RoundRect,0.075000X-0.700000X0.075000X-0.700000X-0.075000X0.700000X-0.075000X0.700000X0.075000X0*%
%ADD27C,1.000000*%
%ADD28RoundRect,0.237500X-0.250000X-0.237500X0.250000X-0.237500X0.250000X0.237500X-0.250000X0.237500X0*%
%ADD29RoundRect,0.125000X-0.137500X0.125000X-0.137500X-0.125000X0.137500X-0.125000X0.137500X0.125000X0*%
%ADD30RoundRect,0.150000X-0.587500X-0.150000X0.587500X-0.150000X0.587500X0.150000X-0.587500X0.150000X0*%
%ADD31R,1.000000X1.899920*%
%ADD32C,6.400000*%
%ADD33R,1.200000X1.200000*%
%ADD34RoundRect,0.150000X0.150000X-0.512500X0.150000X0.512500X-0.150000X0.512500X-0.150000X-0.512500X0*%
%ADD35RoundRect,0.150000X0.150000X-0.587500X0.150000X0.587500X-0.150000X0.587500X-0.150000X-0.587500X0*%
%ADD36RoundRect,0.250000X0.650000X-0.625000X0.650000X0.625000X-0.650000X0.625000X-0.650000X-0.625000X0*%
%ADD37RoundRect,0.150000X0.512500X0.150000X-0.512500X0.150000X-0.512500X-0.150000X0.512500X-0.150000X0*%
%ADD38RoundRect,0.150000X0.150000X-0.650000X0.150000X0.650000X-0.150000X0.650000X-0.150000X-0.650000X0*%
%ADD39RoundRect,0.200000X-0.250000X-0.200000X0.250000X-0.200000X0.250000X0.200000X-0.250000X0.200000X0*%
%ADD40RoundRect,0.237500X-0.237500X0.287500X-0.237500X-0.287500X0.237500X-0.287500X0.237500X0.287500X0*%
%ADD41C,2.000000*%
%ADD42C,1.440000*%
%ADD43RoundRect,0.237500X-0.287500X-0.237500X0.287500X-0.237500X0.287500X0.237500X-0.287500X0.237500X0*%
%ADD44RoundRect,0.250000X0.337500X0.475000X-0.337500X0.475000X-0.337500X-0.475000X0.337500X-0.475000X0*%
%ADD45R,1.000000X2.200000*%
%ADD46R,2.400000X0.740000*%
%ADD47R,0.675000X0.254000*%
%ADD48R,0.254000X0.675000*%
%ADD49C,1.447800*%
%ADD50C,2.692400*%
%ADD51RoundRect,0.250000X0.525000X0.250000X-0.525000X0.250000X-0.525000X-0.250000X0.525000X-0.250000X0*%
G04 APERTURE END LIST*
D10*
%TO.C,R60*%
X209317599Y-141375501D03*
X207492599Y-141375501D03*
%TD*%
D11*
%TO.C,U10*%
X222948099Y-97584001D03*
X222948099Y-98854001D03*
X222948099Y-100124001D03*
X222948099Y-101394001D03*
X222948099Y-102664001D03*
X222948099Y-103934001D03*
X222948099Y-105204001D03*
X227898099Y-105204001D03*
X227898099Y-103934001D03*
X227898099Y-102664001D03*
X227898099Y-101394001D03*
X227898099Y-100124001D03*
X227898099Y-98854001D03*
X227898099Y-97584001D03*
%TD*%
D12*
%TO.C,U7*%
X236534099Y-80312001D03*
X236534099Y-79042001D03*
X236534099Y-77772001D03*
X236534099Y-76502001D03*
X236534099Y-75232001D03*
X236534099Y-73962001D03*
X236534099Y-72692001D03*
X231584099Y-72692001D03*
X231584099Y-73962001D03*
X231584099Y-75232001D03*
X231584099Y-76502001D03*
X231584099Y-77772001D03*
X231584099Y-79042001D03*
X231584099Y-80312001D03*
%TD*%
D13*
%TO.C,R82*%
X238631099Y-120293501D03*
X238631099Y-122118501D03*
%TD*%
D14*
%TO.C,C55*%
X242695099Y-165248501D03*
X242695099Y-163523501D03*
%TD*%
D15*
%TO.C,D5*%
X224520099Y-121714001D03*
X222770099Y-121714001D03*
%TD*%
D16*
%TO.C,C37*%
X254733599Y-129334001D03*
X253008599Y-129334001D03*
%TD*%
D10*
%TO.C,R47*%
X245639599Y-119428001D03*
X243814599Y-119428001D03*
%TD*%
D17*
%TO.C,C2*%
X267232599Y-150670001D03*
X268957599Y-150670001D03*
%TD*%
D18*
%TO.C,C1*%
X264898599Y-73962001D03*
X266973599Y-73962001D03*
%TD*%
D19*
%TO.C,Q7*%
X229408599Y-120632001D03*
X229408599Y-118732001D03*
X227533599Y-119682001D03*
%TD*%
D10*
%TO.C,R11*%
X259863599Y-92758001D03*
X258038599Y-92758001D03*
%TD*%
D19*
%TO.C,Q5*%
X245918599Y-116314001D03*
X245918599Y-114414001D03*
X244043599Y-115364001D03*
%TD*%
D10*
%TO.C,R19*%
X225319599Y-93774001D03*
X223494599Y-93774001D03*
%TD*%
D16*
%TO.C,C16*%
X233905599Y-90218001D03*
X232180599Y-90218001D03*
%TD*%
D20*
%TO.C,C56*%
X242695099Y-158951501D03*
X242695099Y-160676501D03*
%TD*%
D21*
%TO.C,K3*%
X255395099Y-102918001D03*
X255395099Y-105458001D03*
X255395099Y-113078001D03*
X255395099Y-120698001D03*
%TD*%
D20*
%TO.C,C34*%
X259459099Y-125931501D03*
X259459099Y-127656501D03*
%TD*%
D22*
%TO.C,L1*%
X261201099Y-78026001D03*
X256701099Y-78026001D03*
%TD*%
D10*
%TO.C,R75*%
X249449599Y-127048001D03*
X247624599Y-127048001D03*
%TD*%
D20*
%TO.C,C21*%
X233932099Y-125931501D03*
X233932099Y-127656501D03*
%TD*%
D23*
%TO.C,R64*%
X264031099Y-156154501D03*
X264031099Y-154329501D03*
%TD*%
D24*
%TO.C,U16*%
X230122099Y-134857001D03*
X231392099Y-134857001D03*
X232662099Y-134857001D03*
X233932099Y-134857001D03*
X233932099Y-129907001D03*
X232662099Y-129907001D03*
X231392099Y-129907001D03*
X230122099Y-129907001D03*
%TD*%
D25*
%TO.C,U27*%
X255081099Y-135851001D03*
X254581099Y-135851001D03*
X254081099Y-135851001D03*
X253581099Y-135851001D03*
X253081099Y-135851001D03*
X252581099Y-135851001D03*
X252081099Y-135851001D03*
X251581099Y-135851001D03*
X251081099Y-135851001D03*
X250581099Y-135851001D03*
X250081099Y-135851001D03*
X249581099Y-135851001D03*
X249081099Y-135851001D03*
X248581099Y-135851001D03*
X248081099Y-135851001D03*
X247581099Y-135851001D03*
D26*
X245656099Y-137776001D03*
X245656099Y-138276001D03*
X245656099Y-138776001D03*
X245656099Y-139276001D03*
X245656099Y-139776001D03*
X245656099Y-140276001D03*
X245656099Y-140776001D03*
X245656099Y-141276001D03*
X245656099Y-141776001D03*
X245656099Y-142276001D03*
X245656099Y-142776001D03*
X245656099Y-143276001D03*
X245656099Y-143776001D03*
X245656099Y-144276001D03*
X245656099Y-144776001D03*
X245656099Y-145276001D03*
D25*
X247581099Y-147201001D03*
X248081099Y-147201001D03*
X248581099Y-147201001D03*
X249081099Y-147201001D03*
X249581099Y-147201001D03*
X250081099Y-147201001D03*
X250581099Y-147201001D03*
X251081099Y-147201001D03*
X251581099Y-147201001D03*
X252081099Y-147201001D03*
X252581099Y-147201001D03*
X253081099Y-147201001D03*
X253581099Y-147201001D03*
X254081099Y-147201001D03*
X254581099Y-147201001D03*
X255081099Y-147201001D03*
D26*
X257006099Y-145276001D03*
X257006099Y-144776001D03*
X257006099Y-144276001D03*
X257006099Y-143776001D03*
X257006099Y-143276001D03*
X257006099Y-142776001D03*
X257006099Y-142276001D03*
X257006099Y-141776001D03*
X257006099Y-141276001D03*
X257006099Y-140776001D03*
X257006099Y-140276001D03*
X257006099Y-139776001D03*
X257006099Y-139276001D03*
X257006099Y-138776001D03*
X257006099Y-138276001D03*
X257006099Y-137776001D03*
%TD*%
D27*
%TO.C,TP17*%
X260475099Y-145082001D03*
%TD*%
D23*
%TO.C,R45*%
X227986599Y-131050001D03*
X227986599Y-129225001D03*
%TD*%
D28*
%TO.C,R21*%
X232130599Y-94790001D03*
X233955599Y-94790001D03*
%TD*%
D14*
%TO.C,C13*%
X221867099Y-87524501D03*
X221867099Y-85799501D03*
%TD*%
D28*
%TO.C,R49*%
X243814599Y-121818001D03*
X245639599Y-121818001D03*
%TD*%
%TO.C,R43*%
X247370599Y-110284001D03*
X249195599Y-110284001D03*
%TD*%
D13*
%TO.C,R92*%
X215771099Y-136041501D03*
X215771099Y-137866501D03*
%TD*%
D20*
%TO.C,C15*%
X221359099Y-82243501D03*
X221359099Y-83968501D03*
%TD*%
D23*
%TO.C,R69*%
X238631099Y-118447001D03*
X238631099Y-116622001D03*
%TD*%
D10*
%TO.C,R63*%
X265959599Y-124254001D03*
X264134599Y-124254001D03*
%TD*%
%TO.C,R4*%
X251227599Y-97838001D03*
X249402599Y-97838001D03*
%TD*%
D29*
%TO.C,U28*%
X249470599Y-153534001D03*
X249470599Y-154334001D03*
X249470599Y-155134001D03*
X249470599Y-155934001D03*
X247095599Y-155934001D03*
X247095599Y-155134001D03*
X247095599Y-154334001D03*
X247095599Y-153534001D03*
%TD*%
D27*
%TO.C,TP1*%
X240155099Y-86662001D03*
%TD*%
D20*
%TO.C,C20*%
X232050599Y-125931501D03*
X232050599Y-127656501D03*
%TD*%
D17*
%TO.C,C14*%
X214908599Y-71930001D03*
X216633599Y-71930001D03*
%TD*%
%TO.C,C45*%
X256488399Y-147622001D03*
X258213399Y-147622001D03*
%TD*%
D30*
%TO.C,Q9*%
X243281599Y-124888001D03*
X243281599Y-126788001D03*
X245156599Y-125838001D03*
%TD*%
D10*
%TO.C,R36*%
X224557599Y-129334001D03*
X222732599Y-129334001D03*
%TD*%
D31*
%TO.C,U26*%
X202541099Y-159814001D03*
X203811099Y-159814001D03*
X205081099Y-159814001D03*
X206351099Y-159814001D03*
X207621099Y-159814001D03*
X208891099Y-159814001D03*
X210161099Y-159814001D03*
X211431099Y-159814001D03*
X212701099Y-159814001D03*
X213971099Y-159814001D03*
X215241099Y-159814001D03*
X216511099Y-159814001D03*
X217781099Y-159814001D03*
X219051099Y-159814001D03*
X220321099Y-159814001D03*
X221591099Y-159814001D03*
X221591099Y-145173941D03*
X220321099Y-145173941D03*
X219051099Y-145173941D03*
X217781099Y-145173941D03*
X216511099Y-145173941D03*
X215241099Y-145173941D03*
X213971099Y-145173941D03*
X212701099Y-145173941D03*
X211431099Y-145173941D03*
X210161099Y-145173941D03*
X208891099Y-145173941D03*
X207621099Y-145173941D03*
X206351099Y-145173941D03*
X205081099Y-145173941D03*
X203811099Y-145173941D03*
X202541099Y-145173941D03*
%TD*%
D17*
%TO.C,C41*%
X241832599Y-145590001D03*
X243557599Y-145590001D03*
%TD*%
D32*
%TO.C,H1*%
X202309099Y-72946001D03*
%TD*%
D15*
%TO.C,D8*%
X219694099Y-99870001D03*
X217944099Y-99870001D03*
%TD*%
%TO.C,D2*%
X233918099Y-96822001D03*
X232168099Y-96822001D03*
%TD*%
D13*
%TO.C,R14*%
X217359099Y-77113501D03*
X217359099Y-78938501D03*
%TD*%
D28*
%TO.C,R26*%
X201650599Y-123238001D03*
X203475599Y-123238001D03*
%TD*%
D16*
%TO.C,C3*%
X265274599Y-80058001D03*
X263549599Y-80058001D03*
%TD*%
D33*
%TO.C,D1*%
X236475099Y-86662001D03*
X233675099Y-86662001D03*
%TD*%
D30*
%TO.C,Q4*%
X241249599Y-130416001D03*
X241249599Y-132316001D03*
X243124599Y-131366001D03*
%TD*%
D34*
%TO.C,U2*%
X266637099Y-148759501D03*
X267587099Y-148759501D03*
X268537099Y-148759501D03*
X268537099Y-146484501D03*
X266637099Y-146484501D03*
%TD*%
D27*
%TO.C,TP21*%
X254379099Y-153210001D03*
%TD*%
D16*
%TO.C,C42*%
X257781599Y-133906001D03*
X256056599Y-133906001D03*
%TD*%
D10*
%TO.C,R20*%
X228875599Y-93774001D03*
X227050599Y-93774001D03*
%TD*%
D17*
%TO.C,C53*%
X246404599Y-165402001D03*
X248129599Y-165402001D03*
%TD*%
D11*
%TO.C,U6*%
X223456099Y-72692001D03*
X223456099Y-73962001D03*
X223456099Y-75232001D03*
X223456099Y-76502001D03*
X223456099Y-77772001D03*
X223456099Y-79042001D03*
X223456099Y-80312001D03*
X228406099Y-80312001D03*
X228406099Y-79042001D03*
X228406099Y-77772001D03*
X228406099Y-76502001D03*
X228406099Y-75232001D03*
X228406099Y-73962001D03*
X228406099Y-72692001D03*
%TD*%
D35*
%TO.C,Q6*%
X221856899Y-139567901D03*
X223756899Y-139567901D03*
X222806899Y-137692901D03*
%TD*%
D13*
%TO.C,R55*%
X213739099Y-132485501D03*
X213739099Y-134310501D03*
%TD*%
D10*
%TO.C,R38*%
X220747599Y-119174001D03*
X218922599Y-119174001D03*
%TD*%
%TO.C,R37*%
X220747599Y-129334001D03*
X218922599Y-129334001D03*
%TD*%
D15*
%TO.C,D6*%
X224520099Y-124304001D03*
X222770099Y-124304001D03*
%TD*%
D16*
%TO.C,C54*%
X251685599Y-165402001D03*
X249960599Y-165402001D03*
%TD*%
D10*
%TO.C,R2*%
X223795599Y-70914001D03*
X221970599Y-70914001D03*
%TD*%
D28*
%TO.C,R70*%
X254482599Y-98346001D03*
X256307599Y-98346001D03*
%TD*%
D10*
%TO.C,R59*%
X205761599Y-141375501D03*
X203936599Y-141375501D03*
%TD*%
D17*
%TO.C,C46*%
X257580599Y-136446001D03*
X259305599Y-136446001D03*
%TD*%
D28*
%TO.C,R16*%
X235686599Y-83614001D03*
X237511599Y-83614001D03*
%TD*%
D32*
%TO.C,H3*%
X278509099Y-130096001D03*
%TD*%
D17*
%TO.C,C17*%
X209828599Y-116634001D03*
X211553599Y-116634001D03*
%TD*%
D14*
%TO.C,C38*%
X251331099Y-131720501D03*
X251331099Y-129995501D03*
%TD*%
D10*
%TO.C,R28*%
X220747599Y-121714001D03*
X218922599Y-121714001D03*
%TD*%
%TO.C,R74*%
X240051599Y-159814001D03*
X238226599Y-159814001D03*
%TD*%
D24*
%TO.C,U15*%
X209421099Y-124189001D03*
X210691099Y-124189001D03*
X211961099Y-124189001D03*
X213231099Y-124189001D03*
X214501099Y-124189001D03*
X215771099Y-124189001D03*
X217041099Y-124189001D03*
X217041099Y-119239001D03*
X215771099Y-119239001D03*
X214501099Y-119239001D03*
X213231099Y-119239001D03*
X211961099Y-119239001D03*
X210691099Y-119239001D03*
X209421099Y-119239001D03*
%TD*%
D14*
%TO.C,C50*%
X245743099Y-155088501D03*
X245743099Y-153363501D03*
%TD*%
D36*
%TO.C,XTAL1*%
X244727099Y-163471001D03*
X244727099Y-160221001D03*
%TD*%
D28*
%TO.C,R23*%
X217906599Y-103426001D03*
X219731599Y-103426001D03*
%TD*%
D10*
%TO.C,R31*%
X216175599Y-99870001D03*
X214350599Y-99870001D03*
%TD*%
D37*
%TO.C,U1*%
X266819599Y-77706001D03*
X266819599Y-76756001D03*
X266819599Y-75806001D03*
X264544599Y-75806001D03*
X264544599Y-76756001D03*
X264544599Y-77706001D03*
%TD*%
D10*
%TO.C,R17*%
X233955599Y-83614001D03*
X232130599Y-83614001D03*
%TD*%
D38*
%TO.C,U14*%
X230061099Y-106608001D03*
X231011099Y-106608001D03*
X231961099Y-106608001D03*
X231961099Y-104308001D03*
X231011099Y-104308001D03*
X230061099Y-104308001D03*
%TD*%
D28*
%TO.C,R81*%
X257935099Y-114573002D03*
X259760099Y-114573002D03*
%TD*%
%TO.C,R10*%
X245846599Y-94790001D03*
X247671599Y-94790001D03*
%TD*%
D39*
%TO.C,Y1*%
X253171099Y-131916001D03*
X254571099Y-131916001D03*
X254571099Y-130816001D03*
X253171099Y-130816001D03*
%TD*%
D11*
%TO.C,U13*%
X235140099Y-99616001D03*
X235140099Y-100886001D03*
X235140099Y-102156001D03*
X235140099Y-103426001D03*
X235140099Y-104696001D03*
X235140099Y-105966001D03*
X235140099Y-107236001D03*
X240090099Y-107236001D03*
X240090099Y-105966001D03*
X240090099Y-104696001D03*
X240090099Y-103426001D03*
X240090099Y-102156001D03*
X240090099Y-100886001D03*
X240090099Y-99616001D03*
%TD*%
D23*
%TO.C,R13*%
X215771099Y-78938501D03*
X215771099Y-77113501D03*
%TD*%
D30*
%TO.C,Q10*%
X238709599Y-162928001D03*
X238709599Y-164828001D03*
X240584599Y-163878001D03*
%TD*%
D19*
%TO.C,Q2*%
X245410599Y-104884001D03*
X245410599Y-102984001D03*
X243535599Y-103934001D03*
%TD*%
D10*
%TO.C,R72*%
X223795599Y-141526001D03*
X221970599Y-141526001D03*
%TD*%
%TO.C,R62*%
X272460099Y-129334001D03*
X270635099Y-129334001D03*
%TD*%
D33*
%TO.C,D24*%
X237231099Y-166926001D03*
X240031099Y-166926001D03*
%TD*%
D24*
%TO.C,U22*%
X268222099Y-136381001D03*
X269492099Y-136381001D03*
X270682099Y-136381001D03*
X271952099Y-136381001D03*
X271952099Y-131431001D03*
X270682099Y-131431001D03*
X269492099Y-131431001D03*
X268222099Y-131431001D03*
%TD*%
D32*
%TO.C,H2*%
X195958626Y-165656001D03*
%TD*%
D28*
%TO.C,R33*%
X205206599Y-118158001D03*
X207031599Y-118158001D03*
%TD*%
D17*
%TO.C,C49*%
X207796599Y-138478001D03*
X209521599Y-138478001D03*
%TD*%
D28*
%TO.C,R88*%
X258038599Y-120698001D03*
X259863599Y-120698001D03*
%TD*%
D10*
%TO.C,R15*%
X241067599Y-83614001D03*
X239242599Y-83614001D03*
%TD*%
%TO.C,R90*%
X240051599Y-156766001D03*
X238226599Y-156766001D03*
%TD*%
D17*
%TO.C,C51*%
X247420599Y-152194001D03*
X249145599Y-152194001D03*
%TD*%
%TO.C,C30*%
X211098599Y-141375501D03*
X212823599Y-141375501D03*
%TD*%
D27*
%TO.C,TP18*%
X263523099Y-134668001D03*
%TD*%
D14*
%TO.C,C12*%
X238631099Y-76856501D03*
X238631099Y-75131501D03*
%TD*%
D40*
%TO.C,D19*%
X236091099Y-116775001D03*
X236091099Y-118525001D03*
%TD*%
D41*
%TO.C,J3*%
X207532880Y-86575640D03*
X207532880Y-89575640D03*
X207532880Y-92575640D03*
X207532880Y-95575640D03*
X207532880Y-98575640D03*
X207532880Y-101575640D03*
X207532880Y-104575640D03*
X207532880Y-107575640D03*
X207532880Y-110575640D03*
X205032880Y-88075640D03*
X205032880Y-91075640D03*
X205032880Y-94075640D03*
X205032880Y-97075640D03*
X205032880Y-100075640D03*
X205032880Y-103075640D03*
X205032880Y-106075640D03*
X205032880Y-109075640D03*
X202032880Y-88075640D03*
X202032880Y-91075640D03*
X202032880Y-94075640D03*
X202032880Y-97075640D03*
X202032880Y-100075640D03*
X202032880Y-103075640D03*
X202032880Y-106075640D03*
X202032880Y-109075640D03*
X199532880Y-86575640D03*
X199532880Y-89575640D03*
X199532880Y-92575640D03*
X199532880Y-95575640D03*
X199532880Y-98575640D03*
X199532880Y-101575640D03*
X199532880Y-104575640D03*
X199532880Y-107575640D03*
X199532880Y-110575640D03*
%TD*%
D16*
%TO.C,C4*%
X268449599Y-144574001D03*
X266724599Y-144574001D03*
%TD*%
D17*
%TO.C,C33*%
X267232599Y-129334001D03*
X268957599Y-129334001D03*
%TD*%
D42*
%TO.C,RV2*%
X243711099Y-78026001D03*
X246251099Y-78026001D03*
X248791099Y-78026001D03*
%TD*%
D28*
%TO.C,R76*%
X239496599Y-127108001D03*
X241321599Y-127108001D03*
%TD*%
%TO.C,R89*%
X248386599Y-167434001D03*
X250211599Y-167434001D03*
%TD*%
D15*
%TO.C,D4*%
X219694099Y-105458001D03*
X217944099Y-105458001D03*
%TD*%
D43*
%TO.C,FB1*%
X244360099Y-135430001D03*
X246110099Y-135430001D03*
%TD*%
D16*
%TO.C,C6*%
X244065599Y-97838001D03*
X242340599Y-97838001D03*
%TD*%
D10*
%TO.C,R51*%
X249703599Y-114094001D03*
X247878599Y-114094001D03*
%TD*%
D44*
%TO.C,C5*%
X269640599Y-80058001D03*
X267565599Y-80058001D03*
%TD*%
D10*
%TO.C,R78*%
X241321599Y-125270001D03*
X239496599Y-125270001D03*
%TD*%
D14*
%TO.C,C26*%
X266571099Y-136800501D03*
X266571099Y-135075501D03*
%TD*%
D20*
%TO.C,C23*%
X217803099Y-136091501D03*
X217803099Y-137816501D03*
%TD*%
D27*
%TO.C,TP7*%
X261491099Y-116634001D03*
%TD*%
D10*
%TO.C,R41*%
X249195599Y-107744001D03*
X247370599Y-107744001D03*
%TD*%
D27*
%TO.C,TP3*%
X195451099Y-132636001D03*
%TD*%
D28*
%TO.C,R24*%
X201650599Y-120698001D03*
X203475599Y-120698001D03*
%TD*%
D27*
%TO.C,TP8*%
X241679099Y-121206001D03*
%TD*%
D16*
%TO.C,C48*%
X248637599Y-133906001D03*
X246912599Y-133906001D03*
%TD*%
D11*
%TO.C,U11*%
X223964099Y-83360001D03*
X223964099Y-84630001D03*
X223964099Y-85900001D03*
X223964099Y-87170001D03*
X223964099Y-88440001D03*
X223964099Y-89710001D03*
X223964099Y-90980001D03*
X228914099Y-90980001D03*
X228914099Y-89710001D03*
X228914099Y-88440001D03*
X228914099Y-87170001D03*
X228914099Y-85900001D03*
X228914099Y-84630001D03*
X228914099Y-83360001D03*
%TD*%
D28*
%TO.C,R73*%
X262102599Y-136954001D03*
X263927599Y-136954001D03*
%TD*%
D19*
%TO.C,Q1*%
X245410599Y-109964001D03*
X245410599Y-108064001D03*
X243535599Y-109014001D03*
%TD*%
D20*
%TO.C,C35*%
X268603099Y-154379501D03*
X268603099Y-156104501D03*
%TD*%
D28*
%TO.C,R85*%
X258038599Y-105937002D03*
X259863599Y-105937002D03*
%TD*%
%TO.C,R54*%
X213842599Y-110538001D03*
X215667599Y-110538001D03*
%TD*%
D16*
%TO.C,C47*%
X248637599Y-132382001D03*
X246912599Y-132382001D03*
%TD*%
D30*
%TO.C,Q3*%
X247853599Y-119748001D03*
X247853599Y-121648001D03*
X249728599Y-120698001D03*
%TD*%
D12*
%TO.C,U8*%
X249742099Y-91488001D03*
X249742099Y-90218001D03*
X249742099Y-88948001D03*
X249742099Y-87678001D03*
X249742099Y-86408001D03*
X249742099Y-85138001D03*
X249742099Y-83868001D03*
X244792099Y-83868001D03*
X244792099Y-85138001D03*
X244792099Y-86408001D03*
X244792099Y-87678001D03*
X244792099Y-88948001D03*
X244792099Y-90218001D03*
X244792099Y-91488001D03*
%TD*%
D14*
%TO.C,C22*%
X229002599Y-127656501D03*
X229002599Y-125931501D03*
%TD*%
D45*
%TO.C,K2*%
X219327099Y-115622001D03*
X224407099Y-115622001D03*
X226947099Y-115622001D03*
X229487099Y-115622001D03*
X232027099Y-115622001D03*
X232027099Y-109522001D03*
X229487099Y-109522001D03*
X226947099Y-109522001D03*
X224407099Y-109522001D03*
X219327099Y-109522001D03*
%TD*%
D27*
%TO.C,TP9*%
X240155099Y-110538001D03*
%TD*%
D28*
%TO.C,R27*%
X205206599Y-123238001D03*
X207031599Y-123238001D03*
%TD*%
D15*
%TO.C,D11*%
X216646099Y-126794001D03*
X214896099Y-126794001D03*
%TD*%
D10*
%TO.C,R12*%
X259863599Y-86154001D03*
X258038599Y-86154001D03*
%TD*%
%TO.C,R80*%
X243607599Y-144066001D03*
X241782599Y-144066001D03*
%TD*%
D13*
%TO.C,R67*%
X266063099Y-158393501D03*
X266063099Y-160218501D03*
%TD*%
D10*
%TO.C,R22*%
X216175599Y-93774001D03*
X214350599Y-93774001D03*
%TD*%
D28*
%TO.C,R52*%
X247878599Y-116634001D03*
X249703599Y-116634001D03*
%TD*%
%TO.C,R7*%
X258038599Y-94790001D03*
X259863599Y-94790001D03*
%TD*%
D15*
%TO.C,D7*%
X219948099Y-96822001D03*
X218198099Y-96822001D03*
%TD*%
D23*
%TO.C,R65*%
X264031099Y-160218501D03*
X264031099Y-158393501D03*
%TD*%
D11*
%TO.C,U12*%
X207708099Y-72692001D03*
X207708099Y-73962001D03*
X207708099Y-75232001D03*
X207708099Y-76502001D03*
X207708099Y-77772001D03*
X207708099Y-79042001D03*
X207708099Y-80312001D03*
X212658099Y-80312001D03*
X212658099Y-79042001D03*
X212658099Y-77772001D03*
X212658099Y-76502001D03*
X212658099Y-75232001D03*
X212658099Y-73962001D03*
X212658099Y-72692001D03*
%TD*%
D13*
%TO.C,R56*%
X215771099Y-132485501D03*
X215771099Y-134310501D03*
%TD*%
D10*
%TO.C,R29*%
X220747599Y-124224001D03*
X218922599Y-124224001D03*
%TD*%
D30*
%TO.C,Q8*%
X251409599Y-124828001D03*
X251409599Y-126728001D03*
X253284599Y-125778001D03*
%TD*%
D20*
%TO.C,C28*%
X217803099Y-132535501D03*
X217803099Y-134260501D03*
%TD*%
D17*
%TO.C,C19*%
X228116599Y-96060001D03*
X229841599Y-96060001D03*
%TD*%
D28*
%TO.C,R5*%
X249402599Y-94790001D03*
X251227599Y-94790001D03*
%TD*%
D10*
%TO.C,R48*%
X239035599Y-132382001D03*
X237210599Y-132382001D03*
%TD*%
D20*
%TO.C,C36*%
X268603099Y-158443501D03*
X268603099Y-160168501D03*
%TD*%
D16*
%TO.C,C10*%
X221205599Y-77010001D03*
X219480599Y-77010001D03*
%TD*%
D28*
%TO.C,R34*%
X201650599Y-125778001D03*
X203475599Y-125778001D03*
%TD*%
D46*
%TO.C,J4*%
X233977099Y-161084001D03*
X230077099Y-161084001D03*
X233977099Y-159814001D03*
X230077099Y-159814001D03*
X233977099Y-158544001D03*
X230077099Y-158544001D03*
X233977099Y-157274001D03*
X230077099Y-157274001D03*
X233977099Y-156004001D03*
X230077099Y-156004001D03*
X233977099Y-154734001D03*
X230077099Y-154734001D03*
X233977099Y-153464001D03*
X230077099Y-153464001D03*
%TD*%
D10*
%TO.C,R87*%
X259863599Y-118129002D03*
X258038599Y-118129002D03*
%TD*%
%TO.C,R79*%
X259863599Y-102918001D03*
X258038599Y-102918001D03*
%TD*%
D16*
%TO.C,C43*%
X243557599Y-138478001D03*
X241832599Y-138478001D03*
%TD*%
D24*
%TO.C,U21*%
X261110099Y-131301001D03*
X262380099Y-131301001D03*
X263570099Y-131301001D03*
X264840099Y-131301001D03*
X264840099Y-126351001D03*
X263570099Y-126351001D03*
X262380099Y-126351001D03*
X261110099Y-126351001D03*
%TD*%
D28*
%TO.C,R83*%
X257935099Y-112033002D03*
X259760099Y-112033002D03*
%TD*%
D17*
%TO.C,C18*%
X242340599Y-99870001D03*
X244065599Y-99870001D03*
%TD*%
D27*
%TO.C,TP5*%
X265047099Y-119428001D03*
%TD*%
D14*
%TO.C,C40*%
X236345099Y-144420501D03*
X236345099Y-142695501D03*
%TD*%
D20*
%TO.C,C29*%
X201801099Y-139393501D03*
X201801099Y-141118501D03*
%TD*%
D16*
%TO.C,C44*%
X243557599Y-147114001D03*
X241832599Y-147114001D03*
%TD*%
D28*
%TO.C,R32*%
X201650599Y-118158001D03*
X203475599Y-118158001D03*
%TD*%
D41*
%TO.C,J1*%
X266934820Y-110574600D03*
X266934820Y-107574600D03*
X266934820Y-104574600D03*
X266934820Y-101574600D03*
X266934820Y-98574600D03*
X266934820Y-95574600D03*
X266934820Y-92574600D03*
X266934820Y-89574600D03*
X266934820Y-86574600D03*
X269434820Y-109074600D03*
X269434820Y-106074600D03*
X269434820Y-103074600D03*
X269434820Y-100074600D03*
X269434820Y-97074600D03*
X269434820Y-94074600D03*
X269434820Y-91074600D03*
X269434820Y-88074600D03*
X272434820Y-109074600D03*
X272434820Y-106074600D03*
X272434820Y-103074600D03*
X272434820Y-100074600D03*
X272434820Y-97074600D03*
X272434820Y-94074600D03*
X272434820Y-91074600D03*
X272434820Y-88074600D03*
X274934820Y-110574600D03*
X274934820Y-107574600D03*
X274934820Y-104574600D03*
X274934820Y-101574600D03*
X274934820Y-98574600D03*
X274934820Y-95574600D03*
X274934820Y-92574600D03*
X274934820Y-89574600D03*
X274934820Y-86574600D03*
%TD*%
D13*
%TO.C,R91*%
X213739099Y-136041501D03*
X213739099Y-137866501D03*
%TD*%
D28*
%TO.C,R61*%
X231368599Y-119682001D03*
X233193599Y-119682001D03*
%TD*%
D32*
%TO.C,H4*%
X272159099Y-72946001D03*
%TD*%
D28*
%TO.C,R35*%
X205206599Y-125778001D03*
X207031599Y-125778001D03*
%TD*%
D27*
%TO.C,TP4*%
X197737099Y-132636001D03*
%TD*%
D16*
%TO.C,C9*%
X259813599Y-90218001D03*
X258088599Y-90218001D03*
%TD*%
D28*
%TO.C,R25*%
X205206599Y-120698001D03*
X207031599Y-120698001D03*
%TD*%
D10*
%TO.C,R18*%
X238019599Y-90218001D03*
X236194599Y-90218001D03*
%TD*%
D42*
%TO.C,RV1*%
X243711099Y-72443001D03*
X246251099Y-72443001D03*
X248791099Y-72443001D03*
%TD*%
D20*
%TO.C,C11*%
X251839099Y-87831501D03*
X251839099Y-89556501D03*
%TD*%
D10*
%TO.C,R30*%
X216175599Y-96822001D03*
X214350599Y-96822001D03*
%TD*%
D11*
%TO.C,U9*%
X214312099Y-82852001D03*
X214312099Y-84122001D03*
X214312099Y-85392001D03*
X214312099Y-86662001D03*
X214312099Y-87932001D03*
X214312099Y-89202001D03*
X214312099Y-90472001D03*
X219262099Y-90472001D03*
X219262099Y-89202001D03*
X219262099Y-87932001D03*
X219262099Y-86662001D03*
X219262099Y-85392001D03*
X219262099Y-84122001D03*
X219262099Y-82852001D03*
%TD*%
D24*
%TO.C,U24*%
X204341099Y-136381001D03*
X205611099Y-136381001D03*
X206881099Y-136381001D03*
X208151099Y-136381001D03*
X209421099Y-136381001D03*
X210691099Y-136381001D03*
X211961099Y-136381001D03*
X211961099Y-131431001D03*
X210691099Y-131431001D03*
X209421099Y-131431001D03*
X208151099Y-131431001D03*
X206881099Y-131431001D03*
X205611099Y-131431001D03*
X204341099Y-131431001D03*
%TD*%
D17*
%TO.C,C8*%
X258088599Y-84122001D03*
X259813599Y-84122001D03*
%TD*%
D47*
%TO.C,U29*%
X247061722Y-163568235D03*
D48*
X247974222Y-163705735D03*
X248474222Y-163705735D03*
X248974222Y-163705735D03*
X249474222Y-163705735D03*
D47*
X250386722Y-163568235D03*
X250386722Y-163068235D03*
X250386722Y-162568235D03*
X250386722Y-162068235D03*
X250386722Y-161568235D03*
X250386722Y-161068235D03*
X250386722Y-160568235D03*
X250386722Y-160068235D03*
X250386722Y-159568235D03*
X250386722Y-159068235D03*
D48*
X249474222Y-158930735D03*
X248974222Y-158930735D03*
X248474222Y-158930735D03*
X247974222Y-158930735D03*
D47*
X247061722Y-159068235D03*
X247061722Y-159568235D03*
X247061722Y-160068235D03*
X247061722Y-160568235D03*
X247061722Y-161068235D03*
X247061722Y-161568235D03*
X247061722Y-162068235D03*
X247061722Y-162568235D03*
X247061722Y-163068235D03*
%TD*%
D13*
%TO.C,R57*%
X201801099Y-131723501D03*
X201801099Y-133548501D03*
%TD*%
%TO.C,R66*%
X266063099Y-154329501D03*
X266063099Y-156154501D03*
%TD*%
D23*
%TO.C,R84*%
X236091099Y-122118501D03*
X236091099Y-120293501D03*
%TD*%
D33*
%TO.C,D22*%
X235075099Y-110662001D03*
X235075099Y-113462001D03*
%TD*%
D10*
%TO.C,R50*%
X239035599Y-130350001D03*
X237210599Y-130350001D03*
%TD*%
%TO.C,R71*%
X223643199Y-135734801D03*
X221818199Y-135734801D03*
%TD*%
D14*
%TO.C,C25*%
X259459099Y-131720501D03*
X259459099Y-129995501D03*
%TD*%
D27*
%TO.C,TP2*%
X238123099Y-95806001D03*
%TD*%
D15*
%TO.C,D3*%
X219694099Y-93774001D03*
X217944099Y-93774001D03*
%TD*%
D13*
%TO.C,R58*%
X201801099Y-135533501D03*
X201801099Y-137358501D03*
%TD*%
D15*
%TO.C,D9*%
X224520099Y-119174001D03*
X222770099Y-119174001D03*
%TD*%
D23*
%TO.C,R46*%
X227986599Y-134818501D03*
X227986599Y-132993501D03*
%TD*%
D20*
%TO.C,C52*%
X252347099Y-161491501D03*
X252347099Y-163216501D03*
%TD*%
D10*
%TO.C,R39*%
X220747599Y-126794001D03*
X218922599Y-126794001D03*
%TD*%
D16*
%TO.C,C7*%
X244065599Y-94790001D03*
X242340599Y-94790001D03*
%TD*%
D10*
%TO.C,R77*%
X249449599Y-124508001D03*
X247624599Y-124508001D03*
%TD*%
D28*
%TO.C,R53*%
X213842599Y-107998001D03*
X215667599Y-107998001D03*
%TD*%
%TO.C,R44*%
X247370599Y-104950001D03*
X249195599Y-104950001D03*
%TD*%
%TO.C,R6*%
X258038599Y-87678001D03*
X259863599Y-87678001D03*
%TD*%
%TO.C,R42*%
X247370599Y-102918001D03*
X249195599Y-102918001D03*
%TD*%
%TO.C,R3*%
X218414599Y-74470001D03*
X220239599Y-74470001D03*
%TD*%
%TO.C,R68*%
X258038599Y-98346001D03*
X259863599Y-98346001D03*
%TD*%
D23*
%TO.C,R8*%
X220343099Y-72842501D03*
X220343099Y-71017501D03*
%TD*%
D49*
%TO.C,J2*%
X280769700Y-151432000D03*
X279245700Y-150416000D03*
X279245700Y-152448000D03*
X279245700Y-154480000D03*
X280769700Y-153464000D03*
X280769700Y-155496000D03*
X280769700Y-157528000D03*
X279245700Y-156512000D03*
D50*
X280414100Y-163243000D03*
X280414100Y-144701000D03*
%TD*%
D10*
%TO.C,R9*%
X247671599Y-97838001D03*
X245846599Y-97838001D03*
%TD*%
D51*
%TO.C,SW5*%
X234398099Y-146174001D03*
X229148099Y-146174001D03*
X234398099Y-142974001D03*
X229148099Y-142974001D03*
%TD*%
D10*
%TO.C,R40*%
X212873599Y-126794001D03*
X211048599Y-126794001D03*
%TD*%
D15*
%TO.C,D10*%
X224520099Y-126794001D03*
X222770099Y-126794001D03*
%TD*%
D13*
%TO.C,R1*%
X238631099Y-79145501D03*
X238631099Y-80970501D03*
%TD*%
D16*
%TO.C,C27*%
X215617599Y-113078001D03*
X213892599Y-113078001D03*
%TD*%
D28*
%TO.C,R86*%
X258038599Y-108955002D03*
X259863599Y-108955002D03*
%TD*%
D27*
%TO.C,TP6*%
X197737099Y-135684001D03*
%TD*%
D16*
%TO.C,C39*%
X254733599Y-100886001D03*
X253008599Y-100886001D03*
%TD*%
M02*
