%TF.GenerationSoftware,KiCad,Pcbnew,9.0.7*%
%TF.CreationDate,2026-02-09T19:02:23-08:00*%
%TF.ProjectId,VCU,5643552e-6b69-4636-9164-5f7063625858,1.5*%
%TF.SameCoordinates,Original*%
%TF.FileFunction,Soldermask,Bot*%
%TF.FilePolarity,Negative*%
%FSLAX46Y46*%
G04 Gerber Fmt 4.6, Leading zero omitted, Abs format (unit mm)*
G04 Created by KiCad (PCBNEW 9.0.7) date 2026-02-09 19:02:23*
%MOMM*%
%LPD*%
G01*
G04 APERTURE LIST*
%ADD10C,1.600200*%
%ADD11C,6.400000*%
%ADD12C,2.000000*%
%ADD13C,1.440000*%
%ADD14C,1.447800*%
%ADD15C,2.692400*%
%ADD16C,1.000000*%
G04 APERTURE END LIST*
D10*
%TO.C,K3*%
X255395099Y-102918001D03*
X255395099Y-105458001D03*
X255395099Y-113078001D03*
X255395099Y-120698001D03*
%TD*%
D11*
%TO.C,H1*%
X202309099Y-72946001D03*
%TD*%
%TO.C,H3*%
X278509099Y-130096001D03*
%TD*%
%TO.C,H2*%
X195958626Y-165656001D03*
%TD*%
D12*
%TO.C,J3*%
X207532880Y-86575640D03*
X207532880Y-89575640D03*
X207532880Y-92575640D03*
X207532880Y-95575640D03*
X207532880Y-98575640D03*
X207532880Y-101575640D03*
X207532880Y-104575640D03*
X207532880Y-107575640D03*
X207532880Y-110575640D03*
X205032880Y-88075640D03*
X205032880Y-91075640D03*
X205032880Y-94075640D03*
X205032880Y-97075640D03*
X205032880Y-100075640D03*
X205032880Y-103075640D03*
X205032880Y-106075640D03*
X205032880Y-109075640D03*
X202032880Y-88075640D03*
X202032880Y-91075640D03*
X202032880Y-94075640D03*
X202032880Y-97075640D03*
X202032880Y-100075640D03*
X202032880Y-103075640D03*
X202032880Y-106075640D03*
X202032880Y-109075640D03*
X199532880Y-86575640D03*
X199532880Y-89575640D03*
X199532880Y-92575640D03*
X199532880Y-95575640D03*
X199532880Y-98575640D03*
X199532880Y-101575640D03*
X199532880Y-104575640D03*
X199532880Y-107575640D03*
X199532880Y-110575640D03*
%TD*%
D13*
%TO.C,RV2*%
X243711099Y-78026001D03*
X246251099Y-78026001D03*
X248791099Y-78026001D03*
%TD*%
D12*
%TO.C,J1*%
X266934820Y-110574600D03*
X266934820Y-107574600D03*
X266934820Y-104574600D03*
X266934820Y-101574600D03*
X266934820Y-98574600D03*
X266934820Y-95574600D03*
X266934820Y-92574600D03*
X266934820Y-89574600D03*
X266934820Y-86574600D03*
X269434820Y-109074600D03*
X269434820Y-106074600D03*
X269434820Y-103074600D03*
X269434820Y-100074600D03*
X269434820Y-97074600D03*
X269434820Y-94074600D03*
X269434820Y-91074600D03*
X269434820Y-88074600D03*
X272434820Y-109074600D03*
X272434820Y-106074600D03*
X272434820Y-103074600D03*
X272434820Y-100074600D03*
X272434820Y-97074600D03*
X272434820Y-94074600D03*
X272434820Y-91074600D03*
X272434820Y-88074600D03*
X274934820Y-110574600D03*
X274934820Y-107574600D03*
X274934820Y-104574600D03*
X274934820Y-101574600D03*
X274934820Y-98574600D03*
X274934820Y-95574600D03*
X274934820Y-92574600D03*
X274934820Y-89574600D03*
X274934820Y-86574600D03*
%TD*%
D11*
%TO.C,H4*%
X272159099Y-72946001D03*
%TD*%
D13*
%TO.C,RV1*%
X243711099Y-72443001D03*
X246251099Y-72443001D03*
X248791099Y-72443001D03*
%TD*%
D14*
%TO.C,J2*%
X280769700Y-151432000D03*
X279245700Y-150416000D03*
X279245700Y-152448000D03*
X279245700Y-154480000D03*
X280769700Y-153464000D03*
X280769700Y-155496000D03*
X280769700Y-157528000D03*
X279245700Y-156512000D03*
D15*
X280414100Y-163243000D03*
X280414100Y-144701000D03*
%TD*%
D16*
%TO.C,TP12*%
X252855099Y-150162001D03*
%TD*%
%TO.C,TP11*%
X252093099Y-144828001D03*
%TD*%
%TO.C,TP14*%
X248029099Y-142288001D03*
%TD*%
%TO.C,TP13*%
X255395099Y-144574001D03*
%TD*%
%TO.C,TP16*%
X249807099Y-136700001D03*
%TD*%
%TO.C,TP15*%
X239393099Y-149654001D03*
%TD*%
M02*
