M48
; DRILL file {KiCad 9.0.7} date 2026-02-09T19:02:19-0800
; FORMAT={-:-/ absolute / metric / decimal}
; #@! TF.CreationDate,2026-02-09T19:02:19-08:00
; #@! TF.GenerationSoftware,Kicad,Pcbnew,9.0.7
; #@! TF.FileFunction,Plated,1,4,PTH
FMAT,2
METRIC
; #@! TA.AperFunction,Plated,PTH,ViaDrill
T1C0.254
; #@! TA.AperFunction,Plated,PTH,ViaDrill
T2C0.300
; #@! TA.AperFunction,Plated,PTH,ViaDrill
T3C0.381
; #@! TA.AperFunction,Plated,PTH,ComponentDrill
T4C0.800
; #@! TA.AperFunction,Plated,PTH,ComponentDrill
T5C0.838
; #@! TA.AperFunction,Plated,PTH,ComponentDrill
T6C1.092
; #@! TA.AperFunction,Plated,PTH,ComponentDrill
T7C1.400
; #@! TA.AperFunction,Plated,PTH,ComponentDrill
T8C2.083
; #@! TA.AperFunction,Plated,PTH,ComponentDrill
T9C3.200
%
G90
G05
T1
X201.293Y-124.508
X201.801Y-142.288
X203.071Y-135.684
X203.071Y-139.24
X205.103Y-143.558
X206.119Y-80.312
X206.322Y-128.318
X206.373Y-143.558
X206.881Y-129.08
X207.135Y-124.508
X207.389Y-140.256
X207.643Y-129.08
X207.643Y-161.592
X208.151Y-119.428
X208.151Y-133.144
X208.151Y-139.748
X208.405Y-118.412
X208.405Y-129.08
X208.659Y-116.634
X209.167Y-77.772
X209.167Y-127.302
X209.421Y-140.002
X210.183Y-143.558
X211.199Y-77.264
X211.453Y-161.592
X211.961Y-81.328
X212.723Y-143.558
X212.774Y-85.617
X212.977Y-88.694
X212.977Y-100.886
X212.977Y-111.808
X212.977Y-116.888
X213.231Y-106.474
X213.485Y-71.422
X213.739Y-101.648
X213.993Y-91.488
X213.993Y-125.524
X214.247Y-141.526
X214.501Y-73.962
X214.501Y-75.232
X214.501Y-77.772
X214.774Y-114.348
X215.263Y-143.558
X215.771Y-84.833
X215.771Y-88.186
X215.771Y-114.602
X216.787Y-108.506
X216.914Y-129.207
X217.795Y-127.556
X217.803Y-71.93
X217.803Y-125.524
X217.803Y-129.08
X218.311Y-81.836
X218.555Y-80.327
X218.565Y-75.74
X218.579Y-73.251
X218.819Y-161.846
X219.073Y-71.93
X219.073Y-134.16
X219.073Y-137.716
X219.327Y-136.446
X219.694Y-91.347
X219.835Y-95.298
X219.835Y-98.346
X220.089Y-78.28
X220.597Y-139.748
X220.851Y-85.138
X220.851Y-86.154
X221.105Y-105.204
X221.105Y-140.764
X222.121Y-88.948
X222.948Y-82.344
X223.391Y-96.06
X224.407Y-120.444
X224.407Y-122.984
X224.407Y-125.524
X224.661Y-135.684
X225.155Y-162.594
X225.372Y-74.749
X225.423Y-103.172
X225.691Y-89.47
X225.691Y-163.638
X226.185Y-95.044
X226.185Y-103.934
X226.236Y-87.17
X226.439Y-72.641
X226.439Y-90.98
X226.947Y-79.55
X226.947Y-86.408
X227.455Y-136.954
X227.455Y-146.098
X227.963Y-153.464
X228.203Y-140.496
X228.725Y-107.744
X228.979Y-106.982
X229.233Y-94.79
X229.233Y-131.62
X229.233Y-135.43
X229.741Y-124.762
X229.995Y-71.93
X229.995Y-76.502
X229.995Y-100.124
X230.249Y-127.556
X230.503Y-86.408
X231.011Y-83.614
X231.011Y-118.412
X231.519Y-137.97
X232.027Y-153.464
X232.027Y-154.734
X232.027Y-157.274
X232.027Y-158.544
X233.043Y-75.74
X233.043Y-104.188
X233.043Y-124.762
X233.043Y-151.635
X233.297Y-102.156
X233.297Y-107.236
X233.805Y-79.042
X233.805Y-81.531
X233.805Y-88.948
X234.059Y-73.403
X234.567Y-91.742
X234.821Y-80.058
X234.821Y-82.09
X234.821Y-84.376
X235.075Y-73.454
X235.075Y-114.856
X235.075Y-120.698
X235.075Y-122.677
X235.329Y-96.822
X235.837Y-145.59
X236.091Y-154.734
X236.091Y-159.814
X236.599Y-81.328
X237.361Y-108.506
X238.123Y-141.018
X238.123Y-151.686
X238.123Y-154.226
X238.377Y-105.966
X238.377Y-127.302
X238.396Y-106.652
X238.631Y-101.394
X239.596Y-117.904
X239.647Y-84.63
X239.887Y-123.168
X239.901Y-77.518
X240.155Y-75.232
X240.155Y-131.366
X240.282Y-121.333
X240.649Y-140.307
X240.663Y-77.264
X240.663Y-145.59
X240.917Y-81.328
X240.917Y-109.014
X241.425Y-98.854
X241.679Y-116.126
X241.679Y-157.528
X241.933Y-102.918
X242.187Y-96.314
X242.455Y-134.936
X242.492Y-106.045
X242.695Y-127.81
X242.695Y-166.418
X242.949Y-102.918
X242.949Y-148.13
X243.203Y-98.854
X243.558Y-136.954
X243.965Y-105.204
X244.219Y-82.598
X244.529Y-136.898
X244.727Y-80.058
X245.387Y-112.589
X245.489Y-93.012
X245.743Y-120.698
X245.743Y-133.144
X245.743Y-152.194
X245.743Y-156.258
X245.743Y-157.782
X245.946Y-117.904
X245.997Y-101.902
X245.997Y-109.014
X246.251Y-161.338
X246.251Y-163.147
X246.505Y-115.364
X246.505Y-124.305
X247.013Y-138.224
X247.013Y-142.288
X247.013Y-144.574
X247.013Y-164.386
X247.267Y-122.476
X247.267Y-151.178
X247.521Y-166.418
X247.775Y-123.168
X247.775Y-149.146
X248.14Y-137.462
X248.14Y-138.252
X248.283Y-158.036
X248.537Y-93.571
X248.791Y-137.208
X248.791Y-157.02
X249.14Y-149.385
X249.299Y-151.178
X249.44Y-138.679
X249.459Y-123.144
X249.807Y-92.504
X249.807Y-149.146
X250.061Y-108.252
X250.061Y-125.778
X250.061Y-138.986
X250.569Y-102.918
X250.569Y-105.966
X250.569Y-154.298
X250.569Y-166.418
X250.823Y-113.586
X250.823Y-116.634
X250.823Y-127.81
X251.331Y-150.67
X251.578Y-133.144
X251.585Y-100.632
X251.585Y-128.318
X251.585Y-145.844
X251.585Y-159.56
X251.585Y-164.132
X252.081Y-140.002
X252.347Y-97.838
X252.347Y-117.907
X252.347Y-148.638
X252.522Y-142.339
X252.64Y-137.128
X252.855Y-165.373
X253.095Y-144.334
X253.109Y-87.678
X253.109Y-89.71
X253.109Y-128.318
X253.363Y-145.082
X253.617Y-161.592
X254.125Y-133.652
X254.133Y-145.102
X254.379Y-141.272
X254.379Y-143.05
X254.445Y-138.29
X254.633Y-134.414
X254.647Y-165.416
X254.873Y-148.906
X254.887Y-145.844
X255.395Y-143.05
X255.649Y-148.892
X256.157Y-123.238
X256.341Y-132.89
X256.36Y-162.862
X256.373Y-99.598
X257.173Y-100.327
X257.427Y-153.718
X257.935Y-88.948
X257.935Y-96.06
X257.935Y-101.902
X257.935Y-104.911
X257.935Y-113.332
X257.935Y-135.43
X258.189Y-146.352
X258.697Y-100.327
X258.697Y-152.448
X258.951Y-133.906
X259.459Y-137.716
X259.713Y-115.44
X259.967Y-97.33
X260.221Y-132.89
X260.78Y-124.762
X260.983Y-84.122
X260.983Y-114.856
X261.491Y-102.918
X261.745Y-142.542
X262.253Y-124.508
X262.507Y-143.05
X262.761Y-104.95
X262.761Y-158.29
X264.031Y-153.21
X264.285Y-109.776
X264.793Y-135.43
X265.023Y-133.144
X265.047Y-157.274
X267.333Y-124.254
X267.333Y-130.858
X267.587Y-137.97
X269.365Y-128.064
X269.873Y-125.27
X269.873Y-156.258
X269.873Y-160.068
X269.92Y-126.079
X273.175Y-136.7
T2
X204.341Y-114.094
X242.949Y-87.678
X247.013Y-143.812
X258.667Y-135.43
X258.951Y-128.826
X259.108Y-119.428
X263.523Y-101.902
T3
X200.531Y-115.11
X200.531Y-117.142
X216.304Y-116.355
X226.439Y-129.08
X226.439Y-131.112
X226.439Y-136.192
X226.439Y-140.51
X226.439Y-165.402
X235.583Y-166.926
X241.171Y-165.148
X242.441Y-128.826
X245.743Y-128.826
X247.267Y-130.35
X249.553Y-129.334
X252.855Y-75.994
X252.855Y-77.01
X252.855Y-78.026
X252.855Y-79.042
X252.855Y-80.058
X253.871Y-75.994
X253.871Y-77.01
X253.871Y-78.026
X253.871Y-79.042
X253.871Y-80.058
X254.887Y-75.994
X254.887Y-77.01
X254.887Y-78.026
X254.887Y-79.042
X254.887Y-80.058
X255.903Y-75.994
X255.903Y-80.058
X256.919Y-75.994
X256.919Y-80.058
X258.951Y-124.254
X263.015Y-71.422
X263.015Y-72.438
X263.015Y-73.454
X263.015Y-74.47
X263.523Y-116.634
X264.031Y-71.422
X264.031Y-72.438
X264.031Y-148.13
X264.031Y-149.146
X264.285Y-142.796
X264.285Y-143.812
X264.285Y-144.828
X264.285Y-145.844
X264.793Y-150.924
X264.793Y-151.94
X265.047Y-71.422
X265.047Y-72.438
X265.047Y-148.13
X265.047Y-149.146
X265.301Y-142.796
X265.301Y-143.812
X265.301Y-144.828
X265.301Y-145.844
X265.809Y-150.924
X265.809Y-151.94
X266.317Y-142.796
X266.825Y-151.94
X268.857Y-143.304
X269.111Y-151.94
X269.619Y-78.534
X269.619Y-81.582
X269.873Y-143.304
X269.873Y-144.574
X270.381Y-148.638
X270.381Y-149.654
X270.381Y-150.67
X270.381Y-151.94
X270.635Y-78.534
X270.635Y-81.582
X270.889Y-143.304
X270.889Y-144.574
X271.397Y-79.804
X271.397Y-80.82
X274.191Y-113.84
T4
X243.711Y-72.443
X243.711Y-78.026
X246.251Y-72.443
X246.251Y-78.026
X248.791Y-72.443
X248.791Y-78.026
T5
X279.246Y-150.416
X279.246Y-152.448
X279.246Y-154.48
X279.246Y-156.512
X280.77Y-151.432
X280.77Y-153.464
X280.77Y-155.496
X280.77Y-157.528
T6
X255.395Y-102.918
X255.395Y-105.458
X255.395Y-113.078
X255.395Y-120.698
T7
X199.533Y-86.576
X199.533Y-89.576
X199.533Y-92.576
X199.533Y-95.576
X199.533Y-98.576
X199.533Y-101.576
X199.533Y-104.576
X199.533Y-107.576
X199.533Y-110.576
X202.033Y-88.076
X202.033Y-91.076
X202.033Y-94.076
X202.033Y-97.076
X202.033Y-100.076
X202.033Y-103.076
X202.033Y-106.076
X202.033Y-109.076
X205.033Y-88.076
X205.033Y-91.076
X205.033Y-94.076
X205.033Y-97.076
X205.033Y-100.076
X205.033Y-103.076
X205.033Y-106.076
X205.033Y-109.076
X207.533Y-86.576
X207.533Y-89.576
X207.533Y-92.576
X207.533Y-95.576
X207.533Y-98.576
X207.533Y-101.576
X207.533Y-104.576
X207.533Y-107.576
X207.533Y-110.576
X266.935Y-86.575
X266.935Y-89.575
X266.935Y-92.575
X266.935Y-95.575
X266.935Y-98.575
X266.935Y-101.575
X266.935Y-104.575
X266.935Y-107.575
X266.935Y-110.575
X269.435Y-88.075
X269.435Y-91.075
X269.435Y-94.075
X269.435Y-97.075
X269.435Y-100.075
X269.435Y-103.075
X269.435Y-106.075
X269.435Y-109.075
X272.435Y-88.075
X272.435Y-91.075
X272.435Y-94.075
X272.435Y-97.075
X272.435Y-100.075
X272.435Y-103.075
X272.435Y-106.075
X272.435Y-109.075
X274.935Y-86.575
X274.935Y-89.575
X274.935Y-92.575
X274.935Y-95.575
X274.935Y-98.575
X274.935Y-101.575
X274.935Y-104.575
X274.935Y-107.575
X274.935Y-110.575
T8
X280.414Y-144.701
X280.414Y-163.243
T9
X195.959Y-165.656
X202.309Y-72.946
X272.159Y-72.946
X278.509Y-130.096
M30
