%TF.GenerationSoftware,KiCad,Pcbnew,9.0.6*%
%TF.CreationDate,2026-05-19T08:45:07-07:00*%
%TF.ProjectId,Power Electronics Board,506f7765-7220-4456-9c65-6374726f6e69,3.0*%
%TF.SameCoordinates,Original*%
%TF.FileFunction,Copper,L2,Bot*%
%TF.FilePolarity,Positive*%
%FSLAX46Y46*%
G04 Gerber Fmt 4.6, Leading zero omitted, Abs format (unit mm)*
G04 Created by KiCad (PCBNEW 9.0.6) date 2026-05-19 08:45:07*
%MOMM*%
%LPD*%
G01*
G04 APERTURE LIST*
%TA.AperFunction,ComponentPad*%
%ADD10C,3.200000*%
%TD*%
%TA.AperFunction,ComponentPad*%
%ADD11C,5.588000*%
%TD*%
%TA.AperFunction,ComponentPad*%
%ADD12R,1.508000X1.508000*%
%TD*%
%TA.AperFunction,ComponentPad*%
%ADD13C,1.508000*%
%TD*%
%TA.AperFunction,ComponentPad*%
%ADD14C,2.641600*%
%TD*%
%TA.AperFunction,ComponentPad*%
%ADD15C,1.676400*%
%TD*%
%TA.AperFunction,ComponentPad*%
%ADD16C,2.400000*%
%TD*%
%TA.AperFunction,ComponentPad*%
%ADD17C,6.400000*%
%TD*%
%TA.AperFunction,ComponentPad*%
%ADD18C,3.900000*%
%TD*%
%TA.AperFunction,ComponentPad*%
%ADD19C,1.950000*%
%TD*%
%TA.AperFunction,ComponentPad*%
%ADD20C,1.397000*%
%TD*%
%TA.AperFunction,ViaPad*%
%ADD21C,0.508000*%
%TD*%
%TA.AperFunction,ViaPad*%
%ADD22C,0.762000*%
%TD*%
%TA.AperFunction,Conductor*%
%ADD23C,0.254000*%
%TD*%
%TA.AperFunction,Conductor*%
%ADD24C,0.508000*%
%TD*%
G04 APERTURE END LIST*
D10*
%TO.P,J1,1,Pin_1*%
%TO.N,+12V_BAT*%
X53566000Y-121130000D03*
X53566000Y-127000000D03*
X59436000Y-121130000D03*
X59436000Y-127000000D03*
%TD*%
D11*
%TO.P,F1,1*%
%TO.N,Net-(K3-COM_1)*%
X94341950Y-111175800D03*
%TO.P,F1,2*%
X94341950Y-102844600D03*
%TO.P,F1,3*%
%TO.N,GLVMS*%
X94341950Y-81813400D03*
%TO.P,F1,4*%
X94341950Y-90144600D03*
%TD*%
D12*
%TO.P,RV1,1,1*%
%TO.N,+5V_LV*%
X70104000Y-144272000D03*
D13*
%TO.P,RV1,2,2*%
%TO.N,Net-(U1A-+)*%
X72604000Y-144272000D03*
%TO.P,RV1,3,3*%
%TO.N,GND*%
X75104000Y-144272000D03*
%TD*%
D14*
%TO.P,K2,1*%
%TO.N,Net-(J8-Pin_1)*%
X65582800Y-95834200D03*
D15*
%TO.P,K2,2*%
%TO.N,+12V_BAT*%
X69392800Y-108534200D03*
%TO.P,K2,3*%
%TO.N,Net-(K2-Pad3)*%
X79552800Y-108534200D03*
D14*
%TO.P,K2,4*%
%TO.N,Net-(K3-COM_1)*%
X83362800Y-93294200D03*
%TO.P,K2,5*%
%TO.N,unconnected-(K2-Pad5)*%
X83362800Y-85674200D03*
%TD*%
D10*
%TO.P,J2,1,Pin_1*%
%TO.N,GND*%
X53453000Y-132701000D03*
X53453000Y-138571000D03*
X59323000Y-132701000D03*
X59323000Y-138571000D03*
%TD*%
D16*
%TO.P,R4,1*%
%TO.N,Net-(J5-Pin_2)*%
X157472000Y-144613500D03*
%TO.P,R4,2*%
%TO.N,Net-(J3-Pin_2)*%
X179872000Y-144613500D03*
%TD*%
%TO.P,R7,1*%
%TO.N,Net-(J3-Pin_1)*%
X179872000Y-126325500D03*
%TO.P,R7,2*%
%TO.N,Net-(J5-Pin_1)*%
X157472000Y-126325500D03*
%TD*%
D17*
%TO.P,H2,1,1*%
%TO.N,GND*%
X52324000Y-80772000D03*
%TD*%
%TO.P,H1,1,1*%
%TO.N,GND*%
X52324000Y-146304000D03*
%TD*%
D18*
%TO.P,K3,1,NO_1*%
%TO.N,+12V_BAT*%
X67554000Y-131254000D03*
%TO.P,K3,2,NO_2*%
X67554000Y-127254000D03*
%TO.P,K3,3,NO_3*%
X67554000Y-123254000D03*
%TO.P,K3,4,COM_1*%
%TO.N,Net-(K3-COM_1)*%
X76454000Y-131254000D03*
%TO.P,K3,5,COM_2*%
X76454000Y-127254000D03*
%TO.P,K3,6,COM_3*%
X76454000Y-123254000D03*
D19*
%TO.P,K3,A1,S-/R-*%
%TO.N,GND*%
X93154000Y-131454000D03*
%TO.P,K3,A2,S+*%
%TO.N,Reset_Button_In*%
X98154000Y-131454000D03*
%TO.P,K3,A3,R+*%
%TO.N,Net-(D2-K)*%
X88154000Y-131454000D03*
%TD*%
D10*
%TO.P,J10,1,Pin_1*%
%TO.N,GND*%
X101459000Y-94347000D03*
X101459000Y-100217000D03*
X107329000Y-94347000D03*
X107329000Y-100217000D03*
%TD*%
%TO.P,J6,1,Pin_1*%
%TO.N,GLVMS*%
X101572000Y-82268000D03*
X101572000Y-88138000D03*
X107442000Y-82268000D03*
X107442000Y-88138000D03*
%TD*%
%TO.P,J9,1,Pin_1*%
%TO.N,GND*%
X52945000Y-103858000D03*
X52945000Y-109728000D03*
X58815000Y-103858000D03*
X58815000Y-109728000D03*
%TD*%
D20*
%TO.P,K4,1*%
%TO.N,Shutdown_Final*%
X127508000Y-109220000D03*
%TO.P,K4,6*%
%TO.N,GND*%
X127508000Y-121920000D03*
%TO.P,K4,7*%
%TO.N,Net-(J4-Pin_2)*%
X135128000Y-121920000D03*
%TO.P,K4,10*%
%TO.N,Net-(J4-Pin_1)*%
X135128000Y-114300000D03*
%TO.P,K4,12*%
%TO.N,unconnected-(K4-Pad12)*%
X135128000Y-109220000D03*
%TD*%
D10*
%TO.P,J8,1,Pin_1*%
%TO.N,Net-(J8-Pin_1)*%
X52945000Y-91553000D03*
X52945000Y-97423000D03*
X58815000Y-91553000D03*
X58815000Y-97423000D03*
%TD*%
D21*
%TO.N,+12V_Switched*%
X117348000Y-126415800D03*
X117348000Y-127584200D03*
%TO.N,GND*%
X114300000Y-126568200D03*
X103124000Y-117856000D03*
X108204000Y-120396000D03*
X111760000Y-129540000D03*
X110744000Y-139700000D03*
X108712000Y-136144000D03*
X68580000Y-143256000D03*
X114808000Y-120396000D03*
X67564000Y-140462000D03*
%TO.N,+5V_LV*%
X111760000Y-134112000D03*
X99060000Y-139091800D03*
X96852600Y-139092800D03*
X80772000Y-143167100D03*
X82296000Y-140716000D03*
X112928294Y-131749800D03*
%TO.N,Net-(C5-Pad1)*%
X87237913Y-141224001D03*
X88530087Y-141224001D03*
%TO.N,TS-*%
X155907000Y-134961500D03*
X154891000Y-130897500D03*
X168656000Y-134874000D03*
X172212000Y-133858000D03*
%TO.N,+12V_BAT*%
X86868000Y-118364000D03*
D22*
%TO.N,Net-(J4-Pin_2)*%
X179832000Y-121158000D03*
D21*
%TO.N,Net-(J5-Pin_2)*%
X149352000Y-140970000D03*
X149352000Y-123190000D03*
D22*
%TO.N,Net-(J4-Pin_1)*%
X179832000Y-115062000D03*
D21*
%TO.N,RTM_In*%
X111252000Y-126923800D03*
X112146500Y-128524000D03*
X109728000Y-124648302D03*
X109728000Y-122641698D03*
%TO.N,Net-(Q2-D)*%
X94870237Y-142789921D03*
X96012000Y-141930408D03*
%TO.N,Net-(U6A-+)*%
X166067000Y-136485500D03*
X168607000Y-136485500D03*
%TO.N,2V Ref*%
X162003000Y-136485500D03*
X157431000Y-131913500D03*
%TO.N,Net-(R14-Pad2)*%
X141986000Y-131318000D03*
X138176000Y-127000000D03*
%TO.N,Net-(U7-R)*%
X117424200Y-124968000D03*
X114724127Y-130231200D03*
X116175512Y-125319512D03*
%TO.N,Net-(K2-Pad3)*%
X87122000Y-117602000D03*
%TO.N,Reset_Button_In*%
X100076000Y-119888000D03*
X101317092Y-118646908D03*
%TO.N,+5V_LV*%
X85453978Y-139630806D03*
%TD*%
D23*
%TO.N,+12V_Switched*%
X117348000Y-126415800D02*
X117348000Y-127584200D01*
%TO.N,+5V_LV*%
X112928294Y-132943706D02*
X112928294Y-131749800D01*
X99060000Y-139091800D02*
X98135016Y-139091800D01*
X98134016Y-139092800D02*
X96852600Y-139092800D01*
X111760000Y-134112000D02*
X112928294Y-132943706D01*
X80772000Y-142240000D02*
X80772000Y-143167100D01*
X98135016Y-139091800D02*
X98134016Y-139092800D01*
X82296000Y-140716000D02*
X80772000Y-142240000D01*
%TO.N,Net-(C5-Pad1)*%
X88530087Y-141224001D02*
X87237913Y-141224001D01*
%TO.N,TS-*%
X155907000Y-131913500D02*
X155907000Y-134961500D01*
X169672000Y-133858000D02*
X168656000Y-134874000D01*
X172212000Y-133858000D02*
X169672000Y-133858000D01*
X154891000Y-130897500D02*
X155907000Y-131913500D01*
%TO.N,+12V_BAT*%
X70669296Y-109810696D02*
X69392800Y-108534200D01*
X86868000Y-118364000D02*
X86282800Y-117778800D01*
X86282800Y-115912192D02*
X80181304Y-109810696D01*
X86282800Y-117778800D02*
X86282800Y-115912192D01*
X80181304Y-109810696D02*
X70669296Y-109810696D01*
D24*
%TO.N,Net-(J4-Pin_2)*%
X135890000Y-121158000D02*
X135128000Y-121920000D01*
X179832000Y-121158000D02*
X135890000Y-121158000D01*
D23*
%TO.N,Net-(J5-Pin_2)*%
X149352000Y-140970000D02*
X149352000Y-123190000D01*
D24*
%TO.N,Net-(J4-Pin_1)*%
X140716000Y-114300000D02*
X135128000Y-114300000D01*
X141478000Y-115062000D02*
X140716000Y-114300000D01*
X179832000Y-115062000D02*
X141478000Y-115062000D01*
D23*
%TO.N,RTM_In*%
X111252000Y-126923800D02*
X111252000Y-127629500D01*
X111252000Y-127629500D02*
X112146500Y-128524000D01*
X109728000Y-122641698D02*
X109728000Y-124648302D01*
%TO.N,Net-(Q2-D)*%
X95152487Y-142789921D02*
X96012000Y-141930408D01*
X94870237Y-142789921D02*
X95152487Y-142789921D01*
%TO.N,Net-(U6A-+)*%
X166067000Y-136485500D02*
X168607000Y-136485500D01*
%TO.N,2V Ref*%
X162003000Y-136485500D02*
X157431000Y-131913500D01*
%TO.N,Net-(R14-Pad2)*%
X141986000Y-131318000D02*
X141986000Y-127974782D01*
X141011218Y-127000000D02*
X138176000Y-127000000D01*
X141986000Y-127974782D02*
X141011218Y-127000000D01*
%TO.N,Net-(U7-R)*%
X116175512Y-126660318D02*
X116175512Y-125319512D01*
X116175512Y-125319512D02*
X116527024Y-124968000D01*
X114724127Y-128111703D02*
X116175512Y-126660318D01*
X114724127Y-130231200D02*
X114724127Y-128111703D01*
X116527024Y-124968000D02*
X117424200Y-124968000D01*
%TO.N,Net-(K2-Pad3)*%
X86868000Y-117348000D02*
X86868000Y-115849400D01*
X87122000Y-117602000D02*
X86868000Y-117348000D01*
X86868000Y-115849400D02*
X79552800Y-108534200D01*
%TO.N,Reset_Button_In*%
X100076000Y-119888000D02*
X101317092Y-118646908D01*
%TO.N,+5V_LV*%
X84368784Y-140716000D02*
X85453978Y-139630806D01*
X82296000Y-140716000D02*
X84368784Y-140716000D01*
%TD*%
%TA.AperFunction,Conductor*%
%TO.N,GND*%
G36*
X111448539Y-77490185D02*
G01*
X111494294Y-77542989D01*
X111505500Y-77594500D01*
X111505500Y-101650621D01*
X111505501Y-101650626D01*
X111544242Y-101744160D01*
X111615839Y-101815757D01*
X111688182Y-101845721D01*
X111709377Y-101854500D01*
X111709379Y-101854500D01*
X129162000Y-101854500D01*
X129229039Y-101874185D01*
X129274794Y-101926989D01*
X129286000Y-101978500D01*
X129286000Y-104777500D01*
X129266315Y-104844539D01*
X129213511Y-104890294D01*
X129162000Y-104901500D01*
X128574623Y-104901500D01*
X128473377Y-104901500D01*
X128473375Y-104901500D01*
X128473373Y-104901501D01*
X128379839Y-104940242D01*
X128308242Y-105011839D01*
X128269501Y-105105373D01*
X128269500Y-105105378D01*
X128269500Y-108411763D01*
X128249815Y-108478802D01*
X128197011Y-108524557D01*
X128127853Y-108534501D01*
X128076609Y-108514865D01*
X127935358Y-108420484D01*
X127935349Y-108420479D01*
X127771162Y-108352471D01*
X127771154Y-108352469D01*
X127596862Y-108317800D01*
X127596859Y-108317800D01*
X127419141Y-108317800D01*
X127419138Y-108317800D01*
X127244845Y-108352469D01*
X127244837Y-108352471D01*
X127080650Y-108420479D01*
X127080641Y-108420484D01*
X126932881Y-108519215D01*
X126932877Y-108519218D01*
X126807218Y-108644877D01*
X126807215Y-108644881D01*
X126708484Y-108792641D01*
X126708479Y-108792650D01*
X126640471Y-108956837D01*
X126640469Y-108956845D01*
X126605800Y-109131136D01*
X126605800Y-109308863D01*
X126640469Y-109483154D01*
X126640471Y-109483162D01*
X126708479Y-109647349D01*
X126708484Y-109647358D01*
X126807215Y-109795118D01*
X126807218Y-109795122D01*
X126932877Y-109920781D01*
X126932881Y-109920784D01*
X127080641Y-110019515D01*
X127080650Y-110019520D01*
X127117844Y-110034926D01*
X127244838Y-110087529D01*
X127402345Y-110118859D01*
X127419136Y-110122199D01*
X127419139Y-110122200D01*
X127419141Y-110122200D01*
X127596861Y-110122200D01*
X127596862Y-110122199D01*
X127771162Y-110087529D01*
X127935352Y-110019519D01*
X128076609Y-109925134D01*
X128143286Y-109904256D01*
X128210666Y-109922740D01*
X128257357Y-109974719D01*
X128269500Y-110028236D01*
X128269500Y-120760545D01*
X128249815Y-120827584D01*
X128197011Y-120873339D01*
X128127853Y-120883283D01*
X128089205Y-120871030D01*
X127968064Y-120809306D01*
X127968061Y-120809304D01*
X127788650Y-120751011D01*
X127602323Y-120721500D01*
X127413677Y-120721500D01*
X127227349Y-120751011D01*
X127047938Y-120809304D01*
X127047936Y-120809305D01*
X126879846Y-120894952D01*
X126854744Y-120913189D01*
X126854744Y-120913190D01*
X127423906Y-121482352D01*
X127336429Y-121505792D01*
X127235070Y-121564311D01*
X127152311Y-121647070D01*
X127093792Y-121748429D01*
X127070352Y-121835906D01*
X126501190Y-121266744D01*
X126501189Y-121266744D01*
X126482952Y-121291846D01*
X126397305Y-121459936D01*
X126397304Y-121459938D01*
X126339011Y-121639349D01*
X126309500Y-121825676D01*
X126309500Y-122014323D01*
X126339011Y-122200650D01*
X126397304Y-122380061D01*
X126397305Y-122380064D01*
X126482953Y-122548154D01*
X126501189Y-122573254D01*
X126501190Y-122573255D01*
X127070352Y-122004093D01*
X127093792Y-122091571D01*
X127152311Y-122192930D01*
X127235070Y-122275689D01*
X127336429Y-122334208D01*
X127423904Y-122357647D01*
X126854743Y-122926808D01*
X126879848Y-122945048D01*
X127047935Y-123030694D01*
X127047938Y-123030695D01*
X127227349Y-123088988D01*
X127413677Y-123118500D01*
X127602323Y-123118500D01*
X127788650Y-123088988D01*
X127968061Y-123030695D01*
X127968064Y-123030694D01*
X128089205Y-122968969D01*
X128157874Y-122956073D01*
X128222614Y-122982349D01*
X128262872Y-123039455D01*
X128269500Y-123079454D01*
X128269500Y-146354621D01*
X128269501Y-146354626D01*
X128308242Y-146448160D01*
X128379839Y-146519757D01*
X128452182Y-146549721D01*
X128473377Y-146558500D01*
X128473379Y-146558500D01*
X129162000Y-146558500D01*
X129229039Y-146578185D01*
X129274794Y-146630989D01*
X129286000Y-146682500D01*
X129286000Y-149481500D01*
X129266315Y-149548539D01*
X129213511Y-149594294D01*
X129162000Y-149605500D01*
X49146500Y-149605500D01*
X49079461Y-149585815D01*
X49033706Y-149533011D01*
X49022500Y-149481500D01*
X49022500Y-145046066D01*
X69146299Y-145046066D01*
X69158117Y-145105476D01*
X69158118Y-145105479D01*
X69158119Y-145105480D01*
X69203140Y-145172860D01*
X69270520Y-145217881D01*
X69270523Y-145217882D01*
X69329933Y-145229700D01*
X69329936Y-145229700D01*
X70878066Y-145229700D01*
X70937476Y-145217882D01*
X70937477Y-145217881D01*
X70937480Y-145217881D01*
X71004860Y-145172860D01*
X71049881Y-145105480D01*
X71061700Y-145046064D01*
X71061700Y-144177670D01*
X71646300Y-144177670D01*
X71646300Y-144366329D01*
X71683102Y-144551343D01*
X71683105Y-144551355D01*
X71755293Y-144725634D01*
X71755300Y-144725647D01*
X71860105Y-144882497D01*
X71860108Y-144882501D01*
X71993498Y-145015891D01*
X71993502Y-145015894D01*
X72150352Y-145120699D01*
X72150365Y-145120706D01*
X72324644Y-145192894D01*
X72324649Y-145192896D01*
X72509670Y-145229699D01*
X72509673Y-145229700D01*
X72509675Y-145229700D01*
X72698327Y-145229700D01*
X72698328Y-145229699D01*
X72883351Y-145192896D01*
X73057641Y-145120703D01*
X73214498Y-145015894D01*
X73347894Y-144882498D01*
X73452703Y-144725641D01*
X73524896Y-144551351D01*
X73561700Y-144366325D01*
X73561700Y-144177675D01*
X73561700Y-144177672D01*
X73561699Y-144177670D01*
X73560830Y-144173302D01*
X73850000Y-144173302D01*
X73850000Y-144370697D01*
X73880876Y-144565646D01*
X73941873Y-144753373D01*
X74031483Y-144929239D01*
X74057457Y-144964988D01*
X74057457Y-144964989D01*
X74621037Y-144401409D01*
X74638075Y-144464993D01*
X74703901Y-144579007D01*
X74796993Y-144672099D01*
X74911007Y-144737925D01*
X74974590Y-144754962D01*
X74411009Y-145318541D01*
X74411010Y-145318542D01*
X74446755Y-145344512D01*
X74446768Y-145344520D01*
X74622626Y-145434126D01*
X74810353Y-145495123D01*
X75005303Y-145526000D01*
X75202697Y-145526000D01*
X75397646Y-145495123D01*
X75585373Y-145434126D01*
X75761241Y-145344516D01*
X75796988Y-145318543D01*
X75796988Y-145318541D01*
X75233410Y-144754962D01*
X75296993Y-144737925D01*
X75411007Y-144672099D01*
X75504099Y-144579007D01*
X75569925Y-144464993D01*
X75586962Y-144401409D01*
X76150541Y-144964988D01*
X76150543Y-144964988D01*
X76176516Y-144929241D01*
X76266126Y-144753373D01*
X76327123Y-144565646D01*
X76358000Y-144370697D01*
X76358000Y-144173302D01*
X76327123Y-143978353D01*
X76266126Y-143790626D01*
X76176520Y-143614768D01*
X76176512Y-143614755D01*
X76150542Y-143579010D01*
X76150541Y-143579009D01*
X75586962Y-144142589D01*
X75569925Y-144079007D01*
X75504099Y-143964993D01*
X75411007Y-143871901D01*
X75296993Y-143806075D01*
X75233409Y-143789037D01*
X75796989Y-143225457D01*
X75761240Y-143199484D01*
X75585373Y-143109873D01*
X75576048Y-143106843D01*
X80314300Y-143106843D01*
X80314300Y-143227357D01*
X80319730Y-143247621D01*
X80345492Y-143343766D01*
X80345495Y-143343771D01*
X80405744Y-143448127D01*
X80405748Y-143448132D01*
X80405749Y-143448134D01*
X80490966Y-143533351D01*
X80490968Y-143533352D01*
X80490972Y-143533355D01*
X80570050Y-143579010D01*
X80595335Y-143593608D01*
X80711743Y-143624800D01*
X80711745Y-143624800D01*
X80832255Y-143624800D01*
X80832257Y-143624800D01*
X80948665Y-143593608D01*
X81053034Y-143533351D01*
X81138251Y-143448134D01*
X81198508Y-143343765D01*
X81229700Y-143227357D01*
X81229700Y-143106843D01*
X81198508Y-142990435D01*
X81194083Y-142982771D01*
X81138255Y-142886072D01*
X81138252Y-142886069D01*
X81138251Y-142886066D01*
X81138248Y-142886063D01*
X81133305Y-142879621D01*
X81134556Y-142878660D01*
X81124315Y-142859906D01*
X81107723Y-142834088D01*
X81106831Y-142827887D01*
X81105534Y-142825511D01*
X81102700Y-142799153D01*
X81102700Y-142729664D01*
X94412537Y-142729664D01*
X94412537Y-142850178D01*
X94422155Y-142886072D01*
X94443729Y-142966587D01*
X94443732Y-142966592D01*
X94503981Y-143070948D01*
X94503985Y-143070953D01*
X94503986Y-143070955D01*
X94589203Y-143156172D01*
X94589205Y-143156173D01*
X94589209Y-143156176D01*
X94664220Y-143199483D01*
X94693572Y-143216429D01*
X94809980Y-143247621D01*
X94809982Y-143247621D01*
X94930492Y-143247621D01*
X94930494Y-143247621D01*
X95046902Y-143216429D01*
X95151271Y-143156172D01*
X95159958Y-143147484D01*
X95215546Y-143115390D01*
X95280133Y-143098085D01*
X95355542Y-143054547D01*
X95417113Y-142992976D01*
X95417113Y-142992974D01*
X95427317Y-142982771D01*
X95427320Y-142982766D01*
X95985661Y-142424427D01*
X96046984Y-142390942D01*
X96067421Y-142388744D01*
X96072254Y-142388108D01*
X96072257Y-142388108D01*
X96188665Y-142356916D01*
X96293034Y-142296659D01*
X96378251Y-142211442D01*
X96438508Y-142107073D01*
X96469700Y-141990665D01*
X96469700Y-141870151D01*
X96438508Y-141753743D01*
X96396915Y-141681701D01*
X96378255Y-141649380D01*
X96378249Y-141649372D01*
X96293035Y-141564158D01*
X96293027Y-141564152D01*
X96188671Y-141503903D01*
X96188666Y-141503900D01*
X96149862Y-141493502D01*
X96072257Y-141472708D01*
X95951743Y-141472708D01*
X95893539Y-141488304D01*
X95835333Y-141503900D01*
X95835328Y-141503903D01*
X95730972Y-141564152D01*
X95730964Y-141564158D01*
X95645750Y-141649372D01*
X95645744Y-141649380D01*
X95585495Y-141753736D01*
X95585492Y-141753741D01*
X95554299Y-141870153D01*
X95553239Y-141878210D01*
X95551675Y-141878004D01*
X95534615Y-141936104D01*
X95517981Y-141956746D01*
X95148325Y-142326402D01*
X95087002Y-142359887D01*
X95028552Y-142358496D01*
X94930494Y-142332221D01*
X94809980Y-142332221D01*
X94751776Y-142347817D01*
X94693570Y-142363413D01*
X94693565Y-142363416D01*
X94589209Y-142423665D01*
X94589201Y-142423671D01*
X94503987Y-142508885D01*
X94503981Y-142508893D01*
X94443732Y-142613249D01*
X94443729Y-142613254D01*
X94422934Y-142690861D01*
X94412537Y-142729664D01*
X81102700Y-142729664D01*
X81102700Y-142428342D01*
X81122385Y-142361303D01*
X81139019Y-142340661D01*
X82269662Y-141210019D01*
X82330985Y-141176534D01*
X82351416Y-141174337D01*
X82356254Y-141173700D01*
X82356257Y-141173700D01*
X82393413Y-141163744D01*
X86780213Y-141163744D01*
X86780213Y-141284258D01*
X86801007Y-141361863D01*
X86811405Y-141400667D01*
X86811408Y-141400672D01*
X86871657Y-141505028D01*
X86871661Y-141505033D01*
X86871662Y-141505035D01*
X86956879Y-141590252D01*
X86956881Y-141590253D01*
X86956885Y-141590256D01*
X87059279Y-141649372D01*
X87061248Y-141650509D01*
X87177656Y-141681701D01*
X87177658Y-141681701D01*
X87298168Y-141681701D01*
X87298170Y-141681701D01*
X87414578Y-141650509D01*
X87518947Y-141590252D01*
X87518952Y-141590246D01*
X87525392Y-141585306D01*
X87526352Y-141586557D01*
X87579502Y-141557535D01*
X87605860Y-141554701D01*
X88162140Y-141554701D01*
X88229179Y-141574386D01*
X88245168Y-141587270D01*
X88249050Y-141590249D01*
X88249053Y-141590252D01*
X88249056Y-141590253D01*
X88249059Y-141590256D01*
X88351453Y-141649372D01*
X88353422Y-141650509D01*
X88469830Y-141681701D01*
X88469832Y-141681701D01*
X88590342Y-141681701D01*
X88590344Y-141681701D01*
X88706752Y-141650509D01*
X88811121Y-141590252D01*
X88896338Y-141505035D01*
X88956595Y-141400666D01*
X88987787Y-141284258D01*
X88987787Y-141163744D01*
X88956595Y-141047336D01*
X88949961Y-141035846D01*
X88896342Y-140942973D01*
X88896336Y-140942965D01*
X88811122Y-140857751D01*
X88811114Y-140857745D01*
X88706758Y-140797496D01*
X88706753Y-140797493D01*
X88667949Y-140787095D01*
X88590344Y-140766301D01*
X88469830Y-140766301D01*
X88411626Y-140781897D01*
X88353420Y-140797493D01*
X88353415Y-140797496D01*
X88249059Y-140857745D01*
X88242608Y-140862696D01*
X88241647Y-140861444D01*
X88188498Y-140890467D01*
X88162140Y-140893301D01*
X87605860Y-140893301D01*
X87538821Y-140873616D01*
X87522831Y-140860731D01*
X87518940Y-140857745D01*
X87414584Y-140797496D01*
X87414579Y-140797493D01*
X87375775Y-140787095D01*
X87298170Y-140766301D01*
X87177656Y-140766301D01*
X87119452Y-140781897D01*
X87061246Y-140797493D01*
X87061241Y-140797496D01*
X86956885Y-140857745D01*
X86956877Y-140857751D01*
X86871663Y-140942965D01*
X86871657Y-140942973D01*
X86811408Y-141047329D01*
X86811405Y-141047334D01*
X86803039Y-141078556D01*
X86780213Y-141163744D01*
X82393413Y-141163744D01*
X82472665Y-141142508D01*
X82577034Y-141082251D01*
X82577039Y-141082245D01*
X82583479Y-141077305D01*
X82584439Y-141078556D01*
X82637589Y-141049534D01*
X82663947Y-141046700D01*
X84412319Y-141046700D01*
X84412321Y-141046700D01*
X84412322Y-141046700D01*
X84496430Y-141024164D01*
X84571839Y-140980626D01*
X84633410Y-140919055D01*
X84633410Y-140919053D01*
X84643614Y-140908850D01*
X84643617Y-140908845D01*
X85427639Y-140124825D01*
X85488962Y-140091340D01*
X85509399Y-140089142D01*
X85514232Y-140088506D01*
X85514235Y-140088506D01*
X85630643Y-140057314D01*
X85735012Y-139997057D01*
X85820229Y-139911840D01*
X85880486Y-139807471D01*
X85911678Y-139691063D01*
X85911678Y-139570549D01*
X85880486Y-139454141D01*
X85834122Y-139373835D01*
X85820233Y-139349778D01*
X85820227Y-139349770D01*
X85735013Y-139264556D01*
X85735005Y-139264550D01*
X85630649Y-139204301D01*
X85630644Y-139204298D01*
X85591840Y-139193900D01*
X85514235Y-139173106D01*
X85393721Y-139173106D01*
X85335517Y-139188702D01*
X85277311Y-139204298D01*
X85277306Y-139204301D01*
X85172950Y-139264550D01*
X85172942Y-139264556D01*
X85087728Y-139349770D01*
X85087722Y-139349778D01*
X85027473Y-139454134D01*
X85027470Y-139454139D01*
X84996277Y-139570551D01*
X84995217Y-139578608D01*
X84993653Y-139578402D01*
X84976593Y-139636503D01*
X84959959Y-139657145D01*
X84268123Y-140348981D01*
X84206800Y-140382466D01*
X84180442Y-140385300D01*
X82663947Y-140385300D01*
X82596908Y-140365615D01*
X82580918Y-140352730D01*
X82577027Y-140349744D01*
X82472671Y-140289495D01*
X82472666Y-140289492D01*
X82433862Y-140279094D01*
X82356257Y-140258300D01*
X82235743Y-140258300D01*
X82177539Y-140273896D01*
X82119333Y-140289492D01*
X82119328Y-140289495D01*
X82014972Y-140349744D01*
X82014964Y-140349750D01*
X81929750Y-140434964D01*
X81929744Y-140434972D01*
X81869495Y-140539328D01*
X81869492Y-140539333D01*
X81838299Y-140655745D01*
X81837239Y-140663802D01*
X81835675Y-140663596D01*
X81818615Y-140721696D01*
X81801981Y-140742338D01*
X80507376Y-142036942D01*
X80507374Y-142036945D01*
X80463836Y-142112353D01*
X80441300Y-142196460D01*
X80441300Y-142799153D01*
X80421615Y-142866192D01*
X80408730Y-142882181D01*
X80405744Y-142886072D01*
X80345495Y-142990428D01*
X80345492Y-142990433D01*
X80329832Y-143048876D01*
X80314300Y-143106843D01*
X75576048Y-143106843D01*
X75397646Y-143048876D01*
X75202697Y-143018000D01*
X75005303Y-143018000D01*
X74810353Y-143048876D01*
X74622626Y-143109873D01*
X74446762Y-143199482D01*
X74446760Y-143199483D01*
X74411010Y-143225456D01*
X74411010Y-143225457D01*
X74974591Y-143789037D01*
X74911007Y-143806075D01*
X74796993Y-143871901D01*
X74703901Y-143964993D01*
X74638075Y-144079007D01*
X74621037Y-144142590D01*
X74057457Y-143579010D01*
X74057456Y-143579010D01*
X74031483Y-143614760D01*
X74031482Y-143614762D01*
X73941873Y-143790626D01*
X73880876Y-143978353D01*
X73850000Y-144173302D01*
X73560830Y-144173302D01*
X73524896Y-143992649D01*
X73524894Y-143992644D01*
X73452706Y-143818365D01*
X73452699Y-143818352D01*
X73347894Y-143661502D01*
X73347891Y-143661498D01*
X73214501Y-143528108D01*
X73214497Y-143528105D01*
X73057647Y-143423300D01*
X73057638Y-143423295D01*
X72970681Y-143387277D01*
X72970679Y-143387276D01*
X72883355Y-143351105D01*
X72883343Y-143351102D01*
X72698328Y-143314300D01*
X72698325Y-143314300D01*
X72509675Y-143314300D01*
X72509672Y-143314300D01*
X72324656Y-143351102D01*
X72324644Y-143351105D01*
X72150365Y-143423293D01*
X72150352Y-143423300D01*
X71993502Y-143528105D01*
X71993498Y-143528108D01*
X71860108Y-143661498D01*
X71860105Y-143661502D01*
X71755300Y-143818352D01*
X71755293Y-143818365D01*
X71683105Y-143992644D01*
X71683102Y-143992656D01*
X71646300Y-144177670D01*
X71061700Y-144177670D01*
X71061700Y-143497936D01*
X71061700Y-143497933D01*
X71049882Y-143438523D01*
X71049881Y-143438520D01*
X71004860Y-143371140D01*
X70937480Y-143326119D01*
X70937479Y-143326118D01*
X70937476Y-143326117D01*
X70878066Y-143314300D01*
X70878064Y-143314300D01*
X69329936Y-143314300D01*
X69329934Y-143314300D01*
X69270523Y-143326117D01*
X69270520Y-143326118D01*
X69203140Y-143371140D01*
X69158118Y-143438520D01*
X69158117Y-143438523D01*
X69146300Y-143497933D01*
X69146300Y-143497936D01*
X69146300Y-145046064D01*
X69146300Y-145046066D01*
X69146299Y-145046066D01*
X49022500Y-145046066D01*
X49022500Y-138433358D01*
X51353000Y-138433358D01*
X51353000Y-138708641D01*
X51388930Y-138981565D01*
X51460180Y-139247471D01*
X51565520Y-139501787D01*
X51565527Y-139501802D01*
X51703163Y-139740196D01*
X51801758Y-139868686D01*
X52644497Y-139025947D01*
X52734505Y-139160653D01*
X52863347Y-139289495D01*
X52998051Y-139379501D01*
X52155312Y-140222240D01*
X52283804Y-140320836D01*
X52522197Y-140458472D01*
X52522212Y-140458479D01*
X52776528Y-140563819D01*
X53042434Y-140635069D01*
X53315358Y-140671000D01*
X53590642Y-140671000D01*
X53863565Y-140635069D01*
X54129471Y-140563819D01*
X54383787Y-140458479D01*
X54383802Y-140458472D01*
X54622194Y-140320836D01*
X54622211Y-140320825D01*
X54750686Y-140222241D01*
X54750686Y-140222239D01*
X53907949Y-139379501D01*
X54042653Y-139289495D01*
X54171495Y-139160653D01*
X54261501Y-139025948D01*
X55104239Y-139868686D01*
X55104241Y-139868686D01*
X55202825Y-139740211D01*
X55202836Y-139740194D01*
X55340472Y-139501802D01*
X55340479Y-139501787D01*
X55445819Y-139247471D01*
X55517069Y-138981565D01*
X55553000Y-138708641D01*
X55553000Y-138433358D01*
X57223000Y-138433358D01*
X57223000Y-138708641D01*
X57258930Y-138981565D01*
X57330180Y-139247471D01*
X57435520Y-139501787D01*
X57435527Y-139501802D01*
X57573163Y-139740196D01*
X57671758Y-139868686D01*
X58514497Y-139025947D01*
X58604505Y-139160653D01*
X58733347Y-139289495D01*
X58868051Y-139379501D01*
X58025312Y-140222240D01*
X58153804Y-140320836D01*
X58392197Y-140458472D01*
X58392212Y-140458479D01*
X58646528Y-140563819D01*
X58912434Y-140635069D01*
X59185358Y-140671000D01*
X59460642Y-140671000D01*
X59733565Y-140635069D01*
X59999471Y-140563819D01*
X60253787Y-140458479D01*
X60253802Y-140458472D01*
X60492194Y-140320836D01*
X60492211Y-140320825D01*
X60620686Y-140222241D01*
X60620686Y-140222239D01*
X59777949Y-139379501D01*
X59912653Y-139289495D01*
X60041495Y-139160653D01*
X60131501Y-139025948D01*
X60974239Y-139868686D01*
X60974241Y-139868686D01*
X61072825Y-139740211D01*
X61072836Y-139740194D01*
X61210472Y-139501802D01*
X61210479Y-139501787D01*
X61315819Y-139247471D01*
X61373409Y-139032543D01*
X96394900Y-139032543D01*
X96394900Y-139153057D01*
X96408630Y-139204298D01*
X96426092Y-139269466D01*
X96426095Y-139269471D01*
X96486344Y-139373827D01*
X96486348Y-139373832D01*
X96486349Y-139373834D01*
X96571566Y-139459051D01*
X96571568Y-139459052D01*
X96571572Y-139459055D01*
X96645613Y-139501802D01*
X96675935Y-139519308D01*
X96792343Y-139550500D01*
X96792345Y-139550500D01*
X96912855Y-139550500D01*
X96912857Y-139550500D01*
X97029265Y-139519308D01*
X97133634Y-139459051D01*
X97133639Y-139459045D01*
X97140079Y-139454105D01*
X97141039Y-139455356D01*
X97194189Y-139426334D01*
X97220547Y-139423500D01*
X98178020Y-139423500D01*
X98193276Y-139422500D01*
X98692053Y-139422500D01*
X98759092Y-139442185D01*
X98775081Y-139455069D01*
X98778963Y-139458048D01*
X98778966Y-139458051D01*
X98778969Y-139458052D01*
X98778972Y-139458055D01*
X98883328Y-139518304D01*
X98883335Y-139518308D01*
X98999743Y-139549500D01*
X98999745Y-139549500D01*
X99120255Y-139549500D01*
X99120257Y-139549500D01*
X99236665Y-139518308D01*
X99341034Y-139458051D01*
X99426251Y-139372834D01*
X99486508Y-139268465D01*
X99517700Y-139152057D01*
X99517700Y-139031543D01*
X99486508Y-138915135D01*
X99426832Y-138811772D01*
X99426255Y-138810772D01*
X99426249Y-138810764D01*
X99341035Y-138725550D01*
X99341027Y-138725544D01*
X99236671Y-138665295D01*
X99236666Y-138665292D01*
X99197862Y-138654894D01*
X99120257Y-138634100D01*
X98999743Y-138634100D01*
X98941539Y-138649696D01*
X98883333Y-138665292D01*
X98883328Y-138665295D01*
X98778972Y-138725544D01*
X98772521Y-138730495D01*
X98771560Y-138729243D01*
X98718411Y-138758266D01*
X98692053Y-138761100D01*
X98091012Y-138761100D01*
X98075756Y-138762100D01*
X97220547Y-138762100D01*
X97153508Y-138742415D01*
X97137518Y-138729530D01*
X97133627Y-138726544D01*
X97029271Y-138666295D01*
X97029266Y-138666292D01*
X96990462Y-138655894D01*
X96912857Y-138635100D01*
X96792343Y-138635100D01*
X96734139Y-138650696D01*
X96675933Y-138666292D01*
X96675928Y-138666295D01*
X96571572Y-138726544D01*
X96571564Y-138726550D01*
X96486350Y-138811764D01*
X96486344Y-138811772D01*
X96426095Y-138916128D01*
X96426092Y-138916133D01*
X96423836Y-138924553D01*
X96394900Y-139032543D01*
X61373409Y-139032543D01*
X61384187Y-138992321D01*
X61384187Y-138992319D01*
X61387069Y-138981567D01*
X61423000Y-138708641D01*
X61423000Y-138433358D01*
X61387069Y-138160434D01*
X61315819Y-137894528D01*
X61210479Y-137640212D01*
X61210472Y-137640197D01*
X61072836Y-137401804D01*
X60974240Y-137273312D01*
X60131501Y-138116051D01*
X60041495Y-137981347D01*
X59912653Y-137852505D01*
X59777948Y-137762497D01*
X60620686Y-136919758D01*
X60492196Y-136821163D01*
X60253802Y-136683527D01*
X60253787Y-136683520D01*
X59999471Y-136578180D01*
X59733565Y-136506930D01*
X59460642Y-136471000D01*
X59185358Y-136471000D01*
X58912434Y-136506930D01*
X58646528Y-136578180D01*
X58392212Y-136683520D01*
X58392197Y-136683527D01*
X58153799Y-136821166D01*
X58025312Y-136919757D01*
X58025312Y-136919758D01*
X58868051Y-137762497D01*
X58733347Y-137852505D01*
X58604505Y-137981347D01*
X58514497Y-138116051D01*
X57671758Y-137273312D01*
X57671757Y-137273312D01*
X57573166Y-137401799D01*
X57435527Y-137640197D01*
X57435520Y-137640212D01*
X57330180Y-137894528D01*
X57258930Y-138160434D01*
X57223000Y-138433358D01*
X55553000Y-138433358D01*
X55517069Y-138160434D01*
X55445819Y-137894528D01*
X55340479Y-137640212D01*
X55340472Y-137640197D01*
X55202836Y-137401804D01*
X55104240Y-137273312D01*
X54261501Y-138116051D01*
X54171495Y-137981347D01*
X54042653Y-137852505D01*
X53907948Y-137762497D01*
X54750686Y-136919758D01*
X54622196Y-136821163D01*
X54383802Y-136683527D01*
X54383787Y-136683520D01*
X54129471Y-136578180D01*
X53863565Y-136506930D01*
X53590642Y-136471000D01*
X53315358Y-136471000D01*
X53042434Y-136506930D01*
X52776528Y-136578180D01*
X52522212Y-136683520D01*
X52522197Y-136683527D01*
X52283799Y-136821166D01*
X52155312Y-136919757D01*
X52155312Y-136919758D01*
X52998051Y-137762497D01*
X52863347Y-137852505D01*
X52734505Y-137981347D01*
X52644497Y-138116051D01*
X51801758Y-137273312D01*
X51801757Y-137273312D01*
X51703166Y-137401799D01*
X51565527Y-137640197D01*
X51565520Y-137640212D01*
X51460180Y-137894528D01*
X51388930Y-138160434D01*
X51353000Y-138433358D01*
X49022500Y-138433358D01*
X49022500Y-132563358D01*
X51353000Y-132563358D01*
X51353000Y-132838641D01*
X51388930Y-133111565D01*
X51460180Y-133377471D01*
X51565520Y-133631787D01*
X51565527Y-133631802D01*
X51703163Y-133870196D01*
X51801758Y-133998686D01*
X52644497Y-133155947D01*
X52734505Y-133290653D01*
X52863347Y-133419495D01*
X52998051Y-133509501D01*
X52155312Y-134352240D01*
X52283804Y-134450836D01*
X52522197Y-134588472D01*
X52522212Y-134588479D01*
X52776528Y-134693819D01*
X53042434Y-134765069D01*
X53315358Y-134801000D01*
X53590642Y-134801000D01*
X53863565Y-134765069D01*
X54129471Y-134693819D01*
X54383787Y-134588479D01*
X54383802Y-134588472D01*
X54622194Y-134450836D01*
X54622211Y-134450825D01*
X54750686Y-134352241D01*
X54750686Y-134352239D01*
X53907949Y-133509501D01*
X54042653Y-133419495D01*
X54171495Y-133290653D01*
X54261501Y-133155948D01*
X55104239Y-133998686D01*
X55104241Y-133998686D01*
X55202825Y-133870211D01*
X55202836Y-133870194D01*
X55340472Y-133631802D01*
X55340479Y-133631787D01*
X55445819Y-133377471D01*
X55517069Y-133111565D01*
X55553000Y-132838641D01*
X55553000Y-132563358D01*
X57223000Y-132563358D01*
X57223000Y-132838641D01*
X57258930Y-133111565D01*
X57330180Y-133377471D01*
X57435520Y-133631787D01*
X57435527Y-133631802D01*
X57573163Y-133870196D01*
X57671758Y-133998686D01*
X58514497Y-133155947D01*
X58604505Y-133290653D01*
X58733347Y-133419495D01*
X58868051Y-133509501D01*
X58025312Y-134352240D01*
X58153804Y-134450836D01*
X58392197Y-134588472D01*
X58392212Y-134588479D01*
X58646528Y-134693819D01*
X58912434Y-134765069D01*
X59185358Y-134801000D01*
X59460642Y-134801000D01*
X59733565Y-134765069D01*
X59999471Y-134693819D01*
X60253787Y-134588479D01*
X60253802Y-134588472D01*
X60492194Y-134450836D01*
X60492211Y-134450825D01*
X60620686Y-134352241D01*
X60620686Y-134352239D01*
X60320190Y-134051743D01*
X111302300Y-134051743D01*
X111302300Y-134172257D01*
X111323094Y-134249862D01*
X111333492Y-134288666D01*
X111333495Y-134288671D01*
X111393744Y-134393027D01*
X111393748Y-134393032D01*
X111393749Y-134393034D01*
X111478966Y-134478251D01*
X111478968Y-134478252D01*
X111478972Y-134478255D01*
X111583328Y-134538504D01*
X111583335Y-134538508D01*
X111699743Y-134569700D01*
X111699745Y-134569700D01*
X111820255Y-134569700D01*
X111820257Y-134569700D01*
X111936665Y-134538508D01*
X112041034Y-134478251D01*
X112126251Y-134393034D01*
X112186508Y-134288665D01*
X112217700Y-134172257D01*
X112217700Y-134172254D01*
X112218761Y-134164198D01*
X112220324Y-134164403D01*
X112237385Y-134106302D01*
X112254015Y-134085664D01*
X113121139Y-133218539D01*
X113121144Y-133218536D01*
X113131347Y-133208332D01*
X113131349Y-133208332D01*
X113192920Y-133146761D01*
X113236458Y-133071352D01*
X113258994Y-132987244D01*
X113258994Y-132117747D01*
X113278679Y-132050708D01*
X113291563Y-132034718D01*
X113294539Y-132030839D01*
X113294545Y-132030834D01*
X113354802Y-131926465D01*
X113385994Y-131810057D01*
X113385994Y-131689543D01*
X113354802Y-131573135D01*
X113322981Y-131518019D01*
X113294549Y-131468772D01*
X113294543Y-131468764D01*
X113209329Y-131383550D01*
X113209321Y-131383544D01*
X113104965Y-131323295D01*
X113104960Y-131323292D01*
X113066156Y-131312894D01*
X112988551Y-131292100D01*
X112868037Y-131292100D01*
X112809833Y-131307696D01*
X112751627Y-131323292D01*
X112751622Y-131323295D01*
X112647266Y-131383544D01*
X112647258Y-131383550D01*
X112562044Y-131468764D01*
X112562038Y-131468772D01*
X112501789Y-131573128D01*
X112501786Y-131573133D01*
X112482905Y-131643598D01*
X112470594Y-131689543D01*
X112470594Y-131810057D01*
X112486214Y-131868351D01*
X112501786Y-131926466D01*
X112501789Y-131926471D01*
X112562038Y-132030827D01*
X112566989Y-132037279D01*
X112565737Y-132038239D01*
X112594760Y-132091389D01*
X112597594Y-132117747D01*
X112597594Y-132755364D01*
X112577909Y-132822403D01*
X112561275Y-132843045D01*
X111786339Y-133617981D01*
X111725016Y-133651466D01*
X111704578Y-133653663D01*
X111699745Y-133654299D01*
X111583333Y-133685492D01*
X111583328Y-133685495D01*
X111478972Y-133745744D01*
X111478964Y-133745750D01*
X111393750Y-133830964D01*
X111393744Y-133830972D01*
X111333495Y-133935328D01*
X111333492Y-133935333D01*
X111324705Y-133968128D01*
X111302300Y-134051743D01*
X60320190Y-134051743D01*
X59777949Y-133509501D01*
X59912653Y-133419495D01*
X60041495Y-133290653D01*
X60131501Y-133155948D01*
X60974239Y-133998686D01*
X60974240Y-133998686D01*
X60997689Y-133968128D01*
X60997691Y-133968126D01*
X61072825Y-133870211D01*
X61072836Y-133870194D01*
X61210472Y-133631802D01*
X61210479Y-133631787D01*
X61315819Y-133377471D01*
X61387069Y-133111565D01*
X61423000Y-132838641D01*
X61423000Y-132563358D01*
X61387069Y-132290434D01*
X61315819Y-132024528D01*
X61210479Y-131770212D01*
X61210472Y-131770197D01*
X61072836Y-131531804D01*
X60974240Y-131403312D01*
X60131501Y-132246051D01*
X60041495Y-132111347D01*
X59912653Y-131982505D01*
X59777948Y-131892497D01*
X60620686Y-131049758D01*
X60492196Y-130951163D01*
X60253802Y-130813527D01*
X60253787Y-130813520D01*
X59999471Y-130708180D01*
X59733565Y-130636930D01*
X59460642Y-130601000D01*
X59185358Y-130601000D01*
X58912434Y-130636930D01*
X58646528Y-130708180D01*
X58392212Y-130813520D01*
X58392197Y-130813527D01*
X58153799Y-130951166D01*
X58025312Y-131049757D01*
X58025312Y-131049758D01*
X58868051Y-131892497D01*
X58733347Y-131982505D01*
X58604505Y-132111347D01*
X58514497Y-132246051D01*
X57671758Y-131403312D01*
X57671757Y-131403312D01*
X57573166Y-131531799D01*
X57435527Y-131770197D01*
X57435520Y-131770212D01*
X57330180Y-132024528D01*
X57258930Y-132290434D01*
X57223000Y-132563358D01*
X55553000Y-132563358D01*
X55517069Y-132290434D01*
X55445819Y-132024528D01*
X55340479Y-131770212D01*
X55340472Y-131770197D01*
X55202836Y-131531804D01*
X55104240Y-131403312D01*
X54261501Y-132246051D01*
X54171495Y-132111347D01*
X54042653Y-131982505D01*
X53907948Y-131892497D01*
X54750686Y-131049758D01*
X54622196Y-130951163D01*
X54383802Y-130813527D01*
X54383787Y-130813520D01*
X54129471Y-130708180D01*
X53863565Y-130636930D01*
X53590642Y-130601000D01*
X53315358Y-130601000D01*
X53042434Y-130636930D01*
X52776528Y-130708180D01*
X52522212Y-130813520D01*
X52522197Y-130813527D01*
X52283799Y-130951166D01*
X52155312Y-131049757D01*
X52155312Y-131049758D01*
X52998051Y-131892497D01*
X52863347Y-131982505D01*
X52734505Y-132111347D01*
X52644497Y-132246051D01*
X51801758Y-131403312D01*
X51801757Y-131403312D01*
X51703166Y-131531799D01*
X51565527Y-131770197D01*
X51565520Y-131770212D01*
X51460180Y-132024528D01*
X51388930Y-132290434D01*
X51353000Y-132563358D01*
X49022500Y-132563358D01*
X49022500Y-126881771D01*
X51762300Y-126881771D01*
X51762300Y-127118228D01*
X51793161Y-127352635D01*
X51854359Y-127581028D01*
X51944837Y-127799461D01*
X51944841Y-127799471D01*
X52063059Y-128004231D01*
X52206995Y-128191812D01*
X52207001Y-128191819D01*
X52374180Y-128358998D01*
X52374187Y-128359004D01*
X52561768Y-128502940D01*
X52766528Y-128621158D01*
X52766529Y-128621158D01*
X52766532Y-128621160D01*
X52984976Y-128711642D01*
X53213361Y-128772838D01*
X53447779Y-128803700D01*
X53447786Y-128803700D01*
X53684214Y-128803700D01*
X53684221Y-128803700D01*
X53918639Y-128772838D01*
X54147024Y-128711642D01*
X54365468Y-128621160D01*
X54570232Y-128502940D01*
X54757814Y-128359003D01*
X54925003Y-128191814D01*
X55068940Y-128004232D01*
X55187160Y-127799468D01*
X55277642Y-127581024D01*
X55338838Y-127352639D01*
X55369700Y-127118221D01*
X55369700Y-126881779D01*
X55369699Y-126881771D01*
X57632300Y-126881771D01*
X57632300Y-127118228D01*
X57663161Y-127352635D01*
X57724359Y-127581028D01*
X57814837Y-127799461D01*
X57814841Y-127799471D01*
X57933059Y-128004231D01*
X58076995Y-128191812D01*
X58077001Y-128191819D01*
X58244180Y-128358998D01*
X58244187Y-128359004D01*
X58431768Y-128502940D01*
X58636528Y-128621158D01*
X58636529Y-128621158D01*
X58636532Y-128621160D01*
X58854976Y-128711642D01*
X59083361Y-128772838D01*
X59317779Y-128803700D01*
X59317786Y-128803700D01*
X59554214Y-128803700D01*
X59554221Y-128803700D01*
X59788639Y-128772838D01*
X60017024Y-128711642D01*
X60235468Y-128621160D01*
X60440232Y-128502940D01*
X60627814Y-128359003D01*
X60795003Y-128191814D01*
X60938940Y-128004232D01*
X61057160Y-127799468D01*
X61147642Y-127581024D01*
X61208838Y-127352639D01*
X61239700Y-127118221D01*
X61239700Y-126881779D01*
X61208838Y-126647361D01*
X61147642Y-126418976D01*
X61057160Y-126200532D01*
X60969987Y-126049544D01*
X60938940Y-125995768D01*
X60795004Y-125808187D01*
X60794998Y-125808180D01*
X60627819Y-125641001D01*
X60627812Y-125640995D01*
X60440231Y-125497059D01*
X60235471Y-125378841D01*
X60235461Y-125378837D01*
X60017028Y-125288359D01*
X59788635Y-125227161D01*
X59554228Y-125196300D01*
X59554221Y-125196300D01*
X59317779Y-125196300D01*
X59317771Y-125196300D01*
X59083364Y-125227161D01*
X58854971Y-125288359D01*
X58636538Y-125378837D01*
X58636528Y-125378841D01*
X58431768Y-125497059D01*
X58244187Y-125640995D01*
X58244180Y-125641001D01*
X58077001Y-125808180D01*
X58076995Y-125808187D01*
X57933059Y-125995768D01*
X57814841Y-126200528D01*
X57814837Y-126200538D01*
X57724359Y-126418971D01*
X57663161Y-126647364D01*
X57632300Y-126881771D01*
X55369699Y-126881771D01*
X55338838Y-126647361D01*
X55277642Y-126418976D01*
X55187160Y-126200532D01*
X55099987Y-126049544D01*
X55068940Y-125995768D01*
X54925004Y-125808187D01*
X54924998Y-125808180D01*
X54757819Y-125641001D01*
X54757812Y-125640995D01*
X54570231Y-125497059D01*
X54365471Y-125378841D01*
X54365461Y-125378837D01*
X54147028Y-125288359D01*
X53918635Y-125227161D01*
X53684228Y-125196300D01*
X53684221Y-125196300D01*
X53447779Y-125196300D01*
X53447771Y-125196300D01*
X53213364Y-125227161D01*
X52984971Y-125288359D01*
X52766538Y-125378837D01*
X52766528Y-125378841D01*
X52561768Y-125497059D01*
X52374187Y-125640995D01*
X52374180Y-125641001D01*
X52207001Y-125808180D01*
X52206995Y-125808187D01*
X52063059Y-125995768D01*
X51944841Y-126200528D01*
X51944837Y-126200538D01*
X51854359Y-126418971D01*
X51793161Y-126647364D01*
X51762300Y-126881771D01*
X49022500Y-126881771D01*
X49022500Y-123112831D01*
X65400300Y-123112831D01*
X65400300Y-123395168D01*
X65437151Y-123675067D01*
X65510220Y-123947768D01*
X65618256Y-124208591D01*
X65618264Y-124208608D01*
X65759421Y-124453098D01*
X65931286Y-124677078D01*
X65931292Y-124677085D01*
X66130914Y-124876707D01*
X66130921Y-124876713D01*
X66354901Y-125048578D01*
X66524701Y-125146613D01*
X66572917Y-125197180D01*
X66586139Y-125265787D01*
X66560171Y-125330652D01*
X66524701Y-125361387D01*
X66354901Y-125459421D01*
X66130921Y-125631286D01*
X66130914Y-125631292D01*
X65931292Y-125830914D01*
X65931286Y-125830921D01*
X65759421Y-126054901D01*
X65618264Y-126299391D01*
X65618256Y-126299408D01*
X65510220Y-126560231D01*
X65437151Y-126832932D01*
X65400300Y-127112831D01*
X65400300Y-127395168D01*
X65437151Y-127675067D01*
X65510220Y-127947768D01*
X65618256Y-128208591D01*
X65618264Y-128208608D01*
X65759421Y-128453098D01*
X65931286Y-128677078D01*
X65931292Y-128677085D01*
X66130914Y-128876707D01*
X66130921Y-128876713D01*
X66354901Y-129048578D01*
X66524701Y-129146613D01*
X66572917Y-129197180D01*
X66586139Y-129265787D01*
X66560171Y-129330652D01*
X66524701Y-129361387D01*
X66354901Y-129459421D01*
X66130921Y-129631286D01*
X66130914Y-129631292D01*
X65931292Y-129830914D01*
X65931286Y-129830921D01*
X65759421Y-130054901D01*
X65618264Y-130299391D01*
X65618256Y-130299408D01*
X65510220Y-130560231D01*
X65437151Y-130832932D01*
X65400300Y-131112831D01*
X65400300Y-131395168D01*
X65420259Y-131546766D01*
X65437151Y-131675068D01*
X65460415Y-131761890D01*
X65510220Y-131947768D01*
X65618256Y-132208591D01*
X65618264Y-132208608D01*
X65759421Y-132453098D01*
X65931286Y-132677078D01*
X65931292Y-132677085D01*
X66130914Y-132876707D01*
X66130921Y-132876713D01*
X66354901Y-133048578D01*
X66599391Y-133189735D01*
X66599396Y-133189737D01*
X66599399Y-133189739D01*
X66599403Y-133189740D01*
X66599408Y-133189743D01*
X66668921Y-133218536D01*
X66860230Y-133297779D01*
X67132932Y-133370849D01*
X67412839Y-133407700D01*
X67412846Y-133407700D01*
X67695154Y-133407700D01*
X67695161Y-133407700D01*
X67975068Y-133370849D01*
X68247770Y-133297779D01*
X68508601Y-133189739D01*
X68753099Y-133048578D01*
X68977080Y-132876712D01*
X69176712Y-132677080D01*
X69348578Y-132453099D01*
X69489739Y-132208601D01*
X69597779Y-131947770D01*
X69670849Y-131675068D01*
X69707700Y-131395161D01*
X69707700Y-131112839D01*
X69670849Y-130832932D01*
X69597779Y-130560230D01*
X69489739Y-130299399D01*
X69489737Y-130299396D01*
X69489735Y-130299391D01*
X69348578Y-130054901D01*
X69176713Y-129830921D01*
X69176707Y-129830914D01*
X68977085Y-129631292D01*
X68977078Y-129631286D01*
X68753098Y-129459421D01*
X68583297Y-129361387D01*
X68535082Y-129310820D01*
X68521858Y-129242213D01*
X68547826Y-129177349D01*
X68583297Y-129146613D01*
X68753099Y-129048578D01*
X68977080Y-128876712D01*
X69176712Y-128677080D01*
X69348578Y-128453099D01*
X69489739Y-128208601D01*
X69597779Y-127947770D01*
X69670849Y-127675068D01*
X69707700Y-127395161D01*
X69707700Y-127112839D01*
X69670849Y-126832932D01*
X69597779Y-126560230D01*
X69489739Y-126299399D01*
X69489737Y-126299396D01*
X69489735Y-126299391D01*
X69348578Y-126054901D01*
X69176713Y-125830921D01*
X69176707Y-125830914D01*
X68977085Y-125631292D01*
X68977078Y-125631286D01*
X68753098Y-125459421D01*
X68615136Y-125379769D01*
X68583296Y-125361386D01*
X68535082Y-125310820D01*
X68521858Y-125242213D01*
X68547826Y-125177349D01*
X68583297Y-125146613D01*
X68586661Y-125144671D01*
X68753099Y-125048578D01*
X68977080Y-124876712D01*
X69176712Y-124677080D01*
X69348578Y-124453099D01*
X69489739Y-124208601D01*
X69597779Y-123947770D01*
X69670849Y-123675068D01*
X69707700Y-123395161D01*
X69707700Y-123112839D01*
X69707699Y-123112831D01*
X74300300Y-123112831D01*
X74300300Y-123395168D01*
X74337151Y-123675067D01*
X74410220Y-123947768D01*
X74518256Y-124208591D01*
X74518264Y-124208608D01*
X74659421Y-124453098D01*
X74831286Y-124677078D01*
X74831292Y-124677085D01*
X75030914Y-124876707D01*
X75030921Y-124876713D01*
X75254901Y-125048578D01*
X75424701Y-125146613D01*
X75472917Y-125197180D01*
X75486139Y-125265787D01*
X75460171Y-125330652D01*
X75424701Y-125361387D01*
X75254901Y-125459421D01*
X75030921Y-125631286D01*
X75030914Y-125631292D01*
X74831292Y-125830914D01*
X74831286Y-125830921D01*
X74659421Y-126054901D01*
X74518264Y-126299391D01*
X74518256Y-126299408D01*
X74410220Y-126560231D01*
X74337151Y-126832932D01*
X74300300Y-127112831D01*
X74300300Y-127395168D01*
X74337151Y-127675067D01*
X74410220Y-127947768D01*
X74518256Y-128208591D01*
X74518264Y-128208608D01*
X74659421Y-128453098D01*
X74831286Y-128677078D01*
X74831292Y-128677085D01*
X75030914Y-128876707D01*
X75030921Y-128876713D01*
X75254901Y-129048578D01*
X75424701Y-129146613D01*
X75472917Y-129197180D01*
X75486139Y-129265787D01*
X75460171Y-129330652D01*
X75424701Y-129361387D01*
X75254901Y-129459421D01*
X75030921Y-129631286D01*
X75030914Y-129631292D01*
X74831292Y-129830914D01*
X74831286Y-129830921D01*
X74659421Y-130054901D01*
X74518264Y-130299391D01*
X74518256Y-130299408D01*
X74410220Y-130560231D01*
X74337151Y-130832932D01*
X74300300Y-131112831D01*
X74300300Y-131395168D01*
X74320259Y-131546766D01*
X74337151Y-131675068D01*
X74360415Y-131761890D01*
X74410220Y-131947768D01*
X74518256Y-132208591D01*
X74518264Y-132208608D01*
X74659421Y-132453098D01*
X74831286Y-132677078D01*
X74831292Y-132677085D01*
X75030914Y-132876707D01*
X75030921Y-132876713D01*
X75254901Y-133048578D01*
X75499391Y-133189735D01*
X75499396Y-133189737D01*
X75499399Y-133189739D01*
X75499403Y-133189740D01*
X75499408Y-133189743D01*
X75568921Y-133218536D01*
X75760230Y-133297779D01*
X76032932Y-133370849D01*
X76312839Y-133407700D01*
X76312846Y-133407700D01*
X76595154Y-133407700D01*
X76595161Y-133407700D01*
X76875068Y-133370849D01*
X77147770Y-133297779D01*
X77408601Y-133189739D01*
X77653099Y-133048578D01*
X77877080Y-132876712D01*
X78076712Y-132677080D01*
X78248578Y-132453099D01*
X78389739Y-132208601D01*
X78497779Y-131947770D01*
X78570849Y-131675068D01*
X78607700Y-131395161D01*
X78607700Y-131361228D01*
X86975300Y-131361228D01*
X86975300Y-131546771D01*
X86997913Y-131689543D01*
X87004323Y-131730013D01*
X87061656Y-131906464D01*
X87145885Y-132071774D01*
X87254938Y-132221872D01*
X87386128Y-132353062D01*
X87536226Y-132462115D01*
X87701536Y-132546344D01*
X87877987Y-132603677D01*
X87946704Y-132614560D01*
X88061229Y-132632700D01*
X88061234Y-132632700D01*
X88246771Y-132632700D01*
X88348569Y-132616576D01*
X88430013Y-132603677D01*
X88606464Y-132546344D01*
X88771774Y-132462115D01*
X88921872Y-132353062D01*
X89053062Y-132221872D01*
X89162115Y-132071774D01*
X89246344Y-131906464D01*
X89303677Y-131730013D01*
X89328524Y-131573135D01*
X89332700Y-131546771D01*
X89332700Y-131361230D01*
X89331308Y-131352442D01*
X89331308Y-131352441D01*
X89329006Y-131337909D01*
X91679000Y-131337909D01*
X91679000Y-131570090D01*
X91715318Y-131799393D01*
X91787065Y-132020205D01*
X91892469Y-132227071D01*
X91949237Y-132305206D01*
X91949238Y-132305207D01*
X92552958Y-131701487D01*
X92577978Y-131761890D01*
X92649112Y-131868351D01*
X92739649Y-131958888D01*
X92846110Y-132030022D01*
X92906511Y-132055041D01*
X92302791Y-132658760D01*
X92302792Y-132658762D01*
X92380928Y-132715530D01*
X92587794Y-132820934D01*
X92808606Y-132892681D01*
X93037910Y-132929000D01*
X93270090Y-132929000D01*
X93499393Y-132892681D01*
X93720205Y-132820934D01*
X93927060Y-132715536D01*
X93927073Y-132715528D01*
X94005206Y-132658761D01*
X94005207Y-132658760D01*
X93401488Y-132055041D01*
X93461890Y-132030022D01*
X93568351Y-131958888D01*
X93658888Y-131868351D01*
X93730022Y-131761890D01*
X93755041Y-131701488D01*
X94358760Y-132305207D01*
X94358761Y-132305206D01*
X94415528Y-132227073D01*
X94415536Y-132227060D01*
X94520934Y-132020205D01*
X94592681Y-131799393D01*
X94629000Y-131570090D01*
X94629000Y-131361228D01*
X96975300Y-131361228D01*
X96975300Y-131546771D01*
X96997913Y-131689543D01*
X97004323Y-131730013D01*
X97061656Y-131906464D01*
X97145885Y-132071774D01*
X97254938Y-132221872D01*
X97386128Y-132353062D01*
X97536226Y-132462115D01*
X97701536Y-132546344D01*
X97877987Y-132603677D01*
X97946704Y-132614560D01*
X98061229Y-132632700D01*
X98061234Y-132632700D01*
X98246771Y-132632700D01*
X98348569Y-132616576D01*
X98430013Y-132603677D01*
X98606464Y-132546344D01*
X98771774Y-132462115D01*
X98921872Y-132353062D01*
X99053062Y-132221872D01*
X99162115Y-132071774D01*
X99246344Y-131906464D01*
X99303677Y-131730013D01*
X99328524Y-131573135D01*
X99332700Y-131546771D01*
X99332700Y-131361228D01*
X99303677Y-131177990D01*
X99303677Y-131177987D01*
X99246344Y-131001536D01*
X99162115Y-130836226D01*
X99053062Y-130686128D01*
X98921872Y-130554938D01*
X98771774Y-130445885D01*
X98606464Y-130361656D01*
X98430013Y-130304323D01*
X98430011Y-130304322D01*
X98430009Y-130304322D01*
X98309833Y-130285288D01*
X98246771Y-130275300D01*
X98246766Y-130275300D01*
X98061234Y-130275300D01*
X98061229Y-130275300D01*
X97877990Y-130304322D01*
X97701533Y-130361657D01*
X97536225Y-130445885D01*
X97450588Y-130508104D01*
X97386128Y-130554938D01*
X97386126Y-130554940D01*
X97386125Y-130554940D01*
X97254940Y-130686125D01*
X97254940Y-130686126D01*
X97254938Y-130686128D01*
X97208104Y-130750588D01*
X97145885Y-130836225D01*
X97061657Y-131001533D01*
X97004322Y-131177990D01*
X96975300Y-131361228D01*
X94629000Y-131361228D01*
X94629000Y-131337909D01*
X94592681Y-131108606D01*
X94520934Y-130887794D01*
X94415530Y-130680928D01*
X94358762Y-130602792D01*
X94358760Y-130602791D01*
X93755041Y-131206511D01*
X93730022Y-131146110D01*
X93658888Y-131039649D01*
X93568351Y-130949112D01*
X93461890Y-130877978D01*
X93401488Y-130852958D01*
X94005207Y-130249238D01*
X94005206Y-130249237D01*
X93927071Y-130192469D01*
X93884824Y-130170943D01*
X114266427Y-130170943D01*
X114266427Y-130291457D01*
X114285237Y-130361656D01*
X114297619Y-130407866D01*
X114297622Y-130407871D01*
X114357871Y-130512227D01*
X114357875Y-130512232D01*
X114357876Y-130512234D01*
X114443093Y-130597451D01*
X114443095Y-130597452D01*
X114443099Y-130597455D01*
X114511473Y-130636930D01*
X114547462Y-130657708D01*
X114663870Y-130688900D01*
X114663872Y-130688900D01*
X114784382Y-130688900D01*
X114784384Y-130688900D01*
X114900792Y-130657708D01*
X115005161Y-130597451D01*
X115090378Y-130512234D01*
X115150635Y-130407865D01*
X115181827Y-130291457D01*
X115181827Y-130170943D01*
X115150635Y-130054535D01*
X115127993Y-130015318D01*
X115090382Y-129950172D01*
X115090379Y-129950169D01*
X115090378Y-129950166D01*
X115090375Y-129950163D01*
X115085432Y-129943721D01*
X115086683Y-129942760D01*
X115057661Y-129889611D01*
X115054827Y-129863253D01*
X115054827Y-128300044D01*
X115074512Y-128233005D01*
X115091141Y-128212368D01*
X116368357Y-126935151D01*
X116368362Y-126935148D01*
X116378565Y-126924944D01*
X116378567Y-126924944D01*
X116440138Y-126863373D01*
X116483676Y-126787964D01*
X116506212Y-126703856D01*
X116506212Y-126355543D01*
X116890300Y-126355543D01*
X116890300Y-126476057D01*
X116895990Y-126497292D01*
X116921492Y-126592466D01*
X116921495Y-126592471D01*
X116981744Y-126696827D01*
X116986695Y-126703279D01*
X116985443Y-126704239D01*
X117014466Y-126757389D01*
X117017300Y-126783747D01*
X117017300Y-127216253D01*
X116997615Y-127283292D01*
X116984730Y-127299281D01*
X116981744Y-127303172D01*
X116921495Y-127407528D01*
X116921492Y-127407533D01*
X116905420Y-127467516D01*
X116890300Y-127523943D01*
X116890300Y-127644457D01*
X116911094Y-127722062D01*
X116921492Y-127760866D01*
X116921495Y-127760871D01*
X116981744Y-127865227D01*
X116981748Y-127865232D01*
X116981749Y-127865234D01*
X117066966Y-127950451D01*
X117066968Y-127950452D01*
X117066972Y-127950455D01*
X117160116Y-128004231D01*
X117171335Y-128010708D01*
X117287743Y-128041900D01*
X117287745Y-128041900D01*
X117408255Y-128041900D01*
X117408257Y-128041900D01*
X117524665Y-128010708D01*
X117629034Y-127950451D01*
X117714251Y-127865234D01*
X117774508Y-127760865D01*
X117805700Y-127644457D01*
X117805700Y-127523943D01*
X117774508Y-127407535D01*
X117742812Y-127352635D01*
X117714255Y-127303172D01*
X117714252Y-127303169D01*
X117714251Y-127303166D01*
X117714248Y-127303163D01*
X117709305Y-127296721D01*
X117710556Y-127295760D01*
X117681534Y-127242611D01*
X117678700Y-127216253D01*
X117678700Y-126783747D01*
X117698385Y-126716708D01*
X117711269Y-126700718D01*
X117714245Y-126696839D01*
X117714251Y-126696834D01*
X117774508Y-126592465D01*
X117805700Y-126476057D01*
X117805700Y-126355543D01*
X117774508Y-126239135D01*
X117752221Y-126200532D01*
X117714255Y-126134772D01*
X117714249Y-126134764D01*
X117629035Y-126049550D01*
X117629027Y-126049544D01*
X117524671Y-125989295D01*
X117524666Y-125989292D01*
X117485862Y-125978894D01*
X117408257Y-125958100D01*
X117287743Y-125958100D01*
X117229539Y-125973696D01*
X117171333Y-125989292D01*
X117171328Y-125989295D01*
X117066972Y-126049544D01*
X117066964Y-126049550D01*
X116981750Y-126134764D01*
X116981744Y-126134772D01*
X116921495Y-126239128D01*
X116921492Y-126239133D01*
X116900697Y-126316740D01*
X116890300Y-126355543D01*
X116506212Y-126355543D01*
X116506212Y-125687459D01*
X116525897Y-125620420D01*
X116538781Y-125604430D01*
X116541757Y-125600551D01*
X116541763Y-125600546D01*
X116602020Y-125496177D01*
X116630308Y-125390605D01*
X116666674Y-125330945D01*
X116729521Y-125300417D01*
X116750083Y-125298700D01*
X117056253Y-125298700D01*
X117123292Y-125318385D01*
X117139281Y-125331269D01*
X117143163Y-125334248D01*
X117143166Y-125334251D01*
X117143169Y-125334252D01*
X117143172Y-125334255D01*
X117222006Y-125379769D01*
X117247535Y-125394508D01*
X117363943Y-125425700D01*
X117363945Y-125425700D01*
X117484455Y-125425700D01*
X117484457Y-125425700D01*
X117600865Y-125394508D01*
X117705234Y-125334251D01*
X117790451Y-125249034D01*
X117850708Y-125144665D01*
X117881900Y-125028257D01*
X117881900Y-124907743D01*
X117850708Y-124791335D01*
X117802918Y-124708559D01*
X117790455Y-124686972D01*
X117790449Y-124686964D01*
X117705235Y-124601750D01*
X117705227Y-124601744D01*
X117600871Y-124541495D01*
X117600866Y-124541492D01*
X117562062Y-124531094D01*
X117484457Y-124510300D01*
X117363943Y-124510300D01*
X117305739Y-124525896D01*
X117247533Y-124541492D01*
X117247528Y-124541495D01*
X117143172Y-124601744D01*
X117136721Y-124606695D01*
X117135760Y-124605443D01*
X117082611Y-124634466D01*
X117056253Y-124637300D01*
X116483484Y-124637300D01*
X116399377Y-124659836D01*
X116323969Y-124703374D01*
X116323966Y-124703376D01*
X116201850Y-124825493D01*
X116140527Y-124858978D01*
X116120095Y-124861174D01*
X116115257Y-124861811D01*
X115998845Y-124893004D01*
X115998840Y-124893007D01*
X115894484Y-124953256D01*
X115894476Y-124953262D01*
X115809262Y-125038476D01*
X115809256Y-125038484D01*
X115749007Y-125142840D01*
X115749004Y-125142845D01*
X115739759Y-125177349D01*
X115717812Y-125259255D01*
X115717812Y-125379769D01*
X115738606Y-125457374D01*
X115749004Y-125496178D01*
X115749007Y-125496183D01*
X115809256Y-125600539D01*
X115814207Y-125606991D01*
X115812955Y-125607951D01*
X115841978Y-125661101D01*
X115844812Y-125687459D01*
X115844812Y-126471975D01*
X115825127Y-126539014D01*
X115808493Y-126559656D01*
X114459503Y-127908645D01*
X114459501Y-127908648D01*
X114415963Y-127984056D01*
X114393427Y-128068163D01*
X114393427Y-129863253D01*
X114373742Y-129930292D01*
X114360857Y-129946281D01*
X114357871Y-129950172D01*
X114297622Y-130054528D01*
X114297619Y-130054533D01*
X114288902Y-130087065D01*
X114266427Y-130170943D01*
X93884824Y-130170943D01*
X93720205Y-130087065D01*
X93499393Y-130015318D01*
X93270090Y-129979000D01*
X93037910Y-129979000D01*
X92808606Y-130015318D01*
X92587794Y-130087065D01*
X92380935Y-130192465D01*
X92302792Y-130249238D01*
X92906512Y-130852958D01*
X92846110Y-130877978D01*
X92739649Y-130949112D01*
X92649112Y-131039649D01*
X92577978Y-131146110D01*
X92552958Y-131206512D01*
X91949238Y-130602792D01*
X91892465Y-130680935D01*
X91787065Y-130887794D01*
X91715318Y-131108606D01*
X91679000Y-131337909D01*
X89329006Y-131337909D01*
X89303677Y-131177990D01*
X89303677Y-131177987D01*
X89246344Y-131001536D01*
X89162115Y-130836226D01*
X89053062Y-130686128D01*
X88921872Y-130554938D01*
X88771774Y-130445885D01*
X88606464Y-130361656D01*
X88430013Y-130304323D01*
X88430011Y-130304322D01*
X88430009Y-130304322D01*
X88246771Y-130275300D01*
X88246766Y-130275300D01*
X88061234Y-130275300D01*
X88061229Y-130275300D01*
X87877990Y-130304322D01*
X87701533Y-130361657D01*
X87536225Y-130445885D01*
X87450588Y-130508104D01*
X87386128Y-130554938D01*
X87386126Y-130554940D01*
X87386125Y-130554940D01*
X87254940Y-130686125D01*
X87254940Y-130686126D01*
X87254938Y-130686128D01*
X87208104Y-130750588D01*
X87145885Y-130836225D01*
X87061657Y-131001533D01*
X87004322Y-131177990D01*
X86975300Y-131361228D01*
X78607700Y-131361228D01*
X78607700Y-131112839D01*
X78570849Y-130832932D01*
X78497779Y-130560230D01*
X78389739Y-130299399D01*
X78389737Y-130299396D01*
X78389735Y-130299391D01*
X78248578Y-130054901D01*
X78076713Y-129830921D01*
X78076707Y-129830914D01*
X77877085Y-129631292D01*
X77877078Y-129631286D01*
X77653098Y-129459421D01*
X77483297Y-129361387D01*
X77435082Y-129310820D01*
X77421858Y-129242213D01*
X77447826Y-129177349D01*
X77483297Y-129146613D01*
X77653099Y-129048578D01*
X77877080Y-128876712D01*
X78076712Y-128677080D01*
X78248578Y-128453099D01*
X78389739Y-128208601D01*
X78497779Y-127947770D01*
X78570849Y-127675068D01*
X78607700Y-127395161D01*
X78607700Y-127112839D01*
X78574879Y-126863543D01*
X110794300Y-126863543D01*
X110794300Y-126984057D01*
X110815094Y-127061662D01*
X110825492Y-127100466D01*
X110825495Y-127100471D01*
X110885744Y-127204827D01*
X110890695Y-127211279D01*
X110889443Y-127212239D01*
X110918466Y-127265389D01*
X110921300Y-127291747D01*
X110921300Y-127673039D01*
X110921844Y-127675068D01*
X110943836Y-127757146D01*
X110987374Y-127832555D01*
X110987376Y-127832557D01*
X111056010Y-127901191D01*
X111056016Y-127901196D01*
X111652481Y-128497661D01*
X111685966Y-128558984D01*
X111688163Y-128579421D01*
X111688799Y-128584254D01*
X111719992Y-128700666D01*
X111719995Y-128700671D01*
X111780244Y-128805027D01*
X111780248Y-128805032D01*
X111780249Y-128805034D01*
X111865466Y-128890251D01*
X111865468Y-128890252D01*
X111865472Y-128890255D01*
X111969828Y-128950504D01*
X111969835Y-128950508D01*
X112086243Y-128981700D01*
X112086245Y-128981700D01*
X112206755Y-128981700D01*
X112206757Y-128981700D01*
X112323165Y-128950508D01*
X112427534Y-128890251D01*
X112512751Y-128805034D01*
X112573008Y-128700665D01*
X112604200Y-128584257D01*
X112604200Y-128463743D01*
X112573008Y-128347335D01*
X112516052Y-128248683D01*
X112512755Y-128242972D01*
X112512749Y-128242964D01*
X112427535Y-128157750D01*
X112427527Y-128157744D01*
X112323171Y-128097495D01*
X112323166Y-128097492D01*
X112206754Y-128066299D01*
X112198698Y-128065239D01*
X112198903Y-128063675D01*
X112140803Y-128046615D01*
X112120161Y-128029981D01*
X111619019Y-127528839D01*
X111604315Y-127501911D01*
X111587723Y-127476093D01*
X111586831Y-127469892D01*
X111585534Y-127467516D01*
X111582700Y-127441158D01*
X111582700Y-127291747D01*
X111602385Y-127224708D01*
X111615269Y-127208718D01*
X111618245Y-127204839D01*
X111618251Y-127204834D01*
X111678508Y-127100465D01*
X111709700Y-126984057D01*
X111709700Y-126863543D01*
X111678508Y-126747135D01*
X111653188Y-126703279D01*
X111618255Y-126642772D01*
X111618249Y-126642764D01*
X111533035Y-126557550D01*
X111533027Y-126557544D01*
X111428671Y-126497295D01*
X111428666Y-126497292D01*
X111389862Y-126486894D01*
X111312257Y-126466100D01*
X111191743Y-126466100D01*
X111154584Y-126476057D01*
X111075333Y-126497292D01*
X111075328Y-126497295D01*
X110970972Y-126557544D01*
X110970964Y-126557550D01*
X110885750Y-126642764D01*
X110885744Y-126642772D01*
X110825495Y-126747128D01*
X110825492Y-126747133D01*
X110804697Y-126824740D01*
X110794300Y-126863543D01*
X78574879Y-126863543D01*
X78570849Y-126832932D01*
X78497779Y-126560230D01*
X78389739Y-126299399D01*
X78389737Y-126299396D01*
X78389735Y-126299391D01*
X78248578Y-126054901D01*
X78076713Y-125830921D01*
X78076707Y-125830914D01*
X77877085Y-125631292D01*
X77877078Y-125631286D01*
X77653098Y-125459421D01*
X77515136Y-125379769D01*
X77483296Y-125361386D01*
X77435082Y-125310820D01*
X77421858Y-125242213D01*
X77447826Y-125177349D01*
X77483297Y-125146613D01*
X77486661Y-125144671D01*
X77653099Y-125048578D01*
X77877080Y-124876712D01*
X78076712Y-124677080D01*
X78248578Y-124453099D01*
X78389739Y-124208601D01*
X78497779Y-123947770D01*
X78570849Y-123675068D01*
X78607700Y-123395161D01*
X78607700Y-123112839D01*
X78570849Y-122832932D01*
X78503462Y-122581441D01*
X109270300Y-122581441D01*
X109270300Y-122701955D01*
X109283484Y-122751158D01*
X109301492Y-122818364D01*
X109301495Y-122818369D01*
X109361744Y-122922725D01*
X109366695Y-122929177D01*
X109365443Y-122930137D01*
X109394466Y-122983287D01*
X109397300Y-123009645D01*
X109397300Y-124280355D01*
X109377615Y-124347394D01*
X109364730Y-124363383D01*
X109361744Y-124367274D01*
X109301495Y-124471630D01*
X109301492Y-124471635D01*
X109291132Y-124510300D01*
X109270300Y-124588045D01*
X109270300Y-124708559D01*
X109291094Y-124786164D01*
X109301492Y-124824968D01*
X109301495Y-124824973D01*
X109361744Y-124929329D01*
X109361748Y-124929334D01*
X109361749Y-124929336D01*
X109446966Y-125014553D01*
X109446968Y-125014554D01*
X109446972Y-125014557D01*
X109505899Y-125048578D01*
X109551335Y-125074810D01*
X109667743Y-125106002D01*
X109667745Y-125106002D01*
X109788255Y-125106002D01*
X109788257Y-125106002D01*
X109904665Y-125074810D01*
X110009034Y-125014553D01*
X110094251Y-124929336D01*
X110154508Y-124824967D01*
X110185700Y-124708559D01*
X110185700Y-124588045D01*
X110154508Y-124471637D01*
X110143805Y-124453098D01*
X110094255Y-124367274D01*
X110094252Y-124367271D01*
X110094251Y-124367268D01*
X110094248Y-124367265D01*
X110089305Y-124360823D01*
X110090556Y-124359862D01*
X110061534Y-124306713D01*
X110058700Y-124280355D01*
X110058700Y-123009645D01*
X110078385Y-122942606D01*
X110091269Y-122926616D01*
X110094245Y-122922737D01*
X110094251Y-122922732D01*
X110154508Y-122818363D01*
X110185700Y-122701955D01*
X110185700Y-122581441D01*
X110154508Y-122465033D01*
X110096466Y-122364500D01*
X110094255Y-122360670D01*
X110094249Y-122360662D01*
X110009035Y-122275448D01*
X110009027Y-122275442D01*
X109904671Y-122215193D01*
X109904666Y-122215190D01*
X109850402Y-122200650D01*
X109788257Y-122183998D01*
X109667743Y-122183998D01*
X109609539Y-122199594D01*
X109551333Y-122215190D01*
X109551328Y-122215193D01*
X109446972Y-122275442D01*
X109446964Y-122275448D01*
X109361750Y-122360662D01*
X109361744Y-122360670D01*
X109301495Y-122465026D01*
X109301492Y-122465031D01*
X109295070Y-122488998D01*
X109270300Y-122581441D01*
X78503462Y-122581441D01*
X78497779Y-122560230D01*
X78415115Y-122360662D01*
X78389743Y-122299408D01*
X78389735Y-122299391D01*
X78248578Y-122054901D01*
X78126872Y-121896290D01*
X78076713Y-121830921D01*
X78076707Y-121830914D01*
X77877085Y-121631292D01*
X77877078Y-121631286D01*
X77653098Y-121459421D01*
X77408608Y-121318264D01*
X77408591Y-121318256D01*
X77147768Y-121210220D01*
X76974881Y-121163895D01*
X76875068Y-121137151D01*
X76840079Y-121132544D01*
X76595168Y-121100300D01*
X76595161Y-121100300D01*
X76312839Y-121100300D01*
X76312831Y-121100300D01*
X76032932Y-121137151D01*
X75760231Y-121210220D01*
X75499408Y-121318256D01*
X75499391Y-121318264D01*
X75254901Y-121459421D01*
X75030921Y-121631286D01*
X75030914Y-121631292D01*
X74831292Y-121830914D01*
X74831286Y-121830921D01*
X74659421Y-122054901D01*
X74518264Y-122299391D01*
X74518256Y-122299408D01*
X74410220Y-122560231D01*
X74337151Y-122832932D01*
X74300300Y-123112831D01*
X69707699Y-123112831D01*
X69670849Y-122832932D01*
X69597779Y-122560230D01*
X69515115Y-122360662D01*
X69489743Y-122299408D01*
X69489735Y-122299391D01*
X69348578Y-122054901D01*
X69176713Y-121830921D01*
X69176707Y-121830914D01*
X68977085Y-121631292D01*
X68977078Y-121631286D01*
X68753098Y-121459421D01*
X68508608Y-121318264D01*
X68508591Y-121318256D01*
X68247768Y-121210220D01*
X68074881Y-121163895D01*
X67975068Y-121137151D01*
X67940079Y-121132544D01*
X67695168Y-121100300D01*
X67695161Y-121100300D01*
X67412839Y-121100300D01*
X67412831Y-121100300D01*
X67132932Y-121137151D01*
X66860231Y-121210220D01*
X66599408Y-121318256D01*
X66599391Y-121318264D01*
X66354901Y-121459421D01*
X66130921Y-121631286D01*
X66130914Y-121631292D01*
X65931292Y-121830914D01*
X65931286Y-121830921D01*
X65759421Y-122054901D01*
X65618264Y-122299391D01*
X65618256Y-122299408D01*
X65510220Y-122560231D01*
X65437151Y-122832932D01*
X65400300Y-123112831D01*
X49022500Y-123112831D01*
X49022500Y-121011771D01*
X51762300Y-121011771D01*
X51762300Y-121248228D01*
X51793161Y-121482635D01*
X51854359Y-121711028D01*
X51944837Y-121929461D01*
X51944841Y-121929471D01*
X52063059Y-122134231D01*
X52206995Y-122321812D01*
X52207001Y-122321819D01*
X52374180Y-122488998D01*
X52374187Y-122489004D01*
X52561768Y-122632940D01*
X52766528Y-122751158D01*
X52766529Y-122751158D01*
X52766532Y-122751160D01*
X52984976Y-122841642D01*
X53213361Y-122902838D01*
X53447779Y-122933700D01*
X53447786Y-122933700D01*
X53684214Y-122933700D01*
X53684221Y-122933700D01*
X53918639Y-122902838D01*
X54147024Y-122841642D01*
X54365468Y-122751160D01*
X54570232Y-122632940D01*
X54757814Y-122489003D01*
X54925003Y-122321814D01*
X55068940Y-122134232D01*
X55187160Y-121929468D01*
X55277642Y-121711024D01*
X55338838Y-121482639D01*
X55369700Y-121248221D01*
X55369700Y-121011779D01*
X55369699Y-121011771D01*
X57632300Y-121011771D01*
X57632300Y-121248228D01*
X57663161Y-121482635D01*
X57724359Y-121711028D01*
X57814837Y-121929461D01*
X57814841Y-121929471D01*
X57933059Y-122134231D01*
X58076995Y-122321812D01*
X58077001Y-122321819D01*
X58244180Y-122488998D01*
X58244187Y-122489004D01*
X58431768Y-122632940D01*
X58636528Y-122751158D01*
X58636529Y-122751158D01*
X58636532Y-122751160D01*
X58854976Y-122841642D01*
X59083361Y-122902838D01*
X59317779Y-122933700D01*
X59317786Y-122933700D01*
X59554214Y-122933700D01*
X59554221Y-122933700D01*
X59788639Y-122902838D01*
X60017024Y-122841642D01*
X60235468Y-122751160D01*
X60440232Y-122632940D01*
X60627814Y-122489003D01*
X60795003Y-122321814D01*
X60938940Y-122134232D01*
X61057160Y-121929468D01*
X61147642Y-121711024D01*
X61208838Y-121482639D01*
X61239700Y-121248221D01*
X61239700Y-121011779D01*
X61208838Y-120777361D01*
X61147642Y-120548976D01*
X61057160Y-120330532D01*
X61047906Y-120314504D01*
X60938940Y-120125768D01*
X60795004Y-119938187D01*
X60794998Y-119938180D01*
X60684561Y-119827743D01*
X99618300Y-119827743D01*
X99618300Y-119948257D01*
X99639094Y-120025862D01*
X99649492Y-120064666D01*
X99649495Y-120064671D01*
X99709744Y-120169027D01*
X99709748Y-120169032D01*
X99709749Y-120169034D01*
X99794966Y-120254251D01*
X99794968Y-120254252D01*
X99794972Y-120254255D01*
X99899328Y-120314504D01*
X99899335Y-120314508D01*
X100015743Y-120345700D01*
X100015745Y-120345700D01*
X100136255Y-120345700D01*
X100136257Y-120345700D01*
X100252665Y-120314508D01*
X100357034Y-120254251D01*
X100442251Y-120169034D01*
X100502508Y-120064665D01*
X100533700Y-119948257D01*
X100533700Y-119948254D01*
X100534761Y-119940198D01*
X100536324Y-119940403D01*
X100553385Y-119882303D01*
X100570019Y-119861661D01*
X101290753Y-119140927D01*
X101352076Y-119107442D01*
X101372513Y-119105244D01*
X101377346Y-119104608D01*
X101377349Y-119104608D01*
X101493757Y-119073416D01*
X101598126Y-119013159D01*
X101683343Y-118927942D01*
X101743600Y-118823573D01*
X101774792Y-118707165D01*
X101774792Y-118586651D01*
X101743600Y-118470243D01*
X101717049Y-118424255D01*
X101683347Y-118365880D01*
X101683341Y-118365872D01*
X101598127Y-118280658D01*
X101598119Y-118280652D01*
X101493763Y-118220403D01*
X101493758Y-118220400D01*
X101454954Y-118210002D01*
X101377349Y-118189208D01*
X101256835Y-118189208D01*
X101198631Y-118204804D01*
X101140425Y-118220400D01*
X101140420Y-118220403D01*
X101036064Y-118280652D01*
X101036056Y-118280658D01*
X100950842Y-118365872D01*
X100950836Y-118365880D01*
X100890587Y-118470236D01*
X100890584Y-118470241D01*
X100859391Y-118586653D01*
X100858331Y-118594710D01*
X100856767Y-118594504D01*
X100839707Y-118652605D01*
X100823073Y-118673247D01*
X100102339Y-119393981D01*
X100041016Y-119427466D01*
X100020578Y-119429663D01*
X100015745Y-119430299D01*
X99899333Y-119461492D01*
X99899328Y-119461495D01*
X99794972Y-119521744D01*
X99794964Y-119521750D01*
X99709750Y-119606964D01*
X99709744Y-119606972D01*
X99649495Y-119711328D01*
X99649492Y-119711333D01*
X99633506Y-119770995D01*
X99618300Y-119827743D01*
X60684561Y-119827743D01*
X60627819Y-119771001D01*
X60627812Y-119770995D01*
X60440231Y-119627059D01*
X60235471Y-119508841D01*
X60235461Y-119508837D01*
X60017028Y-119418359D01*
X59788635Y-119357161D01*
X59554228Y-119326300D01*
X59554221Y-119326300D01*
X59317779Y-119326300D01*
X59317771Y-119326300D01*
X59083364Y-119357161D01*
X58854971Y-119418359D01*
X58636538Y-119508837D01*
X58636528Y-119508841D01*
X58431768Y-119627059D01*
X58244187Y-119770995D01*
X58244180Y-119771001D01*
X58077001Y-119938180D01*
X58076995Y-119938187D01*
X57933059Y-120125768D01*
X57814841Y-120330528D01*
X57814837Y-120330538D01*
X57724359Y-120548971D01*
X57663161Y-120777364D01*
X57632300Y-121011771D01*
X55369699Y-121011771D01*
X55338838Y-120777361D01*
X55277642Y-120548976D01*
X55187160Y-120330532D01*
X55177906Y-120314504D01*
X55068940Y-120125768D01*
X54925004Y-119938187D01*
X54924998Y-119938180D01*
X54757819Y-119771001D01*
X54757812Y-119770995D01*
X54570231Y-119627059D01*
X54365471Y-119508841D01*
X54365461Y-119508837D01*
X54147028Y-119418359D01*
X53918635Y-119357161D01*
X53684228Y-119326300D01*
X53684221Y-119326300D01*
X53447779Y-119326300D01*
X53447771Y-119326300D01*
X53213364Y-119357161D01*
X52984971Y-119418359D01*
X52766538Y-119508837D01*
X52766528Y-119508841D01*
X52561768Y-119627059D01*
X52374187Y-119770995D01*
X52374180Y-119771001D01*
X52207001Y-119938180D01*
X52206995Y-119938187D01*
X52063059Y-120125768D01*
X51944841Y-120330528D01*
X51944837Y-120330538D01*
X51854359Y-120548971D01*
X51793161Y-120777364D01*
X51762300Y-121011771D01*
X49022500Y-121011771D01*
X49022500Y-109590358D01*
X50845000Y-109590358D01*
X50845000Y-109865641D01*
X50880930Y-110138565D01*
X50952180Y-110404471D01*
X51057520Y-110658787D01*
X51057527Y-110658802D01*
X51195163Y-110897196D01*
X51293758Y-111025686D01*
X52136497Y-110182947D01*
X52226505Y-110317653D01*
X52355347Y-110446495D01*
X52490051Y-110536501D01*
X51647312Y-111379240D01*
X51775804Y-111477836D01*
X52014197Y-111615472D01*
X52014212Y-111615479D01*
X52268528Y-111720819D01*
X52534434Y-111792069D01*
X52807358Y-111828000D01*
X53082642Y-111828000D01*
X53355565Y-111792069D01*
X53621471Y-111720819D01*
X53875787Y-111615479D01*
X53875802Y-111615472D01*
X54114194Y-111477836D01*
X54114211Y-111477825D01*
X54242686Y-111379241D01*
X54242686Y-111379239D01*
X53399949Y-110536501D01*
X53534653Y-110446495D01*
X53663495Y-110317653D01*
X53753501Y-110182948D01*
X54596239Y-111025686D01*
X54596241Y-111025686D01*
X54694825Y-110897211D01*
X54694836Y-110897194D01*
X54832472Y-110658802D01*
X54832479Y-110658787D01*
X54937819Y-110404471D01*
X55009069Y-110138565D01*
X55045000Y-109865641D01*
X55045000Y-109590358D01*
X56715000Y-109590358D01*
X56715000Y-109865641D01*
X56750930Y-110138565D01*
X56822180Y-110404471D01*
X56927520Y-110658787D01*
X56927527Y-110658802D01*
X57065163Y-110897196D01*
X57163758Y-111025686D01*
X58006497Y-110182947D01*
X58096505Y-110317653D01*
X58225347Y-110446495D01*
X58360051Y-110536501D01*
X57517312Y-111379240D01*
X57645804Y-111477836D01*
X57884197Y-111615472D01*
X57884212Y-111615479D01*
X58138528Y-111720819D01*
X58404434Y-111792069D01*
X58677358Y-111828000D01*
X58952642Y-111828000D01*
X59225565Y-111792069D01*
X59491471Y-111720819D01*
X59745787Y-111615479D01*
X59745802Y-111615472D01*
X59984194Y-111477836D01*
X59984211Y-111477825D01*
X60112686Y-111379241D01*
X60112686Y-111379239D01*
X59269949Y-110536501D01*
X59404653Y-110446495D01*
X59533495Y-110317653D01*
X59623501Y-110182948D01*
X60466239Y-111025686D01*
X60466241Y-111025686D01*
X60564825Y-110897211D01*
X60564836Y-110897194D01*
X60702472Y-110658802D01*
X60702479Y-110658787D01*
X60807819Y-110404471D01*
X60879069Y-110138565D01*
X60915000Y-109865641D01*
X60915000Y-109590358D01*
X60879069Y-109317434D01*
X60807819Y-109051528D01*
X60702479Y-108797212D01*
X60702472Y-108797197D01*
X60564833Y-108558799D01*
X60520464Y-108500976D01*
X60520463Y-108500975D01*
X60467212Y-108431577D01*
X68350900Y-108431577D01*
X68350900Y-108636822D01*
X68390937Y-108838102D01*
X68390940Y-108838112D01*
X68469477Y-109027720D01*
X68469478Y-109027721D01*
X68469480Y-109027725D01*
X68538578Y-109131136D01*
X68583503Y-109198371D01*
X68583506Y-109198375D01*
X68728624Y-109343493D01*
X68728628Y-109343496D01*
X68899275Y-109457520D01*
X68899278Y-109457521D01*
X68899279Y-109457522D01*
X68984577Y-109492853D01*
X69088889Y-109536060D01*
X69088892Y-109536060D01*
X69088897Y-109536062D01*
X69290177Y-109576099D01*
X69290180Y-109576100D01*
X69290182Y-109576100D01*
X69495420Y-109576100D01*
X69495421Y-109576099D01*
X69696711Y-109536060D01*
X69782991Y-109500321D01*
X69852457Y-109492853D01*
X69914936Y-109524128D01*
X69918122Y-109527202D01*
X70400329Y-110009409D01*
X70400339Y-110009420D01*
X70404670Y-110013751D01*
X70466241Y-110075322D01*
X70541650Y-110118860D01*
X70625758Y-110141396D01*
X70625759Y-110141396D01*
X70712833Y-110141396D01*
X79992962Y-110141396D01*
X80060001Y-110161081D01*
X80080643Y-110177715D01*
X85915781Y-116012853D01*
X85949266Y-116074176D01*
X85952100Y-116100534D01*
X85952100Y-117822338D01*
X85974636Y-117906446D01*
X86018174Y-117981855D01*
X86018176Y-117981857D01*
X86086810Y-118050491D01*
X86086816Y-118050496D01*
X86373981Y-118337661D01*
X86407466Y-118398984D01*
X86409663Y-118419421D01*
X86410299Y-118424254D01*
X86441492Y-118540666D01*
X86441495Y-118540671D01*
X86501744Y-118645027D01*
X86501748Y-118645032D01*
X86501749Y-118645034D01*
X86586966Y-118730251D01*
X86586968Y-118730252D01*
X86586972Y-118730255D01*
X86691328Y-118790504D01*
X86691335Y-118790508D01*
X86807743Y-118821700D01*
X86807745Y-118821700D01*
X86928255Y-118821700D01*
X86928257Y-118821700D01*
X87044665Y-118790508D01*
X87149034Y-118730251D01*
X87234251Y-118645034D01*
X87294508Y-118540665D01*
X87325700Y-118424257D01*
X87325700Y-118303743D01*
X87294508Y-118187335D01*
X87288772Y-118177400D01*
X87272300Y-118109503D01*
X87295152Y-118043476D01*
X87334159Y-118008015D01*
X87403034Y-117968251D01*
X87488251Y-117883034D01*
X87548508Y-117778665D01*
X87579700Y-117662257D01*
X87579700Y-117541743D01*
X87548508Y-117425335D01*
X87548504Y-117425328D01*
X87488255Y-117320972D01*
X87488249Y-117320964D01*
X87403035Y-117235750D01*
X87403030Y-117235746D01*
X87298668Y-117175493D01*
X87298661Y-117175490D01*
X87290600Y-117173330D01*
X87230941Y-117136962D01*
X87200416Y-117074113D01*
X87198700Y-117053557D01*
X87198700Y-115805865D01*
X87198700Y-115805862D01*
X87176164Y-115721754D01*
X87132626Y-115646345D01*
X87071055Y-115584774D01*
X87066724Y-115580443D01*
X87066713Y-115580433D01*
X82493728Y-111007448D01*
X91344250Y-111007448D01*
X91344250Y-111344151D01*
X91381946Y-111678712D01*
X91381948Y-111678724D01*
X91456869Y-112006976D01*
X91456873Y-112006988D01*
X91568074Y-112324781D01*
X91714157Y-112628126D01*
X91714159Y-112628129D01*
X91893291Y-112913216D01*
X92103217Y-113176454D01*
X92341296Y-113414533D01*
X92604534Y-113624459D01*
X92889621Y-113803591D01*
X93192972Y-113949677D01*
X93431654Y-114033195D01*
X93510761Y-114060876D01*
X93510773Y-114060880D01*
X93839025Y-114135802D01*
X94173599Y-114173499D01*
X94173600Y-114173500D01*
X94173603Y-114173500D01*
X94510300Y-114173500D01*
X94510300Y-114173499D01*
X94844875Y-114135802D01*
X95173127Y-114060880D01*
X95490928Y-113949677D01*
X95794279Y-113803591D01*
X96079366Y-113624459D01*
X96342604Y-113414533D01*
X96580683Y-113176454D01*
X96790609Y-112913216D01*
X96969741Y-112628129D01*
X97115827Y-112324778D01*
X97227030Y-112006977D01*
X97301952Y-111678725D01*
X97339650Y-111344147D01*
X97339650Y-111007453D01*
X97301952Y-110672875D01*
X97227030Y-110344623D01*
X97115827Y-110026822D01*
X96969741Y-109723471D01*
X96790609Y-109438384D01*
X96580683Y-109175146D01*
X96342604Y-108937067D01*
X96079366Y-108727141D01*
X95794279Y-108548009D01*
X95794276Y-108548007D01*
X95490931Y-108401924D01*
X95173138Y-108290723D01*
X95173126Y-108290719D01*
X94908355Y-108230287D01*
X94844875Y-108215798D01*
X94844871Y-108215797D01*
X94844862Y-108215796D01*
X94510301Y-108178100D01*
X94510297Y-108178100D01*
X94173603Y-108178100D01*
X94173598Y-108178100D01*
X93839037Y-108215796D01*
X93839025Y-108215798D01*
X93510773Y-108290719D01*
X93510761Y-108290723D01*
X93192968Y-108401924D01*
X92889623Y-108548007D01*
X92604535Y-108727140D01*
X92341296Y-108937066D01*
X92103216Y-109175146D01*
X91893290Y-109438385D01*
X91714157Y-109723473D01*
X91568074Y-110026818D01*
X91456873Y-110344611D01*
X91456869Y-110344623D01*
X91381948Y-110672875D01*
X91381946Y-110672887D01*
X91344250Y-111007448D01*
X82493728Y-111007448D01*
X80545802Y-109059522D01*
X80512317Y-108998199D01*
X80517301Y-108928507D01*
X80518901Y-108924439D01*
X80554660Y-108838111D01*
X80594700Y-108636818D01*
X80594700Y-108431582D01*
X80594700Y-108431579D01*
X80594699Y-108431577D01*
X80554662Y-108230297D01*
X80554659Y-108230287D01*
X80476122Y-108040679D01*
X80476121Y-108040678D01*
X80476120Y-108040675D01*
X80362096Y-107870028D01*
X80362093Y-107870024D01*
X80216975Y-107724906D01*
X80216971Y-107724903D01*
X80125719Y-107663930D01*
X80046325Y-107610880D01*
X80046322Y-107610878D01*
X80046321Y-107610878D01*
X80046320Y-107610877D01*
X79856712Y-107532340D01*
X79856702Y-107532337D01*
X79655421Y-107492300D01*
X79655418Y-107492300D01*
X79450182Y-107492300D01*
X79450179Y-107492300D01*
X79248897Y-107532337D01*
X79248887Y-107532340D01*
X79059279Y-107610877D01*
X79059278Y-107610878D01*
X78888628Y-107724903D01*
X78888624Y-107724906D01*
X78743506Y-107870024D01*
X78743503Y-107870028D01*
X78629478Y-108040678D01*
X78629477Y-108040679D01*
X78550940Y-108230287D01*
X78550937Y-108230297D01*
X78510900Y-108431577D01*
X78510900Y-108636822D01*
X78550937Y-108838102D01*
X78550940Y-108838112D01*
X78629477Y-109027720D01*
X78629478Y-109027721D01*
X78629480Y-109027725D01*
X78698578Y-109131136D01*
X78743503Y-109198371D01*
X78743506Y-109198375D01*
X78813446Y-109268315D01*
X78846931Y-109329638D01*
X78841947Y-109399330D01*
X78800075Y-109455263D01*
X78734611Y-109479680D01*
X78725765Y-109479996D01*
X70857638Y-109479996D01*
X70790599Y-109460311D01*
X70769957Y-109443677D01*
X70385802Y-109059522D01*
X70352317Y-108998199D01*
X70357301Y-108928507D01*
X70358901Y-108924439D01*
X70394660Y-108838111D01*
X70434700Y-108636818D01*
X70434700Y-108431582D01*
X70434700Y-108431579D01*
X70434699Y-108431577D01*
X70394662Y-108230297D01*
X70394659Y-108230287D01*
X70316122Y-108040679D01*
X70316121Y-108040678D01*
X70316120Y-108040675D01*
X70202096Y-107870028D01*
X70202093Y-107870024D01*
X70056975Y-107724906D01*
X70056971Y-107724903D01*
X69965719Y-107663930D01*
X69886325Y-107610880D01*
X69886322Y-107610878D01*
X69886321Y-107610878D01*
X69886320Y-107610877D01*
X69696712Y-107532340D01*
X69696702Y-107532337D01*
X69495421Y-107492300D01*
X69495418Y-107492300D01*
X69290182Y-107492300D01*
X69290179Y-107492300D01*
X69088897Y-107532337D01*
X69088887Y-107532340D01*
X68899279Y-107610877D01*
X68899278Y-107610878D01*
X68728628Y-107724903D01*
X68728624Y-107724906D01*
X68583506Y-107870024D01*
X68583503Y-107870028D01*
X68469478Y-108040678D01*
X68469477Y-108040679D01*
X68390940Y-108230287D01*
X68390937Y-108230297D01*
X68350900Y-108431577D01*
X60467212Y-108431577D01*
X60466241Y-108430312D01*
X60466240Y-108430312D01*
X59623501Y-109273051D01*
X59533495Y-109138347D01*
X59404653Y-109009505D01*
X59269948Y-108919497D01*
X60112686Y-108076758D01*
X59984196Y-107978163D01*
X59745802Y-107840527D01*
X59745787Y-107840520D01*
X59491471Y-107735180D01*
X59225565Y-107663930D01*
X58952642Y-107628000D01*
X58677358Y-107628000D01*
X58404434Y-107663930D01*
X58138528Y-107735180D01*
X57884212Y-107840520D01*
X57884197Y-107840527D01*
X57645799Y-107978166D01*
X57517312Y-108076757D01*
X57517312Y-108076758D01*
X58360051Y-108919497D01*
X58225347Y-109009505D01*
X58096505Y-109138347D01*
X58006497Y-109273051D01*
X57163758Y-108430312D01*
X57163757Y-108430312D01*
X57065166Y-108558799D01*
X56927527Y-108797197D01*
X56927520Y-108797212D01*
X56822180Y-109051528D01*
X56750930Y-109317434D01*
X56715000Y-109590358D01*
X55045000Y-109590358D01*
X55009069Y-109317434D01*
X54937819Y-109051528D01*
X54832479Y-108797212D01*
X54832472Y-108797197D01*
X54694836Y-108558804D01*
X54596240Y-108430312D01*
X53753501Y-109273051D01*
X53663495Y-109138347D01*
X53534653Y-109009505D01*
X53399948Y-108919497D01*
X54242686Y-108076758D01*
X54114196Y-107978163D01*
X53875802Y-107840527D01*
X53875787Y-107840520D01*
X53621471Y-107735180D01*
X53355565Y-107663930D01*
X53082642Y-107628000D01*
X52807358Y-107628000D01*
X52534434Y-107663930D01*
X52268528Y-107735180D01*
X52014212Y-107840520D01*
X52014197Y-107840527D01*
X51775799Y-107978166D01*
X51647312Y-108076757D01*
X51647312Y-108076758D01*
X52490051Y-108919497D01*
X52355347Y-109009505D01*
X52226505Y-109138347D01*
X52136497Y-109273051D01*
X51293758Y-108430312D01*
X51293757Y-108430312D01*
X51195166Y-108558799D01*
X51057527Y-108797197D01*
X51057520Y-108797212D01*
X50952180Y-109051528D01*
X50880930Y-109317434D01*
X50845000Y-109590358D01*
X49022500Y-109590358D01*
X49022500Y-103720358D01*
X50845000Y-103720358D01*
X50845000Y-103995641D01*
X50880930Y-104268565D01*
X50952180Y-104534471D01*
X51057520Y-104788787D01*
X51057527Y-104788802D01*
X51195163Y-105027196D01*
X51293758Y-105155686D01*
X52136497Y-104312947D01*
X52226505Y-104447653D01*
X52355347Y-104576495D01*
X52490051Y-104666501D01*
X51647312Y-105509240D01*
X51775804Y-105607836D01*
X52014197Y-105745472D01*
X52014212Y-105745479D01*
X52268528Y-105850819D01*
X52534434Y-105922069D01*
X52807358Y-105958000D01*
X53082642Y-105958000D01*
X53355565Y-105922069D01*
X53621471Y-105850819D01*
X53875787Y-105745479D01*
X53875802Y-105745472D01*
X54114194Y-105607836D01*
X54114211Y-105607825D01*
X54242686Y-105509241D01*
X54242686Y-105509239D01*
X53399949Y-104666501D01*
X53534653Y-104576495D01*
X53663495Y-104447653D01*
X53753501Y-104312948D01*
X54596239Y-105155686D01*
X54596241Y-105155686D01*
X54694825Y-105027211D01*
X54694836Y-105027194D01*
X54832472Y-104788802D01*
X54832479Y-104788787D01*
X54937819Y-104534471D01*
X55009069Y-104268565D01*
X55045000Y-103995641D01*
X55045000Y-103720358D01*
X56715000Y-103720358D01*
X56715000Y-103995641D01*
X56750930Y-104268565D01*
X56822180Y-104534471D01*
X56927520Y-104788787D01*
X56927527Y-104788802D01*
X57065163Y-105027196D01*
X57163758Y-105155686D01*
X58006497Y-104312947D01*
X58096505Y-104447653D01*
X58225347Y-104576495D01*
X58360051Y-104666501D01*
X57517312Y-105509240D01*
X57645804Y-105607836D01*
X57884197Y-105745472D01*
X57884212Y-105745479D01*
X58138528Y-105850819D01*
X58404434Y-105922069D01*
X58677358Y-105958000D01*
X58952642Y-105958000D01*
X59225565Y-105922069D01*
X59491471Y-105850819D01*
X59745787Y-105745479D01*
X59745802Y-105745472D01*
X59984194Y-105607836D01*
X59984211Y-105607825D01*
X60112686Y-105509241D01*
X60112686Y-105509239D01*
X59269949Y-104666501D01*
X59404653Y-104576495D01*
X59533495Y-104447653D01*
X59623501Y-104312948D01*
X60466239Y-105155686D01*
X60466241Y-105155686D01*
X60564825Y-105027211D01*
X60564836Y-105027194D01*
X60702472Y-104788802D01*
X60702479Y-104788787D01*
X60807819Y-104534471D01*
X60879069Y-104268565D01*
X60915000Y-103995641D01*
X60915000Y-103720358D01*
X60879069Y-103447434D01*
X60807819Y-103181528D01*
X60702479Y-102927212D01*
X60702472Y-102927197D01*
X60591377Y-102734774D01*
X60564836Y-102688804D01*
X60555201Y-102676248D01*
X91344250Y-102676248D01*
X91344250Y-103012951D01*
X91381946Y-103347512D01*
X91381948Y-103347524D01*
X91456869Y-103675776D01*
X91456873Y-103675788D01*
X91568074Y-103993581D01*
X91714157Y-104296926D01*
X91714159Y-104296929D01*
X91893291Y-104582016D01*
X92103217Y-104845254D01*
X92341296Y-105083333D01*
X92604534Y-105293259D01*
X92889621Y-105472391D01*
X93192972Y-105618477D01*
X93431654Y-105701995D01*
X93510761Y-105729676D01*
X93510773Y-105729680D01*
X93839025Y-105804602D01*
X94173599Y-105842299D01*
X94173600Y-105842300D01*
X94173603Y-105842300D01*
X94510300Y-105842300D01*
X94510300Y-105842299D01*
X94844875Y-105804602D01*
X95173127Y-105729680D01*
X95490928Y-105618477D01*
X95794279Y-105472391D01*
X96079366Y-105293259D01*
X96342604Y-105083333D01*
X96580683Y-104845254D01*
X96790609Y-104582016D01*
X96969741Y-104296929D01*
X97115827Y-103993578D01*
X97227030Y-103675777D01*
X97301952Y-103347525D01*
X97339650Y-103012947D01*
X97339650Y-102676253D01*
X97301952Y-102341675D01*
X97227030Y-102013423D01*
X97115827Y-101695622D01*
X96969741Y-101392271D01*
X96790609Y-101107184D01*
X96580683Y-100843946D01*
X96342604Y-100605867D01*
X96079366Y-100395941D01*
X95794279Y-100216809D01*
X95794276Y-100216807D01*
X95732422Y-100187020D01*
X95508860Y-100079358D01*
X99359000Y-100079358D01*
X99359000Y-100354641D01*
X99394930Y-100627565D01*
X99466180Y-100893471D01*
X99571520Y-101147787D01*
X99571527Y-101147802D01*
X99709163Y-101386196D01*
X99807758Y-101514686D01*
X100650497Y-100671947D01*
X100740505Y-100806653D01*
X100869347Y-100935495D01*
X101004051Y-101025501D01*
X100161312Y-101868240D01*
X100289804Y-101966836D01*
X100528197Y-102104472D01*
X100528212Y-102104479D01*
X100782528Y-102209819D01*
X101048434Y-102281069D01*
X101321358Y-102317000D01*
X101596642Y-102317000D01*
X101869565Y-102281069D01*
X102135471Y-102209819D01*
X102389787Y-102104479D01*
X102389802Y-102104472D01*
X102628194Y-101966836D01*
X102628211Y-101966825D01*
X102756686Y-101868241D01*
X102756686Y-101868239D01*
X101913949Y-101025501D01*
X102048653Y-100935495D01*
X102177495Y-100806653D01*
X102267501Y-100671948D01*
X103110239Y-101514686D01*
X103110241Y-101514686D01*
X103208825Y-101386211D01*
X103208836Y-101386194D01*
X103346472Y-101147802D01*
X103346479Y-101147787D01*
X103451819Y-100893471D01*
X103523069Y-100627565D01*
X103559000Y-100354641D01*
X103559000Y-100079358D01*
X105229000Y-100079358D01*
X105229000Y-100354641D01*
X105264930Y-100627565D01*
X105336180Y-100893471D01*
X105441520Y-101147787D01*
X105441527Y-101147802D01*
X105579163Y-101386196D01*
X105677758Y-101514686D01*
X106520497Y-100671947D01*
X106610505Y-100806653D01*
X106739347Y-100935495D01*
X106874051Y-101025501D01*
X106031312Y-101868240D01*
X106159804Y-101966836D01*
X106398197Y-102104472D01*
X106398212Y-102104479D01*
X106652528Y-102209819D01*
X106918434Y-102281069D01*
X107191358Y-102317000D01*
X107466642Y-102317000D01*
X107739565Y-102281069D01*
X108005471Y-102209819D01*
X108259787Y-102104479D01*
X108259802Y-102104472D01*
X108498194Y-101966836D01*
X108498211Y-101966825D01*
X108626686Y-101868241D01*
X108626686Y-101868239D01*
X107783949Y-101025501D01*
X107918653Y-100935495D01*
X108047495Y-100806653D01*
X108137501Y-100671948D01*
X108980239Y-101514686D01*
X108980241Y-101514686D01*
X109078825Y-101386211D01*
X109078836Y-101386194D01*
X109216472Y-101147802D01*
X109216479Y-101147787D01*
X109321819Y-100893471D01*
X109393069Y-100627565D01*
X109429000Y-100354641D01*
X109429000Y-100079358D01*
X109393069Y-99806434D01*
X109321819Y-99540528D01*
X109216479Y-99286212D01*
X109216472Y-99286197D01*
X109078836Y-99047804D01*
X108980240Y-98919312D01*
X108137501Y-99762051D01*
X108047495Y-99627347D01*
X107918653Y-99498505D01*
X107783948Y-99408497D01*
X108626686Y-98565758D01*
X108498196Y-98467163D01*
X108259802Y-98329527D01*
X108259787Y-98329520D01*
X108005471Y-98224180D01*
X107739565Y-98152930D01*
X107466642Y-98117000D01*
X107191358Y-98117000D01*
X106918434Y-98152930D01*
X106652528Y-98224180D01*
X106398212Y-98329520D01*
X106398197Y-98329527D01*
X106159799Y-98467166D01*
X106031312Y-98565757D01*
X106031312Y-98565758D01*
X106874051Y-99408497D01*
X106739347Y-99498505D01*
X106610505Y-99627347D01*
X106520497Y-99762051D01*
X105677758Y-98919312D01*
X105677757Y-98919312D01*
X105579166Y-99047799D01*
X105441527Y-99286197D01*
X105441520Y-99286212D01*
X105336180Y-99540528D01*
X105264930Y-99806434D01*
X105229000Y-100079358D01*
X103559000Y-100079358D01*
X103523069Y-99806434D01*
X103451819Y-99540528D01*
X103346479Y-99286212D01*
X103346472Y-99286197D01*
X103208836Y-99047804D01*
X103110240Y-98919312D01*
X102267501Y-99762051D01*
X102177495Y-99627347D01*
X102048653Y-99498505D01*
X101913948Y-99408497D01*
X102756686Y-98565758D01*
X102628196Y-98467163D01*
X102389802Y-98329527D01*
X102389787Y-98329520D01*
X102135471Y-98224180D01*
X101869565Y-98152930D01*
X101596642Y-98117000D01*
X101321358Y-98117000D01*
X101048434Y-98152930D01*
X100782528Y-98224180D01*
X100528212Y-98329520D01*
X100528197Y-98329527D01*
X100289799Y-98467166D01*
X100161312Y-98565757D01*
X100161312Y-98565758D01*
X101004051Y-99408497D01*
X100869347Y-99498505D01*
X100740505Y-99627347D01*
X100650497Y-99762051D01*
X99807758Y-98919312D01*
X99807757Y-98919312D01*
X99709166Y-99047799D01*
X99571527Y-99286197D01*
X99571520Y-99286212D01*
X99466180Y-99540528D01*
X99394930Y-99806434D01*
X99359000Y-100079358D01*
X95508860Y-100079358D01*
X95490931Y-100070724D01*
X95173138Y-99959523D01*
X95173126Y-99959519D01*
X94919796Y-99901698D01*
X94844875Y-99884598D01*
X94844871Y-99884597D01*
X94844862Y-99884596D01*
X94510301Y-99846900D01*
X94510297Y-99846900D01*
X94173603Y-99846900D01*
X94173598Y-99846900D01*
X93839037Y-99884596D01*
X93839025Y-99884598D01*
X93510773Y-99959519D01*
X93510761Y-99959523D01*
X93192968Y-100070724D01*
X92889623Y-100216807D01*
X92604535Y-100395940D01*
X92341296Y-100605866D01*
X92103216Y-100843946D01*
X91893290Y-101107185D01*
X91714157Y-101392273D01*
X91568074Y-101695618D01*
X91456873Y-102013411D01*
X91456869Y-102013423D01*
X91381948Y-102341675D01*
X91381946Y-102341687D01*
X91344250Y-102676248D01*
X60555201Y-102676248D01*
X60466240Y-102560312D01*
X59623501Y-103403051D01*
X59533495Y-103268347D01*
X59404653Y-103139505D01*
X59269948Y-103049497D01*
X60112686Y-102206758D01*
X59984196Y-102108163D01*
X59745802Y-101970527D01*
X59745787Y-101970520D01*
X59491471Y-101865180D01*
X59225565Y-101793930D01*
X58952642Y-101758000D01*
X58677358Y-101758000D01*
X58404434Y-101793930D01*
X58138528Y-101865180D01*
X57884212Y-101970520D01*
X57884197Y-101970527D01*
X57645799Y-102108166D01*
X57517312Y-102206757D01*
X57517312Y-102206758D01*
X58360051Y-103049497D01*
X58225347Y-103139505D01*
X58096505Y-103268347D01*
X58006497Y-103403051D01*
X57163758Y-102560312D01*
X57163757Y-102560312D01*
X57065166Y-102688799D01*
X56927527Y-102927197D01*
X56927520Y-102927212D01*
X56822180Y-103181528D01*
X56750930Y-103447434D01*
X56715000Y-103720358D01*
X55045000Y-103720358D01*
X55009069Y-103447434D01*
X54937819Y-103181528D01*
X54832479Y-102927212D01*
X54832472Y-102927197D01*
X54694836Y-102688804D01*
X54596240Y-102560312D01*
X53753501Y-103403051D01*
X53663495Y-103268347D01*
X53534653Y-103139505D01*
X53399948Y-103049497D01*
X54242686Y-102206758D01*
X54114196Y-102108163D01*
X53875802Y-101970527D01*
X53875787Y-101970520D01*
X53621471Y-101865180D01*
X53355565Y-101793930D01*
X53082642Y-101758000D01*
X52807358Y-101758000D01*
X52534434Y-101793930D01*
X52268528Y-101865180D01*
X52014212Y-101970520D01*
X52014197Y-101970527D01*
X51775799Y-102108166D01*
X51647312Y-102206757D01*
X51647312Y-102206758D01*
X52490051Y-103049497D01*
X52355347Y-103139505D01*
X52226505Y-103268347D01*
X52136497Y-103403051D01*
X51293758Y-102560312D01*
X51293757Y-102560312D01*
X51195166Y-102688799D01*
X51057527Y-102927197D01*
X51057520Y-102927212D01*
X50952180Y-103181528D01*
X50880930Y-103447434D01*
X50845000Y-103720358D01*
X49022500Y-103720358D01*
X49022500Y-97304771D01*
X51141300Y-97304771D01*
X51141300Y-97541228D01*
X51172161Y-97775635D01*
X51233359Y-98004028D01*
X51323837Y-98222461D01*
X51323841Y-98222471D01*
X51442059Y-98427231D01*
X51585995Y-98614812D01*
X51586001Y-98614819D01*
X51753180Y-98781998D01*
X51753187Y-98782004D01*
X51940768Y-98925940D01*
X52145528Y-99044158D01*
X52145529Y-99044158D01*
X52145532Y-99044160D01*
X52363976Y-99134642D01*
X52592361Y-99195838D01*
X52826779Y-99226700D01*
X52826786Y-99226700D01*
X53063214Y-99226700D01*
X53063221Y-99226700D01*
X53297639Y-99195838D01*
X53526024Y-99134642D01*
X53744468Y-99044160D01*
X53949232Y-98925940D01*
X54136814Y-98782003D01*
X54304003Y-98614814D01*
X54447940Y-98427232D01*
X54566160Y-98222468D01*
X54656642Y-98004024D01*
X54717838Y-97775639D01*
X54748700Y-97541221D01*
X54748700Y-97304779D01*
X54748699Y-97304771D01*
X57011300Y-97304771D01*
X57011300Y-97541228D01*
X57042161Y-97775635D01*
X57103359Y-98004028D01*
X57193837Y-98222461D01*
X57193841Y-98222471D01*
X57312059Y-98427231D01*
X57455995Y-98614812D01*
X57456001Y-98614819D01*
X57623180Y-98781998D01*
X57623187Y-98782004D01*
X57810768Y-98925940D01*
X58015528Y-99044158D01*
X58015529Y-99044158D01*
X58015532Y-99044160D01*
X58233976Y-99134642D01*
X58462361Y-99195838D01*
X58696779Y-99226700D01*
X58696786Y-99226700D01*
X58933214Y-99226700D01*
X58933221Y-99226700D01*
X59167639Y-99195838D01*
X59396024Y-99134642D01*
X59614468Y-99044160D01*
X59819232Y-98925940D01*
X60006814Y-98782003D01*
X60174003Y-98614814D01*
X60317940Y-98427232D01*
X60436160Y-98222468D01*
X60526642Y-98004024D01*
X60587838Y-97775639D01*
X60618700Y-97541221D01*
X60618700Y-97304779D01*
X60587838Y-97070361D01*
X60526642Y-96841976D01*
X60436160Y-96623532D01*
X60317940Y-96418768D01*
X60176530Y-96234479D01*
X60174004Y-96231187D01*
X60173998Y-96231180D01*
X60006819Y-96064001D01*
X60006812Y-96063995D01*
X59819231Y-95920059D01*
X59640265Y-95816734D01*
X59614470Y-95801841D01*
X59614461Y-95801837D01*
X59402918Y-95714213D01*
X64058300Y-95714213D01*
X64058300Y-95954186D01*
X64095837Y-96191188D01*
X64144131Y-96339819D01*
X64169990Y-96419405D01*
X64278931Y-96633212D01*
X64419977Y-96827345D01*
X64589655Y-96997023D01*
X64783788Y-97138069D01*
X64997595Y-97247010D01*
X65170889Y-97303316D01*
X65225811Y-97321162D01*
X65462814Y-97358700D01*
X65462819Y-97358700D01*
X65702786Y-97358700D01*
X65939788Y-97321162D01*
X66168005Y-97247010D01*
X66381812Y-97138069D01*
X66575945Y-96997023D01*
X66745623Y-96827345D01*
X66886669Y-96633212D01*
X66995610Y-96419405D01*
X67069762Y-96191188D01*
X67084708Y-96096825D01*
X67107300Y-95954186D01*
X67107300Y-95714213D01*
X67069762Y-95477211D01*
X67051916Y-95422289D01*
X66995610Y-95248995D01*
X66886669Y-95035188D01*
X66745623Y-94841055D01*
X66575945Y-94671377D01*
X66381812Y-94530331D01*
X66168005Y-94421390D01*
X66108818Y-94402159D01*
X65939788Y-94347237D01*
X65702786Y-94309700D01*
X65702781Y-94309700D01*
X65462819Y-94309700D01*
X65462814Y-94309700D01*
X65225811Y-94347237D01*
X64997592Y-94421391D01*
X64783787Y-94530331D01*
X64690556Y-94598068D01*
X64589655Y-94671377D01*
X64589653Y-94671379D01*
X64589652Y-94671379D01*
X64419979Y-94841052D01*
X64419979Y-94841053D01*
X64419977Y-94841055D01*
X64359402Y-94924428D01*
X64278931Y-95035187D01*
X64169991Y-95248992D01*
X64095837Y-95477211D01*
X64058300Y-95714213D01*
X59402918Y-95714213D01*
X59396028Y-95711359D01*
X59167635Y-95650161D01*
X58933228Y-95619300D01*
X58933221Y-95619300D01*
X58696779Y-95619300D01*
X58696771Y-95619300D01*
X58462364Y-95650161D01*
X58233971Y-95711359D01*
X58015538Y-95801837D01*
X58015528Y-95801841D01*
X57810768Y-95920059D01*
X57623187Y-96063995D01*
X57623180Y-96064001D01*
X57456001Y-96231180D01*
X57455995Y-96231187D01*
X57312059Y-96418768D01*
X57193841Y-96623528D01*
X57193837Y-96623538D01*
X57103359Y-96841971D01*
X57042161Y-97070364D01*
X57011300Y-97304771D01*
X54748699Y-97304771D01*
X54717838Y-97070361D01*
X54656642Y-96841976D01*
X54566160Y-96623532D01*
X54447940Y-96418768D01*
X54306530Y-96234479D01*
X54304004Y-96231187D01*
X54303998Y-96231180D01*
X54136819Y-96064001D01*
X54136812Y-96063995D01*
X53949231Y-95920059D01*
X53744471Y-95801841D01*
X53744461Y-95801837D01*
X53526028Y-95711359D01*
X53297635Y-95650161D01*
X53063228Y-95619300D01*
X53063221Y-95619300D01*
X52826779Y-95619300D01*
X52826771Y-95619300D01*
X52592364Y-95650161D01*
X52363971Y-95711359D01*
X52145538Y-95801837D01*
X52145528Y-95801841D01*
X51940768Y-95920059D01*
X51753187Y-96063995D01*
X51753180Y-96064001D01*
X51586001Y-96231180D01*
X51585995Y-96231187D01*
X51442059Y-96418768D01*
X51323841Y-96623528D01*
X51323837Y-96623538D01*
X51233359Y-96841971D01*
X51172161Y-97070364D01*
X51141300Y-97304771D01*
X49022500Y-97304771D01*
X49022500Y-91434771D01*
X51141300Y-91434771D01*
X51141300Y-91671228D01*
X51172161Y-91905635D01*
X51233359Y-92134028D01*
X51323837Y-92352461D01*
X51323841Y-92352471D01*
X51442059Y-92557231D01*
X51585995Y-92744812D01*
X51586001Y-92744819D01*
X51753180Y-92911998D01*
X51753187Y-92912004D01*
X51940768Y-93055940D01*
X52145528Y-93174158D01*
X52145529Y-93174158D01*
X52145532Y-93174160D01*
X52363976Y-93264642D01*
X52592361Y-93325838D01*
X52826779Y-93356700D01*
X52826786Y-93356700D01*
X53063214Y-93356700D01*
X53063221Y-93356700D01*
X53297639Y-93325838D01*
X53526024Y-93264642D01*
X53744468Y-93174160D01*
X53949232Y-93055940D01*
X54136814Y-92912003D01*
X54304003Y-92744814D01*
X54447940Y-92557232D01*
X54566160Y-92352468D01*
X54656642Y-92134024D01*
X54717838Y-91905639D01*
X54748700Y-91671221D01*
X54748700Y-91434779D01*
X54748699Y-91434771D01*
X57011300Y-91434771D01*
X57011300Y-91671228D01*
X57042161Y-91905635D01*
X57103359Y-92134028D01*
X57193837Y-92352461D01*
X57193841Y-92352471D01*
X57312059Y-92557231D01*
X57455995Y-92744812D01*
X57456001Y-92744819D01*
X57623180Y-92911998D01*
X57623187Y-92912004D01*
X57810768Y-93055940D01*
X58015528Y-93174158D01*
X58015529Y-93174158D01*
X58015532Y-93174160D01*
X58233976Y-93264642D01*
X58462361Y-93325838D01*
X58696779Y-93356700D01*
X58696786Y-93356700D01*
X58933214Y-93356700D01*
X58933221Y-93356700D01*
X59167639Y-93325838D01*
X59396024Y-93264642D01*
X59614340Y-93174213D01*
X81838300Y-93174213D01*
X81838300Y-93414186D01*
X81875837Y-93651188D01*
X81910331Y-93757347D01*
X81949990Y-93879405D01*
X82058931Y-94093212D01*
X82199977Y-94287345D01*
X82369655Y-94457023D01*
X82563788Y-94598069D01*
X82777595Y-94707010D01*
X82933188Y-94757565D01*
X83005811Y-94781162D01*
X83242814Y-94818700D01*
X83242819Y-94818700D01*
X83482786Y-94818700D01*
X83719788Y-94781162D01*
X83948005Y-94707010D01*
X84161812Y-94598069D01*
X84355945Y-94457023D01*
X84525623Y-94287345D01*
X84582284Y-94209358D01*
X99359000Y-94209358D01*
X99359000Y-94484641D01*
X99394930Y-94757565D01*
X99466180Y-95023471D01*
X99571520Y-95277787D01*
X99571527Y-95277802D01*
X99709163Y-95516196D01*
X99807758Y-95644686D01*
X100650497Y-94801947D01*
X100740505Y-94936653D01*
X100869347Y-95065495D01*
X101004051Y-95155501D01*
X100161312Y-95998240D01*
X100289804Y-96096836D01*
X100528197Y-96234472D01*
X100528212Y-96234479D01*
X100782528Y-96339819D01*
X101048434Y-96411069D01*
X101321358Y-96447000D01*
X101596642Y-96447000D01*
X101869565Y-96411069D01*
X102135471Y-96339819D01*
X102389787Y-96234479D01*
X102389802Y-96234472D01*
X102628194Y-96096836D01*
X102628211Y-96096825D01*
X102756686Y-95998241D01*
X102756686Y-95998239D01*
X101913949Y-95155501D01*
X102048653Y-95065495D01*
X102177495Y-94936653D01*
X102267501Y-94801948D01*
X103110239Y-95644686D01*
X103110241Y-95644686D01*
X103208825Y-95516211D01*
X103208836Y-95516194D01*
X103346472Y-95277802D01*
X103346479Y-95277787D01*
X103451819Y-95023471D01*
X103523069Y-94757565D01*
X103559000Y-94484641D01*
X103559000Y-94209358D01*
X105229000Y-94209358D01*
X105229000Y-94484641D01*
X105264930Y-94757565D01*
X105336180Y-95023471D01*
X105441520Y-95277787D01*
X105441527Y-95277802D01*
X105579163Y-95516196D01*
X105677758Y-95644686D01*
X106520497Y-94801947D01*
X106610505Y-94936653D01*
X106739347Y-95065495D01*
X106874051Y-95155501D01*
X106031312Y-95998240D01*
X106159804Y-96096836D01*
X106398197Y-96234472D01*
X106398212Y-96234479D01*
X106652528Y-96339819D01*
X106918434Y-96411069D01*
X107191358Y-96447000D01*
X107466642Y-96447000D01*
X107739565Y-96411069D01*
X108005471Y-96339819D01*
X108259787Y-96234479D01*
X108259802Y-96234472D01*
X108498194Y-96096836D01*
X108498211Y-96096825D01*
X108626686Y-95998241D01*
X108626686Y-95998239D01*
X107783949Y-95155501D01*
X107918653Y-95065495D01*
X108047495Y-94936653D01*
X108137501Y-94801948D01*
X108980239Y-95644686D01*
X108980241Y-95644686D01*
X109078825Y-95516211D01*
X109078836Y-95516194D01*
X109216472Y-95277802D01*
X109216479Y-95277787D01*
X109321819Y-95023471D01*
X109393069Y-94757565D01*
X109429000Y-94484641D01*
X109429000Y-94209358D01*
X109393069Y-93936434D01*
X109321819Y-93670528D01*
X109216479Y-93416212D01*
X109216472Y-93416197D01*
X109078836Y-93177804D01*
X108980240Y-93049312D01*
X108137501Y-93892051D01*
X108047495Y-93757347D01*
X107918653Y-93628505D01*
X107783948Y-93538497D01*
X108626686Y-92695758D01*
X108498196Y-92597163D01*
X108259802Y-92459527D01*
X108259787Y-92459520D01*
X108005471Y-92354180D01*
X107739565Y-92282930D01*
X107466642Y-92247000D01*
X107191358Y-92247000D01*
X106918434Y-92282930D01*
X106652528Y-92354180D01*
X106398212Y-92459520D01*
X106398197Y-92459527D01*
X106159799Y-92597166D01*
X106031312Y-92695757D01*
X106031312Y-92695758D01*
X106874051Y-93538497D01*
X106739347Y-93628505D01*
X106610505Y-93757347D01*
X106520497Y-93892051D01*
X105677758Y-93049312D01*
X105677757Y-93049312D01*
X105579166Y-93177799D01*
X105441527Y-93416197D01*
X105441520Y-93416212D01*
X105336180Y-93670528D01*
X105264930Y-93936434D01*
X105229000Y-94209358D01*
X103559000Y-94209358D01*
X103523069Y-93936434D01*
X103451819Y-93670528D01*
X103346479Y-93416212D01*
X103346472Y-93416197D01*
X103208836Y-93177804D01*
X103110240Y-93049312D01*
X102267501Y-93892051D01*
X102177495Y-93757347D01*
X102048653Y-93628505D01*
X101913948Y-93538497D01*
X102756686Y-92695758D01*
X102628196Y-92597163D01*
X102389802Y-92459527D01*
X102389787Y-92459520D01*
X102135471Y-92354180D01*
X101869565Y-92282930D01*
X101596642Y-92247000D01*
X101321358Y-92247000D01*
X101048434Y-92282930D01*
X100782528Y-92354180D01*
X100528212Y-92459520D01*
X100528197Y-92459527D01*
X100289799Y-92597166D01*
X100161312Y-92695757D01*
X100161312Y-92695758D01*
X101004051Y-93538497D01*
X100869347Y-93628505D01*
X100740505Y-93757347D01*
X100650497Y-93892051D01*
X99807758Y-93049312D01*
X99807757Y-93049312D01*
X99709166Y-93177799D01*
X99571527Y-93416197D01*
X99571520Y-93416212D01*
X99466180Y-93670528D01*
X99394930Y-93936434D01*
X99359000Y-94209358D01*
X84582284Y-94209358D01*
X84666669Y-94093212D01*
X84775610Y-93879405D01*
X84849762Y-93651188D01*
X84886062Y-93422000D01*
X84887300Y-93414186D01*
X84887300Y-93174213D01*
X84849762Y-92937211D01*
X84831916Y-92882289D01*
X84775610Y-92708995D01*
X84666669Y-92495188D01*
X84525623Y-92301055D01*
X84355945Y-92131377D01*
X84161812Y-91990331D01*
X83948005Y-91881390D01*
X83888818Y-91862159D01*
X83719788Y-91807237D01*
X83482786Y-91769700D01*
X83482781Y-91769700D01*
X83242819Y-91769700D01*
X83242814Y-91769700D01*
X83005811Y-91807237D01*
X82777592Y-91881391D01*
X82563787Y-91990331D01*
X82453028Y-92070802D01*
X82369655Y-92131377D01*
X82369653Y-92131379D01*
X82369652Y-92131379D01*
X82199979Y-92301052D01*
X82199979Y-92301053D01*
X82199977Y-92301055D01*
X82140198Y-92383333D01*
X82058931Y-92495187D01*
X81949991Y-92708992D01*
X81875837Y-92937211D01*
X81838300Y-93174213D01*
X59614340Y-93174213D01*
X59614468Y-93174160D01*
X59819232Y-93055940D01*
X60006814Y-92912003D01*
X60174003Y-92744814D01*
X60317940Y-92557232D01*
X60436160Y-92352468D01*
X60526642Y-92134024D01*
X60587838Y-91905639D01*
X60618700Y-91671221D01*
X60618700Y-91434779D01*
X60587838Y-91200361D01*
X60526642Y-90971976D01*
X60436160Y-90753532D01*
X60317940Y-90548768D01*
X60174003Y-90361186D01*
X60173998Y-90361180D01*
X60006819Y-90194001D01*
X60006812Y-90193995D01*
X59846717Y-90071150D01*
X59846716Y-90071149D01*
X59819232Y-90050059D01*
X59691387Y-89976248D01*
X91344250Y-89976248D01*
X91344250Y-90312951D01*
X91381946Y-90647512D01*
X91381948Y-90647524D01*
X91456869Y-90975776D01*
X91456873Y-90975788D01*
X91568074Y-91293581D01*
X91714157Y-91596926D01*
X91714159Y-91596929D01*
X91893291Y-91882016D01*
X91912127Y-91905635D01*
X92094264Y-92134028D01*
X92103217Y-92145254D01*
X92341296Y-92383333D01*
X92604534Y-92593259D01*
X92889621Y-92772391D01*
X93192972Y-92918477D01*
X93431654Y-93001995D01*
X93510761Y-93029676D01*
X93510773Y-93029680D01*
X93839025Y-93104602D01*
X94173599Y-93142299D01*
X94173600Y-93142300D01*
X94173603Y-93142300D01*
X94510300Y-93142300D01*
X94510300Y-93142299D01*
X94844875Y-93104602D01*
X95173127Y-93029680D01*
X95490928Y-92918477D01*
X95794279Y-92772391D01*
X96079366Y-92593259D01*
X96342604Y-92383333D01*
X96580683Y-92145254D01*
X96790609Y-91882016D01*
X96969741Y-91596929D01*
X97115827Y-91293578D01*
X97227030Y-90975777D01*
X97301952Y-90647525D01*
X97339650Y-90312947D01*
X97339650Y-89976253D01*
X97301952Y-89641675D01*
X97227030Y-89313423D01*
X97115827Y-88995622D01*
X97018436Y-88793388D01*
X96969742Y-88692273D01*
X96843047Y-88490639D01*
X96790609Y-88407184D01*
X96580683Y-88143946D01*
X96456508Y-88019771D01*
X99768300Y-88019771D01*
X99768300Y-88256228D01*
X99799161Y-88490635D01*
X99860359Y-88719028D01*
X99950837Y-88937461D01*
X99950841Y-88937471D01*
X100069059Y-89142231D01*
X100212995Y-89329812D01*
X100213001Y-89329819D01*
X100380180Y-89496998D01*
X100380187Y-89497004D01*
X100567768Y-89640940D01*
X100772528Y-89759158D01*
X100772529Y-89759158D01*
X100772532Y-89759160D01*
X100990976Y-89849642D01*
X101219361Y-89910838D01*
X101453779Y-89941700D01*
X101453786Y-89941700D01*
X101690214Y-89941700D01*
X101690221Y-89941700D01*
X101924639Y-89910838D01*
X102153024Y-89849642D01*
X102371468Y-89759160D01*
X102576232Y-89640940D01*
X102763814Y-89497003D01*
X102931003Y-89329814D01*
X103074940Y-89142232D01*
X103193160Y-88937468D01*
X103283642Y-88719024D01*
X103344838Y-88490639D01*
X103375700Y-88256221D01*
X103375700Y-88019779D01*
X103375699Y-88019771D01*
X105638300Y-88019771D01*
X105638300Y-88256228D01*
X105669161Y-88490635D01*
X105730359Y-88719028D01*
X105820837Y-88937461D01*
X105820841Y-88937471D01*
X105939059Y-89142231D01*
X106082995Y-89329812D01*
X106083001Y-89329819D01*
X106250180Y-89496998D01*
X106250187Y-89497004D01*
X106437768Y-89640940D01*
X106642528Y-89759158D01*
X106642529Y-89759158D01*
X106642532Y-89759160D01*
X106860976Y-89849642D01*
X107089361Y-89910838D01*
X107323779Y-89941700D01*
X107323786Y-89941700D01*
X107560214Y-89941700D01*
X107560221Y-89941700D01*
X107794639Y-89910838D01*
X108023024Y-89849642D01*
X108241468Y-89759160D01*
X108446232Y-89640940D01*
X108633814Y-89497003D01*
X108801003Y-89329814D01*
X108944940Y-89142232D01*
X109063160Y-88937468D01*
X109153642Y-88719024D01*
X109214838Y-88490639D01*
X109245700Y-88256221D01*
X109245700Y-88019779D01*
X109214838Y-87785361D01*
X109153642Y-87556976D01*
X109063160Y-87338532D01*
X109017544Y-87259523D01*
X108944940Y-87133768D01*
X108801004Y-86946187D01*
X108800998Y-86946180D01*
X108633819Y-86779001D01*
X108633812Y-86778995D01*
X108446231Y-86635059D01*
X108241471Y-86516841D01*
X108241461Y-86516837D01*
X108023028Y-86426359D01*
X107794635Y-86365161D01*
X107560228Y-86334300D01*
X107560221Y-86334300D01*
X107323779Y-86334300D01*
X107323771Y-86334300D01*
X107089364Y-86365161D01*
X106860971Y-86426359D01*
X106642538Y-86516837D01*
X106642528Y-86516841D01*
X106437768Y-86635059D01*
X106250187Y-86778995D01*
X106250180Y-86779001D01*
X106083001Y-86946180D01*
X106082995Y-86946187D01*
X105939059Y-87133768D01*
X105820841Y-87338528D01*
X105820837Y-87338538D01*
X105730359Y-87556971D01*
X105669161Y-87785364D01*
X105638300Y-88019771D01*
X103375699Y-88019771D01*
X103344838Y-87785361D01*
X103283642Y-87556976D01*
X103193160Y-87338532D01*
X103147544Y-87259523D01*
X103074940Y-87133768D01*
X102931004Y-86946187D01*
X102930998Y-86946180D01*
X102763819Y-86779001D01*
X102763812Y-86778995D01*
X102576231Y-86635059D01*
X102371471Y-86516841D01*
X102371461Y-86516837D01*
X102153028Y-86426359D01*
X101924635Y-86365161D01*
X101690228Y-86334300D01*
X101690221Y-86334300D01*
X101453779Y-86334300D01*
X101453771Y-86334300D01*
X101219364Y-86365161D01*
X100990971Y-86426359D01*
X100772538Y-86516837D01*
X100772528Y-86516841D01*
X100567768Y-86635059D01*
X100380187Y-86778995D01*
X100380180Y-86779001D01*
X100213001Y-86946180D01*
X100212995Y-86946187D01*
X100069059Y-87133768D01*
X99950841Y-87338528D01*
X99950837Y-87338538D01*
X99860359Y-87556971D01*
X99799161Y-87785364D01*
X99768300Y-88019771D01*
X96456508Y-88019771D01*
X96342604Y-87905867D01*
X96079366Y-87695941D01*
X95858204Y-87556976D01*
X95794276Y-87516807D01*
X95490931Y-87370724D01*
X95173138Y-87259523D01*
X95173126Y-87259519D01*
X94906659Y-87198700D01*
X94844875Y-87184598D01*
X94844871Y-87184597D01*
X94844862Y-87184596D01*
X94510301Y-87146900D01*
X94510297Y-87146900D01*
X94173603Y-87146900D01*
X94173598Y-87146900D01*
X93839037Y-87184596D01*
X93839025Y-87184598D01*
X93510773Y-87259519D01*
X93510761Y-87259523D01*
X93192968Y-87370724D01*
X92889623Y-87516807D01*
X92604535Y-87695940D01*
X92341296Y-87905866D01*
X92103216Y-88143946D01*
X91893290Y-88407185D01*
X91714157Y-88692273D01*
X91568074Y-88995618D01*
X91456873Y-89313411D01*
X91456869Y-89313423D01*
X91381948Y-89641675D01*
X91381946Y-89641687D01*
X91344250Y-89976248D01*
X59691387Y-89976248D01*
X59614471Y-89931841D01*
X59614461Y-89931837D01*
X59396028Y-89841359D01*
X59167635Y-89780161D01*
X58933228Y-89749300D01*
X58933221Y-89749300D01*
X58696779Y-89749300D01*
X58696771Y-89749300D01*
X58462364Y-89780161D01*
X58233971Y-89841359D01*
X58015538Y-89931837D01*
X58015528Y-89931841D01*
X57810768Y-90050059D01*
X57623187Y-90193995D01*
X57623180Y-90194001D01*
X57456001Y-90361180D01*
X57455995Y-90361187D01*
X57312059Y-90548768D01*
X57193841Y-90753528D01*
X57193837Y-90753538D01*
X57103359Y-90971971D01*
X57042161Y-91200364D01*
X57011300Y-91434771D01*
X54748699Y-91434771D01*
X54717838Y-91200361D01*
X54656642Y-90971976D01*
X54566160Y-90753532D01*
X54447940Y-90548768D01*
X54304003Y-90361186D01*
X54303998Y-90361180D01*
X54136819Y-90194001D01*
X54136812Y-90193995D01*
X53949231Y-90050059D01*
X53744471Y-89931841D01*
X53744461Y-89931837D01*
X53526028Y-89841359D01*
X53297635Y-89780161D01*
X53063228Y-89749300D01*
X53063221Y-89749300D01*
X52826779Y-89749300D01*
X52826771Y-89749300D01*
X52592364Y-89780161D01*
X52363971Y-89841359D01*
X52145538Y-89931837D01*
X52145528Y-89931841D01*
X51940768Y-90050059D01*
X51753187Y-90193995D01*
X51753180Y-90194001D01*
X51586001Y-90361180D01*
X51585995Y-90361187D01*
X51442059Y-90548768D01*
X51323841Y-90753528D01*
X51323837Y-90753538D01*
X51233359Y-90971971D01*
X51172161Y-91200364D01*
X51141300Y-91434771D01*
X49022500Y-91434771D01*
X49022500Y-85554213D01*
X81838300Y-85554213D01*
X81838300Y-85794186D01*
X81875837Y-86031188D01*
X81930759Y-86200218D01*
X81949990Y-86259405D01*
X82058931Y-86473212D01*
X82199977Y-86667345D01*
X82369655Y-86837023D01*
X82563788Y-86978069D01*
X82777595Y-87087010D01*
X82921502Y-87133768D01*
X83005811Y-87161162D01*
X83242814Y-87198700D01*
X83242819Y-87198700D01*
X83482786Y-87198700D01*
X83719788Y-87161162D01*
X83948005Y-87087010D01*
X84161812Y-86978069D01*
X84355945Y-86837023D01*
X84525623Y-86667345D01*
X84666669Y-86473212D01*
X84775610Y-86259405D01*
X84849762Y-86031188D01*
X84887300Y-85794186D01*
X84887300Y-85554213D01*
X84849762Y-85317211D01*
X84831916Y-85262289D01*
X84775610Y-85088995D01*
X84666669Y-84875188D01*
X84525623Y-84681055D01*
X84355945Y-84511377D01*
X84161812Y-84370331D01*
X83948005Y-84261390D01*
X83888818Y-84242159D01*
X83719788Y-84187237D01*
X83482786Y-84149700D01*
X83482781Y-84149700D01*
X83242819Y-84149700D01*
X83242814Y-84149700D01*
X83005811Y-84187237D01*
X82777592Y-84261391D01*
X82563787Y-84370331D01*
X82466258Y-84441191D01*
X82369655Y-84511377D01*
X82369653Y-84511379D01*
X82369652Y-84511379D01*
X82199979Y-84681052D01*
X82199979Y-84681053D01*
X82199977Y-84681055D01*
X82187320Y-84698476D01*
X82058931Y-84875187D01*
X81949991Y-85088992D01*
X81875837Y-85317211D01*
X81838300Y-85554213D01*
X49022500Y-85554213D01*
X49022500Y-81645048D01*
X91344250Y-81645048D01*
X91344250Y-81981751D01*
X91381946Y-82316312D01*
X91381948Y-82316324D01*
X91456869Y-82644576D01*
X91456873Y-82644588D01*
X91568074Y-82962381D01*
X91714157Y-83265726D01*
X91714159Y-83265729D01*
X91893291Y-83550816D01*
X92103217Y-83814054D01*
X92341296Y-84052133D01*
X92604534Y-84262059D01*
X92889621Y-84441191D01*
X93192972Y-84587277D01*
X93431654Y-84670795D01*
X93510761Y-84698476D01*
X93510773Y-84698480D01*
X93839025Y-84773402D01*
X94173599Y-84811099D01*
X94173600Y-84811100D01*
X94173603Y-84811100D01*
X94510300Y-84811100D01*
X94510300Y-84811099D01*
X94844875Y-84773402D01*
X95173127Y-84698480D01*
X95490928Y-84587277D01*
X95794279Y-84441191D01*
X96079366Y-84262059D01*
X96342604Y-84052133D01*
X96580683Y-83814054D01*
X96790609Y-83550816D01*
X96969741Y-83265729D01*
X97115827Y-82962378D01*
X97227030Y-82644577D01*
X97301952Y-82316325D01*
X97301953Y-82316313D01*
X97301954Y-82316310D01*
X97320718Y-82149771D01*
X99768300Y-82149771D01*
X99768300Y-82386228D01*
X99799161Y-82620635D01*
X99860359Y-82849028D01*
X99950837Y-83067461D01*
X99950841Y-83067471D01*
X100069059Y-83272231D01*
X100212995Y-83459812D01*
X100213001Y-83459819D01*
X100380180Y-83626998D01*
X100380187Y-83627004D01*
X100567768Y-83770940D01*
X100772528Y-83889158D01*
X100772529Y-83889158D01*
X100772532Y-83889160D01*
X100990976Y-83979642D01*
X101219361Y-84040838D01*
X101453779Y-84071700D01*
X101453786Y-84071700D01*
X101690214Y-84071700D01*
X101690221Y-84071700D01*
X101924639Y-84040838D01*
X102153024Y-83979642D01*
X102371468Y-83889160D01*
X102576232Y-83770940D01*
X102763814Y-83627003D01*
X102931003Y-83459814D01*
X103074940Y-83272232D01*
X103193160Y-83067468D01*
X103283642Y-82849024D01*
X103344838Y-82620639D01*
X103375700Y-82386221D01*
X103375700Y-82149779D01*
X103375699Y-82149771D01*
X105638300Y-82149771D01*
X105638300Y-82386228D01*
X105669161Y-82620635D01*
X105730359Y-82849028D01*
X105820837Y-83067461D01*
X105820841Y-83067471D01*
X105939059Y-83272231D01*
X106082995Y-83459812D01*
X106083001Y-83459819D01*
X106250180Y-83626998D01*
X106250187Y-83627004D01*
X106437768Y-83770940D01*
X106642528Y-83889158D01*
X106642529Y-83889158D01*
X106642532Y-83889160D01*
X106860976Y-83979642D01*
X107089361Y-84040838D01*
X107323779Y-84071700D01*
X107323786Y-84071700D01*
X107560214Y-84071700D01*
X107560221Y-84071700D01*
X107794639Y-84040838D01*
X108023024Y-83979642D01*
X108241468Y-83889160D01*
X108446232Y-83770940D01*
X108633814Y-83627003D01*
X108801003Y-83459814D01*
X108944940Y-83272232D01*
X109063160Y-83067468D01*
X109153642Y-82849024D01*
X109214838Y-82620639D01*
X109245700Y-82386221D01*
X109245700Y-82149779D01*
X109214838Y-81915361D01*
X109153642Y-81686976D01*
X109063160Y-81468532D01*
X108944940Y-81263768D01*
X108801003Y-81076186D01*
X108800998Y-81076180D01*
X108633819Y-80909001D01*
X108633812Y-80908995D01*
X108446231Y-80765059D01*
X108241471Y-80646841D01*
X108241461Y-80646837D01*
X108023028Y-80556359D01*
X107794635Y-80495161D01*
X107560228Y-80464300D01*
X107560221Y-80464300D01*
X107323779Y-80464300D01*
X107323771Y-80464300D01*
X107089364Y-80495161D01*
X106860971Y-80556359D01*
X106642538Y-80646837D01*
X106642528Y-80646841D01*
X106437768Y-80765059D01*
X106250187Y-80908995D01*
X106250180Y-80909001D01*
X106083001Y-81076180D01*
X106082995Y-81076187D01*
X105939059Y-81263768D01*
X105820841Y-81468528D01*
X105820837Y-81468538D01*
X105730359Y-81686971D01*
X105669161Y-81915364D01*
X105638300Y-82149771D01*
X103375699Y-82149771D01*
X103344838Y-81915361D01*
X103283642Y-81686976D01*
X103193160Y-81468532D01*
X103074940Y-81263768D01*
X102931003Y-81076186D01*
X102930998Y-81076180D01*
X102763819Y-80909001D01*
X102763812Y-80908995D01*
X102576231Y-80765059D01*
X102371471Y-80646841D01*
X102371461Y-80646837D01*
X102153028Y-80556359D01*
X101924635Y-80495161D01*
X101690228Y-80464300D01*
X101690221Y-80464300D01*
X101453779Y-80464300D01*
X101453771Y-80464300D01*
X101219364Y-80495161D01*
X100990971Y-80556359D01*
X100772538Y-80646837D01*
X100772528Y-80646841D01*
X100567768Y-80765059D01*
X100380187Y-80908995D01*
X100380180Y-80909001D01*
X100213001Y-81076180D01*
X100212995Y-81076187D01*
X100069059Y-81263768D01*
X99950841Y-81468528D01*
X99950837Y-81468538D01*
X99860359Y-81686971D01*
X99799161Y-81915364D01*
X99768300Y-82149771D01*
X97320718Y-82149771D01*
X97322739Y-82131837D01*
X97322739Y-82131836D01*
X97323322Y-82126660D01*
X97339650Y-81981747D01*
X97339650Y-81645053D01*
X97301952Y-81310475D01*
X97227030Y-80982223D01*
X97115827Y-80664422D01*
X96969741Y-80361071D01*
X96790609Y-80075984D01*
X96580683Y-79812746D01*
X96342604Y-79574667D01*
X96079366Y-79364741D01*
X95794279Y-79185609D01*
X95794276Y-79185607D01*
X95490931Y-79039524D01*
X95173138Y-78928323D01*
X95173126Y-78928319D01*
X94919796Y-78870498D01*
X94844875Y-78853398D01*
X94844871Y-78853397D01*
X94844862Y-78853396D01*
X94510301Y-78815700D01*
X94510297Y-78815700D01*
X94173603Y-78815700D01*
X94173598Y-78815700D01*
X93839037Y-78853396D01*
X93839025Y-78853398D01*
X93510773Y-78928319D01*
X93510761Y-78928323D01*
X93192968Y-79039524D01*
X92889623Y-79185607D01*
X92604535Y-79364740D01*
X92341296Y-79574666D01*
X92103216Y-79812746D01*
X91893290Y-80075985D01*
X91714157Y-80361073D01*
X91568074Y-80664418D01*
X91456873Y-80982211D01*
X91456869Y-80982223D01*
X91381948Y-81310475D01*
X91381946Y-81310487D01*
X91344250Y-81645048D01*
X49022500Y-81645048D01*
X49022500Y-77594500D01*
X49042185Y-77527461D01*
X49094989Y-77481706D01*
X49146500Y-77470500D01*
X111381500Y-77470500D01*
X111448539Y-77490185D01*
G37*
%TD.AperFunction*%
%TD*%
M02*
