M48
; DRILL file {KiCad 9.0.6} date 2026-05-10T15:04:12-0700
; FORMAT={-:-/ absolute / inch / decimal}
; #@! TF.CreationDate,2026-05-10T15:04:12-07:00
; #@! TF.GenerationSoftware,Kicad,Pcbnew,9.0.6
; #@! TF.FileFunction,Plated,1,2,PTH
FMAT,2
INCH
; #@! TA.AperFunction,Plated,PTH,ViaDrill
T1C0.0100
; #@! TA.AperFunction,Plated,PTH,ViaDrill
T2C0.0150
; #@! TA.AperFunction,Plated,PTH,ComponentDrill
T3C0.0350
; #@! TA.AperFunction,Plated,PTH,ComponentDrill
T4C0.0394
; #@! TA.AperFunction,Plated,PTH,ComponentDrill
T5C0.0460
; #@! TA.AperFunction,Plated,PTH,ComponentDrill
T6C0.0472
; #@! TA.AperFunction,Plated,PTH,ComponentDrill
T7C0.0512
; #@! TA.AperFunction,Plated,PTH,ComponentDrill
T8C0.0728
; #@! TA.AperFunction,Plated,PTH,ComponentDrill
T9C0.0840
; #@! TA.AperFunction,Plated,PTH,ComponentDrill
T10C0.1024
; #@! TA.AperFunction,Plated,PTH,ComponentDrill
T11C0.1102
; #@! TA.AperFunction,Plated,PTH,ComponentDrill
T12C0.1181
; #@! TA.AperFunction,Plated,PTH,ComponentDrill
T13C0.1260
; #@! TA.AperFunction,Plated,PTH,ComponentDrill
T14C0.1590
%
G90
G05
T1
X2.66Y-5.53
X2.7Y-5.64
X3.18Y-5.6365
X3.24Y-5.54
X3.3643Y-5.4973
X3.42Y-4.66
X3.43Y-4.63
X3.4346Y-5.56
X3.4854Y-5.56
X3.735Y-5.6217
X3.78Y-5.5878
X3.8131Y-5.4761
X3.9Y-5.4761
X3.94Y-4.72
X3.9889Y-4.6711
X4.06Y-4.64
X4.26Y-4.74
X4.28Y-5.36
X4.32Y-4.8284
X4.32Y-4.9074
X4.36Y-5.5
X4.38Y-4.997
X4.4Y-5.1
X4.4Y-5.28
X4.4152Y-5.06
X4.446Y-5.187
X4.5Y-4.983
X4.5167Y-5.1272
X4.52Y-4.74
X4.5738Y-4.9338
X4.62Y-4.977
X4.62Y-5.023
X4.623Y-4.92
X5.44Y-5.0
X5.59Y-5.17
X5.88Y-4.85
X5.88Y-5.55
X6.0981Y-5.1534
X6.1381Y-5.3134
X6.1981Y-5.1934
X6.3781Y-5.3734
X6.5381Y-5.3734
X6.6381Y-5.3734
X6.64Y-5.31
X6.78Y-5.27
T2
X7.08Y-4.53
X7.08Y-4.77
T3
X5.02Y-4.3
X5.02Y-4.8
X5.32Y-4.3
X5.32Y-4.5
X5.32Y-4.8
T4
X2.76Y-5.68
X2.8584Y-5.68
X2.9569Y-5.68
T5
X2.732Y-4.273
X3.132Y-4.273
T6
X6.1997Y-4.9734
X6.1997Y-5.6934
X7.0816Y-4.9734
X7.0816Y-5.6934
T7
X3.471Y-5.2349
X3.6679Y-5.2349
X3.8647Y-5.2349
T8
X2.0844Y-3.6044
X2.0844Y-3.8356
X2.0844Y-4.0889
X2.0844Y-4.32
X2.3156Y-3.6044
X2.3156Y-3.8356
X2.3156Y-4.0889
X2.3156Y-4.32
T9
X2.582Y-3.773
X3.282Y-3.373
X3.282Y-3.673
T10
X2.66Y-4.912
X2.66Y-5.0695
X2.66Y-5.227
X3.0104Y-4.912
X3.0104Y-5.0695
X3.0104Y-5.227
T11
X2.1321Y-4.8631
X2.1321Y-5.2569
X2.3053Y-4.8631
X2.3053Y-5.2569
X3.9877Y-3.3631
X3.9877Y-3.7569
X4.1845Y-3.3631
X4.1845Y-3.7569
T12
X2.2916Y-4.6376
X2.2916Y-5.4824
X4.5389Y-3.1376
X4.5389Y-3.9824
T13
X2.06Y-3.18
X2.06Y-5.76
T14
X3.7142Y-3.221
X3.7142Y-3.549
X3.7142Y-4.049
X3.7142Y-4.377
M30
