%TF.GenerationSoftware,KiCad,Pcbnew,9.0.6*%
%TF.CreationDate,2026-05-19T08:45:07-07:00*%
%TF.ProjectId,Power Electronics Board,506f7765-7220-4456-9c65-6374726f6e69,3.0*%
%TF.SameCoordinates,Original*%
%TF.FileFunction,Legend,Top*%
%TF.FilePolarity,Positive*%
%FSLAX46Y46*%
G04 Gerber Fmt 4.6, Leading zero omitted, Abs format (unit mm)*
G04 Created by KiCad (PCBNEW 9.0.6) date 2026-05-19 08:45:07*
%MOMM*%
%LPD*%
G01*
G04 APERTURE LIST*
%ADD10C,0.152400*%
%ADD11C,0.050000*%
%ADD12C,0.150000*%
%ADD13C,0.120000*%
%ADD14C,0.508000*%
%ADD15C,0.127000*%
%ADD16C,0.200000*%
%ADD17C,0.000000*%
%ADD18C,0.100000*%
G04 APERTURE END LIST*
D10*
X50375883Y-132954358D02*
X50424264Y-132857596D01*
X50424264Y-132857596D02*
X50424264Y-132712453D01*
X50424264Y-132712453D02*
X50375883Y-132567310D01*
X50375883Y-132567310D02*
X50279121Y-132470548D01*
X50279121Y-132470548D02*
X50182359Y-132422167D01*
X50182359Y-132422167D02*
X49988835Y-132373786D01*
X49988835Y-132373786D02*
X49843692Y-132373786D01*
X49843692Y-132373786D02*
X49650168Y-132422167D01*
X49650168Y-132422167D02*
X49553406Y-132470548D01*
X49553406Y-132470548D02*
X49456645Y-132567310D01*
X49456645Y-132567310D02*
X49408264Y-132712453D01*
X49408264Y-132712453D02*
X49408264Y-132809215D01*
X49408264Y-132809215D02*
X49456645Y-132954358D01*
X49456645Y-132954358D02*
X49505025Y-133002739D01*
X49505025Y-133002739D02*
X49843692Y-133002739D01*
X49843692Y-133002739D02*
X49843692Y-132809215D01*
X49408264Y-133438167D02*
X50424264Y-133438167D01*
X50424264Y-133438167D02*
X49408264Y-134018739D01*
X49408264Y-134018739D02*
X50424264Y-134018739D01*
X49408264Y-134502548D02*
X50424264Y-134502548D01*
X50424264Y-134502548D02*
X50424264Y-134744453D01*
X50424264Y-134744453D02*
X50375883Y-134889596D01*
X50375883Y-134889596D02*
X50279121Y-134986358D01*
X50279121Y-134986358D02*
X50182359Y-135034739D01*
X50182359Y-135034739D02*
X49988835Y-135083120D01*
X49988835Y-135083120D02*
X49843692Y-135083120D01*
X49843692Y-135083120D02*
X49650168Y-135034739D01*
X49650168Y-135034739D02*
X49553406Y-134986358D01*
X49553406Y-134986358D02*
X49456645Y-134889596D01*
X49456645Y-134889596D02*
X49408264Y-134744453D01*
X49408264Y-134744453D02*
X49408264Y-134502548D01*
X151251735Y-127564975D02*
X151251735Y-126984403D01*
X152267735Y-127274689D02*
X151251735Y-127274689D01*
X152219355Y-126694118D02*
X152267735Y-126548975D01*
X152267735Y-126548975D02*
X152267735Y-126307070D01*
X152267735Y-126307070D02*
X152219355Y-126210308D01*
X152219355Y-126210308D02*
X152170974Y-126161927D01*
X152170974Y-126161927D02*
X152074212Y-126113546D01*
X152074212Y-126113546D02*
X151977450Y-126113546D01*
X151977450Y-126113546D02*
X151880688Y-126161927D01*
X151880688Y-126161927D02*
X151832307Y-126210308D01*
X151832307Y-126210308D02*
X151783926Y-126307070D01*
X151783926Y-126307070D02*
X151735545Y-126500594D01*
X151735545Y-126500594D02*
X151687164Y-126597356D01*
X151687164Y-126597356D02*
X151638783Y-126645737D01*
X151638783Y-126645737D02*
X151542021Y-126694118D01*
X151542021Y-126694118D02*
X151445259Y-126694118D01*
X151445259Y-126694118D02*
X151348497Y-126645737D01*
X151348497Y-126645737D02*
X151300116Y-126597356D01*
X151300116Y-126597356D02*
X151251735Y-126500594D01*
X151251735Y-126500594D02*
X151251735Y-126258689D01*
X151251735Y-126258689D02*
X151300116Y-126113546D01*
X152267735Y-125678118D02*
X151251735Y-125678118D01*
X151251735Y-125678118D02*
X151977450Y-125339451D01*
X151977450Y-125339451D02*
X151251735Y-125000784D01*
X151251735Y-125000784D02*
X152267735Y-125000784D01*
X152267735Y-124516975D02*
X151251735Y-124516975D01*
X151251735Y-124516975D02*
X151251735Y-124129927D01*
X151251735Y-124129927D02*
X151300116Y-124033165D01*
X151300116Y-124033165D02*
X151348497Y-123984784D01*
X151348497Y-123984784D02*
X151445259Y-123936403D01*
X151445259Y-123936403D02*
X151590402Y-123936403D01*
X151590402Y-123936403D02*
X151687164Y-123984784D01*
X151687164Y-123984784D02*
X151735545Y-124033165D01*
X151735545Y-124033165D02*
X151783926Y-124129927D01*
X151783926Y-124129927D02*
X151783926Y-124516975D01*
X151880688Y-123500975D02*
X151880688Y-122726880D01*
X102982358Y-79418116D02*
X102885596Y-79369735D01*
X102885596Y-79369735D02*
X102740453Y-79369735D01*
X102740453Y-79369735D02*
X102595310Y-79418116D01*
X102595310Y-79418116D02*
X102498548Y-79514878D01*
X102498548Y-79514878D02*
X102450167Y-79611640D01*
X102450167Y-79611640D02*
X102401786Y-79805164D01*
X102401786Y-79805164D02*
X102401786Y-79950307D01*
X102401786Y-79950307D02*
X102450167Y-80143831D01*
X102450167Y-80143831D02*
X102498548Y-80240593D01*
X102498548Y-80240593D02*
X102595310Y-80337355D01*
X102595310Y-80337355D02*
X102740453Y-80385735D01*
X102740453Y-80385735D02*
X102837215Y-80385735D01*
X102837215Y-80385735D02*
X102982358Y-80337355D01*
X102982358Y-80337355D02*
X103030739Y-80288974D01*
X103030739Y-80288974D02*
X103030739Y-79950307D01*
X103030739Y-79950307D02*
X102837215Y-79950307D01*
X103949977Y-80385735D02*
X103466167Y-80385735D01*
X103466167Y-80385735D02*
X103466167Y-79369735D01*
X104143500Y-79369735D02*
X104482167Y-80385735D01*
X104482167Y-80385735D02*
X104820834Y-79369735D01*
X105159500Y-80385735D02*
X105159500Y-79369735D01*
X105159500Y-79369735D02*
X105498167Y-80095450D01*
X105498167Y-80095450D02*
X105836834Y-79369735D01*
X105836834Y-79369735D02*
X105836834Y-80385735D01*
X106272262Y-80337355D02*
X106417405Y-80385735D01*
X106417405Y-80385735D02*
X106659310Y-80385735D01*
X106659310Y-80385735D02*
X106756072Y-80337355D01*
X106756072Y-80337355D02*
X106804453Y-80288974D01*
X106804453Y-80288974D02*
X106852834Y-80192212D01*
X106852834Y-80192212D02*
X106852834Y-80095450D01*
X106852834Y-80095450D02*
X106804453Y-79998688D01*
X106804453Y-79998688D02*
X106756072Y-79950307D01*
X106756072Y-79950307D02*
X106659310Y-79901926D01*
X106659310Y-79901926D02*
X106465786Y-79853545D01*
X106465786Y-79853545D02*
X106369024Y-79805164D01*
X106369024Y-79805164D02*
X106320643Y-79756783D01*
X106320643Y-79756783D02*
X106272262Y-79660021D01*
X106272262Y-79660021D02*
X106272262Y-79563259D01*
X106272262Y-79563259D02*
X106320643Y-79466497D01*
X106320643Y-79466497D02*
X106369024Y-79418116D01*
X106369024Y-79418116D02*
X106465786Y-79369735D01*
X106465786Y-79369735D02*
X106707691Y-79369735D01*
X106707691Y-79369735D02*
X106852834Y-79418116D01*
X172554167Y-119501735D02*
X172554167Y-118485735D01*
X172554167Y-118485735D02*
X172796072Y-118485735D01*
X172796072Y-118485735D02*
X172941215Y-118534116D01*
X172941215Y-118534116D02*
X173037977Y-118630878D01*
X173037977Y-118630878D02*
X173086358Y-118727640D01*
X173086358Y-118727640D02*
X173134739Y-118921164D01*
X173134739Y-118921164D02*
X173134739Y-119066307D01*
X173134739Y-119066307D02*
X173086358Y-119259831D01*
X173086358Y-119259831D02*
X173037977Y-119356593D01*
X173037977Y-119356593D02*
X172941215Y-119453355D01*
X172941215Y-119453355D02*
X172796072Y-119501735D01*
X172796072Y-119501735D02*
X172554167Y-119501735D01*
X173570167Y-119501735D02*
X173570167Y-118824402D01*
X173570167Y-118485735D02*
X173521786Y-118534116D01*
X173521786Y-118534116D02*
X173570167Y-118582497D01*
X173570167Y-118582497D02*
X173618548Y-118534116D01*
X173618548Y-118534116D02*
X173570167Y-118485735D01*
X173570167Y-118485735D02*
X173570167Y-118582497D01*
X174005596Y-119453355D02*
X174102358Y-119501735D01*
X174102358Y-119501735D02*
X174295882Y-119501735D01*
X174295882Y-119501735D02*
X174392644Y-119453355D01*
X174392644Y-119453355D02*
X174441025Y-119356593D01*
X174441025Y-119356593D02*
X174441025Y-119308212D01*
X174441025Y-119308212D02*
X174392644Y-119211450D01*
X174392644Y-119211450D02*
X174295882Y-119163069D01*
X174295882Y-119163069D02*
X174150739Y-119163069D01*
X174150739Y-119163069D02*
X174053977Y-119114688D01*
X174053977Y-119114688D02*
X174005596Y-119017926D01*
X174005596Y-119017926D02*
X174005596Y-118969545D01*
X174005596Y-118969545D02*
X174053977Y-118872783D01*
X174053977Y-118872783D02*
X174150739Y-118824402D01*
X174150739Y-118824402D02*
X174295882Y-118824402D01*
X174295882Y-118824402D02*
X174392644Y-118872783D01*
X175311882Y-119453355D02*
X175215120Y-119501735D01*
X175215120Y-119501735D02*
X175021596Y-119501735D01*
X175021596Y-119501735D02*
X174924834Y-119453355D01*
X174924834Y-119453355D02*
X174876453Y-119404974D01*
X174876453Y-119404974D02*
X174828072Y-119308212D01*
X174828072Y-119308212D02*
X174828072Y-119017926D01*
X174828072Y-119017926D02*
X174876453Y-118921164D01*
X174876453Y-118921164D02*
X174924834Y-118872783D01*
X174924834Y-118872783D02*
X175021596Y-118824402D01*
X175021596Y-118824402D02*
X175215120Y-118824402D01*
X175215120Y-118824402D02*
X175311882Y-118872783D01*
X175747310Y-119501735D02*
X175747310Y-118485735D01*
X176182739Y-119501735D02*
X176182739Y-118969545D01*
X176182739Y-118969545D02*
X176134358Y-118872783D01*
X176134358Y-118872783D02*
X176037596Y-118824402D01*
X176037596Y-118824402D02*
X175892453Y-118824402D01*
X175892453Y-118824402D02*
X175795691Y-118872783D01*
X175795691Y-118872783D02*
X175747310Y-118921164D01*
X177101977Y-119501735D02*
X177101977Y-118969545D01*
X177101977Y-118969545D02*
X177053596Y-118872783D01*
X177053596Y-118872783D02*
X176956834Y-118824402D01*
X176956834Y-118824402D02*
X176763310Y-118824402D01*
X176763310Y-118824402D02*
X176666548Y-118872783D01*
X177101977Y-119453355D02*
X177005215Y-119501735D01*
X177005215Y-119501735D02*
X176763310Y-119501735D01*
X176763310Y-119501735D02*
X176666548Y-119453355D01*
X176666548Y-119453355D02*
X176618167Y-119356593D01*
X176618167Y-119356593D02*
X176618167Y-119259831D01*
X176618167Y-119259831D02*
X176666548Y-119163069D01*
X176666548Y-119163069D02*
X176763310Y-119114688D01*
X176763310Y-119114688D02*
X177005215Y-119114688D01*
X177005215Y-119114688D02*
X177101977Y-119066307D01*
X177585786Y-119501735D02*
X177585786Y-118824402D01*
X177585786Y-119017926D02*
X177634167Y-118921164D01*
X177634167Y-118921164D02*
X177682548Y-118872783D01*
X177682548Y-118872783D02*
X177779310Y-118824402D01*
X177779310Y-118824402D02*
X177876072Y-118824402D01*
X178650167Y-118824402D02*
X178650167Y-119646878D01*
X178650167Y-119646878D02*
X178601786Y-119743640D01*
X178601786Y-119743640D02*
X178553405Y-119792021D01*
X178553405Y-119792021D02*
X178456643Y-119840402D01*
X178456643Y-119840402D02*
X178311500Y-119840402D01*
X178311500Y-119840402D02*
X178214738Y-119792021D01*
X178650167Y-119453355D02*
X178553405Y-119501735D01*
X178553405Y-119501735D02*
X178359881Y-119501735D01*
X178359881Y-119501735D02*
X178263119Y-119453355D01*
X178263119Y-119453355D02*
X178214738Y-119404974D01*
X178214738Y-119404974D02*
X178166357Y-119308212D01*
X178166357Y-119308212D02*
X178166357Y-119017926D01*
X178166357Y-119017926D02*
X178214738Y-118921164D01*
X178214738Y-118921164D02*
X178263119Y-118872783D01*
X178263119Y-118872783D02*
X178359881Y-118824402D01*
X178359881Y-118824402D02*
X178553405Y-118824402D01*
X178553405Y-118824402D02*
X178650167Y-118872783D01*
X179521024Y-119453355D02*
X179424262Y-119501735D01*
X179424262Y-119501735D02*
X179230738Y-119501735D01*
X179230738Y-119501735D02*
X179133976Y-119453355D01*
X179133976Y-119453355D02*
X179085595Y-119356593D01*
X179085595Y-119356593D02*
X179085595Y-118969545D01*
X179085595Y-118969545D02*
X179133976Y-118872783D01*
X179133976Y-118872783D02*
X179230738Y-118824402D01*
X179230738Y-118824402D02*
X179424262Y-118824402D01*
X179424262Y-118824402D02*
X179521024Y-118872783D01*
X179521024Y-118872783D02*
X179569405Y-118969545D01*
X179569405Y-118969545D02*
X179569405Y-119066307D01*
X179569405Y-119066307D02*
X179085595Y-119163069D01*
X180004833Y-119114688D02*
X180778929Y-119114688D01*
X49408264Y-122794358D02*
X49408264Y-122213786D01*
X49408264Y-122504072D02*
X50424264Y-122504072D01*
X50424264Y-122504072D02*
X50279121Y-122407310D01*
X50279121Y-122407310D02*
X50182359Y-122310548D01*
X50182359Y-122310548D02*
X50133978Y-122213786D01*
X50327502Y-123181405D02*
X50375883Y-123229786D01*
X50375883Y-123229786D02*
X50424264Y-123326548D01*
X50424264Y-123326548D02*
X50424264Y-123568453D01*
X50424264Y-123568453D02*
X50375883Y-123665215D01*
X50375883Y-123665215D02*
X50327502Y-123713596D01*
X50327502Y-123713596D02*
X50230740Y-123761977D01*
X50230740Y-123761977D02*
X50133978Y-123761977D01*
X50133978Y-123761977D02*
X49988835Y-123713596D01*
X49988835Y-123713596D02*
X49408264Y-123133024D01*
X49408264Y-123133024D02*
X49408264Y-123761977D01*
X50424264Y-124052262D02*
X49408264Y-124390929D01*
X49408264Y-124390929D02*
X50424264Y-124729596D01*
X103744358Y-92118116D02*
X103647596Y-92069735D01*
X103647596Y-92069735D02*
X103502453Y-92069735D01*
X103502453Y-92069735D02*
X103357310Y-92118116D01*
X103357310Y-92118116D02*
X103260548Y-92214878D01*
X103260548Y-92214878D02*
X103212167Y-92311640D01*
X103212167Y-92311640D02*
X103163786Y-92505164D01*
X103163786Y-92505164D02*
X103163786Y-92650307D01*
X103163786Y-92650307D02*
X103212167Y-92843831D01*
X103212167Y-92843831D02*
X103260548Y-92940593D01*
X103260548Y-92940593D02*
X103357310Y-93037355D01*
X103357310Y-93037355D02*
X103502453Y-93085735D01*
X103502453Y-93085735D02*
X103599215Y-93085735D01*
X103599215Y-93085735D02*
X103744358Y-93037355D01*
X103744358Y-93037355D02*
X103792739Y-92988974D01*
X103792739Y-92988974D02*
X103792739Y-92650307D01*
X103792739Y-92650307D02*
X103599215Y-92650307D01*
X104228167Y-93085735D02*
X104228167Y-92069735D01*
X104228167Y-92069735D02*
X104808739Y-93085735D01*
X104808739Y-93085735D02*
X104808739Y-92069735D01*
X105292548Y-93085735D02*
X105292548Y-92069735D01*
X105292548Y-92069735D02*
X105534453Y-92069735D01*
X105534453Y-92069735D02*
X105679596Y-92118116D01*
X105679596Y-92118116D02*
X105776358Y-92214878D01*
X105776358Y-92214878D02*
X105824739Y-92311640D01*
X105824739Y-92311640D02*
X105873120Y-92505164D01*
X105873120Y-92505164D02*
X105873120Y-92650307D01*
X105873120Y-92650307D02*
X105824739Y-92843831D01*
X105824739Y-92843831D02*
X105776358Y-92940593D01*
X105776358Y-92940593D02*
X105679596Y-93037355D01*
X105679596Y-93037355D02*
X105534453Y-93085735D01*
X105534453Y-93085735D02*
X105292548Y-93085735D01*
X49916264Y-93838358D02*
X49916264Y-93257786D01*
X49916264Y-93548072D02*
X50932264Y-93548072D01*
X50932264Y-93548072D02*
X50787121Y-93451310D01*
X50787121Y-93451310D02*
X50690359Y-93354548D01*
X50690359Y-93354548D02*
X50641978Y-93257786D01*
X50835502Y-94225405D02*
X50883883Y-94273786D01*
X50883883Y-94273786D02*
X50932264Y-94370548D01*
X50932264Y-94370548D02*
X50932264Y-94612453D01*
X50932264Y-94612453D02*
X50883883Y-94709215D01*
X50883883Y-94709215D02*
X50835502Y-94757596D01*
X50835502Y-94757596D02*
X50738740Y-94805977D01*
X50738740Y-94805977D02*
X50641978Y-94805977D01*
X50641978Y-94805977D02*
X50496835Y-94757596D01*
X50496835Y-94757596D02*
X49916264Y-94177024D01*
X49916264Y-94177024D02*
X49916264Y-94805977D01*
X50932264Y-95096262D02*
X49916264Y-95434929D01*
X49916264Y-95434929D02*
X50932264Y-95773596D01*
X50375883Y-106030358D02*
X50424264Y-105933596D01*
X50424264Y-105933596D02*
X50424264Y-105788453D01*
X50424264Y-105788453D02*
X50375883Y-105643310D01*
X50375883Y-105643310D02*
X50279121Y-105546548D01*
X50279121Y-105546548D02*
X50182359Y-105498167D01*
X50182359Y-105498167D02*
X49988835Y-105449786D01*
X49988835Y-105449786D02*
X49843692Y-105449786D01*
X49843692Y-105449786D02*
X49650168Y-105498167D01*
X49650168Y-105498167D02*
X49553406Y-105546548D01*
X49553406Y-105546548D02*
X49456645Y-105643310D01*
X49456645Y-105643310D02*
X49408264Y-105788453D01*
X49408264Y-105788453D02*
X49408264Y-105885215D01*
X49408264Y-105885215D02*
X49456645Y-106030358D01*
X49456645Y-106030358D02*
X49505025Y-106078739D01*
X49505025Y-106078739D02*
X49843692Y-106078739D01*
X49843692Y-106078739D02*
X49843692Y-105885215D01*
X49408264Y-106514167D02*
X50424264Y-106514167D01*
X50424264Y-106514167D02*
X49408264Y-107094739D01*
X49408264Y-107094739D02*
X50424264Y-107094739D01*
X49408264Y-107578548D02*
X50424264Y-107578548D01*
X50424264Y-107578548D02*
X50424264Y-107820453D01*
X50424264Y-107820453D02*
X50375883Y-107965596D01*
X50375883Y-107965596D02*
X50279121Y-108062358D01*
X50279121Y-108062358D02*
X50182359Y-108110739D01*
X50182359Y-108110739D02*
X49988835Y-108159120D01*
X49988835Y-108159120D02*
X49843692Y-108159120D01*
X49843692Y-108159120D02*
X49650168Y-108110739D01*
X49650168Y-108110739D02*
X49553406Y-108062358D01*
X49553406Y-108062358D02*
X49456645Y-107965596D01*
X49456645Y-107965596D02*
X49408264Y-107820453D01*
X49408264Y-107820453D02*
X49408264Y-107578548D01*
X179013024Y-134233735D02*
X179593596Y-134233735D01*
X179303310Y-135249735D02*
X179303310Y-134233735D01*
X179883881Y-135201355D02*
X180029024Y-135249735D01*
X180029024Y-135249735D02*
X180270929Y-135249735D01*
X180270929Y-135249735D02*
X180367691Y-135201355D01*
X180367691Y-135201355D02*
X180416072Y-135152974D01*
X180416072Y-135152974D02*
X180464453Y-135056212D01*
X180464453Y-135056212D02*
X180464453Y-134959450D01*
X180464453Y-134959450D02*
X180416072Y-134862688D01*
X180416072Y-134862688D02*
X180367691Y-134814307D01*
X180367691Y-134814307D02*
X180270929Y-134765926D01*
X180270929Y-134765926D02*
X180077405Y-134717545D01*
X180077405Y-134717545D02*
X179980643Y-134669164D01*
X179980643Y-134669164D02*
X179932262Y-134620783D01*
X179932262Y-134620783D02*
X179883881Y-134524021D01*
X179883881Y-134524021D02*
X179883881Y-134427259D01*
X179883881Y-134427259D02*
X179932262Y-134330497D01*
X179932262Y-134330497D02*
X179980643Y-134282116D01*
X179980643Y-134282116D02*
X180077405Y-134233735D01*
X180077405Y-134233735D02*
X180319310Y-134233735D01*
X180319310Y-134233735D02*
X180464453Y-134282116D01*
X180899881Y-134862688D02*
X181673977Y-134862688D01*
X54154548Y-114675735D02*
X53678358Y-114675735D01*
X53678358Y-114675735D02*
X53678358Y-113659735D01*
X54345025Y-113659735D02*
X54678358Y-114675735D01*
X54678358Y-114675735D02*
X55011691Y-113659735D01*
X56440263Y-114143545D02*
X56583120Y-114191926D01*
X56583120Y-114191926D02*
X56630739Y-114240307D01*
X56630739Y-114240307D02*
X56678358Y-114337069D01*
X56678358Y-114337069D02*
X56678358Y-114482212D01*
X56678358Y-114482212D02*
X56630739Y-114578974D01*
X56630739Y-114578974D02*
X56583120Y-114627355D01*
X56583120Y-114627355D02*
X56487882Y-114675735D01*
X56487882Y-114675735D02*
X56106930Y-114675735D01*
X56106930Y-114675735D02*
X56106930Y-113659735D01*
X56106930Y-113659735D02*
X56440263Y-113659735D01*
X56440263Y-113659735D02*
X56535501Y-113708116D01*
X56535501Y-113708116D02*
X56583120Y-113756497D01*
X56583120Y-113756497D02*
X56630739Y-113853259D01*
X56630739Y-113853259D02*
X56630739Y-113950021D01*
X56630739Y-113950021D02*
X56583120Y-114046783D01*
X56583120Y-114046783D02*
X56535501Y-114095164D01*
X56535501Y-114095164D02*
X56440263Y-114143545D01*
X56440263Y-114143545D02*
X56106930Y-114143545D01*
X57535501Y-114675735D02*
X57535501Y-114143545D01*
X57535501Y-114143545D02*
X57487882Y-114046783D01*
X57487882Y-114046783D02*
X57392644Y-113998402D01*
X57392644Y-113998402D02*
X57202168Y-113998402D01*
X57202168Y-113998402D02*
X57106930Y-114046783D01*
X57535501Y-114627355D02*
X57440263Y-114675735D01*
X57440263Y-114675735D02*
X57202168Y-114675735D01*
X57202168Y-114675735D02*
X57106930Y-114627355D01*
X57106930Y-114627355D02*
X57059311Y-114530593D01*
X57059311Y-114530593D02*
X57059311Y-114433831D01*
X57059311Y-114433831D02*
X57106930Y-114337069D01*
X57106930Y-114337069D02*
X57202168Y-114288688D01*
X57202168Y-114288688D02*
X57440263Y-114288688D01*
X57440263Y-114288688D02*
X57535501Y-114240307D01*
X57868835Y-113998402D02*
X58249787Y-113998402D01*
X58011692Y-113659735D02*
X58011692Y-114530593D01*
X58011692Y-114530593D02*
X58059311Y-114627355D01*
X58059311Y-114627355D02*
X58154549Y-114675735D01*
X58154549Y-114675735D02*
X58249787Y-114675735D01*
X58440264Y-113998402D02*
X58821216Y-113998402D01*
X58583121Y-113659735D02*
X58583121Y-114530593D01*
X58583121Y-114530593D02*
X58630740Y-114627355D01*
X58630740Y-114627355D02*
X58725978Y-114675735D01*
X58725978Y-114675735D02*
X58821216Y-114675735D01*
X148711735Y-127564975D02*
X148711735Y-126984403D01*
X149727735Y-127274689D02*
X148711735Y-127274689D01*
X149679355Y-126694118D02*
X149727735Y-126548975D01*
X149727735Y-126548975D02*
X149727735Y-126307070D01*
X149727735Y-126307070D02*
X149679355Y-126210308D01*
X149679355Y-126210308D02*
X149630974Y-126161927D01*
X149630974Y-126161927D02*
X149534212Y-126113546D01*
X149534212Y-126113546D02*
X149437450Y-126113546D01*
X149437450Y-126113546D02*
X149340688Y-126161927D01*
X149340688Y-126161927D02*
X149292307Y-126210308D01*
X149292307Y-126210308D02*
X149243926Y-126307070D01*
X149243926Y-126307070D02*
X149195545Y-126500594D01*
X149195545Y-126500594D02*
X149147164Y-126597356D01*
X149147164Y-126597356D02*
X149098783Y-126645737D01*
X149098783Y-126645737D02*
X149002021Y-126694118D01*
X149002021Y-126694118D02*
X148905259Y-126694118D01*
X148905259Y-126694118D02*
X148808497Y-126645737D01*
X148808497Y-126645737D02*
X148760116Y-126597356D01*
X148760116Y-126597356D02*
X148711735Y-126500594D01*
X148711735Y-126500594D02*
X148711735Y-126258689D01*
X148711735Y-126258689D02*
X148760116Y-126113546D01*
X149727735Y-125678118D02*
X148711735Y-125678118D01*
X148711735Y-125678118D02*
X149437450Y-125339451D01*
X149437450Y-125339451D02*
X148711735Y-125000784D01*
X148711735Y-125000784D02*
X149727735Y-125000784D01*
X149727735Y-124516975D02*
X148711735Y-124516975D01*
X148711735Y-124516975D02*
X148711735Y-124129927D01*
X148711735Y-124129927D02*
X148760116Y-124033165D01*
X148760116Y-124033165D02*
X148808497Y-123984784D01*
X148808497Y-123984784D02*
X148905259Y-123936403D01*
X148905259Y-123936403D02*
X149050402Y-123936403D01*
X149050402Y-123936403D02*
X149147164Y-123984784D01*
X149147164Y-123984784D02*
X149195545Y-124033165D01*
X149195545Y-124033165D02*
X149243926Y-124129927D01*
X149243926Y-124129927D02*
X149243926Y-124516975D01*
X149340688Y-123500975D02*
X149340688Y-122726880D01*
X149727735Y-123113927D02*
X148953640Y-123113927D01*
X184746167Y-125343735D02*
X184746167Y-124327735D01*
X184746167Y-124327735D02*
X184988072Y-124327735D01*
X184988072Y-124327735D02*
X185133215Y-124376116D01*
X185133215Y-124376116D02*
X185229977Y-124472878D01*
X185229977Y-124472878D02*
X185278358Y-124569640D01*
X185278358Y-124569640D02*
X185326739Y-124763164D01*
X185326739Y-124763164D02*
X185326739Y-124908307D01*
X185326739Y-124908307D02*
X185278358Y-125101831D01*
X185278358Y-125101831D02*
X185229977Y-125198593D01*
X185229977Y-125198593D02*
X185133215Y-125295355D01*
X185133215Y-125295355D02*
X184988072Y-125343735D01*
X184988072Y-125343735D02*
X184746167Y-125343735D01*
X185762167Y-125343735D02*
X185762167Y-124666402D01*
X185762167Y-124327735D02*
X185713786Y-124376116D01*
X185713786Y-124376116D02*
X185762167Y-124424497D01*
X185762167Y-124424497D02*
X185810548Y-124376116D01*
X185810548Y-124376116D02*
X185762167Y-124327735D01*
X185762167Y-124327735D02*
X185762167Y-124424497D01*
X186197596Y-125295355D02*
X186294358Y-125343735D01*
X186294358Y-125343735D02*
X186487882Y-125343735D01*
X186487882Y-125343735D02*
X186584644Y-125295355D01*
X186584644Y-125295355D02*
X186633025Y-125198593D01*
X186633025Y-125198593D02*
X186633025Y-125150212D01*
X186633025Y-125150212D02*
X186584644Y-125053450D01*
X186584644Y-125053450D02*
X186487882Y-125005069D01*
X186487882Y-125005069D02*
X186342739Y-125005069D01*
X186342739Y-125005069D02*
X186245977Y-124956688D01*
X186245977Y-124956688D02*
X186197596Y-124859926D01*
X186197596Y-124859926D02*
X186197596Y-124811545D01*
X186197596Y-124811545D02*
X186245977Y-124714783D01*
X186245977Y-124714783D02*
X186342739Y-124666402D01*
X186342739Y-124666402D02*
X186487882Y-124666402D01*
X186487882Y-124666402D02*
X186584644Y-124714783D01*
X187503882Y-125295355D02*
X187407120Y-125343735D01*
X187407120Y-125343735D02*
X187213596Y-125343735D01*
X187213596Y-125343735D02*
X187116834Y-125295355D01*
X187116834Y-125295355D02*
X187068453Y-125246974D01*
X187068453Y-125246974D02*
X187020072Y-125150212D01*
X187020072Y-125150212D02*
X187020072Y-124859926D01*
X187020072Y-124859926D02*
X187068453Y-124763164D01*
X187068453Y-124763164D02*
X187116834Y-124714783D01*
X187116834Y-124714783D02*
X187213596Y-124666402D01*
X187213596Y-124666402D02*
X187407120Y-124666402D01*
X187407120Y-124666402D02*
X187503882Y-124714783D01*
X187939310Y-125343735D02*
X187939310Y-124327735D01*
X188374739Y-125343735D02*
X188374739Y-124811545D01*
X188374739Y-124811545D02*
X188326358Y-124714783D01*
X188326358Y-124714783D02*
X188229596Y-124666402D01*
X188229596Y-124666402D02*
X188084453Y-124666402D01*
X188084453Y-124666402D02*
X187987691Y-124714783D01*
X187987691Y-124714783D02*
X187939310Y-124763164D01*
X189293977Y-125343735D02*
X189293977Y-124811545D01*
X189293977Y-124811545D02*
X189245596Y-124714783D01*
X189245596Y-124714783D02*
X189148834Y-124666402D01*
X189148834Y-124666402D02*
X188955310Y-124666402D01*
X188955310Y-124666402D02*
X188858548Y-124714783D01*
X189293977Y-125295355D02*
X189197215Y-125343735D01*
X189197215Y-125343735D02*
X188955310Y-125343735D01*
X188955310Y-125343735D02*
X188858548Y-125295355D01*
X188858548Y-125295355D02*
X188810167Y-125198593D01*
X188810167Y-125198593D02*
X188810167Y-125101831D01*
X188810167Y-125101831D02*
X188858548Y-125005069D01*
X188858548Y-125005069D02*
X188955310Y-124956688D01*
X188955310Y-124956688D02*
X189197215Y-124956688D01*
X189197215Y-124956688D02*
X189293977Y-124908307D01*
X189777786Y-125343735D02*
X189777786Y-124666402D01*
X189777786Y-124859926D02*
X189826167Y-124763164D01*
X189826167Y-124763164D02*
X189874548Y-124714783D01*
X189874548Y-124714783D02*
X189971310Y-124666402D01*
X189971310Y-124666402D02*
X190068072Y-124666402D01*
X190842167Y-124666402D02*
X190842167Y-125488878D01*
X190842167Y-125488878D02*
X190793786Y-125585640D01*
X190793786Y-125585640D02*
X190745405Y-125634021D01*
X190745405Y-125634021D02*
X190648643Y-125682402D01*
X190648643Y-125682402D02*
X190503500Y-125682402D01*
X190503500Y-125682402D02*
X190406738Y-125634021D01*
X190842167Y-125295355D02*
X190745405Y-125343735D01*
X190745405Y-125343735D02*
X190551881Y-125343735D01*
X190551881Y-125343735D02*
X190455119Y-125295355D01*
X190455119Y-125295355D02*
X190406738Y-125246974D01*
X190406738Y-125246974D02*
X190358357Y-125150212D01*
X190358357Y-125150212D02*
X190358357Y-124859926D01*
X190358357Y-124859926D02*
X190406738Y-124763164D01*
X190406738Y-124763164D02*
X190455119Y-124714783D01*
X190455119Y-124714783D02*
X190551881Y-124666402D01*
X190551881Y-124666402D02*
X190745405Y-124666402D01*
X190745405Y-124666402D02*
X190842167Y-124714783D01*
X191713024Y-125295355D02*
X191616262Y-125343735D01*
X191616262Y-125343735D02*
X191422738Y-125343735D01*
X191422738Y-125343735D02*
X191325976Y-125295355D01*
X191325976Y-125295355D02*
X191277595Y-125198593D01*
X191277595Y-125198593D02*
X191277595Y-124811545D01*
X191277595Y-124811545D02*
X191325976Y-124714783D01*
X191325976Y-124714783D02*
X191422738Y-124666402D01*
X191422738Y-124666402D02*
X191616262Y-124666402D01*
X191616262Y-124666402D02*
X191713024Y-124714783D01*
X191713024Y-124714783D02*
X191761405Y-124811545D01*
X191761405Y-124811545D02*
X191761405Y-124908307D01*
X191761405Y-124908307D02*
X191277595Y-125005069D01*
X54186358Y-88259735D02*
X54186358Y-87243735D01*
X54186358Y-87243735D02*
X54424453Y-87243735D01*
X54424453Y-87243735D02*
X54567310Y-87292116D01*
X54567310Y-87292116D02*
X54662548Y-87388878D01*
X54662548Y-87388878D02*
X54710167Y-87485640D01*
X54710167Y-87485640D02*
X54757786Y-87679164D01*
X54757786Y-87679164D02*
X54757786Y-87824307D01*
X54757786Y-87824307D02*
X54710167Y-88017831D01*
X54710167Y-88017831D02*
X54662548Y-88114593D01*
X54662548Y-88114593D02*
X54567310Y-88211355D01*
X54567310Y-88211355D02*
X54424453Y-88259735D01*
X54424453Y-88259735D02*
X54186358Y-88259735D01*
X55757786Y-88162974D02*
X55710167Y-88211355D01*
X55710167Y-88211355D02*
X55567310Y-88259735D01*
X55567310Y-88259735D02*
X55472072Y-88259735D01*
X55472072Y-88259735D02*
X55329215Y-88211355D01*
X55329215Y-88211355D02*
X55233977Y-88114593D01*
X55233977Y-88114593D02*
X55186358Y-88017831D01*
X55186358Y-88017831D02*
X55138739Y-87824307D01*
X55138739Y-87824307D02*
X55138739Y-87679164D01*
X55138739Y-87679164D02*
X55186358Y-87485640D01*
X55186358Y-87485640D02*
X55233977Y-87388878D01*
X55233977Y-87388878D02*
X55329215Y-87292116D01*
X55329215Y-87292116D02*
X55472072Y-87243735D01*
X55472072Y-87243735D02*
X55567310Y-87243735D01*
X55567310Y-87243735D02*
X55710167Y-87292116D01*
X55710167Y-87292116D02*
X55757786Y-87340497D01*
X56186358Y-88259735D02*
X56186358Y-87243735D01*
X56186358Y-87243735D02*
X56424453Y-87243735D01*
X56424453Y-87243735D02*
X56567310Y-87292116D01*
X56567310Y-87292116D02*
X56662548Y-87388878D01*
X56662548Y-87388878D02*
X56710167Y-87485640D01*
X56710167Y-87485640D02*
X56757786Y-87679164D01*
X56757786Y-87679164D02*
X56757786Y-87824307D01*
X56757786Y-87824307D02*
X56710167Y-88017831D01*
X56710167Y-88017831D02*
X56662548Y-88114593D01*
X56662548Y-88114593D02*
X56567310Y-88211355D01*
X56567310Y-88211355D02*
X56424453Y-88259735D01*
X56424453Y-88259735D02*
X56186358Y-88259735D01*
X57757786Y-88162974D02*
X57710167Y-88211355D01*
X57710167Y-88211355D02*
X57567310Y-88259735D01*
X57567310Y-88259735D02*
X57472072Y-88259735D01*
X57472072Y-88259735D02*
X57329215Y-88211355D01*
X57329215Y-88211355D02*
X57233977Y-88114593D01*
X57233977Y-88114593D02*
X57186358Y-88017831D01*
X57186358Y-88017831D02*
X57138739Y-87824307D01*
X57138739Y-87824307D02*
X57138739Y-87679164D01*
X57138739Y-87679164D02*
X57186358Y-87485640D01*
X57186358Y-87485640D02*
X57233977Y-87388878D01*
X57233977Y-87388878D02*
X57329215Y-87292116D01*
X57329215Y-87292116D02*
X57472072Y-87243735D01*
X57472072Y-87243735D02*
X57567310Y-87243735D01*
X57567310Y-87243735D02*
X57710167Y-87292116D01*
X57710167Y-87292116D02*
X57757786Y-87340497D01*
X179013024Y-135757735D02*
X179593596Y-135757735D01*
X179303310Y-136773735D02*
X179303310Y-135757735D01*
X179883881Y-136725355D02*
X180029024Y-136773735D01*
X180029024Y-136773735D02*
X180270929Y-136773735D01*
X180270929Y-136773735D02*
X180367691Y-136725355D01*
X180367691Y-136725355D02*
X180416072Y-136676974D01*
X180416072Y-136676974D02*
X180464453Y-136580212D01*
X180464453Y-136580212D02*
X180464453Y-136483450D01*
X180464453Y-136483450D02*
X180416072Y-136386688D01*
X180416072Y-136386688D02*
X180367691Y-136338307D01*
X180367691Y-136338307D02*
X180270929Y-136289926D01*
X180270929Y-136289926D02*
X180077405Y-136241545D01*
X180077405Y-136241545D02*
X179980643Y-136193164D01*
X179980643Y-136193164D02*
X179932262Y-136144783D01*
X179932262Y-136144783D02*
X179883881Y-136048021D01*
X179883881Y-136048021D02*
X179883881Y-135951259D01*
X179883881Y-135951259D02*
X179932262Y-135854497D01*
X179932262Y-135854497D02*
X179980643Y-135806116D01*
X179980643Y-135806116D02*
X180077405Y-135757735D01*
X180077405Y-135757735D02*
X180319310Y-135757735D01*
X180319310Y-135757735D02*
X180464453Y-135806116D01*
X180899881Y-136386688D02*
X181673977Y-136386688D01*
X181286929Y-136773735D02*
X181286929Y-135999640D01*
X182059501Y-128391735D02*
X182630929Y-128391735D01*
X182345215Y-129407735D02*
X182345215Y-128391735D01*
X182964263Y-129407735D02*
X182964263Y-128730402D01*
X182964263Y-128923926D02*
X183011882Y-128827164D01*
X183011882Y-128827164D02*
X183059501Y-128778783D01*
X183059501Y-128778783D02*
X183154739Y-128730402D01*
X183154739Y-128730402D02*
X183249977Y-128730402D01*
X184011882Y-129407735D02*
X184011882Y-128875545D01*
X184011882Y-128875545D02*
X183964263Y-128778783D01*
X183964263Y-128778783D02*
X183869025Y-128730402D01*
X183869025Y-128730402D02*
X183678549Y-128730402D01*
X183678549Y-128730402D02*
X183583311Y-128778783D01*
X184011882Y-129359355D02*
X183916644Y-129407735D01*
X183916644Y-129407735D02*
X183678549Y-129407735D01*
X183678549Y-129407735D02*
X183583311Y-129359355D01*
X183583311Y-129359355D02*
X183535692Y-129262593D01*
X183535692Y-129262593D02*
X183535692Y-129165831D01*
X183535692Y-129165831D02*
X183583311Y-129069069D01*
X183583311Y-129069069D02*
X183678549Y-129020688D01*
X183678549Y-129020688D02*
X183916644Y-129020688D01*
X183916644Y-129020688D02*
X184011882Y-128972307D01*
X184916644Y-129359355D02*
X184821406Y-129407735D01*
X184821406Y-129407735D02*
X184630930Y-129407735D01*
X184630930Y-129407735D02*
X184535692Y-129359355D01*
X184535692Y-129359355D02*
X184488073Y-129310974D01*
X184488073Y-129310974D02*
X184440454Y-129214212D01*
X184440454Y-129214212D02*
X184440454Y-128923926D01*
X184440454Y-128923926D02*
X184488073Y-128827164D01*
X184488073Y-128827164D02*
X184535692Y-128778783D01*
X184535692Y-128778783D02*
X184630930Y-128730402D01*
X184630930Y-128730402D02*
X184821406Y-128730402D01*
X184821406Y-128730402D02*
X184916644Y-128778783D01*
X185202359Y-128730402D02*
X185583311Y-128730402D01*
X185345216Y-128391735D02*
X185345216Y-129262593D01*
X185345216Y-129262593D02*
X185392835Y-129359355D01*
X185392835Y-129359355D02*
X185488073Y-129407735D01*
X185488073Y-129407735D02*
X185583311Y-129407735D01*
X185916645Y-129407735D02*
X185916645Y-128730402D01*
X185916645Y-128391735D02*
X185869026Y-128440116D01*
X185869026Y-128440116D02*
X185916645Y-128488497D01*
X185916645Y-128488497D02*
X185964264Y-128440116D01*
X185964264Y-128440116D02*
X185916645Y-128391735D01*
X185916645Y-128391735D02*
X185916645Y-128488497D01*
X186297597Y-128730402D02*
X186535692Y-129407735D01*
X186535692Y-129407735D02*
X186773787Y-128730402D01*
X187535692Y-129359355D02*
X187440454Y-129407735D01*
X187440454Y-129407735D02*
X187249978Y-129407735D01*
X187249978Y-129407735D02*
X187154740Y-129359355D01*
X187154740Y-129359355D02*
X187107121Y-129262593D01*
X187107121Y-129262593D02*
X187107121Y-128875545D01*
X187107121Y-128875545D02*
X187154740Y-128778783D01*
X187154740Y-128778783D02*
X187249978Y-128730402D01*
X187249978Y-128730402D02*
X187440454Y-128730402D01*
X187440454Y-128730402D02*
X187535692Y-128778783D01*
X187535692Y-128778783D02*
X187583311Y-128875545D01*
X187583311Y-128875545D02*
X187583311Y-128972307D01*
X187583311Y-128972307D02*
X187107121Y-129069069D01*
X188726169Y-129359355D02*
X188869026Y-129407735D01*
X188869026Y-129407735D02*
X189107121Y-129407735D01*
X189107121Y-129407735D02*
X189202359Y-129359355D01*
X189202359Y-129359355D02*
X189249978Y-129310974D01*
X189249978Y-129310974D02*
X189297597Y-129214212D01*
X189297597Y-129214212D02*
X189297597Y-129117450D01*
X189297597Y-129117450D02*
X189249978Y-129020688D01*
X189249978Y-129020688D02*
X189202359Y-128972307D01*
X189202359Y-128972307D02*
X189107121Y-128923926D01*
X189107121Y-128923926D02*
X188916645Y-128875545D01*
X188916645Y-128875545D02*
X188821407Y-128827164D01*
X188821407Y-128827164D02*
X188773788Y-128778783D01*
X188773788Y-128778783D02*
X188726169Y-128682021D01*
X188726169Y-128682021D02*
X188726169Y-128585259D01*
X188726169Y-128585259D02*
X188773788Y-128488497D01*
X188773788Y-128488497D02*
X188821407Y-128440116D01*
X188821407Y-128440116D02*
X188916645Y-128391735D01*
X188916645Y-128391735D02*
X189154740Y-128391735D01*
X189154740Y-128391735D02*
X189297597Y-128440116D01*
X189630931Y-128730402D02*
X189869026Y-129407735D01*
X190107121Y-128730402D02*
X189869026Y-129407735D01*
X189869026Y-129407735D02*
X189773788Y-129649640D01*
X189773788Y-129649640D02*
X189726169Y-129698021D01*
X189726169Y-129698021D02*
X189630931Y-129746402D01*
X190440455Y-129359355D02*
X190535693Y-129407735D01*
X190535693Y-129407735D02*
X190726169Y-129407735D01*
X190726169Y-129407735D02*
X190821407Y-129359355D01*
X190821407Y-129359355D02*
X190869026Y-129262593D01*
X190869026Y-129262593D02*
X190869026Y-129214212D01*
X190869026Y-129214212D02*
X190821407Y-129117450D01*
X190821407Y-129117450D02*
X190726169Y-129069069D01*
X190726169Y-129069069D02*
X190583312Y-129069069D01*
X190583312Y-129069069D02*
X190488074Y-129020688D01*
X190488074Y-129020688D02*
X190440455Y-128923926D01*
X190440455Y-128923926D02*
X190440455Y-128875545D01*
X190440455Y-128875545D02*
X190488074Y-128778783D01*
X190488074Y-128778783D02*
X190583312Y-128730402D01*
X190583312Y-128730402D02*
X190726169Y-128730402D01*
X190726169Y-128730402D02*
X190821407Y-128778783D01*
X191154741Y-128730402D02*
X191535693Y-128730402D01*
X191297598Y-128391735D02*
X191297598Y-129262593D01*
X191297598Y-129262593D02*
X191345217Y-129359355D01*
X191345217Y-129359355D02*
X191440455Y-129407735D01*
X191440455Y-129407735D02*
X191535693Y-129407735D01*
X192249979Y-129359355D02*
X192154741Y-129407735D01*
X192154741Y-129407735D02*
X191964265Y-129407735D01*
X191964265Y-129407735D02*
X191869027Y-129359355D01*
X191869027Y-129359355D02*
X191821408Y-129262593D01*
X191821408Y-129262593D02*
X191821408Y-128875545D01*
X191821408Y-128875545D02*
X191869027Y-128778783D01*
X191869027Y-128778783D02*
X191964265Y-128730402D01*
X191964265Y-128730402D02*
X192154741Y-128730402D01*
X192154741Y-128730402D02*
X192249979Y-128778783D01*
X192249979Y-128778783D02*
X192297598Y-128875545D01*
X192297598Y-128875545D02*
X192297598Y-128972307D01*
X192297598Y-128972307D02*
X191821408Y-129069069D01*
X192726170Y-129407735D02*
X192726170Y-128730402D01*
X192726170Y-128827164D02*
X192773789Y-128778783D01*
X192773789Y-128778783D02*
X192869027Y-128730402D01*
X192869027Y-128730402D02*
X193011884Y-128730402D01*
X193011884Y-128730402D02*
X193107122Y-128778783D01*
X193107122Y-128778783D02*
X193154741Y-128875545D01*
X193154741Y-128875545D02*
X193154741Y-129407735D01*
X193154741Y-128875545D02*
X193202360Y-128778783D01*
X193202360Y-128778783D02*
X193297598Y-128730402D01*
X193297598Y-128730402D02*
X193440455Y-128730402D01*
X193440455Y-128730402D02*
X193535694Y-128778783D01*
X193535694Y-128778783D02*
X193583313Y-128875545D01*
X193583313Y-128875545D02*
X193583313Y-129407735D01*
X172554167Y-116961735D02*
X172554167Y-115945735D01*
X172554167Y-115945735D02*
X172796072Y-115945735D01*
X172796072Y-115945735D02*
X172941215Y-115994116D01*
X172941215Y-115994116D02*
X173037977Y-116090878D01*
X173037977Y-116090878D02*
X173086358Y-116187640D01*
X173086358Y-116187640D02*
X173134739Y-116381164D01*
X173134739Y-116381164D02*
X173134739Y-116526307D01*
X173134739Y-116526307D02*
X173086358Y-116719831D01*
X173086358Y-116719831D02*
X173037977Y-116816593D01*
X173037977Y-116816593D02*
X172941215Y-116913355D01*
X172941215Y-116913355D02*
X172796072Y-116961735D01*
X172796072Y-116961735D02*
X172554167Y-116961735D01*
X173570167Y-116961735D02*
X173570167Y-116284402D01*
X173570167Y-115945735D02*
X173521786Y-115994116D01*
X173521786Y-115994116D02*
X173570167Y-116042497D01*
X173570167Y-116042497D02*
X173618548Y-115994116D01*
X173618548Y-115994116D02*
X173570167Y-115945735D01*
X173570167Y-115945735D02*
X173570167Y-116042497D01*
X174005596Y-116913355D02*
X174102358Y-116961735D01*
X174102358Y-116961735D02*
X174295882Y-116961735D01*
X174295882Y-116961735D02*
X174392644Y-116913355D01*
X174392644Y-116913355D02*
X174441025Y-116816593D01*
X174441025Y-116816593D02*
X174441025Y-116768212D01*
X174441025Y-116768212D02*
X174392644Y-116671450D01*
X174392644Y-116671450D02*
X174295882Y-116623069D01*
X174295882Y-116623069D02*
X174150739Y-116623069D01*
X174150739Y-116623069D02*
X174053977Y-116574688D01*
X174053977Y-116574688D02*
X174005596Y-116477926D01*
X174005596Y-116477926D02*
X174005596Y-116429545D01*
X174005596Y-116429545D02*
X174053977Y-116332783D01*
X174053977Y-116332783D02*
X174150739Y-116284402D01*
X174150739Y-116284402D02*
X174295882Y-116284402D01*
X174295882Y-116284402D02*
X174392644Y-116332783D01*
X175311882Y-116913355D02*
X175215120Y-116961735D01*
X175215120Y-116961735D02*
X175021596Y-116961735D01*
X175021596Y-116961735D02*
X174924834Y-116913355D01*
X174924834Y-116913355D02*
X174876453Y-116864974D01*
X174876453Y-116864974D02*
X174828072Y-116768212D01*
X174828072Y-116768212D02*
X174828072Y-116477926D01*
X174828072Y-116477926D02*
X174876453Y-116381164D01*
X174876453Y-116381164D02*
X174924834Y-116332783D01*
X174924834Y-116332783D02*
X175021596Y-116284402D01*
X175021596Y-116284402D02*
X175215120Y-116284402D01*
X175215120Y-116284402D02*
X175311882Y-116332783D01*
X175747310Y-116961735D02*
X175747310Y-115945735D01*
X176182739Y-116961735D02*
X176182739Y-116429545D01*
X176182739Y-116429545D02*
X176134358Y-116332783D01*
X176134358Y-116332783D02*
X176037596Y-116284402D01*
X176037596Y-116284402D02*
X175892453Y-116284402D01*
X175892453Y-116284402D02*
X175795691Y-116332783D01*
X175795691Y-116332783D02*
X175747310Y-116381164D01*
X177101977Y-116961735D02*
X177101977Y-116429545D01*
X177101977Y-116429545D02*
X177053596Y-116332783D01*
X177053596Y-116332783D02*
X176956834Y-116284402D01*
X176956834Y-116284402D02*
X176763310Y-116284402D01*
X176763310Y-116284402D02*
X176666548Y-116332783D01*
X177101977Y-116913355D02*
X177005215Y-116961735D01*
X177005215Y-116961735D02*
X176763310Y-116961735D01*
X176763310Y-116961735D02*
X176666548Y-116913355D01*
X176666548Y-116913355D02*
X176618167Y-116816593D01*
X176618167Y-116816593D02*
X176618167Y-116719831D01*
X176618167Y-116719831D02*
X176666548Y-116623069D01*
X176666548Y-116623069D02*
X176763310Y-116574688D01*
X176763310Y-116574688D02*
X177005215Y-116574688D01*
X177005215Y-116574688D02*
X177101977Y-116526307D01*
X177585786Y-116961735D02*
X177585786Y-116284402D01*
X177585786Y-116477926D02*
X177634167Y-116381164D01*
X177634167Y-116381164D02*
X177682548Y-116332783D01*
X177682548Y-116332783D02*
X177779310Y-116284402D01*
X177779310Y-116284402D02*
X177876072Y-116284402D01*
X178650167Y-116284402D02*
X178650167Y-117106878D01*
X178650167Y-117106878D02*
X178601786Y-117203640D01*
X178601786Y-117203640D02*
X178553405Y-117252021D01*
X178553405Y-117252021D02*
X178456643Y-117300402D01*
X178456643Y-117300402D02*
X178311500Y-117300402D01*
X178311500Y-117300402D02*
X178214738Y-117252021D01*
X178650167Y-116913355D02*
X178553405Y-116961735D01*
X178553405Y-116961735D02*
X178359881Y-116961735D01*
X178359881Y-116961735D02*
X178263119Y-116913355D01*
X178263119Y-116913355D02*
X178214738Y-116864974D01*
X178214738Y-116864974D02*
X178166357Y-116768212D01*
X178166357Y-116768212D02*
X178166357Y-116477926D01*
X178166357Y-116477926D02*
X178214738Y-116381164D01*
X178214738Y-116381164D02*
X178263119Y-116332783D01*
X178263119Y-116332783D02*
X178359881Y-116284402D01*
X178359881Y-116284402D02*
X178553405Y-116284402D01*
X178553405Y-116284402D02*
X178650167Y-116332783D01*
X179521024Y-116913355D02*
X179424262Y-116961735D01*
X179424262Y-116961735D02*
X179230738Y-116961735D01*
X179230738Y-116961735D02*
X179133976Y-116913355D01*
X179133976Y-116913355D02*
X179085595Y-116816593D01*
X179085595Y-116816593D02*
X179085595Y-116429545D01*
X179085595Y-116429545D02*
X179133976Y-116332783D01*
X179133976Y-116332783D02*
X179230738Y-116284402D01*
X179230738Y-116284402D02*
X179424262Y-116284402D01*
X179424262Y-116284402D02*
X179521024Y-116332783D01*
X179521024Y-116332783D02*
X179569405Y-116429545D01*
X179569405Y-116429545D02*
X179569405Y-116526307D01*
X179569405Y-116526307D02*
X179085595Y-116623069D01*
X180004833Y-116574688D02*
X180778929Y-116574688D01*
X180391881Y-116961735D02*
X180391881Y-116187640D01*
X121653904Y-103179695D02*
X121170094Y-103179695D01*
X121170094Y-103179695D02*
X121121713Y-103663505D01*
X121121713Y-103663505D02*
X121170094Y-103615124D01*
X121170094Y-103615124D02*
X121266856Y-103566743D01*
X121266856Y-103566743D02*
X121508761Y-103566743D01*
X121508761Y-103566743D02*
X121605523Y-103615124D01*
X121605523Y-103615124D02*
X121653904Y-103663505D01*
X121653904Y-103663505D02*
X121702285Y-103760267D01*
X121702285Y-103760267D02*
X121702285Y-104002172D01*
X121702285Y-104002172D02*
X121653904Y-104098934D01*
X121653904Y-104098934D02*
X121605523Y-104147315D01*
X121605523Y-104147315D02*
X121508761Y-104195695D01*
X121508761Y-104195695D02*
X121266856Y-104195695D01*
X121266856Y-104195695D02*
X121170094Y-104147315D01*
X121170094Y-104147315D02*
X121121713Y-104098934D01*
X122137713Y-104098934D02*
X122186094Y-104147315D01*
X122186094Y-104147315D02*
X122137713Y-104195695D01*
X122137713Y-104195695D02*
X122089332Y-104147315D01*
X122089332Y-104147315D02*
X122137713Y-104098934D01*
X122137713Y-104098934D02*
X122137713Y-104195695D01*
X123105333Y-103179695D02*
X122621523Y-103179695D01*
X122621523Y-103179695D02*
X122573142Y-103663505D01*
X122573142Y-103663505D02*
X122621523Y-103615124D01*
X122621523Y-103615124D02*
X122718285Y-103566743D01*
X122718285Y-103566743D02*
X122960190Y-103566743D01*
X122960190Y-103566743D02*
X123056952Y-103615124D01*
X123056952Y-103615124D02*
X123105333Y-103663505D01*
X123105333Y-103663505D02*
X123153714Y-103760267D01*
X123153714Y-103760267D02*
X123153714Y-104002172D01*
X123153714Y-104002172D02*
X123105333Y-104098934D01*
X123105333Y-104098934D02*
X123056952Y-104147315D01*
X123056952Y-104147315D02*
X122960190Y-104195695D01*
X122960190Y-104195695D02*
X122718285Y-104195695D01*
X122718285Y-104195695D02*
X122621523Y-104147315D01*
X122621523Y-104147315D02*
X122573142Y-104098934D01*
X123734285Y-103615124D02*
X123637523Y-103566743D01*
X123637523Y-103566743D02*
X123589142Y-103518362D01*
X123589142Y-103518362D02*
X123540761Y-103421600D01*
X123540761Y-103421600D02*
X123540761Y-103373219D01*
X123540761Y-103373219D02*
X123589142Y-103276457D01*
X123589142Y-103276457D02*
X123637523Y-103228076D01*
X123637523Y-103228076D02*
X123734285Y-103179695D01*
X123734285Y-103179695D02*
X123927809Y-103179695D01*
X123927809Y-103179695D02*
X124024571Y-103228076D01*
X124024571Y-103228076D02*
X124072952Y-103276457D01*
X124072952Y-103276457D02*
X124121333Y-103373219D01*
X124121333Y-103373219D02*
X124121333Y-103421600D01*
X124121333Y-103421600D02*
X124072952Y-103518362D01*
X124072952Y-103518362D02*
X124024571Y-103566743D01*
X124024571Y-103566743D02*
X123927809Y-103615124D01*
X123927809Y-103615124D02*
X123734285Y-103615124D01*
X123734285Y-103615124D02*
X123637523Y-103663505D01*
X123637523Y-103663505D02*
X123589142Y-103711886D01*
X123589142Y-103711886D02*
X123540761Y-103808648D01*
X123540761Y-103808648D02*
X123540761Y-104002172D01*
X123540761Y-104002172D02*
X123589142Y-104098934D01*
X123589142Y-104098934D02*
X123637523Y-104147315D01*
X123637523Y-104147315D02*
X123734285Y-104195695D01*
X123734285Y-104195695D02*
X123927809Y-104195695D01*
X123927809Y-104195695D02*
X124024571Y-104147315D01*
X124024571Y-104147315D02*
X124072952Y-104098934D01*
X124072952Y-104098934D02*
X124121333Y-104002172D01*
X124121333Y-104002172D02*
X124121333Y-103808648D01*
X124121333Y-103808648D02*
X124072952Y-103711886D01*
X124072952Y-103711886D02*
X124024571Y-103663505D01*
X124024571Y-103663505D02*
X123927809Y-103615124D01*
X124701904Y-103615124D02*
X124605142Y-103566743D01*
X124605142Y-103566743D02*
X124556761Y-103518362D01*
X124556761Y-103518362D02*
X124508380Y-103421600D01*
X124508380Y-103421600D02*
X124508380Y-103373219D01*
X124508380Y-103373219D02*
X124556761Y-103276457D01*
X124556761Y-103276457D02*
X124605142Y-103228076D01*
X124605142Y-103228076D02*
X124701904Y-103179695D01*
X124701904Y-103179695D02*
X124895428Y-103179695D01*
X124895428Y-103179695D02*
X124992190Y-103228076D01*
X124992190Y-103228076D02*
X125040571Y-103276457D01*
X125040571Y-103276457D02*
X125088952Y-103373219D01*
X125088952Y-103373219D02*
X125088952Y-103421600D01*
X125088952Y-103421600D02*
X125040571Y-103518362D01*
X125040571Y-103518362D02*
X124992190Y-103566743D01*
X124992190Y-103566743D02*
X124895428Y-103615124D01*
X124895428Y-103615124D02*
X124701904Y-103615124D01*
X124701904Y-103615124D02*
X124605142Y-103663505D01*
X124605142Y-103663505D02*
X124556761Y-103711886D01*
X124556761Y-103711886D02*
X124508380Y-103808648D01*
X124508380Y-103808648D02*
X124508380Y-104002172D01*
X124508380Y-104002172D02*
X124556761Y-104098934D01*
X124556761Y-104098934D02*
X124605142Y-104147315D01*
X124605142Y-104147315D02*
X124701904Y-104195695D01*
X124701904Y-104195695D02*
X124895428Y-104195695D01*
X124895428Y-104195695D02*
X124992190Y-104147315D01*
X124992190Y-104147315D02*
X125040571Y-104098934D01*
X125040571Y-104098934D02*
X125088952Y-104002172D01*
X125088952Y-104002172D02*
X125088952Y-103808648D01*
X125088952Y-103808648D02*
X125040571Y-103711886D01*
X125040571Y-103711886D02*
X124992190Y-103663505D01*
X124992190Y-103663505D02*
X124895428Y-103615124D01*
X125524380Y-104195695D02*
X125524380Y-103518362D01*
X125524380Y-103615124D02*
X125572761Y-103566743D01*
X125572761Y-103566743D02*
X125669523Y-103518362D01*
X125669523Y-103518362D02*
X125814666Y-103518362D01*
X125814666Y-103518362D02*
X125911428Y-103566743D01*
X125911428Y-103566743D02*
X125959809Y-103663505D01*
X125959809Y-103663505D02*
X125959809Y-104195695D01*
X125959809Y-103663505D02*
X126008190Y-103566743D01*
X126008190Y-103566743D02*
X126104952Y-103518362D01*
X126104952Y-103518362D02*
X126250095Y-103518362D01*
X126250095Y-103518362D02*
X126346856Y-103566743D01*
X126346856Y-103566743D02*
X126395237Y-103663505D01*
X126395237Y-103663505D02*
X126395237Y-104195695D01*
X126879047Y-104195695D02*
X126879047Y-103518362D01*
X126879047Y-103615124D02*
X126927428Y-103566743D01*
X126927428Y-103566743D02*
X127024190Y-103518362D01*
X127024190Y-103518362D02*
X127169333Y-103518362D01*
X127169333Y-103518362D02*
X127266095Y-103566743D01*
X127266095Y-103566743D02*
X127314476Y-103663505D01*
X127314476Y-103663505D02*
X127314476Y-104195695D01*
X127314476Y-103663505D02*
X127362857Y-103566743D01*
X127362857Y-103566743D02*
X127459619Y-103518362D01*
X127459619Y-103518362D02*
X127604762Y-103518362D01*
X127604762Y-103518362D02*
X127701523Y-103566743D01*
X127701523Y-103566743D02*
X127749904Y-103663505D01*
X127749904Y-103663505D02*
X127749904Y-104195695D01*
D11*
X128524000Y-106484800D02*
X128524000Y-103045580D01*
X134112000Y-103045580D02*
X134112000Y-106383200D01*
X128626810Y-103632000D02*
X134112000Y-103632000D01*
X128524000Y-103632000D02*
X129650504Y-103045579D01*
X128524000Y-103632000D02*
X129650504Y-104218421D01*
X134112000Y-103632000D02*
X132985496Y-104218421D01*
X134112000Y-103632000D02*
X132985496Y-103045579D01*
D10*
X121501504Y-148036095D02*
X121017694Y-148036095D01*
X121017694Y-148036095D02*
X120969313Y-148519905D01*
X120969313Y-148519905D02*
X121017694Y-148471524D01*
X121017694Y-148471524D02*
X121114456Y-148423143D01*
X121114456Y-148423143D02*
X121356361Y-148423143D01*
X121356361Y-148423143D02*
X121453123Y-148471524D01*
X121453123Y-148471524D02*
X121501504Y-148519905D01*
X121501504Y-148519905D02*
X121549885Y-148616667D01*
X121549885Y-148616667D02*
X121549885Y-148858572D01*
X121549885Y-148858572D02*
X121501504Y-148955334D01*
X121501504Y-148955334D02*
X121453123Y-149003715D01*
X121453123Y-149003715D02*
X121356361Y-149052095D01*
X121356361Y-149052095D02*
X121114456Y-149052095D01*
X121114456Y-149052095D02*
X121017694Y-149003715D01*
X121017694Y-149003715D02*
X120969313Y-148955334D01*
X121985313Y-148955334D02*
X122033694Y-149003715D01*
X122033694Y-149003715D02*
X121985313Y-149052095D01*
X121985313Y-149052095D02*
X121936932Y-149003715D01*
X121936932Y-149003715D02*
X121985313Y-148955334D01*
X121985313Y-148955334D02*
X121985313Y-149052095D01*
X122952933Y-148036095D02*
X122469123Y-148036095D01*
X122469123Y-148036095D02*
X122420742Y-148519905D01*
X122420742Y-148519905D02*
X122469123Y-148471524D01*
X122469123Y-148471524D02*
X122565885Y-148423143D01*
X122565885Y-148423143D02*
X122807790Y-148423143D01*
X122807790Y-148423143D02*
X122904552Y-148471524D01*
X122904552Y-148471524D02*
X122952933Y-148519905D01*
X122952933Y-148519905D02*
X123001314Y-148616667D01*
X123001314Y-148616667D02*
X123001314Y-148858572D01*
X123001314Y-148858572D02*
X122952933Y-148955334D01*
X122952933Y-148955334D02*
X122904552Y-149003715D01*
X122904552Y-149003715D02*
X122807790Y-149052095D01*
X122807790Y-149052095D02*
X122565885Y-149052095D01*
X122565885Y-149052095D02*
X122469123Y-149003715D01*
X122469123Y-149003715D02*
X122420742Y-148955334D01*
X123581885Y-148471524D02*
X123485123Y-148423143D01*
X123485123Y-148423143D02*
X123436742Y-148374762D01*
X123436742Y-148374762D02*
X123388361Y-148278000D01*
X123388361Y-148278000D02*
X123388361Y-148229619D01*
X123388361Y-148229619D02*
X123436742Y-148132857D01*
X123436742Y-148132857D02*
X123485123Y-148084476D01*
X123485123Y-148084476D02*
X123581885Y-148036095D01*
X123581885Y-148036095D02*
X123775409Y-148036095D01*
X123775409Y-148036095D02*
X123872171Y-148084476D01*
X123872171Y-148084476D02*
X123920552Y-148132857D01*
X123920552Y-148132857D02*
X123968933Y-148229619D01*
X123968933Y-148229619D02*
X123968933Y-148278000D01*
X123968933Y-148278000D02*
X123920552Y-148374762D01*
X123920552Y-148374762D02*
X123872171Y-148423143D01*
X123872171Y-148423143D02*
X123775409Y-148471524D01*
X123775409Y-148471524D02*
X123581885Y-148471524D01*
X123581885Y-148471524D02*
X123485123Y-148519905D01*
X123485123Y-148519905D02*
X123436742Y-148568286D01*
X123436742Y-148568286D02*
X123388361Y-148665048D01*
X123388361Y-148665048D02*
X123388361Y-148858572D01*
X123388361Y-148858572D02*
X123436742Y-148955334D01*
X123436742Y-148955334D02*
X123485123Y-149003715D01*
X123485123Y-149003715D02*
X123581885Y-149052095D01*
X123581885Y-149052095D02*
X123775409Y-149052095D01*
X123775409Y-149052095D02*
X123872171Y-149003715D01*
X123872171Y-149003715D02*
X123920552Y-148955334D01*
X123920552Y-148955334D02*
X123968933Y-148858572D01*
X123968933Y-148858572D02*
X123968933Y-148665048D01*
X123968933Y-148665048D02*
X123920552Y-148568286D01*
X123920552Y-148568286D02*
X123872171Y-148519905D01*
X123872171Y-148519905D02*
X123775409Y-148471524D01*
X124549504Y-148471524D02*
X124452742Y-148423143D01*
X124452742Y-148423143D02*
X124404361Y-148374762D01*
X124404361Y-148374762D02*
X124355980Y-148278000D01*
X124355980Y-148278000D02*
X124355980Y-148229619D01*
X124355980Y-148229619D02*
X124404361Y-148132857D01*
X124404361Y-148132857D02*
X124452742Y-148084476D01*
X124452742Y-148084476D02*
X124549504Y-148036095D01*
X124549504Y-148036095D02*
X124743028Y-148036095D01*
X124743028Y-148036095D02*
X124839790Y-148084476D01*
X124839790Y-148084476D02*
X124888171Y-148132857D01*
X124888171Y-148132857D02*
X124936552Y-148229619D01*
X124936552Y-148229619D02*
X124936552Y-148278000D01*
X124936552Y-148278000D02*
X124888171Y-148374762D01*
X124888171Y-148374762D02*
X124839790Y-148423143D01*
X124839790Y-148423143D02*
X124743028Y-148471524D01*
X124743028Y-148471524D02*
X124549504Y-148471524D01*
X124549504Y-148471524D02*
X124452742Y-148519905D01*
X124452742Y-148519905D02*
X124404361Y-148568286D01*
X124404361Y-148568286D02*
X124355980Y-148665048D01*
X124355980Y-148665048D02*
X124355980Y-148858572D01*
X124355980Y-148858572D02*
X124404361Y-148955334D01*
X124404361Y-148955334D02*
X124452742Y-149003715D01*
X124452742Y-149003715D02*
X124549504Y-149052095D01*
X124549504Y-149052095D02*
X124743028Y-149052095D01*
X124743028Y-149052095D02*
X124839790Y-149003715D01*
X124839790Y-149003715D02*
X124888171Y-148955334D01*
X124888171Y-148955334D02*
X124936552Y-148858572D01*
X124936552Y-148858572D02*
X124936552Y-148665048D01*
X124936552Y-148665048D02*
X124888171Y-148568286D01*
X124888171Y-148568286D02*
X124839790Y-148519905D01*
X124839790Y-148519905D02*
X124743028Y-148471524D01*
X125371980Y-149052095D02*
X125371980Y-148374762D01*
X125371980Y-148471524D02*
X125420361Y-148423143D01*
X125420361Y-148423143D02*
X125517123Y-148374762D01*
X125517123Y-148374762D02*
X125662266Y-148374762D01*
X125662266Y-148374762D02*
X125759028Y-148423143D01*
X125759028Y-148423143D02*
X125807409Y-148519905D01*
X125807409Y-148519905D02*
X125807409Y-149052095D01*
X125807409Y-148519905D02*
X125855790Y-148423143D01*
X125855790Y-148423143D02*
X125952552Y-148374762D01*
X125952552Y-148374762D02*
X126097695Y-148374762D01*
X126097695Y-148374762D02*
X126194456Y-148423143D01*
X126194456Y-148423143D02*
X126242837Y-148519905D01*
X126242837Y-148519905D02*
X126242837Y-149052095D01*
X126726647Y-149052095D02*
X126726647Y-148374762D01*
X126726647Y-148471524D02*
X126775028Y-148423143D01*
X126775028Y-148423143D02*
X126871790Y-148374762D01*
X126871790Y-148374762D02*
X127016933Y-148374762D01*
X127016933Y-148374762D02*
X127113695Y-148423143D01*
X127113695Y-148423143D02*
X127162076Y-148519905D01*
X127162076Y-148519905D02*
X127162076Y-149052095D01*
X127162076Y-148519905D02*
X127210457Y-148423143D01*
X127210457Y-148423143D02*
X127307219Y-148374762D01*
X127307219Y-148374762D02*
X127452362Y-148374762D01*
X127452362Y-148374762D02*
X127549123Y-148423143D01*
X127549123Y-148423143D02*
X127597504Y-148519905D01*
X127597504Y-148519905D02*
X127597504Y-149052095D01*
D11*
X128524000Y-146296000D02*
X128524000Y-149176420D01*
X134112000Y-149176420D02*
X134112000Y-146241300D01*
X128524000Y-148590000D02*
X134112000Y-148590000D01*
X128524000Y-148590000D02*
X129650504Y-148003579D01*
X128524000Y-148590000D02*
X129650504Y-149176421D01*
X134112000Y-148590000D02*
X132985496Y-149176421D01*
X134112000Y-148590000D02*
X132985496Y-148003579D01*
D10*
X108204095Y-129240095D02*
X108204095Y-130062572D01*
X108204095Y-130062572D02*
X108251714Y-130159334D01*
X108251714Y-130159334D02*
X108299333Y-130207715D01*
X108299333Y-130207715D02*
X108394571Y-130256095D01*
X108394571Y-130256095D02*
X108585047Y-130256095D01*
X108585047Y-130256095D02*
X108680285Y-130207715D01*
X108680285Y-130207715D02*
X108727904Y-130159334D01*
X108727904Y-130159334D02*
X108775523Y-130062572D01*
X108775523Y-130062572D02*
X108775523Y-129240095D01*
X109156476Y-129240095D02*
X109823142Y-129240095D01*
X109823142Y-129240095D02*
X109394571Y-130256095D01*
X144780095Y-128626595D02*
X144780095Y-129449072D01*
X144780095Y-129449072D02*
X144827714Y-129545834D01*
X144827714Y-129545834D02*
X144875333Y-129594215D01*
X144875333Y-129594215D02*
X144970571Y-129642595D01*
X144970571Y-129642595D02*
X145161047Y-129642595D01*
X145161047Y-129642595D02*
X145256285Y-129594215D01*
X145256285Y-129594215D02*
X145303904Y-129545834D01*
X145303904Y-129545834D02*
X145351523Y-129449072D01*
X145351523Y-129449072D02*
X145351523Y-128626595D01*
X146256285Y-128965262D02*
X146256285Y-129642595D01*
X146018190Y-128578215D02*
X145780095Y-129303929D01*
X145780095Y-129303929D02*
X146399142Y-129303929D01*
X100838095Y-107142095D02*
X100838095Y-107964572D01*
X100838095Y-107964572D02*
X100885714Y-108061334D01*
X100885714Y-108061334D02*
X100933333Y-108109715D01*
X100933333Y-108109715D02*
X101028571Y-108158095D01*
X101028571Y-108158095D02*
X101219047Y-108158095D01*
X101219047Y-108158095D02*
X101314285Y-108109715D01*
X101314285Y-108109715D02*
X101361904Y-108061334D01*
X101361904Y-108061334D02*
X101409523Y-107964572D01*
X101409523Y-107964572D02*
X101409523Y-107142095D01*
X102028571Y-107577524D02*
X101933333Y-107529143D01*
X101933333Y-107529143D02*
X101885714Y-107480762D01*
X101885714Y-107480762D02*
X101838095Y-107384000D01*
X101838095Y-107384000D02*
X101838095Y-107335619D01*
X101838095Y-107335619D02*
X101885714Y-107238857D01*
X101885714Y-107238857D02*
X101933333Y-107190476D01*
X101933333Y-107190476D02*
X102028571Y-107142095D01*
X102028571Y-107142095D02*
X102219047Y-107142095D01*
X102219047Y-107142095D02*
X102314285Y-107190476D01*
X102314285Y-107190476D02*
X102361904Y-107238857D01*
X102361904Y-107238857D02*
X102409523Y-107335619D01*
X102409523Y-107335619D02*
X102409523Y-107384000D01*
X102409523Y-107384000D02*
X102361904Y-107480762D01*
X102361904Y-107480762D02*
X102314285Y-107529143D01*
X102314285Y-107529143D02*
X102219047Y-107577524D01*
X102219047Y-107577524D02*
X102028571Y-107577524D01*
X102028571Y-107577524D02*
X101933333Y-107625905D01*
X101933333Y-107625905D02*
X101885714Y-107674286D01*
X101885714Y-107674286D02*
X101838095Y-107771048D01*
X101838095Y-107771048D02*
X101838095Y-107964572D01*
X101838095Y-107964572D02*
X101885714Y-108061334D01*
X101885714Y-108061334D02*
X101933333Y-108109715D01*
X101933333Y-108109715D02*
X102028571Y-108158095D01*
X102028571Y-108158095D02*
X102219047Y-108158095D01*
X102219047Y-108158095D02*
X102314285Y-108109715D01*
X102314285Y-108109715D02*
X102361904Y-108061334D01*
X102361904Y-108061334D02*
X102409523Y-107964572D01*
X102409523Y-107964572D02*
X102409523Y-107771048D01*
X102409523Y-107771048D02*
X102361904Y-107674286D01*
X102361904Y-107674286D02*
X102314285Y-107625905D01*
X102314285Y-107625905D02*
X102219047Y-107577524D01*
X56162333Y-117511095D02*
X56162333Y-118236810D01*
X56162333Y-118236810D02*
X56113952Y-118381953D01*
X56113952Y-118381953D02*
X56017190Y-118478715D01*
X56017190Y-118478715D02*
X55872047Y-118527095D01*
X55872047Y-118527095D02*
X55775285Y-118527095D01*
X57178333Y-118527095D02*
X56597761Y-118527095D01*
X56888047Y-118527095D02*
X56888047Y-117511095D01*
X56888047Y-117511095D02*
X56791285Y-117656238D01*
X56791285Y-117656238D02*
X56694523Y-117753000D01*
X56694523Y-117753000D02*
X56597761Y-117801381D01*
X57666095Y-143210095D02*
X58237523Y-143210095D01*
X57951809Y-144226095D02*
X57951809Y-143210095D01*
X58570857Y-144226095D02*
X58570857Y-143210095D01*
X58570857Y-143210095D02*
X58951809Y-143210095D01*
X58951809Y-143210095D02*
X59047047Y-143258476D01*
X59047047Y-143258476D02*
X59094666Y-143306857D01*
X59094666Y-143306857D02*
X59142285Y-143403619D01*
X59142285Y-143403619D02*
X59142285Y-143548762D01*
X59142285Y-143548762D02*
X59094666Y-143645524D01*
X59094666Y-143645524D02*
X59047047Y-143693905D01*
X59047047Y-143693905D02*
X58951809Y-143742286D01*
X58951809Y-143742286D02*
X58570857Y-143742286D01*
X59999428Y-143210095D02*
X59808952Y-143210095D01*
X59808952Y-143210095D02*
X59713714Y-143258476D01*
X59713714Y-143258476D02*
X59666095Y-143306857D01*
X59666095Y-143306857D02*
X59570857Y-143452000D01*
X59570857Y-143452000D02*
X59523238Y-143645524D01*
X59523238Y-143645524D02*
X59523238Y-144032572D01*
X59523238Y-144032572D02*
X59570857Y-144129334D01*
X59570857Y-144129334D02*
X59618476Y-144177715D01*
X59618476Y-144177715D02*
X59713714Y-144226095D01*
X59713714Y-144226095D02*
X59904190Y-144226095D01*
X59904190Y-144226095D02*
X59999428Y-144177715D01*
X59999428Y-144177715D02*
X60047047Y-144129334D01*
X60047047Y-144129334D02*
X60094666Y-144032572D01*
X60094666Y-144032572D02*
X60094666Y-143790667D01*
X60094666Y-143790667D02*
X60047047Y-143693905D01*
X60047047Y-143693905D02*
X59999428Y-143645524D01*
X59999428Y-143645524D02*
X59904190Y-143597143D01*
X59904190Y-143597143D02*
X59713714Y-143597143D01*
X59713714Y-143597143D02*
X59618476Y-143645524D01*
X59618476Y-143645524D02*
X59570857Y-143693905D01*
X59570857Y-143693905D02*
X59523238Y-143790667D01*
X141994095Y-124160095D02*
X142565523Y-124160095D01*
X142279809Y-125176095D02*
X142279809Y-124160095D01*
X142898857Y-125176095D02*
X142898857Y-124160095D01*
X142898857Y-124160095D02*
X143279809Y-124160095D01*
X143279809Y-124160095D02*
X143375047Y-124208476D01*
X143375047Y-124208476D02*
X143422666Y-124256857D01*
X143422666Y-124256857D02*
X143470285Y-124353619D01*
X143470285Y-124353619D02*
X143470285Y-124498762D01*
X143470285Y-124498762D02*
X143422666Y-124595524D01*
X143422666Y-124595524D02*
X143375047Y-124643905D01*
X143375047Y-124643905D02*
X143279809Y-124692286D01*
X143279809Y-124692286D02*
X142898857Y-124692286D01*
X143803619Y-124160095D02*
X144470285Y-124160095D01*
X144470285Y-124160095D02*
X144041714Y-125176095D01*
D12*
X72398095Y-139662819D02*
X72969523Y-139662819D01*
X72683809Y-140662819D02*
X72683809Y-139662819D01*
X73302857Y-140662819D02*
X73302857Y-139662819D01*
X73302857Y-139662819D02*
X73683809Y-139662819D01*
X73683809Y-139662819D02*
X73779047Y-139710438D01*
X73779047Y-139710438D02*
X73826666Y-139758057D01*
X73826666Y-139758057D02*
X73874285Y-139853295D01*
X73874285Y-139853295D02*
X73874285Y-139996152D01*
X73874285Y-139996152D02*
X73826666Y-140091390D01*
X73826666Y-140091390D02*
X73779047Y-140139009D01*
X73779047Y-140139009D02*
X73683809Y-140186628D01*
X73683809Y-140186628D02*
X73302857Y-140186628D01*
X74350476Y-140662819D02*
X74540952Y-140662819D01*
X74540952Y-140662819D02*
X74636190Y-140615200D01*
X74636190Y-140615200D02*
X74683809Y-140567580D01*
X74683809Y-140567580D02*
X74779047Y-140424723D01*
X74779047Y-140424723D02*
X74826666Y-140234247D01*
X74826666Y-140234247D02*
X74826666Y-139853295D01*
X74826666Y-139853295D02*
X74779047Y-139758057D01*
X74779047Y-139758057D02*
X74731428Y-139710438D01*
X74731428Y-139710438D02*
X74636190Y-139662819D01*
X74636190Y-139662819D02*
X74445714Y-139662819D01*
X74445714Y-139662819D02*
X74350476Y-139710438D01*
X74350476Y-139710438D02*
X74302857Y-139758057D01*
X74302857Y-139758057D02*
X74255238Y-139853295D01*
X74255238Y-139853295D02*
X74255238Y-140091390D01*
X74255238Y-140091390D02*
X74302857Y-140186628D01*
X74302857Y-140186628D02*
X74350476Y-140234247D01*
X74350476Y-140234247D02*
X74445714Y-140281866D01*
X74445714Y-140281866D02*
X74636190Y-140281866D01*
X74636190Y-140281866D02*
X74731428Y-140234247D01*
X74731428Y-140234247D02*
X74779047Y-140186628D01*
X74779047Y-140186628D02*
X74826666Y-140091390D01*
D10*
X175942666Y-136327905D02*
X175609333Y-136327905D01*
X175609333Y-136860095D02*
X175609333Y-135844095D01*
X175609333Y-135844095D02*
X176085523Y-135844095D01*
X176895047Y-136182762D02*
X176895047Y-136860095D01*
X176656952Y-135795715D02*
X176418857Y-136521429D01*
X176418857Y-136521429D02*
X177037904Y-136521429D01*
X154351642Y-129327595D02*
X154018309Y-128843786D01*
X153780214Y-129327595D02*
X153780214Y-128311595D01*
X153780214Y-128311595D02*
X154161166Y-128311595D01*
X154161166Y-128311595D02*
X154256404Y-128359976D01*
X154256404Y-128359976D02*
X154304023Y-128408357D01*
X154304023Y-128408357D02*
X154351642Y-128505119D01*
X154351642Y-128505119D02*
X154351642Y-128650262D01*
X154351642Y-128650262D02*
X154304023Y-128747024D01*
X154304023Y-128747024D02*
X154256404Y-128795405D01*
X154256404Y-128795405D02*
X154161166Y-128843786D01*
X154161166Y-128843786D02*
X153780214Y-128843786D01*
X155304023Y-129327595D02*
X154732595Y-129327595D01*
X155018309Y-129327595D02*
X155018309Y-128311595D01*
X155018309Y-128311595D02*
X154923071Y-128456738D01*
X154923071Y-128456738D02*
X154827833Y-128553500D01*
X154827833Y-128553500D02*
X154732595Y-128601881D01*
X155923071Y-128311595D02*
X156018309Y-128311595D01*
X156018309Y-128311595D02*
X156113547Y-128359976D01*
X156113547Y-128359976D02*
X156161166Y-128408357D01*
X156161166Y-128408357D02*
X156208785Y-128505119D01*
X156208785Y-128505119D02*
X156256404Y-128698643D01*
X156256404Y-128698643D02*
X156256404Y-128940548D01*
X156256404Y-128940548D02*
X156208785Y-129134072D01*
X156208785Y-129134072D02*
X156161166Y-129230834D01*
X156161166Y-129230834D02*
X156113547Y-129279215D01*
X156113547Y-129279215D02*
X156018309Y-129327595D01*
X156018309Y-129327595D02*
X155923071Y-129327595D01*
X155923071Y-129327595D02*
X155827833Y-129279215D01*
X155827833Y-129279215D02*
X155780214Y-129230834D01*
X155780214Y-129230834D02*
X155732595Y-129134072D01*
X155732595Y-129134072D02*
X155684976Y-128940548D01*
X155684976Y-128940548D02*
X155684976Y-128698643D01*
X155684976Y-128698643D02*
X155732595Y-128505119D01*
X155732595Y-128505119D02*
X155780214Y-128408357D01*
X155780214Y-128408357D02*
X155827833Y-128359976D01*
X155827833Y-128359976D02*
X155923071Y-128311595D01*
X90209905Y-146766095D02*
X90781333Y-146766095D01*
X90495619Y-147782095D02*
X90495619Y-146766095D01*
X91114667Y-147782095D02*
X91114667Y-146766095D01*
X91114667Y-146766095D02*
X91495619Y-146766095D01*
X91495619Y-146766095D02*
X91590857Y-146814476D01*
X91590857Y-146814476D02*
X91638476Y-146862857D01*
X91638476Y-146862857D02*
X91686095Y-146959619D01*
X91686095Y-146959619D02*
X91686095Y-147104762D01*
X91686095Y-147104762D02*
X91638476Y-147201524D01*
X91638476Y-147201524D02*
X91590857Y-147249905D01*
X91590857Y-147249905D02*
X91495619Y-147298286D01*
X91495619Y-147298286D02*
X91114667Y-147298286D01*
X92638476Y-147782095D02*
X92067048Y-147782095D01*
X92352762Y-147782095D02*
X92352762Y-146766095D01*
X92352762Y-146766095D02*
X92257524Y-146911238D01*
X92257524Y-146911238D02*
X92162286Y-147008000D01*
X92162286Y-147008000D02*
X92067048Y-147056381D01*
X93590857Y-147782095D02*
X93019429Y-147782095D01*
X93305143Y-147782095D02*
X93305143Y-146766095D01*
X93305143Y-146766095D02*
X93209905Y-146911238D01*
X93209905Y-146911238D02*
X93114667Y-147008000D01*
X93114667Y-147008000D02*
X93019429Y-147056381D01*
X64978095Y-145930857D02*
X64494286Y-146264190D01*
X64978095Y-146502285D02*
X63962095Y-146502285D01*
X63962095Y-146502285D02*
X63962095Y-146121333D01*
X63962095Y-146121333D02*
X64010476Y-146026095D01*
X64010476Y-146026095D02*
X64058857Y-145978476D01*
X64058857Y-145978476D02*
X64155619Y-145930857D01*
X64155619Y-145930857D02*
X64300762Y-145930857D01*
X64300762Y-145930857D02*
X64397524Y-145978476D01*
X64397524Y-145978476D02*
X64445905Y-146026095D01*
X64445905Y-146026095D02*
X64494286Y-146121333D01*
X64494286Y-146121333D02*
X64494286Y-146502285D01*
X64978095Y-144978476D02*
X64978095Y-145549904D01*
X64978095Y-145264190D02*
X63962095Y-145264190D01*
X63962095Y-145264190D02*
X64107238Y-145359428D01*
X64107238Y-145359428D02*
X64204000Y-145454666D01*
X64204000Y-145454666D02*
X64252381Y-145549904D01*
X64978095Y-144026095D02*
X64978095Y-144597523D01*
X64978095Y-144311809D02*
X63962095Y-144311809D01*
X63962095Y-144311809D02*
X64107238Y-144407047D01*
X64107238Y-144407047D02*
X64204000Y-144502285D01*
X64204000Y-144502285D02*
X64252381Y-144597523D01*
X106126095Y-138620166D02*
X105642286Y-138953499D01*
X106126095Y-139191594D02*
X105110095Y-139191594D01*
X105110095Y-139191594D02*
X105110095Y-138810642D01*
X105110095Y-138810642D02*
X105158476Y-138715404D01*
X105158476Y-138715404D02*
X105206857Y-138667785D01*
X105206857Y-138667785D02*
X105303619Y-138620166D01*
X105303619Y-138620166D02*
X105448762Y-138620166D01*
X105448762Y-138620166D02*
X105545524Y-138667785D01*
X105545524Y-138667785D02*
X105593905Y-138715404D01*
X105593905Y-138715404D02*
X105642286Y-138810642D01*
X105642286Y-138810642D02*
X105642286Y-139191594D01*
X105545524Y-138048737D02*
X105497143Y-138143975D01*
X105497143Y-138143975D02*
X105448762Y-138191594D01*
X105448762Y-138191594D02*
X105352000Y-138239213D01*
X105352000Y-138239213D02*
X105303619Y-138239213D01*
X105303619Y-138239213D02*
X105206857Y-138191594D01*
X105206857Y-138191594D02*
X105158476Y-138143975D01*
X105158476Y-138143975D02*
X105110095Y-138048737D01*
X105110095Y-138048737D02*
X105110095Y-137858261D01*
X105110095Y-137858261D02*
X105158476Y-137763023D01*
X105158476Y-137763023D02*
X105206857Y-137715404D01*
X105206857Y-137715404D02*
X105303619Y-137667785D01*
X105303619Y-137667785D02*
X105352000Y-137667785D01*
X105352000Y-137667785D02*
X105448762Y-137715404D01*
X105448762Y-137715404D02*
X105497143Y-137763023D01*
X105497143Y-137763023D02*
X105545524Y-137858261D01*
X105545524Y-137858261D02*
X105545524Y-138048737D01*
X105545524Y-138048737D02*
X105593905Y-138143975D01*
X105593905Y-138143975D02*
X105642286Y-138191594D01*
X105642286Y-138191594D02*
X105739048Y-138239213D01*
X105739048Y-138239213D02*
X105932572Y-138239213D01*
X105932572Y-138239213D02*
X106029334Y-138191594D01*
X106029334Y-138191594D02*
X106077715Y-138143975D01*
X106077715Y-138143975D02*
X106126095Y-138048737D01*
X106126095Y-138048737D02*
X106126095Y-137858261D01*
X106126095Y-137858261D02*
X106077715Y-137763023D01*
X106077715Y-137763023D02*
X106029334Y-137715404D01*
X106029334Y-137715404D02*
X105932572Y-137667785D01*
X105932572Y-137667785D02*
X105739048Y-137667785D01*
X105739048Y-137667785D02*
X105642286Y-137715404D01*
X105642286Y-137715404D02*
X105593905Y-137763023D01*
X105593905Y-137763023D02*
X105545524Y-137858261D01*
X115578095Y-118318095D02*
X116149523Y-118318095D01*
X115863809Y-119334095D02*
X115863809Y-118318095D01*
X116482857Y-119334095D02*
X116482857Y-118318095D01*
X116482857Y-118318095D02*
X116863809Y-118318095D01*
X116863809Y-118318095D02*
X116959047Y-118366476D01*
X116959047Y-118366476D02*
X117006666Y-118414857D01*
X117006666Y-118414857D02*
X117054285Y-118511619D01*
X117054285Y-118511619D02*
X117054285Y-118656762D01*
X117054285Y-118656762D02*
X117006666Y-118753524D01*
X117006666Y-118753524D02*
X116959047Y-118801905D01*
X116959047Y-118801905D02*
X116863809Y-118850286D01*
X116863809Y-118850286D02*
X116482857Y-118850286D01*
X117435238Y-118414857D02*
X117482857Y-118366476D01*
X117482857Y-118366476D02*
X117578095Y-118318095D01*
X117578095Y-118318095D02*
X117816190Y-118318095D01*
X117816190Y-118318095D02*
X117911428Y-118366476D01*
X117911428Y-118366476D02*
X117959047Y-118414857D01*
X117959047Y-118414857D02*
X118006666Y-118511619D01*
X118006666Y-118511619D02*
X118006666Y-118608381D01*
X118006666Y-118608381D02*
X117959047Y-118753524D01*
X117959047Y-118753524D02*
X117387619Y-119334095D01*
X117387619Y-119334095D02*
X118006666Y-119334095D01*
X90344666Y-86289905D02*
X90011333Y-86289905D01*
X90011333Y-86822095D02*
X90011333Y-85806095D01*
X90011333Y-85806095D02*
X90487523Y-85806095D01*
X91392285Y-86822095D02*
X90820857Y-86822095D01*
X91106571Y-86822095D02*
X91106571Y-85806095D01*
X91106571Y-85806095D02*
X91011333Y-85951238D01*
X91011333Y-85951238D02*
X90916095Y-86048000D01*
X90916095Y-86048000D02*
X90820857Y-86096381D01*
X90281334Y-143930666D02*
X90329715Y-143978285D01*
X90329715Y-143978285D02*
X90378095Y-144121142D01*
X90378095Y-144121142D02*
X90378095Y-144216380D01*
X90378095Y-144216380D02*
X90329715Y-144359237D01*
X90329715Y-144359237D02*
X90232953Y-144454475D01*
X90232953Y-144454475D02*
X90136191Y-144502094D01*
X90136191Y-144502094D02*
X89942667Y-144549713D01*
X89942667Y-144549713D02*
X89797524Y-144549713D01*
X89797524Y-144549713D02*
X89604000Y-144502094D01*
X89604000Y-144502094D02*
X89507238Y-144454475D01*
X89507238Y-144454475D02*
X89410476Y-144359237D01*
X89410476Y-144359237D02*
X89362095Y-144216380D01*
X89362095Y-144216380D02*
X89362095Y-144121142D01*
X89362095Y-144121142D02*
X89410476Y-143978285D01*
X89410476Y-143978285D02*
X89458857Y-143930666D01*
X89362095Y-143025904D02*
X89362095Y-143502094D01*
X89362095Y-143502094D02*
X89845905Y-143549713D01*
X89845905Y-143549713D02*
X89797524Y-143502094D01*
X89797524Y-143502094D02*
X89749143Y-143406856D01*
X89749143Y-143406856D02*
X89749143Y-143168761D01*
X89749143Y-143168761D02*
X89797524Y-143073523D01*
X89797524Y-143073523D02*
X89845905Y-143025904D01*
X89845905Y-143025904D02*
X89942667Y-142978285D01*
X89942667Y-142978285D02*
X90184572Y-142978285D01*
X90184572Y-142978285D02*
X90281334Y-143025904D01*
X90281334Y-143025904D02*
X90329715Y-143073523D01*
X90329715Y-143073523D02*
X90378095Y-143168761D01*
X90378095Y-143168761D02*
X90378095Y-143406856D01*
X90378095Y-143406856D02*
X90329715Y-143502094D01*
X90329715Y-143502094D02*
X90281334Y-143549713D01*
X187621333Y-123144095D02*
X187621333Y-123869810D01*
X187621333Y-123869810D02*
X187572952Y-124014953D01*
X187572952Y-124014953D02*
X187476190Y-124111715D01*
X187476190Y-124111715D02*
X187331047Y-124160095D01*
X187331047Y-124160095D02*
X187234285Y-124160095D01*
X188540571Y-123482762D02*
X188540571Y-124160095D01*
X188298666Y-123095715D02*
X188056761Y-123821429D01*
X188056761Y-123821429D02*
X188685714Y-123821429D01*
X116594095Y-130258095D02*
X117165523Y-130258095D01*
X116879809Y-131274095D02*
X116879809Y-130258095D01*
X117498857Y-131274095D02*
X117498857Y-130258095D01*
X117498857Y-130258095D02*
X117879809Y-130258095D01*
X117879809Y-130258095D02*
X117975047Y-130306476D01*
X117975047Y-130306476D02*
X118022666Y-130354857D01*
X118022666Y-130354857D02*
X118070285Y-130451619D01*
X118070285Y-130451619D02*
X118070285Y-130596762D01*
X118070285Y-130596762D02*
X118022666Y-130693524D01*
X118022666Y-130693524D02*
X117975047Y-130741905D01*
X117975047Y-130741905D02*
X117879809Y-130790286D01*
X117879809Y-130790286D02*
X117498857Y-130790286D01*
X119022666Y-131274095D02*
X118451238Y-131274095D01*
X118736952Y-131274095D02*
X118736952Y-130258095D01*
X118736952Y-130258095D02*
X118641714Y-130403238D01*
X118641714Y-130403238D02*
X118546476Y-130500000D01*
X118546476Y-130500000D02*
X118451238Y-130548381D01*
X72039238Y-148290095D02*
X71700571Y-147806286D01*
X71458666Y-148290095D02*
X71458666Y-147274095D01*
X71458666Y-147274095D02*
X71845714Y-147274095D01*
X71845714Y-147274095D02*
X71942476Y-147322476D01*
X71942476Y-147322476D02*
X71990857Y-147370857D01*
X71990857Y-147370857D02*
X72039238Y-147467619D01*
X72039238Y-147467619D02*
X72039238Y-147612762D01*
X72039238Y-147612762D02*
X71990857Y-147709524D01*
X71990857Y-147709524D02*
X71942476Y-147757905D01*
X71942476Y-147757905D02*
X71845714Y-147806286D01*
X71845714Y-147806286D02*
X71458666Y-147806286D01*
X72329523Y-147274095D02*
X72668190Y-148290095D01*
X72668190Y-148290095D02*
X73006857Y-147274095D01*
X73877714Y-148290095D02*
X73297142Y-148290095D01*
X73587428Y-148290095D02*
X73587428Y-147274095D01*
X73587428Y-147274095D02*
X73490666Y-147419238D01*
X73490666Y-147419238D02*
X73393904Y-147516000D01*
X73393904Y-147516000D02*
X73297142Y-147564381D01*
X148883905Y-139146095D02*
X149455333Y-139146095D01*
X149169619Y-140162095D02*
X149169619Y-139146095D01*
X149788667Y-140162095D02*
X149788667Y-139146095D01*
X149788667Y-139146095D02*
X150169619Y-139146095D01*
X150169619Y-139146095D02*
X150264857Y-139194476D01*
X150264857Y-139194476D02*
X150312476Y-139242857D01*
X150312476Y-139242857D02*
X150360095Y-139339619D01*
X150360095Y-139339619D02*
X150360095Y-139484762D01*
X150360095Y-139484762D02*
X150312476Y-139581524D01*
X150312476Y-139581524D02*
X150264857Y-139629905D01*
X150264857Y-139629905D02*
X150169619Y-139678286D01*
X150169619Y-139678286D02*
X149788667Y-139678286D01*
X151312476Y-140162095D02*
X150741048Y-140162095D01*
X151026762Y-140162095D02*
X151026762Y-139146095D01*
X151026762Y-139146095D02*
X150931524Y-139291238D01*
X150931524Y-139291238D02*
X150836286Y-139388000D01*
X150836286Y-139388000D02*
X150741048Y-139436381D01*
X151693429Y-139242857D02*
X151741048Y-139194476D01*
X151741048Y-139194476D02*
X151836286Y-139146095D01*
X151836286Y-139146095D02*
X152074381Y-139146095D01*
X152074381Y-139146095D02*
X152169619Y-139194476D01*
X152169619Y-139194476D02*
X152217238Y-139242857D01*
X152217238Y-139242857D02*
X152264857Y-139339619D01*
X152264857Y-139339619D02*
X152264857Y-139436381D01*
X152264857Y-139436381D02*
X152217238Y-139581524D01*
X152217238Y-139581524D02*
X151645810Y-140162095D01*
X151645810Y-140162095D02*
X152264857Y-140162095D01*
X88249334Y-143930666D02*
X88297715Y-143978285D01*
X88297715Y-143978285D02*
X88346095Y-144121142D01*
X88346095Y-144121142D02*
X88346095Y-144216380D01*
X88346095Y-144216380D02*
X88297715Y-144359237D01*
X88297715Y-144359237D02*
X88200953Y-144454475D01*
X88200953Y-144454475D02*
X88104191Y-144502094D01*
X88104191Y-144502094D02*
X87910667Y-144549713D01*
X87910667Y-144549713D02*
X87765524Y-144549713D01*
X87765524Y-144549713D02*
X87572000Y-144502094D01*
X87572000Y-144502094D02*
X87475238Y-144454475D01*
X87475238Y-144454475D02*
X87378476Y-144359237D01*
X87378476Y-144359237D02*
X87330095Y-144216380D01*
X87330095Y-144216380D02*
X87330095Y-144121142D01*
X87330095Y-144121142D02*
X87378476Y-143978285D01*
X87378476Y-143978285D02*
X87426857Y-143930666D01*
X87765524Y-143359237D02*
X87717143Y-143454475D01*
X87717143Y-143454475D02*
X87668762Y-143502094D01*
X87668762Y-143502094D02*
X87572000Y-143549713D01*
X87572000Y-143549713D02*
X87523619Y-143549713D01*
X87523619Y-143549713D02*
X87426857Y-143502094D01*
X87426857Y-143502094D02*
X87378476Y-143454475D01*
X87378476Y-143454475D02*
X87330095Y-143359237D01*
X87330095Y-143359237D02*
X87330095Y-143168761D01*
X87330095Y-143168761D02*
X87378476Y-143073523D01*
X87378476Y-143073523D02*
X87426857Y-143025904D01*
X87426857Y-143025904D02*
X87523619Y-142978285D01*
X87523619Y-142978285D02*
X87572000Y-142978285D01*
X87572000Y-142978285D02*
X87668762Y-143025904D01*
X87668762Y-143025904D02*
X87717143Y-143073523D01*
X87717143Y-143073523D02*
X87765524Y-143168761D01*
X87765524Y-143168761D02*
X87765524Y-143359237D01*
X87765524Y-143359237D02*
X87813905Y-143454475D01*
X87813905Y-143454475D02*
X87862286Y-143502094D01*
X87862286Y-143502094D02*
X87959048Y-143549713D01*
X87959048Y-143549713D02*
X88152572Y-143549713D01*
X88152572Y-143549713D02*
X88249334Y-143502094D01*
X88249334Y-143502094D02*
X88297715Y-143454475D01*
X88297715Y-143454475D02*
X88346095Y-143359237D01*
X88346095Y-143359237D02*
X88346095Y-143168761D01*
X88346095Y-143168761D02*
X88297715Y-143073523D01*
X88297715Y-143073523D02*
X88249334Y-143025904D01*
X88249334Y-143025904D02*
X88152572Y-142978285D01*
X88152572Y-142978285D02*
X87959048Y-142978285D01*
X87959048Y-142978285D02*
X87862286Y-143025904D01*
X87862286Y-143025904D02*
X87813905Y-143073523D01*
X87813905Y-143073523D02*
X87765524Y-143168761D01*
X115101905Y-113256770D02*
X115673333Y-113256770D01*
X115387619Y-114272770D02*
X115387619Y-113256770D01*
X116006667Y-114272770D02*
X116006667Y-113256770D01*
X116006667Y-113256770D02*
X116387619Y-113256770D01*
X116387619Y-113256770D02*
X116482857Y-113305151D01*
X116482857Y-113305151D02*
X116530476Y-113353532D01*
X116530476Y-113353532D02*
X116578095Y-113450294D01*
X116578095Y-113450294D02*
X116578095Y-113595437D01*
X116578095Y-113595437D02*
X116530476Y-113692199D01*
X116530476Y-113692199D02*
X116482857Y-113740580D01*
X116482857Y-113740580D02*
X116387619Y-113788961D01*
X116387619Y-113788961D02*
X116006667Y-113788961D01*
X117530476Y-114272770D02*
X116959048Y-114272770D01*
X117244762Y-114272770D02*
X117244762Y-113256770D01*
X117244762Y-113256770D02*
X117149524Y-113401913D01*
X117149524Y-113401913D02*
X117054286Y-113498675D01*
X117054286Y-113498675D02*
X116959048Y-113547056D01*
X118149524Y-113256770D02*
X118244762Y-113256770D01*
X118244762Y-113256770D02*
X118340000Y-113305151D01*
X118340000Y-113305151D02*
X118387619Y-113353532D01*
X118387619Y-113353532D02*
X118435238Y-113450294D01*
X118435238Y-113450294D02*
X118482857Y-113643818D01*
X118482857Y-113643818D02*
X118482857Y-113885723D01*
X118482857Y-113885723D02*
X118435238Y-114079247D01*
X118435238Y-114079247D02*
X118387619Y-114176009D01*
X118387619Y-114176009D02*
X118340000Y-114224390D01*
X118340000Y-114224390D02*
X118244762Y-114272770D01*
X118244762Y-114272770D02*
X118149524Y-114272770D01*
X118149524Y-114272770D02*
X118054286Y-114224390D01*
X118054286Y-114224390D02*
X118006667Y-114176009D01*
X118006667Y-114176009D02*
X117959048Y-114079247D01*
X117959048Y-114079247D02*
X117911429Y-113885723D01*
X117911429Y-113885723D02*
X117911429Y-113643818D01*
X117911429Y-113643818D02*
X117959048Y-113450294D01*
X117959048Y-113450294D02*
X118006667Y-113353532D01*
X118006667Y-113353532D02*
X118054286Y-113305151D01*
X118054286Y-113305151D02*
X118149524Y-113256770D01*
X175942666Y-134803905D02*
X175609333Y-134803905D01*
X175609333Y-135336095D02*
X175609333Y-134320095D01*
X175609333Y-134320095D02*
X176085523Y-134320095D01*
X176371238Y-134320095D02*
X176990285Y-134320095D01*
X176990285Y-134320095D02*
X176656952Y-134707143D01*
X176656952Y-134707143D02*
X176799809Y-134707143D01*
X176799809Y-134707143D02*
X176895047Y-134755524D01*
X176895047Y-134755524D02*
X176942666Y-134803905D01*
X176942666Y-134803905D02*
X176990285Y-134900667D01*
X176990285Y-134900667D02*
X176990285Y-135142572D01*
X176990285Y-135142572D02*
X176942666Y-135239334D01*
X176942666Y-135239334D02*
X176895047Y-135287715D01*
X176895047Y-135287715D02*
X176799809Y-135336095D01*
X176799809Y-135336095D02*
X176514095Y-135336095D01*
X176514095Y-135336095D02*
X176418857Y-135287715D01*
X176418857Y-135287715D02*
X176371238Y-135239334D01*
X115070095Y-107650095D02*
X115641523Y-107650095D01*
X115355809Y-108666095D02*
X115355809Y-107650095D01*
X115974857Y-108666095D02*
X115974857Y-107650095D01*
X115974857Y-107650095D02*
X116355809Y-107650095D01*
X116355809Y-107650095D02*
X116451047Y-107698476D01*
X116451047Y-107698476D02*
X116498666Y-107746857D01*
X116498666Y-107746857D02*
X116546285Y-107843619D01*
X116546285Y-107843619D02*
X116546285Y-107988762D01*
X116546285Y-107988762D02*
X116498666Y-108085524D01*
X116498666Y-108085524D02*
X116451047Y-108133905D01*
X116451047Y-108133905D02*
X116355809Y-108182286D01*
X116355809Y-108182286D02*
X115974857Y-108182286D01*
X117403428Y-107988762D02*
X117403428Y-108666095D01*
X117165333Y-107601715D02*
X116927238Y-108327429D01*
X116927238Y-108327429D02*
X117546285Y-108327429D01*
X59205905Y-83774095D02*
X59205905Y-82758095D01*
X59777333Y-83774095D02*
X59348762Y-83193524D01*
X59777333Y-82758095D02*
X59205905Y-83338667D01*
X60158286Y-82854857D02*
X60205905Y-82806476D01*
X60205905Y-82806476D02*
X60301143Y-82758095D01*
X60301143Y-82758095D02*
X60539238Y-82758095D01*
X60539238Y-82758095D02*
X60634476Y-82806476D01*
X60634476Y-82806476D02*
X60682095Y-82854857D01*
X60682095Y-82854857D02*
X60729714Y-82951619D01*
X60729714Y-82951619D02*
X60729714Y-83048381D01*
X60729714Y-83048381D02*
X60682095Y-83193524D01*
X60682095Y-83193524D02*
X60110667Y-83774095D01*
X60110667Y-83774095D02*
X60729714Y-83774095D01*
D12*
X77012800Y-107989019D02*
X77012800Y-108227114D01*
X76774705Y-108131876D02*
X77012800Y-108227114D01*
X77012800Y-108227114D02*
X77250895Y-108131876D01*
X76869943Y-108417590D02*
X77012800Y-108227114D01*
X77012800Y-108227114D02*
X77155657Y-108417590D01*
X77012800Y-107989019D02*
X77012800Y-108227114D01*
X76774705Y-108131876D02*
X77012800Y-108227114D01*
X77012800Y-108227114D02*
X77250895Y-108131876D01*
X76869943Y-108417590D02*
X77012800Y-108227114D01*
X77012800Y-108227114D02*
X77155657Y-108417590D01*
D10*
X104602095Y-138660094D02*
X103586095Y-138660094D01*
X103586095Y-138660094D02*
X103586095Y-138421999D01*
X103586095Y-138421999D02*
X103634476Y-138279142D01*
X103634476Y-138279142D02*
X103731238Y-138183904D01*
X103731238Y-138183904D02*
X103828000Y-138136285D01*
X103828000Y-138136285D02*
X104021524Y-138088666D01*
X104021524Y-138088666D02*
X104166667Y-138088666D01*
X104166667Y-138088666D02*
X104360191Y-138136285D01*
X104360191Y-138136285D02*
X104456953Y-138183904D01*
X104456953Y-138183904D02*
X104553715Y-138279142D01*
X104553715Y-138279142D02*
X104602095Y-138421999D01*
X104602095Y-138421999D02*
X104602095Y-138660094D01*
X103682857Y-137707713D02*
X103634476Y-137660094D01*
X103634476Y-137660094D02*
X103586095Y-137564856D01*
X103586095Y-137564856D02*
X103586095Y-137326761D01*
X103586095Y-137326761D02*
X103634476Y-137231523D01*
X103634476Y-137231523D02*
X103682857Y-137183904D01*
X103682857Y-137183904D02*
X103779619Y-137136285D01*
X103779619Y-137136285D02*
X103876381Y-137136285D01*
X103876381Y-137136285D02*
X104021524Y-137183904D01*
X104021524Y-137183904D02*
X104602095Y-137755332D01*
X104602095Y-137755332D02*
X104602095Y-137136285D01*
X91998857Y-140303238D02*
X91950476Y-140398476D01*
X91950476Y-140398476D02*
X91853715Y-140493714D01*
X91853715Y-140493714D02*
X91708572Y-140636571D01*
X91708572Y-140636571D02*
X91660191Y-140731809D01*
X91660191Y-140731809D02*
X91660191Y-140827047D01*
X91902095Y-140779428D02*
X91853715Y-140874666D01*
X91853715Y-140874666D02*
X91756953Y-140969904D01*
X91756953Y-140969904D02*
X91563429Y-141017523D01*
X91563429Y-141017523D02*
X91224762Y-141017523D01*
X91224762Y-141017523D02*
X91031238Y-140969904D01*
X91031238Y-140969904D02*
X90934476Y-140874666D01*
X90934476Y-140874666D02*
X90886095Y-140779428D01*
X90886095Y-140779428D02*
X90886095Y-140588952D01*
X90886095Y-140588952D02*
X90934476Y-140493714D01*
X90934476Y-140493714D02*
X91031238Y-140398476D01*
X91031238Y-140398476D02*
X91224762Y-140350857D01*
X91224762Y-140350857D02*
X91563429Y-140350857D01*
X91563429Y-140350857D02*
X91756953Y-140398476D01*
X91756953Y-140398476D02*
X91853715Y-140493714D01*
X91853715Y-140493714D02*
X91902095Y-140588952D01*
X91902095Y-140588952D02*
X91902095Y-140779428D01*
X90982857Y-139969904D02*
X90934476Y-139922285D01*
X90934476Y-139922285D02*
X90886095Y-139827047D01*
X90886095Y-139827047D02*
X90886095Y-139588952D01*
X90886095Y-139588952D02*
X90934476Y-139493714D01*
X90934476Y-139493714D02*
X90982857Y-139446095D01*
X90982857Y-139446095D02*
X91079619Y-139398476D01*
X91079619Y-139398476D02*
X91176381Y-139398476D01*
X91176381Y-139398476D02*
X91321524Y-139446095D01*
X91321524Y-139446095D02*
X91902095Y-140017523D01*
X91902095Y-140017523D02*
X91902095Y-139398476D01*
X169964333Y-137963595D02*
X169631000Y-137479786D01*
X169392905Y-137963595D02*
X169392905Y-136947595D01*
X169392905Y-136947595D02*
X169773857Y-136947595D01*
X169773857Y-136947595D02*
X169869095Y-136995976D01*
X169869095Y-136995976D02*
X169916714Y-137044357D01*
X169916714Y-137044357D02*
X169964333Y-137141119D01*
X169964333Y-137141119D02*
X169964333Y-137286262D01*
X169964333Y-137286262D02*
X169916714Y-137383024D01*
X169916714Y-137383024D02*
X169869095Y-137431405D01*
X169869095Y-137431405D02*
X169773857Y-137479786D01*
X169773857Y-137479786D02*
X169392905Y-137479786D01*
X170821476Y-136947595D02*
X170631000Y-136947595D01*
X170631000Y-136947595D02*
X170535762Y-136995976D01*
X170535762Y-136995976D02*
X170488143Y-137044357D01*
X170488143Y-137044357D02*
X170392905Y-137189500D01*
X170392905Y-137189500D02*
X170345286Y-137383024D01*
X170345286Y-137383024D02*
X170345286Y-137770072D01*
X170345286Y-137770072D02*
X170392905Y-137866834D01*
X170392905Y-137866834D02*
X170440524Y-137915215D01*
X170440524Y-137915215D02*
X170535762Y-137963595D01*
X170535762Y-137963595D02*
X170726238Y-137963595D01*
X170726238Y-137963595D02*
X170821476Y-137915215D01*
X170821476Y-137915215D02*
X170869095Y-137866834D01*
X170869095Y-137866834D02*
X170916714Y-137770072D01*
X170916714Y-137770072D02*
X170916714Y-137528167D01*
X170916714Y-137528167D02*
X170869095Y-137431405D01*
X170869095Y-137431405D02*
X170821476Y-137383024D01*
X170821476Y-137383024D02*
X170726238Y-137334643D01*
X170726238Y-137334643D02*
X170535762Y-137334643D01*
X170535762Y-137334643D02*
X170440524Y-137383024D01*
X170440524Y-137383024D02*
X170392905Y-137431405D01*
X170392905Y-137431405D02*
X170345286Y-137528167D01*
X56049333Y-129082095D02*
X56049333Y-129807810D01*
X56049333Y-129807810D02*
X56000952Y-129952953D01*
X56000952Y-129952953D02*
X55904190Y-130049715D01*
X55904190Y-130049715D02*
X55759047Y-130098095D01*
X55759047Y-130098095D02*
X55662285Y-130098095D01*
X56484761Y-129178857D02*
X56533142Y-129130476D01*
X56533142Y-129130476D02*
X56629904Y-129082095D01*
X56629904Y-129082095D02*
X56871809Y-129082095D01*
X56871809Y-129082095D02*
X56968571Y-129130476D01*
X56968571Y-129130476D02*
X57016952Y-129178857D01*
X57016952Y-129178857D02*
X57065333Y-129275619D01*
X57065333Y-129275619D02*
X57065333Y-129372381D01*
X57065333Y-129372381D02*
X57016952Y-129517524D01*
X57016952Y-129517524D02*
X56436380Y-130098095D01*
X56436380Y-130098095D02*
X57065333Y-130098095D01*
X167853095Y-131867595D02*
X168424523Y-131867595D01*
X168138809Y-132883595D02*
X168138809Y-131867595D01*
X168757857Y-132883595D02*
X168757857Y-131867595D01*
X168757857Y-131867595D02*
X169138809Y-131867595D01*
X169138809Y-131867595D02*
X169234047Y-131915976D01*
X169234047Y-131915976D02*
X169281666Y-131964357D01*
X169281666Y-131964357D02*
X169329285Y-132061119D01*
X169329285Y-132061119D02*
X169329285Y-132206262D01*
X169329285Y-132206262D02*
X169281666Y-132303024D01*
X169281666Y-132303024D02*
X169234047Y-132351405D01*
X169234047Y-132351405D02*
X169138809Y-132399786D01*
X169138809Y-132399786D02*
X168757857Y-132399786D01*
X170234047Y-131867595D02*
X169757857Y-131867595D01*
X169757857Y-131867595D02*
X169710238Y-132351405D01*
X169710238Y-132351405D02*
X169757857Y-132303024D01*
X169757857Y-132303024D02*
X169853095Y-132254643D01*
X169853095Y-132254643D02*
X170091190Y-132254643D01*
X170091190Y-132254643D02*
X170186428Y-132303024D01*
X170186428Y-132303024D02*
X170234047Y-132351405D01*
X170234047Y-132351405D02*
X170281666Y-132448167D01*
X170281666Y-132448167D02*
X170281666Y-132690072D01*
X170281666Y-132690072D02*
X170234047Y-132786834D01*
X170234047Y-132786834D02*
X170186428Y-132835215D01*
X170186428Y-132835215D02*
X170091190Y-132883595D01*
X170091190Y-132883595D02*
X169853095Y-132883595D01*
X169853095Y-132883595D02*
X169757857Y-132835215D01*
X169757857Y-132835215D02*
X169710238Y-132786834D01*
X156125333Y-113492095D02*
X156125333Y-114217810D01*
X156125333Y-114217810D02*
X156076952Y-114362953D01*
X156076952Y-114362953D02*
X155980190Y-114459715D01*
X155980190Y-114459715D02*
X155835047Y-114508095D01*
X155835047Y-114508095D02*
X155738285Y-114508095D01*
X157092952Y-113492095D02*
X156609142Y-113492095D01*
X156609142Y-113492095D02*
X156560761Y-113975905D01*
X156560761Y-113975905D02*
X156609142Y-113927524D01*
X156609142Y-113927524D02*
X156705904Y-113879143D01*
X156705904Y-113879143D02*
X156947809Y-113879143D01*
X156947809Y-113879143D02*
X157044571Y-113927524D01*
X157044571Y-113927524D02*
X157092952Y-113975905D01*
X157092952Y-113975905D02*
X157141333Y-114072667D01*
X157141333Y-114072667D02*
X157141333Y-114314572D01*
X157141333Y-114314572D02*
X157092952Y-114411334D01*
X157092952Y-114411334D02*
X157044571Y-114459715D01*
X157044571Y-114459715D02*
X156947809Y-114508095D01*
X156947809Y-114508095D02*
X156705904Y-114508095D01*
X156705904Y-114508095D02*
X156609142Y-114459715D01*
X156609142Y-114459715D02*
X156560761Y-114411334D01*
X114165142Y-126446095D02*
X113831809Y-125962286D01*
X113593714Y-126446095D02*
X113593714Y-125430095D01*
X113593714Y-125430095D02*
X113974666Y-125430095D01*
X113974666Y-125430095D02*
X114069904Y-125478476D01*
X114069904Y-125478476D02*
X114117523Y-125526857D01*
X114117523Y-125526857D02*
X114165142Y-125623619D01*
X114165142Y-125623619D02*
X114165142Y-125768762D01*
X114165142Y-125768762D02*
X114117523Y-125865524D01*
X114117523Y-125865524D02*
X114069904Y-125913905D01*
X114069904Y-125913905D02*
X113974666Y-125962286D01*
X113974666Y-125962286D02*
X113593714Y-125962286D01*
X115117523Y-126446095D02*
X114546095Y-126446095D01*
X114831809Y-126446095D02*
X114831809Y-125430095D01*
X114831809Y-125430095D02*
X114736571Y-125575238D01*
X114736571Y-125575238D02*
X114641333Y-125672000D01*
X114641333Y-125672000D02*
X114546095Y-125720381D01*
X115974666Y-125430095D02*
X115784190Y-125430095D01*
X115784190Y-125430095D02*
X115688952Y-125478476D01*
X115688952Y-125478476D02*
X115641333Y-125526857D01*
X115641333Y-125526857D02*
X115546095Y-125672000D01*
X115546095Y-125672000D02*
X115498476Y-125865524D01*
X115498476Y-125865524D02*
X115498476Y-126252572D01*
X115498476Y-126252572D02*
X115546095Y-126349334D01*
X115546095Y-126349334D02*
X115593714Y-126397715D01*
X115593714Y-126397715D02*
X115688952Y-126446095D01*
X115688952Y-126446095D02*
X115879428Y-126446095D01*
X115879428Y-126446095D02*
X115974666Y-126397715D01*
X115974666Y-126397715D02*
X116022285Y-126349334D01*
X116022285Y-126349334D02*
X116069904Y-126252572D01*
X116069904Y-126252572D02*
X116069904Y-126010667D01*
X116069904Y-126010667D02*
X116022285Y-125913905D01*
X116022285Y-125913905D02*
X115974666Y-125865524D01*
X115974666Y-125865524D02*
X115879428Y-125817143D01*
X115879428Y-125817143D02*
X115688952Y-125817143D01*
X115688952Y-125817143D02*
X115593714Y-125865524D01*
X115593714Y-125865524D02*
X115546095Y-125913905D01*
X115546095Y-125913905D02*
X115498476Y-126010667D01*
X167646933Y-141077694D02*
X167313600Y-140593885D01*
X167075505Y-141077694D02*
X167075505Y-140061694D01*
X167075505Y-140061694D02*
X167456457Y-140061694D01*
X167456457Y-140061694D02*
X167551695Y-140110075D01*
X167551695Y-140110075D02*
X167599314Y-140158456D01*
X167599314Y-140158456D02*
X167646933Y-140255218D01*
X167646933Y-140255218D02*
X167646933Y-140400361D01*
X167646933Y-140400361D02*
X167599314Y-140497123D01*
X167599314Y-140497123D02*
X167551695Y-140545504D01*
X167551695Y-140545504D02*
X167456457Y-140593885D01*
X167456457Y-140593885D02*
X167075505Y-140593885D01*
X168504076Y-140400361D02*
X168504076Y-141077694D01*
X168265981Y-140013314D02*
X168027886Y-140739028D01*
X168027886Y-140739028D02*
X168646933Y-140739028D01*
X115993333Y-111206095D02*
X115993333Y-111931810D01*
X115993333Y-111931810D02*
X115944952Y-112076953D01*
X115944952Y-112076953D02*
X115848190Y-112173715D01*
X115848190Y-112173715D02*
X115703047Y-112222095D01*
X115703047Y-112222095D02*
X115606285Y-112222095D01*
X116380380Y-111206095D02*
X117057714Y-111206095D01*
X117057714Y-111206095D02*
X116622285Y-112222095D01*
X113053905Y-106126095D02*
X113053905Y-105110095D01*
X113053905Y-105110095D02*
X113292000Y-105110095D01*
X113292000Y-105110095D02*
X113434857Y-105158476D01*
X113434857Y-105158476D02*
X113530095Y-105255238D01*
X113530095Y-105255238D02*
X113577714Y-105352000D01*
X113577714Y-105352000D02*
X113625333Y-105545524D01*
X113625333Y-105545524D02*
X113625333Y-105690667D01*
X113625333Y-105690667D02*
X113577714Y-105884191D01*
X113577714Y-105884191D02*
X113530095Y-105980953D01*
X113530095Y-105980953D02*
X113434857Y-106077715D01*
X113434857Y-106077715D02*
X113292000Y-106126095D01*
X113292000Y-106126095D02*
X113053905Y-106126095D01*
X114577714Y-106126095D02*
X114006286Y-106126095D01*
X114292000Y-106126095D02*
X114292000Y-105110095D01*
X114292000Y-105110095D02*
X114196762Y-105255238D01*
X114196762Y-105255238D02*
X114101524Y-105352000D01*
X114101524Y-105352000D02*
X114006286Y-105400381D01*
X167646933Y-122789694D02*
X167313600Y-122305885D01*
X167075505Y-122789694D02*
X167075505Y-121773694D01*
X167075505Y-121773694D02*
X167456457Y-121773694D01*
X167456457Y-121773694D02*
X167551695Y-121822075D01*
X167551695Y-121822075D02*
X167599314Y-121870456D01*
X167599314Y-121870456D02*
X167646933Y-121967218D01*
X167646933Y-121967218D02*
X167646933Y-122112361D01*
X167646933Y-122112361D02*
X167599314Y-122209123D01*
X167599314Y-122209123D02*
X167551695Y-122257504D01*
X167551695Y-122257504D02*
X167456457Y-122305885D01*
X167456457Y-122305885D02*
X167075505Y-122305885D01*
X167980267Y-121773694D02*
X168646933Y-121773694D01*
X168646933Y-121773694D02*
X168218362Y-122789694D01*
X95265642Y-146258095D02*
X94932309Y-145774286D01*
X94694214Y-146258095D02*
X94694214Y-145242095D01*
X94694214Y-145242095D02*
X95075166Y-145242095D01*
X95075166Y-145242095D02*
X95170404Y-145290476D01*
X95170404Y-145290476D02*
X95218023Y-145338857D01*
X95218023Y-145338857D02*
X95265642Y-145435619D01*
X95265642Y-145435619D02*
X95265642Y-145580762D01*
X95265642Y-145580762D02*
X95218023Y-145677524D01*
X95218023Y-145677524D02*
X95170404Y-145725905D01*
X95170404Y-145725905D02*
X95075166Y-145774286D01*
X95075166Y-145774286D02*
X94694214Y-145774286D01*
X96218023Y-146258095D02*
X95646595Y-146258095D01*
X95932309Y-146258095D02*
X95932309Y-145242095D01*
X95932309Y-145242095D02*
X95837071Y-145387238D01*
X95837071Y-145387238D02*
X95741833Y-145484000D01*
X95741833Y-145484000D02*
X95646595Y-145532381D01*
X96789452Y-145677524D02*
X96694214Y-145629143D01*
X96694214Y-145629143D02*
X96646595Y-145580762D01*
X96646595Y-145580762D02*
X96598976Y-145484000D01*
X96598976Y-145484000D02*
X96598976Y-145435619D01*
X96598976Y-145435619D02*
X96646595Y-145338857D01*
X96646595Y-145338857D02*
X96694214Y-145290476D01*
X96694214Y-145290476D02*
X96789452Y-145242095D01*
X96789452Y-145242095D02*
X96979928Y-145242095D01*
X96979928Y-145242095D02*
X97075166Y-145290476D01*
X97075166Y-145290476D02*
X97122785Y-145338857D01*
X97122785Y-145338857D02*
X97170404Y-145435619D01*
X97170404Y-145435619D02*
X97170404Y-145484000D01*
X97170404Y-145484000D02*
X97122785Y-145580762D01*
X97122785Y-145580762D02*
X97075166Y-145629143D01*
X97075166Y-145629143D02*
X96979928Y-145677524D01*
X96979928Y-145677524D02*
X96789452Y-145677524D01*
X96789452Y-145677524D02*
X96694214Y-145725905D01*
X96694214Y-145725905D02*
X96646595Y-145774286D01*
X96646595Y-145774286D02*
X96598976Y-145871048D01*
X96598976Y-145871048D02*
X96598976Y-146064572D01*
X96598976Y-146064572D02*
X96646595Y-146161334D01*
X96646595Y-146161334D02*
X96694214Y-146209715D01*
X96694214Y-146209715D02*
X96789452Y-146258095D01*
X96789452Y-146258095D02*
X96979928Y-146258095D01*
X96979928Y-146258095D02*
X97075166Y-146209715D01*
X97075166Y-146209715D02*
X97122785Y-146161334D01*
X97122785Y-146161334D02*
X97170404Y-146064572D01*
X97170404Y-146064572D02*
X97170404Y-145871048D01*
X97170404Y-145871048D02*
X97122785Y-145774286D01*
X97122785Y-145774286D02*
X97075166Y-145725905D01*
X97075166Y-145725905D02*
X96979928Y-145677524D01*
X148097642Y-137876095D02*
X147764309Y-137392286D01*
X147526214Y-137876095D02*
X147526214Y-136860095D01*
X147526214Y-136860095D02*
X147907166Y-136860095D01*
X147907166Y-136860095D02*
X148002404Y-136908476D01*
X148002404Y-136908476D02*
X148050023Y-136956857D01*
X148050023Y-136956857D02*
X148097642Y-137053619D01*
X148097642Y-137053619D02*
X148097642Y-137198762D01*
X148097642Y-137198762D02*
X148050023Y-137295524D01*
X148050023Y-137295524D02*
X148002404Y-137343905D01*
X148002404Y-137343905D02*
X147907166Y-137392286D01*
X147907166Y-137392286D02*
X147526214Y-137392286D01*
X149050023Y-137876095D02*
X148478595Y-137876095D01*
X148764309Y-137876095D02*
X148764309Y-136860095D01*
X148764309Y-136860095D02*
X148669071Y-137005238D01*
X148669071Y-137005238D02*
X148573833Y-137102000D01*
X148573833Y-137102000D02*
X148478595Y-137150381D01*
X149907166Y-137198762D02*
X149907166Y-137876095D01*
X149669071Y-136811715D02*
X149430976Y-137537429D01*
X149430976Y-137537429D02*
X150050023Y-137537429D01*
X104602095Y-127653142D02*
X104118286Y-127991809D01*
X104602095Y-128233714D02*
X103586095Y-128233714D01*
X103586095Y-128233714D02*
X103586095Y-127846666D01*
X103586095Y-127846666D02*
X103634476Y-127749904D01*
X103634476Y-127749904D02*
X103682857Y-127701523D01*
X103682857Y-127701523D02*
X103779619Y-127653142D01*
X103779619Y-127653142D02*
X103924762Y-127653142D01*
X103924762Y-127653142D02*
X104021524Y-127701523D01*
X104021524Y-127701523D02*
X104069905Y-127749904D01*
X104069905Y-127749904D02*
X104118286Y-127846666D01*
X104118286Y-127846666D02*
X104118286Y-128233714D01*
X104602095Y-126685523D02*
X104602095Y-127266095D01*
X104602095Y-126975809D02*
X103586095Y-126975809D01*
X103586095Y-126975809D02*
X103731238Y-127072571D01*
X103731238Y-127072571D02*
X103828000Y-127169333D01*
X103828000Y-127169333D02*
X103876381Y-127266095D01*
X103586095Y-126346857D02*
X103586095Y-125669523D01*
X103586095Y-125669523D02*
X104602095Y-126104952D01*
X62175528Y-82018354D02*
X62647243Y-82018354D01*
X62081185Y-82308639D02*
X62411385Y-81292639D01*
X62411385Y-81292639D02*
X62741585Y-82308639D01*
X63071786Y-82308639D02*
X63071786Y-81631306D01*
X63071786Y-81824830D02*
X63118957Y-81728068D01*
X63118957Y-81728068D02*
X63166129Y-81679687D01*
X63166129Y-81679687D02*
X63260471Y-81631306D01*
X63260471Y-81631306D02*
X63354814Y-81631306D01*
X64109558Y-82260259D02*
X64015215Y-82308639D01*
X64015215Y-82308639D02*
X63826529Y-82308639D01*
X63826529Y-82308639D02*
X63732186Y-82260259D01*
X63732186Y-82260259D02*
X63685015Y-82211878D01*
X63685015Y-82211878D02*
X63637843Y-82115116D01*
X63637843Y-82115116D02*
X63637843Y-81824830D01*
X63637843Y-81824830D02*
X63685015Y-81728068D01*
X63685015Y-81728068D02*
X63732186Y-81679687D01*
X63732186Y-81679687D02*
X63826529Y-81631306D01*
X63826529Y-81631306D02*
X64015215Y-81631306D01*
X64015215Y-81631306D02*
X64109558Y-81679687D01*
X64534101Y-82308639D02*
X64534101Y-81292639D01*
X64958644Y-82308639D02*
X64958644Y-81776449D01*
X64958644Y-81776449D02*
X64911472Y-81679687D01*
X64911472Y-81679687D02*
X64817129Y-81631306D01*
X64817129Y-81631306D02*
X64675615Y-81631306D01*
X64675615Y-81631306D02*
X64581272Y-81679687D01*
X64581272Y-81679687D02*
X64534101Y-81728068D01*
X65430358Y-82308639D02*
X65430358Y-81631306D01*
X65430358Y-81292639D02*
X65383186Y-81341020D01*
X65383186Y-81341020D02*
X65430358Y-81389401D01*
X65430358Y-81389401D02*
X65477529Y-81341020D01*
X65477529Y-81341020D02*
X65430358Y-81292639D01*
X65430358Y-81292639D02*
X65430358Y-81389401D01*
X65760557Y-81631306D02*
X66137929Y-81631306D01*
X65902072Y-81292639D02*
X65902072Y-82163497D01*
X65902072Y-82163497D02*
X65949243Y-82260259D01*
X65949243Y-82260259D02*
X66043586Y-82308639D01*
X66043586Y-82308639D02*
X66137929Y-82308639D01*
X66845500Y-82260259D02*
X66751157Y-82308639D01*
X66751157Y-82308639D02*
X66562472Y-82308639D01*
X66562472Y-82308639D02*
X66468129Y-82260259D01*
X66468129Y-82260259D02*
X66420957Y-82163497D01*
X66420957Y-82163497D02*
X66420957Y-81776449D01*
X66420957Y-81776449D02*
X66468129Y-81679687D01*
X66468129Y-81679687D02*
X66562472Y-81631306D01*
X66562472Y-81631306D02*
X66751157Y-81631306D01*
X66751157Y-81631306D02*
X66845500Y-81679687D01*
X66845500Y-81679687D02*
X66892672Y-81776449D01*
X66892672Y-81776449D02*
X66892672Y-81873211D01*
X66892672Y-81873211D02*
X66420957Y-81969973D01*
X67741758Y-82260259D02*
X67647415Y-82308639D01*
X67647415Y-82308639D02*
X67458729Y-82308639D01*
X67458729Y-82308639D02*
X67364386Y-82260259D01*
X67364386Y-82260259D02*
X67317215Y-82211878D01*
X67317215Y-82211878D02*
X67270043Y-82115116D01*
X67270043Y-82115116D02*
X67270043Y-81824830D01*
X67270043Y-81824830D02*
X67317215Y-81728068D01*
X67317215Y-81728068D02*
X67364386Y-81679687D01*
X67364386Y-81679687D02*
X67458729Y-81631306D01*
X67458729Y-81631306D02*
X67647415Y-81631306D01*
X67647415Y-81631306D02*
X67741758Y-81679687D01*
X68024786Y-81631306D02*
X68402158Y-81631306D01*
X68166301Y-81292639D02*
X68166301Y-82163497D01*
X68166301Y-82163497D02*
X68213472Y-82260259D01*
X68213472Y-82260259D02*
X68307815Y-82308639D01*
X68307815Y-82308639D02*
X68402158Y-82308639D01*
X68732358Y-82211878D02*
X68779529Y-82260259D01*
X68779529Y-82260259D02*
X68732358Y-82308639D01*
X68732358Y-82308639D02*
X68685186Y-82260259D01*
X68685186Y-82260259D02*
X68732358Y-82211878D01*
X68732358Y-82211878D02*
X68732358Y-82308639D01*
X68732358Y-81679687D02*
X68779529Y-81728068D01*
X68779529Y-81728068D02*
X68732358Y-81776449D01*
X68732358Y-81776449D02*
X68685186Y-81728068D01*
X68685186Y-81728068D02*
X68732358Y-81679687D01*
X68732358Y-81679687D02*
X68732358Y-81776449D01*
X69958815Y-81776449D02*
X70289015Y-81776449D01*
X70430529Y-82308639D02*
X69958815Y-82308639D01*
X69958815Y-82308639D02*
X69958815Y-81292639D01*
X69958815Y-81292639D02*
X70430529Y-81292639D01*
X71279615Y-82308639D02*
X71279615Y-81292639D01*
X71279615Y-82260259D02*
X71185272Y-82308639D01*
X71185272Y-82308639D02*
X70996586Y-82308639D01*
X70996586Y-82308639D02*
X70902243Y-82260259D01*
X70902243Y-82260259D02*
X70855072Y-82211878D01*
X70855072Y-82211878D02*
X70807900Y-82115116D01*
X70807900Y-82115116D02*
X70807900Y-81824830D01*
X70807900Y-81824830D02*
X70855072Y-81728068D01*
X70855072Y-81728068D02*
X70902243Y-81679687D01*
X70902243Y-81679687D02*
X70996586Y-81631306D01*
X70996586Y-81631306D02*
X71185272Y-81631306D01*
X71185272Y-81631306D02*
X71279615Y-81679687D01*
X71751329Y-82308639D02*
X71751329Y-81631306D01*
X71751329Y-81728068D02*
X71798500Y-81679687D01*
X71798500Y-81679687D02*
X71892843Y-81631306D01*
X71892843Y-81631306D02*
X72034357Y-81631306D01*
X72034357Y-81631306D02*
X72128700Y-81679687D01*
X72128700Y-81679687D02*
X72175872Y-81776449D01*
X72175872Y-81776449D02*
X72175872Y-82308639D01*
X72175872Y-81776449D02*
X72223043Y-81679687D01*
X72223043Y-81679687D02*
X72317386Y-81631306D01*
X72317386Y-81631306D02*
X72458900Y-81631306D01*
X72458900Y-81631306D02*
X72553243Y-81679687D01*
X72553243Y-81679687D02*
X72600414Y-81776449D01*
X72600414Y-81776449D02*
X72600414Y-82308639D01*
X73496672Y-81631306D02*
X73496672Y-82308639D01*
X73072129Y-81631306D02*
X73072129Y-82163497D01*
X73072129Y-82163497D02*
X73119300Y-82260259D01*
X73119300Y-82260259D02*
X73213643Y-82308639D01*
X73213643Y-82308639D02*
X73355157Y-82308639D01*
X73355157Y-82308639D02*
X73449500Y-82260259D01*
X73449500Y-82260259D02*
X73496672Y-82211878D01*
X73968386Y-81631306D02*
X73968386Y-82308639D01*
X73968386Y-81728068D02*
X74015557Y-81679687D01*
X74015557Y-81679687D02*
X74109900Y-81631306D01*
X74109900Y-81631306D02*
X74251414Y-81631306D01*
X74251414Y-81631306D02*
X74345757Y-81679687D01*
X74345757Y-81679687D02*
X74392929Y-81776449D01*
X74392929Y-81776449D02*
X74392929Y-82308639D01*
X75289186Y-82308639D02*
X75289186Y-81292639D01*
X75289186Y-82260259D02*
X75194843Y-82308639D01*
X75194843Y-82308639D02*
X75006157Y-82308639D01*
X75006157Y-82308639D02*
X74911814Y-82260259D01*
X74911814Y-82260259D02*
X74864643Y-82211878D01*
X74864643Y-82211878D02*
X74817471Y-82115116D01*
X74817471Y-82115116D02*
X74817471Y-81824830D01*
X74817471Y-81824830D02*
X74864643Y-81728068D01*
X74864643Y-81728068D02*
X74911814Y-81679687D01*
X74911814Y-81679687D02*
X75006157Y-81631306D01*
X75006157Y-81631306D02*
X75194843Y-81631306D01*
X75194843Y-81631306D02*
X75289186Y-81679687D01*
X76987357Y-82308639D02*
X76515643Y-82308639D01*
X76515643Y-82308639D02*
X76515643Y-81292639D01*
X77742100Y-82308639D02*
X77742100Y-81776449D01*
X77742100Y-81776449D02*
X77694928Y-81679687D01*
X77694928Y-81679687D02*
X77600585Y-81631306D01*
X77600585Y-81631306D02*
X77411900Y-81631306D01*
X77411900Y-81631306D02*
X77317557Y-81679687D01*
X77742100Y-82260259D02*
X77647757Y-82308639D01*
X77647757Y-82308639D02*
X77411900Y-82308639D01*
X77411900Y-82308639D02*
X77317557Y-82260259D01*
X77317557Y-82260259D02*
X77270385Y-82163497D01*
X77270385Y-82163497D02*
X77270385Y-82066735D01*
X77270385Y-82066735D02*
X77317557Y-81969973D01*
X77317557Y-81969973D02*
X77411900Y-81921592D01*
X77411900Y-81921592D02*
X77647757Y-81921592D01*
X77647757Y-81921592D02*
X77742100Y-81873211D01*
X78213814Y-82308639D02*
X78213814Y-81631306D01*
X78213814Y-81292639D02*
X78166642Y-81341020D01*
X78166642Y-81341020D02*
X78213814Y-81389401D01*
X78213814Y-81389401D02*
X78260985Y-81341020D01*
X78260985Y-81341020D02*
X78213814Y-81292639D01*
X78213814Y-81292639D02*
X78213814Y-81389401D01*
X62552900Y-80252449D02*
X62222700Y-80252449D01*
X62222700Y-80784639D02*
X62222700Y-79768639D01*
X62222700Y-79768639D02*
X62694414Y-79768639D01*
X63024614Y-80736259D02*
X63166129Y-80784639D01*
X63166129Y-80784639D02*
X63401986Y-80784639D01*
X63401986Y-80784639D02*
X63496329Y-80736259D01*
X63496329Y-80736259D02*
X63543500Y-80687878D01*
X63543500Y-80687878D02*
X63590671Y-80591116D01*
X63590671Y-80591116D02*
X63590671Y-80494354D01*
X63590671Y-80494354D02*
X63543500Y-80397592D01*
X63543500Y-80397592D02*
X63496329Y-80349211D01*
X63496329Y-80349211D02*
X63401986Y-80300830D01*
X63401986Y-80300830D02*
X63213300Y-80252449D01*
X63213300Y-80252449D02*
X63118957Y-80204068D01*
X63118957Y-80204068D02*
X63071786Y-80155687D01*
X63071786Y-80155687D02*
X63024614Y-80058925D01*
X63024614Y-80058925D02*
X63024614Y-79962163D01*
X63024614Y-79962163D02*
X63071786Y-79865401D01*
X63071786Y-79865401D02*
X63118957Y-79817020D01*
X63118957Y-79817020D02*
X63213300Y-79768639D01*
X63213300Y-79768639D02*
X63449157Y-79768639D01*
X63449157Y-79768639D02*
X63590671Y-79817020D01*
X64015215Y-80397592D02*
X64769958Y-80397592D01*
X65666215Y-80107306D02*
X65666215Y-80784639D01*
X65430357Y-79720259D02*
X65194500Y-80445973D01*
X65194500Y-80445973D02*
X65807729Y-80445973D01*
X66939844Y-80784639D02*
X66939844Y-79768639D01*
X66939844Y-79768639D02*
X67317215Y-79768639D01*
X67317215Y-79768639D02*
X67411558Y-79817020D01*
X67411558Y-79817020D02*
X67458729Y-79865401D01*
X67458729Y-79865401D02*
X67505901Y-79962163D01*
X67505901Y-79962163D02*
X67505901Y-80107306D01*
X67505901Y-80107306D02*
X67458729Y-80204068D01*
X67458729Y-80204068D02*
X67411558Y-80252449D01*
X67411558Y-80252449D02*
X67317215Y-80300830D01*
X67317215Y-80300830D02*
X66939844Y-80300830D01*
X68071958Y-80784639D02*
X67977615Y-80736259D01*
X67977615Y-80736259D02*
X67930444Y-80687878D01*
X67930444Y-80687878D02*
X67883272Y-80591116D01*
X67883272Y-80591116D02*
X67883272Y-80300830D01*
X67883272Y-80300830D02*
X67930444Y-80204068D01*
X67930444Y-80204068D02*
X67977615Y-80155687D01*
X67977615Y-80155687D02*
X68071958Y-80107306D01*
X68071958Y-80107306D02*
X68213472Y-80107306D01*
X68213472Y-80107306D02*
X68307815Y-80155687D01*
X68307815Y-80155687D02*
X68354987Y-80204068D01*
X68354987Y-80204068D02*
X68402158Y-80300830D01*
X68402158Y-80300830D02*
X68402158Y-80591116D01*
X68402158Y-80591116D02*
X68354987Y-80687878D01*
X68354987Y-80687878D02*
X68307815Y-80736259D01*
X68307815Y-80736259D02*
X68213472Y-80784639D01*
X68213472Y-80784639D02*
X68071958Y-80784639D01*
X68732358Y-80107306D02*
X68921044Y-80784639D01*
X68921044Y-80784639D02*
X69109729Y-80300830D01*
X69109729Y-80300830D02*
X69298415Y-80784639D01*
X69298415Y-80784639D02*
X69487101Y-80107306D01*
X70241843Y-80736259D02*
X70147500Y-80784639D01*
X70147500Y-80784639D02*
X69958815Y-80784639D01*
X69958815Y-80784639D02*
X69864472Y-80736259D01*
X69864472Y-80736259D02*
X69817300Y-80639497D01*
X69817300Y-80639497D02*
X69817300Y-80252449D01*
X69817300Y-80252449D02*
X69864472Y-80155687D01*
X69864472Y-80155687D02*
X69958815Y-80107306D01*
X69958815Y-80107306D02*
X70147500Y-80107306D01*
X70147500Y-80107306D02*
X70241843Y-80155687D01*
X70241843Y-80155687D02*
X70289015Y-80252449D01*
X70289015Y-80252449D02*
X70289015Y-80349211D01*
X70289015Y-80349211D02*
X69817300Y-80445973D01*
X70713558Y-80784639D02*
X70713558Y-80107306D01*
X70713558Y-80300830D02*
X70760729Y-80204068D01*
X70760729Y-80204068D02*
X70807901Y-80155687D01*
X70807901Y-80155687D02*
X70902243Y-80107306D01*
X70902243Y-80107306D02*
X70996586Y-80107306D01*
X72081530Y-80252449D02*
X72411730Y-80252449D01*
X72553244Y-80784639D02*
X72081530Y-80784639D01*
X72081530Y-80784639D02*
X72081530Y-79768639D01*
X72081530Y-79768639D02*
X72553244Y-79768639D01*
X73119301Y-80784639D02*
X73024958Y-80736259D01*
X73024958Y-80736259D02*
X72977787Y-80639497D01*
X72977787Y-80639497D02*
X72977787Y-79768639D01*
X73874044Y-80736259D02*
X73779701Y-80784639D01*
X73779701Y-80784639D02*
X73591016Y-80784639D01*
X73591016Y-80784639D02*
X73496673Y-80736259D01*
X73496673Y-80736259D02*
X73449501Y-80639497D01*
X73449501Y-80639497D02*
X73449501Y-80252449D01*
X73449501Y-80252449D02*
X73496673Y-80155687D01*
X73496673Y-80155687D02*
X73591016Y-80107306D01*
X73591016Y-80107306D02*
X73779701Y-80107306D01*
X73779701Y-80107306D02*
X73874044Y-80155687D01*
X73874044Y-80155687D02*
X73921216Y-80252449D01*
X73921216Y-80252449D02*
X73921216Y-80349211D01*
X73921216Y-80349211D02*
X73449501Y-80445973D01*
X74770302Y-80736259D02*
X74675959Y-80784639D01*
X74675959Y-80784639D02*
X74487273Y-80784639D01*
X74487273Y-80784639D02*
X74392930Y-80736259D01*
X74392930Y-80736259D02*
X74345759Y-80687878D01*
X74345759Y-80687878D02*
X74298587Y-80591116D01*
X74298587Y-80591116D02*
X74298587Y-80300830D01*
X74298587Y-80300830D02*
X74345759Y-80204068D01*
X74345759Y-80204068D02*
X74392930Y-80155687D01*
X74392930Y-80155687D02*
X74487273Y-80107306D01*
X74487273Y-80107306D02*
X74675959Y-80107306D01*
X74675959Y-80107306D02*
X74770302Y-80155687D01*
X75053330Y-80107306D02*
X75430702Y-80107306D01*
X75194845Y-79768639D02*
X75194845Y-80639497D01*
X75194845Y-80639497D02*
X75242016Y-80736259D01*
X75242016Y-80736259D02*
X75336359Y-80784639D01*
X75336359Y-80784639D02*
X75430702Y-80784639D01*
X75760902Y-80784639D02*
X75760902Y-80107306D01*
X75760902Y-80300830D02*
X75808073Y-80204068D01*
X75808073Y-80204068D02*
X75855245Y-80155687D01*
X75855245Y-80155687D02*
X75949587Y-80107306D01*
X75949587Y-80107306D02*
X76043930Y-80107306D01*
X76515645Y-80784639D02*
X76421302Y-80736259D01*
X76421302Y-80736259D02*
X76374131Y-80687878D01*
X76374131Y-80687878D02*
X76326959Y-80591116D01*
X76326959Y-80591116D02*
X76326959Y-80300830D01*
X76326959Y-80300830D02*
X76374131Y-80204068D01*
X76374131Y-80204068D02*
X76421302Y-80155687D01*
X76421302Y-80155687D02*
X76515645Y-80107306D01*
X76515645Y-80107306D02*
X76657159Y-80107306D01*
X76657159Y-80107306D02*
X76751502Y-80155687D01*
X76751502Y-80155687D02*
X76798674Y-80204068D01*
X76798674Y-80204068D02*
X76845845Y-80300830D01*
X76845845Y-80300830D02*
X76845845Y-80591116D01*
X76845845Y-80591116D02*
X76798674Y-80687878D01*
X76798674Y-80687878D02*
X76751502Y-80736259D01*
X76751502Y-80736259D02*
X76657159Y-80784639D01*
X76657159Y-80784639D02*
X76515645Y-80784639D01*
X77270388Y-80107306D02*
X77270388Y-80784639D01*
X77270388Y-80204068D02*
X77317559Y-80155687D01*
X77317559Y-80155687D02*
X77411902Y-80107306D01*
X77411902Y-80107306D02*
X77553416Y-80107306D01*
X77553416Y-80107306D02*
X77647759Y-80155687D01*
X77647759Y-80155687D02*
X77694931Y-80252449D01*
X77694931Y-80252449D02*
X77694931Y-80784639D01*
X78166645Y-80784639D02*
X78166645Y-80107306D01*
X78166645Y-79768639D02*
X78119473Y-79817020D01*
X78119473Y-79817020D02*
X78166645Y-79865401D01*
X78166645Y-79865401D02*
X78213816Y-79817020D01*
X78213816Y-79817020D02*
X78166645Y-79768639D01*
X78166645Y-79768639D02*
X78166645Y-79865401D01*
X79062902Y-80736259D02*
X78968559Y-80784639D01*
X78968559Y-80784639D02*
X78779873Y-80784639D01*
X78779873Y-80784639D02*
X78685530Y-80736259D01*
X78685530Y-80736259D02*
X78638359Y-80687878D01*
X78638359Y-80687878D02*
X78591187Y-80591116D01*
X78591187Y-80591116D02*
X78591187Y-80300830D01*
X78591187Y-80300830D02*
X78638359Y-80204068D01*
X78638359Y-80204068D02*
X78685530Y-80155687D01*
X78685530Y-80155687D02*
X78779873Y-80107306D01*
X78779873Y-80107306D02*
X78968559Y-80107306D01*
X78968559Y-80107306D02*
X79062902Y-80155687D01*
X79440273Y-80736259D02*
X79534616Y-80784639D01*
X79534616Y-80784639D02*
X79723302Y-80784639D01*
X79723302Y-80784639D02*
X79817645Y-80736259D01*
X79817645Y-80736259D02*
X79864816Y-80639497D01*
X79864816Y-80639497D02*
X79864816Y-80591116D01*
X79864816Y-80591116D02*
X79817645Y-80494354D01*
X79817645Y-80494354D02*
X79723302Y-80445973D01*
X79723302Y-80445973D02*
X79581788Y-80445973D01*
X79581788Y-80445973D02*
X79487445Y-80397592D01*
X79487445Y-80397592D02*
X79440273Y-80300830D01*
X79440273Y-80300830D02*
X79440273Y-80252449D01*
X79440273Y-80252449D02*
X79487445Y-80155687D01*
X79487445Y-80155687D02*
X79581788Y-80107306D01*
X79581788Y-80107306D02*
X79723302Y-80107306D01*
X79723302Y-80107306D02*
X79817645Y-80155687D01*
X81374302Y-80252449D02*
X81515816Y-80300830D01*
X81515816Y-80300830D02*
X81562987Y-80349211D01*
X81562987Y-80349211D02*
X81610159Y-80445973D01*
X81610159Y-80445973D02*
X81610159Y-80591116D01*
X81610159Y-80591116D02*
X81562987Y-80687878D01*
X81562987Y-80687878D02*
X81515816Y-80736259D01*
X81515816Y-80736259D02*
X81421473Y-80784639D01*
X81421473Y-80784639D02*
X81044102Y-80784639D01*
X81044102Y-80784639D02*
X81044102Y-79768639D01*
X81044102Y-79768639D02*
X81374302Y-79768639D01*
X81374302Y-79768639D02*
X81468645Y-79817020D01*
X81468645Y-79817020D02*
X81515816Y-79865401D01*
X81515816Y-79865401D02*
X81562987Y-79962163D01*
X81562987Y-79962163D02*
X81562987Y-80058925D01*
X81562987Y-80058925D02*
X81515816Y-80155687D01*
X81515816Y-80155687D02*
X81468645Y-80204068D01*
X81468645Y-80204068D02*
X81374302Y-80252449D01*
X81374302Y-80252449D02*
X81044102Y-80252449D01*
X82176216Y-80784639D02*
X82081873Y-80736259D01*
X82081873Y-80736259D02*
X82034702Y-80687878D01*
X82034702Y-80687878D02*
X81987530Y-80591116D01*
X81987530Y-80591116D02*
X81987530Y-80300830D01*
X81987530Y-80300830D02*
X82034702Y-80204068D01*
X82034702Y-80204068D02*
X82081873Y-80155687D01*
X82081873Y-80155687D02*
X82176216Y-80107306D01*
X82176216Y-80107306D02*
X82317730Y-80107306D01*
X82317730Y-80107306D02*
X82412073Y-80155687D01*
X82412073Y-80155687D02*
X82459245Y-80204068D01*
X82459245Y-80204068D02*
X82506416Y-80300830D01*
X82506416Y-80300830D02*
X82506416Y-80591116D01*
X82506416Y-80591116D02*
X82459245Y-80687878D01*
X82459245Y-80687878D02*
X82412073Y-80736259D01*
X82412073Y-80736259D02*
X82317730Y-80784639D01*
X82317730Y-80784639D02*
X82176216Y-80784639D01*
X83355502Y-80784639D02*
X83355502Y-80252449D01*
X83355502Y-80252449D02*
X83308330Y-80155687D01*
X83308330Y-80155687D02*
X83213987Y-80107306D01*
X83213987Y-80107306D02*
X83025302Y-80107306D01*
X83025302Y-80107306D02*
X82930959Y-80155687D01*
X83355502Y-80736259D02*
X83261159Y-80784639D01*
X83261159Y-80784639D02*
X83025302Y-80784639D01*
X83025302Y-80784639D02*
X82930959Y-80736259D01*
X82930959Y-80736259D02*
X82883787Y-80639497D01*
X82883787Y-80639497D02*
X82883787Y-80542735D01*
X82883787Y-80542735D02*
X82930959Y-80445973D01*
X82930959Y-80445973D02*
X83025302Y-80397592D01*
X83025302Y-80397592D02*
X83261159Y-80397592D01*
X83261159Y-80397592D02*
X83355502Y-80349211D01*
X83827216Y-80784639D02*
X83827216Y-80107306D01*
X83827216Y-80300830D02*
X83874387Y-80204068D01*
X83874387Y-80204068D02*
X83921559Y-80155687D01*
X83921559Y-80155687D02*
X84015901Y-80107306D01*
X84015901Y-80107306D02*
X84110244Y-80107306D01*
X84864988Y-80784639D02*
X84864988Y-79768639D01*
X84864988Y-80736259D02*
X84770645Y-80784639D01*
X84770645Y-80784639D02*
X84581959Y-80784639D01*
X84581959Y-80784639D02*
X84487616Y-80736259D01*
X84487616Y-80736259D02*
X84440445Y-80687878D01*
X84440445Y-80687878D02*
X84393273Y-80591116D01*
X84393273Y-80591116D02*
X84393273Y-80300830D01*
X84393273Y-80300830D02*
X84440445Y-80204068D01*
X84440445Y-80204068D02*
X84487616Y-80155687D01*
X84487616Y-80155687D02*
X84581959Y-80107306D01*
X84581959Y-80107306D02*
X84770645Y-80107306D01*
X84770645Y-80107306D02*
X84864988Y-80155687D01*
X85949930Y-79768639D02*
X86280130Y-80784639D01*
X86280130Y-80784639D02*
X86610330Y-79768639D01*
X86846188Y-79768639D02*
X87459416Y-79768639D01*
X87459416Y-79768639D02*
X87129216Y-80155687D01*
X87129216Y-80155687D02*
X87270731Y-80155687D01*
X87270731Y-80155687D02*
X87365074Y-80204068D01*
X87365074Y-80204068D02*
X87412245Y-80252449D01*
X87412245Y-80252449D02*
X87459416Y-80349211D01*
X87459416Y-80349211D02*
X87459416Y-80591116D01*
X87459416Y-80591116D02*
X87412245Y-80687878D01*
X87412245Y-80687878D02*
X87365074Y-80736259D01*
X87365074Y-80736259D02*
X87270731Y-80784639D01*
X87270731Y-80784639D02*
X86987702Y-80784639D01*
X86987702Y-80784639D02*
X86893359Y-80736259D01*
X86893359Y-80736259D02*
X86846188Y-80687878D01*
X87883960Y-80687878D02*
X87931131Y-80736259D01*
X87931131Y-80736259D02*
X87883960Y-80784639D01*
X87883960Y-80784639D02*
X87836788Y-80736259D01*
X87836788Y-80736259D02*
X87883960Y-80687878D01*
X87883960Y-80687878D02*
X87883960Y-80784639D01*
X88544359Y-79768639D02*
X88638702Y-79768639D01*
X88638702Y-79768639D02*
X88733045Y-79817020D01*
X88733045Y-79817020D02*
X88780217Y-79865401D01*
X88780217Y-79865401D02*
X88827388Y-79962163D01*
X88827388Y-79962163D02*
X88874559Y-80155687D01*
X88874559Y-80155687D02*
X88874559Y-80397592D01*
X88874559Y-80397592D02*
X88827388Y-80591116D01*
X88827388Y-80591116D02*
X88780217Y-80687878D01*
X88780217Y-80687878D02*
X88733045Y-80736259D01*
X88733045Y-80736259D02*
X88638702Y-80784639D01*
X88638702Y-80784639D02*
X88544359Y-80784639D01*
X88544359Y-80784639D02*
X88450017Y-80736259D01*
X88450017Y-80736259D02*
X88402845Y-80687878D01*
X88402845Y-80687878D02*
X88355674Y-80591116D01*
X88355674Y-80591116D02*
X88308502Y-80397592D01*
X88308502Y-80397592D02*
X88308502Y-80155687D01*
X88308502Y-80155687D02*
X88355674Y-79962163D01*
X88355674Y-79962163D02*
X88402845Y-79865401D01*
X88402845Y-79865401D02*
X88450017Y-79817020D01*
X88450017Y-79817020D02*
X88544359Y-79768639D01*
X62552900Y-78728449D02*
X62222700Y-78728449D01*
X62222700Y-79260639D02*
X62222700Y-78244639D01*
X62222700Y-78244639D02*
X62694414Y-78244639D01*
X63213300Y-79260639D02*
X63118957Y-79212259D01*
X63118957Y-79212259D02*
X63071786Y-79163878D01*
X63071786Y-79163878D02*
X63024614Y-79067116D01*
X63024614Y-79067116D02*
X63024614Y-78776830D01*
X63024614Y-78776830D02*
X63071786Y-78680068D01*
X63071786Y-78680068D02*
X63118957Y-78631687D01*
X63118957Y-78631687D02*
X63213300Y-78583306D01*
X63213300Y-78583306D02*
X63354814Y-78583306D01*
X63354814Y-78583306D02*
X63449157Y-78631687D01*
X63449157Y-78631687D02*
X63496329Y-78680068D01*
X63496329Y-78680068D02*
X63543500Y-78776830D01*
X63543500Y-78776830D02*
X63543500Y-79067116D01*
X63543500Y-79067116D02*
X63496329Y-79163878D01*
X63496329Y-79163878D02*
X63449157Y-79212259D01*
X63449157Y-79212259D02*
X63354814Y-79260639D01*
X63354814Y-79260639D02*
X63213300Y-79260639D01*
X63968043Y-79260639D02*
X63968043Y-78583306D01*
X63968043Y-78776830D02*
X64015214Y-78680068D01*
X64015214Y-78680068D02*
X64062386Y-78631687D01*
X64062386Y-78631687D02*
X64156728Y-78583306D01*
X64156728Y-78583306D02*
X64251071Y-78583306D01*
X64581272Y-79260639D02*
X64581272Y-78583306D01*
X64581272Y-78680068D02*
X64628443Y-78631687D01*
X64628443Y-78631687D02*
X64722786Y-78583306D01*
X64722786Y-78583306D02*
X64864300Y-78583306D01*
X64864300Y-78583306D02*
X64958643Y-78631687D01*
X64958643Y-78631687D02*
X65005815Y-78728449D01*
X65005815Y-78728449D02*
X65005815Y-79260639D01*
X65005815Y-78728449D02*
X65052986Y-78631687D01*
X65052986Y-78631687D02*
X65147329Y-78583306D01*
X65147329Y-78583306D02*
X65288843Y-78583306D01*
X65288843Y-78583306D02*
X65383186Y-78631687D01*
X65383186Y-78631687D02*
X65430357Y-78728449D01*
X65430357Y-78728449D02*
X65430357Y-79260639D01*
X66326615Y-78583306D02*
X66326615Y-79260639D01*
X65902072Y-78583306D02*
X65902072Y-79115497D01*
X65902072Y-79115497D02*
X65949243Y-79212259D01*
X65949243Y-79212259D02*
X66043586Y-79260639D01*
X66043586Y-79260639D02*
X66185100Y-79260639D01*
X66185100Y-79260639D02*
X66279443Y-79212259D01*
X66279443Y-79212259D02*
X66326615Y-79163878D01*
X66939843Y-79260639D02*
X66845500Y-79212259D01*
X66845500Y-79212259D02*
X66798329Y-79115497D01*
X66798329Y-79115497D02*
X66798329Y-78244639D01*
X67741758Y-79260639D02*
X67741758Y-78728449D01*
X67741758Y-78728449D02*
X67694586Y-78631687D01*
X67694586Y-78631687D02*
X67600243Y-78583306D01*
X67600243Y-78583306D02*
X67411558Y-78583306D01*
X67411558Y-78583306D02*
X67317215Y-78631687D01*
X67741758Y-79212259D02*
X67647415Y-79260639D01*
X67647415Y-79260639D02*
X67411558Y-79260639D01*
X67411558Y-79260639D02*
X67317215Y-79212259D01*
X67317215Y-79212259D02*
X67270043Y-79115497D01*
X67270043Y-79115497D02*
X67270043Y-79018735D01*
X67270043Y-79018735D02*
X67317215Y-78921973D01*
X67317215Y-78921973D02*
X67411558Y-78873592D01*
X67411558Y-78873592D02*
X67647415Y-78873592D01*
X67647415Y-78873592D02*
X67741758Y-78825211D01*
X68921043Y-79212259D02*
X69062558Y-79260639D01*
X69062558Y-79260639D02*
X69298415Y-79260639D01*
X69298415Y-79260639D02*
X69392758Y-79212259D01*
X69392758Y-79212259D02*
X69439929Y-79163878D01*
X69439929Y-79163878D02*
X69487100Y-79067116D01*
X69487100Y-79067116D02*
X69487100Y-78970354D01*
X69487100Y-78970354D02*
X69439929Y-78873592D01*
X69439929Y-78873592D02*
X69392758Y-78825211D01*
X69392758Y-78825211D02*
X69298415Y-78776830D01*
X69298415Y-78776830D02*
X69109729Y-78728449D01*
X69109729Y-78728449D02*
X69015386Y-78680068D01*
X69015386Y-78680068D02*
X68968215Y-78631687D01*
X68968215Y-78631687D02*
X68921043Y-78534925D01*
X68921043Y-78534925D02*
X68921043Y-78438163D01*
X68921043Y-78438163D02*
X68968215Y-78341401D01*
X68968215Y-78341401D02*
X69015386Y-78293020D01*
X69015386Y-78293020D02*
X69109729Y-78244639D01*
X69109729Y-78244639D02*
X69345586Y-78244639D01*
X69345586Y-78244639D02*
X69487100Y-78293020D01*
X70053158Y-79260639D02*
X69958815Y-79212259D01*
X69958815Y-79212259D02*
X69911644Y-79115497D01*
X69911644Y-79115497D02*
X69911644Y-78244639D01*
X70855073Y-78583306D02*
X70855073Y-79260639D01*
X70430530Y-78583306D02*
X70430530Y-79115497D01*
X70430530Y-79115497D02*
X70477701Y-79212259D01*
X70477701Y-79212259D02*
X70572044Y-79260639D01*
X70572044Y-79260639D02*
X70713558Y-79260639D01*
X70713558Y-79260639D02*
X70807901Y-79212259D01*
X70807901Y-79212259D02*
X70855073Y-79163878D01*
X71751330Y-78583306D02*
X71751330Y-79405782D01*
X71751330Y-79405782D02*
X71704158Y-79502544D01*
X71704158Y-79502544D02*
X71656987Y-79550925D01*
X71656987Y-79550925D02*
X71562644Y-79599306D01*
X71562644Y-79599306D02*
X71421130Y-79599306D01*
X71421130Y-79599306D02*
X71326787Y-79550925D01*
X71751330Y-79212259D02*
X71656987Y-79260639D01*
X71656987Y-79260639D02*
X71468301Y-79260639D01*
X71468301Y-79260639D02*
X71373958Y-79212259D01*
X71373958Y-79212259D02*
X71326787Y-79163878D01*
X71326787Y-79163878D02*
X71279615Y-79067116D01*
X71279615Y-79067116D02*
X71279615Y-78776830D01*
X71279615Y-78776830D02*
X71326787Y-78680068D01*
X71326787Y-78680068D02*
X71373958Y-78631687D01*
X71373958Y-78631687D02*
X71468301Y-78583306D01*
X71468301Y-78583306D02*
X71656987Y-78583306D01*
X71656987Y-78583306D02*
X71751330Y-78631687D01*
X81280095Y-142767095D02*
X81280095Y-143589572D01*
X81280095Y-143589572D02*
X81327714Y-143686334D01*
X81327714Y-143686334D02*
X81375333Y-143734715D01*
X81375333Y-143734715D02*
X81470571Y-143783095D01*
X81470571Y-143783095D02*
X81661047Y-143783095D01*
X81661047Y-143783095D02*
X81756285Y-143734715D01*
X81756285Y-143734715D02*
X81803904Y-143686334D01*
X81803904Y-143686334D02*
X81851523Y-143589572D01*
X81851523Y-143589572D02*
X81851523Y-142767095D01*
X82851523Y-143783095D02*
X82280095Y-143783095D01*
X82565809Y-143783095D02*
X82565809Y-142767095D01*
X82565809Y-142767095D02*
X82470571Y-142912238D01*
X82470571Y-142912238D02*
X82375333Y-143009000D01*
X82375333Y-143009000D02*
X82280095Y-143057381D01*
X154668743Y-131211095D02*
X154335410Y-130727286D01*
X154097315Y-131211095D02*
X154097315Y-130195095D01*
X154097315Y-130195095D02*
X154478267Y-130195095D01*
X154478267Y-130195095D02*
X154573505Y-130243476D01*
X154573505Y-130243476D02*
X154621124Y-130291857D01*
X154621124Y-130291857D02*
X154668743Y-130388619D01*
X154668743Y-130388619D02*
X154668743Y-130533762D01*
X154668743Y-130533762D02*
X154621124Y-130630524D01*
X154621124Y-130630524D02*
X154573505Y-130678905D01*
X154573505Y-130678905D02*
X154478267Y-130727286D01*
X154478267Y-130727286D02*
X154097315Y-130727286D01*
X155621124Y-131211095D02*
X155049696Y-131211095D01*
X155335410Y-131211095D02*
X155335410Y-130195095D01*
X155335410Y-130195095D02*
X155240172Y-130340238D01*
X155240172Y-130340238D02*
X155144934Y-130437000D01*
X155144934Y-130437000D02*
X155049696Y-130485381D01*
X155954458Y-130195095D02*
X156573505Y-130195095D01*
X156573505Y-130195095D02*
X156240172Y-130582143D01*
X156240172Y-130582143D02*
X156383029Y-130582143D01*
X156383029Y-130582143D02*
X156478267Y-130630524D01*
X156478267Y-130630524D02*
X156525886Y-130678905D01*
X156525886Y-130678905D02*
X156573505Y-130775667D01*
X156573505Y-130775667D02*
X156573505Y-131017572D01*
X156573505Y-131017572D02*
X156525886Y-131114334D01*
X156525886Y-131114334D02*
X156478267Y-131162715D01*
X156478267Y-131162715D02*
X156383029Y-131211095D01*
X156383029Y-131211095D02*
X156097315Y-131211095D01*
X156097315Y-131211095D02*
X156002077Y-131162715D01*
X156002077Y-131162715D02*
X155954458Y-131114334D01*
X101142857Y-140811238D02*
X101094476Y-140906476D01*
X101094476Y-140906476D02*
X100997715Y-141001714D01*
X100997715Y-141001714D02*
X100852572Y-141144571D01*
X100852572Y-141144571D02*
X100804191Y-141239809D01*
X100804191Y-141239809D02*
X100804191Y-141335047D01*
X101046095Y-141287428D02*
X100997715Y-141382666D01*
X100997715Y-141382666D02*
X100900953Y-141477904D01*
X100900953Y-141477904D02*
X100707429Y-141525523D01*
X100707429Y-141525523D02*
X100368762Y-141525523D01*
X100368762Y-141525523D02*
X100175238Y-141477904D01*
X100175238Y-141477904D02*
X100078476Y-141382666D01*
X100078476Y-141382666D02*
X100030095Y-141287428D01*
X100030095Y-141287428D02*
X100030095Y-141096952D01*
X100030095Y-141096952D02*
X100078476Y-141001714D01*
X100078476Y-141001714D02*
X100175238Y-140906476D01*
X100175238Y-140906476D02*
X100368762Y-140858857D01*
X100368762Y-140858857D02*
X100707429Y-140858857D01*
X100707429Y-140858857D02*
X100900953Y-140906476D01*
X100900953Y-140906476D02*
X100997715Y-141001714D01*
X100997715Y-141001714D02*
X101046095Y-141096952D01*
X101046095Y-141096952D02*
X101046095Y-141287428D01*
X100030095Y-140525523D02*
X100030095Y-139906476D01*
X100030095Y-139906476D02*
X100417143Y-140239809D01*
X100417143Y-140239809D02*
X100417143Y-140096952D01*
X100417143Y-140096952D02*
X100465524Y-140001714D01*
X100465524Y-140001714D02*
X100513905Y-139954095D01*
X100513905Y-139954095D02*
X100610667Y-139906476D01*
X100610667Y-139906476D02*
X100852572Y-139906476D01*
X100852572Y-139906476D02*
X100949334Y-139954095D01*
X100949334Y-139954095D02*
X100997715Y-140001714D01*
X100997715Y-140001714D02*
X101046095Y-140096952D01*
X101046095Y-140096952D02*
X101046095Y-140382666D01*
X101046095Y-140382666D02*
X100997715Y-140477904D01*
X100997715Y-140477904D02*
X100949334Y-140525523D01*
X106191095Y-134278666D02*
X105707286Y-134611999D01*
X106191095Y-134850094D02*
X105175095Y-134850094D01*
X105175095Y-134850094D02*
X105175095Y-134469142D01*
X105175095Y-134469142D02*
X105223476Y-134373904D01*
X105223476Y-134373904D02*
X105271857Y-134326285D01*
X105271857Y-134326285D02*
X105368619Y-134278666D01*
X105368619Y-134278666D02*
X105513762Y-134278666D01*
X105513762Y-134278666D02*
X105610524Y-134326285D01*
X105610524Y-134326285D02*
X105658905Y-134373904D01*
X105658905Y-134373904D02*
X105707286Y-134469142D01*
X105707286Y-134469142D02*
X105707286Y-134850094D01*
X106191095Y-133802475D02*
X106191095Y-133611999D01*
X106191095Y-133611999D02*
X106142715Y-133516761D01*
X106142715Y-133516761D02*
X106094334Y-133469142D01*
X106094334Y-133469142D02*
X105949191Y-133373904D01*
X105949191Y-133373904D02*
X105755667Y-133326285D01*
X105755667Y-133326285D02*
X105368619Y-133326285D01*
X105368619Y-133326285D02*
X105271857Y-133373904D01*
X105271857Y-133373904D02*
X105223476Y-133421523D01*
X105223476Y-133421523D02*
X105175095Y-133516761D01*
X105175095Y-133516761D02*
X105175095Y-133707237D01*
X105175095Y-133707237D02*
X105223476Y-133802475D01*
X105223476Y-133802475D02*
X105271857Y-133850094D01*
X105271857Y-133850094D02*
X105368619Y-133897713D01*
X105368619Y-133897713D02*
X105610524Y-133897713D01*
X105610524Y-133897713D02*
X105707286Y-133850094D01*
X105707286Y-133850094D02*
X105755667Y-133802475D01*
X105755667Y-133802475D02*
X105804048Y-133707237D01*
X105804048Y-133707237D02*
X105804048Y-133516761D01*
X105804048Y-133516761D02*
X105755667Y-133421523D01*
X105755667Y-133421523D02*
X105707286Y-133373904D01*
X105707286Y-133373904D02*
X105610524Y-133326285D01*
X168513334Y-134024666D02*
X168561715Y-134072285D01*
X168561715Y-134072285D02*
X168610095Y-134215142D01*
X168610095Y-134215142D02*
X168610095Y-134310380D01*
X168610095Y-134310380D02*
X168561715Y-134453237D01*
X168561715Y-134453237D02*
X168464953Y-134548475D01*
X168464953Y-134548475D02*
X168368191Y-134596094D01*
X168368191Y-134596094D02*
X168174667Y-134643713D01*
X168174667Y-134643713D02*
X168029524Y-134643713D01*
X168029524Y-134643713D02*
X167836000Y-134596094D01*
X167836000Y-134596094D02*
X167739238Y-134548475D01*
X167739238Y-134548475D02*
X167642476Y-134453237D01*
X167642476Y-134453237D02*
X167594095Y-134310380D01*
X167594095Y-134310380D02*
X167594095Y-134215142D01*
X167594095Y-134215142D02*
X167642476Y-134072285D01*
X167642476Y-134072285D02*
X167690857Y-134024666D01*
X167594095Y-133691332D02*
X167594095Y-133024666D01*
X167594095Y-133024666D02*
X168610095Y-133453237D01*
X107553334Y-144946666D02*
X107601715Y-144994285D01*
X107601715Y-144994285D02*
X107650095Y-145137142D01*
X107650095Y-145137142D02*
X107650095Y-145232380D01*
X107650095Y-145232380D02*
X107601715Y-145375237D01*
X107601715Y-145375237D02*
X107504953Y-145470475D01*
X107504953Y-145470475D02*
X107408191Y-145518094D01*
X107408191Y-145518094D02*
X107214667Y-145565713D01*
X107214667Y-145565713D02*
X107069524Y-145565713D01*
X107069524Y-145565713D02*
X106876000Y-145518094D01*
X106876000Y-145518094D02*
X106779238Y-145470475D01*
X106779238Y-145470475D02*
X106682476Y-145375237D01*
X106682476Y-145375237D02*
X106634095Y-145232380D01*
X106634095Y-145232380D02*
X106634095Y-145137142D01*
X106634095Y-145137142D02*
X106682476Y-144994285D01*
X106682476Y-144994285D02*
X106730857Y-144946666D01*
X106730857Y-144565713D02*
X106682476Y-144518094D01*
X106682476Y-144518094D02*
X106634095Y-144422856D01*
X106634095Y-144422856D02*
X106634095Y-144184761D01*
X106634095Y-144184761D02*
X106682476Y-144089523D01*
X106682476Y-144089523D02*
X106730857Y-144041904D01*
X106730857Y-144041904D02*
X106827619Y-143994285D01*
X106827619Y-143994285D02*
X106924381Y-143994285D01*
X106924381Y-143994285D02*
X107069524Y-144041904D01*
X107069524Y-144041904D02*
X107650095Y-144613332D01*
X107650095Y-144613332D02*
X107650095Y-143994285D01*
X109428095Y-139953904D02*
X110250572Y-139953904D01*
X110250572Y-139953904D02*
X110347334Y-139906285D01*
X110347334Y-139906285D02*
X110395715Y-139858666D01*
X110395715Y-139858666D02*
X110444095Y-139763428D01*
X110444095Y-139763428D02*
X110444095Y-139572952D01*
X110444095Y-139572952D02*
X110395715Y-139477714D01*
X110395715Y-139477714D02*
X110347334Y-139430095D01*
X110347334Y-139430095D02*
X110250572Y-139382476D01*
X110250572Y-139382476D02*
X109428095Y-139382476D01*
X109428095Y-139001523D02*
X109428095Y-138382476D01*
X109428095Y-138382476D02*
X109815143Y-138715809D01*
X109815143Y-138715809D02*
X109815143Y-138572952D01*
X109815143Y-138572952D02*
X109863524Y-138477714D01*
X109863524Y-138477714D02*
X109911905Y-138430095D01*
X109911905Y-138430095D02*
X110008667Y-138382476D01*
X110008667Y-138382476D02*
X110250572Y-138382476D01*
X110250572Y-138382476D02*
X110347334Y-138430095D01*
X110347334Y-138430095D02*
X110395715Y-138477714D01*
X110395715Y-138477714D02*
X110444095Y-138572952D01*
X110444095Y-138572952D02*
X110444095Y-138858666D01*
X110444095Y-138858666D02*
X110395715Y-138953904D01*
X110395715Y-138953904D02*
X110347334Y-139001523D01*
X161241095Y-139908095D02*
X161241095Y-140730572D01*
X161241095Y-140730572D02*
X161288714Y-140827334D01*
X161288714Y-140827334D02*
X161336333Y-140875715D01*
X161336333Y-140875715D02*
X161431571Y-140924095D01*
X161431571Y-140924095D02*
X161622047Y-140924095D01*
X161622047Y-140924095D02*
X161717285Y-140875715D01*
X161717285Y-140875715D02*
X161764904Y-140827334D01*
X161764904Y-140827334D02*
X161812523Y-140730572D01*
X161812523Y-140730572D02*
X161812523Y-139908095D01*
X162717285Y-139908095D02*
X162526809Y-139908095D01*
X162526809Y-139908095D02*
X162431571Y-139956476D01*
X162431571Y-139956476D02*
X162383952Y-140004857D01*
X162383952Y-140004857D02*
X162288714Y-140150000D01*
X162288714Y-140150000D02*
X162241095Y-140343524D01*
X162241095Y-140343524D02*
X162241095Y-140730572D01*
X162241095Y-140730572D02*
X162288714Y-140827334D01*
X162288714Y-140827334D02*
X162336333Y-140875715D01*
X162336333Y-140875715D02*
X162431571Y-140924095D01*
X162431571Y-140924095D02*
X162622047Y-140924095D01*
X162622047Y-140924095D02*
X162717285Y-140875715D01*
X162717285Y-140875715D02*
X162764904Y-140827334D01*
X162764904Y-140827334D02*
X162812523Y-140730572D01*
X162812523Y-140730572D02*
X162812523Y-140488667D01*
X162812523Y-140488667D02*
X162764904Y-140391905D01*
X162764904Y-140391905D02*
X162717285Y-140343524D01*
X162717285Y-140343524D02*
X162622047Y-140295143D01*
X162622047Y-140295143D02*
X162431571Y-140295143D01*
X162431571Y-140295143D02*
X162336333Y-140343524D01*
X162336333Y-140343524D02*
X162288714Y-140391905D01*
X162288714Y-140391905D02*
X162241095Y-140488667D01*
X88140095Y-135602095D02*
X88140095Y-134586095D01*
X88720667Y-135602095D02*
X88285238Y-135021524D01*
X88720667Y-134586095D02*
X88140095Y-135166667D01*
X89059333Y-134586095D02*
X89688286Y-134586095D01*
X89688286Y-134586095D02*
X89349619Y-134973143D01*
X89349619Y-134973143D02*
X89494762Y-134973143D01*
X89494762Y-134973143D02*
X89591524Y-135021524D01*
X89591524Y-135021524D02*
X89639905Y-135069905D01*
X89639905Y-135069905D02*
X89688286Y-135166667D01*
X89688286Y-135166667D02*
X89688286Y-135408572D01*
X89688286Y-135408572D02*
X89639905Y-135505334D01*
X89639905Y-135505334D02*
X89591524Y-135553715D01*
X89591524Y-135553715D02*
X89494762Y-135602095D01*
X89494762Y-135602095D02*
X89204476Y-135602095D01*
X89204476Y-135602095D02*
X89107714Y-135553715D01*
X89107714Y-135553715D02*
X89059333Y-135505334D01*
X91709642Y-146258095D02*
X91376309Y-145774286D01*
X91138214Y-146258095D02*
X91138214Y-145242095D01*
X91138214Y-145242095D02*
X91519166Y-145242095D01*
X91519166Y-145242095D02*
X91614404Y-145290476D01*
X91614404Y-145290476D02*
X91662023Y-145338857D01*
X91662023Y-145338857D02*
X91709642Y-145435619D01*
X91709642Y-145435619D02*
X91709642Y-145580762D01*
X91709642Y-145580762D02*
X91662023Y-145677524D01*
X91662023Y-145677524D02*
X91614404Y-145725905D01*
X91614404Y-145725905D02*
X91519166Y-145774286D01*
X91519166Y-145774286D02*
X91138214Y-145774286D01*
X92662023Y-146258095D02*
X92090595Y-146258095D01*
X92376309Y-146258095D02*
X92376309Y-145242095D01*
X92376309Y-145242095D02*
X92281071Y-145387238D01*
X92281071Y-145387238D02*
X92185833Y-145484000D01*
X92185833Y-145484000D02*
X92090595Y-145532381D01*
X93042976Y-145338857D02*
X93090595Y-145290476D01*
X93090595Y-145290476D02*
X93185833Y-145242095D01*
X93185833Y-145242095D02*
X93423928Y-145242095D01*
X93423928Y-145242095D02*
X93519166Y-145290476D01*
X93519166Y-145290476D02*
X93566785Y-145338857D01*
X93566785Y-145338857D02*
X93614404Y-145435619D01*
X93614404Y-145435619D02*
X93614404Y-145532381D01*
X93614404Y-145532381D02*
X93566785Y-145677524D01*
X93566785Y-145677524D02*
X92995357Y-146258095D01*
X92995357Y-146258095D02*
X93614404Y-146258095D01*
X111302857Y-128619238D02*
X111254476Y-128714476D01*
X111254476Y-128714476D02*
X111157715Y-128809714D01*
X111157715Y-128809714D02*
X111012572Y-128952571D01*
X111012572Y-128952571D02*
X110964191Y-129047809D01*
X110964191Y-129047809D02*
X110964191Y-129143047D01*
X111206095Y-129095428D02*
X111157715Y-129190666D01*
X111157715Y-129190666D02*
X111060953Y-129285904D01*
X111060953Y-129285904D02*
X110867429Y-129333523D01*
X110867429Y-129333523D02*
X110528762Y-129333523D01*
X110528762Y-129333523D02*
X110335238Y-129285904D01*
X110335238Y-129285904D02*
X110238476Y-129190666D01*
X110238476Y-129190666D02*
X110190095Y-129095428D01*
X110190095Y-129095428D02*
X110190095Y-128904952D01*
X110190095Y-128904952D02*
X110238476Y-128809714D01*
X110238476Y-128809714D02*
X110335238Y-128714476D01*
X110335238Y-128714476D02*
X110528762Y-128666857D01*
X110528762Y-128666857D02*
X110867429Y-128666857D01*
X110867429Y-128666857D02*
X111060953Y-128714476D01*
X111060953Y-128714476D02*
X111157715Y-128809714D01*
X111157715Y-128809714D02*
X111206095Y-128904952D01*
X111206095Y-128904952D02*
X111206095Y-129095428D01*
X111206095Y-127714476D02*
X111206095Y-128285904D01*
X111206095Y-128000190D02*
X110190095Y-128000190D01*
X110190095Y-128000190D02*
X110335238Y-128095428D01*
X110335238Y-128095428D02*
X110432000Y-128190666D01*
X110432000Y-128190666D02*
X110480381Y-128285904D01*
X98925142Y-146258095D02*
X98591809Y-145774286D01*
X98353714Y-146258095D02*
X98353714Y-145242095D01*
X98353714Y-145242095D02*
X98734666Y-145242095D01*
X98734666Y-145242095D02*
X98829904Y-145290476D01*
X98829904Y-145290476D02*
X98877523Y-145338857D01*
X98877523Y-145338857D02*
X98925142Y-145435619D01*
X98925142Y-145435619D02*
X98925142Y-145580762D01*
X98925142Y-145580762D02*
X98877523Y-145677524D01*
X98877523Y-145677524D02*
X98829904Y-145725905D01*
X98829904Y-145725905D02*
X98734666Y-145774286D01*
X98734666Y-145774286D02*
X98353714Y-145774286D01*
X99877523Y-146258095D02*
X99306095Y-146258095D01*
X99591809Y-146258095D02*
X99591809Y-145242095D01*
X99591809Y-145242095D02*
X99496571Y-145387238D01*
X99496571Y-145387238D02*
X99401333Y-145484000D01*
X99401333Y-145484000D02*
X99306095Y-145532381D01*
X100782285Y-145242095D02*
X100306095Y-145242095D01*
X100306095Y-145242095D02*
X100258476Y-145725905D01*
X100258476Y-145725905D02*
X100306095Y-145677524D01*
X100306095Y-145677524D02*
X100401333Y-145629143D01*
X100401333Y-145629143D02*
X100639428Y-145629143D01*
X100639428Y-145629143D02*
X100734666Y-145677524D01*
X100734666Y-145677524D02*
X100782285Y-145725905D01*
X100782285Y-145725905D02*
X100829904Y-145822667D01*
X100829904Y-145822667D02*
X100829904Y-146064572D01*
X100829904Y-146064572D02*
X100782285Y-146161334D01*
X100782285Y-146161334D02*
X100734666Y-146209715D01*
X100734666Y-146209715D02*
X100639428Y-146258095D01*
X100639428Y-146258095D02*
X100401333Y-146258095D01*
X100401333Y-146258095D02*
X100306095Y-146209715D01*
X100306095Y-146209715D02*
X100258476Y-146161334D01*
X187621333Y-127208095D02*
X187621333Y-127933810D01*
X187621333Y-127933810D02*
X187572952Y-128078953D01*
X187572952Y-128078953D02*
X187476190Y-128175715D01*
X187476190Y-128175715D02*
X187331047Y-128224095D01*
X187331047Y-128224095D02*
X187234285Y-128224095D01*
X188008380Y-127208095D02*
X188637333Y-127208095D01*
X188637333Y-127208095D02*
X188298666Y-127595143D01*
X188298666Y-127595143D02*
X188443809Y-127595143D01*
X188443809Y-127595143D02*
X188540571Y-127643524D01*
X188540571Y-127643524D02*
X188588952Y-127691905D01*
X188588952Y-127691905D02*
X188637333Y-127788667D01*
X188637333Y-127788667D02*
X188637333Y-128030572D01*
X188637333Y-128030572D02*
X188588952Y-128127334D01*
X188588952Y-128127334D02*
X188540571Y-128175715D01*
X188540571Y-128175715D02*
X188443809Y-128224095D01*
X188443809Y-128224095D02*
X188153523Y-128224095D01*
X188153523Y-128224095D02*
X188056761Y-128175715D01*
X188056761Y-128175715D02*
X188008380Y-128127334D01*
X103571524Y-90378095D02*
X103571524Y-91103810D01*
X103571524Y-91103810D02*
X103523143Y-91248953D01*
X103523143Y-91248953D02*
X103426381Y-91345715D01*
X103426381Y-91345715D02*
X103281238Y-91394095D01*
X103281238Y-91394095D02*
X103184476Y-91394095D01*
X104587524Y-91394095D02*
X104006952Y-91394095D01*
X104297238Y-91394095D02*
X104297238Y-90378095D01*
X104297238Y-90378095D02*
X104200476Y-90523238D01*
X104200476Y-90523238D02*
X104103714Y-90620000D01*
X104103714Y-90620000D02*
X104006952Y-90668381D01*
X105216476Y-90378095D02*
X105313238Y-90378095D01*
X105313238Y-90378095D02*
X105410000Y-90426476D01*
X105410000Y-90426476D02*
X105458381Y-90474857D01*
X105458381Y-90474857D02*
X105506762Y-90571619D01*
X105506762Y-90571619D02*
X105555143Y-90765143D01*
X105555143Y-90765143D02*
X105555143Y-91007048D01*
X105555143Y-91007048D02*
X105506762Y-91200572D01*
X105506762Y-91200572D02*
X105458381Y-91297334D01*
X105458381Y-91297334D02*
X105410000Y-91345715D01*
X105410000Y-91345715D02*
X105313238Y-91394095D01*
X105313238Y-91394095D02*
X105216476Y-91394095D01*
X105216476Y-91394095D02*
X105119714Y-91345715D01*
X105119714Y-91345715D02*
X105071333Y-91297334D01*
X105071333Y-91297334D02*
X105022952Y-91200572D01*
X105022952Y-91200572D02*
X104974571Y-91007048D01*
X104974571Y-91007048D02*
X104974571Y-90765143D01*
X104974571Y-90765143D02*
X105022952Y-90571619D01*
X105022952Y-90571619D02*
X105071333Y-90474857D01*
X105071333Y-90474857D02*
X105119714Y-90426476D01*
X105119714Y-90426476D02*
X105216476Y-90378095D01*
X173012333Y-139995595D02*
X172679000Y-139511786D01*
X172440905Y-139995595D02*
X172440905Y-138979595D01*
X172440905Y-138979595D02*
X172821857Y-138979595D01*
X172821857Y-138979595D02*
X172917095Y-139027976D01*
X172917095Y-139027976D02*
X172964714Y-139076357D01*
X172964714Y-139076357D02*
X173012333Y-139173119D01*
X173012333Y-139173119D02*
X173012333Y-139318262D01*
X173012333Y-139318262D02*
X172964714Y-139415024D01*
X172964714Y-139415024D02*
X172917095Y-139463405D01*
X172917095Y-139463405D02*
X172821857Y-139511786D01*
X172821857Y-139511786D02*
X172440905Y-139511786D01*
X173917095Y-138979595D02*
X173440905Y-138979595D01*
X173440905Y-138979595D02*
X173393286Y-139463405D01*
X173393286Y-139463405D02*
X173440905Y-139415024D01*
X173440905Y-139415024D02*
X173536143Y-139366643D01*
X173536143Y-139366643D02*
X173774238Y-139366643D01*
X173774238Y-139366643D02*
X173869476Y-139415024D01*
X173869476Y-139415024D02*
X173917095Y-139463405D01*
X173917095Y-139463405D02*
X173964714Y-139560167D01*
X173964714Y-139560167D02*
X173964714Y-139802072D01*
X173964714Y-139802072D02*
X173917095Y-139898834D01*
X173917095Y-139898834D02*
X173869476Y-139947215D01*
X173869476Y-139947215D02*
X173774238Y-139995595D01*
X173774238Y-139995595D02*
X173536143Y-139995595D01*
X173536143Y-139995595D02*
X173440905Y-139947215D01*
X173440905Y-139947215D02*
X173393286Y-139898834D01*
X104168333Y-77932095D02*
X104168333Y-78657810D01*
X104168333Y-78657810D02*
X104119952Y-78802953D01*
X104119952Y-78802953D02*
X104023190Y-78899715D01*
X104023190Y-78899715D02*
X103878047Y-78948095D01*
X103878047Y-78948095D02*
X103781285Y-78948095D01*
X105087571Y-77932095D02*
X104894047Y-77932095D01*
X104894047Y-77932095D02*
X104797285Y-77980476D01*
X104797285Y-77980476D02*
X104748904Y-78028857D01*
X104748904Y-78028857D02*
X104652142Y-78174000D01*
X104652142Y-78174000D02*
X104603761Y-78367524D01*
X104603761Y-78367524D02*
X104603761Y-78754572D01*
X104603761Y-78754572D02*
X104652142Y-78851334D01*
X104652142Y-78851334D02*
X104700523Y-78899715D01*
X104700523Y-78899715D02*
X104797285Y-78948095D01*
X104797285Y-78948095D02*
X104990809Y-78948095D01*
X104990809Y-78948095D02*
X105087571Y-78899715D01*
X105087571Y-78899715D02*
X105135952Y-78851334D01*
X105135952Y-78851334D02*
X105184333Y-78754572D01*
X105184333Y-78754572D02*
X105184333Y-78512667D01*
X105184333Y-78512667D02*
X105135952Y-78415905D01*
X105135952Y-78415905D02*
X105087571Y-78367524D01*
X105087571Y-78367524D02*
X104990809Y-78319143D01*
X104990809Y-78319143D02*
X104797285Y-78319143D01*
X104797285Y-78319143D02*
X104700523Y-78367524D01*
X104700523Y-78367524D02*
X104652142Y-78415905D01*
X104652142Y-78415905D02*
X104603761Y-78512667D01*
X106094334Y-130722666D02*
X106142715Y-130770285D01*
X106142715Y-130770285D02*
X106191095Y-130913142D01*
X106191095Y-130913142D02*
X106191095Y-131008380D01*
X106191095Y-131008380D02*
X106142715Y-131151237D01*
X106142715Y-131151237D02*
X106045953Y-131246475D01*
X106045953Y-131246475D02*
X105949191Y-131294094D01*
X105949191Y-131294094D02*
X105755667Y-131341713D01*
X105755667Y-131341713D02*
X105610524Y-131341713D01*
X105610524Y-131341713D02*
X105417000Y-131294094D01*
X105417000Y-131294094D02*
X105320238Y-131246475D01*
X105320238Y-131246475D02*
X105223476Y-131151237D01*
X105223476Y-131151237D02*
X105175095Y-131008380D01*
X105175095Y-131008380D02*
X105175095Y-130913142D01*
X105175095Y-130913142D02*
X105223476Y-130770285D01*
X105223476Y-130770285D02*
X105271857Y-130722666D01*
X105513762Y-129865523D02*
X106191095Y-129865523D01*
X105126715Y-130103618D02*
X105852429Y-130341713D01*
X105852429Y-130341713D02*
X105852429Y-129722666D01*
X104602095Y-133046594D02*
X103586095Y-133046594D01*
X103586095Y-133046594D02*
X103586095Y-132808499D01*
X103586095Y-132808499D02*
X103634476Y-132665642D01*
X103634476Y-132665642D02*
X103731238Y-132570404D01*
X103731238Y-132570404D02*
X103828000Y-132522785D01*
X103828000Y-132522785D02*
X104021524Y-132475166D01*
X104021524Y-132475166D02*
X104166667Y-132475166D01*
X104166667Y-132475166D02*
X104360191Y-132522785D01*
X104360191Y-132522785D02*
X104456953Y-132570404D01*
X104456953Y-132570404D02*
X104553715Y-132665642D01*
X104553715Y-132665642D02*
X104602095Y-132808499D01*
X104602095Y-132808499D02*
X104602095Y-133046594D01*
X103586095Y-132141832D02*
X103586095Y-131522785D01*
X103586095Y-131522785D02*
X103973143Y-131856118D01*
X103973143Y-131856118D02*
X103973143Y-131713261D01*
X103973143Y-131713261D02*
X104021524Y-131618023D01*
X104021524Y-131618023D02*
X104069905Y-131570404D01*
X104069905Y-131570404D02*
X104166667Y-131522785D01*
X104166667Y-131522785D02*
X104408572Y-131522785D01*
X104408572Y-131522785D02*
X104505334Y-131570404D01*
X104505334Y-131570404D02*
X104553715Y-131618023D01*
X104553715Y-131618023D02*
X104602095Y-131713261D01*
X104602095Y-131713261D02*
X104602095Y-131998975D01*
X104602095Y-131998975D02*
X104553715Y-132094213D01*
X104553715Y-132094213D02*
X104505334Y-132141832D01*
X104505334Y-140882666D02*
X104553715Y-140930285D01*
X104553715Y-140930285D02*
X104602095Y-141073142D01*
X104602095Y-141073142D02*
X104602095Y-141168380D01*
X104602095Y-141168380D02*
X104553715Y-141311237D01*
X104553715Y-141311237D02*
X104456953Y-141406475D01*
X104456953Y-141406475D02*
X104360191Y-141454094D01*
X104360191Y-141454094D02*
X104166667Y-141501713D01*
X104166667Y-141501713D02*
X104021524Y-141501713D01*
X104021524Y-141501713D02*
X103828000Y-141454094D01*
X103828000Y-141454094D02*
X103731238Y-141406475D01*
X103731238Y-141406475D02*
X103634476Y-141311237D01*
X103634476Y-141311237D02*
X103586095Y-141168380D01*
X103586095Y-141168380D02*
X103586095Y-141073142D01*
X103586095Y-141073142D02*
X103634476Y-140930285D01*
X103634476Y-140930285D02*
X103682857Y-140882666D01*
X104602095Y-139930285D02*
X104602095Y-140501713D01*
X104602095Y-140215999D02*
X103586095Y-140215999D01*
X103586095Y-140215999D02*
X103731238Y-140311237D01*
X103731238Y-140311237D02*
X103828000Y-140406475D01*
X103828000Y-140406475D02*
X103876381Y-140501713D01*
X55541333Y-101667095D02*
X55541333Y-102392810D01*
X55541333Y-102392810D02*
X55492952Y-102537953D01*
X55492952Y-102537953D02*
X55396190Y-102634715D01*
X55396190Y-102634715D02*
X55251047Y-102683095D01*
X55251047Y-102683095D02*
X55154285Y-102683095D01*
X56073523Y-102683095D02*
X56267047Y-102683095D01*
X56267047Y-102683095D02*
X56363809Y-102634715D01*
X56363809Y-102634715D02*
X56412190Y-102586334D01*
X56412190Y-102586334D02*
X56508952Y-102441191D01*
X56508952Y-102441191D02*
X56557333Y-102247667D01*
X56557333Y-102247667D02*
X56557333Y-101860619D01*
X56557333Y-101860619D02*
X56508952Y-101763857D01*
X56508952Y-101763857D02*
X56460571Y-101715476D01*
X56460571Y-101715476D02*
X56363809Y-101667095D01*
X56363809Y-101667095D02*
X56170285Y-101667095D01*
X56170285Y-101667095D02*
X56073523Y-101715476D01*
X56073523Y-101715476D02*
X56025142Y-101763857D01*
X56025142Y-101763857D02*
X55976761Y-101860619D01*
X55976761Y-101860619D02*
X55976761Y-102102524D01*
X55976761Y-102102524D02*
X56025142Y-102199286D01*
X56025142Y-102199286D02*
X56073523Y-102247667D01*
X56073523Y-102247667D02*
X56170285Y-102296048D01*
X56170285Y-102296048D02*
X56363809Y-102296048D01*
X56363809Y-102296048D02*
X56460571Y-102247667D01*
X56460571Y-102247667D02*
X56508952Y-102199286D01*
X56508952Y-102199286D02*
X56557333Y-102102524D01*
X126261905Y-107650095D02*
X126261905Y-106634095D01*
X126833333Y-107650095D02*
X126404762Y-107069524D01*
X126833333Y-106634095D02*
X126261905Y-107214667D01*
X127690476Y-106972762D02*
X127690476Y-107650095D01*
X127452381Y-106585715D02*
X127214286Y-107311429D01*
X127214286Y-107311429D02*
X127833333Y-107311429D01*
X107650095Y-127642857D02*
X107166286Y-127976190D01*
X107650095Y-128214285D02*
X106634095Y-128214285D01*
X106634095Y-128214285D02*
X106634095Y-127833333D01*
X106634095Y-127833333D02*
X106682476Y-127738095D01*
X106682476Y-127738095D02*
X106730857Y-127690476D01*
X106730857Y-127690476D02*
X106827619Y-127642857D01*
X106827619Y-127642857D02*
X106972762Y-127642857D01*
X106972762Y-127642857D02*
X107069524Y-127690476D01*
X107069524Y-127690476D02*
X107117905Y-127738095D01*
X107117905Y-127738095D02*
X107166286Y-127833333D01*
X107166286Y-127833333D02*
X107166286Y-128214285D01*
X107650095Y-126690476D02*
X107650095Y-127261904D01*
X107650095Y-126976190D02*
X106634095Y-126976190D01*
X106634095Y-126976190D02*
X106779238Y-127071428D01*
X106779238Y-127071428D02*
X106876000Y-127166666D01*
X106876000Y-127166666D02*
X106924381Y-127261904D01*
X107650095Y-126214285D02*
X107650095Y-126023809D01*
X107650095Y-126023809D02*
X107601715Y-125928571D01*
X107601715Y-125928571D02*
X107553334Y-125880952D01*
X107553334Y-125880952D02*
X107408191Y-125785714D01*
X107408191Y-125785714D02*
X107214667Y-125738095D01*
X107214667Y-125738095D02*
X106827619Y-125738095D01*
X106827619Y-125738095D02*
X106730857Y-125785714D01*
X106730857Y-125785714D02*
X106682476Y-125833333D01*
X106682476Y-125833333D02*
X106634095Y-125928571D01*
X106634095Y-125928571D02*
X106634095Y-126119047D01*
X106634095Y-126119047D02*
X106682476Y-126214285D01*
X106682476Y-126214285D02*
X106730857Y-126261904D01*
X106730857Y-126261904D02*
X106827619Y-126309523D01*
X106827619Y-126309523D02*
X107069524Y-126309523D01*
X107069524Y-126309523D02*
X107166286Y-126261904D01*
X107166286Y-126261904D02*
X107214667Y-126214285D01*
X107214667Y-126214285D02*
X107263048Y-126119047D01*
X107263048Y-126119047D02*
X107263048Y-125928571D01*
X107263048Y-125928571D02*
X107214667Y-125833333D01*
X107214667Y-125833333D02*
X107166286Y-125785714D01*
X107166286Y-125785714D02*
X107069524Y-125738095D01*
X55541333Y-89362095D02*
X55541333Y-90087810D01*
X55541333Y-90087810D02*
X55492952Y-90232953D01*
X55492952Y-90232953D02*
X55396190Y-90329715D01*
X55396190Y-90329715D02*
X55251047Y-90378095D01*
X55251047Y-90378095D02*
X55154285Y-90378095D01*
X56170285Y-89797524D02*
X56073523Y-89749143D01*
X56073523Y-89749143D02*
X56025142Y-89700762D01*
X56025142Y-89700762D02*
X55976761Y-89604000D01*
X55976761Y-89604000D02*
X55976761Y-89555619D01*
X55976761Y-89555619D02*
X56025142Y-89458857D01*
X56025142Y-89458857D02*
X56073523Y-89410476D01*
X56073523Y-89410476D02*
X56170285Y-89362095D01*
X56170285Y-89362095D02*
X56363809Y-89362095D01*
X56363809Y-89362095D02*
X56460571Y-89410476D01*
X56460571Y-89410476D02*
X56508952Y-89458857D01*
X56508952Y-89458857D02*
X56557333Y-89555619D01*
X56557333Y-89555619D02*
X56557333Y-89604000D01*
X56557333Y-89604000D02*
X56508952Y-89700762D01*
X56508952Y-89700762D02*
X56460571Y-89749143D01*
X56460571Y-89749143D02*
X56363809Y-89797524D01*
X56363809Y-89797524D02*
X56170285Y-89797524D01*
X56170285Y-89797524D02*
X56073523Y-89845905D01*
X56073523Y-89845905D02*
X56025142Y-89894286D01*
X56025142Y-89894286D02*
X55976761Y-89991048D01*
X55976761Y-89991048D02*
X55976761Y-90184572D01*
X55976761Y-90184572D02*
X56025142Y-90281334D01*
X56025142Y-90281334D02*
X56073523Y-90329715D01*
X56073523Y-90329715D02*
X56170285Y-90378095D01*
X56170285Y-90378095D02*
X56363809Y-90378095D01*
X56363809Y-90378095D02*
X56460571Y-90329715D01*
X56460571Y-90329715D02*
X56508952Y-90281334D01*
X56508952Y-90281334D02*
X56557333Y-90184572D01*
X56557333Y-90184572D02*
X56557333Y-89991048D01*
X56557333Y-89991048D02*
X56508952Y-89894286D01*
X56508952Y-89894286D02*
X56460571Y-89845905D01*
X56460571Y-89845905D02*
X56363809Y-89797524D01*
X111658333Y-138414334D02*
X111610714Y-138462715D01*
X111610714Y-138462715D02*
X111467857Y-138511095D01*
X111467857Y-138511095D02*
X111372619Y-138511095D01*
X111372619Y-138511095D02*
X111229762Y-138462715D01*
X111229762Y-138462715D02*
X111134524Y-138365953D01*
X111134524Y-138365953D02*
X111086905Y-138269191D01*
X111086905Y-138269191D02*
X111039286Y-138075667D01*
X111039286Y-138075667D02*
X111039286Y-137930524D01*
X111039286Y-137930524D02*
X111086905Y-137737000D01*
X111086905Y-137737000D02*
X111134524Y-137640238D01*
X111134524Y-137640238D02*
X111229762Y-137543476D01*
X111229762Y-137543476D02*
X111372619Y-137495095D01*
X111372619Y-137495095D02*
X111467857Y-137495095D01*
X111467857Y-137495095D02*
X111610714Y-137543476D01*
X111610714Y-137543476D02*
X111658333Y-137591857D01*
X111991667Y-137495095D02*
X112610714Y-137495095D01*
X112610714Y-137495095D02*
X112277381Y-137882143D01*
X112277381Y-137882143D02*
X112420238Y-137882143D01*
X112420238Y-137882143D02*
X112515476Y-137930524D01*
X112515476Y-137930524D02*
X112563095Y-137978905D01*
X112563095Y-137978905D02*
X112610714Y-138075667D01*
X112610714Y-138075667D02*
X112610714Y-138317572D01*
X112610714Y-138317572D02*
X112563095Y-138414334D01*
X112563095Y-138414334D02*
X112515476Y-138462715D01*
X112515476Y-138462715D02*
X112420238Y-138511095D01*
X112420238Y-138511095D02*
X112134524Y-138511095D01*
X112134524Y-138511095D02*
X112039286Y-138462715D01*
X112039286Y-138462715D02*
X111991667Y-138414334D01*
X155764334Y-137160166D02*
X155812715Y-137207785D01*
X155812715Y-137207785D02*
X155861095Y-137350642D01*
X155861095Y-137350642D02*
X155861095Y-137445880D01*
X155861095Y-137445880D02*
X155812715Y-137588737D01*
X155812715Y-137588737D02*
X155715953Y-137683975D01*
X155715953Y-137683975D02*
X155619191Y-137731594D01*
X155619191Y-137731594D02*
X155425667Y-137779213D01*
X155425667Y-137779213D02*
X155280524Y-137779213D01*
X155280524Y-137779213D02*
X155087000Y-137731594D01*
X155087000Y-137731594D02*
X154990238Y-137683975D01*
X154990238Y-137683975D02*
X154893476Y-137588737D01*
X154893476Y-137588737D02*
X154845095Y-137445880D01*
X154845095Y-137445880D02*
X154845095Y-137350642D01*
X154845095Y-137350642D02*
X154893476Y-137207785D01*
X154893476Y-137207785D02*
X154941857Y-137160166D01*
X154845095Y-136303023D02*
X154845095Y-136493499D01*
X154845095Y-136493499D02*
X154893476Y-136588737D01*
X154893476Y-136588737D02*
X154941857Y-136636356D01*
X154941857Y-136636356D02*
X155087000Y-136731594D01*
X155087000Y-136731594D02*
X155280524Y-136779213D01*
X155280524Y-136779213D02*
X155667572Y-136779213D01*
X155667572Y-136779213D02*
X155764334Y-136731594D01*
X155764334Y-136731594D02*
X155812715Y-136683975D01*
X155812715Y-136683975D02*
X155861095Y-136588737D01*
X155861095Y-136588737D02*
X155861095Y-136398261D01*
X155861095Y-136398261D02*
X155812715Y-136303023D01*
X155812715Y-136303023D02*
X155764334Y-136255404D01*
X155764334Y-136255404D02*
X155667572Y-136207785D01*
X155667572Y-136207785D02*
X155425667Y-136207785D01*
X155425667Y-136207785D02*
X155328905Y-136255404D01*
X155328905Y-136255404D02*
X155280524Y-136303023D01*
X155280524Y-136303023D02*
X155232143Y-136398261D01*
X155232143Y-136398261D02*
X155232143Y-136588737D01*
X155232143Y-136588737D02*
X155280524Y-136683975D01*
X155280524Y-136683975D02*
X155328905Y-136731594D01*
X155328905Y-136731594D02*
X155425667Y-136779213D01*
X137710995Y-126491904D02*
X138533472Y-126491904D01*
X138533472Y-126491904D02*
X138630234Y-126444285D01*
X138630234Y-126444285D02*
X138678615Y-126396666D01*
X138678615Y-126396666D02*
X138726995Y-126301428D01*
X138726995Y-126301428D02*
X138726995Y-126110952D01*
X138726995Y-126110952D02*
X138678615Y-126015714D01*
X138678615Y-126015714D02*
X138630234Y-125968095D01*
X138630234Y-125968095D02*
X138533472Y-125920476D01*
X138533472Y-125920476D02*
X137710995Y-125920476D01*
X137710995Y-124968095D02*
X137710995Y-125444285D01*
X137710995Y-125444285D02*
X138194805Y-125491904D01*
X138194805Y-125491904D02*
X138146424Y-125444285D01*
X138146424Y-125444285D02*
X138098043Y-125349047D01*
X138098043Y-125349047D02*
X138098043Y-125110952D01*
X138098043Y-125110952D02*
X138146424Y-125015714D01*
X138146424Y-125015714D02*
X138194805Y-124968095D01*
X138194805Y-124968095D02*
X138291567Y-124920476D01*
X138291567Y-124920476D02*
X138533472Y-124920476D01*
X138533472Y-124920476D02*
X138630234Y-124968095D01*
X138630234Y-124968095D02*
X138678615Y-125015714D01*
X138678615Y-125015714D02*
X138726995Y-125110952D01*
X138726995Y-125110952D02*
X138726995Y-125349047D01*
X138726995Y-125349047D02*
X138678615Y-125444285D01*
X138678615Y-125444285D02*
X138630234Y-125491904D01*
X64978095Y-141898666D02*
X64494286Y-142231999D01*
X64978095Y-142470094D02*
X63962095Y-142470094D01*
X63962095Y-142470094D02*
X63962095Y-142089142D01*
X63962095Y-142089142D02*
X64010476Y-141993904D01*
X64010476Y-141993904D02*
X64058857Y-141946285D01*
X64058857Y-141946285D02*
X64155619Y-141898666D01*
X64155619Y-141898666D02*
X64300762Y-141898666D01*
X64300762Y-141898666D02*
X64397524Y-141946285D01*
X64397524Y-141946285D02*
X64445905Y-141993904D01*
X64445905Y-141993904D02*
X64494286Y-142089142D01*
X64494286Y-142089142D02*
X64494286Y-142470094D01*
X64978095Y-140946285D02*
X64978095Y-141517713D01*
X64978095Y-141231999D02*
X63962095Y-141231999D01*
X63962095Y-141231999D02*
X64107238Y-141327237D01*
X64107238Y-141327237D02*
X64204000Y-141422475D01*
X64204000Y-141422475D02*
X64252381Y-141517713D01*
X57598095Y-145750095D02*
X58169523Y-145750095D01*
X57883809Y-146766095D02*
X57883809Y-145750095D01*
X58502857Y-146766095D02*
X58502857Y-145750095D01*
X58502857Y-145750095D02*
X58883809Y-145750095D01*
X58883809Y-145750095D02*
X58979047Y-145798476D01*
X58979047Y-145798476D02*
X59026666Y-145846857D01*
X59026666Y-145846857D02*
X59074285Y-145943619D01*
X59074285Y-145943619D02*
X59074285Y-146088762D01*
X59074285Y-146088762D02*
X59026666Y-146185524D01*
X59026666Y-146185524D02*
X58979047Y-146233905D01*
X58979047Y-146233905D02*
X58883809Y-146282286D01*
X58883809Y-146282286D02*
X58502857Y-146282286D01*
X59645714Y-146185524D02*
X59550476Y-146137143D01*
X59550476Y-146137143D02*
X59502857Y-146088762D01*
X59502857Y-146088762D02*
X59455238Y-145992000D01*
X59455238Y-145992000D02*
X59455238Y-145943619D01*
X59455238Y-145943619D02*
X59502857Y-145846857D01*
X59502857Y-145846857D02*
X59550476Y-145798476D01*
X59550476Y-145798476D02*
X59645714Y-145750095D01*
X59645714Y-145750095D02*
X59836190Y-145750095D01*
X59836190Y-145750095D02*
X59931428Y-145798476D01*
X59931428Y-145798476D02*
X59979047Y-145846857D01*
X59979047Y-145846857D02*
X60026666Y-145943619D01*
X60026666Y-145943619D02*
X60026666Y-145992000D01*
X60026666Y-145992000D02*
X59979047Y-146088762D01*
X59979047Y-146088762D02*
X59931428Y-146137143D01*
X59931428Y-146137143D02*
X59836190Y-146185524D01*
X59836190Y-146185524D02*
X59645714Y-146185524D01*
X59645714Y-146185524D02*
X59550476Y-146233905D01*
X59550476Y-146233905D02*
X59502857Y-146282286D01*
X59502857Y-146282286D02*
X59455238Y-146379048D01*
X59455238Y-146379048D02*
X59455238Y-146572572D01*
X59455238Y-146572572D02*
X59502857Y-146669334D01*
X59502857Y-146669334D02*
X59550476Y-146717715D01*
X59550476Y-146717715D02*
X59645714Y-146766095D01*
X59645714Y-146766095D02*
X59836190Y-146766095D01*
X59836190Y-146766095D02*
X59931428Y-146717715D01*
X59931428Y-146717715D02*
X59979047Y-146669334D01*
X59979047Y-146669334D02*
X60026666Y-146572572D01*
X60026666Y-146572572D02*
X60026666Y-146379048D01*
X60026666Y-146379048D02*
X59979047Y-146282286D01*
X59979047Y-146282286D02*
X59931428Y-146233905D01*
X59931428Y-146233905D02*
X59836190Y-146185524D01*
D13*
%TO.C,U7*%
X109765000Y-130409000D02*
X113885000Y-130409000D01*
X109765000Y-130504000D02*
X109765000Y-130409000D01*
X109765000Y-135529000D02*
X109765000Y-135434000D01*
X113885000Y-130409000D02*
X113885000Y-130504000D01*
X113885000Y-135434000D02*
X113885000Y-135529000D01*
X113885000Y-135529000D02*
X109765000Y-135529000D01*
X114665000Y-135769000D02*
X114185000Y-135769000D01*
X114425000Y-135439000D01*
X114665000Y-135769000D01*
G36*
X114665000Y-135769000D02*
G01*
X114185000Y-135769000D01*
X114425000Y-135439000D01*
X114665000Y-135769000D01*
G37*
D10*
%TO.C,U4*%
X127508000Y-128113700D02*
X144272000Y-128113700D01*
X127508000Y-130531061D02*
X127508000Y-128113700D01*
X127508000Y-138151061D02*
X127508000Y-132390341D01*
X127508000Y-140691061D02*
X127508000Y-140010341D01*
X127508000Y-144979300D02*
X127508000Y-142550341D01*
X144272000Y-128113700D02*
X144272000Y-130531061D01*
X144272000Y-132390341D02*
X144272000Y-133071061D01*
X144272000Y-134930341D02*
X144272000Y-138151061D01*
X144272000Y-140010341D02*
X144272000Y-140691061D01*
X144272000Y-142550341D02*
X144272000Y-144979300D01*
X144272000Y-144979300D02*
X127508000Y-144979300D01*
X123594400Y-131460701D02*
G75*
G02*
X123442000Y-131460701I-76200J0D01*
G01*
X123442000Y-131460701D02*
G75*
G02*
X123594400Y-131460701I76200J0D01*
G01*
D13*
%TO.C,U8*%
X103088000Y-106736000D02*
X103088000Y-108586000D01*
X103088000Y-106736000D02*
X103978000Y-106736000D01*
X105318000Y-106751000D02*
X106208000Y-106751000D01*
X106208000Y-106751000D02*
X106208000Y-108601000D01*
X103098000Y-108976000D02*
X102768000Y-109216000D01*
X102768000Y-108736000D01*
X103098000Y-108976000D01*
G36*
X103098000Y-108976000D02*
G01*
X102768000Y-109216000D01*
X102768000Y-108736000D01*
X103098000Y-108976000D01*
G37*
%TO.C,J1*%
D10*
X53001000Y-120565000D02*
X60001000Y-120565000D01*
X60001000Y-127565000D01*
X53001000Y-127565000D01*
X53001000Y-120565000D01*
X58001000Y-124065000D02*
G75*
G02*
X55001000Y-124065000I-1500000J0D01*
G01*
X55001000Y-124065000D02*
G75*
G02*
X58001000Y-124065000I1500000J0D01*
G01*
D13*
%TO.C,TP6*%
X60768000Y-143064000D02*
X62168000Y-143064000D01*
X60768000Y-144464000D02*
X60768000Y-143064000D01*
X62168000Y-143064000D02*
X62168000Y-144464000D01*
X62168000Y-144464000D02*
X60768000Y-144464000D01*
%TO.C,TP7*%
X145096000Y-124014000D02*
X146496000Y-124014000D01*
X145096000Y-125414000D02*
X145096000Y-124014000D01*
X146496000Y-124014000D02*
X146496000Y-125414000D01*
X146496000Y-125414000D02*
X145096000Y-125414000D01*
%TO.C,TP9*%
X70420000Y-139508000D02*
X71820000Y-139508000D01*
X70420000Y-140908000D02*
X70420000Y-139508000D01*
X71820000Y-139508000D02*
X71820000Y-140908000D01*
X71820000Y-140908000D02*
X70420000Y-140908000D01*
%TO.C,F4*%
X179710252Y-137315500D02*
X176937748Y-137315500D01*
X179710252Y-140735500D02*
X176937748Y-140735500D01*
%TO.C,R10*%
X152097724Y-128343000D02*
X151588276Y-128343000D01*
X152097724Y-129388000D02*
X151588276Y-129388000D01*
%TO.C,TP11*%
X88200000Y-146112000D02*
X89600000Y-146112000D01*
X88200000Y-147512000D02*
X88200000Y-146112000D01*
X89600000Y-146112000D02*
X89600000Y-147512000D01*
X89600000Y-147512000D02*
X88200000Y-147512000D01*
%TO.C,R11*%
X65517500Y-145542724D02*
X65517500Y-145033276D01*
X66562500Y-145542724D02*
X66562500Y-145033276D01*
%TO.C,R8*%
X106665500Y-138198776D02*
X106665500Y-138708224D01*
X107710500Y-138198776D02*
X107710500Y-138708224D01*
%TO.C,TP2*%
X116140000Y-119696000D02*
X117540000Y-119696000D01*
X116140000Y-121096000D02*
X116140000Y-119696000D01*
X117540000Y-119696000D02*
X117540000Y-121096000D01*
X117540000Y-121096000D02*
X116140000Y-121096000D01*
D10*
%TO.C,F1*%
X91954350Y-78587600D02*
X91954350Y-80768981D01*
X91954350Y-82857819D02*
X91954350Y-89100181D01*
X91954350Y-91189019D02*
X91954350Y-101800181D01*
X91954350Y-103889019D02*
X91954350Y-110131381D01*
X91954350Y-112220219D02*
X91954350Y-114401600D01*
X91954350Y-114401600D02*
X98050350Y-114401600D01*
X98050350Y-78587600D02*
X91954350Y-78587600D01*
X98050350Y-114401600D02*
X98050350Y-78587600D01*
D14*
X94722950Y-115036600D02*
G75*
G02*
X93960950Y-115036600I-381000J0D01*
G01*
X93960950Y-115036600D02*
G75*
G02*
X94722950Y-115036600I381000J0D01*
G01*
D13*
%TO.C,C5*%
X89406000Y-141077733D02*
X89406000Y-141370267D01*
X90426000Y-141077733D02*
X90426000Y-141370267D01*
D10*
%TO.C,J4*%
X183489601Y-115460300D02*
X183489601Y-115904960D01*
X183489601Y-117815040D02*
X183489601Y-118404960D01*
X183489601Y-120315040D02*
X183489601Y-120759700D01*
X183489601Y-122605800D02*
X192430400Y-122605800D01*
X192430400Y-113614200D02*
X183489601Y-113614200D01*
X192430400Y-122605800D02*
X192430405Y-121031000D01*
X192430405Y-115189000D02*
X192430400Y-113614200D01*
X192430405Y-121031000D02*
X193878205Y-121031000D01*
X193878205Y-115189000D02*
X192430405Y-115189000D01*
X193878205Y-121031000D02*
X193878205Y-115189000D01*
D14*
X183657601Y-112979200D02*
G75*
G02*
X182895601Y-112979200I-381000J0D01*
G01*
X182895601Y-112979200D02*
G75*
G02*
X183657601Y-112979200I381000J0D01*
G01*
D13*
%TO.C,TP1*%
X117156000Y-131634000D02*
X118556000Y-131634000D01*
X117156000Y-133034000D02*
X117156000Y-131634000D01*
X118556000Y-131634000D02*
X118556000Y-133034000D01*
X118556000Y-133034000D02*
X117156000Y-133034000D01*
D15*
%TO.C,RV1*%
X67839000Y-141852000D02*
X67839000Y-146682000D01*
X67839000Y-146682000D02*
X77369000Y-146682000D01*
X77369000Y-141852000D02*
X67839000Y-141852000D01*
X77369000Y-146682000D02*
X77369000Y-141852000D01*
D16*
X67204000Y-144272000D02*
G75*
G02*
X67004000Y-144272000I-100000J0D01*
G01*
X67004000Y-144272000D02*
G75*
G02*
X67204000Y-144272000I100000J0D01*
G01*
D13*
%TO.C,TP12*%
X152716000Y-139000000D02*
X154116000Y-139000000D01*
X152716000Y-140400000D02*
X152716000Y-139000000D01*
X154116000Y-139000000D02*
X154116000Y-140400000D01*
X154116000Y-140400000D02*
X152716000Y-140400000D01*
%TO.C,C8*%
X87374000Y-141370267D02*
X87374000Y-141077733D01*
X88394000Y-141370267D02*
X88394000Y-141077733D01*
%TO.C,TP10*%
X116140000Y-114616000D02*
X117540000Y-114616000D01*
X116140000Y-116016000D02*
X116140000Y-114616000D01*
X117540000Y-114616000D02*
X117540000Y-116016000D01*
X117540000Y-116016000D02*
X116140000Y-116016000D01*
%TO.C,F3*%
X176937748Y-130203500D02*
X179710252Y-130203500D01*
X176937748Y-133623500D02*
X179710252Y-133623500D01*
%TO.C,TP4*%
X115632000Y-109028000D02*
X117032000Y-109028000D01*
X115632000Y-110428000D02*
X115632000Y-109028000D01*
X117032000Y-109028000D02*
X117032000Y-110428000D01*
X117032000Y-110428000D02*
X115632000Y-110428000D01*
D10*
%TO.C,K2*%
X61595000Y-83058000D02*
X61595000Y-115062000D01*
X61595000Y-115062000D02*
X88773000Y-115062000D01*
X75057000Y-83058000D02*
X75057000Y-83312000D01*
X75057000Y-83312000D02*
X75311000Y-83312000D01*
X75311000Y-83058000D02*
X75057000Y-83058000D01*
X75311000Y-83312000D02*
X75311000Y-83058000D01*
X88773000Y-83058000D02*
X61595000Y-83058000D01*
X88773000Y-115062000D02*
X88773000Y-83058000D01*
D13*
%TO.C,D2*%
X103405000Y-134328000D02*
X103405000Y-136613000D01*
X103405000Y-136613000D02*
X104875000Y-136613000D01*
X104875000Y-136613000D02*
X104875000Y-134328000D01*
%TO.C,Q2*%
X92420000Y-140314000D02*
X92470000Y-140314000D01*
X92420000Y-142134000D02*
X92420000Y-140314000D01*
X93420000Y-142134000D02*
X92420000Y-142134000D01*
X93590000Y-140314000D02*
X94370000Y-140314000D01*
X95490000Y-140314000D02*
X95540000Y-140314000D01*
X95540000Y-140314000D02*
X95540000Y-142134000D01*
X95540000Y-142134000D02*
X94540000Y-142134000D01*
X94360000Y-139774000D02*
X94030000Y-140014000D01*
X94030000Y-139534000D01*
X94360000Y-139774000D01*
G36*
X94360000Y-139774000D02*
G01*
X94030000Y-140014000D01*
X94030000Y-139534000D01*
X94360000Y-139774000D01*
G37*
%TO.C,R6*%
X170984936Y-135242500D02*
X171439064Y-135242500D01*
X170984936Y-136712500D02*
X171439064Y-136712500D01*
%TO.C,J2*%
D10*
X52888000Y-132136000D02*
X59888000Y-132136000D01*
X59888000Y-139136000D01*
X52888000Y-139136000D01*
X52888000Y-132136000D01*
X57888000Y-135636000D02*
G75*
G02*
X54888000Y-135636000I-1500000J0D01*
G01*
X54888000Y-135636000D02*
G75*
G02*
X57888000Y-135636000I1500000J0D01*
G01*
D13*
%TO.C,TP5*%
X168415000Y-130197500D02*
X169815000Y-130197500D01*
X168415000Y-131597500D02*
X168415000Y-130197500D01*
X169815000Y-130197500D02*
X169815000Y-131597500D01*
X169815000Y-131597500D02*
X168415000Y-131597500D01*
D10*
%TO.C,J5*%
X146553200Y-116832100D02*
X146553200Y-120565900D01*
X146553200Y-120565900D02*
X146861160Y-120565900D01*
X146861160Y-116832100D02*
X146553200Y-116832100D01*
X147874000Y-113631700D02*
X147874000Y-114365760D01*
X150500040Y-120565900D02*
X151089960Y-120565900D01*
X153716000Y-113631700D02*
X147874000Y-113631700D01*
X153716000Y-114365760D02*
X153716000Y-113631700D01*
X154728840Y-120565900D02*
X155036800Y-120565900D01*
X155036800Y-116832100D02*
X154728840Y-116832100D01*
X155036800Y-120565900D02*
X155036800Y-116832100D01*
D14*
X156052800Y-118699000D02*
G75*
G02*
X155290800Y-118699000I-381000J0D01*
G01*
X155290800Y-118699000D02*
G75*
G02*
X156052800Y-118699000I381000J0D01*
G01*
D13*
%TO.C,R16*%
X111505276Y-125461500D02*
X112014724Y-125461500D01*
X111505276Y-126506500D02*
X112014724Y-126506500D01*
%TO.C,R4*%
X158552000Y-141293500D02*
X178792000Y-141293500D01*
X158552000Y-143173500D02*
X158552000Y-141293500D01*
X158552000Y-146053500D02*
X158552000Y-147933500D01*
X158552000Y-147933500D02*
X178792000Y-147933500D01*
X178792000Y-141293500D02*
X178792000Y-143173500D01*
X178792000Y-147933500D02*
X178792000Y-146053500D01*
D10*
%TO.C,J7*%
X105600500Y-111346300D02*
X105600500Y-111656160D01*
X105600500Y-115295040D02*
X105600500Y-115884960D01*
X105600500Y-117795040D02*
X105600500Y-118384960D01*
X105600500Y-120295040D02*
X105600500Y-120884960D01*
X105600500Y-124523840D02*
X105600500Y-124833700D01*
X105600500Y-124833700D02*
X111823500Y-124833700D01*
X111823500Y-111346300D02*
X105600500Y-111346300D01*
X111823500Y-111656160D02*
X111823500Y-111346300D01*
X111823500Y-124833700D02*
X111823500Y-124523840D01*
X113721352Y-121011000D02*
X115023900Y-121011000D01*
X115023900Y-115169000D02*
X113721352Y-115169000D01*
X115023900Y-121011000D02*
X115023900Y-115169000D01*
D14*
X112343001Y-125468700D02*
G75*
G02*
X111581001Y-125468700I-381000J0D01*
G01*
X111581001Y-125468700D02*
G75*
G02*
X112343001Y-125468700I381000J0D01*
G01*
D13*
%TO.C,D1*%
X115532000Y-106399000D02*
X117817000Y-106399000D01*
X117817000Y-104929000D02*
X115532000Y-104929000D01*
X117817000Y-106399000D02*
X117817000Y-104929000D01*
%TO.C,R7*%
X158552000Y-123005500D02*
X158552000Y-124885500D01*
X158552000Y-129645500D02*
X158552000Y-127765500D01*
X178792000Y-123005500D02*
X158552000Y-123005500D01*
X178792000Y-124885500D02*
X178792000Y-123005500D01*
X178792000Y-127765500D02*
X178792000Y-129645500D01*
X178792000Y-129645500D02*
X158552000Y-129645500D01*
%TO.C,R18*%
X95653776Y-143749500D02*
X96163224Y-143749500D01*
X95653776Y-144794500D02*
X96163224Y-144794500D01*
%TO.C,R14*%
X152654724Y-136891500D02*
X152145276Y-136891500D01*
X152654724Y-137936500D02*
X152145276Y-137936500D01*
%TO.C,R17*%
X105141500Y-126641776D02*
X105141500Y-127151224D01*
X106186500Y-126641776D02*
X106186500Y-127151224D01*
D17*
%TO.C,G\u002A\u002A\u002A*%
G36*
X60940042Y-79134524D02*
G01*
X60934604Y-79158744D01*
X60920611Y-79175937D01*
X60889529Y-79187533D01*
X60832824Y-79194964D01*
X60741961Y-79199661D01*
X60608404Y-79203055D01*
X60521260Y-79204742D01*
X60353671Y-79209744D01*
X60226221Y-79217480D01*
X60143884Y-79227515D01*
X60111637Y-79239411D01*
X60111359Y-79240689D01*
X60124026Y-79274673D01*
X60158588Y-79346883D01*
X60209888Y-79446994D01*
X60272767Y-79564681D01*
X60278098Y-79574464D01*
X60359349Y-79725142D01*
X60412868Y-79834025D01*
X60437923Y-79907901D01*
X60433784Y-79953557D01*
X60399721Y-79977778D01*
X60335001Y-79987351D01*
X60238894Y-79989064D01*
X60233440Y-79989065D01*
X60126298Y-79990478D01*
X60064686Y-79996279D01*
X60038594Y-80008807D01*
X60038011Y-80030403D01*
X60039443Y-80034409D01*
X60059451Y-80067892D01*
X60107588Y-80140563D01*
X60179688Y-80246373D01*
X60271590Y-80379276D01*
X60379127Y-80533223D01*
X60498137Y-80702165D01*
X60535688Y-80755196D01*
X61014532Y-81430639D01*
X61022338Y-81115496D01*
X61029092Y-80956451D01*
X61041625Y-80846681D01*
X61062146Y-80779994D01*
X61092863Y-80750200D01*
X61135984Y-80751108D01*
X61150574Y-80756017D01*
X61166907Y-80767632D01*
X61178596Y-80793097D01*
X61186202Y-80840039D01*
X61190282Y-80916084D01*
X61191398Y-81028855D01*
X61190109Y-81185979D01*
X61188833Y-81277200D01*
X61185580Y-81458089D01*
X61181543Y-81590793D01*
X61175960Y-81682705D01*
X61168070Y-81741220D01*
X61157111Y-81773733D01*
X61142322Y-81787637D01*
X61136065Y-81789483D01*
X61091718Y-81773797D01*
X61033400Y-81721773D01*
X61008898Y-81692576D01*
X60931013Y-81589698D01*
X60835414Y-81459374D01*
X60726189Y-81307547D01*
X60607425Y-81140160D01*
X60483212Y-80963156D01*
X60357638Y-80782480D01*
X60234789Y-80604074D01*
X60118755Y-80433881D01*
X60013623Y-80277846D01*
X59923482Y-80141911D01*
X59852419Y-80032019D01*
X59804523Y-79954115D01*
X59783882Y-79914141D01*
X59783420Y-79910935D01*
X59797920Y-79886166D01*
X59837198Y-79870370D01*
X59912184Y-79860862D01*
X60007448Y-79855893D01*
X60108821Y-79850040D01*
X60184476Y-79841808D01*
X60221043Y-79832764D01*
X60222519Y-79830711D01*
X60210160Y-79801072D01*
X60176394Y-79732338D01*
X60126185Y-79634342D01*
X60064497Y-79516914D01*
X60055779Y-79500519D01*
X59992282Y-79376904D01*
X59939918Y-79266638D01*
X59903823Y-79181144D01*
X59889136Y-79131847D01*
X59889039Y-79129695D01*
X59890925Y-79109696D01*
X59901475Y-79094949D01*
X59928032Y-79084655D01*
X59977939Y-79078014D01*
X60058537Y-79074226D01*
X60177169Y-79072493D01*
X60341176Y-79072016D01*
X60418981Y-79071997D01*
X60948923Y-79071997D01*
X60940042Y-79134524D01*
G37*
G36*
X61130317Y-78757874D02*
G01*
X61139586Y-78793155D01*
X61151682Y-78858716D01*
X61181562Y-78934313D01*
X61219618Y-79001146D01*
X61256241Y-79040419D01*
X61267915Y-79044207D01*
X61303340Y-79021138D01*
X61320169Y-78988791D01*
X61357581Y-78914460D01*
X61406136Y-78872929D01*
X61453670Y-78873759D01*
X61460463Y-78878540D01*
X61484039Y-78924182D01*
X61469947Y-78969428D01*
X61428408Y-78988627D01*
X61394347Y-79005527D01*
X61394544Y-79042106D01*
X61425577Y-79077187D01*
X61444055Y-79085504D01*
X61506947Y-79124249D01*
X61571276Y-79191143D01*
X61620922Y-79266255D01*
X61639805Y-79327517D01*
X61622182Y-79382367D01*
X61577907Y-79452822D01*
X61556435Y-79479197D01*
X61505906Y-79544163D01*
X61476292Y-79596581D01*
X61473066Y-79610158D01*
X61485360Y-79653424D01*
X61516970Y-79726261D01*
X61545377Y-79782878D01*
X61617641Y-79921067D01*
X61667256Y-80021657D01*
X61698415Y-80095716D01*
X61715311Y-80154314D01*
X61722139Y-80208518D01*
X61723175Y-80252135D01*
X61715079Y-80344506D01*
X61682764Y-80415517D01*
X61632858Y-80475373D01*
X61525874Y-80554831D01*
X61378866Y-80614026D01*
X61205043Y-80648672D01*
X61076235Y-80656023D01*
X60995655Y-80653698D01*
X60957325Y-80642336D01*
X60947968Y-80615357D01*
X60950072Y-80593496D01*
X60959726Y-80561097D01*
X60985422Y-80540453D01*
X61039190Y-80527180D01*
X61133062Y-80516890D01*
X61168342Y-80513933D01*
X61350368Y-80487027D01*
X61481793Y-80439725D01*
X61563945Y-80371441D01*
X61586960Y-80329245D01*
X61603115Y-80256116D01*
X61593168Y-80176596D01*
X61553789Y-80078795D01*
X61481648Y-79950822D01*
X61480409Y-79948790D01*
X61396642Y-79779841D01*
X61362903Y-79630123D01*
X61379327Y-79501113D01*
X61431349Y-79410582D01*
X61477170Y-79350078D01*
X61488212Y-79311020D01*
X61469358Y-79275921D01*
X61469058Y-79275559D01*
X61417688Y-79233581D01*
X61344665Y-79193911D01*
X61340429Y-79192109D01*
X61248209Y-79171389D01*
X61177682Y-79196472D01*
X61128235Y-79268716D01*
X61099256Y-79389479D01*
X61090132Y-79560121D01*
X61096669Y-79732754D01*
X61103775Y-79904297D01*
X61096906Y-80036751D01*
X61072834Y-80145560D01*
X61028330Y-80246165D01*
X60969687Y-80340199D01*
X60901948Y-80420316D01*
X60813339Y-80500067D01*
X60718714Y-80568502D01*
X60632926Y-80614670D01*
X60579023Y-80628233D01*
X60533997Y-80613949D01*
X60531471Y-80576108D01*
X60567860Y-80522227D01*
X60639583Y-80459822D01*
X60668945Y-80439585D01*
X60767781Y-80360409D01*
X60857952Y-80264130D01*
X60890836Y-80218660D01*
X60923226Y-80166092D01*
X60945568Y-80120512D01*
X60959507Y-80070515D01*
X60966694Y-80004700D01*
X60968774Y-79911662D01*
X60967396Y-79779997D01*
X60965970Y-79698665D01*
X60965032Y-79515121D01*
X60971147Y-79377332D01*
X60986407Y-79275696D01*
X61012902Y-79200610D01*
X61052726Y-79142471D01*
X61096069Y-79101307D01*
X61133324Y-79053451D01*
X61128848Y-78997959D01*
X61080981Y-78923621D01*
X61067296Y-78906979D01*
X61019949Y-78831329D01*
X61015437Y-78773725D01*
X61053012Y-78742129D01*
X61083134Y-78738518D01*
X61130317Y-78757874D01*
G37*
D13*
%TO.C,U1*%
X77861000Y-141261000D02*
X77926000Y-141261000D01*
X77861000Y-145381000D02*
X77861000Y-141261000D01*
X77926000Y-145381000D02*
X77861000Y-145381000D01*
X86666000Y-141261000D02*
X86731000Y-141261000D01*
X86731000Y-141261000D02*
X86731000Y-145381000D01*
X86731000Y-145381000D02*
X86666000Y-145381000D01*
X86996000Y-140961000D02*
X86666000Y-140721000D01*
X86996000Y-140481000D01*
X86996000Y-140961000D01*
G36*
X86996000Y-140961000D02*
G01*
X86666000Y-140721000D01*
X86996000Y-140481000D01*
X86996000Y-140961000D01*
G37*
%TO.C,R13*%
X152113825Y-130226500D02*
X151604377Y-130226500D01*
X152113825Y-131271500D02*
X151604377Y-131271500D01*
%TO.C,Q3*%
X96484000Y-140464000D02*
X97484000Y-140464000D01*
X96484000Y-141984000D02*
X96484000Y-140464000D01*
X96534000Y-141984000D02*
X96484000Y-141984000D01*
X98434000Y-141984000D02*
X97654000Y-141984000D01*
X98604000Y-140464000D02*
X99604000Y-140464000D01*
X99604000Y-140464000D02*
X99604000Y-141984000D01*
X99604000Y-141984000D02*
X99554000Y-141984000D01*
X97994000Y-142764000D02*
X97664000Y-142524000D01*
X97994000Y-142284000D01*
X97994000Y-142764000D01*
G36*
X97994000Y-142764000D02*
G01*
X97664000Y-142524000D01*
X97994000Y-142284000D01*
X97994000Y-142764000D01*
G37*
%TO.C,R9*%
X106730500Y-134366724D02*
X106730500Y-133857276D01*
X107775500Y-134366724D02*
X107775500Y-133857276D01*
%TO.C,C7*%
X166114000Y-134004267D02*
X166114000Y-133711733D01*
X167134000Y-134004267D02*
X167134000Y-133711733D01*
%TO.C,C2*%
X106678000Y-141839733D02*
X106678000Y-142132267D01*
X107698000Y-141839733D02*
X107698000Y-142132267D01*
%TO.C,U3*%
X108422000Y-144201000D02*
X108422000Y-142351000D01*
X109312000Y-144201000D02*
X108422000Y-144201000D01*
X111542000Y-144216000D02*
X110652000Y-144216000D01*
X111542000Y-144216000D02*
X111542000Y-142366000D01*
X111862000Y-142216000D02*
X111532000Y-141976000D01*
X111862000Y-141736000D01*
X111862000Y-142216000D01*
G36*
X111862000Y-142216000D02*
G01*
X111532000Y-141976000D01*
X111862000Y-141736000D01*
X111862000Y-142216000D01*
G37*
%TO.C,U6*%
X160008000Y-130526500D02*
X164128000Y-130526500D01*
X160008000Y-130591500D02*
X160008000Y-130526500D01*
X160008000Y-139396500D02*
X160008000Y-139331500D01*
X164128000Y-130526500D02*
X164128000Y-130591500D01*
X164128000Y-139331500D02*
X164128000Y-139396500D01*
X164128000Y-139396500D02*
X160008000Y-139396500D01*
X164908000Y-139661500D02*
X164428000Y-139661500D01*
X164668000Y-139331500D01*
X164908000Y-139661500D01*
G36*
X164908000Y-139661500D02*
G01*
X164428000Y-139661500D01*
X164668000Y-139331500D01*
X164908000Y-139661500D01*
G37*
D18*
%TO.C,K3*%
X65054000Y-116554000D02*
X65054000Y-133754000D01*
X65054000Y-133754000D02*
X101854000Y-133754000D01*
D16*
X93154000Y-136354000D02*
X93154000Y-136354000D01*
X93154000Y-136354000D02*
X93154000Y-136354000D01*
X93154000Y-136454000D02*
X93154000Y-136454000D01*
D18*
X101854000Y-116554000D02*
X65054000Y-116554000D01*
X101854000Y-133754000D02*
X101854000Y-116554000D01*
D16*
X93154000Y-136354000D02*
G75*
G02*
X93154000Y-136454000I0J-50000D01*
G01*
X93154000Y-136454000D02*
G75*
G02*
X93154000Y-136354000I0J50000D01*
G01*
X93154000Y-136454000D02*
G75*
G02*
X93154000Y-136354000I0J50000D01*
G01*
D13*
%TO.C,R12*%
X92097776Y-143749500D02*
X92607224Y-143749500D01*
X92097776Y-144794500D02*
X92607224Y-144794500D01*
%TO.C,Q1*%
X112374000Y-126964000D02*
X114194000Y-126964000D01*
X112374000Y-127964000D02*
X112374000Y-126964000D01*
X112374000Y-130084000D02*
X112374000Y-129084000D01*
X114194000Y-126964000D02*
X114194000Y-127014000D01*
X114194000Y-128134000D02*
X114194000Y-128914000D01*
X114194000Y-130034000D02*
X114194000Y-130084000D01*
X114194000Y-130084000D02*
X112374000Y-130084000D01*
X114734000Y-128904000D02*
X114494000Y-128574000D01*
X114974000Y-128574000D01*
X114734000Y-128904000D01*
G36*
X114734000Y-128904000D02*
G01*
X114494000Y-128574000D01*
X114974000Y-128574000D01*
X114734000Y-128904000D01*
G37*
%TO.C,R15*%
X99313276Y-143749500D02*
X99822724Y-143749500D01*
X99313276Y-144794500D02*
X99822724Y-144794500D01*
D10*
%TO.C,J3*%
X183440601Y-132819800D02*
X183440601Y-133264460D01*
X183440601Y-135174540D02*
X183440601Y-135764460D01*
X183440601Y-137674540D02*
X183440601Y-138119200D01*
X183440601Y-139965300D02*
X192381400Y-139965300D01*
X192381400Y-130973700D02*
X183440601Y-130973700D01*
X192381400Y-139965300D02*
X192381405Y-138390500D01*
X192381405Y-132548500D02*
X192381400Y-130973700D01*
X192381405Y-138390500D02*
X193829205Y-138390500D01*
X193829205Y-132548500D02*
X192381405Y-132548500D01*
X193829205Y-138390500D02*
X193829205Y-132548500D01*
D14*
X183608601Y-130338700D02*
G75*
G02*
X182846601Y-130338700I-381000J0D01*
G01*
X182846601Y-130338700D02*
G75*
G02*
X183608601Y-130338700I381000J0D01*
G01*
%TO.C,J10*%
D10*
X100894000Y-93782000D02*
X107894000Y-93782000D01*
X107894000Y-100782000D01*
X100894000Y-100782000D01*
X100894000Y-93782000D01*
X105894000Y-97282000D02*
G75*
G02*
X102894000Y-97282000I-1500000J0D01*
G01*
X102894000Y-97282000D02*
G75*
G02*
X105894000Y-97282000I1500000J0D01*
G01*
D13*
%TO.C,R5*%
X173016936Y-137274500D02*
X173471064Y-137274500D01*
X173016936Y-138744500D02*
X173471064Y-138744500D01*
%TO.C,R2*%
X173498724Y-131391000D02*
X172989276Y-131391000D01*
X173498724Y-132436000D02*
X172989276Y-132436000D01*
%TO.C,J6*%
D10*
X101007000Y-81703000D02*
X108007000Y-81703000D01*
X108007000Y-88703000D01*
X101007000Y-88703000D01*
X101007000Y-81703000D01*
X106007000Y-85203000D02*
G75*
G02*
X103007000Y-85203000I-1500000J0D01*
G01*
X103007000Y-85203000D02*
G75*
G02*
X106007000Y-85203000I1500000J0D01*
G01*
D13*
%TO.C,C4*%
X106743000Y-130702267D02*
X106743000Y-130409733D01*
X107763000Y-130702267D02*
X107763000Y-130409733D01*
%TO.C,D3*%
X103405000Y-128563000D02*
X103405000Y-130848000D01*
X104875000Y-128563000D02*
X103405000Y-128563000D01*
X104875000Y-130848000D02*
X104875000Y-128563000D01*
%TO.C,C1*%
X103630000Y-143109733D02*
X103630000Y-143402267D01*
X104650000Y-143109733D02*
X104650000Y-143402267D01*
%TO.C,J9*%
D10*
X52380000Y-103293000D02*
X59380000Y-103293000D01*
X59380000Y-110293000D01*
X52380000Y-110293000D01*
X52380000Y-103293000D01*
X57380000Y-106793000D02*
G75*
G02*
X54380000Y-106793000I-1500000J0D01*
G01*
X54380000Y-106793000D02*
G75*
G02*
X57380000Y-106793000I1500000J0D01*
G01*
%TO.C,K4*%
X126238000Y-107950000D02*
X126238000Y-123190000D01*
X126238000Y-123190000D02*
X136398000Y-123190000D01*
X136398000Y-107950000D02*
X126238000Y-107950000D01*
X136398000Y-123190000D02*
X136398000Y-107950000D01*
D13*
%TO.C,R19*%
X108189500Y-126641776D02*
X108189500Y-127151224D01*
X109234500Y-126641776D02*
X109234500Y-127151224D01*
%TO.C,J8*%
D10*
X52380000Y-90988000D02*
X59380000Y-90988000D01*
X59380000Y-97988000D01*
X52380000Y-97988000D01*
X52380000Y-90988000D01*
X57380000Y-94488000D02*
G75*
G02*
X54380000Y-94488000I-1500000J0D01*
G01*
X54380000Y-94488000D02*
G75*
G02*
X57380000Y-94488000I1500000J0D01*
G01*
D13*
%TO.C,C3*%
X111971267Y-136015000D02*
X111678733Y-136015000D01*
X111971267Y-137035000D02*
X111678733Y-137035000D01*
%TO.C,C6*%
X156413000Y-137139767D02*
X156413000Y-136847233D01*
X157433000Y-137139767D02*
X157433000Y-136847233D01*
%TO.C,U5*%
X127662000Y-123820000D02*
X135482000Y-123820000D01*
X127662000Y-123900000D02*
X127662000Y-123820000D01*
X127662000Y-127640000D02*
X127662000Y-127560000D01*
X135482000Y-123820000D02*
X135482000Y-123900000D01*
X135482000Y-127560000D02*
X135482000Y-127640000D01*
X135482000Y-127640000D02*
X127662000Y-127640000D01*
X136262000Y-126440000D02*
X135922000Y-125970000D01*
X136602000Y-125970000D01*
X136262000Y-126440000D01*
G36*
X136262000Y-126440000D02*
G01*
X135922000Y-125970000D01*
X136602000Y-125970000D01*
X136262000Y-126440000D01*
G37*
%TO.C,R1*%
X65517500Y-141477276D02*
X65517500Y-141986724D01*
X66562500Y-141477276D02*
X66562500Y-141986724D01*
%TO.C,TP8*%
X60768000Y-145604000D02*
X62168000Y-145604000D01*
X60768000Y-147004000D02*
X60768000Y-145604000D01*
X62168000Y-145604000D02*
X62168000Y-147004000D01*
X62168000Y-147004000D02*
X60768000Y-147004000D01*
%TD*%
M02*
