%TF.GenerationSoftware,KiCad,Pcbnew,9.0.6*%
%TF.CreationDate,2026-05-19T08:45:07-07:00*%
%TF.ProjectId,Power Electronics Board,506f7765-7220-4456-9c65-6374726f6e69,3.0*%
%TF.SameCoordinates,Original*%
%TF.FileFunction,Soldermask,Bot*%
%TF.FilePolarity,Negative*%
%FSLAX46Y46*%
G04 Gerber Fmt 4.6, Leading zero omitted, Abs format (unit mm)*
G04 Created by KiCad (PCBNEW 9.0.6) date 2026-05-19 08:45:07*
%MOMM*%
%LPD*%
G01*
G04 APERTURE LIST*
G04 Aperture macros list*
%AMRoundRect*
0 Rectangle with rounded corners*
0 $1 Rounding radius*
0 $2 $3 $4 $5 $6 $7 $8 $9 X,Y pos of 4 corners*
0 Add a 4 corners polygon primitive as box body*
4,1,4,$2,$3,$4,$5,$6,$7,$8,$9,$2,$3,0*
0 Add four circle primitives for the rounded corners*
1,1,$1+$1,$2,$3*
1,1,$1+$1,$4,$5*
1,1,$1+$1,$6,$7*
1,1,$1+$1,$8,$9*
0 Add four rect primitives between the rounded corners*
20,1,$1+$1,$2,$3,$4,$5,0*
20,1,$1+$1,$4,$5,$6,$7,0*
20,1,$1+$1,$6,$7,$8,$9,0*
20,1,$1+$1,$8,$9,$2,$3,0*%
G04 Aperture macros list end*
%ADD10C,3.200000*%
%ADD11C,5.588000*%
%ADD12RoundRect,0.102000X-0.754000X-0.754000X0.754000X-0.754000X0.754000X0.754000X-0.754000X0.754000X0*%
%ADD13C,1.712000*%
%ADD14C,2.641600*%
%ADD15C,1.676400*%
%ADD16C,2.400000*%
%ADD17C,6.400000*%
%ADD18C,3.900000*%
%ADD19C,1.950000*%
%ADD20C,1.397000*%
G04 APERTURE END LIST*
D10*
%TO.C,J1*%
X53566000Y-121130000D03*
X53566000Y-127000000D03*
X59436000Y-121130000D03*
X59436000Y-127000000D03*
%TD*%
D11*
%TO.C,F1*%
X94341950Y-111175800D03*
X94341950Y-102844600D03*
X94341950Y-81813400D03*
X94341950Y-90144600D03*
%TD*%
D12*
%TO.C,RV1*%
X70104000Y-144272000D03*
D13*
X72604000Y-144272000D03*
X75104000Y-144272000D03*
%TD*%
D14*
%TO.C,K2*%
X65582800Y-95834200D03*
D15*
X69392800Y-108534200D03*
X79552800Y-108534200D03*
D14*
X83362800Y-93294200D03*
X83362800Y-85674200D03*
%TD*%
D10*
%TO.C,H3*%
X190500000Y-146304000D03*
%TD*%
%TO.C,J2*%
X53453000Y-132701000D03*
X53453000Y-138571000D03*
X59323000Y-132701000D03*
X59323000Y-138571000D03*
%TD*%
D16*
%TO.C,R4*%
X157472000Y-144613500D03*
X179872000Y-144613500D03*
%TD*%
%TO.C,R7*%
X179872000Y-126325500D03*
X157472000Y-126325500D03*
%TD*%
D17*
%TO.C,H2*%
X52324000Y-80772000D03*
%TD*%
%TO.C,H1*%
X52324000Y-146304000D03*
%TD*%
D18*
%TO.C,K3*%
X67554000Y-131254000D03*
X67554000Y-127254000D03*
X67554000Y-123254000D03*
X76454000Y-131254000D03*
X76454000Y-127254000D03*
X76454000Y-123254000D03*
D19*
X93154000Y-131454000D03*
X98154000Y-131454000D03*
X88154000Y-131454000D03*
%TD*%
D10*
%TO.C,J10*%
X101459000Y-94347000D03*
X101459000Y-100217000D03*
X107329000Y-94347000D03*
X107329000Y-100217000D03*
%TD*%
%TO.C,J6*%
X101572000Y-82268000D03*
X101572000Y-88138000D03*
X107442000Y-82268000D03*
X107442000Y-88138000D03*
%TD*%
%TO.C,J9*%
X52945000Y-103858000D03*
X52945000Y-109728000D03*
X58815000Y-103858000D03*
X58815000Y-109728000D03*
%TD*%
D20*
%TO.C,K4*%
X127508000Y-109220000D03*
X127508000Y-121920000D03*
X135128000Y-121920000D03*
X135128000Y-114300000D03*
X135128000Y-109220000D03*
%TD*%
D10*
%TO.C,J8*%
X52945000Y-91553000D03*
X52945000Y-97423000D03*
X58815000Y-91553000D03*
X58815000Y-97423000D03*
%TD*%
M02*
