%TF.GenerationSoftware,KiCad,Pcbnew,9.0.6*%
%TF.CreationDate,2026-05-10T15:04:05-07:00*%
%TF.ProjectId,Power Electronics Board,506f7765-7220-4456-9c65-6374726f6e69,2.6*%
%TF.SameCoordinates,Original*%
%TF.FileFunction,Copper,L2,Bot*%
%TF.FilePolarity,Positive*%
%FSLAX46Y46*%
G04 Gerber Fmt 4.6, Leading zero omitted, Abs format (unit mm)*
G04 Created by KiCad (PCBNEW 9.0.6) date 2026-05-10 15:04:05*
%MOMM*%
%LPD*%
G01*
G04 APERTURE LIST*
%TA.AperFunction,ComponentPad*%
%ADD10C,5.588000*%
%TD*%
%TA.AperFunction,ComponentPad*%
%ADD11C,2.641600*%
%TD*%
%TA.AperFunction,ComponentPad*%
%ADD12C,1.676400*%
%TD*%
%TA.AperFunction,ComponentPad*%
%ADD13C,2.400000*%
%TD*%
%TA.AperFunction,ComponentPad*%
%ADD14C,4.000000*%
%TD*%
%TA.AperFunction,ComponentPad*%
%ADD15R,5.100000X4.800000*%
%TD*%
%TA.AperFunction,ComponentPad*%
%ADD16C,6.400000*%
%TD*%
%TA.AperFunction,ComponentPad*%
%ADD17C,3.900000*%
%TD*%
%TA.AperFunction,ComponentPad*%
%ADD18C,1.950000*%
%TD*%
%TA.AperFunction,ComponentPad*%
%ADD19R,4.500000X4.800000*%
%TD*%
%TA.AperFunction,ComponentPad*%
%ADD20C,3.200000*%
%TD*%
%TA.AperFunction,ComponentPad*%
%ADD21C,1.397000*%
%TD*%
%TA.AperFunction,ComponentPad*%
%ADD22R,1.508000X1.508000*%
%TD*%
%TA.AperFunction,ComponentPad*%
%ADD23C,1.508000*%
%TD*%
%TA.AperFunction,ViaPad*%
%ADD24C,0.508000*%
%TD*%
%TA.AperFunction,ViaPad*%
%ADD25C,0.762000*%
%TD*%
%TA.AperFunction,Conductor*%
%ADD26C,0.254000*%
%TD*%
%TA.AperFunction,Conductor*%
%ADD27C,0.508000*%
%TD*%
G04 APERTURE END LIST*
D10*
%TO.P,F1,4*%
%TO.N,GLVMS*%
X94341950Y-90144600D03*
%TO.P,F1,2*%
%TO.N,Net-(K3-COM_1)*%
X94341950Y-102844600D03*
%TO.P,F1,1*%
X94341950Y-111175800D03*
%TO.P,F1,3*%
%TO.N,GLVMS*%
X94341950Y-81813400D03*
%TD*%
D11*
%TO.P,K2,1*%
%TO.N,Net-(J8-Pin_1)*%
X65582800Y-95834200D03*
D12*
%TO.P,K2,2*%
%TO.N,+12V_BAT*%
X69392800Y-108534200D03*
%TO.P,K2,3*%
%TO.N,Net-(K2-Pad3)*%
X79552800Y-108534200D03*
D11*
%TO.P,K2,4*%
%TO.N,Net-(K3-COM_1)*%
X83362800Y-93294200D03*
%TO.P,K2,5*%
%TO.N,unconnected-(K2-Pad5)*%
X83362800Y-85674200D03*
%TD*%
D13*
%TO.P,R4,1*%
%TO.N,Net-(J5-Pin_2)*%
X157472000Y-144613500D03*
%TO.P,R4,2*%
%TO.N,Net-(J3-Pin_2)*%
X179872000Y-144613500D03*
%TD*%
%TO.P,R7,1*%
%TO.N,Net-(J3-Pin_1)*%
X179872000Y-126325500D03*
%TO.P,R7,2*%
%TO.N,Net-(J5-Pin_1)*%
X157472000Y-126325500D03*
%TD*%
D14*
%TO.P,J6,*%
%TO.N,*%
X115287000Y-79694000D03*
X115287000Y-101154000D03*
D15*
%TO.P,J6,1,Pin_1*%
%TO.N,GLVMS*%
X101287000Y-85424000D03*
X106287000Y-85424000D03*
%TO.P,J6,2,Pin_2*%
%TO.N,GND*%
X101287000Y-95424000D03*
X106287000Y-95424000D03*
%TD*%
D16*
%TO.P,H2,1,1*%
%TO.N,GND*%
X52324000Y-80772000D03*
%TD*%
%TO.P,H1,1,1*%
%TO.N,GND*%
X52324000Y-146304000D03*
%TD*%
D17*
%TO.P,K3,1,NO_1*%
%TO.N,+12V_BAT*%
X67564000Y-132766000D03*
%TO.P,K3,2,NO_2*%
X67564000Y-128766000D03*
%TO.P,K3,3,NO_3*%
X67564000Y-124766000D03*
%TO.P,K3,4,COM_1*%
%TO.N,Net-(K3-COM_1)*%
X76464000Y-132766000D03*
%TO.P,K3,5,COM_2*%
X76464000Y-128766000D03*
%TO.P,K3,6,COM_3*%
X76464000Y-124766000D03*
D18*
%TO.P,K3,A1,S-/R-*%
%TO.N,GND*%
X93164000Y-132966000D03*
%TO.P,K3,A2,S+*%
%TO.N,Reset_Button_In*%
X98164000Y-132966000D03*
%TO.P,K3,A3,R+*%
%TO.N,Net-(D2-K)*%
X88164000Y-132966000D03*
%TD*%
D14*
%TO.P,J10,*%
%TO.N,*%
X58205500Y-117794000D03*
X58205500Y-139254000D03*
D19*
%TO.P,J10,1,Pin_1*%
%TO.N,+12V_BAT*%
X54155500Y-123524000D03*
X58555500Y-123524000D03*
%TO.P,J10,2,Pin_2*%
%TO.N,GND*%
X54155500Y-133524000D03*
X58555500Y-133524000D03*
%TD*%
D20*
%TO.P,J9,1,Pin_1*%
%TO.N,GND*%
X52945000Y-103858000D03*
X52945000Y-109728000D03*
X58815000Y-103858000D03*
X58815000Y-109728000D03*
%TD*%
D21*
%TO.P,K4,1*%
%TO.N,Shutdown_Final*%
X127508000Y-109220000D03*
%TO.P,K4,6*%
%TO.N,GND*%
X127508000Y-121920000D03*
%TO.P,K4,7*%
%TO.N,Net-(J4-Pin_2)*%
X135128000Y-121920000D03*
%TO.P,K4,10*%
%TO.N,Net-(J4-Pin_1)*%
X135128000Y-114300000D03*
%TO.P,K4,12*%
%TO.N,unconnected-(K4-Pad12)*%
X135128000Y-109220000D03*
%TD*%
D20*
%TO.P,J8,1,Pin_1*%
%TO.N,Net-(J8-Pin_1)*%
X52945000Y-91553000D03*
X52945000Y-97423000D03*
X58815000Y-91553000D03*
X58815000Y-97423000D03*
%TD*%
D22*
%TO.P,RV1,1,1*%
%TO.N,+5V_LV*%
X70104000Y-144272000D03*
D23*
%TO.P,RV1,2,2*%
%TO.N,Net-(U1A-+)*%
X72604000Y-144272000D03*
%TO.P,RV1,3,3*%
%TO.N,GND*%
X75104000Y-144272000D03*
%TD*%
D24*
%TO.N,GND*%
X67564000Y-140462000D03*
%TO.N,+5V_LV*%
X80772000Y-143167100D03*
X85453978Y-139630806D03*
X82296000Y-140716000D03*
%TO.N,+12V_Switched*%
X117348000Y-126415800D03*
X117348000Y-127584200D03*
%TO.N,GND*%
X114300000Y-126568200D03*
X103124000Y-117856000D03*
X108204000Y-120396000D03*
X111760000Y-129540000D03*
X110744000Y-139700000D03*
X108712000Y-136144000D03*
X68580000Y-143256000D03*
X114808000Y-120396000D03*
%TO.N,+5V_LV*%
X111760000Y-134112000D03*
X99060000Y-139091800D03*
X96852600Y-139092800D03*
X112928294Y-131749800D03*
%TO.N,Net-(C5-Pad1)*%
X87237913Y-141224001D03*
X88530087Y-141224001D03*
%TO.N,TS-*%
X155907000Y-134961500D03*
X154891000Y-130897500D03*
X168656000Y-134874000D03*
X172212000Y-133858000D03*
%TO.N,+12V_BAT*%
X86868000Y-118364000D03*
D25*
%TO.N,Net-(J4-Pin_2)*%
X179832000Y-121158000D03*
D24*
%TO.N,Net-(J5-Pin_2)*%
X149352000Y-140970000D03*
X149352000Y-123190000D03*
D25*
%TO.N,Net-(J4-Pin_1)*%
X179832000Y-115062000D03*
D24*
%TO.N,RTM_In*%
X111252000Y-126923800D03*
X112146500Y-128524000D03*
X109728000Y-124648302D03*
X109728000Y-122641698D03*
%TO.N,Net-(Q2-D)*%
X94870237Y-142789921D03*
X96012000Y-141930408D03*
%TO.N,Net-(U6A-+)*%
X166067000Y-136485500D03*
X168607000Y-136485500D03*
%TO.N,2V Ref*%
X162003000Y-136485500D03*
X157431000Y-131913500D03*
%TO.N,Net-(R14-Pad2)*%
X141986000Y-131318000D03*
X138176000Y-127000000D03*
%TO.N,Net-(U7-R)*%
X117424200Y-124968000D03*
X114724127Y-130231200D03*
X116175512Y-125319512D03*
%TO.N,Net-(K2-Pad3)*%
X87122000Y-117602000D03*
%TO.N,Reset_Button_In*%
X100076000Y-119888000D03*
X101317092Y-118646908D03*
%TD*%
D26*
%TO.N,+5V_LV*%
X84368784Y-140716000D02*
X85453978Y-139630806D01*
X82296000Y-140716000D02*
X84368784Y-140716000D01*
%TO.N,+12V_Switched*%
X117348000Y-126415800D02*
X117348000Y-127584200D01*
%TO.N,+5V_LV*%
X112928294Y-132943706D02*
X112928294Y-131749800D01*
X99060000Y-139091800D02*
X98135016Y-139091800D01*
X98134016Y-139092800D02*
X96852600Y-139092800D01*
X111760000Y-134112000D02*
X112928294Y-132943706D01*
X98135016Y-139091800D02*
X98134016Y-139092800D01*
%TO.N,Net-(C5-Pad1)*%
X88530087Y-141224001D02*
X87237913Y-141224001D01*
%TO.N,TS-*%
X155907000Y-131913500D02*
X155907000Y-134961500D01*
X169672000Y-133858000D02*
X168656000Y-134874000D01*
X172212000Y-133858000D02*
X169672000Y-133858000D01*
X154891000Y-130897500D02*
X155907000Y-131913500D01*
%TO.N,+12V_BAT*%
X70669296Y-109810696D02*
X69392800Y-108534200D01*
X86868000Y-118364000D02*
X86282800Y-117778800D01*
X86282800Y-115912192D02*
X80181304Y-109810696D01*
X86282800Y-117778800D02*
X86282800Y-115912192D01*
X80181304Y-109810696D02*
X70669296Y-109810696D01*
D27*
%TO.N,Net-(J4-Pin_2)*%
X135890000Y-121158000D02*
X135128000Y-121920000D01*
X179832000Y-121158000D02*
X135890000Y-121158000D01*
D26*
%TO.N,Net-(J5-Pin_2)*%
X149352000Y-140970000D02*
X149352000Y-123190000D01*
D27*
%TO.N,Net-(J4-Pin_1)*%
X140716000Y-114300000D02*
X135128000Y-114300000D01*
X141478000Y-115062000D02*
X140716000Y-114300000D01*
X179832000Y-115062000D02*
X141478000Y-115062000D01*
D26*
%TO.N,RTM_In*%
X111252000Y-126923800D02*
X111252000Y-127629500D01*
X111252000Y-127629500D02*
X112146500Y-128524000D01*
X109728000Y-122641698D02*
X109728000Y-124648302D01*
%TO.N,Net-(Q2-D)*%
X95152487Y-142789921D02*
X96012000Y-141930408D01*
X94870237Y-142789921D02*
X95152487Y-142789921D01*
%TO.N,Net-(U6A-+)*%
X166067000Y-136485500D02*
X168607000Y-136485500D01*
%TO.N,2V Ref*%
X162003000Y-136485500D02*
X157431000Y-131913500D01*
%TO.N,Net-(R14-Pad2)*%
X141986000Y-131318000D02*
X141986000Y-127974782D01*
X141011218Y-127000000D02*
X138176000Y-127000000D01*
X141986000Y-127974782D02*
X141011218Y-127000000D01*
%TO.N,Net-(U7-R)*%
X116175512Y-126660318D02*
X116175512Y-125319512D01*
X116175512Y-125319512D02*
X116527024Y-124968000D01*
X114724127Y-128111703D02*
X116175512Y-126660318D01*
X114724127Y-130231200D02*
X114724127Y-128111703D01*
X116527024Y-124968000D02*
X117424200Y-124968000D01*
%TO.N,Net-(K2-Pad3)*%
X86868000Y-117348000D02*
X86868000Y-115849400D01*
X87122000Y-117602000D02*
X86868000Y-117348000D01*
X86868000Y-115849400D02*
X79552800Y-108534200D01*
%TO.N,Reset_Button_In*%
X100076000Y-119888000D02*
X101317092Y-118646908D01*
%TO.N,+5V_LV*%
X82296000Y-140716000D02*
X80772000Y-142240000D01*
X80772000Y-142240000D02*
X80772000Y-143167100D01*
%TD*%
%TA.AperFunction,Conductor*%
%TO.N,GND*%
G36*
X57155500Y-133413818D02*
G01*
X57155500Y-133634182D01*
X57177645Y-133774000D01*
X55533355Y-133774000D01*
X55555500Y-133634182D01*
X55555500Y-133413818D01*
X55533355Y-133274000D01*
X57177645Y-133274000D01*
X57155500Y-133413818D01*
G37*
%TD.AperFunction*%
%TA.AperFunction,Conductor*%
G36*
X104887000Y-95313818D02*
G01*
X104887000Y-95534182D01*
X104909145Y-95674000D01*
X102664855Y-95674000D01*
X102687000Y-95534182D01*
X102687000Y-95313818D01*
X102664855Y-95174000D01*
X104909145Y-95174000D01*
X104887000Y-95313818D01*
G37*
%TD.AperFunction*%
%TA.AperFunction,Conductor*%
G36*
X114340107Y-77490185D02*
G01*
X114385862Y-77542989D01*
X114395806Y-77612147D01*
X114366781Y-77675703D01*
X114320520Y-77709061D01*
X114310248Y-77713315D01*
X114310234Y-77713322D01*
X114060069Y-77857755D01*
X114060054Y-77857765D01*
X113830883Y-78033614D01*
X113830876Y-78033620D01*
X113626620Y-78237876D01*
X113626614Y-78237883D01*
X113450765Y-78467054D01*
X113450755Y-78467069D01*
X113306322Y-78717234D01*
X113306318Y-78717243D01*
X113195774Y-78984119D01*
X113121005Y-79263160D01*
X113083301Y-79549552D01*
X113083300Y-79549568D01*
X113083300Y-79838431D01*
X113083301Y-79838447D01*
X113121005Y-80124839D01*
X113195774Y-80403880D01*
X113303693Y-80664418D01*
X113306321Y-80670763D01*
X113450759Y-80920937D01*
X113450764Y-80920943D01*
X113450765Y-80920945D01*
X113626614Y-81150116D01*
X113626620Y-81150123D01*
X113830876Y-81354379D01*
X113830882Y-81354384D01*
X114060063Y-81530241D01*
X114310237Y-81674679D01*
X114577124Y-81785227D01*
X114856157Y-81859994D01*
X115142562Y-81897700D01*
X115142569Y-81897700D01*
X115431431Y-81897700D01*
X115431438Y-81897700D01*
X115717843Y-81859994D01*
X115996876Y-81785227D01*
X116263763Y-81674679D01*
X116513937Y-81530241D01*
X116743118Y-81354384D01*
X116947384Y-81150118D01*
X117123241Y-80920937D01*
X117267679Y-80670763D01*
X117378227Y-80403876D01*
X117452994Y-80124843D01*
X117490700Y-79838438D01*
X117490700Y-79549562D01*
X117452994Y-79263157D01*
X117378227Y-78984124D01*
X117267679Y-78717237D01*
X117123241Y-78467063D01*
X116947384Y-78237882D01*
X116947379Y-78237876D01*
X116743123Y-78033620D01*
X116743116Y-78033614D01*
X116513945Y-77857765D01*
X116513943Y-77857764D01*
X116513937Y-77857759D01*
X116263763Y-77713321D01*
X116263751Y-77713315D01*
X116253480Y-77709061D01*
X116199076Y-77665220D01*
X116177011Y-77598926D01*
X116194290Y-77531227D01*
X116245427Y-77483616D01*
X116300932Y-77470500D01*
X128908259Y-77470500D01*
X128975298Y-77490185D01*
X129021053Y-77542989D01*
X129032259Y-77594251D01*
X129070206Y-96491860D01*
X129082300Y-102514737D01*
X129082300Y-102565023D01*
X129082401Y-102565267D01*
X129082402Y-102565534D01*
X129082417Y-102565572D01*
X129082418Y-102565573D01*
X129101781Y-102612055D01*
X129101780Y-102612055D01*
X129101930Y-102612416D01*
X129121045Y-102658563D01*
X129121232Y-102658750D01*
X129121335Y-102658996D01*
X129121365Y-102659026D01*
X129121366Y-102659027D01*
X129138662Y-102676253D01*
X129156953Y-102694471D01*
X129192637Y-102730155D01*
X129192883Y-102730256D01*
X129193071Y-102730444D01*
X129212519Y-102738454D01*
X129215692Y-102739978D01*
X129239114Y-102761083D01*
X129263712Y-102780823D01*
X129264876Y-102784297D01*
X129267598Y-102786750D01*
X129275892Y-102817172D01*
X129285912Y-102847072D01*
X129286000Y-102851751D01*
X129286000Y-104777500D01*
X129266315Y-104844539D01*
X129213511Y-104890294D01*
X129162000Y-104901500D01*
X128574623Y-104901500D01*
X128473377Y-104901500D01*
X128473375Y-104901500D01*
X128473373Y-104901501D01*
X128379839Y-104940242D01*
X128308242Y-105011839D01*
X128269501Y-105105373D01*
X128269500Y-105105378D01*
X128269500Y-108411763D01*
X128249815Y-108478802D01*
X128197011Y-108524557D01*
X128127853Y-108534501D01*
X128076609Y-108514865D01*
X127935358Y-108420484D01*
X127935349Y-108420479D01*
X127771162Y-108352471D01*
X127771154Y-108352469D01*
X127596862Y-108317800D01*
X127596859Y-108317800D01*
X127419141Y-108317800D01*
X127419138Y-108317800D01*
X127244845Y-108352469D01*
X127244837Y-108352471D01*
X127080650Y-108420479D01*
X127080641Y-108420484D01*
X126932881Y-108519215D01*
X126932877Y-108519218D01*
X126807218Y-108644877D01*
X126807215Y-108644881D01*
X126708484Y-108792641D01*
X126708479Y-108792650D01*
X126640471Y-108956837D01*
X126640469Y-108956845D01*
X126605800Y-109131136D01*
X126605800Y-109308863D01*
X126640469Y-109483154D01*
X126640471Y-109483162D01*
X126708479Y-109647349D01*
X126708484Y-109647358D01*
X126807215Y-109795118D01*
X126807218Y-109795122D01*
X126932877Y-109920781D01*
X126932881Y-109920784D01*
X127080641Y-110019515D01*
X127080650Y-110019520D01*
X127117844Y-110034926D01*
X127244838Y-110087529D01*
X127402345Y-110118859D01*
X127419136Y-110122199D01*
X127419139Y-110122200D01*
X127419141Y-110122200D01*
X127596861Y-110122200D01*
X127596862Y-110122199D01*
X127771162Y-110087529D01*
X127935352Y-110019519D01*
X128076609Y-109925134D01*
X128143286Y-109904256D01*
X128210666Y-109922740D01*
X128257357Y-109974719D01*
X128269500Y-110028236D01*
X128269500Y-120760545D01*
X128249815Y-120827584D01*
X128197011Y-120873339D01*
X128127853Y-120883283D01*
X128089205Y-120871030D01*
X127968064Y-120809306D01*
X127968061Y-120809304D01*
X127788650Y-120751011D01*
X127602323Y-120721500D01*
X127413677Y-120721500D01*
X127227349Y-120751011D01*
X127047938Y-120809304D01*
X127047936Y-120809305D01*
X126879846Y-120894952D01*
X126854744Y-120913189D01*
X126854744Y-120913190D01*
X127423906Y-121482352D01*
X127336429Y-121505792D01*
X127235070Y-121564311D01*
X127152311Y-121647070D01*
X127093792Y-121748429D01*
X127070352Y-121835906D01*
X126501190Y-121266744D01*
X126501189Y-121266744D01*
X126482952Y-121291846D01*
X126397305Y-121459936D01*
X126397304Y-121459938D01*
X126339011Y-121639349D01*
X126309500Y-121825676D01*
X126309500Y-122014323D01*
X126339011Y-122200650D01*
X126397304Y-122380061D01*
X126397305Y-122380064D01*
X126482953Y-122548154D01*
X126501189Y-122573254D01*
X126501190Y-122573255D01*
X127070352Y-122004093D01*
X127093792Y-122091571D01*
X127152311Y-122192930D01*
X127235070Y-122275689D01*
X127336429Y-122334208D01*
X127423904Y-122357647D01*
X126854743Y-122926808D01*
X126879848Y-122945048D01*
X127047935Y-123030694D01*
X127047938Y-123030695D01*
X127227349Y-123088988D01*
X127413677Y-123118500D01*
X127602323Y-123118500D01*
X127788650Y-123088988D01*
X127968061Y-123030695D01*
X127968064Y-123030694D01*
X128089205Y-122968969D01*
X128157874Y-122956073D01*
X128222614Y-122982349D01*
X128262872Y-123039455D01*
X128269500Y-123079454D01*
X128269500Y-146354621D01*
X128269501Y-146354626D01*
X128308242Y-146448160D01*
X128379839Y-146519757D01*
X128452182Y-146549721D01*
X128473377Y-146558500D01*
X128473379Y-146558500D01*
X129162000Y-146558500D01*
X129229039Y-146578185D01*
X129274794Y-146630989D01*
X129286000Y-146682500D01*
X129286000Y-149481500D01*
X129266315Y-149548539D01*
X129213511Y-149594294D01*
X129162000Y-149605500D01*
X49146500Y-149605500D01*
X49079461Y-149585815D01*
X49033706Y-149533011D01*
X49022500Y-149481500D01*
X49022500Y-145046066D01*
X69146299Y-145046066D01*
X69158117Y-145105476D01*
X69158118Y-145105479D01*
X69158119Y-145105480D01*
X69203140Y-145172860D01*
X69270520Y-145217881D01*
X69270523Y-145217882D01*
X69329933Y-145229700D01*
X69329936Y-145229700D01*
X70878066Y-145229700D01*
X70937476Y-145217882D01*
X70937477Y-145217881D01*
X70937480Y-145217881D01*
X71004860Y-145172860D01*
X71049881Y-145105480D01*
X71061700Y-145046064D01*
X71061700Y-144177670D01*
X71646300Y-144177670D01*
X71646300Y-144366329D01*
X71683102Y-144551343D01*
X71683105Y-144551355D01*
X71755293Y-144725634D01*
X71755300Y-144725647D01*
X71860105Y-144882497D01*
X71860108Y-144882501D01*
X71993498Y-145015891D01*
X71993502Y-145015894D01*
X72150352Y-145120699D01*
X72150365Y-145120706D01*
X72324644Y-145192894D01*
X72324649Y-145192896D01*
X72509670Y-145229699D01*
X72509673Y-145229700D01*
X72509675Y-145229700D01*
X72698327Y-145229700D01*
X72698328Y-145229699D01*
X72883351Y-145192896D01*
X73057641Y-145120703D01*
X73214498Y-145015894D01*
X73347894Y-144882498D01*
X73452703Y-144725641D01*
X73524896Y-144551351D01*
X73561700Y-144366325D01*
X73561700Y-144177675D01*
X73561700Y-144177672D01*
X73561699Y-144177670D01*
X73560830Y-144173302D01*
X73850000Y-144173302D01*
X73850000Y-144370697D01*
X73880876Y-144565646D01*
X73941873Y-144753373D01*
X74031483Y-144929239D01*
X74057457Y-144964988D01*
X74057457Y-144964989D01*
X74621037Y-144401409D01*
X74638075Y-144464993D01*
X74703901Y-144579007D01*
X74796993Y-144672099D01*
X74911007Y-144737925D01*
X74974590Y-144754962D01*
X74411009Y-145318541D01*
X74411010Y-145318542D01*
X74446755Y-145344512D01*
X74446768Y-145344520D01*
X74622626Y-145434126D01*
X74810353Y-145495123D01*
X75005303Y-145526000D01*
X75202697Y-145526000D01*
X75397646Y-145495123D01*
X75585373Y-145434126D01*
X75761241Y-145344516D01*
X75796988Y-145318543D01*
X75796988Y-145318541D01*
X75233410Y-144754962D01*
X75296993Y-144737925D01*
X75411007Y-144672099D01*
X75504099Y-144579007D01*
X75569925Y-144464993D01*
X75586962Y-144401409D01*
X76150541Y-144964988D01*
X76150543Y-144964988D01*
X76176516Y-144929241D01*
X76266126Y-144753373D01*
X76327123Y-144565646D01*
X76358000Y-144370697D01*
X76358000Y-144173302D01*
X76327123Y-143978353D01*
X76266126Y-143790626D01*
X76176520Y-143614768D01*
X76176512Y-143614755D01*
X76150542Y-143579010D01*
X76150541Y-143579009D01*
X75586962Y-144142589D01*
X75569925Y-144079007D01*
X75504099Y-143964993D01*
X75411007Y-143871901D01*
X75296993Y-143806075D01*
X75233409Y-143789037D01*
X75796989Y-143225457D01*
X75761240Y-143199484D01*
X75585373Y-143109873D01*
X75576048Y-143106843D01*
X80314300Y-143106843D01*
X80314300Y-143227357D01*
X80319730Y-143247621D01*
X80345492Y-143343766D01*
X80345495Y-143343771D01*
X80405744Y-143448127D01*
X80405748Y-143448132D01*
X80405749Y-143448134D01*
X80490966Y-143533351D01*
X80490968Y-143533352D01*
X80490972Y-143533355D01*
X80570050Y-143579010D01*
X80595335Y-143593608D01*
X80711743Y-143624800D01*
X80711745Y-143624800D01*
X80832255Y-143624800D01*
X80832257Y-143624800D01*
X80948665Y-143593608D01*
X81053034Y-143533351D01*
X81138251Y-143448134D01*
X81198508Y-143343765D01*
X81229700Y-143227357D01*
X81229700Y-143106843D01*
X81198508Y-142990435D01*
X81194083Y-142982771D01*
X81138255Y-142886072D01*
X81138252Y-142886069D01*
X81138251Y-142886066D01*
X81138248Y-142886063D01*
X81133305Y-142879621D01*
X81134556Y-142878660D01*
X81124315Y-142859906D01*
X81107723Y-142834088D01*
X81106831Y-142827887D01*
X81105534Y-142825511D01*
X81102700Y-142799153D01*
X81102700Y-142729664D01*
X94412537Y-142729664D01*
X94412537Y-142850178D01*
X94422155Y-142886072D01*
X94443729Y-142966587D01*
X94443732Y-142966592D01*
X94503981Y-143070948D01*
X94503985Y-143070953D01*
X94503986Y-143070955D01*
X94589203Y-143156172D01*
X94589205Y-143156173D01*
X94589209Y-143156176D01*
X94664220Y-143199483D01*
X94693572Y-143216429D01*
X94809980Y-143247621D01*
X94809982Y-143247621D01*
X94930492Y-143247621D01*
X94930494Y-143247621D01*
X95046902Y-143216429D01*
X95151271Y-143156172D01*
X95159958Y-143147484D01*
X95215546Y-143115390D01*
X95280133Y-143098085D01*
X95355542Y-143054547D01*
X95417113Y-142992976D01*
X95417113Y-142992974D01*
X95427317Y-142982771D01*
X95427320Y-142982766D01*
X95985661Y-142424427D01*
X96046984Y-142390942D01*
X96067421Y-142388744D01*
X96072254Y-142388108D01*
X96072257Y-142388108D01*
X96188665Y-142356916D01*
X96293034Y-142296659D01*
X96378251Y-142211442D01*
X96438508Y-142107073D01*
X96469700Y-141990665D01*
X96469700Y-141870151D01*
X96438508Y-141753743D01*
X96396915Y-141681701D01*
X96378255Y-141649380D01*
X96378249Y-141649372D01*
X96293035Y-141564158D01*
X96293027Y-141564152D01*
X96188671Y-141503903D01*
X96188666Y-141503900D01*
X96149862Y-141493502D01*
X96072257Y-141472708D01*
X95951743Y-141472708D01*
X95893539Y-141488304D01*
X95835333Y-141503900D01*
X95835328Y-141503903D01*
X95730972Y-141564152D01*
X95730964Y-141564158D01*
X95645750Y-141649372D01*
X95645744Y-141649380D01*
X95585495Y-141753736D01*
X95585492Y-141753741D01*
X95554299Y-141870153D01*
X95553239Y-141878210D01*
X95551675Y-141878004D01*
X95534615Y-141936104D01*
X95517981Y-141956746D01*
X95148325Y-142326402D01*
X95087002Y-142359887D01*
X95028552Y-142358496D01*
X94930494Y-142332221D01*
X94809980Y-142332221D01*
X94751776Y-142347817D01*
X94693570Y-142363413D01*
X94693565Y-142363416D01*
X94589209Y-142423665D01*
X94589201Y-142423671D01*
X94503987Y-142508885D01*
X94503981Y-142508893D01*
X94443732Y-142613249D01*
X94443729Y-142613254D01*
X94422934Y-142690861D01*
X94412537Y-142729664D01*
X81102700Y-142729664D01*
X81102700Y-142428342D01*
X81122385Y-142361303D01*
X81139019Y-142340661D01*
X82269662Y-141210019D01*
X82330985Y-141176534D01*
X82351416Y-141174337D01*
X82356254Y-141173700D01*
X82356257Y-141173700D01*
X82393413Y-141163744D01*
X86780213Y-141163744D01*
X86780213Y-141284258D01*
X86796549Y-141345225D01*
X86811405Y-141400667D01*
X86811408Y-141400672D01*
X86871657Y-141505028D01*
X86871661Y-141505033D01*
X86871662Y-141505035D01*
X86956879Y-141590252D01*
X86956881Y-141590253D01*
X86956885Y-141590256D01*
X87059279Y-141649372D01*
X87061248Y-141650509D01*
X87177656Y-141681701D01*
X87177658Y-141681701D01*
X87298168Y-141681701D01*
X87298170Y-141681701D01*
X87414578Y-141650509D01*
X87518947Y-141590252D01*
X87518952Y-141590246D01*
X87525392Y-141585306D01*
X87526352Y-141586557D01*
X87579502Y-141557535D01*
X87605860Y-141554701D01*
X88162140Y-141554701D01*
X88229179Y-141574386D01*
X88245168Y-141587270D01*
X88249050Y-141590249D01*
X88249053Y-141590252D01*
X88249056Y-141590253D01*
X88249059Y-141590256D01*
X88351453Y-141649372D01*
X88353422Y-141650509D01*
X88469830Y-141681701D01*
X88469832Y-141681701D01*
X88590342Y-141681701D01*
X88590344Y-141681701D01*
X88706752Y-141650509D01*
X88811121Y-141590252D01*
X88896338Y-141505035D01*
X88956595Y-141400666D01*
X88987787Y-141284258D01*
X88987787Y-141163744D01*
X88956595Y-141047336D01*
X88949961Y-141035846D01*
X88896342Y-140942973D01*
X88896336Y-140942965D01*
X88811122Y-140857751D01*
X88811114Y-140857745D01*
X88706758Y-140797496D01*
X88706753Y-140797493D01*
X88667949Y-140787095D01*
X88590344Y-140766301D01*
X88469830Y-140766301D01*
X88411626Y-140781897D01*
X88353420Y-140797493D01*
X88353415Y-140797496D01*
X88249059Y-140857745D01*
X88242608Y-140862696D01*
X88241647Y-140861444D01*
X88188498Y-140890467D01*
X88162140Y-140893301D01*
X87605860Y-140893301D01*
X87538821Y-140873616D01*
X87522831Y-140860731D01*
X87518940Y-140857745D01*
X87414584Y-140797496D01*
X87414579Y-140797493D01*
X87375775Y-140787095D01*
X87298170Y-140766301D01*
X87177656Y-140766301D01*
X87119452Y-140781897D01*
X87061246Y-140797493D01*
X87061241Y-140797496D01*
X86956885Y-140857745D01*
X86956877Y-140857751D01*
X86871663Y-140942965D01*
X86871657Y-140942973D01*
X86811408Y-141047329D01*
X86811405Y-141047334D01*
X86790610Y-141124941D01*
X86780213Y-141163744D01*
X82393413Y-141163744D01*
X82472665Y-141142508D01*
X82577034Y-141082251D01*
X82577039Y-141082245D01*
X82583479Y-141077305D01*
X82584439Y-141078556D01*
X82637589Y-141049534D01*
X82663947Y-141046700D01*
X84412319Y-141046700D01*
X84412321Y-141046700D01*
X84412322Y-141046700D01*
X84496430Y-141024164D01*
X84571839Y-140980626D01*
X84633410Y-140919055D01*
X84633410Y-140919053D01*
X84643614Y-140908850D01*
X84643617Y-140908845D01*
X85427639Y-140124825D01*
X85488962Y-140091340D01*
X85509399Y-140089142D01*
X85514232Y-140088506D01*
X85514235Y-140088506D01*
X85630643Y-140057314D01*
X85735012Y-139997057D01*
X85820229Y-139911840D01*
X85880486Y-139807471D01*
X85911678Y-139691063D01*
X85911678Y-139570549D01*
X85880486Y-139454141D01*
X85862218Y-139422500D01*
X85820233Y-139349778D01*
X85820227Y-139349770D01*
X85735013Y-139264556D01*
X85735005Y-139264550D01*
X85630649Y-139204301D01*
X85630644Y-139204298D01*
X85591840Y-139193900D01*
X85514235Y-139173106D01*
X85393721Y-139173106D01*
X85335517Y-139188702D01*
X85277311Y-139204298D01*
X85277306Y-139204301D01*
X85172950Y-139264550D01*
X85172942Y-139264556D01*
X85087728Y-139349770D01*
X85087722Y-139349778D01*
X85027473Y-139454134D01*
X85027470Y-139454139D01*
X84996277Y-139570551D01*
X84995217Y-139578608D01*
X84993653Y-139578402D01*
X84976593Y-139636503D01*
X84959959Y-139657145D01*
X84268123Y-140348981D01*
X84206800Y-140382466D01*
X84180442Y-140385300D01*
X82663947Y-140385300D01*
X82596908Y-140365615D01*
X82580918Y-140352730D01*
X82577027Y-140349744D01*
X82472671Y-140289495D01*
X82472666Y-140289492D01*
X82433862Y-140279094D01*
X82356257Y-140258300D01*
X82235743Y-140258300D01*
X82177539Y-140273896D01*
X82119333Y-140289492D01*
X82119328Y-140289495D01*
X82014972Y-140349744D01*
X82014964Y-140349750D01*
X81929750Y-140434964D01*
X81929744Y-140434972D01*
X81869495Y-140539328D01*
X81869492Y-140539333D01*
X81838299Y-140655745D01*
X81837239Y-140663802D01*
X81835675Y-140663596D01*
X81818615Y-140721696D01*
X81801981Y-140742338D01*
X80507376Y-142036942D01*
X80507374Y-142036945D01*
X80463836Y-142112353D01*
X80441300Y-142196460D01*
X80441300Y-142799153D01*
X80421615Y-142866192D01*
X80408730Y-142882181D01*
X80405744Y-142886072D01*
X80345495Y-142990428D01*
X80345492Y-142990433D01*
X80329832Y-143048876D01*
X80314300Y-143106843D01*
X75576048Y-143106843D01*
X75397646Y-143048876D01*
X75202697Y-143018000D01*
X75005303Y-143018000D01*
X74810353Y-143048876D01*
X74622626Y-143109873D01*
X74446762Y-143199482D01*
X74446760Y-143199483D01*
X74411010Y-143225456D01*
X74411010Y-143225457D01*
X74974591Y-143789037D01*
X74911007Y-143806075D01*
X74796993Y-143871901D01*
X74703901Y-143964993D01*
X74638075Y-144079007D01*
X74621037Y-144142590D01*
X74057457Y-143579010D01*
X74057456Y-143579010D01*
X74031483Y-143614760D01*
X74031482Y-143614762D01*
X73941873Y-143790626D01*
X73880876Y-143978353D01*
X73850000Y-144173302D01*
X73560830Y-144173302D01*
X73524896Y-143992649D01*
X73524894Y-143992644D01*
X73452706Y-143818365D01*
X73452699Y-143818352D01*
X73347894Y-143661502D01*
X73347891Y-143661498D01*
X73214501Y-143528108D01*
X73214497Y-143528105D01*
X73057647Y-143423300D01*
X73057638Y-143423295D01*
X72970681Y-143387277D01*
X72970679Y-143387276D01*
X72883355Y-143351105D01*
X72883343Y-143351102D01*
X72698328Y-143314300D01*
X72698325Y-143314300D01*
X72509675Y-143314300D01*
X72509672Y-143314300D01*
X72324656Y-143351102D01*
X72324644Y-143351105D01*
X72150365Y-143423293D01*
X72150352Y-143423300D01*
X71993502Y-143528105D01*
X71993498Y-143528108D01*
X71860108Y-143661498D01*
X71860105Y-143661502D01*
X71755300Y-143818352D01*
X71755293Y-143818365D01*
X71683105Y-143992644D01*
X71683102Y-143992656D01*
X71646300Y-144177670D01*
X71061700Y-144177670D01*
X71061700Y-143497936D01*
X71061700Y-143497933D01*
X71049882Y-143438523D01*
X71049881Y-143438520D01*
X71004860Y-143371140D01*
X70937480Y-143326119D01*
X70937479Y-143326118D01*
X70937476Y-143326117D01*
X70878066Y-143314300D01*
X70878064Y-143314300D01*
X69329936Y-143314300D01*
X69329934Y-143314300D01*
X69270523Y-143326117D01*
X69270520Y-143326118D01*
X69203140Y-143371140D01*
X69158118Y-143438520D01*
X69158117Y-143438523D01*
X69146300Y-143497933D01*
X69146300Y-143497936D01*
X69146300Y-145046064D01*
X69146300Y-145046066D01*
X69146299Y-145046066D01*
X49022500Y-145046066D01*
X49022500Y-139109568D01*
X56001800Y-139109568D01*
X56001800Y-139398431D01*
X56001801Y-139398447D01*
X56039505Y-139684839D01*
X56114274Y-139963880D01*
X56167070Y-140091340D01*
X56224821Y-140230763D01*
X56369259Y-140480937D01*
X56369264Y-140480943D01*
X56369265Y-140480945D01*
X56545114Y-140710116D01*
X56545120Y-140710123D01*
X56749376Y-140914379D01*
X56749382Y-140914384D01*
X56978563Y-141090241D01*
X57228737Y-141234679D01*
X57495624Y-141345227D01*
X57774657Y-141419994D01*
X58061062Y-141457700D01*
X58061069Y-141457700D01*
X58349931Y-141457700D01*
X58349938Y-141457700D01*
X58636343Y-141419994D01*
X58915376Y-141345227D01*
X59182263Y-141234679D01*
X59432437Y-141090241D01*
X59661618Y-140914384D01*
X59865884Y-140710118D01*
X60041741Y-140480937D01*
X60186179Y-140230763D01*
X60296727Y-139963876D01*
X60371494Y-139684843D01*
X60409200Y-139398438D01*
X60409200Y-139109562D01*
X60399060Y-139032543D01*
X96394900Y-139032543D01*
X96394900Y-139153057D01*
X96408630Y-139204298D01*
X96426092Y-139269466D01*
X96426095Y-139269471D01*
X96486344Y-139373827D01*
X96486348Y-139373832D01*
X96486349Y-139373834D01*
X96571566Y-139459051D01*
X96571568Y-139459052D01*
X96571572Y-139459055D01*
X96674196Y-139518304D01*
X96675935Y-139519308D01*
X96792343Y-139550500D01*
X96792345Y-139550500D01*
X96912855Y-139550500D01*
X96912857Y-139550500D01*
X97029265Y-139519308D01*
X97133634Y-139459051D01*
X97133639Y-139459045D01*
X97140079Y-139454105D01*
X97141039Y-139455356D01*
X97194189Y-139426334D01*
X97220547Y-139423500D01*
X98178020Y-139423500D01*
X98193276Y-139422500D01*
X98692053Y-139422500D01*
X98759092Y-139442185D01*
X98775081Y-139455069D01*
X98778963Y-139458048D01*
X98778966Y-139458051D01*
X98778969Y-139458052D01*
X98778972Y-139458055D01*
X98883328Y-139518304D01*
X98883335Y-139518308D01*
X98999743Y-139549500D01*
X98999745Y-139549500D01*
X99120255Y-139549500D01*
X99120257Y-139549500D01*
X99236665Y-139518308D01*
X99341034Y-139458051D01*
X99426251Y-139372834D01*
X99486508Y-139268465D01*
X99517700Y-139152057D01*
X99517700Y-139031543D01*
X99486508Y-138915135D01*
X99426832Y-138811772D01*
X99426255Y-138810772D01*
X99426249Y-138810764D01*
X99341035Y-138725550D01*
X99341027Y-138725544D01*
X99236671Y-138665295D01*
X99236666Y-138665292D01*
X99197862Y-138654894D01*
X99120257Y-138634100D01*
X98999743Y-138634100D01*
X98941539Y-138649696D01*
X98883333Y-138665292D01*
X98883328Y-138665295D01*
X98778972Y-138725544D01*
X98772521Y-138730495D01*
X98771560Y-138729243D01*
X98718411Y-138758266D01*
X98692053Y-138761100D01*
X98091012Y-138761100D01*
X98075756Y-138762100D01*
X97220547Y-138762100D01*
X97153508Y-138742415D01*
X97137518Y-138729530D01*
X97133627Y-138726544D01*
X97029271Y-138666295D01*
X97029266Y-138666292D01*
X96990462Y-138655894D01*
X96912857Y-138635100D01*
X96792343Y-138635100D01*
X96734139Y-138650696D01*
X96675933Y-138666292D01*
X96675928Y-138666295D01*
X96571572Y-138726544D01*
X96571564Y-138726550D01*
X96486350Y-138811764D01*
X96486344Y-138811772D01*
X96426095Y-138916128D01*
X96426092Y-138916133D01*
X96405297Y-138993740D01*
X96394900Y-139032543D01*
X60399060Y-139032543D01*
X60371494Y-138823157D01*
X60296727Y-138544124D01*
X60186179Y-138277237D01*
X60041741Y-138027063D01*
X59865884Y-137797882D01*
X59865879Y-137797876D01*
X59661623Y-137593620D01*
X59661616Y-137593614D01*
X59432445Y-137417765D01*
X59432443Y-137417764D01*
X59432437Y-137417759D01*
X59182263Y-137273321D01*
X59182256Y-137273318D01*
X58915380Y-137162774D01*
X58636339Y-137088005D01*
X58349947Y-137050301D01*
X58349944Y-137050300D01*
X58349938Y-137050300D01*
X58061062Y-137050300D01*
X58061056Y-137050300D01*
X58061052Y-137050301D01*
X57774660Y-137088005D01*
X57495619Y-137162774D01*
X57228743Y-137273318D01*
X57228734Y-137273322D01*
X56978569Y-137417755D01*
X56978554Y-137417765D01*
X56749383Y-137593614D01*
X56749376Y-137593620D01*
X56545120Y-137797876D01*
X56545114Y-137797883D01*
X56369265Y-138027054D01*
X56369255Y-138027069D01*
X56224822Y-138277234D01*
X56224818Y-138277243D01*
X56114274Y-138544119D01*
X56039505Y-138823160D01*
X56001801Y-139109552D01*
X56001800Y-139109568D01*
X49022500Y-139109568D01*
X49022500Y-131076155D01*
X51405500Y-131076155D01*
X51405500Y-133274000D01*
X52777645Y-133274000D01*
X52755500Y-133413818D01*
X52755500Y-133634182D01*
X52777645Y-133774000D01*
X51405500Y-133774000D01*
X51405500Y-135971844D01*
X51411901Y-136031372D01*
X51411903Y-136031379D01*
X51462145Y-136166086D01*
X51462149Y-136166093D01*
X51548309Y-136281187D01*
X51548312Y-136281190D01*
X51663406Y-136367350D01*
X51663413Y-136367354D01*
X51798120Y-136417596D01*
X51798127Y-136417598D01*
X51857655Y-136423999D01*
X51857672Y-136424000D01*
X53905500Y-136424000D01*
X53905500Y-134901854D01*
X54045318Y-134924000D01*
X54265682Y-134924000D01*
X54405500Y-134901854D01*
X54405500Y-136424000D01*
X58305500Y-136424000D01*
X58305500Y-134901854D01*
X58445318Y-134924000D01*
X58665682Y-134924000D01*
X58805500Y-134901854D01*
X58805500Y-136424000D01*
X60853328Y-136424000D01*
X60853344Y-136423999D01*
X60912872Y-136417598D01*
X60912879Y-136417596D01*
X61047586Y-136367354D01*
X61047593Y-136367350D01*
X61162687Y-136281190D01*
X61162690Y-136281187D01*
X61248850Y-136166093D01*
X61248854Y-136166086D01*
X61299096Y-136031379D01*
X61299098Y-136031372D01*
X61305499Y-135971844D01*
X61305500Y-135971827D01*
X61305500Y-133774000D01*
X59933355Y-133774000D01*
X59955500Y-133634182D01*
X59955500Y-133413818D01*
X59933355Y-133274000D01*
X61305500Y-133274000D01*
X61305500Y-131076172D01*
X61305499Y-131076155D01*
X61299098Y-131016627D01*
X61299096Y-131016620D01*
X61248854Y-130881913D01*
X61248850Y-130881906D01*
X61162690Y-130766812D01*
X61162687Y-130766809D01*
X61047593Y-130680649D01*
X61047586Y-130680645D01*
X60912879Y-130630403D01*
X60912872Y-130630401D01*
X60853344Y-130624000D01*
X58805500Y-130624000D01*
X58805500Y-132146145D01*
X58665682Y-132124000D01*
X58445318Y-132124000D01*
X58305500Y-132146145D01*
X58305500Y-130624000D01*
X54405500Y-130624000D01*
X54405500Y-132146145D01*
X54265682Y-132124000D01*
X54045318Y-132124000D01*
X53905500Y-132146145D01*
X53905500Y-130624000D01*
X51857655Y-130624000D01*
X51798127Y-130630401D01*
X51798120Y-130630403D01*
X51663413Y-130680645D01*
X51663406Y-130680649D01*
X51548312Y-130766809D01*
X51548309Y-130766812D01*
X51462149Y-130881906D01*
X51462145Y-130881913D01*
X51411903Y-131016620D01*
X51411901Y-131016627D01*
X51405500Y-131076155D01*
X49022500Y-131076155D01*
X49022500Y-125944066D01*
X51701799Y-125944066D01*
X51713617Y-126003476D01*
X51713618Y-126003479D01*
X51713619Y-126003480D01*
X51758640Y-126070860D01*
X51826020Y-126115881D01*
X51826023Y-126115882D01*
X51885433Y-126127700D01*
X51885436Y-126127700D01*
X60825566Y-126127700D01*
X60884976Y-126115882D01*
X60884977Y-126115881D01*
X60884980Y-126115881D01*
X60952360Y-126070860D01*
X60997381Y-126003480D01*
X61000203Y-125989295D01*
X61009200Y-125944066D01*
X61009200Y-124624831D01*
X65410300Y-124624831D01*
X65410300Y-124907168D01*
X65447151Y-125187067D01*
X65520220Y-125459768D01*
X65628256Y-125720591D01*
X65628264Y-125720608D01*
X65769421Y-125965098D01*
X65941286Y-126189078D01*
X65941292Y-126189085D01*
X66140914Y-126388707D01*
X66140921Y-126388713D01*
X66364901Y-126560578D01*
X66534701Y-126658613D01*
X66582917Y-126709180D01*
X66596139Y-126777787D01*
X66570171Y-126842652D01*
X66534701Y-126873387D01*
X66364901Y-126971421D01*
X66140921Y-127143286D01*
X66140914Y-127143292D01*
X65941292Y-127342914D01*
X65941286Y-127342921D01*
X65769421Y-127566901D01*
X65628264Y-127811391D01*
X65628256Y-127811408D01*
X65520220Y-128072231D01*
X65447151Y-128344932D01*
X65410300Y-128624831D01*
X65410300Y-128907168D01*
X65447151Y-129187067D01*
X65520220Y-129459768D01*
X65628256Y-129720591D01*
X65628264Y-129720608D01*
X65769421Y-129965098D01*
X65941286Y-130189078D01*
X65941292Y-130189085D01*
X66140914Y-130388707D01*
X66140921Y-130388713D01*
X66364901Y-130560578D01*
X66534701Y-130658613D01*
X66582917Y-130709180D01*
X66596139Y-130777787D01*
X66570171Y-130842652D01*
X66534701Y-130873387D01*
X66364901Y-130971421D01*
X66140921Y-131143286D01*
X66140914Y-131143292D01*
X65941292Y-131342914D01*
X65941286Y-131342921D01*
X65769421Y-131566901D01*
X65628264Y-131811391D01*
X65628256Y-131811408D01*
X65520220Y-132072231D01*
X65447151Y-132344932D01*
X65410300Y-132624831D01*
X65410300Y-132907168D01*
X65430259Y-133058766D01*
X65447151Y-133187068D01*
X65470415Y-133273890D01*
X65520220Y-133459768D01*
X65628256Y-133720591D01*
X65628264Y-133720608D01*
X65769421Y-133965098D01*
X65941286Y-134189078D01*
X65941292Y-134189085D01*
X66140914Y-134388707D01*
X66140921Y-134388713D01*
X66364901Y-134560578D01*
X66609391Y-134701735D01*
X66609396Y-134701737D01*
X66609399Y-134701739D01*
X66609403Y-134701740D01*
X66609408Y-134701743D01*
X66656833Y-134721387D01*
X66870230Y-134809779D01*
X67142932Y-134882849D01*
X67422839Y-134919700D01*
X67422846Y-134919700D01*
X67705154Y-134919700D01*
X67705161Y-134919700D01*
X67985068Y-134882849D01*
X68257770Y-134809779D01*
X68518601Y-134701739D01*
X68763099Y-134560578D01*
X68987080Y-134388712D01*
X69186712Y-134189080D01*
X69358578Y-133965099D01*
X69499739Y-133720601D01*
X69607779Y-133459770D01*
X69680849Y-133187068D01*
X69717700Y-132907161D01*
X69717700Y-132624839D01*
X69680849Y-132344932D01*
X69607779Y-132072230D01*
X69499739Y-131811399D01*
X69499737Y-131811396D01*
X69499735Y-131811391D01*
X69358578Y-131566901D01*
X69186713Y-131342921D01*
X69186707Y-131342914D01*
X68987085Y-131143292D01*
X68987078Y-131143286D01*
X68763098Y-130971421D01*
X68608065Y-130881913D01*
X68593296Y-130873386D01*
X68545082Y-130822820D01*
X68531858Y-130754213D01*
X68557826Y-130689349D01*
X68593297Y-130658613D01*
X68594865Y-130657708D01*
X68763099Y-130560578D01*
X68987080Y-130388712D01*
X69186712Y-130189080D01*
X69358578Y-129965099D01*
X69499739Y-129720601D01*
X69607779Y-129459770D01*
X69680849Y-129187068D01*
X69717700Y-128907161D01*
X69717700Y-128624839D01*
X69680849Y-128344932D01*
X69607779Y-128072230D01*
X69522035Y-127865227D01*
X69499743Y-127811408D01*
X69499735Y-127811391D01*
X69358578Y-127566901D01*
X69186713Y-127342921D01*
X69186707Y-127342914D01*
X68987085Y-127143292D01*
X68987078Y-127143286D01*
X68763098Y-126971421D01*
X68593297Y-126873387D01*
X68545082Y-126822820D01*
X68531858Y-126754213D01*
X68557826Y-126689349D01*
X68593297Y-126658613D01*
X68763099Y-126560578D01*
X68987080Y-126388712D01*
X69186712Y-126189080D01*
X69358578Y-125965099D01*
X69499739Y-125720601D01*
X69607779Y-125459770D01*
X69680849Y-125187068D01*
X69717700Y-124907161D01*
X69717700Y-124624839D01*
X69717699Y-124624831D01*
X74310300Y-124624831D01*
X74310300Y-124907168D01*
X74347151Y-125187067D01*
X74420220Y-125459768D01*
X74528256Y-125720591D01*
X74528264Y-125720608D01*
X74669421Y-125965098D01*
X74841286Y-126189078D01*
X74841292Y-126189085D01*
X75040914Y-126388707D01*
X75040921Y-126388713D01*
X75264901Y-126560578D01*
X75434701Y-126658613D01*
X75482917Y-126709180D01*
X75496139Y-126777787D01*
X75470171Y-126842652D01*
X75434701Y-126873387D01*
X75264901Y-126971421D01*
X75040921Y-127143286D01*
X75040914Y-127143292D01*
X74841292Y-127342914D01*
X74841286Y-127342921D01*
X74669421Y-127566901D01*
X74528264Y-127811391D01*
X74528256Y-127811408D01*
X74420220Y-128072231D01*
X74347151Y-128344932D01*
X74310300Y-128624831D01*
X74310300Y-128907168D01*
X74347151Y-129187067D01*
X74420220Y-129459768D01*
X74528256Y-129720591D01*
X74528264Y-129720608D01*
X74669421Y-129965098D01*
X74841286Y-130189078D01*
X74841292Y-130189085D01*
X75040914Y-130388707D01*
X75040921Y-130388713D01*
X75264901Y-130560578D01*
X75434701Y-130658613D01*
X75482917Y-130709180D01*
X75496139Y-130777787D01*
X75470171Y-130842652D01*
X75434701Y-130873387D01*
X75264901Y-130971421D01*
X75040921Y-131143286D01*
X75040914Y-131143292D01*
X74841292Y-131342914D01*
X74841286Y-131342921D01*
X74669421Y-131566901D01*
X74528264Y-131811391D01*
X74528256Y-131811408D01*
X74420220Y-132072231D01*
X74347151Y-132344932D01*
X74310300Y-132624831D01*
X74310300Y-132907168D01*
X74330259Y-133058766D01*
X74347151Y-133187068D01*
X74370415Y-133273890D01*
X74420220Y-133459768D01*
X74528256Y-133720591D01*
X74528264Y-133720608D01*
X74669421Y-133965098D01*
X74841286Y-134189078D01*
X74841292Y-134189085D01*
X75040914Y-134388707D01*
X75040921Y-134388713D01*
X75264901Y-134560578D01*
X75509391Y-134701735D01*
X75509396Y-134701737D01*
X75509399Y-134701739D01*
X75509403Y-134701740D01*
X75509408Y-134701743D01*
X75556833Y-134721387D01*
X75770230Y-134809779D01*
X76042932Y-134882849D01*
X76322839Y-134919700D01*
X76322846Y-134919700D01*
X76605154Y-134919700D01*
X76605161Y-134919700D01*
X76885068Y-134882849D01*
X77157770Y-134809779D01*
X77418601Y-134701739D01*
X77663099Y-134560578D01*
X77887080Y-134388712D01*
X78086712Y-134189080D01*
X78258578Y-133965099D01*
X78399739Y-133720601D01*
X78507779Y-133459770D01*
X78580849Y-133187068D01*
X78617700Y-132907161D01*
X78617700Y-132873228D01*
X86985300Y-132873228D01*
X86985300Y-133058771D01*
X87010606Y-133218544D01*
X87014323Y-133242013D01*
X87071656Y-133418464D01*
X87155885Y-133583774D01*
X87264938Y-133733872D01*
X87396128Y-133865062D01*
X87546226Y-133974115D01*
X87711536Y-134058344D01*
X87887987Y-134115677D01*
X87956704Y-134126560D01*
X88071229Y-134144700D01*
X88071234Y-134144700D01*
X88256771Y-134144700D01*
X88358569Y-134128576D01*
X88440013Y-134115677D01*
X88616464Y-134058344D01*
X88781774Y-133974115D01*
X88931872Y-133865062D01*
X89063062Y-133733872D01*
X89172115Y-133583774D01*
X89256344Y-133418464D01*
X89313677Y-133242013D01*
X89328763Y-133146760D01*
X89342700Y-133058771D01*
X89342700Y-132873230D01*
X89341308Y-132864442D01*
X89341308Y-132864441D01*
X89339006Y-132849909D01*
X91689000Y-132849909D01*
X91689000Y-133082090D01*
X91725318Y-133311393D01*
X91797065Y-133532205D01*
X91902469Y-133739071D01*
X91959237Y-133817206D01*
X91959238Y-133817207D01*
X92562958Y-133213487D01*
X92587978Y-133273890D01*
X92659112Y-133380351D01*
X92749649Y-133470888D01*
X92856110Y-133542022D01*
X92916511Y-133567041D01*
X92312791Y-134170760D01*
X92312792Y-134170762D01*
X92390928Y-134227530D01*
X92597794Y-134332934D01*
X92818606Y-134404681D01*
X93047910Y-134441000D01*
X93280090Y-134441000D01*
X93509393Y-134404681D01*
X93730205Y-134332934D01*
X93937060Y-134227536D01*
X93937073Y-134227528D01*
X94015206Y-134170761D01*
X94015207Y-134170760D01*
X93411488Y-133567041D01*
X93471890Y-133542022D01*
X93578351Y-133470888D01*
X93668888Y-133380351D01*
X93740022Y-133273890D01*
X93765041Y-133213488D01*
X94368760Y-133817207D01*
X94368761Y-133817206D01*
X94425528Y-133739073D01*
X94425536Y-133739060D01*
X94530934Y-133532205D01*
X94602681Y-133311393D01*
X94639000Y-133082090D01*
X94639000Y-132873228D01*
X96985300Y-132873228D01*
X96985300Y-133058771D01*
X97010606Y-133218544D01*
X97014323Y-133242013D01*
X97071656Y-133418464D01*
X97155885Y-133583774D01*
X97264938Y-133733872D01*
X97396128Y-133865062D01*
X97546226Y-133974115D01*
X97711536Y-134058344D01*
X97887987Y-134115677D01*
X97956704Y-134126560D01*
X98071229Y-134144700D01*
X98071234Y-134144700D01*
X98256771Y-134144700D01*
X98358569Y-134128576D01*
X98440013Y-134115677D01*
X98616464Y-134058344D01*
X98629419Y-134051743D01*
X111302300Y-134051743D01*
X111302300Y-134172257D01*
X111317110Y-134227528D01*
X111333492Y-134288666D01*
X111333495Y-134288671D01*
X111393744Y-134393027D01*
X111393748Y-134393032D01*
X111393749Y-134393034D01*
X111478966Y-134478251D01*
X111478968Y-134478252D01*
X111478972Y-134478255D01*
X111583328Y-134538504D01*
X111583335Y-134538508D01*
X111699743Y-134569700D01*
X111699745Y-134569700D01*
X111820255Y-134569700D01*
X111820257Y-134569700D01*
X111936665Y-134538508D01*
X112041034Y-134478251D01*
X112126251Y-134393034D01*
X112186508Y-134288665D01*
X112217700Y-134172257D01*
X112217700Y-134172254D01*
X112218761Y-134164198D01*
X112220324Y-134164403D01*
X112237385Y-134106302D01*
X112254015Y-134085664D01*
X113121139Y-133218539D01*
X113121144Y-133218536D01*
X113131347Y-133208332D01*
X113131349Y-133208332D01*
X113192920Y-133146761D01*
X113236458Y-133071352D01*
X113258994Y-132987244D01*
X113258994Y-132117747D01*
X113278679Y-132050708D01*
X113291563Y-132034718D01*
X113294539Y-132030839D01*
X113294545Y-132030834D01*
X113354802Y-131926465D01*
X113385994Y-131810057D01*
X113385994Y-131689543D01*
X113354802Y-131573135D01*
X113307382Y-131491000D01*
X113294549Y-131468772D01*
X113294543Y-131468764D01*
X113209329Y-131383550D01*
X113209321Y-131383544D01*
X113104965Y-131323295D01*
X113104960Y-131323292D01*
X113066156Y-131312894D01*
X112988551Y-131292100D01*
X112868037Y-131292100D01*
X112809833Y-131307696D01*
X112751627Y-131323292D01*
X112751622Y-131323295D01*
X112647266Y-131383544D01*
X112647258Y-131383550D01*
X112562044Y-131468764D01*
X112562038Y-131468772D01*
X112501789Y-131573128D01*
X112501786Y-131573133D01*
X112494838Y-131599065D01*
X112470594Y-131689543D01*
X112470594Y-131810057D01*
X112472273Y-131816322D01*
X112501786Y-131926466D01*
X112501789Y-131926471D01*
X112562038Y-132030827D01*
X112566989Y-132037279D01*
X112565737Y-132038239D01*
X112594760Y-132091389D01*
X112597594Y-132117747D01*
X112597594Y-132755364D01*
X112577909Y-132822403D01*
X112561275Y-132843045D01*
X111786339Y-133617981D01*
X111725016Y-133651466D01*
X111704578Y-133653663D01*
X111699745Y-133654299D01*
X111583333Y-133685492D01*
X111583328Y-133685495D01*
X111478972Y-133745744D01*
X111478964Y-133745750D01*
X111393750Y-133830964D01*
X111393744Y-133830972D01*
X111333495Y-133935328D01*
X111333492Y-133935333D01*
X111312697Y-134012940D01*
X111302300Y-134051743D01*
X98629419Y-134051743D01*
X98781774Y-133974115D01*
X98931872Y-133865062D01*
X99063062Y-133733872D01*
X99172115Y-133583774D01*
X99256344Y-133418464D01*
X99313677Y-133242013D01*
X99328763Y-133146760D01*
X99342700Y-133058771D01*
X99342700Y-132873228D01*
X99313677Y-132689990D01*
X99313677Y-132689987D01*
X99256344Y-132513536D01*
X99172115Y-132348226D01*
X99063062Y-132198128D01*
X98931872Y-132066938D01*
X98781774Y-131957885D01*
X98616464Y-131873656D01*
X98440013Y-131816323D01*
X98440011Y-131816322D01*
X98440009Y-131816322D01*
X98256771Y-131787300D01*
X98256766Y-131787300D01*
X98071234Y-131787300D01*
X98071229Y-131787300D01*
X97887990Y-131816322D01*
X97711533Y-131873657D01*
X97546225Y-131957885D01*
X97460588Y-132020104D01*
X97396128Y-132066938D01*
X97396126Y-132066940D01*
X97396125Y-132066940D01*
X97264940Y-132198125D01*
X97264940Y-132198126D01*
X97264938Y-132198128D01*
X97218104Y-132262588D01*
X97155885Y-132348225D01*
X97071657Y-132513533D01*
X97014322Y-132689990D01*
X96985300Y-132873228D01*
X94639000Y-132873228D01*
X94639000Y-132849909D01*
X94602681Y-132620606D01*
X94530934Y-132399794D01*
X94425530Y-132192928D01*
X94368762Y-132114792D01*
X94368760Y-132114791D01*
X93765041Y-132718511D01*
X93740022Y-132658110D01*
X93668888Y-132551649D01*
X93578351Y-132461112D01*
X93471890Y-132389978D01*
X93411488Y-132364958D01*
X94015207Y-131761238D01*
X94015206Y-131761237D01*
X93937071Y-131704469D01*
X93730205Y-131599065D01*
X93509393Y-131527318D01*
X93280090Y-131491000D01*
X93047910Y-131491000D01*
X92818606Y-131527318D01*
X92597794Y-131599065D01*
X92390935Y-131704465D01*
X92312792Y-131761238D01*
X92916512Y-132364958D01*
X92856110Y-132389978D01*
X92749649Y-132461112D01*
X92659112Y-132551649D01*
X92587978Y-132658110D01*
X92562958Y-132718512D01*
X91959238Y-132114792D01*
X91902465Y-132192935D01*
X91797065Y-132399794D01*
X91725318Y-132620606D01*
X91689000Y-132849909D01*
X89339006Y-132849909D01*
X89325328Y-132763551D01*
X89313677Y-132689987D01*
X89256344Y-132513536D01*
X89172115Y-132348226D01*
X89063062Y-132198128D01*
X88931872Y-132066938D01*
X88781774Y-131957885D01*
X88616464Y-131873656D01*
X88440013Y-131816323D01*
X88440011Y-131816322D01*
X88440009Y-131816322D01*
X88256771Y-131787300D01*
X88256766Y-131787300D01*
X88071234Y-131787300D01*
X88071229Y-131787300D01*
X87887990Y-131816322D01*
X87711533Y-131873657D01*
X87546225Y-131957885D01*
X87460588Y-132020104D01*
X87396128Y-132066938D01*
X87396126Y-132066940D01*
X87396125Y-132066940D01*
X87264940Y-132198125D01*
X87264940Y-132198126D01*
X87264938Y-132198128D01*
X87218104Y-132262588D01*
X87155885Y-132348225D01*
X87071657Y-132513533D01*
X87014322Y-132689990D01*
X86985300Y-132873228D01*
X78617700Y-132873228D01*
X78617700Y-132624839D01*
X78580849Y-132344932D01*
X78507779Y-132072230D01*
X78399739Y-131811399D01*
X78399737Y-131811396D01*
X78399735Y-131811391D01*
X78258578Y-131566901D01*
X78086713Y-131342921D01*
X78086707Y-131342914D01*
X77887085Y-131143292D01*
X77887078Y-131143286D01*
X77663098Y-130971421D01*
X77508065Y-130881913D01*
X77493296Y-130873386D01*
X77445082Y-130822820D01*
X77431858Y-130754213D01*
X77457826Y-130689349D01*
X77493297Y-130658613D01*
X77494865Y-130657708D01*
X77663099Y-130560578D01*
X77887080Y-130388712D01*
X78086712Y-130189080D01*
X78100629Y-130170943D01*
X114266427Y-130170943D01*
X114266427Y-130291457D01*
X114287221Y-130369062D01*
X114297619Y-130407866D01*
X114297622Y-130407871D01*
X114357871Y-130512227D01*
X114357875Y-130512232D01*
X114357876Y-130512234D01*
X114443093Y-130597451D01*
X114443095Y-130597452D01*
X114443099Y-130597455D01*
X114500168Y-130630403D01*
X114547462Y-130657708D01*
X114663870Y-130688900D01*
X114663872Y-130688900D01*
X114784382Y-130688900D01*
X114784384Y-130688900D01*
X114900792Y-130657708D01*
X115005161Y-130597451D01*
X115090378Y-130512234D01*
X115150635Y-130407865D01*
X115181827Y-130291457D01*
X115181827Y-130170943D01*
X115150635Y-130054535D01*
X115098999Y-129965098D01*
X115090382Y-129950172D01*
X115090379Y-129950169D01*
X115090378Y-129950166D01*
X115090375Y-129950163D01*
X115085432Y-129943721D01*
X115086683Y-129942760D01*
X115057661Y-129889611D01*
X115054827Y-129863253D01*
X115054827Y-128300044D01*
X115074512Y-128233005D01*
X115091141Y-128212368D01*
X116368357Y-126935151D01*
X116368362Y-126935148D01*
X116378565Y-126924944D01*
X116378567Y-126924944D01*
X116440138Y-126863373D01*
X116483676Y-126787964D01*
X116506212Y-126703856D01*
X116506212Y-126355543D01*
X116890300Y-126355543D01*
X116890300Y-126476057D01*
X116895990Y-126497292D01*
X116921492Y-126592466D01*
X116921495Y-126592471D01*
X116981744Y-126696827D01*
X116986695Y-126703279D01*
X116985443Y-126704239D01*
X117014466Y-126757389D01*
X117017300Y-126783747D01*
X117017300Y-127216253D01*
X116997615Y-127283292D01*
X116984730Y-127299281D01*
X116981744Y-127303172D01*
X116921495Y-127407528D01*
X116921492Y-127407533D01*
X116905420Y-127467516D01*
X116890300Y-127523943D01*
X116890300Y-127644457D01*
X116897959Y-127673039D01*
X116921492Y-127760866D01*
X116921495Y-127760871D01*
X116981744Y-127865227D01*
X116981748Y-127865232D01*
X116981749Y-127865234D01*
X117066966Y-127950451D01*
X117066968Y-127950452D01*
X117066972Y-127950455D01*
X117171328Y-128010704D01*
X117171335Y-128010708D01*
X117287743Y-128041900D01*
X117287745Y-128041900D01*
X117408255Y-128041900D01*
X117408257Y-128041900D01*
X117524665Y-128010708D01*
X117629034Y-127950451D01*
X117714251Y-127865234D01*
X117774508Y-127760865D01*
X117805700Y-127644457D01*
X117805700Y-127523943D01*
X117774508Y-127407535D01*
X117774504Y-127407528D01*
X117714255Y-127303172D01*
X117714252Y-127303169D01*
X117714251Y-127303166D01*
X117714248Y-127303163D01*
X117709305Y-127296721D01*
X117710556Y-127295760D01*
X117681534Y-127242611D01*
X117678700Y-127216253D01*
X117678700Y-126783747D01*
X117698385Y-126716708D01*
X117711269Y-126700718D01*
X117714245Y-126696839D01*
X117714251Y-126696834D01*
X117774508Y-126592465D01*
X117805700Y-126476057D01*
X117805700Y-126355543D01*
X117774508Y-126239135D01*
X117745608Y-126189078D01*
X117714255Y-126134772D01*
X117714249Y-126134764D01*
X117629035Y-126049550D01*
X117629027Y-126049544D01*
X117524671Y-125989295D01*
X117524666Y-125989292D01*
X117485862Y-125978894D01*
X117408257Y-125958100D01*
X117287743Y-125958100D01*
X117229539Y-125973696D01*
X117171333Y-125989292D01*
X117171328Y-125989295D01*
X117066972Y-126049544D01*
X117066964Y-126049550D01*
X116981750Y-126134764D01*
X116981744Y-126134772D01*
X116921495Y-126239128D01*
X116921492Y-126239133D01*
X116900697Y-126316740D01*
X116890300Y-126355543D01*
X116506212Y-126355543D01*
X116506212Y-125687459D01*
X116525897Y-125620420D01*
X116538781Y-125604430D01*
X116541757Y-125600551D01*
X116541763Y-125600546D01*
X116602020Y-125496177D01*
X116630308Y-125390605D01*
X116666674Y-125330945D01*
X116729521Y-125300417D01*
X116750083Y-125298700D01*
X117056253Y-125298700D01*
X117123292Y-125318385D01*
X117139281Y-125331269D01*
X117143163Y-125334248D01*
X117143166Y-125334251D01*
X117143169Y-125334252D01*
X117143172Y-125334255D01*
X117222006Y-125379769D01*
X117247535Y-125394508D01*
X117363943Y-125425700D01*
X117363945Y-125425700D01*
X117484455Y-125425700D01*
X117484457Y-125425700D01*
X117600865Y-125394508D01*
X117705234Y-125334251D01*
X117790451Y-125249034D01*
X117850708Y-125144665D01*
X117881900Y-125028257D01*
X117881900Y-124907743D01*
X117850708Y-124791335D01*
X117802918Y-124708559D01*
X117790455Y-124686972D01*
X117790449Y-124686964D01*
X117705235Y-124601750D01*
X117705227Y-124601744D01*
X117600871Y-124541495D01*
X117600866Y-124541492D01*
X117562062Y-124531094D01*
X117484457Y-124510300D01*
X117363943Y-124510300D01*
X117305739Y-124525896D01*
X117247533Y-124541492D01*
X117247528Y-124541495D01*
X117143172Y-124601744D01*
X117136721Y-124606695D01*
X117135760Y-124605443D01*
X117082611Y-124634466D01*
X117056253Y-124637300D01*
X116483484Y-124637300D01*
X116399377Y-124659836D01*
X116323969Y-124703374D01*
X116323966Y-124703376D01*
X116201850Y-124825493D01*
X116140527Y-124858978D01*
X116120095Y-124861174D01*
X116115257Y-124861811D01*
X115998845Y-124893004D01*
X115998840Y-124893007D01*
X115894484Y-124953256D01*
X115894476Y-124953262D01*
X115809262Y-125038476D01*
X115809256Y-125038484D01*
X115749007Y-125142840D01*
X115749004Y-125142845D01*
X115748515Y-125144671D01*
X115717812Y-125259255D01*
X115717812Y-125379769D01*
X115738606Y-125457374D01*
X115749004Y-125496178D01*
X115749007Y-125496183D01*
X115809256Y-125600539D01*
X115814207Y-125606991D01*
X115812955Y-125607951D01*
X115841978Y-125661101D01*
X115844812Y-125687459D01*
X115844812Y-126471975D01*
X115825127Y-126539014D01*
X115808493Y-126559656D01*
X114459503Y-127908645D01*
X114459501Y-127908648D01*
X114415963Y-127984056D01*
X114393427Y-128068163D01*
X114393427Y-129863253D01*
X114373742Y-129930292D01*
X114360857Y-129946281D01*
X114357871Y-129950172D01*
X114297622Y-130054528D01*
X114297619Y-130054533D01*
X114276824Y-130132140D01*
X114266427Y-130170943D01*
X78100629Y-130170943D01*
X78258578Y-129965099D01*
X78399739Y-129720601D01*
X78507779Y-129459770D01*
X78580849Y-129187068D01*
X78617700Y-128907161D01*
X78617700Y-128624839D01*
X78580849Y-128344932D01*
X78507779Y-128072230D01*
X78422035Y-127865227D01*
X78399743Y-127811408D01*
X78399735Y-127811391D01*
X78258578Y-127566901D01*
X78086713Y-127342921D01*
X78086707Y-127342914D01*
X77887085Y-127143292D01*
X77887078Y-127143286D01*
X77663100Y-126971422D01*
X77648170Y-126962803D01*
X77648169Y-126962802D01*
X77493297Y-126873387D01*
X77483911Y-126863543D01*
X110794300Y-126863543D01*
X110794300Y-126984057D01*
X110815094Y-127061662D01*
X110825492Y-127100466D01*
X110825495Y-127100471D01*
X110885744Y-127204827D01*
X110890695Y-127211279D01*
X110889443Y-127212239D01*
X110918466Y-127265389D01*
X110921300Y-127291747D01*
X110921300Y-127673038D01*
X110943836Y-127757146D01*
X110987374Y-127832555D01*
X110987376Y-127832557D01*
X111056010Y-127901191D01*
X111056016Y-127901196D01*
X111652481Y-128497661D01*
X111685966Y-128558984D01*
X111688163Y-128579421D01*
X111688799Y-128584254D01*
X111719992Y-128700666D01*
X111719995Y-128700671D01*
X111780244Y-128805027D01*
X111780248Y-128805032D01*
X111780249Y-128805034D01*
X111865466Y-128890251D01*
X111865468Y-128890252D01*
X111865472Y-128890255D01*
X111894755Y-128907161D01*
X111969835Y-128950508D01*
X112086243Y-128981700D01*
X112086245Y-128981700D01*
X112206755Y-128981700D01*
X112206757Y-128981700D01*
X112323165Y-128950508D01*
X112427534Y-128890251D01*
X112512751Y-128805034D01*
X112573008Y-128700665D01*
X112604200Y-128584257D01*
X112604200Y-128463743D01*
X112573008Y-128347335D01*
X112516052Y-128248683D01*
X112512755Y-128242972D01*
X112512749Y-128242964D01*
X112427535Y-128157750D01*
X112427527Y-128157744D01*
X112323171Y-128097495D01*
X112323166Y-128097492D01*
X112206754Y-128066299D01*
X112198698Y-128065239D01*
X112198903Y-128063675D01*
X112140803Y-128046615D01*
X112120161Y-128029981D01*
X111619019Y-127528839D01*
X111604315Y-127501911D01*
X111587723Y-127476093D01*
X111586831Y-127469892D01*
X111585534Y-127467516D01*
X111582700Y-127441158D01*
X111582700Y-127291747D01*
X111602385Y-127224708D01*
X111615269Y-127208718D01*
X111618245Y-127204839D01*
X111618251Y-127204834D01*
X111678508Y-127100465D01*
X111709700Y-126984057D01*
X111709700Y-126863543D01*
X111678508Y-126747135D01*
X111652299Y-126701739D01*
X111618255Y-126642772D01*
X111618249Y-126642764D01*
X111533035Y-126557550D01*
X111533027Y-126557544D01*
X111428671Y-126497295D01*
X111428666Y-126497292D01*
X111389862Y-126486894D01*
X111312257Y-126466100D01*
X111191743Y-126466100D01*
X111154584Y-126476057D01*
X111075333Y-126497292D01*
X111075328Y-126497295D01*
X110970972Y-126557544D01*
X110970964Y-126557550D01*
X110885750Y-126642764D01*
X110885744Y-126642772D01*
X110825495Y-126747128D01*
X110825492Y-126747133D01*
X110805212Y-126822820D01*
X110794300Y-126863543D01*
X77483911Y-126863543D01*
X77445082Y-126822820D01*
X77431858Y-126754213D01*
X77457826Y-126689348D01*
X77493297Y-126658613D01*
X77663099Y-126560578D01*
X77887080Y-126388712D01*
X78086712Y-126189080D01*
X78258578Y-125965099D01*
X78399739Y-125720601D01*
X78507779Y-125459770D01*
X78580849Y-125187068D01*
X78617700Y-124907161D01*
X78617700Y-124624839D01*
X78580849Y-124344932D01*
X78507779Y-124072230D01*
X78399739Y-123811399D01*
X78399737Y-123811396D01*
X78399735Y-123811391D01*
X78258578Y-123566901D01*
X78086713Y-123342921D01*
X78086707Y-123342914D01*
X77887085Y-123143292D01*
X77887078Y-123143286D01*
X77663098Y-122971421D01*
X77418608Y-122830264D01*
X77418591Y-122830256D01*
X77157768Y-122722220D01*
X77081779Y-122701859D01*
X76885068Y-122649151D01*
X76850079Y-122644544D01*
X76605168Y-122612300D01*
X76605161Y-122612300D01*
X76322839Y-122612300D01*
X76322831Y-122612300D01*
X76042932Y-122649151D01*
X75770231Y-122722220D01*
X75509408Y-122830256D01*
X75509391Y-122830264D01*
X75264901Y-122971421D01*
X75040921Y-123143286D01*
X75040914Y-123143292D01*
X74841292Y-123342914D01*
X74841286Y-123342921D01*
X74669421Y-123566901D01*
X74528264Y-123811391D01*
X74528256Y-123811408D01*
X74420220Y-124072231D01*
X74347151Y-124344932D01*
X74310300Y-124624831D01*
X69717699Y-124624831D01*
X69680849Y-124344932D01*
X69607779Y-124072230D01*
X69499739Y-123811399D01*
X69499737Y-123811396D01*
X69499735Y-123811391D01*
X69358578Y-123566901D01*
X69186713Y-123342921D01*
X69186707Y-123342914D01*
X68987085Y-123143292D01*
X68987078Y-123143286D01*
X68763098Y-122971421D01*
X68518608Y-122830264D01*
X68518591Y-122830256D01*
X68257768Y-122722220D01*
X68084881Y-122675895D01*
X67985068Y-122649151D01*
X67950079Y-122644544D01*
X67705168Y-122612300D01*
X67705161Y-122612300D01*
X67422839Y-122612300D01*
X67422831Y-122612300D01*
X67142932Y-122649151D01*
X66870231Y-122722220D01*
X66609408Y-122830256D01*
X66609391Y-122830264D01*
X66364901Y-122971421D01*
X66140921Y-123143286D01*
X66140914Y-123143292D01*
X65941292Y-123342914D01*
X65941286Y-123342921D01*
X65769421Y-123566901D01*
X65628264Y-123811391D01*
X65628256Y-123811408D01*
X65520220Y-124072231D01*
X65447151Y-124344932D01*
X65410300Y-124624831D01*
X61009200Y-124624831D01*
X61009200Y-122581441D01*
X109270300Y-122581441D01*
X109270300Y-122701955D01*
X109291094Y-122779560D01*
X109301492Y-122818364D01*
X109301495Y-122818369D01*
X109361744Y-122922725D01*
X109366695Y-122929177D01*
X109365443Y-122930137D01*
X109394466Y-122983287D01*
X109397300Y-123009645D01*
X109397300Y-124280355D01*
X109377615Y-124347394D01*
X109364730Y-124363383D01*
X109361744Y-124367274D01*
X109301495Y-124471630D01*
X109301492Y-124471635D01*
X109291132Y-124510300D01*
X109270300Y-124588045D01*
X109270300Y-124708559D01*
X109291094Y-124786164D01*
X109301492Y-124824968D01*
X109301495Y-124824973D01*
X109361744Y-124929329D01*
X109361748Y-124929334D01*
X109361749Y-124929336D01*
X109446966Y-125014553D01*
X109446968Y-125014554D01*
X109446972Y-125014557D01*
X109551328Y-125074806D01*
X109551335Y-125074810D01*
X109667743Y-125106002D01*
X109667745Y-125106002D01*
X109788255Y-125106002D01*
X109788257Y-125106002D01*
X109904665Y-125074810D01*
X110009034Y-125014553D01*
X110094251Y-124929336D01*
X110154508Y-124824967D01*
X110185700Y-124708559D01*
X110185700Y-124588045D01*
X110154508Y-124471637D01*
X110154504Y-124471630D01*
X110094255Y-124367274D01*
X110094252Y-124367271D01*
X110094251Y-124367268D01*
X110094248Y-124367265D01*
X110089305Y-124360823D01*
X110090556Y-124359862D01*
X110061534Y-124306713D01*
X110058700Y-124280355D01*
X110058700Y-123009645D01*
X110078385Y-122942606D01*
X110091269Y-122926616D01*
X110094245Y-122922737D01*
X110094251Y-122922732D01*
X110154508Y-122818363D01*
X110185700Y-122701955D01*
X110185700Y-122581441D01*
X110154508Y-122465033D01*
X110096466Y-122364500D01*
X110094255Y-122360670D01*
X110094249Y-122360662D01*
X110009035Y-122275448D01*
X110009027Y-122275442D01*
X109904671Y-122215193D01*
X109904666Y-122215190D01*
X109850402Y-122200650D01*
X109788257Y-122183998D01*
X109667743Y-122183998D01*
X109609539Y-122199594D01*
X109551333Y-122215190D01*
X109551328Y-122215193D01*
X109446972Y-122275442D01*
X109446964Y-122275448D01*
X109361750Y-122360662D01*
X109361744Y-122360670D01*
X109301495Y-122465026D01*
X109301492Y-122465031D01*
X109280697Y-122542638D01*
X109270300Y-122581441D01*
X61009200Y-122581441D01*
X61009200Y-121103933D01*
X60997382Y-121044523D01*
X60997381Y-121044520D01*
X60952360Y-120977140D01*
X60884980Y-120932119D01*
X60884979Y-120932118D01*
X60884976Y-120932117D01*
X60825566Y-120920300D01*
X60825564Y-120920300D01*
X56425564Y-120920300D01*
X51885436Y-120920300D01*
X51885434Y-120920300D01*
X51826023Y-120932117D01*
X51826020Y-120932118D01*
X51758640Y-120977140D01*
X51713618Y-121044520D01*
X51713617Y-121044523D01*
X51701800Y-121103933D01*
X51701800Y-121103936D01*
X51701800Y-125944064D01*
X51701800Y-125944066D01*
X51701799Y-125944066D01*
X49022500Y-125944066D01*
X49022500Y-117649568D01*
X56001800Y-117649568D01*
X56001800Y-117938431D01*
X56001801Y-117938447D01*
X56039505Y-118224839D01*
X56114274Y-118503880D01*
X56208040Y-118730251D01*
X56224821Y-118770763D01*
X56369259Y-119020937D01*
X56369264Y-119020943D01*
X56369265Y-119020945D01*
X56545114Y-119250116D01*
X56545120Y-119250123D01*
X56749376Y-119454379D01*
X56749382Y-119454384D01*
X56978563Y-119630241D01*
X57228737Y-119774679D01*
X57495624Y-119885227D01*
X57774657Y-119959994D01*
X58061062Y-119997700D01*
X58061069Y-119997700D01*
X58349931Y-119997700D01*
X58349938Y-119997700D01*
X58636343Y-119959994D01*
X58915376Y-119885227D01*
X59054155Y-119827743D01*
X99618300Y-119827743D01*
X99618300Y-119948257D01*
X99639094Y-120025862D01*
X99649492Y-120064666D01*
X99649495Y-120064671D01*
X99709744Y-120169027D01*
X99709748Y-120169032D01*
X99709749Y-120169034D01*
X99794966Y-120254251D01*
X99794968Y-120254252D01*
X99794972Y-120254255D01*
X99899328Y-120314504D01*
X99899335Y-120314508D01*
X100015743Y-120345700D01*
X100015745Y-120345700D01*
X100136255Y-120345700D01*
X100136257Y-120345700D01*
X100252665Y-120314508D01*
X100357034Y-120254251D01*
X100442251Y-120169034D01*
X100502508Y-120064665D01*
X100533700Y-119948257D01*
X100533700Y-119948254D01*
X100534761Y-119940198D01*
X100536324Y-119940403D01*
X100553385Y-119882303D01*
X100570019Y-119861661D01*
X101290753Y-119140927D01*
X101352076Y-119107442D01*
X101372513Y-119105244D01*
X101377346Y-119104608D01*
X101377349Y-119104608D01*
X101493757Y-119073416D01*
X101598126Y-119013159D01*
X101683343Y-118927942D01*
X101743600Y-118823573D01*
X101774792Y-118707165D01*
X101774792Y-118586651D01*
X101743600Y-118470243D01*
X101717049Y-118424255D01*
X101683347Y-118365880D01*
X101683341Y-118365872D01*
X101598127Y-118280658D01*
X101598119Y-118280652D01*
X101493763Y-118220403D01*
X101493758Y-118220400D01*
X101454954Y-118210002D01*
X101377349Y-118189208D01*
X101256835Y-118189208D01*
X101198631Y-118204804D01*
X101140425Y-118220400D01*
X101140420Y-118220403D01*
X101036064Y-118280652D01*
X101036056Y-118280658D01*
X100950842Y-118365872D01*
X100950836Y-118365880D01*
X100890587Y-118470236D01*
X100890584Y-118470241D01*
X100859391Y-118586653D01*
X100858331Y-118594710D01*
X100856767Y-118594504D01*
X100839707Y-118652605D01*
X100823073Y-118673247D01*
X100102339Y-119393981D01*
X100041016Y-119427466D01*
X100020578Y-119429663D01*
X100015745Y-119430299D01*
X99899333Y-119461492D01*
X99899328Y-119461495D01*
X99794972Y-119521744D01*
X99794964Y-119521750D01*
X99709750Y-119606964D01*
X99709744Y-119606972D01*
X99649495Y-119711328D01*
X99649492Y-119711333D01*
X99632519Y-119774677D01*
X99618300Y-119827743D01*
X59054155Y-119827743D01*
X59182263Y-119774679D01*
X59432437Y-119630241D01*
X59661618Y-119454384D01*
X59865884Y-119250118D01*
X60041741Y-119020937D01*
X60186179Y-118770763D01*
X60296727Y-118503876D01*
X60371494Y-118224843D01*
X60409200Y-117938438D01*
X60409200Y-117649562D01*
X60371494Y-117363157D01*
X60296727Y-117084124D01*
X60186179Y-116817237D01*
X60041741Y-116567063D01*
X59865884Y-116337882D01*
X59865879Y-116337876D01*
X59661623Y-116133620D01*
X59661616Y-116133614D01*
X59432445Y-115957765D01*
X59432443Y-115957764D01*
X59432437Y-115957759D01*
X59182263Y-115813321D01*
X59164263Y-115805865D01*
X58915380Y-115702774D01*
X58636339Y-115628005D01*
X58349947Y-115590301D01*
X58349944Y-115590300D01*
X58349938Y-115590300D01*
X58061062Y-115590300D01*
X58061056Y-115590300D01*
X58061052Y-115590301D01*
X57774660Y-115628005D01*
X57495619Y-115702774D01*
X57228743Y-115813318D01*
X57228734Y-115813322D01*
X56978569Y-115957755D01*
X56978554Y-115957765D01*
X56749383Y-116133614D01*
X56749376Y-116133620D01*
X56545120Y-116337876D01*
X56545114Y-116337883D01*
X56369265Y-116567054D01*
X56369255Y-116567069D01*
X56224822Y-116817234D01*
X56224818Y-116817243D01*
X56114274Y-117084119D01*
X56039505Y-117363160D01*
X56001801Y-117649552D01*
X56001800Y-117649568D01*
X49022500Y-117649568D01*
X49022500Y-109590358D01*
X50845000Y-109590358D01*
X50845000Y-109865641D01*
X50880930Y-110138565D01*
X50952180Y-110404471D01*
X51057520Y-110658787D01*
X51057527Y-110658802D01*
X51195163Y-110897196D01*
X51293758Y-111025686D01*
X52136497Y-110182947D01*
X52226505Y-110317653D01*
X52355347Y-110446495D01*
X52490051Y-110536501D01*
X51647312Y-111379240D01*
X51775804Y-111477836D01*
X52014197Y-111615472D01*
X52014212Y-111615479D01*
X52268528Y-111720819D01*
X52534434Y-111792069D01*
X52807358Y-111828000D01*
X53082642Y-111828000D01*
X53355565Y-111792069D01*
X53621471Y-111720819D01*
X53875787Y-111615479D01*
X53875802Y-111615472D01*
X54114194Y-111477836D01*
X54114211Y-111477825D01*
X54242686Y-111379241D01*
X54242686Y-111379239D01*
X53399949Y-110536501D01*
X53534653Y-110446495D01*
X53663495Y-110317653D01*
X53753501Y-110182948D01*
X54596239Y-111025686D01*
X54596241Y-111025686D01*
X54694825Y-110897211D01*
X54694836Y-110897194D01*
X54832472Y-110658802D01*
X54832479Y-110658787D01*
X54937819Y-110404471D01*
X55009069Y-110138565D01*
X55045000Y-109865641D01*
X55045000Y-109590358D01*
X56715000Y-109590358D01*
X56715000Y-109865641D01*
X56750930Y-110138565D01*
X56822180Y-110404471D01*
X56927520Y-110658787D01*
X56927527Y-110658802D01*
X57065163Y-110897196D01*
X57163758Y-111025686D01*
X58006497Y-110182947D01*
X58096505Y-110317653D01*
X58225347Y-110446495D01*
X58360051Y-110536501D01*
X57517312Y-111379240D01*
X57645804Y-111477836D01*
X57884197Y-111615472D01*
X57884212Y-111615479D01*
X58138528Y-111720819D01*
X58404434Y-111792069D01*
X58677358Y-111828000D01*
X58952642Y-111828000D01*
X59225565Y-111792069D01*
X59491471Y-111720819D01*
X59745787Y-111615479D01*
X59745802Y-111615472D01*
X59984194Y-111477836D01*
X59984211Y-111477825D01*
X60112686Y-111379241D01*
X60112686Y-111379239D01*
X59269949Y-110536501D01*
X59404653Y-110446495D01*
X59533495Y-110317653D01*
X59623501Y-110182948D01*
X60466239Y-111025686D01*
X60466241Y-111025686D01*
X60564825Y-110897211D01*
X60564836Y-110897194D01*
X60702472Y-110658802D01*
X60702479Y-110658787D01*
X60807819Y-110404471D01*
X60879069Y-110138565D01*
X60915000Y-109865641D01*
X60915000Y-109590358D01*
X60879069Y-109317434D01*
X60807819Y-109051528D01*
X60702479Y-108797212D01*
X60702472Y-108797197D01*
X60564833Y-108558799D01*
X60520464Y-108500976D01*
X60520463Y-108500975D01*
X60467212Y-108431577D01*
X68350900Y-108431577D01*
X68350900Y-108636822D01*
X68390937Y-108838102D01*
X68390940Y-108838112D01*
X68469477Y-109027720D01*
X68469478Y-109027721D01*
X68469480Y-109027725D01*
X68538578Y-109131136D01*
X68583503Y-109198371D01*
X68583506Y-109198375D01*
X68728624Y-109343493D01*
X68728628Y-109343496D01*
X68899275Y-109457520D01*
X68899278Y-109457521D01*
X68899279Y-109457522D01*
X68984577Y-109492853D01*
X69088889Y-109536060D01*
X69088892Y-109536060D01*
X69088897Y-109536062D01*
X69290177Y-109576099D01*
X69290180Y-109576100D01*
X69290182Y-109576100D01*
X69495420Y-109576100D01*
X69495421Y-109576099D01*
X69696711Y-109536060D01*
X69782991Y-109500321D01*
X69852457Y-109492853D01*
X69914936Y-109524128D01*
X69918122Y-109527202D01*
X70400329Y-110009409D01*
X70400339Y-110009420D01*
X70404670Y-110013751D01*
X70466241Y-110075322D01*
X70541650Y-110118860D01*
X70625758Y-110141396D01*
X70625759Y-110141396D01*
X70712833Y-110141396D01*
X79992962Y-110141396D01*
X80060001Y-110161081D01*
X80080643Y-110177715D01*
X85915781Y-116012853D01*
X85949266Y-116074176D01*
X85952100Y-116100534D01*
X85952100Y-117822338D01*
X85974636Y-117906446D01*
X86018174Y-117981855D01*
X86018176Y-117981857D01*
X86086810Y-118050491D01*
X86086816Y-118050496D01*
X86373981Y-118337661D01*
X86407466Y-118398984D01*
X86409663Y-118419421D01*
X86410299Y-118424254D01*
X86441492Y-118540666D01*
X86441495Y-118540671D01*
X86501744Y-118645027D01*
X86501748Y-118645032D01*
X86501749Y-118645034D01*
X86586966Y-118730251D01*
X86586968Y-118730252D01*
X86586972Y-118730255D01*
X86657123Y-118770756D01*
X86691335Y-118790508D01*
X86807743Y-118821700D01*
X86807745Y-118821700D01*
X86928255Y-118821700D01*
X86928257Y-118821700D01*
X87044665Y-118790508D01*
X87149034Y-118730251D01*
X87234251Y-118645034D01*
X87294508Y-118540665D01*
X87325700Y-118424257D01*
X87325700Y-118303743D01*
X87294508Y-118187335D01*
X87288772Y-118177400D01*
X87272300Y-118109503D01*
X87295152Y-118043476D01*
X87334159Y-118008015D01*
X87403034Y-117968251D01*
X87488251Y-117883034D01*
X87548508Y-117778665D01*
X87579700Y-117662257D01*
X87579700Y-117541743D01*
X87548508Y-117425335D01*
X87512610Y-117363157D01*
X87488255Y-117320972D01*
X87488249Y-117320964D01*
X87403035Y-117235750D01*
X87403030Y-117235746D01*
X87298668Y-117175493D01*
X87298661Y-117175490D01*
X87290600Y-117173330D01*
X87230941Y-117136962D01*
X87200416Y-117074113D01*
X87198700Y-117053557D01*
X87198700Y-115805865D01*
X87198700Y-115805862D01*
X87176164Y-115721754D01*
X87132626Y-115646345D01*
X87071055Y-115584774D01*
X87066724Y-115580443D01*
X87066713Y-115580433D01*
X82493728Y-111007448D01*
X91344250Y-111007448D01*
X91344250Y-111344151D01*
X91381946Y-111678712D01*
X91381948Y-111678724D01*
X91456869Y-112006976D01*
X91456873Y-112006988D01*
X91568074Y-112324781D01*
X91714157Y-112628126D01*
X91714159Y-112628129D01*
X91893291Y-112913216D01*
X92103217Y-113176454D01*
X92341296Y-113414533D01*
X92604534Y-113624459D01*
X92889621Y-113803591D01*
X93192972Y-113949677D01*
X93431654Y-114033195D01*
X93510761Y-114060876D01*
X93510773Y-114060880D01*
X93839025Y-114135802D01*
X94173599Y-114173499D01*
X94173600Y-114173500D01*
X94173603Y-114173500D01*
X94510300Y-114173500D01*
X94510300Y-114173499D01*
X94844875Y-114135802D01*
X95173127Y-114060880D01*
X95490928Y-113949677D01*
X95794279Y-113803591D01*
X96079366Y-113624459D01*
X96342604Y-113414533D01*
X96580683Y-113176454D01*
X96790609Y-112913216D01*
X96969741Y-112628129D01*
X97115827Y-112324778D01*
X97227030Y-112006977D01*
X97301952Y-111678725D01*
X97339650Y-111344147D01*
X97339650Y-111007453D01*
X97301952Y-110672875D01*
X97227030Y-110344623D01*
X97115827Y-110026822D01*
X96969741Y-109723471D01*
X96790609Y-109438384D01*
X96580683Y-109175146D01*
X96342604Y-108937067D01*
X96079366Y-108727141D01*
X95794279Y-108548009D01*
X95794276Y-108548007D01*
X95490931Y-108401924D01*
X95173138Y-108290723D01*
X95173126Y-108290719D01*
X94908355Y-108230287D01*
X94844875Y-108215798D01*
X94844871Y-108215797D01*
X94844862Y-108215796D01*
X94510301Y-108178100D01*
X94510297Y-108178100D01*
X94173603Y-108178100D01*
X94173598Y-108178100D01*
X93839037Y-108215796D01*
X93839025Y-108215798D01*
X93510773Y-108290719D01*
X93510761Y-108290723D01*
X93192968Y-108401924D01*
X92889623Y-108548007D01*
X92604535Y-108727140D01*
X92341296Y-108937066D01*
X92103216Y-109175146D01*
X91893290Y-109438385D01*
X91714157Y-109723473D01*
X91568074Y-110026818D01*
X91456873Y-110344611D01*
X91456869Y-110344623D01*
X91381948Y-110672875D01*
X91381946Y-110672887D01*
X91344250Y-111007448D01*
X82493728Y-111007448D01*
X80545802Y-109059522D01*
X80512317Y-108998199D01*
X80517301Y-108928507D01*
X80518901Y-108924439D01*
X80554660Y-108838111D01*
X80594700Y-108636818D01*
X80594700Y-108431582D01*
X80594700Y-108431579D01*
X80594699Y-108431577D01*
X80554662Y-108230297D01*
X80554659Y-108230287D01*
X80476122Y-108040679D01*
X80476121Y-108040678D01*
X80476120Y-108040675D01*
X80362096Y-107870028D01*
X80362093Y-107870024D01*
X80216975Y-107724906D01*
X80216971Y-107724903D01*
X80125719Y-107663930D01*
X80046325Y-107610880D01*
X80046322Y-107610878D01*
X80046321Y-107610878D01*
X80046320Y-107610877D01*
X79856712Y-107532340D01*
X79856702Y-107532337D01*
X79655421Y-107492300D01*
X79655418Y-107492300D01*
X79450182Y-107492300D01*
X79450179Y-107492300D01*
X79248897Y-107532337D01*
X79248887Y-107532340D01*
X79059279Y-107610877D01*
X79059278Y-107610878D01*
X78888628Y-107724903D01*
X78888624Y-107724906D01*
X78743506Y-107870024D01*
X78743503Y-107870028D01*
X78629478Y-108040678D01*
X78629477Y-108040679D01*
X78550940Y-108230287D01*
X78550937Y-108230297D01*
X78510900Y-108431577D01*
X78510900Y-108636822D01*
X78550937Y-108838102D01*
X78550940Y-108838112D01*
X78629477Y-109027720D01*
X78629478Y-109027721D01*
X78629480Y-109027725D01*
X78698578Y-109131136D01*
X78743503Y-109198371D01*
X78743506Y-109198375D01*
X78813446Y-109268315D01*
X78846931Y-109329638D01*
X78841947Y-109399330D01*
X78800075Y-109455263D01*
X78734611Y-109479680D01*
X78725765Y-109479996D01*
X70857638Y-109479996D01*
X70790599Y-109460311D01*
X70769957Y-109443677D01*
X70385802Y-109059522D01*
X70352317Y-108998199D01*
X70357301Y-108928507D01*
X70358901Y-108924439D01*
X70394660Y-108838111D01*
X70434700Y-108636818D01*
X70434700Y-108431582D01*
X70434700Y-108431579D01*
X70434699Y-108431577D01*
X70394662Y-108230297D01*
X70394659Y-108230287D01*
X70316122Y-108040679D01*
X70316121Y-108040678D01*
X70316120Y-108040675D01*
X70202096Y-107870028D01*
X70202093Y-107870024D01*
X70056975Y-107724906D01*
X70056971Y-107724903D01*
X69965719Y-107663930D01*
X69886325Y-107610880D01*
X69886322Y-107610878D01*
X69886321Y-107610878D01*
X69886320Y-107610877D01*
X69696712Y-107532340D01*
X69696702Y-107532337D01*
X69495421Y-107492300D01*
X69495418Y-107492300D01*
X69290182Y-107492300D01*
X69290179Y-107492300D01*
X69088897Y-107532337D01*
X69088887Y-107532340D01*
X68899279Y-107610877D01*
X68899278Y-107610878D01*
X68728628Y-107724903D01*
X68728624Y-107724906D01*
X68583506Y-107870024D01*
X68583503Y-107870028D01*
X68469478Y-108040678D01*
X68469477Y-108040679D01*
X68390940Y-108230287D01*
X68390937Y-108230297D01*
X68350900Y-108431577D01*
X60467212Y-108431577D01*
X60466241Y-108430312D01*
X60466240Y-108430312D01*
X59623501Y-109273051D01*
X59533495Y-109138347D01*
X59404653Y-109009505D01*
X59269948Y-108919497D01*
X60112686Y-108076758D01*
X59984196Y-107978163D01*
X59745802Y-107840527D01*
X59745787Y-107840520D01*
X59491471Y-107735180D01*
X59225565Y-107663930D01*
X58952642Y-107628000D01*
X58677358Y-107628000D01*
X58404434Y-107663930D01*
X58138528Y-107735180D01*
X57884212Y-107840520D01*
X57884197Y-107840527D01*
X57645799Y-107978166D01*
X57517312Y-108076757D01*
X57517312Y-108076758D01*
X58360051Y-108919497D01*
X58225347Y-109009505D01*
X58096505Y-109138347D01*
X58006497Y-109273051D01*
X57163758Y-108430312D01*
X57163757Y-108430312D01*
X57065166Y-108558799D01*
X56927527Y-108797197D01*
X56927520Y-108797212D01*
X56822180Y-109051528D01*
X56750930Y-109317434D01*
X56715000Y-109590358D01*
X55045000Y-109590358D01*
X55009069Y-109317434D01*
X54937819Y-109051528D01*
X54832479Y-108797212D01*
X54832472Y-108797197D01*
X54694836Y-108558804D01*
X54596240Y-108430312D01*
X53753501Y-109273051D01*
X53663495Y-109138347D01*
X53534653Y-109009505D01*
X53399948Y-108919497D01*
X54242686Y-108076758D01*
X54114196Y-107978163D01*
X53875802Y-107840527D01*
X53875787Y-107840520D01*
X53621471Y-107735180D01*
X53355565Y-107663930D01*
X53082642Y-107628000D01*
X52807358Y-107628000D01*
X52534434Y-107663930D01*
X52268528Y-107735180D01*
X52014212Y-107840520D01*
X52014197Y-107840527D01*
X51775799Y-107978166D01*
X51647312Y-108076757D01*
X51647312Y-108076758D01*
X52490051Y-108919497D01*
X52355347Y-109009505D01*
X52226505Y-109138347D01*
X52136497Y-109273051D01*
X51293758Y-108430312D01*
X51293757Y-108430312D01*
X51195166Y-108558799D01*
X51057527Y-108797197D01*
X51057520Y-108797212D01*
X50952180Y-109051528D01*
X50880930Y-109317434D01*
X50845000Y-109590358D01*
X49022500Y-109590358D01*
X49022500Y-103720358D01*
X50845000Y-103720358D01*
X50845000Y-103995641D01*
X50880930Y-104268565D01*
X50952180Y-104534471D01*
X51057520Y-104788787D01*
X51057527Y-104788802D01*
X51195163Y-105027196D01*
X51293758Y-105155686D01*
X52136497Y-104312947D01*
X52226505Y-104447653D01*
X52355347Y-104576495D01*
X52490051Y-104666501D01*
X51647312Y-105509240D01*
X51775804Y-105607836D01*
X52014197Y-105745472D01*
X52014212Y-105745479D01*
X52268528Y-105850819D01*
X52534434Y-105922069D01*
X52807358Y-105958000D01*
X53082642Y-105958000D01*
X53355565Y-105922069D01*
X53621471Y-105850819D01*
X53875787Y-105745479D01*
X53875802Y-105745472D01*
X54114194Y-105607836D01*
X54114211Y-105607825D01*
X54242686Y-105509241D01*
X54242686Y-105509239D01*
X53399949Y-104666501D01*
X53534653Y-104576495D01*
X53663495Y-104447653D01*
X53753501Y-104312948D01*
X54596239Y-105155686D01*
X54596241Y-105155686D01*
X54694825Y-105027211D01*
X54694836Y-105027194D01*
X54832472Y-104788802D01*
X54832479Y-104788787D01*
X54937819Y-104534471D01*
X55009069Y-104268565D01*
X55045000Y-103995641D01*
X55045000Y-103720358D01*
X56715000Y-103720358D01*
X56715000Y-103995641D01*
X56750930Y-104268565D01*
X56822180Y-104534471D01*
X56927520Y-104788787D01*
X56927527Y-104788802D01*
X57065163Y-105027196D01*
X57163758Y-105155686D01*
X58006497Y-104312947D01*
X58096505Y-104447653D01*
X58225347Y-104576495D01*
X58360051Y-104666501D01*
X57517312Y-105509240D01*
X57645804Y-105607836D01*
X57884197Y-105745472D01*
X57884212Y-105745479D01*
X58138528Y-105850819D01*
X58404434Y-105922069D01*
X58677358Y-105958000D01*
X58952642Y-105958000D01*
X59225565Y-105922069D01*
X59491471Y-105850819D01*
X59745787Y-105745479D01*
X59745802Y-105745472D01*
X59984194Y-105607836D01*
X59984211Y-105607825D01*
X60112686Y-105509241D01*
X60112686Y-105509239D01*
X59269949Y-104666501D01*
X59404653Y-104576495D01*
X59533495Y-104447653D01*
X59623501Y-104312948D01*
X60466239Y-105155686D01*
X60466241Y-105155686D01*
X60564825Y-105027211D01*
X60564836Y-105027194D01*
X60702472Y-104788802D01*
X60702479Y-104788787D01*
X60807819Y-104534471D01*
X60879069Y-104268565D01*
X60915000Y-103995641D01*
X60915000Y-103720358D01*
X60879069Y-103447434D01*
X60807819Y-103181528D01*
X60702479Y-102927212D01*
X60702472Y-102927197D01*
X60591377Y-102734774D01*
X60564836Y-102688804D01*
X60555201Y-102676248D01*
X91344250Y-102676248D01*
X91344250Y-103012951D01*
X91381946Y-103347512D01*
X91381947Y-103347521D01*
X91381948Y-103347525D01*
X91398455Y-103419848D01*
X91456869Y-103675776D01*
X91456873Y-103675788D01*
X91568074Y-103993581D01*
X91714157Y-104296926D01*
X91714159Y-104296929D01*
X91893291Y-104582016D01*
X92103217Y-104845254D01*
X92341296Y-105083333D01*
X92604534Y-105293259D01*
X92889621Y-105472391D01*
X93192972Y-105618477D01*
X93431654Y-105701995D01*
X93510761Y-105729676D01*
X93510773Y-105729680D01*
X93839025Y-105804602D01*
X94173599Y-105842299D01*
X94173600Y-105842300D01*
X94173603Y-105842300D01*
X94510300Y-105842300D01*
X94510300Y-105842299D01*
X94844875Y-105804602D01*
X95173127Y-105729680D01*
X95490928Y-105618477D01*
X95794279Y-105472391D01*
X96079366Y-105293259D01*
X96342604Y-105083333D01*
X96580683Y-104845254D01*
X96790609Y-104582016D01*
X96969741Y-104296929D01*
X97115827Y-103993578D01*
X97227030Y-103675777D01*
X97301952Y-103347525D01*
X97339650Y-103012947D01*
X97339650Y-102676253D01*
X97301952Y-102341675D01*
X97227030Y-102013423D01*
X97115827Y-101695622D01*
X96969741Y-101392271D01*
X96790609Y-101107184D01*
X96712763Y-101009568D01*
X113083300Y-101009568D01*
X113083300Y-101298431D01*
X113083301Y-101298447D01*
X113121005Y-101584839D01*
X113195774Y-101863880D01*
X113239946Y-101970520D01*
X113306321Y-102130763D01*
X113450759Y-102380937D01*
X113450764Y-102380943D01*
X113450765Y-102380945D01*
X113626614Y-102610116D01*
X113626620Y-102610123D01*
X113830876Y-102814379D01*
X113830883Y-102814385D01*
X113977903Y-102927197D01*
X114060063Y-102990241D01*
X114310237Y-103134679D01*
X114577124Y-103245227D01*
X114856157Y-103319994D01*
X115142562Y-103357700D01*
X115142569Y-103357700D01*
X115431431Y-103357700D01*
X115431438Y-103357700D01*
X115717843Y-103319994D01*
X115996876Y-103245227D01*
X116263763Y-103134679D01*
X116513937Y-102990241D01*
X116743118Y-102814384D01*
X116947384Y-102610118D01*
X117123241Y-102380937D01*
X117267679Y-102130763D01*
X117378227Y-101863876D01*
X117452994Y-101584843D01*
X117490700Y-101298438D01*
X117490700Y-101009562D01*
X117452994Y-100723157D01*
X117378227Y-100444124D01*
X117267679Y-100177237D01*
X117123241Y-99927063D01*
X116947384Y-99697882D01*
X116947379Y-99697876D01*
X116743123Y-99493620D01*
X116743116Y-99493614D01*
X116513945Y-99317765D01*
X116513943Y-99317764D01*
X116513937Y-99317759D01*
X116356218Y-99226700D01*
X116263765Y-99173322D01*
X116263756Y-99173318D01*
X115996880Y-99062774D01*
X115717839Y-98988005D01*
X115431447Y-98950301D01*
X115431444Y-98950300D01*
X115431438Y-98950300D01*
X115142562Y-98950300D01*
X115142556Y-98950300D01*
X115142552Y-98950301D01*
X114856160Y-98988005D01*
X114577119Y-99062774D01*
X114310243Y-99173318D01*
X114310234Y-99173322D01*
X114060069Y-99317755D01*
X114060054Y-99317765D01*
X113830883Y-99493614D01*
X113830876Y-99493620D01*
X113626620Y-99697876D01*
X113626614Y-99697883D01*
X113450765Y-99927054D01*
X113450755Y-99927069D01*
X113306322Y-100177234D01*
X113306318Y-100177243D01*
X113195774Y-100444119D01*
X113121005Y-100723160D01*
X113083301Y-101009552D01*
X113083300Y-101009568D01*
X96712763Y-101009568D01*
X96580683Y-100843946D01*
X96342604Y-100605867D01*
X96079366Y-100395941D01*
X95794279Y-100216809D01*
X95794276Y-100216807D01*
X95490931Y-100070724D01*
X95173138Y-99959523D01*
X95173126Y-99959519D01*
X94919796Y-99901698D01*
X94844875Y-99884598D01*
X94844871Y-99884597D01*
X94844862Y-99884596D01*
X94510301Y-99846900D01*
X94510297Y-99846900D01*
X94173603Y-99846900D01*
X94173598Y-99846900D01*
X93839037Y-99884596D01*
X93839025Y-99884598D01*
X93510773Y-99959519D01*
X93510761Y-99959523D01*
X93192968Y-100070724D01*
X92889623Y-100216807D01*
X92604535Y-100395940D01*
X92341296Y-100605866D01*
X92103216Y-100843946D01*
X91893290Y-101107185D01*
X91714157Y-101392273D01*
X91568074Y-101695618D01*
X91456873Y-102013411D01*
X91456869Y-102013423D01*
X91381948Y-102341675D01*
X91381946Y-102341687D01*
X91344250Y-102676248D01*
X60555201Y-102676248D01*
X60466240Y-102560312D01*
X59623501Y-103403051D01*
X59533495Y-103268347D01*
X59404653Y-103139505D01*
X59269948Y-103049497D01*
X60112686Y-102206758D01*
X59984196Y-102108163D01*
X59745802Y-101970527D01*
X59745787Y-101970520D01*
X59491471Y-101865180D01*
X59225565Y-101793930D01*
X58952642Y-101758000D01*
X58677358Y-101758000D01*
X58404434Y-101793930D01*
X58138528Y-101865180D01*
X57884212Y-101970520D01*
X57884197Y-101970527D01*
X57645799Y-102108166D01*
X57517312Y-102206757D01*
X57517312Y-102206758D01*
X58360051Y-103049497D01*
X58225347Y-103139505D01*
X58096505Y-103268347D01*
X58006497Y-103403051D01*
X57163758Y-102560312D01*
X57163757Y-102560312D01*
X57065166Y-102688799D01*
X56927527Y-102927197D01*
X56927520Y-102927212D01*
X56822180Y-103181528D01*
X56750930Y-103447434D01*
X56715000Y-103720358D01*
X55045000Y-103720358D01*
X55009069Y-103447434D01*
X54937819Y-103181528D01*
X54832479Y-102927212D01*
X54832472Y-102927197D01*
X54694836Y-102688804D01*
X54596240Y-102560312D01*
X53753501Y-103403051D01*
X53663495Y-103268347D01*
X53534653Y-103139505D01*
X53399948Y-103049497D01*
X54242686Y-102206758D01*
X54114196Y-102108163D01*
X53875802Y-101970527D01*
X53875787Y-101970520D01*
X53621471Y-101865180D01*
X53355565Y-101793930D01*
X53082642Y-101758000D01*
X52807358Y-101758000D01*
X52534434Y-101793930D01*
X52268528Y-101865180D01*
X52014212Y-101970520D01*
X52014197Y-101970527D01*
X51775799Y-102108166D01*
X51647312Y-102206757D01*
X51647312Y-102206758D01*
X52490051Y-103049497D01*
X52355347Y-103139505D01*
X52226505Y-103268347D01*
X52136497Y-103403051D01*
X51293758Y-102560312D01*
X51293757Y-102560312D01*
X51195166Y-102688799D01*
X51057527Y-102927197D01*
X51057520Y-102927212D01*
X50952180Y-103181528D01*
X50880930Y-103447434D01*
X50845000Y-103720358D01*
X49022500Y-103720358D01*
X49022500Y-97304771D01*
X51141300Y-97304771D01*
X51141300Y-97541228D01*
X51172161Y-97775635D01*
X51233359Y-98004028D01*
X51323837Y-98222461D01*
X51323841Y-98222471D01*
X51442059Y-98427231D01*
X51585995Y-98614812D01*
X51586001Y-98614819D01*
X51753180Y-98781998D01*
X51753187Y-98782004D01*
X51940768Y-98925940D01*
X52145528Y-99044158D01*
X52145529Y-99044158D01*
X52145532Y-99044160D01*
X52363976Y-99134642D01*
X52592361Y-99195838D01*
X52826779Y-99226700D01*
X52826786Y-99226700D01*
X53063214Y-99226700D01*
X53063221Y-99226700D01*
X53297639Y-99195838D01*
X53526024Y-99134642D01*
X53744468Y-99044160D01*
X53949232Y-98925940D01*
X54136814Y-98782003D01*
X54304003Y-98614814D01*
X54447940Y-98427232D01*
X54566160Y-98222468D01*
X54656642Y-98004024D01*
X54717838Y-97775639D01*
X54748700Y-97541221D01*
X54748700Y-97304779D01*
X54748699Y-97304771D01*
X57011300Y-97304771D01*
X57011300Y-97541228D01*
X57042161Y-97775635D01*
X57103359Y-98004028D01*
X57193837Y-98222461D01*
X57193841Y-98222471D01*
X57312059Y-98427231D01*
X57455995Y-98614812D01*
X57456001Y-98614819D01*
X57623180Y-98781998D01*
X57623187Y-98782004D01*
X57810768Y-98925940D01*
X58015528Y-99044158D01*
X58015529Y-99044158D01*
X58015532Y-99044160D01*
X58233976Y-99134642D01*
X58462361Y-99195838D01*
X58696779Y-99226700D01*
X58696786Y-99226700D01*
X58933214Y-99226700D01*
X58933221Y-99226700D01*
X59167639Y-99195838D01*
X59396024Y-99134642D01*
X59614468Y-99044160D01*
X59819232Y-98925940D01*
X60006814Y-98782003D01*
X60174003Y-98614814D01*
X60317940Y-98427232D01*
X60436160Y-98222468D01*
X60526642Y-98004024D01*
X60587838Y-97775639D01*
X60618700Y-97541221D01*
X60618700Y-97304779D01*
X60587838Y-97070361D01*
X60526642Y-96841976D01*
X60436160Y-96623532D01*
X60360139Y-96491860D01*
X60317940Y-96418768D01*
X60174004Y-96231187D01*
X60173998Y-96231180D01*
X60006819Y-96064001D01*
X60006812Y-96063995D01*
X59819231Y-95920059D01*
X59640265Y-95816734D01*
X59614470Y-95801841D01*
X59614461Y-95801837D01*
X59402918Y-95714213D01*
X64058300Y-95714213D01*
X64058300Y-95954186D01*
X64095837Y-96191188D01*
X64108834Y-96231187D01*
X64169990Y-96419405D01*
X64278931Y-96633212D01*
X64419977Y-96827345D01*
X64589655Y-96997023D01*
X64783788Y-97138069D01*
X64997595Y-97247010D01*
X65170889Y-97303316D01*
X65225811Y-97321162D01*
X65462814Y-97358700D01*
X65462819Y-97358700D01*
X65702786Y-97358700D01*
X65939788Y-97321162D01*
X66168005Y-97247010D01*
X66381812Y-97138069D01*
X66575945Y-96997023D01*
X66745623Y-96827345D01*
X66886669Y-96633212D01*
X66995610Y-96419405D01*
X67069762Y-96191188D01*
X67107300Y-95954186D01*
X67107300Y-95714213D01*
X67095868Y-95642036D01*
X67069762Y-95477211D01*
X67016672Y-95313818D01*
X66995610Y-95248995D01*
X66886669Y-95035188D01*
X66745623Y-94841055D01*
X66575945Y-94671377D01*
X66381812Y-94530331D01*
X66168005Y-94421390D01*
X66108818Y-94402159D01*
X65939788Y-94347237D01*
X65702786Y-94309700D01*
X65702781Y-94309700D01*
X65462819Y-94309700D01*
X65462814Y-94309700D01*
X65225811Y-94347237D01*
X64997592Y-94421391D01*
X64783787Y-94530331D01*
X64690556Y-94598068D01*
X64589655Y-94671377D01*
X64589653Y-94671379D01*
X64589652Y-94671379D01*
X64419979Y-94841052D01*
X64419979Y-94841053D01*
X64419977Y-94841055D01*
X64386896Y-94886587D01*
X64278931Y-95035187D01*
X64169991Y-95248992D01*
X64095837Y-95477211D01*
X64058300Y-95714213D01*
X59402918Y-95714213D01*
X59396028Y-95711359D01*
X59167635Y-95650161D01*
X58933228Y-95619300D01*
X58933221Y-95619300D01*
X58696779Y-95619300D01*
X58696771Y-95619300D01*
X58462364Y-95650161D01*
X58233971Y-95711359D01*
X58015538Y-95801837D01*
X58015528Y-95801841D01*
X57810768Y-95920059D01*
X57623187Y-96063995D01*
X57623180Y-96064001D01*
X57456001Y-96231180D01*
X57455995Y-96231187D01*
X57312059Y-96418768D01*
X57193841Y-96623528D01*
X57193837Y-96623538D01*
X57103359Y-96841971D01*
X57042161Y-97070364D01*
X57011300Y-97304771D01*
X54748699Y-97304771D01*
X54717838Y-97070361D01*
X54656642Y-96841976D01*
X54566160Y-96623532D01*
X54490139Y-96491860D01*
X54447940Y-96418768D01*
X54304004Y-96231187D01*
X54303998Y-96231180D01*
X54136819Y-96064001D01*
X54136812Y-96063995D01*
X53949231Y-95920059D01*
X53744471Y-95801841D01*
X53744461Y-95801837D01*
X53526028Y-95711359D01*
X53297635Y-95650161D01*
X53063228Y-95619300D01*
X53063221Y-95619300D01*
X52826779Y-95619300D01*
X52826771Y-95619300D01*
X52592364Y-95650161D01*
X52363971Y-95711359D01*
X52145538Y-95801837D01*
X52145528Y-95801841D01*
X51940768Y-95920059D01*
X51753187Y-96063995D01*
X51753180Y-96064001D01*
X51586001Y-96231180D01*
X51585995Y-96231187D01*
X51442059Y-96418768D01*
X51323841Y-96623528D01*
X51323837Y-96623538D01*
X51233359Y-96841971D01*
X51172161Y-97070364D01*
X51141300Y-97304771D01*
X49022500Y-97304771D01*
X49022500Y-91434771D01*
X51141300Y-91434771D01*
X51141300Y-91671228D01*
X51172161Y-91905635D01*
X51233359Y-92134028D01*
X51323837Y-92352461D01*
X51323841Y-92352471D01*
X51442059Y-92557231D01*
X51585995Y-92744812D01*
X51586001Y-92744819D01*
X51753180Y-92911998D01*
X51753187Y-92912004D01*
X51940768Y-93055940D01*
X52145528Y-93174158D01*
X52145529Y-93174158D01*
X52145532Y-93174160D01*
X52363976Y-93264642D01*
X52592361Y-93325838D01*
X52826779Y-93356700D01*
X52826786Y-93356700D01*
X53063214Y-93356700D01*
X53063221Y-93356700D01*
X53297639Y-93325838D01*
X53526024Y-93264642D01*
X53744468Y-93174160D01*
X53949232Y-93055940D01*
X54136814Y-92912003D01*
X54304003Y-92744814D01*
X54447940Y-92557232D01*
X54566160Y-92352468D01*
X54656642Y-92134024D01*
X54717838Y-91905639D01*
X54748700Y-91671221D01*
X54748700Y-91434779D01*
X54748699Y-91434771D01*
X57011300Y-91434771D01*
X57011300Y-91671228D01*
X57042161Y-91905635D01*
X57103359Y-92134028D01*
X57193837Y-92352461D01*
X57193841Y-92352471D01*
X57312059Y-92557231D01*
X57455995Y-92744812D01*
X57456001Y-92744819D01*
X57623180Y-92911998D01*
X57623187Y-92912004D01*
X57810768Y-93055940D01*
X58015528Y-93174158D01*
X58015529Y-93174158D01*
X58015532Y-93174160D01*
X58233976Y-93264642D01*
X58462361Y-93325838D01*
X58696779Y-93356700D01*
X58696786Y-93356700D01*
X58933214Y-93356700D01*
X58933221Y-93356700D01*
X59167639Y-93325838D01*
X59396024Y-93264642D01*
X59614340Y-93174213D01*
X81838300Y-93174213D01*
X81838300Y-93414186D01*
X81875837Y-93651188D01*
X81930759Y-93820218D01*
X81949990Y-93879405D01*
X82058931Y-94093212D01*
X82199977Y-94287345D01*
X82369655Y-94457023D01*
X82563788Y-94598069D01*
X82777595Y-94707010D01*
X82950889Y-94763316D01*
X83005811Y-94781162D01*
X83242814Y-94818700D01*
X83242819Y-94818700D01*
X83482786Y-94818700D01*
X83719788Y-94781162D01*
X83948005Y-94707010D01*
X84161812Y-94598069D01*
X84355945Y-94457023D01*
X84525623Y-94287345D01*
X84666669Y-94093212D01*
X84775610Y-93879405D01*
X84849762Y-93651188D01*
X84887300Y-93414186D01*
X84887300Y-93174213D01*
X84849762Y-92937211D01*
X84799300Y-92781906D01*
X84775610Y-92708995D01*
X84666669Y-92495188D01*
X84525623Y-92301055D01*
X84355945Y-92131377D01*
X84161812Y-91990331D01*
X83948005Y-91881390D01*
X83888818Y-91862159D01*
X83719788Y-91807237D01*
X83482786Y-91769700D01*
X83482781Y-91769700D01*
X83242819Y-91769700D01*
X83242814Y-91769700D01*
X83005811Y-91807237D01*
X82777592Y-91881391D01*
X82563787Y-91990331D01*
X82453028Y-92070802D01*
X82369655Y-92131377D01*
X82369653Y-92131379D01*
X82369652Y-92131379D01*
X82199979Y-92301052D01*
X82199979Y-92301053D01*
X82199977Y-92301055D01*
X82162623Y-92352468D01*
X82058931Y-92495187D01*
X81949991Y-92708992D01*
X81875837Y-92937211D01*
X81838300Y-93174213D01*
X59614340Y-93174213D01*
X59614468Y-93174160D01*
X59819232Y-93055940D01*
X60006814Y-92912003D01*
X60174003Y-92744814D01*
X60317940Y-92557232D01*
X60436160Y-92352468D01*
X60526642Y-92134024D01*
X60587838Y-91905639D01*
X60618700Y-91671221D01*
X60618700Y-91434779D01*
X60587838Y-91200361D01*
X60526642Y-90971976D01*
X60436160Y-90753532D01*
X60317940Y-90548768D01*
X60174003Y-90361186D01*
X60173998Y-90361180D01*
X60006819Y-90194001D01*
X60006812Y-90193995D01*
X59846717Y-90071150D01*
X59846716Y-90071149D01*
X59819232Y-90050059D01*
X59691387Y-89976248D01*
X91344250Y-89976248D01*
X91344250Y-90312951D01*
X91381946Y-90647512D01*
X91381948Y-90647524D01*
X91456869Y-90975776D01*
X91456873Y-90975788D01*
X91568074Y-91293581D01*
X91714157Y-91596926D01*
X91714159Y-91596929D01*
X91893291Y-91882016D01*
X91912127Y-91905635D01*
X92094264Y-92134028D01*
X92103217Y-92145254D01*
X92341296Y-92383333D01*
X92604534Y-92593259D01*
X92889621Y-92772391D01*
X93192972Y-92918477D01*
X93431654Y-93001995D01*
X93510761Y-93029676D01*
X93510773Y-93029680D01*
X93839025Y-93104602D01*
X94173599Y-93142299D01*
X94173600Y-93142300D01*
X94173603Y-93142300D01*
X94510300Y-93142300D01*
X94510300Y-93142299D01*
X94844875Y-93104602D01*
X95173127Y-93029680D01*
X95326093Y-92976155D01*
X98237000Y-92976155D01*
X98237000Y-95174000D01*
X99909145Y-95174000D01*
X99887000Y-95313818D01*
X99887000Y-95534182D01*
X99909145Y-95674000D01*
X98237000Y-95674000D01*
X98237000Y-97871844D01*
X98243401Y-97931372D01*
X98243403Y-97931379D01*
X98293645Y-98066086D01*
X98293649Y-98066093D01*
X98379809Y-98181187D01*
X98379812Y-98181190D01*
X98494906Y-98267350D01*
X98494913Y-98267354D01*
X98629620Y-98317596D01*
X98629627Y-98317598D01*
X98689155Y-98323999D01*
X98689172Y-98324000D01*
X101037000Y-98324000D01*
X101037000Y-96801854D01*
X101176818Y-96824000D01*
X101397182Y-96824000D01*
X101537000Y-96801854D01*
X101537000Y-98324000D01*
X106037000Y-98324000D01*
X106037000Y-96801854D01*
X106176818Y-96824000D01*
X106397182Y-96824000D01*
X106537000Y-96801854D01*
X106537000Y-98324000D01*
X108884828Y-98324000D01*
X108884844Y-98323999D01*
X108944372Y-98317598D01*
X108944379Y-98317596D01*
X109079086Y-98267354D01*
X109079093Y-98267350D01*
X109194187Y-98181190D01*
X109194190Y-98181187D01*
X109280350Y-98066093D01*
X109280354Y-98066086D01*
X109330596Y-97931379D01*
X109330598Y-97931372D01*
X109336999Y-97871844D01*
X109337000Y-97871827D01*
X109337000Y-95674000D01*
X107664855Y-95674000D01*
X107687000Y-95534182D01*
X107687000Y-95313818D01*
X107664855Y-95174000D01*
X109337000Y-95174000D01*
X109337000Y-92976172D01*
X109336999Y-92976155D01*
X109330598Y-92916627D01*
X109330596Y-92916620D01*
X109280354Y-92781913D01*
X109280350Y-92781906D01*
X109194190Y-92666812D01*
X109194187Y-92666809D01*
X109079093Y-92580649D01*
X109079086Y-92580645D01*
X108944379Y-92530403D01*
X108944372Y-92530401D01*
X108884844Y-92524000D01*
X106537000Y-92524000D01*
X106537000Y-94046145D01*
X106397182Y-94024000D01*
X106176818Y-94024000D01*
X106037000Y-94046145D01*
X106037000Y-92524000D01*
X101537000Y-92524000D01*
X101537000Y-94046145D01*
X101397182Y-94024000D01*
X101176818Y-94024000D01*
X101037000Y-94046145D01*
X101037000Y-92524000D01*
X98689155Y-92524000D01*
X98629627Y-92530401D01*
X98629620Y-92530403D01*
X98494913Y-92580645D01*
X98494906Y-92580649D01*
X98379812Y-92666809D01*
X98379809Y-92666812D01*
X98293649Y-92781906D01*
X98293645Y-92781913D01*
X98243403Y-92916620D01*
X98243401Y-92916627D01*
X98237000Y-92976155D01*
X95326093Y-92976155D01*
X95490928Y-92918477D01*
X95490936Y-92918473D01*
X95490939Y-92918472D01*
X95610007Y-92861132D01*
X95610009Y-92861131D01*
X95774506Y-92781913D01*
X95794279Y-92772391D01*
X96079366Y-92593259D01*
X96342604Y-92383333D01*
X96580683Y-92145254D01*
X96790609Y-91882016D01*
X96969741Y-91596929D01*
X97115827Y-91293578D01*
X97227030Y-90975777D01*
X97301952Y-90647525D01*
X97339650Y-90312947D01*
X97339650Y-89976253D01*
X97301952Y-89641675D01*
X97227030Y-89313423D01*
X97115827Y-88995622D01*
X96969741Y-88692271D01*
X96790609Y-88407184D01*
X96580683Y-88143946D01*
X96342604Y-87905867D01*
X96265108Y-87844066D01*
X98533299Y-87844066D01*
X98545117Y-87903476D01*
X98545118Y-87903479D01*
X98545119Y-87903480D01*
X98590140Y-87970860D01*
X98657520Y-88015881D01*
X98657523Y-88015882D01*
X98716933Y-88027700D01*
X98716936Y-88027700D01*
X108857066Y-88027700D01*
X108916476Y-88015882D01*
X108916477Y-88015881D01*
X108916480Y-88015881D01*
X108983860Y-87970860D01*
X109028881Y-87903480D01*
X109040700Y-87844064D01*
X109040700Y-83003936D01*
X109040700Y-83003933D01*
X109028882Y-82944523D01*
X109028881Y-82944520D01*
X108983860Y-82877140D01*
X108916480Y-82832119D01*
X108916479Y-82832118D01*
X108916476Y-82832117D01*
X108857066Y-82820300D01*
X108857064Y-82820300D01*
X103857064Y-82820300D01*
X98716936Y-82820300D01*
X98716934Y-82820300D01*
X98657523Y-82832117D01*
X98657520Y-82832118D01*
X98590140Y-82877140D01*
X98545118Y-82944520D01*
X98545117Y-82944523D01*
X98533300Y-83003933D01*
X98533300Y-83003936D01*
X98533300Y-87844064D01*
X98533300Y-87844066D01*
X98533299Y-87844066D01*
X96265108Y-87844066D01*
X96079366Y-87695941D01*
X95794279Y-87516809D01*
X95794276Y-87516807D01*
X95490931Y-87370724D01*
X95173138Y-87259523D01*
X95173126Y-87259519D01*
X94906659Y-87198700D01*
X94844875Y-87184598D01*
X94844871Y-87184597D01*
X94844862Y-87184596D01*
X94510301Y-87146900D01*
X94510297Y-87146900D01*
X94173603Y-87146900D01*
X94173598Y-87146900D01*
X93839037Y-87184596D01*
X93839025Y-87184598D01*
X93510773Y-87259519D01*
X93510761Y-87259523D01*
X93192968Y-87370724D01*
X92889623Y-87516807D01*
X92604535Y-87695940D01*
X92341296Y-87905866D01*
X92103216Y-88143946D01*
X91893290Y-88407185D01*
X91714157Y-88692273D01*
X91568074Y-88995618D01*
X91456873Y-89313411D01*
X91456869Y-89313423D01*
X91381948Y-89641675D01*
X91381946Y-89641687D01*
X91344250Y-89976248D01*
X59691387Y-89976248D01*
X59614471Y-89931841D01*
X59614461Y-89931837D01*
X59396028Y-89841359D01*
X59167635Y-89780161D01*
X58933228Y-89749300D01*
X58933221Y-89749300D01*
X58696779Y-89749300D01*
X58696771Y-89749300D01*
X58462364Y-89780161D01*
X58233971Y-89841359D01*
X58015538Y-89931837D01*
X58015528Y-89931841D01*
X57810768Y-90050059D01*
X57623187Y-90193995D01*
X57623180Y-90194001D01*
X57456001Y-90361180D01*
X57455995Y-90361187D01*
X57312059Y-90548768D01*
X57193841Y-90753528D01*
X57193837Y-90753538D01*
X57103359Y-90971971D01*
X57042161Y-91200364D01*
X57011300Y-91434771D01*
X54748699Y-91434771D01*
X54717838Y-91200361D01*
X54656642Y-90971976D01*
X54566160Y-90753532D01*
X54447940Y-90548768D01*
X54304003Y-90361186D01*
X54303998Y-90361180D01*
X54136819Y-90194001D01*
X54136812Y-90193995D01*
X53949231Y-90050059D01*
X53744471Y-89931841D01*
X53744461Y-89931837D01*
X53526028Y-89841359D01*
X53297635Y-89780161D01*
X53063228Y-89749300D01*
X53063221Y-89749300D01*
X52826779Y-89749300D01*
X52826771Y-89749300D01*
X52592364Y-89780161D01*
X52363971Y-89841359D01*
X52145538Y-89931837D01*
X52145528Y-89931841D01*
X51940768Y-90050059D01*
X51753187Y-90193995D01*
X51753180Y-90194001D01*
X51586001Y-90361180D01*
X51585995Y-90361187D01*
X51442059Y-90548768D01*
X51323841Y-90753528D01*
X51323837Y-90753538D01*
X51233359Y-90971971D01*
X51172161Y-91200364D01*
X51141300Y-91434771D01*
X49022500Y-91434771D01*
X49022500Y-85554213D01*
X81838300Y-85554213D01*
X81838300Y-85794186D01*
X81875837Y-86031188D01*
X81930759Y-86200218D01*
X81949990Y-86259405D01*
X82058931Y-86473212D01*
X82199977Y-86667345D01*
X82369655Y-86837023D01*
X82563788Y-86978069D01*
X82777595Y-87087010D01*
X82950889Y-87143316D01*
X83005811Y-87161162D01*
X83242814Y-87198700D01*
X83242819Y-87198700D01*
X83482786Y-87198700D01*
X83719788Y-87161162D01*
X83948005Y-87087010D01*
X84161812Y-86978069D01*
X84355945Y-86837023D01*
X84525623Y-86667345D01*
X84666669Y-86473212D01*
X84775610Y-86259405D01*
X84849762Y-86031188D01*
X84887300Y-85794186D01*
X84887300Y-85554213D01*
X84849762Y-85317211D01*
X84831916Y-85262289D01*
X84775610Y-85088995D01*
X84666669Y-84875188D01*
X84525623Y-84681055D01*
X84355945Y-84511377D01*
X84161812Y-84370331D01*
X83948005Y-84261390D01*
X83888818Y-84242159D01*
X83719788Y-84187237D01*
X83482786Y-84149700D01*
X83482781Y-84149700D01*
X83242819Y-84149700D01*
X83242814Y-84149700D01*
X83005811Y-84187237D01*
X82777592Y-84261391D01*
X82563787Y-84370331D01*
X82466258Y-84441191D01*
X82369655Y-84511377D01*
X82369653Y-84511379D01*
X82369652Y-84511379D01*
X82199979Y-84681052D01*
X82199979Y-84681053D01*
X82199977Y-84681055D01*
X82187320Y-84698476D01*
X82058931Y-84875187D01*
X81949991Y-85088992D01*
X81875837Y-85317211D01*
X81838300Y-85554213D01*
X49022500Y-85554213D01*
X49022500Y-81645048D01*
X91344250Y-81645048D01*
X91344250Y-81981751D01*
X91381946Y-82316312D01*
X91381948Y-82316324D01*
X91456869Y-82644576D01*
X91456873Y-82644588D01*
X91568074Y-82962381D01*
X91714157Y-83265726D01*
X91714159Y-83265729D01*
X91893291Y-83550816D01*
X92103217Y-83814054D01*
X92341296Y-84052133D01*
X92604534Y-84262059D01*
X92889621Y-84441191D01*
X93192972Y-84587277D01*
X93431654Y-84670795D01*
X93510761Y-84698476D01*
X93510773Y-84698480D01*
X93839025Y-84773402D01*
X94173599Y-84811099D01*
X94173600Y-84811100D01*
X94173603Y-84811100D01*
X94510300Y-84811100D01*
X94510300Y-84811099D01*
X94844875Y-84773402D01*
X95173127Y-84698480D01*
X95490928Y-84587277D01*
X95794279Y-84441191D01*
X96079366Y-84262059D01*
X96342604Y-84052133D01*
X96580683Y-83814054D01*
X96790609Y-83550816D01*
X96969741Y-83265729D01*
X97115827Y-82962378D01*
X97227030Y-82644577D01*
X97301952Y-82316325D01*
X97339650Y-81981747D01*
X97339650Y-81645053D01*
X97301952Y-81310475D01*
X97227030Y-80982223D01*
X97115827Y-80664422D01*
X96969741Y-80361071D01*
X96790609Y-80075984D01*
X96580683Y-79812746D01*
X96342604Y-79574667D01*
X96311123Y-79549562D01*
X96275751Y-79521354D01*
X96079366Y-79364741D01*
X95794279Y-79185609D01*
X95794276Y-79185607D01*
X95490931Y-79039524D01*
X95173138Y-78928323D01*
X95173126Y-78928319D01*
X94919796Y-78870498D01*
X94844875Y-78853398D01*
X94844871Y-78853397D01*
X94844862Y-78853396D01*
X94510301Y-78815700D01*
X94510297Y-78815700D01*
X94173603Y-78815700D01*
X94173598Y-78815700D01*
X93839037Y-78853396D01*
X93839025Y-78853398D01*
X93510773Y-78928319D01*
X93510761Y-78928323D01*
X93192968Y-79039524D01*
X92889623Y-79185607D01*
X92604535Y-79364740D01*
X92341296Y-79574666D01*
X92103216Y-79812746D01*
X91893290Y-80075985D01*
X91714157Y-80361073D01*
X91568074Y-80664418D01*
X91456873Y-80982211D01*
X91456869Y-80982223D01*
X91381948Y-81310475D01*
X91381946Y-81310487D01*
X91344250Y-81645048D01*
X49022500Y-81645048D01*
X49022500Y-77594500D01*
X49042185Y-77527461D01*
X49094989Y-77481706D01*
X49146500Y-77470500D01*
X114273068Y-77470500D01*
X114340107Y-77490185D01*
G37*
%TD.AperFunction*%
%TD*%
M02*
