%TF.GenerationSoftware,KiCad,Pcbnew,9.0.6*%
%TF.CreationDate,2026-05-10T15:04:05-07:00*%
%TF.ProjectId,Power Electronics Board,506f7765-7220-4456-9c65-6374726f6e69,2.6*%
%TF.SameCoordinates,Original*%
%TF.FileFunction,Soldermask,Top*%
%TF.FilePolarity,Negative*%
%FSLAX46Y46*%
G04 Gerber Fmt 4.6, Leading zero omitted, Abs format (unit mm)*
G04 Created by KiCad (PCBNEW 9.0.6) date 2026-05-10 15:04:05*
%MOMM*%
%LPD*%
G01*
G04 APERTURE LIST*
G04 Aperture macros list*
%AMRoundRect*
0 Rectangle with rounded corners*
0 $1 Rounding radius*
0 $2 $3 $4 $5 $6 $7 $8 $9 X,Y pos of 4 corners*
0 Add a 4 corners polygon primitive as box body*
4,1,4,$2,$3,$4,$5,$6,$7,$8,$9,$2,$3,0*
0 Add four circle primitives for the rounded corners*
1,1,$1+$1,$2,$3*
1,1,$1+$1,$4,$5*
1,1,$1+$1,$6,$7*
1,1,$1+$1,$8,$9*
0 Add four rect primitives between the rounded corners*
20,1,$1+$1,$2,$3,$4,$5,0*
20,1,$1+$1,$4,$5,$6,$7,0*
20,1,$1+$1,$6,$7,$8,$9,0*
20,1,$1+$1,$8,$9,$2,$3,0*%
G04 Aperture macros list end*
%ADD10C,5.588000*%
%ADD11RoundRect,0.150000X0.825000X0.150000X-0.825000X0.150000X-0.825000X-0.150000X0.825000X-0.150000X0*%
%ADD12R,3.200400X1.193800*%
%ADD13RoundRect,0.162500X0.162500X-0.837500X0.162500X0.837500X-0.162500X0.837500X-0.162500X-0.837500X0*%
%ADD14R,1.000000X1.000000*%
%ADD15RoundRect,0.250000X0.400000X1.450000X-0.400000X1.450000X-0.400000X-1.450000X0.400000X-1.450000X0*%
%ADD16RoundRect,0.237500X0.250000X0.237500X-0.250000X0.237500X-0.250000X-0.237500X0.250000X-0.237500X0*%
%ADD17RoundRect,0.237500X0.237500X-0.250000X0.237500X0.250000X-0.237500X0.250000X-0.237500X-0.250000X0*%
%ADD18RoundRect,0.237500X-0.237500X0.250000X-0.237500X-0.250000X0.237500X-0.250000X0.237500X0.250000X0*%
%ADD19RoundRect,0.237500X-0.237500X0.300000X-0.237500X-0.300000X0.237500X-0.300000X0.237500X0.300000X0*%
%ADD20R,8.204200X1.092200*%
%ADD21R,2.489200X1.244600*%
%ADD22RoundRect,0.237500X0.237500X-0.300000X0.237500X0.300000X-0.237500X0.300000X-0.237500X-0.300000X0*%
%ADD23RoundRect,0.250000X-0.400000X-1.450000X0.400000X-1.450000X0.400000X1.450000X-0.400000X1.450000X0*%
%ADD24C,2.641600*%
%ADD25C,1.676400*%
%ADD26RoundRect,0.218750X0.256250X-0.218750X0.256250X0.218750X-0.256250X0.218750X-0.256250X-0.218750X0*%
%ADD27C,3.200000*%
%ADD28RoundRect,0.150000X-0.150000X0.512500X-0.150000X-0.512500X0.150000X-0.512500X0.150000X0.512500X0*%
%ADD29RoundRect,0.250000X-0.350000X-0.450000X0.350000X-0.450000X0.350000X0.450000X-0.350000X0.450000X0*%
%ADD30R,1.092200X8.001000*%
%ADD31R,1.244600X7.010400*%
%ADD32RoundRect,0.237500X-0.250000X-0.237500X0.250000X-0.237500X0.250000X0.237500X-0.250000X0.237500X0*%
%ADD33C,2.400000*%
%ADD34R,10.490200X1.092200*%
%ADD35R,2.997200X1.244600*%
%ADD36RoundRect,0.218750X0.218750X0.256250X-0.218750X0.256250X-0.218750X-0.256250X0.218750X-0.256250X0*%
%ADD37C,4.000000*%
%ADD38R,5.100000X4.800000*%
%ADD39RoundRect,0.150000X0.150000X-0.587500X0.150000X0.587500X-0.150000X0.587500X-0.150000X-0.587500X0*%
%ADD40C,6.400000*%
%ADD41RoundRect,0.162500X-0.162500X0.837500X-0.162500X-0.837500X0.162500X-0.837500X0.162500X0.837500X0*%
%ADD42C,3.900000*%
%ADD43C,1.950000*%
%ADD44RoundRect,0.150000X0.512500X0.150000X-0.512500X0.150000X-0.512500X-0.150000X0.512500X-0.150000X0*%
%ADD45R,4.500000X4.800000*%
%ADD46RoundRect,0.218750X-0.256250X0.218750X-0.256250X-0.218750X0.256250X-0.218750X0.256250X0.218750X0*%
%ADD47C,1.397000*%
%ADD48RoundRect,0.237500X0.300000X0.237500X-0.300000X0.237500X-0.300000X-0.237500X0.300000X-0.237500X0*%
%ADD49RoundRect,0.150000X0.762500X0.150000X-0.762500X0.150000X-0.762500X-0.150000X0.762500X-0.150000X0*%
%ADD50RoundRect,0.102000X-0.754000X-0.754000X0.754000X-0.754000X0.754000X0.754000X-0.754000X0.754000X0*%
%ADD51C,1.712000*%
%ADD52RoundRect,0.150000X-0.150000X0.825000X-0.150000X-0.825000X0.150000X-0.825000X0.150000X0.825000X0*%
G04 APERTURE END LIST*
D10*
%TO.C,F1*%
X94341950Y-90144600D03*
X94341950Y-102844600D03*
X94341950Y-111175800D03*
X94341950Y-81813400D03*
%TD*%
D11*
%TO.C,U7*%
X114300000Y-134874000D03*
X114300000Y-133604000D03*
X114300000Y-132334000D03*
X114300000Y-131064000D03*
X109350000Y-131064000D03*
X109350000Y-132334000D03*
X109350000Y-133604000D03*
X109350000Y-134874000D03*
%TD*%
D12*
%TO.C,U4*%
X126490001Y-131460701D03*
X126490001Y-139080701D03*
X126490001Y-141620701D03*
X145289999Y-141620701D03*
X145289999Y-139080701D03*
X145289999Y-134000701D03*
X145289999Y-131460701D03*
%TD*%
D13*
%TO.C,U8*%
X103698000Y-109406000D03*
X105598000Y-109406000D03*
X104648000Y-105986000D03*
%TD*%
D14*
%TO.C,TP6*%
X61468000Y-143764000D03*
%TD*%
%TO.C,TP7*%
X145796000Y-124714000D03*
%TD*%
%TO.C,TP9*%
X71120000Y-140208000D03*
%TD*%
D15*
%TO.C,F4*%
X180549000Y-139025500D03*
X176099000Y-139025500D03*
%TD*%
D16*
%TO.C,R10*%
X152755500Y-128865500D03*
X150930500Y-128865500D03*
%TD*%
D14*
%TO.C,TP11*%
X88900000Y-146812000D03*
%TD*%
D17*
%TO.C,R11*%
X66040000Y-146200500D03*
X66040000Y-144375500D03*
%TD*%
D18*
%TO.C,R8*%
X107188000Y-137541000D03*
X107188000Y-139366000D03*
%TD*%
D14*
%TO.C,TP2*%
X116840000Y-120396000D03*
%TD*%
D19*
%TO.C,C5*%
X89916000Y-140361500D03*
X89916000Y-142086500D03*
%TD*%
D20*
%TO.C,J4*%
X187666599Y-121630001D03*
X187666599Y-114589999D03*
D21*
X183276601Y-116860000D03*
X183276601Y-119360000D03*
%TD*%
D14*
%TO.C,TP1*%
X117856000Y-132334000D03*
%TD*%
%TO.C,TP12*%
X153416000Y-139700000D03*
%TD*%
D22*
%TO.C,C8*%
X87884000Y-142086500D03*
X87884000Y-140361500D03*
%TD*%
D14*
%TO.C,TP10*%
X116840000Y-115316000D03*
%TD*%
D23*
%TO.C,F3*%
X176099000Y-131913500D03*
X180549000Y-131913500D03*
%TD*%
D14*
%TO.C,TP4*%
X116332000Y-109728000D03*
%TD*%
D24*
%TO.C,K2*%
X65582800Y-95834200D03*
D25*
X69392800Y-108534200D03*
X79552800Y-108534200D03*
D24*
X83362800Y-93294200D03*
X83362800Y-85674200D03*
%TD*%
D26*
%TO.C,D2*%
X104140000Y-135915500D03*
X104140000Y-134340500D03*
%TD*%
D27*
%TO.C,H3*%
X190500000Y-146304000D03*
%TD*%
D28*
%TO.C,Q2*%
X94930000Y-140086500D03*
X93030000Y-140086500D03*
X93980000Y-142361500D03*
%TD*%
D29*
%TO.C,R6*%
X170212000Y-135977500D03*
X172212000Y-135977500D03*
%TD*%
D14*
%TO.C,TP5*%
X169115000Y-130897500D03*
%TD*%
D30*
%TO.C,J5*%
X147740000Y-118699000D03*
X153850000Y-118699000D03*
D31*
X152045000Y-118699000D03*
X149545000Y-118699000D03*
%TD*%
D32*
%TO.C,R16*%
X110847500Y-125984000D03*
X112672500Y-125984000D03*
%TD*%
D33*
%TO.C,R4*%
X157472000Y-144613500D03*
X179872000Y-144613500D03*
%TD*%
D34*
%TO.C,J7*%
X108712000Y-112535000D03*
X108712000Y-123645000D03*
D35*
X111962001Y-121840000D03*
X111962001Y-119340000D03*
X111962001Y-116840000D03*
X111962001Y-114340000D03*
X105461999Y-121840000D03*
X105461999Y-119340000D03*
X105461999Y-116840000D03*
X105461999Y-114340000D03*
%TD*%
D36*
%TO.C,D1*%
X117119500Y-105664000D03*
X115544500Y-105664000D03*
%TD*%
D33*
%TO.C,R7*%
X179872000Y-126325500D03*
X157472000Y-126325500D03*
%TD*%
D32*
%TO.C,R18*%
X94996000Y-144272000D03*
X96821000Y-144272000D03*
%TD*%
D16*
%TO.C,R14*%
X153312500Y-137414000D03*
X151487500Y-137414000D03*
%TD*%
D18*
%TO.C,R17*%
X105664000Y-125984000D03*
X105664000Y-127809000D03*
%TD*%
D37*
%TO.C,J6*%
X115287000Y-79694000D03*
X115287000Y-101154000D03*
D38*
X101287000Y-85424000D03*
X106287000Y-85424000D03*
X101287000Y-95424000D03*
X106287000Y-95424000D03*
%TD*%
D16*
%TO.C,R13*%
X152771601Y-130749000D03*
X150946601Y-130749000D03*
%TD*%
D39*
%TO.C,Q3*%
X97094000Y-142161500D03*
X98994000Y-142161500D03*
X98044000Y-140286500D03*
%TD*%
D40*
%TO.C,H2*%
X52324000Y-80772000D03*
%TD*%
D17*
%TO.C,R9*%
X107253000Y-135024500D03*
X107253000Y-133199500D03*
%TD*%
D22*
%TO.C,C7*%
X166624000Y-134720500D03*
X166624000Y-132995500D03*
%TD*%
D19*
%TO.C,C2*%
X107188000Y-141123500D03*
X107188000Y-142848500D03*
%TD*%
D40*
%TO.C,H1*%
X52324000Y-146304000D03*
%TD*%
D41*
%TO.C,U3*%
X110932000Y-141546000D03*
X109032000Y-141546000D03*
X109982000Y-144966000D03*
%TD*%
D11*
%TO.C,U6*%
X164543000Y-138771500D03*
X164543000Y-137501500D03*
X164543000Y-136231500D03*
X164543000Y-134961500D03*
X164543000Y-133691500D03*
X164543000Y-132421500D03*
X164543000Y-131151500D03*
X159593000Y-131151500D03*
X159593000Y-132421500D03*
X159593000Y-133691500D03*
X159593000Y-134961500D03*
X159593000Y-136231500D03*
X159593000Y-137501500D03*
X159593000Y-138771500D03*
%TD*%
D42*
%TO.C,K3*%
X67564000Y-132766000D03*
X67564000Y-128766000D03*
X67564000Y-124766000D03*
X76464000Y-132766000D03*
X76464000Y-128766000D03*
X76464000Y-124766000D03*
D43*
X93164000Y-132966000D03*
X98164000Y-132966000D03*
X88164000Y-132966000D03*
%TD*%
D32*
%TO.C,R12*%
X91440000Y-144272000D03*
X93265000Y-144272000D03*
%TD*%
D44*
%TO.C,Q1*%
X114421500Y-129474000D03*
X114421500Y-127574000D03*
X112146500Y-128524000D03*
%TD*%
D32*
%TO.C,R15*%
X98655500Y-144272000D03*
X100480500Y-144272000D03*
%TD*%
D37*
%TO.C,J10*%
X58205500Y-117794000D03*
X58205500Y-139254000D03*
D45*
X54155500Y-123524000D03*
X58555500Y-123524000D03*
X54155500Y-133524000D03*
X58555500Y-133524000D03*
%TD*%
D20*
%TO.C,J3*%
X187617599Y-138989501D03*
X187617599Y-131949499D03*
D21*
X183227601Y-134219500D03*
X183227601Y-136719500D03*
%TD*%
D29*
%TO.C,R5*%
X172244000Y-138009500D03*
X174244000Y-138009500D03*
%TD*%
D16*
%TO.C,R2*%
X174156500Y-131913500D03*
X172331500Y-131913500D03*
%TD*%
D22*
%TO.C,C4*%
X107253000Y-131418500D03*
X107253000Y-129693500D03*
%TD*%
D46*
%TO.C,D3*%
X104140000Y-129260500D03*
X104140000Y-130835500D03*
%TD*%
D19*
%TO.C,C1*%
X104140000Y-142393500D03*
X104140000Y-144118500D03*
%TD*%
D27*
%TO.C,J9*%
X52945000Y-103858000D03*
X52945000Y-109728000D03*
X58815000Y-103858000D03*
X58815000Y-109728000D03*
%TD*%
D47*
%TO.C,K4*%
X127508000Y-109220000D03*
X127508000Y-121920000D03*
X135128000Y-121920000D03*
X135128000Y-114300000D03*
X135128000Y-109220000D03*
%TD*%
D18*
%TO.C,R19*%
X108712000Y-125984000D03*
X108712000Y-127809000D03*
%TD*%
D27*
%TO.C,J8*%
X52945000Y-91553000D03*
X52945000Y-97423000D03*
X58815000Y-91553000D03*
X58815000Y-97423000D03*
%TD*%
D48*
%TO.C,C3*%
X112687500Y-136525000D03*
X110962500Y-136525000D03*
%TD*%
D22*
%TO.C,C6*%
X156923000Y-137856000D03*
X156923000Y-136131000D03*
%TD*%
D49*
%TO.C,U5*%
X136259500Y-127000000D03*
X136259500Y-124460000D03*
X126884500Y-124460000D03*
X126884500Y-127000000D03*
%TD*%
D18*
%TO.C,R1*%
X66040000Y-140819500D03*
X66040000Y-142644500D03*
%TD*%
D14*
%TO.C,TP8*%
X61468000Y-146304000D03*
%TD*%
D50*
%TO.C,RV1*%
X70104000Y-144272000D03*
D51*
X72604000Y-144272000D03*
X75104000Y-144272000D03*
%TD*%
D52*
%TO.C,U1*%
X86106000Y-145796000D03*
X84836000Y-145796000D03*
X83566000Y-145796000D03*
X82296000Y-145796000D03*
X81026000Y-145796000D03*
X79756000Y-145796000D03*
X78486000Y-145796000D03*
X78486000Y-140846000D03*
X79756000Y-140846000D03*
X81026000Y-140846000D03*
X82296000Y-140846000D03*
X83566000Y-140846000D03*
X84836000Y-140846000D03*
X86106000Y-140846000D03*
%TD*%
M02*
