M48
; DRILL file {KiCad 9.0.6-unknown-1000.20251110git96868b2.fc41} date 2025-12-16T17:43:41-0800
; FORMAT={-:-/ absolute / metric / decimal}
; #@! TF.CreationDate,2025-12-16T17:43:41-08:00
; #@! TF.GenerationSoftware,Kicad,Pcbnew,9.0.6-unknown-1000.20251110git96868b2.fc41
; #@! TF.FileFunction,Plated,1,4,PTH
FMAT,2
METRIC
; #@! TA.AperFunction,Plated,PTH,ViaDrill
T1C0.300
; #@! TA.AperFunction,Plated,PTH,ComponentDrill
T2C0.600
; #@! TA.AperFunction,Plated,PTH,ComponentDrill
T3C1.000
; #@! TA.AperFunction,Plated,PTH,ComponentDrill
T4C1.100
; #@! TA.AperFunction,Plated,PTH,ComponentDrill
T5C1.200
; #@! TA.AperFunction,Plated,PTH,ComponentDrill
T6C1.600
; #@! TA.AperFunction,Plated,PTH,ViaDrill
T7C3.000
%
G90
G05
T1
X124.5Y-62.75
X127.195Y-57.75
X127.25Y-40.25
X127.307Y-68.039
X128.476Y-64.022
X129.618Y-65.55
X130.0Y-49.0
X130.0Y-52.25
X130.25Y-54.5
X130.5Y-40.25
X130.5Y-44.5
X130.672Y-46.223
X130.705Y-45.374
X130.849Y-58.803
X131.043Y-55.133
X131.25Y-59.998
X131.25Y-70.5
X131.33Y-51.62
X131.5Y-48.75
X131.774Y-46.443
X132.0Y-81.5
X132.109Y-53.78
X132.2Y-64.901
X132.452Y-52.831
X132.827Y-54.286
X133.25Y-41.5
X133.25Y-43.0
X133.25Y-86.75
X133.27Y-54.963
X133.45Y-61.25
X133.5Y-74.75
X133.75Y-76.25
X133.75Y-78.25
X133.922Y-55.6
X134.0Y-47.75
X134.0Y-68.0
X134.0Y-72.0
X134.149Y-42.899
X134.5Y-57.5
X134.704Y-52.424
X134.75Y-40.75
X134.75Y-43.5
X134.765Y-53.254
X135.331Y-65.209
X135.5Y-64.25
X135.5Y-80.75
X135.6Y-61.339
X136.0Y-76.25
X136.25Y-88.25
X136.8Y-61.331
X137.305Y-55.431
X137.305Y-57.0
X137.5Y-45.96
X137.5Y-47.25
X137.704Y-54.68
X137.75Y-37.0
X137.753Y-58.998
X138.0Y-42.0
X138.0Y-57.5
X138.25Y-45.31
X138.25Y-47.75
X138.303Y-54.131
X139.0Y-44.66
X139.0Y-48.13
X139.0Y-58.25
X139.0Y-63.35
X140.25Y-67.0
X140.662Y-54.781
X140.8Y-58.4
X141.5Y-63.5
X141.55Y-65.795
X141.75Y-83.5
X141.82Y-45.31
X143.0Y-54.75
X143.0Y-60.0
X143.0Y-90.5
X143.025Y-61.845
X143.213Y-56.826
X143.25Y-68.75
X143.25Y-80.75
X143.5Y-75.0
X143.75Y-40.0
X144.32Y-47.388
X144.662Y-51.166
X145.348Y-42.998
X145.417Y-52.54
X146.0Y-41.75
X147.5Y-84.0
X147.75Y-49.0
X148.0Y-60.0
X149.5Y-39.5
X151.0Y-61.75
X151.5Y-49.0
X152.0Y-52.75
X152.25Y-62.0
X153.0Y-69.75
X153.0Y-75.25
X153.25Y-43.5
X153.687Y-79.486
X153.75Y-83.5
X154.25Y-43.0
X154.75Y-39.75
X154.75Y-49.25
X154.75Y-55.0
X155.0Y-41.25
X156.0Y-47.0
X156.5Y-55.0
X158.0Y-55.0
X158.5Y-90.5
X160.25Y-68.0
X160.75Y-63.25
X161.5Y-81.75
T3
X123.735Y-36.115
X123.735Y-38.655
X123.735Y-41.195
X123.735Y-43.735
X123.735Y-46.275
X123.735Y-48.815
X123.735Y-51.355
X123.735Y-53.895
X123.735Y-56.435
X123.735Y-58.975
X123.735Y-61.515
X123.735Y-64.055
X123.735Y-66.595
X123.735Y-69.135
X123.735Y-71.675
X123.735Y-74.215
X123.735Y-76.755
X123.735Y-79.295
X123.735Y-81.835
X123.735Y-84.375
X126.275Y-36.115
X126.275Y-38.655
X126.275Y-41.195
X126.275Y-43.735
X126.275Y-46.275
X126.275Y-48.815
X126.275Y-51.355
X126.275Y-53.895
X126.275Y-56.435
X126.275Y-58.975
X126.275Y-61.515
X126.275Y-64.055
X126.275Y-66.595
X126.275Y-69.135
X126.275Y-71.675
X126.275Y-74.215
X126.275Y-76.755
X126.275Y-79.295
X126.275Y-81.835
X126.275Y-84.375
T4
X133.75Y-39.5
T5
X155.25Y-71.925
X157.75Y-71.925
X158.325Y-40.5
X158.325Y-43.0
X158.325Y-45.5
X158.325Y-48.0
X160.25Y-71.925
X162.75Y-71.925
T6
X133.75Y-59.5
T7
X162.5Y-49.5
T2
G00X157.845Y-77.43
M15
G01X158.945Y-77.43
M16
G05
G00X157.845Y-86.07
M15
G01X158.945Y-86.07
M16
G05
G00X162.175Y-77.43
M15
G01X162.975Y-77.43
M16
G05
G00X162.175Y-86.07
M15
G01X162.975Y-86.07
M16
G05
M30
