%TF.GenerationSoftware,KiCad,Pcbnew,9.0.7-unknown-1000.20260124git33f2886.fc43*%
%TF.CreationDate,2026-02-08T17:37:17-08:00*%
%TF.ProjectId,Telemetry-Logging-Board,54656c65-6d65-4747-9279-2d4c6f676769,rev?*%
%TF.SameCoordinates,Original*%
%TF.FileFunction,Legend,Top*%
%TF.FilePolarity,Positive*%
%FSLAX46Y46*%
G04 Gerber Fmt 4.6, Leading zero omitted, Abs format (unit mm)*
G04 Created by KiCad (PCBNEW 9.0.7-unknown-1000.20260124git33f2886.fc43) date 2026-02-08 17:37:17*
%MOMM*%
%LPD*%
G01*
G04 APERTURE LIST*
%ADD10C,0.100000*%
%ADD11C,0.250000*%
%ADD12C,0.300000*%
%ADD13C,0.150000*%
%ADD14C,0.152400*%
%ADD15C,0.120000*%
%ADD16C,0.000000*%
G04 APERTURE END LIST*
D10*
X158672931Y-66933609D02*
X158434836Y-66933609D01*
X158434836Y-66933609D02*
X158434836Y-66433609D01*
X158839598Y-66933609D02*
X158839598Y-66433609D01*
X159077693Y-66933609D02*
X159077693Y-66433609D01*
X159077693Y-66433609D02*
X159363407Y-66933609D01*
X159363407Y-66933609D02*
X159363407Y-66433609D01*
X160339598Y-66909800D02*
X160411026Y-66933609D01*
X160411026Y-66933609D02*
X160530074Y-66933609D01*
X160530074Y-66933609D02*
X160577693Y-66909800D01*
X160577693Y-66909800D02*
X160601502Y-66885990D01*
X160601502Y-66885990D02*
X160625312Y-66838371D01*
X160625312Y-66838371D02*
X160625312Y-66790752D01*
X160625312Y-66790752D02*
X160601502Y-66743133D01*
X160601502Y-66743133D02*
X160577693Y-66719323D01*
X160577693Y-66719323D02*
X160530074Y-66695514D01*
X160530074Y-66695514D02*
X160434836Y-66671704D01*
X160434836Y-66671704D02*
X160387217Y-66647895D01*
X160387217Y-66647895D02*
X160363407Y-66624085D01*
X160363407Y-66624085D02*
X160339598Y-66576466D01*
X160339598Y-66576466D02*
X160339598Y-66528847D01*
X160339598Y-66528847D02*
X160363407Y-66481228D01*
X160363407Y-66481228D02*
X160387217Y-66457419D01*
X160387217Y-66457419D02*
X160434836Y-66433609D01*
X160434836Y-66433609D02*
X160553883Y-66433609D01*
X160553883Y-66433609D02*
X160625312Y-66457419D01*
X161006264Y-66671704D02*
X161077692Y-66695514D01*
X161077692Y-66695514D02*
X161101502Y-66719323D01*
X161101502Y-66719323D02*
X161125311Y-66766942D01*
X161125311Y-66766942D02*
X161125311Y-66838371D01*
X161125311Y-66838371D02*
X161101502Y-66885990D01*
X161101502Y-66885990D02*
X161077692Y-66909800D01*
X161077692Y-66909800D02*
X161030073Y-66933609D01*
X161030073Y-66933609D02*
X160839597Y-66933609D01*
X160839597Y-66933609D02*
X160839597Y-66433609D01*
X160839597Y-66433609D02*
X161006264Y-66433609D01*
X161006264Y-66433609D02*
X161053883Y-66457419D01*
X161053883Y-66457419D02*
X161077692Y-66481228D01*
X161077692Y-66481228D02*
X161101502Y-66528847D01*
X161101502Y-66528847D02*
X161101502Y-66576466D01*
X161101502Y-66576466D02*
X161077692Y-66624085D01*
X161077692Y-66624085D02*
X161053883Y-66647895D01*
X161053883Y-66647895D02*
X161006264Y-66671704D01*
X161006264Y-66671704D02*
X160839597Y-66671704D01*
X161625311Y-66885990D02*
X161601502Y-66909800D01*
X161601502Y-66909800D02*
X161530073Y-66933609D01*
X161530073Y-66933609D02*
X161482454Y-66933609D01*
X161482454Y-66933609D02*
X161411026Y-66909800D01*
X161411026Y-66909800D02*
X161363407Y-66862180D01*
X161363407Y-66862180D02*
X161339597Y-66814561D01*
X161339597Y-66814561D02*
X161315788Y-66719323D01*
X161315788Y-66719323D02*
X161315788Y-66647895D01*
X161315788Y-66647895D02*
X161339597Y-66552657D01*
X161339597Y-66552657D02*
X161363407Y-66505038D01*
X161363407Y-66505038D02*
X161411026Y-66457419D01*
X161411026Y-66457419D02*
X161482454Y-66433609D01*
X161482454Y-66433609D02*
X161530073Y-66433609D01*
X161530073Y-66433609D02*
X161601502Y-66457419D01*
X161601502Y-66457419D02*
X161625311Y-66481228D01*
X149525238Y-66349887D02*
X149810952Y-66349887D01*
X149668095Y-66849887D02*
X149668095Y-66349887D01*
X149977618Y-66587982D02*
X150144285Y-66587982D01*
X150215713Y-66849887D02*
X149977618Y-66849887D01*
X149977618Y-66849887D02*
X149977618Y-66349887D01*
X149977618Y-66349887D02*
X150215713Y-66349887D01*
X150715713Y-66849887D02*
X150549047Y-66611792D01*
X150429999Y-66849887D02*
X150429999Y-66349887D01*
X150429999Y-66349887D02*
X150620475Y-66349887D01*
X150620475Y-66349887D02*
X150668094Y-66373697D01*
X150668094Y-66373697D02*
X150691904Y-66397506D01*
X150691904Y-66397506D02*
X150715713Y-66445125D01*
X150715713Y-66445125D02*
X150715713Y-66516554D01*
X150715713Y-66516554D02*
X150691904Y-66564173D01*
X150691904Y-66564173D02*
X150668094Y-66587982D01*
X150668094Y-66587982D02*
X150620475Y-66611792D01*
X150620475Y-66611792D02*
X150429999Y-66611792D01*
X150929999Y-66849887D02*
X150929999Y-66349887D01*
X150929999Y-66349887D02*
X151096666Y-66707030D01*
X151096666Y-66707030D02*
X151263332Y-66349887D01*
X151263332Y-66349887D02*
X151263332Y-66849887D01*
X149787142Y-67654859D02*
X149787142Y-67154859D01*
X149787142Y-67154859D02*
X149906190Y-67154859D01*
X149906190Y-67154859D02*
X149977618Y-67178669D01*
X149977618Y-67178669D02*
X150025237Y-67226288D01*
X150025237Y-67226288D02*
X150049047Y-67273907D01*
X150049047Y-67273907D02*
X150072856Y-67369145D01*
X150072856Y-67369145D02*
X150072856Y-67440573D01*
X150072856Y-67440573D02*
X150049047Y-67535811D01*
X150049047Y-67535811D02*
X150025237Y-67583430D01*
X150025237Y-67583430D02*
X149977618Y-67631050D01*
X149977618Y-67631050D02*
X149906190Y-67654859D01*
X149906190Y-67654859D02*
X149787142Y-67654859D01*
X150287142Y-67654859D02*
X150287142Y-67154859D01*
X150287142Y-67154859D02*
X150572856Y-67654859D01*
X150572856Y-67654859D02*
X150572856Y-67154859D01*
X150810952Y-67654859D02*
X150810952Y-67154859D01*
X150810952Y-67154859D02*
X151001428Y-67154859D01*
X151001428Y-67154859D02*
X151049047Y-67178669D01*
X151049047Y-67178669D02*
X151072857Y-67202478D01*
X151072857Y-67202478D02*
X151096666Y-67250097D01*
X151096666Y-67250097D02*
X151096666Y-67321526D01*
X151096666Y-67321526D02*
X151072857Y-67369145D01*
X151072857Y-67369145D02*
X151049047Y-67392954D01*
X151049047Y-67392954D02*
X151001428Y-67416764D01*
X151001428Y-67416764D02*
X150810952Y-67416764D01*
X149563692Y-57309887D02*
X149849406Y-57309887D01*
X149706549Y-57809887D02*
X149706549Y-57309887D01*
X150016072Y-57547982D02*
X150182739Y-57547982D01*
X150254167Y-57809887D02*
X150016072Y-57809887D01*
X150016072Y-57809887D02*
X150016072Y-57309887D01*
X150016072Y-57309887D02*
X150254167Y-57309887D01*
X150754167Y-57809887D02*
X150587501Y-57571792D01*
X150468453Y-57809887D02*
X150468453Y-57309887D01*
X150468453Y-57309887D02*
X150658929Y-57309887D01*
X150658929Y-57309887D02*
X150706548Y-57333697D01*
X150706548Y-57333697D02*
X150730358Y-57357506D01*
X150730358Y-57357506D02*
X150754167Y-57405125D01*
X150754167Y-57405125D02*
X150754167Y-57476554D01*
X150754167Y-57476554D02*
X150730358Y-57524173D01*
X150730358Y-57524173D02*
X150706548Y-57547982D01*
X150706548Y-57547982D02*
X150658929Y-57571792D01*
X150658929Y-57571792D02*
X150468453Y-57571792D01*
X150968453Y-57809887D02*
X150968453Y-57309887D01*
X150968453Y-57309887D02*
X151135120Y-57667030D01*
X151135120Y-57667030D02*
X151301786Y-57309887D01*
X151301786Y-57309887D02*
X151301786Y-57809887D01*
X149825596Y-58614859D02*
X149825596Y-58114859D01*
X149825596Y-58114859D02*
X149944644Y-58114859D01*
X149944644Y-58114859D02*
X150016072Y-58138669D01*
X150016072Y-58138669D02*
X150063691Y-58186288D01*
X150063691Y-58186288D02*
X150087501Y-58233907D01*
X150087501Y-58233907D02*
X150111310Y-58329145D01*
X150111310Y-58329145D02*
X150111310Y-58400573D01*
X150111310Y-58400573D02*
X150087501Y-58495811D01*
X150087501Y-58495811D02*
X150063691Y-58543430D01*
X150063691Y-58543430D02*
X150016072Y-58591050D01*
X150016072Y-58591050D02*
X149944644Y-58614859D01*
X149944644Y-58614859D02*
X149825596Y-58614859D01*
X150325596Y-58614859D02*
X150325596Y-58114859D01*
X150325596Y-58114859D02*
X150611310Y-58614859D01*
X150611310Y-58614859D02*
X150611310Y-58114859D01*
X150849406Y-58614859D02*
X150849406Y-58114859D01*
X150849406Y-58114859D02*
X151039882Y-58114859D01*
X151039882Y-58114859D02*
X151087501Y-58138669D01*
X151087501Y-58138669D02*
X151111311Y-58162478D01*
X151111311Y-58162478D02*
X151135120Y-58210097D01*
X151135120Y-58210097D02*
X151135120Y-58281526D01*
X151135120Y-58281526D02*
X151111311Y-58329145D01*
X151111311Y-58329145D02*
X151087501Y-58352954D01*
X151087501Y-58352954D02*
X151039882Y-58376764D01*
X151039882Y-58376764D02*
X150849406Y-58376764D01*
X152296192Y-47969887D02*
X152581906Y-47969887D01*
X152439049Y-48469887D02*
X152439049Y-47969887D01*
X152748572Y-48207982D02*
X152915239Y-48207982D01*
X152986667Y-48469887D02*
X152748572Y-48469887D01*
X152748572Y-48469887D02*
X152748572Y-47969887D01*
X152748572Y-47969887D02*
X152986667Y-47969887D01*
X153486667Y-48469887D02*
X153320001Y-48231792D01*
X153200953Y-48469887D02*
X153200953Y-47969887D01*
X153200953Y-47969887D02*
X153391429Y-47969887D01*
X153391429Y-47969887D02*
X153439048Y-47993697D01*
X153439048Y-47993697D02*
X153462858Y-48017506D01*
X153462858Y-48017506D02*
X153486667Y-48065125D01*
X153486667Y-48065125D02*
X153486667Y-48136554D01*
X153486667Y-48136554D02*
X153462858Y-48184173D01*
X153462858Y-48184173D02*
X153439048Y-48207982D01*
X153439048Y-48207982D02*
X153391429Y-48231792D01*
X153391429Y-48231792D02*
X153200953Y-48231792D01*
X153700953Y-48469887D02*
X153700953Y-47969887D01*
X153700953Y-47969887D02*
X153867620Y-48327030D01*
X153867620Y-48327030D02*
X154034286Y-47969887D01*
X154034286Y-47969887D02*
X154034286Y-48469887D01*
X152558096Y-49274859D02*
X152558096Y-48774859D01*
X152558096Y-48774859D02*
X152677144Y-48774859D01*
X152677144Y-48774859D02*
X152748572Y-48798669D01*
X152748572Y-48798669D02*
X152796191Y-48846288D01*
X152796191Y-48846288D02*
X152820001Y-48893907D01*
X152820001Y-48893907D02*
X152843810Y-48989145D01*
X152843810Y-48989145D02*
X152843810Y-49060573D01*
X152843810Y-49060573D02*
X152820001Y-49155811D01*
X152820001Y-49155811D02*
X152796191Y-49203430D01*
X152796191Y-49203430D02*
X152748572Y-49251050D01*
X152748572Y-49251050D02*
X152677144Y-49274859D01*
X152677144Y-49274859D02*
X152558096Y-49274859D01*
X153058096Y-49274859D02*
X153058096Y-48774859D01*
X153058096Y-48774859D02*
X153343810Y-49274859D01*
X153343810Y-49274859D02*
X153343810Y-48774859D01*
X153581906Y-49274859D02*
X153581906Y-48774859D01*
X153581906Y-48774859D02*
X153772382Y-48774859D01*
X153772382Y-48774859D02*
X153820001Y-48798669D01*
X153820001Y-48798669D02*
X153843811Y-48822478D01*
X153843811Y-48822478D02*
X153867620Y-48870097D01*
X153867620Y-48870097D02*
X153867620Y-48941526D01*
X153867620Y-48941526D02*
X153843811Y-48989145D01*
X153843811Y-48989145D02*
X153820001Y-49012954D01*
X153820001Y-49012954D02*
X153772382Y-49036764D01*
X153772382Y-49036764D02*
X153581906Y-49036764D01*
X163433609Y-35029449D02*
X163195514Y-35196115D01*
X163433609Y-35315163D02*
X162933609Y-35315163D01*
X162933609Y-35315163D02*
X162933609Y-35124687D01*
X162933609Y-35124687D02*
X162957419Y-35077068D01*
X162957419Y-35077068D02*
X162981228Y-35053258D01*
X162981228Y-35053258D02*
X163028847Y-35029449D01*
X163028847Y-35029449D02*
X163100276Y-35029449D01*
X163100276Y-35029449D02*
X163147895Y-35053258D01*
X163147895Y-35053258D02*
X163171704Y-35077068D01*
X163171704Y-35077068D02*
X163195514Y-35124687D01*
X163195514Y-35124687D02*
X163195514Y-35315163D01*
X162933609Y-34886591D02*
X162933609Y-34600877D01*
X163433609Y-34743734D02*
X162933609Y-34743734D01*
X163385990Y-34148497D02*
X163409800Y-34172306D01*
X163409800Y-34172306D02*
X163433609Y-34243735D01*
X163433609Y-34243735D02*
X163433609Y-34291354D01*
X163433609Y-34291354D02*
X163409800Y-34362782D01*
X163409800Y-34362782D02*
X163362180Y-34410401D01*
X163362180Y-34410401D02*
X163314561Y-34434211D01*
X163314561Y-34434211D02*
X163219323Y-34458020D01*
X163219323Y-34458020D02*
X163147895Y-34458020D01*
X163147895Y-34458020D02*
X163052657Y-34434211D01*
X163052657Y-34434211D02*
X163005038Y-34410401D01*
X163005038Y-34410401D02*
X162957419Y-34362782D01*
X162957419Y-34362782D02*
X162933609Y-34291354D01*
X162933609Y-34291354D02*
X162933609Y-34243735D01*
X162933609Y-34243735D02*
X162957419Y-34172306D01*
X162957419Y-34172306D02*
X162981228Y-34148497D01*
X163171704Y-33386592D02*
X163195514Y-33315164D01*
X163195514Y-33315164D02*
X163219323Y-33291354D01*
X163219323Y-33291354D02*
X163266942Y-33267545D01*
X163266942Y-33267545D02*
X163338371Y-33267545D01*
X163338371Y-33267545D02*
X163385990Y-33291354D01*
X163385990Y-33291354D02*
X163409800Y-33315164D01*
X163409800Y-33315164D02*
X163433609Y-33362783D01*
X163433609Y-33362783D02*
X163433609Y-33553259D01*
X163433609Y-33553259D02*
X162933609Y-33553259D01*
X162933609Y-33553259D02*
X162933609Y-33386592D01*
X162933609Y-33386592D02*
X162957419Y-33338973D01*
X162957419Y-33338973D02*
X162981228Y-33315164D01*
X162981228Y-33315164D02*
X163028847Y-33291354D01*
X163028847Y-33291354D02*
X163076466Y-33291354D01*
X163076466Y-33291354D02*
X163124085Y-33315164D01*
X163124085Y-33315164D02*
X163147895Y-33338973D01*
X163147895Y-33338973D02*
X163171704Y-33386592D01*
X163171704Y-33386592D02*
X163171704Y-33553259D01*
X163290752Y-33077068D02*
X163290752Y-32838973D01*
X163433609Y-33124687D02*
X162933609Y-32958021D01*
X162933609Y-32958021D02*
X163433609Y-32791354D01*
X162933609Y-32696116D02*
X162933609Y-32410402D01*
X163433609Y-32553259D02*
X162933609Y-32553259D01*
X162933609Y-32315164D02*
X162933609Y-32029450D01*
X163433609Y-32172307D02*
X162933609Y-32172307D01*
D11*
X164178758Y-42134787D02*
X163702568Y-42134787D01*
X163702568Y-42134787D02*
X163702568Y-41134787D01*
X163702568Y-43744731D02*
X163702568Y-42744731D01*
X163702568Y-43220921D02*
X164273996Y-43220921D01*
X164273996Y-43744731D02*
X164273996Y-42744731D01*
X164178758Y-45354675D02*
X163702568Y-45354675D01*
X163702568Y-45354675D02*
X163702568Y-44354675D01*
X163702568Y-46964619D02*
X163702568Y-45964619D01*
X163702568Y-46440809D02*
X164273996Y-46440809D01*
X164273996Y-46964619D02*
X164273996Y-45964619D01*
D12*
X154627509Y-74409774D02*
X154556080Y-74552632D01*
X154556080Y-74552632D02*
X154556080Y-74766917D01*
X154556080Y-74766917D02*
X154627509Y-74981203D01*
X154627509Y-74981203D02*
X154770366Y-75124060D01*
X154770366Y-75124060D02*
X154913223Y-75195489D01*
X154913223Y-75195489D02*
X155198937Y-75266917D01*
X155198937Y-75266917D02*
X155413223Y-75266917D01*
X155413223Y-75266917D02*
X155698937Y-75195489D01*
X155698937Y-75195489D02*
X155841794Y-75124060D01*
X155841794Y-75124060D02*
X155984652Y-74981203D01*
X155984652Y-74981203D02*
X156056080Y-74766917D01*
X156056080Y-74766917D02*
X156056080Y-74624060D01*
X156056080Y-74624060D02*
X155984652Y-74409774D01*
X155984652Y-74409774D02*
X155913223Y-74338346D01*
X155913223Y-74338346D02*
X155413223Y-74338346D01*
X155413223Y-74338346D02*
X155413223Y-74624060D01*
X158470996Y-74481203D02*
X158470996Y-75195489D01*
X158470996Y-75195489D02*
X156970996Y-75195489D01*
X160885912Y-75195489D02*
X159385912Y-75195489D01*
X160100198Y-75195489D02*
X160100198Y-74338346D01*
X160885912Y-74338346D02*
X159385912Y-74338346D01*
X162729400Y-75195489D02*
X162729400Y-74052632D01*
X163300828Y-74624060D02*
X162157971Y-74624060D01*
D10*
X156503490Y-78251428D02*
X156527300Y-78275237D01*
X156527300Y-78275237D02*
X156551109Y-78346666D01*
X156551109Y-78346666D02*
X156551109Y-78394285D01*
X156551109Y-78394285D02*
X156527300Y-78465713D01*
X156527300Y-78465713D02*
X156479680Y-78513332D01*
X156479680Y-78513332D02*
X156432061Y-78537142D01*
X156432061Y-78537142D02*
X156336823Y-78560951D01*
X156336823Y-78560951D02*
X156265395Y-78560951D01*
X156265395Y-78560951D02*
X156170157Y-78537142D01*
X156170157Y-78537142D02*
X156122538Y-78513332D01*
X156122538Y-78513332D02*
X156074919Y-78465713D01*
X156074919Y-78465713D02*
X156051109Y-78394285D01*
X156051109Y-78394285D02*
X156051109Y-78346666D01*
X156051109Y-78346666D02*
X156074919Y-78275237D01*
X156074919Y-78275237D02*
X156098728Y-78251428D01*
X156551109Y-77775237D02*
X156551109Y-78060951D01*
X156551109Y-77918094D02*
X156051109Y-77918094D01*
X156051109Y-77918094D02*
X156122538Y-77965713D01*
X156122538Y-77965713D02*
X156170157Y-78013332D01*
X156170157Y-78013332D02*
X156193966Y-78060951D01*
X156551109Y-77537142D02*
X156551109Y-77441904D01*
X156551109Y-77441904D02*
X156527300Y-77394285D01*
X156527300Y-77394285D02*
X156503490Y-77370476D01*
X156503490Y-77370476D02*
X156432061Y-77322857D01*
X156432061Y-77322857D02*
X156336823Y-77299047D01*
X156336823Y-77299047D02*
X156146347Y-77299047D01*
X156146347Y-77299047D02*
X156098728Y-77322857D01*
X156098728Y-77322857D02*
X156074919Y-77346666D01*
X156074919Y-77346666D02*
X156051109Y-77394285D01*
X156051109Y-77394285D02*
X156051109Y-77489523D01*
X156051109Y-77489523D02*
X156074919Y-77537142D01*
X156074919Y-77537142D02*
X156098728Y-77560952D01*
X156098728Y-77560952D02*
X156146347Y-77584761D01*
X156146347Y-77584761D02*
X156265395Y-77584761D01*
X156265395Y-77584761D02*
X156313014Y-77560952D01*
X156313014Y-77560952D02*
X156336823Y-77537142D01*
X156336823Y-77537142D02*
X156360633Y-77489523D01*
X156360633Y-77489523D02*
X156360633Y-77394285D01*
X156360633Y-77394285D02*
X156336823Y-77346666D01*
X156336823Y-77346666D02*
X156313014Y-77322857D01*
X156313014Y-77322857D02*
X156265395Y-77299047D01*
X152079166Y-53507359D02*
X151912500Y-53269264D01*
X151793452Y-53507359D02*
X151793452Y-53007359D01*
X151793452Y-53007359D02*
X151983928Y-53007359D01*
X151983928Y-53007359D02*
X152031547Y-53031169D01*
X152031547Y-53031169D02*
X152055357Y-53054978D01*
X152055357Y-53054978D02*
X152079166Y-53102597D01*
X152079166Y-53102597D02*
X152079166Y-53174026D01*
X152079166Y-53174026D02*
X152055357Y-53221645D01*
X152055357Y-53221645D02*
X152031547Y-53245454D01*
X152031547Y-53245454D02*
X151983928Y-53269264D01*
X151983928Y-53269264D02*
X151793452Y-53269264D01*
X152531547Y-53007359D02*
X152293452Y-53007359D01*
X152293452Y-53007359D02*
X152269643Y-53245454D01*
X152269643Y-53245454D02*
X152293452Y-53221645D01*
X152293452Y-53221645D02*
X152341071Y-53197835D01*
X152341071Y-53197835D02*
X152460119Y-53197835D01*
X152460119Y-53197835D02*
X152507738Y-53221645D01*
X152507738Y-53221645D02*
X152531547Y-53245454D01*
X152531547Y-53245454D02*
X152555357Y-53293073D01*
X152555357Y-53293073D02*
X152555357Y-53412121D01*
X152555357Y-53412121D02*
X152531547Y-53459740D01*
X152531547Y-53459740D02*
X152507738Y-53483550D01*
X152507738Y-53483550D02*
X152460119Y-53507359D01*
X152460119Y-53507359D02*
X152341071Y-53507359D01*
X152341071Y-53507359D02*
X152293452Y-53483550D01*
X152293452Y-53483550D02*
X152269643Y-53459740D01*
X140854405Y-49209264D02*
X140854405Y-49447359D01*
X140687739Y-48947359D02*
X140854405Y-49209264D01*
X140854405Y-49209264D02*
X141021072Y-48947359D01*
X141163929Y-48994978D02*
X141187738Y-48971169D01*
X141187738Y-48971169D02*
X141235357Y-48947359D01*
X141235357Y-48947359D02*
X141354405Y-48947359D01*
X141354405Y-48947359D02*
X141402024Y-48971169D01*
X141402024Y-48971169D02*
X141425833Y-48994978D01*
X141425833Y-48994978D02*
X141449643Y-49042597D01*
X141449643Y-49042597D02*
X141449643Y-49090216D01*
X141449643Y-49090216D02*
X141425833Y-49161645D01*
X141425833Y-49161645D02*
X141140119Y-49447359D01*
X141140119Y-49447359D02*
X141449643Y-49447359D01*
D13*
X124671666Y-86209819D02*
X124671666Y-86924104D01*
X124671666Y-86924104D02*
X124624047Y-87066961D01*
X124624047Y-87066961D02*
X124528809Y-87162200D01*
X124528809Y-87162200D02*
X124385952Y-87209819D01*
X124385952Y-87209819D02*
X124290714Y-87209819D01*
X125671666Y-87209819D02*
X125100238Y-87209819D01*
X125385952Y-87209819D02*
X125385952Y-86209819D01*
X125385952Y-86209819D02*
X125290714Y-86352676D01*
X125290714Y-86352676D02*
X125195476Y-86447914D01*
X125195476Y-86447914D02*
X125100238Y-86495533D01*
D10*
X159666666Y-63228490D02*
X159642857Y-63252300D01*
X159642857Y-63252300D02*
X159571428Y-63276109D01*
X159571428Y-63276109D02*
X159523809Y-63276109D01*
X159523809Y-63276109D02*
X159452381Y-63252300D01*
X159452381Y-63252300D02*
X159404762Y-63204680D01*
X159404762Y-63204680D02*
X159380952Y-63157061D01*
X159380952Y-63157061D02*
X159357143Y-63061823D01*
X159357143Y-63061823D02*
X159357143Y-62990395D01*
X159357143Y-62990395D02*
X159380952Y-62895157D01*
X159380952Y-62895157D02*
X159404762Y-62847538D01*
X159404762Y-62847538D02*
X159452381Y-62799919D01*
X159452381Y-62799919D02*
X159523809Y-62776109D01*
X159523809Y-62776109D02*
X159571428Y-62776109D01*
X159571428Y-62776109D02*
X159642857Y-62799919D01*
X159642857Y-62799919D02*
X159666666Y-62823728D01*
X160119047Y-62776109D02*
X159880952Y-62776109D01*
X159880952Y-62776109D02*
X159857143Y-63014204D01*
X159857143Y-63014204D02*
X159880952Y-62990395D01*
X159880952Y-62990395D02*
X159928571Y-62966585D01*
X159928571Y-62966585D02*
X160047619Y-62966585D01*
X160047619Y-62966585D02*
X160095238Y-62990395D01*
X160095238Y-62990395D02*
X160119047Y-63014204D01*
X160119047Y-63014204D02*
X160142857Y-63061823D01*
X160142857Y-63061823D02*
X160142857Y-63180871D01*
X160142857Y-63180871D02*
X160119047Y-63228490D01*
X160119047Y-63228490D02*
X160095238Y-63252300D01*
X160095238Y-63252300D02*
X160047619Y-63276109D01*
X160047619Y-63276109D02*
X159928571Y-63276109D01*
X159928571Y-63276109D02*
X159880952Y-63252300D01*
X159880952Y-63252300D02*
X159857143Y-63228490D01*
X158158333Y-50646109D02*
X158158333Y-51003252D01*
X158158333Y-51003252D02*
X158134524Y-51074680D01*
X158134524Y-51074680D02*
X158086905Y-51122300D01*
X158086905Y-51122300D02*
X158015476Y-51146109D01*
X158015476Y-51146109D02*
X157967857Y-51146109D01*
X158610714Y-50646109D02*
X158515476Y-50646109D01*
X158515476Y-50646109D02*
X158467857Y-50669919D01*
X158467857Y-50669919D02*
X158444047Y-50693728D01*
X158444047Y-50693728D02*
X158396428Y-50765157D01*
X158396428Y-50765157D02*
X158372619Y-50860395D01*
X158372619Y-50860395D02*
X158372619Y-51050871D01*
X158372619Y-51050871D02*
X158396428Y-51098490D01*
X158396428Y-51098490D02*
X158420238Y-51122300D01*
X158420238Y-51122300D02*
X158467857Y-51146109D01*
X158467857Y-51146109D02*
X158563095Y-51146109D01*
X158563095Y-51146109D02*
X158610714Y-51122300D01*
X158610714Y-51122300D02*
X158634523Y-51098490D01*
X158634523Y-51098490D02*
X158658333Y-51050871D01*
X158658333Y-51050871D02*
X158658333Y-50931823D01*
X158658333Y-50931823D02*
X158634523Y-50884204D01*
X158634523Y-50884204D02*
X158610714Y-50860395D01*
X158610714Y-50860395D02*
X158563095Y-50836585D01*
X158563095Y-50836585D02*
X158467857Y-50836585D01*
X158467857Y-50836585D02*
X158420238Y-50860395D01*
X158420238Y-50860395D02*
X158396428Y-50884204D01*
X158396428Y-50884204D02*
X158372619Y-50931823D01*
X158416666Y-58476109D02*
X158178571Y-58476109D01*
X158178571Y-58476109D02*
X158178571Y-57976109D01*
X158845238Y-58476109D02*
X158559524Y-58476109D01*
X158702381Y-58476109D02*
X158702381Y-57976109D01*
X158702381Y-57976109D02*
X158654762Y-58047538D01*
X158654762Y-58047538D02*
X158607143Y-58095157D01*
X158607143Y-58095157D02*
X158559524Y-58118966D01*
X137166666Y-37226109D02*
X137000000Y-36988014D01*
X136880952Y-37226109D02*
X136880952Y-36726109D01*
X136880952Y-36726109D02*
X137071428Y-36726109D01*
X137071428Y-36726109D02*
X137119047Y-36749919D01*
X137119047Y-36749919D02*
X137142857Y-36773728D01*
X137142857Y-36773728D02*
X137166666Y-36821347D01*
X137166666Y-36821347D02*
X137166666Y-36892776D01*
X137166666Y-36892776D02*
X137142857Y-36940395D01*
X137142857Y-36940395D02*
X137119047Y-36964204D01*
X137119047Y-36964204D02*
X137071428Y-36988014D01*
X137071428Y-36988014D02*
X136880952Y-36988014D01*
X137333333Y-36726109D02*
X137642857Y-36726109D01*
X137642857Y-36726109D02*
X137476190Y-36916585D01*
X137476190Y-36916585D02*
X137547619Y-36916585D01*
X137547619Y-36916585D02*
X137595238Y-36940395D01*
X137595238Y-36940395D02*
X137619047Y-36964204D01*
X137619047Y-36964204D02*
X137642857Y-37011823D01*
X137642857Y-37011823D02*
X137642857Y-37130871D01*
X137642857Y-37130871D02*
X137619047Y-37178490D01*
X137619047Y-37178490D02*
X137595238Y-37202300D01*
X137595238Y-37202300D02*
X137547619Y-37226109D01*
X137547619Y-37226109D02*
X137404762Y-37226109D01*
X137404762Y-37226109D02*
X137357143Y-37202300D01*
X137357143Y-37202300D02*
X137333333Y-37178490D01*
D13*
X162704819Y-69083333D02*
X163419104Y-69083333D01*
X163419104Y-69083333D02*
X163561961Y-69130952D01*
X163561961Y-69130952D02*
X163657200Y-69226190D01*
X163657200Y-69226190D02*
X163704819Y-69369047D01*
X163704819Y-69369047D02*
X163704819Y-69464285D01*
X162704819Y-68702380D02*
X162704819Y-68083333D01*
X162704819Y-68083333D02*
X163085771Y-68416666D01*
X163085771Y-68416666D02*
X163085771Y-68273809D01*
X163085771Y-68273809D02*
X163133390Y-68178571D01*
X163133390Y-68178571D02*
X163181009Y-68130952D01*
X163181009Y-68130952D02*
X163276247Y-68083333D01*
X163276247Y-68083333D02*
X163514342Y-68083333D01*
X163514342Y-68083333D02*
X163609580Y-68130952D01*
X163609580Y-68130952D02*
X163657200Y-68178571D01*
X163657200Y-68178571D02*
X163704819Y-68273809D01*
X163704819Y-68273809D02*
X163704819Y-68559523D01*
X163704819Y-68559523D02*
X163657200Y-68654761D01*
X163657200Y-68654761D02*
X163609580Y-68702380D01*
D10*
X149878571Y-49778490D02*
X149854762Y-49802300D01*
X149854762Y-49802300D02*
X149783333Y-49826109D01*
X149783333Y-49826109D02*
X149735714Y-49826109D01*
X149735714Y-49826109D02*
X149664286Y-49802300D01*
X149664286Y-49802300D02*
X149616667Y-49754680D01*
X149616667Y-49754680D02*
X149592857Y-49707061D01*
X149592857Y-49707061D02*
X149569048Y-49611823D01*
X149569048Y-49611823D02*
X149569048Y-49540395D01*
X149569048Y-49540395D02*
X149592857Y-49445157D01*
X149592857Y-49445157D02*
X149616667Y-49397538D01*
X149616667Y-49397538D02*
X149664286Y-49349919D01*
X149664286Y-49349919D02*
X149735714Y-49326109D01*
X149735714Y-49326109D02*
X149783333Y-49326109D01*
X149783333Y-49326109D02*
X149854762Y-49349919D01*
X149854762Y-49349919D02*
X149878571Y-49373728D01*
X150354762Y-49826109D02*
X150069048Y-49826109D01*
X150211905Y-49826109D02*
X150211905Y-49326109D01*
X150211905Y-49326109D02*
X150164286Y-49397538D01*
X150164286Y-49397538D02*
X150116667Y-49445157D01*
X150116667Y-49445157D02*
X150069048Y-49468966D01*
X150545238Y-49373728D02*
X150569047Y-49349919D01*
X150569047Y-49349919D02*
X150616666Y-49326109D01*
X150616666Y-49326109D02*
X150735714Y-49326109D01*
X150735714Y-49326109D02*
X150783333Y-49349919D01*
X150783333Y-49349919D02*
X150807142Y-49373728D01*
X150807142Y-49373728D02*
X150830952Y-49421347D01*
X150830952Y-49421347D02*
X150830952Y-49468966D01*
X150830952Y-49468966D02*
X150807142Y-49540395D01*
X150807142Y-49540395D02*
X150521428Y-49826109D01*
X150521428Y-49826109D02*
X150830952Y-49826109D01*
X147775490Y-78513341D02*
X147799300Y-78537150D01*
X147799300Y-78537150D02*
X147823109Y-78608579D01*
X147823109Y-78608579D02*
X147823109Y-78656198D01*
X147823109Y-78656198D02*
X147799300Y-78727626D01*
X147799300Y-78727626D02*
X147751680Y-78775245D01*
X147751680Y-78775245D02*
X147704061Y-78799055D01*
X147704061Y-78799055D02*
X147608823Y-78822864D01*
X147608823Y-78822864D02*
X147537395Y-78822864D01*
X147537395Y-78822864D02*
X147442157Y-78799055D01*
X147442157Y-78799055D02*
X147394538Y-78775245D01*
X147394538Y-78775245D02*
X147346919Y-78727626D01*
X147346919Y-78727626D02*
X147323109Y-78656198D01*
X147323109Y-78656198D02*
X147323109Y-78608579D01*
X147323109Y-78608579D02*
X147346919Y-78537150D01*
X147346919Y-78537150D02*
X147370728Y-78513341D01*
X147823109Y-78037150D02*
X147823109Y-78322864D01*
X147823109Y-78180007D02*
X147323109Y-78180007D01*
X147323109Y-78180007D02*
X147394538Y-78227626D01*
X147394538Y-78227626D02*
X147442157Y-78275245D01*
X147442157Y-78275245D02*
X147465966Y-78322864D01*
X147323109Y-77608579D02*
X147323109Y-77703817D01*
X147323109Y-77703817D02*
X147346919Y-77751436D01*
X147346919Y-77751436D02*
X147370728Y-77775246D01*
X147370728Y-77775246D02*
X147442157Y-77822865D01*
X147442157Y-77822865D02*
X147537395Y-77846674D01*
X147537395Y-77846674D02*
X147727871Y-77846674D01*
X147727871Y-77846674D02*
X147775490Y-77822865D01*
X147775490Y-77822865D02*
X147799300Y-77799055D01*
X147799300Y-77799055D02*
X147823109Y-77751436D01*
X147823109Y-77751436D02*
X147823109Y-77656198D01*
X147823109Y-77656198D02*
X147799300Y-77608579D01*
X147799300Y-77608579D02*
X147775490Y-77584770D01*
X147775490Y-77584770D02*
X147727871Y-77560960D01*
X147727871Y-77560960D02*
X147608823Y-77560960D01*
X147608823Y-77560960D02*
X147561204Y-77584770D01*
X147561204Y-77584770D02*
X147537395Y-77608579D01*
X147537395Y-77608579D02*
X147513585Y-77656198D01*
X147513585Y-77656198D02*
X147513585Y-77751436D01*
X147513585Y-77751436D02*
X147537395Y-77799055D01*
X147537395Y-77799055D02*
X147561204Y-77822865D01*
X147561204Y-77822865D02*
X147608823Y-77846674D01*
X135976109Y-29333333D02*
X135738014Y-29499999D01*
X135976109Y-29619047D02*
X135476109Y-29619047D01*
X135476109Y-29619047D02*
X135476109Y-29428571D01*
X135476109Y-29428571D02*
X135499919Y-29380952D01*
X135499919Y-29380952D02*
X135523728Y-29357142D01*
X135523728Y-29357142D02*
X135571347Y-29333333D01*
X135571347Y-29333333D02*
X135642776Y-29333333D01*
X135642776Y-29333333D02*
X135690395Y-29357142D01*
X135690395Y-29357142D02*
X135714204Y-29380952D01*
X135714204Y-29380952D02*
X135738014Y-29428571D01*
X135738014Y-29428571D02*
X135738014Y-29619047D01*
X135976109Y-28857142D02*
X135976109Y-29142856D01*
X135976109Y-28999999D02*
X135476109Y-28999999D01*
X135476109Y-28999999D02*
X135547538Y-29047618D01*
X135547538Y-29047618D02*
X135595157Y-29095237D01*
X135595157Y-29095237D02*
X135618966Y-29142856D01*
X141119047Y-60976109D02*
X141119047Y-61380871D01*
X141119047Y-61380871D02*
X141142857Y-61428490D01*
X141142857Y-61428490D02*
X141166666Y-61452300D01*
X141166666Y-61452300D02*
X141214285Y-61476109D01*
X141214285Y-61476109D02*
X141309523Y-61476109D01*
X141309523Y-61476109D02*
X141357142Y-61452300D01*
X141357142Y-61452300D02*
X141380952Y-61428490D01*
X141380952Y-61428490D02*
X141404761Y-61380871D01*
X141404761Y-61380871D02*
X141404761Y-60976109D01*
X141880952Y-60976109D02*
X141642857Y-60976109D01*
X141642857Y-60976109D02*
X141619048Y-61214204D01*
X141619048Y-61214204D02*
X141642857Y-61190395D01*
X141642857Y-61190395D02*
X141690476Y-61166585D01*
X141690476Y-61166585D02*
X141809524Y-61166585D01*
X141809524Y-61166585D02*
X141857143Y-61190395D01*
X141857143Y-61190395D02*
X141880952Y-61214204D01*
X141880952Y-61214204D02*
X141904762Y-61261823D01*
X141904762Y-61261823D02*
X141904762Y-61380871D01*
X141904762Y-61380871D02*
X141880952Y-61428490D01*
X141880952Y-61428490D02*
X141857143Y-61452300D01*
X141857143Y-61452300D02*
X141809524Y-61476109D01*
X141809524Y-61476109D02*
X141690476Y-61476109D01*
X141690476Y-61476109D02*
X141642857Y-61452300D01*
X141642857Y-61452300D02*
X141619048Y-61428490D01*
X143797620Y-67226109D02*
X143797620Y-66726109D01*
X144011906Y-67202300D02*
X144083334Y-67226109D01*
X144083334Y-67226109D02*
X144202382Y-67226109D01*
X144202382Y-67226109D02*
X144250001Y-67202300D01*
X144250001Y-67202300D02*
X144273810Y-67178490D01*
X144273810Y-67178490D02*
X144297620Y-67130871D01*
X144297620Y-67130871D02*
X144297620Y-67083252D01*
X144297620Y-67083252D02*
X144273810Y-67035633D01*
X144273810Y-67035633D02*
X144250001Y-67011823D01*
X144250001Y-67011823D02*
X144202382Y-66988014D01*
X144202382Y-66988014D02*
X144107144Y-66964204D01*
X144107144Y-66964204D02*
X144059525Y-66940395D01*
X144059525Y-66940395D02*
X144035715Y-66916585D01*
X144035715Y-66916585D02*
X144011906Y-66868966D01*
X144011906Y-66868966D02*
X144011906Y-66821347D01*
X144011906Y-66821347D02*
X144035715Y-66773728D01*
X144035715Y-66773728D02*
X144059525Y-66749919D01*
X144059525Y-66749919D02*
X144107144Y-66726109D01*
X144107144Y-66726109D02*
X144226191Y-66726109D01*
X144226191Y-66726109D02*
X144297620Y-66749919D01*
X144607143Y-66726109D02*
X144702381Y-66726109D01*
X144702381Y-66726109D02*
X144750000Y-66749919D01*
X144750000Y-66749919D02*
X144797619Y-66797538D01*
X144797619Y-66797538D02*
X144821429Y-66892776D01*
X144821429Y-66892776D02*
X144821429Y-67059442D01*
X144821429Y-67059442D02*
X144797619Y-67154680D01*
X144797619Y-67154680D02*
X144750000Y-67202300D01*
X144750000Y-67202300D02*
X144702381Y-67226109D01*
X144702381Y-67226109D02*
X144607143Y-67226109D01*
X144607143Y-67226109D02*
X144559524Y-67202300D01*
X144559524Y-67202300D02*
X144511905Y-67154680D01*
X144511905Y-67154680D02*
X144488096Y-67059442D01*
X144488096Y-67059442D02*
X144488096Y-66892776D01*
X144488096Y-66892776D02*
X144511905Y-66797538D01*
X144511905Y-66797538D02*
X144559524Y-66749919D01*
X144559524Y-66749919D02*
X144607143Y-66726109D01*
X145297620Y-67226109D02*
X145011906Y-67226109D01*
X145154763Y-67226109D02*
X145154763Y-66726109D01*
X145154763Y-66726109D02*
X145107144Y-66797538D01*
X145107144Y-66797538D02*
X145059525Y-66845157D01*
X145059525Y-66845157D02*
X145011906Y-66868966D01*
X145607143Y-66726109D02*
X145654762Y-66726109D01*
X145654762Y-66726109D02*
X145702381Y-66749919D01*
X145702381Y-66749919D02*
X145726191Y-66773728D01*
X145726191Y-66773728D02*
X145750000Y-66821347D01*
X145750000Y-66821347D02*
X145773810Y-66916585D01*
X145773810Y-66916585D02*
X145773810Y-67035633D01*
X145773810Y-67035633D02*
X145750000Y-67130871D01*
X145750000Y-67130871D02*
X145726191Y-67178490D01*
X145726191Y-67178490D02*
X145702381Y-67202300D01*
X145702381Y-67202300D02*
X145654762Y-67226109D01*
X145654762Y-67226109D02*
X145607143Y-67226109D01*
X145607143Y-67226109D02*
X145559524Y-67202300D01*
X145559524Y-67202300D02*
X145535715Y-67178490D01*
X145535715Y-67178490D02*
X145511905Y-67130871D01*
X145511905Y-67130871D02*
X145488096Y-67035633D01*
X145488096Y-67035633D02*
X145488096Y-66916585D01*
X145488096Y-66916585D02*
X145511905Y-66821347D01*
X145511905Y-66821347D02*
X145535715Y-66773728D01*
X145535715Y-66773728D02*
X145559524Y-66749919D01*
X145559524Y-66749919D02*
X145607143Y-66726109D01*
X146202381Y-66892776D02*
X146202381Y-67226109D01*
X146083333Y-66702300D02*
X145964286Y-67059442D01*
X145964286Y-67059442D02*
X146273809Y-67059442D01*
X146678571Y-66892776D02*
X146678571Y-67226109D01*
X146559523Y-66702300D02*
X146440476Y-67059442D01*
X146440476Y-67059442D02*
X146749999Y-67059442D01*
X147107142Y-66964204D02*
X147178570Y-66988014D01*
X147178570Y-66988014D02*
X147202380Y-67011823D01*
X147202380Y-67011823D02*
X147226189Y-67059442D01*
X147226189Y-67059442D02*
X147226189Y-67130871D01*
X147226189Y-67130871D02*
X147202380Y-67178490D01*
X147202380Y-67178490D02*
X147178570Y-67202300D01*
X147178570Y-67202300D02*
X147130951Y-67226109D01*
X147130951Y-67226109D02*
X146940475Y-67226109D01*
X146940475Y-67226109D02*
X146940475Y-66726109D01*
X146940475Y-66726109D02*
X147107142Y-66726109D01*
X147107142Y-66726109D02*
X147154761Y-66749919D01*
X147154761Y-66749919D02*
X147178570Y-66773728D01*
X147178570Y-66773728D02*
X147202380Y-66821347D01*
X147202380Y-66821347D02*
X147202380Y-66868966D01*
X147202380Y-66868966D02*
X147178570Y-66916585D01*
X147178570Y-66916585D02*
X147154761Y-66940395D01*
X147154761Y-66940395D02*
X147107142Y-66964204D01*
X147107142Y-66964204D02*
X146940475Y-66964204D01*
X147440475Y-67226109D02*
X147440475Y-66726109D01*
X147440475Y-66726109D02*
X147559523Y-66726109D01*
X147559523Y-66726109D02*
X147630951Y-66749919D01*
X147630951Y-66749919D02*
X147678570Y-66797538D01*
X147678570Y-66797538D02*
X147702380Y-66845157D01*
X147702380Y-66845157D02*
X147726189Y-66940395D01*
X147726189Y-66940395D02*
X147726189Y-67011823D01*
X147726189Y-67011823D02*
X147702380Y-67107061D01*
X147702380Y-67107061D02*
X147678570Y-67154680D01*
X147678570Y-67154680D02*
X147630951Y-67202300D01*
X147630951Y-67202300D02*
X147559523Y-67226109D01*
X147559523Y-67226109D02*
X147440475Y-67226109D01*
X138378571Y-49878490D02*
X138354762Y-49902300D01*
X138354762Y-49902300D02*
X138283333Y-49926109D01*
X138283333Y-49926109D02*
X138235714Y-49926109D01*
X138235714Y-49926109D02*
X138164286Y-49902300D01*
X138164286Y-49902300D02*
X138116667Y-49854680D01*
X138116667Y-49854680D02*
X138092857Y-49807061D01*
X138092857Y-49807061D02*
X138069048Y-49711823D01*
X138069048Y-49711823D02*
X138069048Y-49640395D01*
X138069048Y-49640395D02*
X138092857Y-49545157D01*
X138092857Y-49545157D02*
X138116667Y-49497538D01*
X138116667Y-49497538D02*
X138164286Y-49449919D01*
X138164286Y-49449919D02*
X138235714Y-49426109D01*
X138235714Y-49426109D02*
X138283333Y-49426109D01*
X138283333Y-49426109D02*
X138354762Y-49449919D01*
X138354762Y-49449919D02*
X138378571Y-49473728D01*
X138854762Y-49926109D02*
X138569048Y-49926109D01*
X138711905Y-49926109D02*
X138711905Y-49426109D01*
X138711905Y-49426109D02*
X138664286Y-49497538D01*
X138664286Y-49497538D02*
X138616667Y-49545157D01*
X138616667Y-49545157D02*
X138569048Y-49568966D01*
X139330952Y-49926109D02*
X139045238Y-49926109D01*
X139188095Y-49926109D02*
X139188095Y-49426109D01*
X139188095Y-49426109D02*
X139140476Y-49497538D01*
X139140476Y-49497538D02*
X139092857Y-49545157D01*
X139092857Y-49545157D02*
X139045238Y-49568966D01*
X153236666Y-44036109D02*
X153070000Y-43798014D01*
X152950952Y-44036109D02*
X152950952Y-43536109D01*
X152950952Y-43536109D02*
X153141428Y-43536109D01*
X153141428Y-43536109D02*
X153189047Y-43559919D01*
X153189047Y-43559919D02*
X153212857Y-43583728D01*
X153212857Y-43583728D02*
X153236666Y-43631347D01*
X153236666Y-43631347D02*
X153236666Y-43702776D01*
X153236666Y-43702776D02*
X153212857Y-43750395D01*
X153212857Y-43750395D02*
X153189047Y-43774204D01*
X153189047Y-43774204D02*
X153141428Y-43798014D01*
X153141428Y-43798014D02*
X152950952Y-43798014D01*
X153665238Y-43536109D02*
X153570000Y-43536109D01*
X153570000Y-43536109D02*
X153522381Y-43559919D01*
X153522381Y-43559919D02*
X153498571Y-43583728D01*
X153498571Y-43583728D02*
X153450952Y-43655157D01*
X153450952Y-43655157D02*
X153427143Y-43750395D01*
X153427143Y-43750395D02*
X153427143Y-43940871D01*
X153427143Y-43940871D02*
X153450952Y-43988490D01*
X153450952Y-43988490D02*
X153474762Y-44012300D01*
X153474762Y-44012300D02*
X153522381Y-44036109D01*
X153522381Y-44036109D02*
X153617619Y-44036109D01*
X153617619Y-44036109D02*
X153665238Y-44012300D01*
X153665238Y-44012300D02*
X153689047Y-43988490D01*
X153689047Y-43988490D02*
X153712857Y-43940871D01*
X153712857Y-43940871D02*
X153712857Y-43821823D01*
X153712857Y-43821823D02*
X153689047Y-43774204D01*
X153689047Y-43774204D02*
X153665238Y-43750395D01*
X153665238Y-43750395D02*
X153617619Y-43726585D01*
X153617619Y-43726585D02*
X153522381Y-43726585D01*
X153522381Y-43726585D02*
X153474762Y-43750395D01*
X153474762Y-43750395D02*
X153450952Y-43774204D01*
X153450952Y-43774204D02*
X153427143Y-43821823D01*
X142073109Y-84560960D02*
X142477871Y-84560960D01*
X142477871Y-84560960D02*
X142525490Y-84537150D01*
X142525490Y-84537150D02*
X142549300Y-84513341D01*
X142549300Y-84513341D02*
X142573109Y-84465722D01*
X142573109Y-84465722D02*
X142573109Y-84370484D01*
X142573109Y-84370484D02*
X142549300Y-84322865D01*
X142549300Y-84322865D02*
X142525490Y-84299055D01*
X142525490Y-84299055D02*
X142477871Y-84275246D01*
X142477871Y-84275246D02*
X142073109Y-84275246D01*
X142573109Y-83775245D02*
X142573109Y-84060959D01*
X142573109Y-83918102D02*
X142073109Y-83918102D01*
X142073109Y-83918102D02*
X142144538Y-83965721D01*
X142144538Y-83965721D02*
X142192157Y-84013340D01*
X142192157Y-84013340D02*
X142215966Y-84060959D01*
X142073109Y-83465722D02*
X142073109Y-83418103D01*
X142073109Y-83418103D02*
X142096919Y-83370484D01*
X142096919Y-83370484D02*
X142120728Y-83346674D01*
X142120728Y-83346674D02*
X142168347Y-83322865D01*
X142168347Y-83322865D02*
X142263585Y-83299055D01*
X142263585Y-83299055D02*
X142382633Y-83299055D01*
X142382633Y-83299055D02*
X142477871Y-83322865D01*
X142477871Y-83322865D02*
X142525490Y-83346674D01*
X142525490Y-83346674D02*
X142549300Y-83370484D01*
X142549300Y-83370484D02*
X142573109Y-83418103D01*
X142573109Y-83418103D02*
X142573109Y-83465722D01*
X142573109Y-83465722D02*
X142549300Y-83513341D01*
X142549300Y-83513341D02*
X142525490Y-83537150D01*
X142525490Y-83537150D02*
X142477871Y-83560960D01*
X142477871Y-83560960D02*
X142382633Y-83584769D01*
X142382633Y-83584769D02*
X142263585Y-83584769D01*
X142263585Y-83584769D02*
X142168347Y-83560960D01*
X142168347Y-83560960D02*
X142120728Y-83537150D01*
X142120728Y-83537150D02*
X142096919Y-83513341D01*
X142096919Y-83513341D02*
X142073109Y-83465722D01*
X138961905Y-58238014D02*
X138961905Y-58476109D01*
X138795239Y-57976109D02*
X138961905Y-58238014D01*
X138961905Y-58238014D02*
X139128572Y-57976109D01*
X139247619Y-57976109D02*
X139557143Y-57976109D01*
X139557143Y-57976109D02*
X139390476Y-58166585D01*
X139390476Y-58166585D02*
X139461905Y-58166585D01*
X139461905Y-58166585D02*
X139509524Y-58190395D01*
X139509524Y-58190395D02*
X139533333Y-58214204D01*
X139533333Y-58214204D02*
X139557143Y-58261823D01*
X139557143Y-58261823D02*
X139557143Y-58380871D01*
X139557143Y-58380871D02*
X139533333Y-58428490D01*
X139533333Y-58428490D02*
X139509524Y-58452300D01*
X139509524Y-58452300D02*
X139461905Y-58476109D01*
X139461905Y-58476109D02*
X139319048Y-58476109D01*
X139319048Y-58476109D02*
X139271429Y-58452300D01*
X139271429Y-58452300D02*
X139247619Y-58428490D01*
X149439047Y-48221109D02*
X149439047Y-48625871D01*
X149439047Y-48625871D02*
X149462857Y-48673490D01*
X149462857Y-48673490D02*
X149486666Y-48697300D01*
X149486666Y-48697300D02*
X149534285Y-48721109D01*
X149534285Y-48721109D02*
X149629523Y-48721109D01*
X149629523Y-48721109D02*
X149677142Y-48697300D01*
X149677142Y-48697300D02*
X149700952Y-48673490D01*
X149700952Y-48673490D02*
X149724761Y-48625871D01*
X149724761Y-48625871D02*
X149724761Y-48221109D01*
X149986667Y-48721109D02*
X150081905Y-48721109D01*
X150081905Y-48721109D02*
X150129524Y-48697300D01*
X150129524Y-48697300D02*
X150153333Y-48673490D01*
X150153333Y-48673490D02*
X150200952Y-48602061D01*
X150200952Y-48602061D02*
X150224762Y-48506823D01*
X150224762Y-48506823D02*
X150224762Y-48316347D01*
X150224762Y-48316347D02*
X150200952Y-48268728D01*
X150200952Y-48268728D02*
X150177143Y-48244919D01*
X150177143Y-48244919D02*
X150129524Y-48221109D01*
X150129524Y-48221109D02*
X150034286Y-48221109D01*
X150034286Y-48221109D02*
X149986667Y-48244919D01*
X149986667Y-48244919D02*
X149962857Y-48268728D01*
X149962857Y-48268728D02*
X149939048Y-48316347D01*
X149939048Y-48316347D02*
X149939048Y-48435395D01*
X149939048Y-48435395D02*
X149962857Y-48483014D01*
X149962857Y-48483014D02*
X149986667Y-48506823D01*
X149986667Y-48506823D02*
X150034286Y-48530633D01*
X150034286Y-48530633D02*
X150129524Y-48530633D01*
X150129524Y-48530633D02*
X150177143Y-48506823D01*
X150177143Y-48506823D02*
X150200952Y-48483014D01*
X150200952Y-48483014D02*
X150224762Y-48435395D01*
X138748490Y-42351428D02*
X138772300Y-42375237D01*
X138772300Y-42375237D02*
X138796109Y-42446666D01*
X138796109Y-42446666D02*
X138796109Y-42494285D01*
X138796109Y-42494285D02*
X138772300Y-42565713D01*
X138772300Y-42565713D02*
X138724680Y-42613332D01*
X138724680Y-42613332D02*
X138677061Y-42637142D01*
X138677061Y-42637142D02*
X138581823Y-42660951D01*
X138581823Y-42660951D02*
X138510395Y-42660951D01*
X138510395Y-42660951D02*
X138415157Y-42637142D01*
X138415157Y-42637142D02*
X138367538Y-42613332D01*
X138367538Y-42613332D02*
X138319919Y-42565713D01*
X138319919Y-42565713D02*
X138296109Y-42494285D01*
X138296109Y-42494285D02*
X138296109Y-42446666D01*
X138296109Y-42446666D02*
X138319919Y-42375237D01*
X138319919Y-42375237D02*
X138343728Y-42351428D01*
X138796109Y-41875237D02*
X138796109Y-42160951D01*
X138796109Y-42018094D02*
X138296109Y-42018094D01*
X138296109Y-42018094D02*
X138367538Y-42065713D01*
X138367538Y-42065713D02*
X138415157Y-42113332D01*
X138415157Y-42113332D02*
X138438966Y-42160951D01*
X138462776Y-41446666D02*
X138796109Y-41446666D01*
X138272300Y-41565714D02*
X138629442Y-41684761D01*
X138629442Y-41684761D02*
X138629442Y-41375238D01*
X144511905Y-38488014D02*
X144511905Y-38726109D01*
X144345239Y-38226109D02*
X144511905Y-38488014D01*
X144511905Y-38488014D02*
X144678572Y-38226109D01*
X145059524Y-38392776D02*
X145059524Y-38726109D01*
X144940476Y-38202300D02*
X144821429Y-38559442D01*
X144821429Y-38559442D02*
X145130952Y-38559442D01*
X150416666Y-62476109D02*
X150250000Y-62238014D01*
X150130952Y-62476109D02*
X150130952Y-61976109D01*
X150130952Y-61976109D02*
X150321428Y-61976109D01*
X150321428Y-61976109D02*
X150369047Y-61999919D01*
X150369047Y-61999919D02*
X150392857Y-62023728D01*
X150392857Y-62023728D02*
X150416666Y-62071347D01*
X150416666Y-62071347D02*
X150416666Y-62142776D01*
X150416666Y-62142776D02*
X150392857Y-62190395D01*
X150392857Y-62190395D02*
X150369047Y-62214204D01*
X150369047Y-62214204D02*
X150321428Y-62238014D01*
X150321428Y-62238014D02*
X150130952Y-62238014D01*
X150845238Y-62142776D02*
X150845238Y-62476109D01*
X150726190Y-61952300D02*
X150607143Y-62309442D01*
X150607143Y-62309442D02*
X150916666Y-62309442D01*
X133178571Y-37428490D02*
X133154762Y-37452300D01*
X133154762Y-37452300D02*
X133083333Y-37476109D01*
X133083333Y-37476109D02*
X133035714Y-37476109D01*
X133035714Y-37476109D02*
X132964286Y-37452300D01*
X132964286Y-37452300D02*
X132916667Y-37404680D01*
X132916667Y-37404680D02*
X132892857Y-37357061D01*
X132892857Y-37357061D02*
X132869048Y-37261823D01*
X132869048Y-37261823D02*
X132869048Y-37190395D01*
X132869048Y-37190395D02*
X132892857Y-37095157D01*
X132892857Y-37095157D02*
X132916667Y-37047538D01*
X132916667Y-37047538D02*
X132964286Y-36999919D01*
X132964286Y-36999919D02*
X133035714Y-36976109D01*
X133035714Y-36976109D02*
X133083333Y-36976109D01*
X133083333Y-36976109D02*
X133154762Y-36999919D01*
X133154762Y-36999919D02*
X133178571Y-37023728D01*
X133369048Y-37023728D02*
X133392857Y-36999919D01*
X133392857Y-36999919D02*
X133440476Y-36976109D01*
X133440476Y-36976109D02*
X133559524Y-36976109D01*
X133559524Y-36976109D02*
X133607143Y-36999919D01*
X133607143Y-36999919D02*
X133630952Y-37023728D01*
X133630952Y-37023728D02*
X133654762Y-37071347D01*
X133654762Y-37071347D02*
X133654762Y-37118966D01*
X133654762Y-37118966D02*
X133630952Y-37190395D01*
X133630952Y-37190395D02*
X133345238Y-37476109D01*
X133345238Y-37476109D02*
X133654762Y-37476109D01*
X133821428Y-36976109D02*
X134130952Y-36976109D01*
X134130952Y-36976109D02*
X133964285Y-37166585D01*
X133964285Y-37166585D02*
X134035714Y-37166585D01*
X134035714Y-37166585D02*
X134083333Y-37190395D01*
X134083333Y-37190395D02*
X134107142Y-37214204D01*
X134107142Y-37214204D02*
X134130952Y-37261823D01*
X134130952Y-37261823D02*
X134130952Y-37380871D01*
X134130952Y-37380871D02*
X134107142Y-37428490D01*
X134107142Y-37428490D02*
X134083333Y-37452300D01*
X134083333Y-37452300D02*
X134035714Y-37476109D01*
X134035714Y-37476109D02*
X133892857Y-37476109D01*
X133892857Y-37476109D02*
X133845238Y-37452300D01*
X133845238Y-37452300D02*
X133821428Y-37428490D01*
X134476109Y-32833333D02*
X134238014Y-32999999D01*
X134476109Y-33119047D02*
X133976109Y-33119047D01*
X133976109Y-33119047D02*
X133976109Y-32928571D01*
X133976109Y-32928571D02*
X133999919Y-32880952D01*
X133999919Y-32880952D02*
X134023728Y-32857142D01*
X134023728Y-32857142D02*
X134071347Y-32833333D01*
X134071347Y-32833333D02*
X134142776Y-32833333D01*
X134142776Y-32833333D02*
X134190395Y-32857142D01*
X134190395Y-32857142D02*
X134214204Y-32880952D01*
X134214204Y-32880952D02*
X134238014Y-32928571D01*
X134238014Y-32928571D02*
X134238014Y-33119047D01*
X134023728Y-32642856D02*
X133999919Y-32619047D01*
X133999919Y-32619047D02*
X133976109Y-32571428D01*
X133976109Y-32571428D02*
X133976109Y-32452380D01*
X133976109Y-32452380D02*
X133999919Y-32404761D01*
X133999919Y-32404761D02*
X134023728Y-32380952D01*
X134023728Y-32380952D02*
X134071347Y-32357142D01*
X134071347Y-32357142D02*
X134118966Y-32357142D01*
X134118966Y-32357142D02*
X134190395Y-32380952D01*
X134190395Y-32380952D02*
X134476109Y-32666666D01*
X134476109Y-32666666D02*
X134476109Y-32357142D01*
X146353571Y-49778490D02*
X146329762Y-49802300D01*
X146329762Y-49802300D02*
X146258333Y-49826109D01*
X146258333Y-49826109D02*
X146210714Y-49826109D01*
X146210714Y-49826109D02*
X146139286Y-49802300D01*
X146139286Y-49802300D02*
X146091667Y-49754680D01*
X146091667Y-49754680D02*
X146067857Y-49707061D01*
X146067857Y-49707061D02*
X146044048Y-49611823D01*
X146044048Y-49611823D02*
X146044048Y-49540395D01*
X146044048Y-49540395D02*
X146067857Y-49445157D01*
X146067857Y-49445157D02*
X146091667Y-49397538D01*
X146091667Y-49397538D02*
X146139286Y-49349919D01*
X146139286Y-49349919D02*
X146210714Y-49326109D01*
X146210714Y-49326109D02*
X146258333Y-49326109D01*
X146258333Y-49326109D02*
X146329762Y-49349919D01*
X146329762Y-49349919D02*
X146353571Y-49373728D01*
X146829762Y-49826109D02*
X146544048Y-49826109D01*
X146686905Y-49826109D02*
X146686905Y-49326109D01*
X146686905Y-49326109D02*
X146639286Y-49397538D01*
X146639286Y-49397538D02*
X146591667Y-49445157D01*
X146591667Y-49445157D02*
X146544048Y-49468966D01*
X147139285Y-49326109D02*
X147186904Y-49326109D01*
X147186904Y-49326109D02*
X147234523Y-49349919D01*
X147234523Y-49349919D02*
X147258333Y-49373728D01*
X147258333Y-49373728D02*
X147282142Y-49421347D01*
X147282142Y-49421347D02*
X147305952Y-49516585D01*
X147305952Y-49516585D02*
X147305952Y-49635633D01*
X147305952Y-49635633D02*
X147282142Y-49730871D01*
X147282142Y-49730871D02*
X147258333Y-49778490D01*
X147258333Y-49778490D02*
X147234523Y-49802300D01*
X147234523Y-49802300D02*
X147186904Y-49826109D01*
X147186904Y-49826109D02*
X147139285Y-49826109D01*
X147139285Y-49826109D02*
X147091666Y-49802300D01*
X147091666Y-49802300D02*
X147067857Y-49778490D01*
X147067857Y-49778490D02*
X147044047Y-49730871D01*
X147044047Y-49730871D02*
X147020238Y-49635633D01*
X147020238Y-49635633D02*
X147020238Y-49516585D01*
X147020238Y-49516585D02*
X147044047Y-49421347D01*
X147044047Y-49421347D02*
X147067857Y-49373728D01*
X147067857Y-49373728D02*
X147091666Y-49349919D01*
X147091666Y-49349919D02*
X147139285Y-49326109D01*
X134916666Y-36428490D02*
X134892857Y-36452300D01*
X134892857Y-36452300D02*
X134821428Y-36476109D01*
X134821428Y-36476109D02*
X134773809Y-36476109D01*
X134773809Y-36476109D02*
X134702381Y-36452300D01*
X134702381Y-36452300D02*
X134654762Y-36404680D01*
X134654762Y-36404680D02*
X134630952Y-36357061D01*
X134630952Y-36357061D02*
X134607143Y-36261823D01*
X134607143Y-36261823D02*
X134607143Y-36190395D01*
X134607143Y-36190395D02*
X134630952Y-36095157D01*
X134630952Y-36095157D02*
X134654762Y-36047538D01*
X134654762Y-36047538D02*
X134702381Y-35999919D01*
X134702381Y-35999919D02*
X134773809Y-35976109D01*
X134773809Y-35976109D02*
X134821428Y-35976109D01*
X134821428Y-35976109D02*
X134892857Y-35999919D01*
X134892857Y-35999919D02*
X134916666Y-36023728D01*
X135392857Y-36476109D02*
X135107143Y-36476109D01*
X135250000Y-36476109D02*
X135250000Y-35976109D01*
X135250000Y-35976109D02*
X135202381Y-36047538D01*
X135202381Y-36047538D02*
X135154762Y-36095157D01*
X135154762Y-36095157D02*
X135107143Y-36118966D01*
X160216666Y-51278490D02*
X160192857Y-51302300D01*
X160192857Y-51302300D02*
X160121428Y-51326109D01*
X160121428Y-51326109D02*
X160073809Y-51326109D01*
X160073809Y-51326109D02*
X160002381Y-51302300D01*
X160002381Y-51302300D02*
X159954762Y-51254680D01*
X159954762Y-51254680D02*
X159930952Y-51207061D01*
X159930952Y-51207061D02*
X159907143Y-51111823D01*
X159907143Y-51111823D02*
X159907143Y-51040395D01*
X159907143Y-51040395D02*
X159930952Y-50945157D01*
X159930952Y-50945157D02*
X159954762Y-50897538D01*
X159954762Y-50897538D02*
X160002381Y-50849919D01*
X160002381Y-50849919D02*
X160073809Y-50826109D01*
X160073809Y-50826109D02*
X160121428Y-50826109D01*
X160121428Y-50826109D02*
X160192857Y-50849919D01*
X160192857Y-50849919D02*
X160216666Y-50873728D01*
X160383333Y-50826109D02*
X160692857Y-50826109D01*
X160692857Y-50826109D02*
X160526190Y-51016585D01*
X160526190Y-51016585D02*
X160597619Y-51016585D01*
X160597619Y-51016585D02*
X160645238Y-51040395D01*
X160645238Y-51040395D02*
X160669047Y-51064204D01*
X160669047Y-51064204D02*
X160692857Y-51111823D01*
X160692857Y-51111823D02*
X160692857Y-51230871D01*
X160692857Y-51230871D02*
X160669047Y-51278490D01*
X160669047Y-51278490D02*
X160645238Y-51302300D01*
X160645238Y-51302300D02*
X160597619Y-51326109D01*
X160597619Y-51326109D02*
X160454762Y-51326109D01*
X160454762Y-51326109D02*
X160407143Y-51302300D01*
X160407143Y-51302300D02*
X160383333Y-51278490D01*
X135869047Y-61742359D02*
X135869047Y-62147121D01*
X135869047Y-62147121D02*
X135892857Y-62194740D01*
X135892857Y-62194740D02*
X135916666Y-62218550D01*
X135916666Y-62218550D02*
X135964285Y-62242359D01*
X135964285Y-62242359D02*
X136059523Y-62242359D01*
X136059523Y-62242359D02*
X136107142Y-62218550D01*
X136107142Y-62218550D02*
X136130952Y-62194740D01*
X136130952Y-62194740D02*
X136154761Y-62147121D01*
X136154761Y-62147121D02*
X136154761Y-61742359D01*
X136607143Y-61909026D02*
X136607143Y-62242359D01*
X136488095Y-61718550D02*
X136369048Y-62075692D01*
X136369048Y-62075692D02*
X136678571Y-62075692D01*
X135392857Y-67126109D02*
X135392857Y-66626109D01*
X135392857Y-66626109D02*
X135559524Y-66983252D01*
X135559524Y-66983252D02*
X135726190Y-66626109D01*
X135726190Y-66626109D02*
X135726190Y-67126109D01*
X136250000Y-67078490D02*
X136226191Y-67102300D01*
X136226191Y-67102300D02*
X136154762Y-67126109D01*
X136154762Y-67126109D02*
X136107143Y-67126109D01*
X136107143Y-67126109D02*
X136035715Y-67102300D01*
X136035715Y-67102300D02*
X135988096Y-67054680D01*
X135988096Y-67054680D02*
X135964286Y-67007061D01*
X135964286Y-67007061D02*
X135940477Y-66911823D01*
X135940477Y-66911823D02*
X135940477Y-66840395D01*
X135940477Y-66840395D02*
X135964286Y-66745157D01*
X135964286Y-66745157D02*
X135988096Y-66697538D01*
X135988096Y-66697538D02*
X136035715Y-66649919D01*
X136035715Y-66649919D02*
X136107143Y-66626109D01*
X136107143Y-66626109D02*
X136154762Y-66626109D01*
X136154762Y-66626109D02*
X136226191Y-66649919D01*
X136226191Y-66649919D02*
X136250000Y-66673728D01*
X136464286Y-67126109D02*
X136464286Y-66626109D01*
X136464286Y-66626109D02*
X136654762Y-66626109D01*
X136654762Y-66626109D02*
X136702381Y-66649919D01*
X136702381Y-66649919D02*
X136726191Y-66673728D01*
X136726191Y-66673728D02*
X136750000Y-66721347D01*
X136750000Y-66721347D02*
X136750000Y-66792776D01*
X136750000Y-66792776D02*
X136726191Y-66840395D01*
X136726191Y-66840395D02*
X136702381Y-66864204D01*
X136702381Y-66864204D02*
X136654762Y-66888014D01*
X136654762Y-66888014D02*
X136464286Y-66888014D01*
X136940477Y-66673728D02*
X136964286Y-66649919D01*
X136964286Y-66649919D02*
X137011905Y-66626109D01*
X137011905Y-66626109D02*
X137130953Y-66626109D01*
X137130953Y-66626109D02*
X137178572Y-66649919D01*
X137178572Y-66649919D02*
X137202381Y-66673728D01*
X137202381Y-66673728D02*
X137226191Y-66721347D01*
X137226191Y-66721347D02*
X137226191Y-66768966D01*
X137226191Y-66768966D02*
X137202381Y-66840395D01*
X137202381Y-66840395D02*
X136916667Y-67126109D01*
X136916667Y-67126109D02*
X137226191Y-67126109D01*
X137678571Y-66626109D02*
X137440476Y-66626109D01*
X137440476Y-66626109D02*
X137416667Y-66864204D01*
X137416667Y-66864204D02*
X137440476Y-66840395D01*
X137440476Y-66840395D02*
X137488095Y-66816585D01*
X137488095Y-66816585D02*
X137607143Y-66816585D01*
X137607143Y-66816585D02*
X137654762Y-66840395D01*
X137654762Y-66840395D02*
X137678571Y-66864204D01*
X137678571Y-66864204D02*
X137702381Y-66911823D01*
X137702381Y-66911823D02*
X137702381Y-67030871D01*
X137702381Y-67030871D02*
X137678571Y-67078490D01*
X137678571Y-67078490D02*
X137654762Y-67102300D01*
X137654762Y-67102300D02*
X137607143Y-67126109D01*
X137607143Y-67126109D02*
X137488095Y-67126109D01*
X137488095Y-67126109D02*
X137440476Y-67102300D01*
X137440476Y-67102300D02*
X137416667Y-67078490D01*
X138178571Y-67126109D02*
X137892857Y-67126109D01*
X138035714Y-67126109D02*
X138035714Y-66626109D01*
X138035714Y-66626109D02*
X137988095Y-66697538D01*
X137988095Y-66697538D02*
X137940476Y-66745157D01*
X137940476Y-66745157D02*
X137892857Y-66768966D01*
X138464285Y-66840395D02*
X138416666Y-66816585D01*
X138416666Y-66816585D02*
X138392856Y-66792776D01*
X138392856Y-66792776D02*
X138369047Y-66745157D01*
X138369047Y-66745157D02*
X138369047Y-66721347D01*
X138369047Y-66721347D02*
X138392856Y-66673728D01*
X138392856Y-66673728D02*
X138416666Y-66649919D01*
X138416666Y-66649919D02*
X138464285Y-66626109D01*
X138464285Y-66626109D02*
X138559523Y-66626109D01*
X138559523Y-66626109D02*
X138607142Y-66649919D01*
X138607142Y-66649919D02*
X138630951Y-66673728D01*
X138630951Y-66673728D02*
X138654761Y-66721347D01*
X138654761Y-66721347D02*
X138654761Y-66745157D01*
X138654761Y-66745157D02*
X138630951Y-66792776D01*
X138630951Y-66792776D02*
X138607142Y-66816585D01*
X138607142Y-66816585D02*
X138559523Y-66840395D01*
X138559523Y-66840395D02*
X138464285Y-66840395D01*
X138464285Y-66840395D02*
X138416666Y-66864204D01*
X138416666Y-66864204D02*
X138392856Y-66888014D01*
X138392856Y-66888014D02*
X138369047Y-66935633D01*
X138369047Y-66935633D02*
X138369047Y-67030871D01*
X138369047Y-67030871D02*
X138392856Y-67078490D01*
X138392856Y-67078490D02*
X138416666Y-67102300D01*
X138416666Y-67102300D02*
X138464285Y-67126109D01*
X138464285Y-67126109D02*
X138559523Y-67126109D01*
X138559523Y-67126109D02*
X138607142Y-67102300D01*
X138607142Y-67102300D02*
X138630951Y-67078490D01*
X138630951Y-67078490D02*
X138654761Y-67030871D01*
X138654761Y-67030871D02*
X138654761Y-66935633D01*
X138654761Y-66935633D02*
X138630951Y-66888014D01*
X138630951Y-66888014D02*
X138607142Y-66864204D01*
X138607142Y-66864204D02*
X138559523Y-66840395D01*
X139035713Y-66864204D02*
X138869046Y-66864204D01*
X138869046Y-67126109D02*
X138869046Y-66626109D01*
X138869046Y-66626109D02*
X139107141Y-66626109D01*
X139297617Y-67126109D02*
X139297617Y-66626109D01*
X139297617Y-66626109D02*
X139416665Y-66626109D01*
X139416665Y-66626109D02*
X139488093Y-66649919D01*
X139488093Y-66649919D02*
X139535712Y-66697538D01*
X139535712Y-66697538D02*
X139559522Y-66745157D01*
X139559522Y-66745157D02*
X139583331Y-66840395D01*
X139583331Y-66840395D02*
X139583331Y-66911823D01*
X139583331Y-66911823D02*
X139559522Y-67007061D01*
X139559522Y-67007061D02*
X139535712Y-67054680D01*
X139535712Y-67054680D02*
X139488093Y-67102300D01*
X139488093Y-67102300D02*
X139416665Y-67126109D01*
X139416665Y-67126109D02*
X139297617Y-67126109D01*
X139797617Y-66935633D02*
X140178570Y-66935633D01*
X140369046Y-67126109D02*
X140630951Y-66792776D01*
X140369046Y-66792776D02*
X140630951Y-67126109D01*
X141154760Y-67173728D02*
X141107141Y-67149919D01*
X141107141Y-67149919D02*
X141059522Y-67102300D01*
X141059522Y-67102300D02*
X140988094Y-67030871D01*
X140988094Y-67030871D02*
X140940475Y-67007061D01*
X140940475Y-67007061D02*
X140892856Y-67007061D01*
X140916665Y-67126109D02*
X140869046Y-67102300D01*
X140869046Y-67102300D02*
X140821427Y-67054680D01*
X140821427Y-67054680D02*
X140797618Y-66959442D01*
X140797618Y-66959442D02*
X140797618Y-66792776D01*
X140797618Y-66792776D02*
X140821427Y-66697538D01*
X140821427Y-66697538D02*
X140869046Y-66649919D01*
X140869046Y-66649919D02*
X140916665Y-66626109D01*
X140916665Y-66626109D02*
X141011903Y-66626109D01*
X141011903Y-66626109D02*
X141059522Y-66649919D01*
X141059522Y-66649919D02*
X141107141Y-66697538D01*
X141107141Y-66697538D02*
X141130951Y-66792776D01*
X141130951Y-66792776D02*
X141130951Y-66959442D01*
X141130951Y-66959442D02*
X141107141Y-67054680D01*
X141107141Y-67054680D02*
X141059522Y-67102300D01*
X141059522Y-67102300D02*
X141011903Y-67126109D01*
X141011903Y-67126109D02*
X140916665Y-67126109D01*
X141511904Y-66864204D02*
X141583332Y-66888014D01*
X141583332Y-66888014D02*
X141607142Y-66911823D01*
X141607142Y-66911823D02*
X141630951Y-66959442D01*
X141630951Y-66959442D02*
X141630951Y-67030871D01*
X141630951Y-67030871D02*
X141607142Y-67078490D01*
X141607142Y-67078490D02*
X141583332Y-67102300D01*
X141583332Y-67102300D02*
X141535713Y-67126109D01*
X141535713Y-67126109D02*
X141345237Y-67126109D01*
X141345237Y-67126109D02*
X141345237Y-66626109D01*
X141345237Y-66626109D02*
X141511904Y-66626109D01*
X141511904Y-66626109D02*
X141559523Y-66649919D01*
X141559523Y-66649919D02*
X141583332Y-66673728D01*
X141583332Y-66673728D02*
X141607142Y-66721347D01*
X141607142Y-66721347D02*
X141607142Y-66768966D01*
X141607142Y-66768966D02*
X141583332Y-66816585D01*
X141583332Y-66816585D02*
X141559523Y-66840395D01*
X141559523Y-66840395D02*
X141511904Y-66864204D01*
X141511904Y-66864204D02*
X141345237Y-66864204D01*
X142011904Y-66864204D02*
X142083332Y-66888014D01*
X142083332Y-66888014D02*
X142107142Y-66911823D01*
X142107142Y-66911823D02*
X142130951Y-66959442D01*
X142130951Y-66959442D02*
X142130951Y-67030871D01*
X142130951Y-67030871D02*
X142107142Y-67078490D01*
X142107142Y-67078490D02*
X142083332Y-67102300D01*
X142083332Y-67102300D02*
X142035713Y-67126109D01*
X142035713Y-67126109D02*
X141845237Y-67126109D01*
X141845237Y-67126109D02*
X141845237Y-66626109D01*
X141845237Y-66626109D02*
X142011904Y-66626109D01*
X142011904Y-66626109D02*
X142059523Y-66649919D01*
X142059523Y-66649919D02*
X142083332Y-66673728D01*
X142083332Y-66673728D02*
X142107142Y-66721347D01*
X142107142Y-66721347D02*
X142107142Y-66768966D01*
X142107142Y-66768966D02*
X142083332Y-66816585D01*
X142083332Y-66816585D02*
X142059523Y-66840395D01*
X142059523Y-66840395D02*
X142011904Y-66864204D01*
X142011904Y-66864204D02*
X141845237Y-66864204D01*
X147931547Y-57592359D02*
X147931547Y-57997121D01*
X147931547Y-57997121D02*
X147955357Y-58044740D01*
X147955357Y-58044740D02*
X147979166Y-58068550D01*
X147979166Y-58068550D02*
X148026785Y-58092359D01*
X148026785Y-58092359D02*
X148122023Y-58092359D01*
X148122023Y-58092359D02*
X148169642Y-58068550D01*
X148169642Y-58068550D02*
X148193452Y-58044740D01*
X148193452Y-58044740D02*
X148217261Y-57997121D01*
X148217261Y-57997121D02*
X148217261Y-57592359D01*
X148407738Y-57592359D02*
X148741071Y-57592359D01*
X148741071Y-57592359D02*
X148526786Y-58092359D01*
X157226109Y-65166666D02*
X157583252Y-65166666D01*
X157583252Y-65166666D02*
X157654680Y-65190475D01*
X157654680Y-65190475D02*
X157702300Y-65238094D01*
X157702300Y-65238094D02*
X157726109Y-65309523D01*
X157726109Y-65309523D02*
X157726109Y-65357142D01*
X157726109Y-64928571D02*
X157226109Y-64928571D01*
X157226109Y-64928571D02*
X157226109Y-64738095D01*
X157226109Y-64738095D02*
X157249919Y-64690476D01*
X157249919Y-64690476D02*
X157273728Y-64666666D01*
X157273728Y-64666666D02*
X157321347Y-64642857D01*
X157321347Y-64642857D02*
X157392776Y-64642857D01*
X157392776Y-64642857D02*
X157440395Y-64666666D01*
X157440395Y-64666666D02*
X157464204Y-64690476D01*
X157464204Y-64690476D02*
X157488014Y-64738095D01*
X157488014Y-64738095D02*
X157488014Y-64928571D01*
X157726109Y-64166666D02*
X157726109Y-64452380D01*
X157726109Y-64309523D02*
X157226109Y-64309523D01*
X157226109Y-64309523D02*
X157297538Y-64357142D01*
X157297538Y-64357142D02*
X157345157Y-64404761D01*
X157345157Y-64404761D02*
X157368966Y-64452380D01*
X137531547Y-52257359D02*
X137531547Y-52662121D01*
X137531547Y-52662121D02*
X137555357Y-52709740D01*
X137555357Y-52709740D02*
X137579166Y-52733550D01*
X137579166Y-52733550D02*
X137626785Y-52757359D01*
X137626785Y-52757359D02*
X137722023Y-52757359D01*
X137722023Y-52757359D02*
X137769642Y-52733550D01*
X137769642Y-52733550D02*
X137793452Y-52709740D01*
X137793452Y-52709740D02*
X137817261Y-52662121D01*
X137817261Y-52662121D02*
X137817261Y-52257359D01*
X138269643Y-52257359D02*
X138174405Y-52257359D01*
X138174405Y-52257359D02*
X138126786Y-52281169D01*
X138126786Y-52281169D02*
X138102976Y-52304978D01*
X138102976Y-52304978D02*
X138055357Y-52376407D01*
X138055357Y-52376407D02*
X138031548Y-52471645D01*
X138031548Y-52471645D02*
X138031548Y-52662121D01*
X138031548Y-52662121D02*
X138055357Y-52709740D01*
X138055357Y-52709740D02*
X138079167Y-52733550D01*
X138079167Y-52733550D02*
X138126786Y-52757359D01*
X138126786Y-52757359D02*
X138222024Y-52757359D01*
X138222024Y-52757359D02*
X138269643Y-52733550D01*
X138269643Y-52733550D02*
X138293452Y-52709740D01*
X138293452Y-52709740D02*
X138317262Y-52662121D01*
X138317262Y-52662121D02*
X138317262Y-52543073D01*
X138317262Y-52543073D02*
X138293452Y-52495454D01*
X138293452Y-52495454D02*
X138269643Y-52471645D01*
X138269643Y-52471645D02*
X138222024Y-52447835D01*
X138222024Y-52447835D02*
X138126786Y-52447835D01*
X138126786Y-52447835D02*
X138079167Y-52471645D01*
X138079167Y-52471645D02*
X138055357Y-52495454D01*
X138055357Y-52495454D02*
X138031548Y-52543073D01*
X145016666Y-58878490D02*
X144992857Y-58902300D01*
X144992857Y-58902300D02*
X144921428Y-58926109D01*
X144921428Y-58926109D02*
X144873809Y-58926109D01*
X144873809Y-58926109D02*
X144802381Y-58902300D01*
X144802381Y-58902300D02*
X144754762Y-58854680D01*
X144754762Y-58854680D02*
X144730952Y-58807061D01*
X144730952Y-58807061D02*
X144707143Y-58711823D01*
X144707143Y-58711823D02*
X144707143Y-58640395D01*
X144707143Y-58640395D02*
X144730952Y-58545157D01*
X144730952Y-58545157D02*
X144754762Y-58497538D01*
X144754762Y-58497538D02*
X144802381Y-58449919D01*
X144802381Y-58449919D02*
X144873809Y-58426109D01*
X144873809Y-58426109D02*
X144921428Y-58426109D01*
X144921428Y-58426109D02*
X144992857Y-58449919D01*
X144992857Y-58449919D02*
X145016666Y-58473728D01*
X145183333Y-58426109D02*
X145516666Y-58426109D01*
X145516666Y-58426109D02*
X145302381Y-58926109D01*
X148366666Y-58794740D02*
X148342857Y-58818550D01*
X148342857Y-58818550D02*
X148271428Y-58842359D01*
X148271428Y-58842359D02*
X148223809Y-58842359D01*
X148223809Y-58842359D02*
X148152381Y-58818550D01*
X148152381Y-58818550D02*
X148104762Y-58770930D01*
X148104762Y-58770930D02*
X148080952Y-58723311D01*
X148080952Y-58723311D02*
X148057143Y-58628073D01*
X148057143Y-58628073D02*
X148057143Y-58556645D01*
X148057143Y-58556645D02*
X148080952Y-58461407D01*
X148080952Y-58461407D02*
X148104762Y-58413788D01*
X148104762Y-58413788D02*
X148152381Y-58366169D01*
X148152381Y-58366169D02*
X148223809Y-58342359D01*
X148223809Y-58342359D02*
X148271428Y-58342359D01*
X148271428Y-58342359D02*
X148342857Y-58366169D01*
X148342857Y-58366169D02*
X148366666Y-58389978D01*
X148604762Y-58842359D02*
X148700000Y-58842359D01*
X148700000Y-58842359D02*
X148747619Y-58818550D01*
X148747619Y-58818550D02*
X148771428Y-58794740D01*
X148771428Y-58794740D02*
X148819047Y-58723311D01*
X148819047Y-58723311D02*
X148842857Y-58628073D01*
X148842857Y-58628073D02*
X148842857Y-58437597D01*
X148842857Y-58437597D02*
X148819047Y-58389978D01*
X148819047Y-58389978D02*
X148795238Y-58366169D01*
X148795238Y-58366169D02*
X148747619Y-58342359D01*
X148747619Y-58342359D02*
X148652381Y-58342359D01*
X148652381Y-58342359D02*
X148604762Y-58366169D01*
X148604762Y-58366169D02*
X148580952Y-58389978D01*
X148580952Y-58389978D02*
X148557143Y-58437597D01*
X148557143Y-58437597D02*
X148557143Y-58556645D01*
X148557143Y-58556645D02*
X148580952Y-58604264D01*
X148580952Y-58604264D02*
X148604762Y-58628073D01*
X148604762Y-58628073D02*
X148652381Y-58651883D01*
X148652381Y-58651883D02*
X148747619Y-58651883D01*
X148747619Y-58651883D02*
X148795238Y-58628073D01*
X148795238Y-58628073D02*
X148819047Y-58604264D01*
X148819047Y-58604264D02*
X148842857Y-58556645D01*
X163319047Y-58026109D02*
X163319047Y-58430871D01*
X163319047Y-58430871D02*
X163342857Y-58478490D01*
X163342857Y-58478490D02*
X163366666Y-58502300D01*
X163366666Y-58502300D02*
X163414285Y-58526109D01*
X163414285Y-58526109D02*
X163509523Y-58526109D01*
X163509523Y-58526109D02*
X163557142Y-58502300D01*
X163557142Y-58502300D02*
X163580952Y-58478490D01*
X163580952Y-58478490D02*
X163604761Y-58430871D01*
X163604761Y-58430871D02*
X163604761Y-58026109D01*
X163819048Y-58073728D02*
X163842857Y-58049919D01*
X163842857Y-58049919D02*
X163890476Y-58026109D01*
X163890476Y-58026109D02*
X164009524Y-58026109D01*
X164009524Y-58026109D02*
X164057143Y-58049919D01*
X164057143Y-58049919D02*
X164080952Y-58073728D01*
X164080952Y-58073728D02*
X164104762Y-58121347D01*
X164104762Y-58121347D02*
X164104762Y-58168966D01*
X164104762Y-58168966D02*
X164080952Y-58240395D01*
X164080952Y-58240395D02*
X163795238Y-58526109D01*
X163795238Y-58526109D02*
X164104762Y-58526109D01*
X146261905Y-33488014D02*
X146261905Y-33726109D01*
X146095239Y-33226109D02*
X146261905Y-33488014D01*
X146261905Y-33488014D02*
X146428572Y-33226109D01*
X146857143Y-33726109D02*
X146571429Y-33726109D01*
X146714286Y-33726109D02*
X146714286Y-33226109D01*
X146714286Y-33226109D02*
X146666667Y-33297538D01*
X146666667Y-33297538D02*
X146619048Y-33345157D01*
X146619048Y-33345157D02*
X146571429Y-33368966D01*
X161666666Y-62978490D02*
X161642857Y-63002300D01*
X161642857Y-63002300D02*
X161571428Y-63026109D01*
X161571428Y-63026109D02*
X161523809Y-63026109D01*
X161523809Y-63026109D02*
X161452381Y-63002300D01*
X161452381Y-63002300D02*
X161404762Y-62954680D01*
X161404762Y-62954680D02*
X161380952Y-62907061D01*
X161380952Y-62907061D02*
X161357143Y-62811823D01*
X161357143Y-62811823D02*
X161357143Y-62740395D01*
X161357143Y-62740395D02*
X161380952Y-62645157D01*
X161380952Y-62645157D02*
X161404762Y-62597538D01*
X161404762Y-62597538D02*
X161452381Y-62549919D01*
X161452381Y-62549919D02*
X161523809Y-62526109D01*
X161523809Y-62526109D02*
X161571428Y-62526109D01*
X161571428Y-62526109D02*
X161642857Y-62549919D01*
X161642857Y-62549919D02*
X161666666Y-62573728D01*
X161857143Y-62573728D02*
X161880952Y-62549919D01*
X161880952Y-62549919D02*
X161928571Y-62526109D01*
X161928571Y-62526109D02*
X162047619Y-62526109D01*
X162047619Y-62526109D02*
X162095238Y-62549919D01*
X162095238Y-62549919D02*
X162119047Y-62573728D01*
X162119047Y-62573728D02*
X162142857Y-62621347D01*
X162142857Y-62621347D02*
X162142857Y-62668966D01*
X162142857Y-62668966D02*
X162119047Y-62740395D01*
X162119047Y-62740395D02*
X161833333Y-63026109D01*
X161833333Y-63026109D02*
X162142857Y-63026109D01*
X152078571Y-40378490D02*
X152054762Y-40402300D01*
X152054762Y-40402300D02*
X151983333Y-40426109D01*
X151983333Y-40426109D02*
X151935714Y-40426109D01*
X151935714Y-40426109D02*
X151864286Y-40402300D01*
X151864286Y-40402300D02*
X151816667Y-40354680D01*
X151816667Y-40354680D02*
X151792857Y-40307061D01*
X151792857Y-40307061D02*
X151769048Y-40211823D01*
X151769048Y-40211823D02*
X151769048Y-40140395D01*
X151769048Y-40140395D02*
X151792857Y-40045157D01*
X151792857Y-40045157D02*
X151816667Y-39997538D01*
X151816667Y-39997538D02*
X151864286Y-39949919D01*
X151864286Y-39949919D02*
X151935714Y-39926109D01*
X151935714Y-39926109D02*
X151983333Y-39926109D01*
X151983333Y-39926109D02*
X152054762Y-39949919D01*
X152054762Y-39949919D02*
X152078571Y-39973728D01*
X152554762Y-40426109D02*
X152269048Y-40426109D01*
X152411905Y-40426109D02*
X152411905Y-39926109D01*
X152411905Y-39926109D02*
X152364286Y-39997538D01*
X152364286Y-39997538D02*
X152316667Y-40045157D01*
X152316667Y-40045157D02*
X152269048Y-40068966D01*
X153007142Y-39926109D02*
X152769047Y-39926109D01*
X152769047Y-39926109D02*
X152745238Y-40164204D01*
X152745238Y-40164204D02*
X152769047Y-40140395D01*
X152769047Y-40140395D02*
X152816666Y-40116585D01*
X152816666Y-40116585D02*
X152935714Y-40116585D01*
X152935714Y-40116585D02*
X152983333Y-40140395D01*
X152983333Y-40140395D02*
X153007142Y-40164204D01*
X153007142Y-40164204D02*
X153030952Y-40211823D01*
X153030952Y-40211823D02*
X153030952Y-40330871D01*
X153030952Y-40330871D02*
X153007142Y-40378490D01*
X153007142Y-40378490D02*
X152983333Y-40402300D01*
X152983333Y-40402300D02*
X152935714Y-40426109D01*
X152935714Y-40426109D02*
X152816666Y-40426109D01*
X152816666Y-40426109D02*
X152769047Y-40402300D01*
X152769047Y-40402300D02*
X152745238Y-40378490D01*
X138689047Y-42786109D02*
X138689047Y-43190871D01*
X138689047Y-43190871D02*
X138712857Y-43238490D01*
X138712857Y-43238490D02*
X138736666Y-43262300D01*
X138736666Y-43262300D02*
X138784285Y-43286109D01*
X138784285Y-43286109D02*
X138879523Y-43286109D01*
X138879523Y-43286109D02*
X138927142Y-43262300D01*
X138927142Y-43262300D02*
X138950952Y-43238490D01*
X138950952Y-43238490D02*
X138974761Y-43190871D01*
X138974761Y-43190871D02*
X138974761Y-42786109D01*
X139284286Y-43000395D02*
X139236667Y-42976585D01*
X139236667Y-42976585D02*
X139212857Y-42952776D01*
X139212857Y-42952776D02*
X139189048Y-42905157D01*
X139189048Y-42905157D02*
X139189048Y-42881347D01*
X139189048Y-42881347D02*
X139212857Y-42833728D01*
X139212857Y-42833728D02*
X139236667Y-42809919D01*
X139236667Y-42809919D02*
X139284286Y-42786109D01*
X139284286Y-42786109D02*
X139379524Y-42786109D01*
X139379524Y-42786109D02*
X139427143Y-42809919D01*
X139427143Y-42809919D02*
X139450952Y-42833728D01*
X139450952Y-42833728D02*
X139474762Y-42881347D01*
X139474762Y-42881347D02*
X139474762Y-42905157D01*
X139474762Y-42905157D02*
X139450952Y-42952776D01*
X139450952Y-42952776D02*
X139427143Y-42976585D01*
X139427143Y-42976585D02*
X139379524Y-43000395D01*
X139379524Y-43000395D02*
X139284286Y-43000395D01*
X139284286Y-43000395D02*
X139236667Y-43024204D01*
X139236667Y-43024204D02*
X139212857Y-43048014D01*
X139212857Y-43048014D02*
X139189048Y-43095633D01*
X139189048Y-43095633D02*
X139189048Y-43190871D01*
X139189048Y-43190871D02*
X139212857Y-43238490D01*
X139212857Y-43238490D02*
X139236667Y-43262300D01*
X139236667Y-43262300D02*
X139284286Y-43286109D01*
X139284286Y-43286109D02*
X139379524Y-43286109D01*
X139379524Y-43286109D02*
X139427143Y-43262300D01*
X139427143Y-43262300D02*
X139450952Y-43238490D01*
X139450952Y-43238490D02*
X139474762Y-43190871D01*
X139474762Y-43190871D02*
X139474762Y-43095633D01*
X139474762Y-43095633D02*
X139450952Y-43048014D01*
X139450952Y-43048014D02*
X139427143Y-43024204D01*
X139427143Y-43024204D02*
X139379524Y-43000395D01*
D14*
X129699528Y-92749860D02*
X130171243Y-92749860D01*
X129605185Y-93032889D02*
X129935385Y-92042289D01*
X129935385Y-92042289D02*
X130265585Y-93032889D01*
X130595786Y-93032889D02*
X130595786Y-92372489D01*
X130595786Y-92561175D02*
X130642957Y-92466832D01*
X130642957Y-92466832D02*
X130690129Y-92419660D01*
X130690129Y-92419660D02*
X130784471Y-92372489D01*
X130784471Y-92372489D02*
X130878814Y-92372489D01*
X131633558Y-92985718D02*
X131539215Y-93032889D01*
X131539215Y-93032889D02*
X131350529Y-93032889D01*
X131350529Y-93032889D02*
X131256186Y-92985718D01*
X131256186Y-92985718D02*
X131209015Y-92938546D01*
X131209015Y-92938546D02*
X131161843Y-92844203D01*
X131161843Y-92844203D02*
X131161843Y-92561175D01*
X131161843Y-92561175D02*
X131209015Y-92466832D01*
X131209015Y-92466832D02*
X131256186Y-92419660D01*
X131256186Y-92419660D02*
X131350529Y-92372489D01*
X131350529Y-92372489D02*
X131539215Y-92372489D01*
X131539215Y-92372489D02*
X131633558Y-92419660D01*
X132058101Y-93032889D02*
X132058101Y-92042289D01*
X132482644Y-93032889D02*
X132482644Y-92514003D01*
X132482644Y-92514003D02*
X132435472Y-92419660D01*
X132435472Y-92419660D02*
X132341129Y-92372489D01*
X132341129Y-92372489D02*
X132199615Y-92372489D01*
X132199615Y-92372489D02*
X132105272Y-92419660D01*
X132105272Y-92419660D02*
X132058101Y-92466832D01*
X132954358Y-93032889D02*
X132954358Y-92372489D01*
X132954358Y-92042289D02*
X132907186Y-92089460D01*
X132907186Y-92089460D02*
X132954358Y-92136632D01*
X132954358Y-92136632D02*
X133001529Y-92089460D01*
X133001529Y-92089460D02*
X132954358Y-92042289D01*
X132954358Y-92042289D02*
X132954358Y-92136632D01*
X133284557Y-92372489D02*
X133661929Y-92372489D01*
X133426072Y-92042289D02*
X133426072Y-92891375D01*
X133426072Y-92891375D02*
X133473243Y-92985718D01*
X133473243Y-92985718D02*
X133567586Y-93032889D01*
X133567586Y-93032889D02*
X133661929Y-93032889D01*
X134369500Y-92985718D02*
X134275157Y-93032889D01*
X134275157Y-93032889D02*
X134086472Y-93032889D01*
X134086472Y-93032889D02*
X133992129Y-92985718D01*
X133992129Y-92985718D02*
X133944957Y-92891375D01*
X133944957Y-92891375D02*
X133944957Y-92514003D01*
X133944957Y-92514003D02*
X133992129Y-92419660D01*
X133992129Y-92419660D02*
X134086472Y-92372489D01*
X134086472Y-92372489D02*
X134275157Y-92372489D01*
X134275157Y-92372489D02*
X134369500Y-92419660D01*
X134369500Y-92419660D02*
X134416672Y-92514003D01*
X134416672Y-92514003D02*
X134416672Y-92608346D01*
X134416672Y-92608346D02*
X133944957Y-92702689D01*
X135265758Y-92985718D02*
X135171415Y-93032889D01*
X135171415Y-93032889D02*
X134982729Y-93032889D01*
X134982729Y-93032889D02*
X134888386Y-92985718D01*
X134888386Y-92985718D02*
X134841215Y-92938546D01*
X134841215Y-92938546D02*
X134794043Y-92844203D01*
X134794043Y-92844203D02*
X134794043Y-92561175D01*
X134794043Y-92561175D02*
X134841215Y-92466832D01*
X134841215Y-92466832D02*
X134888386Y-92419660D01*
X134888386Y-92419660D02*
X134982729Y-92372489D01*
X134982729Y-92372489D02*
X135171415Y-92372489D01*
X135171415Y-92372489D02*
X135265758Y-92419660D01*
X135548786Y-92372489D02*
X135926158Y-92372489D01*
X135690301Y-92042289D02*
X135690301Y-92891375D01*
X135690301Y-92891375D02*
X135737472Y-92985718D01*
X135737472Y-92985718D02*
X135831815Y-93032889D01*
X135831815Y-93032889D02*
X135926158Y-93032889D01*
X136256358Y-92938546D02*
X136303529Y-92985718D01*
X136303529Y-92985718D02*
X136256358Y-93032889D01*
X136256358Y-93032889D02*
X136209186Y-92985718D01*
X136209186Y-92985718D02*
X136256358Y-92938546D01*
X136256358Y-92938546D02*
X136256358Y-93032889D01*
X136256358Y-92419660D02*
X136303529Y-92466832D01*
X136303529Y-92466832D02*
X136256358Y-92514003D01*
X136256358Y-92514003D02*
X136209186Y-92466832D01*
X136209186Y-92466832D02*
X136256358Y-92419660D01*
X136256358Y-92419660D02*
X136256358Y-92514003D01*
X137954529Y-93032889D02*
X137482815Y-93032889D01*
X137482815Y-93032889D02*
X137482815Y-92042289D01*
X138709272Y-92372489D02*
X138709272Y-93032889D01*
X138284729Y-92372489D02*
X138284729Y-92891375D01*
X138284729Y-92891375D02*
X138331900Y-92985718D01*
X138331900Y-92985718D02*
X138426243Y-93032889D01*
X138426243Y-93032889D02*
X138567757Y-93032889D01*
X138567757Y-93032889D02*
X138662100Y-92985718D01*
X138662100Y-92985718D02*
X138709272Y-92938546D01*
X139605529Y-92985718D02*
X139511186Y-93032889D01*
X139511186Y-93032889D02*
X139322500Y-93032889D01*
X139322500Y-93032889D02*
X139228157Y-92985718D01*
X139228157Y-92985718D02*
X139180986Y-92938546D01*
X139180986Y-92938546D02*
X139133814Y-92844203D01*
X139133814Y-92844203D02*
X139133814Y-92561175D01*
X139133814Y-92561175D02*
X139180986Y-92466832D01*
X139180986Y-92466832D02*
X139228157Y-92419660D01*
X139228157Y-92419660D02*
X139322500Y-92372489D01*
X139322500Y-92372489D02*
X139511186Y-92372489D01*
X139511186Y-92372489D02*
X139605529Y-92419660D01*
X140454615Y-93032889D02*
X140454615Y-92514003D01*
X140454615Y-92514003D02*
X140407443Y-92419660D01*
X140407443Y-92419660D02*
X140313100Y-92372489D01*
X140313100Y-92372489D02*
X140124415Y-92372489D01*
X140124415Y-92372489D02*
X140030072Y-92419660D01*
X140454615Y-92985718D02*
X140360272Y-93032889D01*
X140360272Y-93032889D02*
X140124415Y-93032889D01*
X140124415Y-93032889D02*
X140030072Y-92985718D01*
X140030072Y-92985718D02*
X139982900Y-92891375D01*
X139982900Y-92891375D02*
X139982900Y-92797032D01*
X139982900Y-92797032D02*
X140030072Y-92702689D01*
X140030072Y-92702689D02*
X140124415Y-92655518D01*
X140124415Y-92655518D02*
X140360272Y-92655518D01*
X140360272Y-92655518D02*
X140454615Y-92608346D01*
X141869757Y-92561175D02*
X141869757Y-93032889D01*
X141539557Y-92042289D02*
X141869757Y-92561175D01*
X141869757Y-92561175D02*
X142199957Y-92042289D01*
X142671672Y-93032889D02*
X142577329Y-92985718D01*
X142577329Y-92985718D02*
X142530158Y-92938546D01*
X142530158Y-92938546D02*
X142482986Y-92844203D01*
X142482986Y-92844203D02*
X142482986Y-92561175D01*
X142482986Y-92561175D02*
X142530158Y-92466832D01*
X142530158Y-92466832D02*
X142577329Y-92419660D01*
X142577329Y-92419660D02*
X142671672Y-92372489D01*
X142671672Y-92372489D02*
X142813186Y-92372489D01*
X142813186Y-92372489D02*
X142907529Y-92419660D01*
X142907529Y-92419660D02*
X142954701Y-92466832D01*
X142954701Y-92466832D02*
X143001872Y-92561175D01*
X143001872Y-92561175D02*
X143001872Y-92844203D01*
X143001872Y-92844203D02*
X142954701Y-92938546D01*
X142954701Y-92938546D02*
X142907529Y-92985718D01*
X142907529Y-92985718D02*
X142813186Y-93032889D01*
X142813186Y-93032889D02*
X142671672Y-93032889D01*
X143850958Y-92372489D02*
X143850958Y-93032889D01*
X143426415Y-92372489D02*
X143426415Y-92891375D01*
X143426415Y-92891375D02*
X143473586Y-92985718D01*
X143473586Y-92985718D02*
X143567929Y-93032889D01*
X143567929Y-93032889D02*
X143709443Y-93032889D01*
X143709443Y-93032889D02*
X143803786Y-92985718D01*
X143803786Y-92985718D02*
X143850958Y-92938546D01*
X144322672Y-92372489D02*
X144322672Y-93032889D01*
X144322672Y-92466832D02*
X144369843Y-92419660D01*
X144369843Y-92419660D02*
X144464186Y-92372489D01*
X144464186Y-92372489D02*
X144605700Y-92372489D01*
X144605700Y-92372489D02*
X144700043Y-92419660D01*
X144700043Y-92419660D02*
X144747215Y-92514003D01*
X144747215Y-92514003D02*
X144747215Y-93032889D01*
X145596300Y-92985718D02*
X145501957Y-93032889D01*
X145501957Y-93032889D02*
X145313272Y-93032889D01*
X145313272Y-93032889D02*
X145218929Y-92985718D01*
X145218929Y-92985718D02*
X145171757Y-92891375D01*
X145171757Y-92891375D02*
X145171757Y-92514003D01*
X145171757Y-92514003D02*
X145218929Y-92419660D01*
X145218929Y-92419660D02*
X145313272Y-92372489D01*
X145313272Y-92372489D02*
X145501957Y-92372489D01*
X145501957Y-92372489D02*
X145596300Y-92419660D01*
X145596300Y-92419660D02*
X145643472Y-92514003D01*
X145643472Y-92514003D02*
X145643472Y-92608346D01*
X145643472Y-92608346D02*
X145171757Y-92702689D01*
X146020843Y-92985718D02*
X146115186Y-93032889D01*
X146115186Y-93032889D02*
X146303872Y-93032889D01*
X146303872Y-93032889D02*
X146398215Y-92985718D01*
X146398215Y-92985718D02*
X146445386Y-92891375D01*
X146445386Y-92891375D02*
X146445386Y-92844203D01*
X146445386Y-92844203D02*
X146398215Y-92749860D01*
X146398215Y-92749860D02*
X146303872Y-92702689D01*
X146303872Y-92702689D02*
X146162358Y-92702689D01*
X146162358Y-92702689D02*
X146068015Y-92655518D01*
X146068015Y-92655518D02*
X146020843Y-92561175D01*
X146020843Y-92561175D02*
X146020843Y-92514003D01*
X146020843Y-92514003D02*
X146068015Y-92419660D01*
X146068015Y-92419660D02*
X146162358Y-92372489D01*
X146162358Y-92372489D02*
X146303872Y-92372489D01*
X146303872Y-92372489D02*
X146398215Y-92419660D01*
X130076900Y-90990003D02*
X129746700Y-90990003D01*
X129746700Y-91508889D02*
X129746700Y-90518289D01*
X129746700Y-90518289D02*
X130218414Y-90518289D01*
X130548614Y-91461718D02*
X130690129Y-91508889D01*
X130690129Y-91508889D02*
X130925986Y-91508889D01*
X130925986Y-91508889D02*
X131020329Y-91461718D01*
X131020329Y-91461718D02*
X131067500Y-91414546D01*
X131067500Y-91414546D02*
X131114671Y-91320203D01*
X131114671Y-91320203D02*
X131114671Y-91225860D01*
X131114671Y-91225860D02*
X131067500Y-91131518D01*
X131067500Y-91131518D02*
X131020329Y-91084346D01*
X131020329Y-91084346D02*
X130925986Y-91037175D01*
X130925986Y-91037175D02*
X130737300Y-90990003D01*
X130737300Y-90990003D02*
X130642957Y-90942832D01*
X130642957Y-90942832D02*
X130595786Y-90895660D01*
X130595786Y-90895660D02*
X130548614Y-90801318D01*
X130548614Y-90801318D02*
X130548614Y-90706975D01*
X130548614Y-90706975D02*
X130595786Y-90612632D01*
X130595786Y-90612632D02*
X130642957Y-90565460D01*
X130642957Y-90565460D02*
X130737300Y-90518289D01*
X130737300Y-90518289D02*
X130973157Y-90518289D01*
X130973157Y-90518289D02*
X131114671Y-90565460D01*
X131539215Y-91131518D02*
X132293958Y-91131518D01*
X133190215Y-90848489D02*
X133190215Y-91508889D01*
X132954357Y-90471118D02*
X132718500Y-91178689D01*
X132718500Y-91178689D02*
X133331729Y-91178689D01*
X134322329Y-90518289D02*
X134888387Y-90518289D01*
X134605358Y-91508889D02*
X134605358Y-90518289D01*
X135690301Y-91508889D02*
X135218587Y-91508889D01*
X135218587Y-91508889D02*
X135218587Y-90518289D01*
X136350701Y-90990003D02*
X136492215Y-91037175D01*
X136492215Y-91037175D02*
X136539386Y-91084346D01*
X136539386Y-91084346D02*
X136586558Y-91178689D01*
X136586558Y-91178689D02*
X136586558Y-91320203D01*
X136586558Y-91320203D02*
X136539386Y-91414546D01*
X136539386Y-91414546D02*
X136492215Y-91461718D01*
X136492215Y-91461718D02*
X136397872Y-91508889D01*
X136397872Y-91508889D02*
X136020501Y-91508889D01*
X136020501Y-91508889D02*
X136020501Y-90518289D01*
X136020501Y-90518289D02*
X136350701Y-90518289D01*
X136350701Y-90518289D02*
X136445044Y-90565460D01*
X136445044Y-90565460D02*
X136492215Y-90612632D01*
X136492215Y-90612632D02*
X136539386Y-90706975D01*
X136539386Y-90706975D02*
X136539386Y-90801318D01*
X136539386Y-90801318D02*
X136492215Y-90895660D01*
X136492215Y-90895660D02*
X136445044Y-90942832D01*
X136445044Y-90942832D02*
X136350701Y-90990003D01*
X136350701Y-90990003D02*
X136020501Y-90990003D01*
X137624329Y-90518289D02*
X137954529Y-91508889D01*
X137954529Y-91508889D02*
X138284729Y-90518289D01*
X138567758Y-90612632D02*
X138614930Y-90565460D01*
X138614930Y-90565460D02*
X138709273Y-90518289D01*
X138709273Y-90518289D02*
X138945130Y-90518289D01*
X138945130Y-90518289D02*
X139039473Y-90565460D01*
X139039473Y-90565460D02*
X139086644Y-90612632D01*
X139086644Y-90612632D02*
X139133815Y-90706975D01*
X139133815Y-90706975D02*
X139133815Y-90801318D01*
X139133815Y-90801318D02*
X139086644Y-90942832D01*
X139086644Y-90942832D02*
X138520587Y-91508889D01*
X138520587Y-91508889D02*
X139133815Y-91508889D01*
X139558359Y-91414546D02*
X139605530Y-91461718D01*
X139605530Y-91461718D02*
X139558359Y-91508889D01*
X139558359Y-91508889D02*
X139511187Y-91461718D01*
X139511187Y-91461718D02*
X139558359Y-91414546D01*
X139558359Y-91414546D02*
X139558359Y-91508889D01*
X140218758Y-90518289D02*
X140313101Y-90518289D01*
X140313101Y-90518289D02*
X140407444Y-90565460D01*
X140407444Y-90565460D02*
X140454616Y-90612632D01*
X140454616Y-90612632D02*
X140501787Y-90706975D01*
X140501787Y-90706975D02*
X140548958Y-90895660D01*
X140548958Y-90895660D02*
X140548958Y-91131518D01*
X140548958Y-91131518D02*
X140501787Y-91320203D01*
X140501787Y-91320203D02*
X140454616Y-91414546D01*
X140454616Y-91414546D02*
X140407444Y-91461718D01*
X140407444Y-91461718D02*
X140313101Y-91508889D01*
X140313101Y-91508889D02*
X140218758Y-91508889D01*
X140218758Y-91508889D02*
X140124416Y-91461718D01*
X140124416Y-91461718D02*
X140077244Y-91414546D01*
X140077244Y-91414546D02*
X140030073Y-91320203D01*
X140030073Y-91320203D02*
X139982901Y-91131518D01*
X139982901Y-91131518D02*
X139982901Y-90895660D01*
X139982901Y-90895660D02*
X140030073Y-90706975D01*
X140030073Y-90706975D02*
X140077244Y-90612632D01*
X140077244Y-90612632D02*
X140124416Y-90565460D01*
X140124416Y-90565460D02*
X140218758Y-90518289D01*
D10*
X131428571Y-33178490D02*
X131404762Y-33202300D01*
X131404762Y-33202300D02*
X131333333Y-33226109D01*
X131333333Y-33226109D02*
X131285714Y-33226109D01*
X131285714Y-33226109D02*
X131214286Y-33202300D01*
X131214286Y-33202300D02*
X131166667Y-33154680D01*
X131166667Y-33154680D02*
X131142857Y-33107061D01*
X131142857Y-33107061D02*
X131119048Y-33011823D01*
X131119048Y-33011823D02*
X131119048Y-32940395D01*
X131119048Y-32940395D02*
X131142857Y-32845157D01*
X131142857Y-32845157D02*
X131166667Y-32797538D01*
X131166667Y-32797538D02*
X131214286Y-32749919D01*
X131214286Y-32749919D02*
X131285714Y-32726109D01*
X131285714Y-32726109D02*
X131333333Y-32726109D01*
X131333333Y-32726109D02*
X131404762Y-32749919D01*
X131404762Y-32749919D02*
X131428571Y-32773728D01*
X131619048Y-32773728D02*
X131642857Y-32749919D01*
X131642857Y-32749919D02*
X131690476Y-32726109D01*
X131690476Y-32726109D02*
X131809524Y-32726109D01*
X131809524Y-32726109D02*
X131857143Y-32749919D01*
X131857143Y-32749919D02*
X131880952Y-32773728D01*
X131880952Y-32773728D02*
X131904762Y-32821347D01*
X131904762Y-32821347D02*
X131904762Y-32868966D01*
X131904762Y-32868966D02*
X131880952Y-32940395D01*
X131880952Y-32940395D02*
X131595238Y-33226109D01*
X131595238Y-33226109D02*
X131904762Y-33226109D01*
X132380952Y-33226109D02*
X132095238Y-33226109D01*
X132238095Y-33226109D02*
X132238095Y-32726109D01*
X132238095Y-32726109D02*
X132190476Y-32797538D01*
X132190476Y-32797538D02*
X132142857Y-32845157D01*
X132142857Y-32845157D02*
X132095238Y-32868966D01*
X160316666Y-58215990D02*
X160292857Y-58239800D01*
X160292857Y-58239800D02*
X160221428Y-58263609D01*
X160221428Y-58263609D02*
X160173809Y-58263609D01*
X160173809Y-58263609D02*
X160102381Y-58239800D01*
X160102381Y-58239800D02*
X160054762Y-58192180D01*
X160054762Y-58192180D02*
X160030952Y-58144561D01*
X160030952Y-58144561D02*
X160007143Y-58049323D01*
X160007143Y-58049323D02*
X160007143Y-57977895D01*
X160007143Y-57977895D02*
X160030952Y-57882657D01*
X160030952Y-57882657D02*
X160054762Y-57835038D01*
X160054762Y-57835038D02*
X160102381Y-57787419D01*
X160102381Y-57787419D02*
X160173809Y-57763609D01*
X160173809Y-57763609D02*
X160221428Y-57763609D01*
X160221428Y-57763609D02*
X160292857Y-57787419D01*
X160292857Y-57787419D02*
X160316666Y-57811228D01*
X160745238Y-57930276D02*
X160745238Y-58263609D01*
X160626190Y-57739800D02*
X160507143Y-58096942D01*
X160507143Y-58096942D02*
X160816666Y-58096942D01*
X147511071Y-40438490D02*
X147487262Y-40462300D01*
X147487262Y-40462300D02*
X147415833Y-40486109D01*
X147415833Y-40486109D02*
X147368214Y-40486109D01*
X147368214Y-40486109D02*
X147296786Y-40462300D01*
X147296786Y-40462300D02*
X147249167Y-40414680D01*
X147249167Y-40414680D02*
X147225357Y-40367061D01*
X147225357Y-40367061D02*
X147201548Y-40271823D01*
X147201548Y-40271823D02*
X147201548Y-40200395D01*
X147201548Y-40200395D02*
X147225357Y-40105157D01*
X147225357Y-40105157D02*
X147249167Y-40057538D01*
X147249167Y-40057538D02*
X147296786Y-40009919D01*
X147296786Y-40009919D02*
X147368214Y-39986109D01*
X147368214Y-39986109D02*
X147415833Y-39986109D01*
X147415833Y-39986109D02*
X147487262Y-40009919D01*
X147487262Y-40009919D02*
X147511071Y-40033728D01*
X147987262Y-40486109D02*
X147701548Y-40486109D01*
X147844405Y-40486109D02*
X147844405Y-39986109D01*
X147844405Y-39986109D02*
X147796786Y-40057538D01*
X147796786Y-40057538D02*
X147749167Y-40105157D01*
X147749167Y-40105157D02*
X147701548Y-40128966D01*
X148153928Y-39986109D02*
X148463452Y-39986109D01*
X148463452Y-39986109D02*
X148296785Y-40176585D01*
X148296785Y-40176585D02*
X148368214Y-40176585D01*
X148368214Y-40176585D02*
X148415833Y-40200395D01*
X148415833Y-40200395D02*
X148439642Y-40224204D01*
X148439642Y-40224204D02*
X148463452Y-40271823D01*
X148463452Y-40271823D02*
X148463452Y-40390871D01*
X148463452Y-40390871D02*
X148439642Y-40438490D01*
X148439642Y-40438490D02*
X148415833Y-40462300D01*
X148415833Y-40462300D02*
X148368214Y-40486109D01*
X148368214Y-40486109D02*
X148225357Y-40486109D01*
X148225357Y-40486109D02*
X148177738Y-40462300D01*
X148177738Y-40462300D02*
X148153928Y-40438490D01*
X155256547Y-62226109D02*
X155256547Y-62630871D01*
X155256547Y-62630871D02*
X155280357Y-62678490D01*
X155280357Y-62678490D02*
X155304166Y-62702300D01*
X155304166Y-62702300D02*
X155351785Y-62726109D01*
X155351785Y-62726109D02*
X155447023Y-62726109D01*
X155447023Y-62726109D02*
X155494642Y-62702300D01*
X155494642Y-62702300D02*
X155518452Y-62678490D01*
X155518452Y-62678490D02*
X155542261Y-62630871D01*
X155542261Y-62630871D02*
X155542261Y-62226109D01*
X155732738Y-62226109D02*
X156042262Y-62226109D01*
X156042262Y-62226109D02*
X155875595Y-62416585D01*
X155875595Y-62416585D02*
X155947024Y-62416585D01*
X155947024Y-62416585D02*
X155994643Y-62440395D01*
X155994643Y-62440395D02*
X156018452Y-62464204D01*
X156018452Y-62464204D02*
X156042262Y-62511823D01*
X156042262Y-62511823D02*
X156042262Y-62630871D01*
X156042262Y-62630871D02*
X156018452Y-62678490D01*
X156018452Y-62678490D02*
X155994643Y-62702300D01*
X155994643Y-62702300D02*
X155947024Y-62726109D01*
X155947024Y-62726109D02*
X155804167Y-62726109D01*
X155804167Y-62726109D02*
X155756548Y-62702300D01*
X155756548Y-62702300D02*
X155732738Y-62678490D01*
X153166666Y-62678490D02*
X153142857Y-62702300D01*
X153142857Y-62702300D02*
X153071428Y-62726109D01*
X153071428Y-62726109D02*
X153023809Y-62726109D01*
X153023809Y-62726109D02*
X152952381Y-62702300D01*
X152952381Y-62702300D02*
X152904762Y-62654680D01*
X152904762Y-62654680D02*
X152880952Y-62607061D01*
X152880952Y-62607061D02*
X152857143Y-62511823D01*
X152857143Y-62511823D02*
X152857143Y-62440395D01*
X152857143Y-62440395D02*
X152880952Y-62345157D01*
X152880952Y-62345157D02*
X152904762Y-62297538D01*
X152904762Y-62297538D02*
X152952381Y-62249919D01*
X152952381Y-62249919D02*
X153023809Y-62226109D01*
X153023809Y-62226109D02*
X153071428Y-62226109D01*
X153071428Y-62226109D02*
X153142857Y-62249919D01*
X153142857Y-62249919D02*
X153166666Y-62273728D01*
X153595238Y-62226109D02*
X153500000Y-62226109D01*
X153500000Y-62226109D02*
X153452381Y-62249919D01*
X153452381Y-62249919D02*
X153428571Y-62273728D01*
X153428571Y-62273728D02*
X153380952Y-62345157D01*
X153380952Y-62345157D02*
X153357143Y-62440395D01*
X153357143Y-62440395D02*
X153357143Y-62630871D01*
X153357143Y-62630871D02*
X153380952Y-62678490D01*
X153380952Y-62678490D02*
X153404762Y-62702300D01*
X153404762Y-62702300D02*
X153452381Y-62726109D01*
X153452381Y-62726109D02*
X153547619Y-62726109D01*
X153547619Y-62726109D02*
X153595238Y-62702300D01*
X153595238Y-62702300D02*
X153619047Y-62678490D01*
X153619047Y-62678490D02*
X153642857Y-62630871D01*
X153642857Y-62630871D02*
X153642857Y-62511823D01*
X153642857Y-62511823D02*
X153619047Y-62464204D01*
X153619047Y-62464204D02*
X153595238Y-62440395D01*
X153595238Y-62440395D02*
X153547619Y-62416585D01*
X153547619Y-62416585D02*
X153452381Y-62416585D01*
X153452381Y-62416585D02*
X153404762Y-62440395D01*
X153404762Y-62440395D02*
X153380952Y-62464204D01*
X153380952Y-62464204D02*
X153357143Y-62511823D01*
D15*
%TO.C,R9*%
X154089564Y-81445000D02*
X153635436Y-81445000D01*
X154089564Y-82915000D02*
X153635436Y-82915000D01*
%TO.C,C19*%
X153601248Y-77195000D02*
X154123752Y-77195000D01*
X153601248Y-78665000D02*
X154123752Y-78665000D01*
%TO.C,R5*%
X151427500Y-55304186D02*
X151427500Y-55758314D01*
X152897500Y-55304186D02*
X152897500Y-55758314D01*
%TO.C,Y2*%
X145622500Y-48606250D02*
X141502500Y-48606250D01*
X145622500Y-52026250D02*
X145622500Y-48606250D01*
%TO.C,J1*%
X122355000Y-85755000D02*
X122355000Y-34735000D01*
X125005000Y-83105000D02*
X125005000Y-85755000D01*
X125005000Y-85755000D02*
X122355000Y-85755000D01*
X127655000Y-34735000D02*
X122355000Y-34735000D01*
X127655000Y-83105000D02*
X125005000Y-83105000D01*
X127655000Y-83105000D02*
X127655000Y-34735000D01*
X127655000Y-84375000D02*
X127655000Y-85755000D01*
X127655000Y-85755000D02*
X126275000Y-85755000D01*
%TO.C,C5*%
X158765000Y-60811252D02*
X158765000Y-60288748D01*
X160235000Y-60811252D02*
X160235000Y-60288748D01*
%TO.C,J6*%
X156475000Y-38670000D02*
X160175000Y-38670000D01*
X156475000Y-44250000D02*
X156475000Y-38670000D01*
X156475000Y-44250000D02*
X156475000Y-49830000D01*
X156475000Y-49830000D02*
X160175000Y-49830000D01*
X158325000Y-50130000D02*
X160475000Y-50130000D01*
X160175000Y-38670000D02*
X160175000Y-41540000D01*
X160175000Y-41540000D02*
X163035000Y-41540000D01*
X160175000Y-46960000D02*
X163035000Y-46960000D01*
X160175000Y-49830000D02*
X160175000Y-46960000D01*
X160475000Y-50130000D02*
X160475000Y-48000000D01*
X163035000Y-41540000D02*
X163035000Y-44250000D01*
X163035000Y-46960000D02*
X163035000Y-44250000D01*
%TO.C,L1*%
X153790000Y-51790000D02*
X155340000Y-51790000D01*
X153790000Y-57710000D02*
X153790000Y-51790000D01*
X155340000Y-57710000D02*
X153790000Y-57710000D01*
X157660000Y-51790000D02*
X159210000Y-51790000D01*
X159210000Y-51790000D02*
X159210000Y-57710000D01*
X159210000Y-57710000D02*
X157660000Y-57710000D01*
%TO.C,R3*%
X139522936Y-36265000D02*
X139977064Y-36265000D01*
X139522936Y-37735000D02*
X139977064Y-37735000D01*
%TO.C,C22*%
X149601248Y-79445000D02*
X150123752Y-79445000D01*
X149601248Y-80915000D02*
X150123752Y-80915000D01*
%TO.C,C17*%
X150161252Y-81945000D02*
X149638748Y-81945000D01*
X150161252Y-83415000D02*
X149638748Y-83415000D01*
%TO.C,J3*%
X153420000Y-70075000D02*
X156290000Y-70075000D01*
X153420000Y-73775000D02*
X153420000Y-70075000D01*
X156290000Y-67215000D02*
X159000000Y-67215000D01*
X156290000Y-70075000D02*
X156290000Y-67215000D01*
X159000000Y-73775000D02*
X153420000Y-73775000D01*
X159000000Y-73775000D02*
X164580000Y-73775000D01*
X161710000Y-67215000D02*
X159000000Y-67215000D01*
X161710000Y-70075000D02*
X161710000Y-67215000D01*
X164580000Y-70075000D02*
X161710000Y-70075000D01*
X164580000Y-73775000D02*
X164580000Y-70075000D01*
X164880000Y-69775000D02*
X162750000Y-69775000D01*
X164880000Y-71925000D02*
X164880000Y-69775000D01*
%TO.C,C12*%
X151313748Y-50296250D02*
X151836252Y-50296250D01*
X151313748Y-51766250D02*
X151836252Y-51766250D01*
%TO.C,C16*%
X149601248Y-77445000D02*
X150123752Y-77445000D01*
X149601248Y-78915000D02*
X150123752Y-78915000D01*
%TO.C,R1*%
X136022936Y-30015000D02*
X136477064Y-30015000D01*
X136022936Y-31485000D02*
X136477064Y-31485000D01*
%TO.C,U5*%
X143440000Y-61190000D02*
X147560000Y-61190000D01*
X143440000Y-61285000D02*
X143440000Y-61190000D01*
X143440000Y-66310000D02*
X143440000Y-66215000D01*
X147560000Y-61190000D02*
X147560000Y-61285000D01*
X147560000Y-66215000D02*
X147560000Y-66310000D01*
X147560000Y-66310000D02*
X143440000Y-66310000D01*
X142900000Y-61280000D02*
X142660000Y-60950000D01*
X143140000Y-60950000D01*
X142900000Y-61280000D01*
G36*
X142900000Y-61280000D02*
G01*
X142660000Y-60950000D01*
X143140000Y-60950000D01*
X142900000Y-61280000D01*
G37*
%TO.C,C11*%
X139836252Y-50296250D02*
X139313748Y-50296250D01*
X139836252Y-51766250D02*
X139313748Y-51766250D01*
%TO.C,R6*%
X152585000Y-45832936D02*
X152585000Y-46287064D01*
X154055000Y-45832936D02*
X154055000Y-46287064D01*
%TO.C,U10*%
X143312000Y-82206913D02*
X146532000Y-82206913D01*
X143312000Y-82331913D02*
X143312000Y-82206913D01*
X143312000Y-85426913D02*
X143312000Y-85301913D01*
X146532000Y-82206913D02*
X146532000Y-82331913D01*
X146532000Y-85301913D02*
X146532000Y-85426913D01*
X146532000Y-85426913D02*
X143312000Y-85426913D01*
X147372000Y-85186913D02*
X147042000Y-84946913D01*
X147372000Y-84706913D01*
X147372000Y-85186913D01*
G36*
X147372000Y-85186913D02*
G01*
X147042000Y-84946913D01*
X147372000Y-84706913D01*
X147372000Y-85186913D01*
G37*
%TO.C,Y3*%
X143960000Y-57540000D02*
X139840000Y-57540000D01*
X143960000Y-60960000D02*
X143960000Y-57540000D01*
%TO.C,BT1*%
X152850000Y-36500000D02*
X152850000Y-30500000D01*
X154550000Y-28500000D02*
X152850000Y-30500000D01*
X158550000Y-28500000D02*
X154550000Y-28500000D01*
X158550000Y-28500000D02*
X160250000Y-30500000D01*
X160250000Y-36500000D02*
X160250000Y-30500000D01*
X154157373Y-36493972D02*
G75*
G02*
X152846277Y-36500000I-657373J393972D01*
G01*
X154158617Y-36495415D02*
G75*
G02*
X158950000Y-36500000I2391383J-4504582D01*
G01*
X160255648Y-36490673D02*
G75*
G02*
X158950000Y-36500000I-655648J390674D01*
G01*
%TO.C,U9*%
X146260000Y-42750000D02*
X150380000Y-42750000D01*
X146260000Y-42845000D02*
X146260000Y-42750000D01*
X146260000Y-47870000D02*
X146260000Y-47775000D01*
X150380000Y-42750000D02*
X150380000Y-42845000D01*
X150380000Y-47775000D02*
X150380000Y-47870000D01*
X150380000Y-47870000D02*
X146260000Y-47870000D01*
X145720000Y-42840000D02*
X145480000Y-42510000D01*
X145960000Y-42510000D01*
X145720000Y-42840000D01*
G36*
X145720000Y-42840000D02*
G01*
X145480000Y-42510000D01*
X145960000Y-42510000D01*
X145720000Y-42840000D01*
G37*
%TO.C,C14*%
X140993752Y-41060000D02*
X140471248Y-41060000D01*
X140993752Y-42530000D02*
X140471248Y-42530000D01*
%TO.C,Y4*%
X146780000Y-39135000D02*
X142660000Y-39135000D01*
X146780000Y-42555000D02*
X146780000Y-39135000D01*
%TO.C,R4*%
X149765000Y-64272936D02*
X149765000Y-64727064D01*
X151235000Y-64272936D02*
X151235000Y-64727064D01*
%TO.C,C8*%
X138173752Y-59265000D02*
X137651248Y-59265000D01*
X138173752Y-60735000D02*
X137651248Y-60735000D01*
%TO.C,C23*%
X131011252Y-35765000D02*
X130488748Y-35765000D01*
X131011252Y-37235000D02*
X130488748Y-37235000D01*
%TO.C,R10*%
X154002064Y-79335000D02*
X153547936Y-79335000D01*
X154002064Y-80805000D02*
X153547936Y-80805000D01*
%TO.C,R2*%
X136022936Y-32015000D02*
X136477064Y-32015000D01*
X136022936Y-33485000D02*
X136477064Y-33485000D01*
%TO.C,C10*%
X147313748Y-50296250D02*
X147836252Y-50296250D01*
X147313748Y-51766250D02*
X147836252Y-51766250D01*
%TO.C,C1*%
X136223752Y-34015000D02*
X135701248Y-34015000D01*
X136223752Y-35485000D02*
X135701248Y-35485000D01*
%TO.C,C3*%
X161786252Y-51765000D02*
X161263748Y-51765000D01*
X161786252Y-53235000D02*
X161263748Y-53235000D01*
%TO.C,U4*%
X137500000Y-66110000D02*
X140500000Y-66110000D01*
X140500000Y-61390000D02*
X137500000Y-61390000D01*
X141070000Y-66490000D02*
X141070000Y-66010000D01*
X141550000Y-66010000D01*
X141070000Y-66490000D01*
G36*
X141070000Y-66490000D02*
G01*
X141070000Y-66010000D01*
X141550000Y-66010000D01*
X141070000Y-66490000D01*
G37*
%TO.C,U1*%
X139690000Y-30690000D02*
X143810000Y-30690000D01*
X139690000Y-30785000D02*
X139690000Y-30690000D01*
X139690000Y-35810000D02*
X139690000Y-35715000D01*
X143810000Y-30690000D02*
X143810000Y-30785000D01*
X143810000Y-35715000D02*
X143810000Y-35810000D01*
X143810000Y-35810000D02*
X139690000Y-35810000D01*
X144590000Y-36050000D02*
X144110000Y-36050000D01*
X144350000Y-35720000D01*
X144590000Y-36050000D01*
G36*
X144590000Y-36050000D02*
G01*
X144110000Y-36050000D01*
X144350000Y-35720000D01*
X144590000Y-36050000D01*
G37*
%TO.C,R7*%
X154089564Y-85695000D02*
X153635436Y-85695000D01*
X154089564Y-87165000D02*
X153635436Y-87165000D01*
%TO.C,U7*%
X145102500Y-52221250D02*
X149222500Y-52221250D01*
X145102500Y-52316250D02*
X145102500Y-52221250D01*
X145102500Y-57341250D02*
X145102500Y-57246250D01*
X149222500Y-52221250D02*
X149222500Y-52316250D01*
X149222500Y-57246250D02*
X149222500Y-57341250D01*
X149222500Y-57341250D02*
X145102500Y-57341250D01*
X144562500Y-52311250D02*
X144322500Y-51981250D01*
X144802500Y-51981250D01*
X144562500Y-52311250D01*
G36*
X144562500Y-52311250D02*
G01*
X144322500Y-51981250D01*
X144802500Y-51981250D01*
X144562500Y-52311250D01*
G37*
%TO.C,JP1*%
X158200000Y-65050000D02*
X158200000Y-64450000D01*
X158750000Y-66250000D02*
X159350000Y-66250000D01*
X158850000Y-63750000D02*
X161650000Y-63750000D01*
X159050000Y-65950000D02*
X158750000Y-66250000D01*
X159050000Y-65950000D02*
X159350000Y-66250000D01*
X161650000Y-65750000D02*
X158850000Y-65750000D01*
X162300000Y-64450000D02*
X162300000Y-65050000D01*
X158200000Y-64450000D02*
G75*
G02*
X158900000Y-63750000I699999J1D01*
G01*
X158900000Y-65750000D02*
G75*
G02*
X158200000Y-65050000I-1J699999D01*
G01*
X161600000Y-63750000D02*
G75*
G02*
X162300000Y-64450000I0J-700000D01*
G01*
X162300000Y-65050000D02*
G75*
G02*
X161600000Y-65750000I-700000J0D01*
G01*
%TO.C,U6*%
X139162500Y-57141250D02*
X142162500Y-57141250D01*
X142162500Y-52421250D02*
X139162500Y-52421250D01*
X142732500Y-57521250D02*
X142732500Y-57041250D01*
X143212500Y-57041250D01*
X142732500Y-57521250D01*
G36*
X142732500Y-57521250D02*
G01*
X142732500Y-57041250D01*
X143212500Y-57041250D01*
X142732500Y-57521250D01*
G37*
%TO.C,J8*%
X161400000Y-77080000D02*
X159700000Y-77080000D01*
X161400000Y-86420000D02*
X159700000Y-86420000D01*
%TO.C,C7*%
X145738748Y-59265000D02*
X146261252Y-59265000D01*
X145738748Y-60735000D02*
X146261252Y-60735000D01*
%TO.C,C9*%
X149651248Y-59265000D02*
X150173752Y-59265000D01*
X149651248Y-60735000D02*
X150173752Y-60735000D01*
%TO.C,U2*%
X161590000Y-55027500D02*
X161640000Y-55027500D01*
X161590000Y-56847500D02*
X161590000Y-55027500D01*
X161640000Y-56847500D02*
X161590000Y-56847500D01*
X164660000Y-55027500D02*
X164710000Y-55027500D01*
X164710000Y-55027500D02*
X164710000Y-56847500D01*
X164710000Y-56847500D02*
X164660000Y-56847500D01*
X161640000Y-57387500D02*
X161310000Y-57627500D01*
X161310000Y-57147500D01*
X161640000Y-57387500D01*
G36*
X161640000Y-57387500D02*
G01*
X161310000Y-57627500D01*
X161310000Y-57147500D01*
X161640000Y-57387500D01*
G37*
%TO.C,Y1*%
X146037500Y-36675000D02*
X146037500Y-35325000D01*
X147787500Y-36675000D02*
X147787500Y-35325000D01*
%TO.C,R8*%
X150339564Y-84445000D02*
X149885436Y-84445000D01*
X150339564Y-85915000D02*
X149885436Y-85915000D01*
%TO.C,C2*%
X161015000Y-60811252D02*
X161015000Y-60288748D01*
X162485000Y-60811252D02*
X162485000Y-60288748D01*
%TO.C,C15*%
X152471248Y-40825000D02*
X152993752Y-40825000D01*
X152471248Y-42295000D02*
X152993752Y-42295000D01*
%TO.C,U8*%
X140320000Y-47670000D02*
X143320000Y-47670000D01*
X143320000Y-42950000D02*
X140320000Y-42950000D01*
X143890000Y-48050000D02*
X143890000Y-47570000D01*
X144370000Y-47570000D01*
X143890000Y-48050000D01*
G36*
X143890000Y-48050000D02*
G01*
X143890000Y-47570000D01*
X144370000Y-47570000D01*
X143890000Y-48050000D01*
G37*
D16*
%TO.C,G\u002A\u002A\u002A*%
G36*
X128464042Y-89870524D02*
G01*
X128458604Y-89894744D01*
X128444611Y-89911937D01*
X128413529Y-89923533D01*
X128356824Y-89930964D01*
X128265961Y-89935661D01*
X128132404Y-89939055D01*
X128045260Y-89940742D01*
X127877671Y-89945744D01*
X127750221Y-89953480D01*
X127667884Y-89963515D01*
X127635637Y-89975411D01*
X127635359Y-89976689D01*
X127648026Y-90010673D01*
X127682588Y-90082883D01*
X127733888Y-90182994D01*
X127796767Y-90300681D01*
X127802098Y-90310464D01*
X127883349Y-90461142D01*
X127936868Y-90570025D01*
X127961923Y-90643901D01*
X127957784Y-90689557D01*
X127923721Y-90713778D01*
X127859001Y-90723351D01*
X127762894Y-90725064D01*
X127757440Y-90725065D01*
X127650298Y-90726478D01*
X127588686Y-90732279D01*
X127562594Y-90744807D01*
X127562011Y-90766403D01*
X127563443Y-90770409D01*
X127583451Y-90803892D01*
X127631588Y-90876563D01*
X127703688Y-90982373D01*
X127795590Y-91115276D01*
X127903127Y-91269223D01*
X128022137Y-91438165D01*
X128059688Y-91491196D01*
X128538532Y-92166639D01*
X128546338Y-91851496D01*
X128553092Y-91692451D01*
X128565625Y-91582681D01*
X128586146Y-91515994D01*
X128616863Y-91486200D01*
X128659984Y-91487108D01*
X128674574Y-91492017D01*
X128690907Y-91503632D01*
X128702596Y-91529097D01*
X128710202Y-91576039D01*
X128714282Y-91652084D01*
X128715398Y-91764855D01*
X128714109Y-91921979D01*
X128712833Y-92013200D01*
X128709580Y-92194089D01*
X128705543Y-92326793D01*
X128699960Y-92418705D01*
X128692070Y-92477220D01*
X128681111Y-92509733D01*
X128666322Y-92523637D01*
X128660065Y-92525483D01*
X128615718Y-92509797D01*
X128557400Y-92457773D01*
X128532898Y-92428576D01*
X128455013Y-92325698D01*
X128359414Y-92195374D01*
X128250189Y-92043547D01*
X128131425Y-91876160D01*
X128007212Y-91699156D01*
X127881638Y-91518480D01*
X127758789Y-91340074D01*
X127642755Y-91169881D01*
X127537623Y-91013846D01*
X127447482Y-90877911D01*
X127376419Y-90768019D01*
X127328523Y-90690115D01*
X127307882Y-90650141D01*
X127307420Y-90646935D01*
X127321920Y-90622166D01*
X127361198Y-90606370D01*
X127436184Y-90596862D01*
X127531448Y-90591893D01*
X127632821Y-90586040D01*
X127708476Y-90577808D01*
X127745043Y-90568764D01*
X127746519Y-90566711D01*
X127734160Y-90537072D01*
X127700394Y-90468338D01*
X127650185Y-90370342D01*
X127588497Y-90252914D01*
X127579779Y-90236519D01*
X127516282Y-90112904D01*
X127463918Y-90002638D01*
X127427823Y-89917144D01*
X127413136Y-89867847D01*
X127413039Y-89865695D01*
X127414925Y-89845696D01*
X127425475Y-89830949D01*
X127452032Y-89820655D01*
X127501939Y-89814014D01*
X127582537Y-89810226D01*
X127701169Y-89808493D01*
X127865176Y-89808016D01*
X127942981Y-89807997D01*
X128472923Y-89807997D01*
X128464042Y-89870524D01*
G37*
G36*
X128654317Y-89493874D02*
G01*
X128663586Y-89529155D01*
X128675682Y-89594716D01*
X128705562Y-89670313D01*
X128743618Y-89737146D01*
X128780241Y-89776419D01*
X128791915Y-89780207D01*
X128827340Y-89757138D01*
X128844169Y-89724791D01*
X128881581Y-89650460D01*
X128930136Y-89608929D01*
X128977670Y-89609759D01*
X128984463Y-89614540D01*
X129008039Y-89660182D01*
X128993947Y-89705428D01*
X128952408Y-89724627D01*
X128918347Y-89741527D01*
X128918544Y-89778106D01*
X128949577Y-89813187D01*
X128968055Y-89821504D01*
X129030947Y-89860249D01*
X129095276Y-89927143D01*
X129144922Y-90002255D01*
X129163805Y-90063517D01*
X129146182Y-90118367D01*
X129101907Y-90188822D01*
X129080435Y-90215197D01*
X129029906Y-90280163D01*
X129000292Y-90332581D01*
X128997066Y-90346158D01*
X129009360Y-90389424D01*
X129040970Y-90462261D01*
X129069377Y-90518878D01*
X129141641Y-90657067D01*
X129191256Y-90757657D01*
X129222415Y-90831716D01*
X129239311Y-90890314D01*
X129246139Y-90944518D01*
X129247175Y-90988135D01*
X129239079Y-91080506D01*
X129206764Y-91151517D01*
X129156858Y-91211373D01*
X129049874Y-91290831D01*
X128902866Y-91350026D01*
X128729043Y-91384672D01*
X128600235Y-91392023D01*
X128519655Y-91389698D01*
X128481325Y-91378336D01*
X128471968Y-91351357D01*
X128474072Y-91329496D01*
X128483726Y-91297097D01*
X128509422Y-91276453D01*
X128563190Y-91263180D01*
X128657062Y-91252890D01*
X128692342Y-91249933D01*
X128874368Y-91223027D01*
X129005793Y-91175725D01*
X129087945Y-91107441D01*
X129110960Y-91065245D01*
X129127115Y-90992116D01*
X129117168Y-90912596D01*
X129077789Y-90814795D01*
X129005648Y-90686822D01*
X129004409Y-90684790D01*
X128920642Y-90515841D01*
X128886903Y-90366123D01*
X128903327Y-90237113D01*
X128955349Y-90146582D01*
X129001170Y-90086078D01*
X129012212Y-90047020D01*
X128993358Y-90011921D01*
X128993058Y-90011559D01*
X128941688Y-89969581D01*
X128868665Y-89929911D01*
X128864429Y-89928109D01*
X128772209Y-89907389D01*
X128701682Y-89932472D01*
X128652235Y-90004716D01*
X128623256Y-90125479D01*
X128614132Y-90296121D01*
X128620669Y-90468754D01*
X128627775Y-90640297D01*
X128620906Y-90772751D01*
X128596834Y-90881560D01*
X128552330Y-90982165D01*
X128493687Y-91076199D01*
X128425948Y-91156316D01*
X128337339Y-91236067D01*
X128242714Y-91304502D01*
X128156926Y-91350670D01*
X128103023Y-91364233D01*
X128057997Y-91349949D01*
X128055471Y-91312108D01*
X128091860Y-91258227D01*
X128163583Y-91195822D01*
X128192945Y-91175585D01*
X128291781Y-91096409D01*
X128381952Y-91000130D01*
X128414836Y-90954660D01*
X128447226Y-90902092D01*
X128469568Y-90856512D01*
X128483507Y-90806515D01*
X128490694Y-90740700D01*
X128492774Y-90647662D01*
X128491396Y-90515997D01*
X128489970Y-90434665D01*
X128489032Y-90251121D01*
X128495147Y-90113332D01*
X128510407Y-90011696D01*
X128536902Y-89936610D01*
X128576726Y-89878471D01*
X128620069Y-89837307D01*
X128657324Y-89789451D01*
X128652848Y-89733959D01*
X128604981Y-89659621D01*
X128591296Y-89642979D01*
X128543949Y-89567329D01*
X128539437Y-89509725D01*
X128577012Y-89478129D01*
X128607134Y-89474518D01*
X128654317Y-89493874D01*
G37*
D15*
%TO.C,C21*%
X130961252Y-33765000D02*
X130438748Y-33765000D01*
X130961252Y-35235000D02*
X130438748Y-35235000D01*
%TO.C,C4*%
X159665000Y-55526248D02*
X159665000Y-56048752D01*
X161135000Y-55526248D02*
X161135000Y-56048752D01*
%TO.C,C13*%
X148471248Y-40825000D02*
X148993752Y-40825000D01*
X148471248Y-42295000D02*
X148993752Y-42295000D01*
%TO.C,U3*%
X154727500Y-58940000D02*
X156547500Y-58940000D01*
X154727500Y-58990000D02*
X154727500Y-58940000D01*
X154727500Y-60890000D02*
X154727500Y-60110000D01*
X154727500Y-62060000D02*
X154727500Y-62010000D01*
X156547500Y-58940000D02*
X156547500Y-58990000D01*
X156547500Y-62010000D02*
X156547500Y-62060000D01*
X156547500Y-62060000D02*
X154727500Y-62060000D01*
X157327500Y-62340000D02*
X156847500Y-62340000D01*
X157087500Y-62010000D01*
X157327500Y-62340000D01*
G36*
X157327500Y-62340000D02*
G01*
X156847500Y-62340000D01*
X157087500Y-62010000D01*
X157327500Y-62340000D01*
G37*
%TO.C,C18*%
X154086252Y-83445000D02*
X153563748Y-83445000D01*
X154086252Y-84915000D02*
X153563748Y-84915000D01*
%TO.C,C6*%
X155511252Y-63265000D02*
X154988748Y-63265000D01*
X155511252Y-64735000D02*
X154988748Y-64735000D01*
%TD*%
M02*
