%TF.GenerationSoftware,KiCad,Pcbnew,9.0.7-unknown-1000.20260124git33f2886.fc43*%
%TF.CreationDate,2026-02-08T17:37:17-08:00*%
%TF.ProjectId,Telemetry-Logging-Board,54656c65-6d65-4747-9279-2d4c6f676769,rev?*%
%TF.SameCoordinates,Original*%
%TF.FileFunction,Paste,Bot*%
%TF.FilePolarity,Positive*%
%FSLAX46Y46*%
G04 Gerber Fmt 4.6, Leading zero omitted, Abs format (unit mm)*
G04 Created by KiCad (PCBNEW 9.0.7-unknown-1000.20260124git33f2886.fc43) date 2026-02-08 17:37:17*
%MOMM*%
%LPD*%
G01*
G04 APERTURE LIST*
%ADD10R,1.550000X0.300000*%
%ADD11R,2.750000X1.200000*%
%ADD12R,2.000000X0.600000*%
%ADD13R,3.200000X2.300000*%
G04 APERTURE END LIST*
D10*
%TO.C,J9*%
X128470000Y-40250000D03*
X136030000Y-40500000D03*
X128470000Y-40750000D03*
X136030000Y-41000000D03*
X128470000Y-41250000D03*
X136030000Y-41500000D03*
X128470000Y-41750000D03*
X136030000Y-42000000D03*
X128470000Y-42250000D03*
X136030000Y-42500000D03*
X128470000Y-42750000D03*
X136030000Y-43000000D03*
X128470000Y-43250000D03*
X136030000Y-43500000D03*
X128470000Y-43750000D03*
X136030000Y-44000000D03*
X128470000Y-44250000D03*
X136030000Y-44500000D03*
X128470000Y-44750000D03*
X136030000Y-45000000D03*
X128470000Y-45250000D03*
X136030000Y-45500000D03*
X128470000Y-45750000D03*
X136030000Y-48000000D03*
X128470000Y-48250000D03*
X136030000Y-48500000D03*
X128470000Y-48750000D03*
X136030000Y-49000000D03*
X128470000Y-49250000D03*
X136030000Y-49500000D03*
X128470000Y-49750000D03*
X136030000Y-50000000D03*
X128470000Y-50250000D03*
X136030000Y-50500000D03*
X128470000Y-50750000D03*
X136030000Y-51000000D03*
X128470000Y-51250000D03*
X136030000Y-51500000D03*
X128470000Y-51750000D03*
X136030000Y-52000000D03*
X128470000Y-52250000D03*
X136030000Y-52500000D03*
X128470000Y-52750000D03*
X136030000Y-53000000D03*
X128470000Y-53250000D03*
X136030000Y-53500000D03*
X128470000Y-53750000D03*
X136030000Y-54000000D03*
X128470000Y-54250000D03*
X136030000Y-54500000D03*
X128470000Y-54750000D03*
X136030000Y-55000000D03*
X128470000Y-55250000D03*
X136030000Y-55500000D03*
X128470000Y-55750000D03*
X136030000Y-56000000D03*
X128470000Y-56250000D03*
X136030000Y-56500000D03*
X128470000Y-56750000D03*
X136030000Y-57000000D03*
X128470000Y-57250000D03*
X136030000Y-57500000D03*
X128470000Y-57750000D03*
X136030000Y-58000000D03*
X128470000Y-58250000D03*
X136030000Y-58500000D03*
X128470000Y-58750000D03*
D11*
X129250000Y-59850000D03*
X129250000Y-39150000D03*
%TD*%
D12*
%TO.C,J2*%
X129650000Y-88800000D03*
X137850000Y-88400000D03*
X129650000Y-88000000D03*
X137850000Y-87600000D03*
X129650000Y-87200000D03*
X137850000Y-86800000D03*
X129650000Y-86400000D03*
X137850000Y-86000000D03*
X129650000Y-85600000D03*
X137850000Y-85200000D03*
X129650000Y-84800000D03*
X137850000Y-84400000D03*
X129650000Y-84000000D03*
X137850000Y-83600000D03*
X129650000Y-83200000D03*
X137850000Y-82800000D03*
X129650000Y-79200000D03*
X137850000Y-78800000D03*
X129650000Y-78400000D03*
X137850000Y-78000000D03*
X129650000Y-77600000D03*
X137850000Y-77200000D03*
X129650000Y-76800000D03*
X137850000Y-76400000D03*
X129650000Y-76000000D03*
X137850000Y-75600000D03*
X129650000Y-75200000D03*
X137850000Y-74800000D03*
X129650000Y-74400000D03*
X137850000Y-74000000D03*
X129650000Y-73600000D03*
X137850000Y-73200000D03*
X129650000Y-72800000D03*
X137850000Y-72400000D03*
X129650000Y-72000000D03*
X137850000Y-71600000D03*
X129650000Y-71200000D03*
X137850000Y-70800000D03*
X129650000Y-70400000D03*
X137850000Y-70000000D03*
X129650000Y-69600000D03*
X137850000Y-69200000D03*
X129650000Y-68800000D03*
X137850000Y-68400000D03*
X129650000Y-68000000D03*
X137850000Y-67600000D03*
X129650000Y-67200000D03*
X137850000Y-66800000D03*
X129650000Y-66400000D03*
X137850000Y-66000000D03*
X129650000Y-65600000D03*
X137850000Y-65200000D03*
D13*
X130250000Y-91650000D03*
X130250000Y-62350000D03*
%TD*%
M02*
