%TF.GenerationSoftware,KiCad,Pcbnew,9.0.6-unknown-1000.20251110git96868b2.fc41*%
%TF.CreationDate,2025-12-16T17:43:44-08:00*%
%TF.ProjectId,Telemetry-Logging-Board,54656c65-6d65-4747-9279-2d4c6f676769,rev?*%
%TF.SameCoordinates,Original*%
%TF.FileFunction,Legend,Bot*%
%TF.FilePolarity,Positive*%
%FSLAX46Y46*%
G04 Gerber Fmt 4.6, Leading zero omitted, Abs format (unit mm)*
G04 Created by KiCad (PCBNEW 9.0.6-unknown-1000.20251110git96868b2.fc41) date 2025-12-16 17:43:44*
%MOMM*%
%LPD*%
G01*
G04 APERTURE LIST*
%ADD10C,0.120000*%
%ADD11C,0.100000*%
%ADD12C,0.150000*%
%ADD13C,0.250000*%
G04 APERTURE END LIST*
D10*
X172500000Y-38500001D02*
X172500000Y-60500001D01*
X162500000Y-38500001D02*
X162500000Y-46500001D01*
X172500000Y-60500001D02*
X136500000Y-60500001D01*
D11*
X172500000Y-38500001D02*
X136170000Y-38500001D01*
D10*
X162500000Y-60500001D02*
X162500000Y-52500001D01*
D12*
X126854819Y-89166666D02*
X127569104Y-89166666D01*
X127569104Y-89166666D02*
X127711961Y-89119047D01*
X127711961Y-89119047D02*
X127807200Y-89023809D01*
X127807200Y-89023809D02*
X127854819Y-88880952D01*
X127854819Y-88880952D02*
X127854819Y-88785714D01*
X126950057Y-89595238D02*
X126902438Y-89642857D01*
X126902438Y-89642857D02*
X126854819Y-89738095D01*
X126854819Y-89738095D02*
X126854819Y-89976190D01*
X126854819Y-89976190D02*
X126902438Y-90071428D01*
X126902438Y-90071428D02*
X126950057Y-90119047D01*
X126950057Y-90119047D02*
X127045295Y-90166666D01*
X127045295Y-90166666D02*
X127140533Y-90166666D01*
X127140533Y-90166666D02*
X127283390Y-90119047D01*
X127283390Y-90119047D02*
X127854819Y-89547619D01*
X127854819Y-89547619D02*
X127854819Y-90166666D01*
D13*
%TO.C,J9*%
X128750000Y-46130000D02*
X128750000Y-47870000D01*
X130850000Y-60500000D02*
X135920000Y-60500000D01*
X135920000Y-38500000D02*
X130850000Y-38500000D01*
X135920000Y-38500000D02*
X135920000Y-40120000D01*
X135920000Y-45880000D02*
X135920000Y-47620000D01*
X135920000Y-58880000D02*
X135920000Y-60500000D01*
D10*
%TO.C,J2*%
X129050000Y-65000000D02*
X129050000Y-63800000D01*
X129050000Y-82600000D02*
X129050000Y-79800000D01*
X129050000Y-90200000D02*
X129050000Y-89400000D01*
X132150000Y-61800000D02*
X138450000Y-61800000D01*
X138450000Y-61800000D02*
X138450000Y-64600000D01*
X138450000Y-79400000D02*
X138450000Y-82200000D01*
X138450000Y-89000000D02*
X138450000Y-92200000D01*
X138450000Y-92200000D02*
X132150000Y-92200000D01*
%TD*%
M02*
