%TF.GenerationSoftware,KiCad,Pcbnew,9.0.7-unknown-1000.20260124git33f2886.fc43*%
%TF.CreationDate,2026-02-08T17:37:17-08:00*%
%TF.ProjectId,Telemetry-Logging-Board,54656c65-6d65-4747-9279-2d4c6f676769,rev?*%
%TF.SameCoordinates,Original*%
%TF.FileFunction,Paste,Top*%
%TF.FilePolarity,Positive*%
%FSLAX46Y46*%
G04 Gerber Fmt 4.6, Leading zero omitted, Abs format (unit mm)*
G04 Created by KiCad (PCBNEW 9.0.7-unknown-1000.20260124git33f2886.fc43) date 2026-02-08 17:37:17*
%MOMM*%
%LPD*%
G01*
G04 APERTURE LIST*
G04 Aperture macros list*
%AMRoundRect*
0 Rectangle with rounded corners*
0 $1 Rounding radius*
0 $2 $3 $4 $5 $6 $7 $8 $9 X,Y pos of 4 corners*
0 Add a 4 corners polygon primitive as box body*
4,1,4,$2,$3,$4,$5,$6,$7,$8,$9,$2,$3,0*
0 Add four circle primitives for the rounded corners*
1,1,$1+$1,$2,$3*
1,1,$1+$1,$4,$5*
1,1,$1+$1,$6,$7*
1,1,$1+$1,$8,$9*
0 Add four rect primitives between the rounded corners*
20,1,$1+$1,$2,$3,$4,$5,0*
20,1,$1+$1,$4,$5,$6,$7,0*
20,1,$1+$1,$6,$7,$8,$9,0*
20,1,$1+$1,$8,$9,$2,$3,0*%
G04 Aperture macros list end*
%ADD10RoundRect,0.250000X0.262500X0.450000X-0.262500X0.450000X-0.262500X-0.450000X0.262500X-0.450000X0*%
%ADD11RoundRect,0.250000X-0.337500X-0.475000X0.337500X-0.475000X0.337500X0.475000X-0.337500X0.475000X0*%
%ADD12RoundRect,0.250000X-0.450000X0.262500X-0.450000X-0.262500X0.450000X-0.262500X0.450000X0.262500X0*%
%ADD13RoundRect,0.250000X0.450000X0.350000X-0.450000X0.350000X-0.450000X-0.350000X0.450000X-0.350000X0*%
%ADD14RoundRect,0.250000X0.475000X-0.337500X0.475000X0.337500X-0.475000X0.337500X-0.475000X-0.337500X0*%
%ADD15RoundRect,0.250000X-0.650000X0.750000X-0.650000X-0.750000X0.650000X-0.750000X0.650000X0.750000X0*%
%ADD16RoundRect,0.250000X-0.262500X-0.450000X0.262500X-0.450000X0.262500X0.450000X-0.262500X0.450000X0*%
%ADD17RoundRect,0.250000X0.337500X0.475000X-0.337500X0.475000X-0.337500X-0.475000X0.337500X-0.475000X0*%
%ADD18RoundRect,0.150000X-0.825000X-0.150000X0.825000X-0.150000X0.825000X0.150000X-0.825000X0.150000X0*%
%ADD19RoundRect,0.172500X0.172500X0.332500X-0.172500X0.332500X-0.172500X-0.332500X0.172500X-0.332500X0*%
%ADD20RoundRect,0.050000X0.350000X0.050000X-0.350000X0.050000X-0.350000X-0.050000X0.350000X-0.050000X0*%
%ADD21R,1.780000X5.080000*%
%ADD22R,3.960000X3.960000*%
%ADD23R,0.660000X0.850000*%
%ADD24O,0.850000X0.350000*%
%ADD25RoundRect,0.150000X0.825000X0.150000X-0.825000X0.150000X-0.825000X-0.150000X0.825000X-0.150000X0*%
%ADD26RoundRect,0.150000X0.425000X-0.150000X0.425000X0.150000X-0.425000X0.150000X-0.425000X-0.150000X0*%
%ADD27RoundRect,0.075000X0.500000X-0.075000X0.500000X0.075000X-0.500000X0.075000X-0.500000X-0.075000X0*%
%ADD28O,2.100000X1.000000*%
%ADD29O,1.800000X1.000000*%
%ADD30RoundRect,0.150000X0.150000X-0.512500X0.150000X0.512500X-0.150000X0.512500X-0.150000X-0.512500X0*%
%ADD31R,1.800000X1.000000*%
%ADD32RoundRect,0.250000X-0.475000X0.337500X-0.475000X-0.337500X0.475000X-0.337500X0.475000X0.337500X0*%
%ADD33RoundRect,0.150000X0.512500X0.150000X-0.512500X0.150000X-0.512500X-0.150000X0.512500X-0.150000X0*%
G04 APERTURE END LIST*
D10*
%TO.C,R9*%
X154775000Y-82180000D03*
X152950000Y-82180000D03*
%TD*%
D11*
%TO.C,C19*%
X152825000Y-77930000D03*
X154900000Y-77930000D03*
%TD*%
D12*
%TO.C,R5*%
X152162500Y-54618750D03*
X152162500Y-56443750D03*
%TD*%
D13*
%TO.C,Y2*%
X144662500Y-49466250D03*
X142462500Y-49466250D03*
X142462500Y-51166250D03*
X144662500Y-51166250D03*
%TD*%
D14*
%TO.C,C5*%
X159500000Y-61587500D03*
X159500000Y-59512500D03*
%TD*%
D15*
%TO.C,L1*%
X156500000Y-52500000D03*
X156500000Y-57000000D03*
%TD*%
D16*
%TO.C,R3*%
X138837500Y-37000000D03*
X140662500Y-37000000D03*
%TD*%
D11*
%TO.C,C22*%
X148825000Y-80180000D03*
X150900000Y-80180000D03*
%TD*%
D17*
%TO.C,C17*%
X150937500Y-82680000D03*
X148862500Y-82680000D03*
%TD*%
D11*
%TO.C,C12*%
X150537500Y-51031250D03*
X152612500Y-51031250D03*
%TD*%
%TO.C,C16*%
X148825000Y-78180000D03*
X150900000Y-78180000D03*
%TD*%
D16*
%TO.C,R1*%
X135337500Y-30750000D03*
X137162500Y-30750000D03*
%TD*%
D18*
%TO.C,U5*%
X143025000Y-61845000D03*
X143025000Y-63115000D03*
X143025000Y-64385000D03*
X143025000Y-65655000D03*
X147975000Y-65655000D03*
X147975000Y-64385000D03*
X147975000Y-63115000D03*
X147975000Y-61845000D03*
%TD*%
D17*
%TO.C,C11*%
X140612500Y-51031250D03*
X138537500Y-51031250D03*
%TD*%
D12*
%TO.C,R6*%
X153320000Y-45147500D03*
X153320000Y-46972500D03*
%TD*%
D19*
%TO.C,U10*%
X145347000Y-84441913D03*
X145347000Y-83191913D03*
X144497000Y-84441913D03*
X144497000Y-83191913D03*
D20*
X146372000Y-84941913D03*
X146372000Y-84491913D03*
X146372000Y-84041913D03*
X146372000Y-83591913D03*
X146372000Y-83141913D03*
X146372000Y-82691913D03*
X143472000Y-82691913D03*
X143472000Y-83141913D03*
X143472000Y-83591913D03*
X143472000Y-84041913D03*
X143472000Y-84491913D03*
X143472000Y-84941913D03*
%TD*%
D13*
%TO.C,Y3*%
X143000000Y-58400000D03*
X140800000Y-58400000D03*
X140800000Y-60100000D03*
X143000000Y-60100000D03*
%TD*%
D21*
%TO.C,BT1*%
X161250000Y-33000000D03*
X151850000Y-33000000D03*
D22*
X156550000Y-33000000D03*
%TD*%
D18*
%TO.C,U9*%
X145845000Y-43405000D03*
X145845000Y-44675000D03*
X145845000Y-45945000D03*
X145845000Y-47215000D03*
X150795000Y-47215000D03*
X150795000Y-45945000D03*
X150795000Y-44675000D03*
X150795000Y-43405000D03*
%TD*%
D17*
%TO.C,C14*%
X141770000Y-41795000D03*
X139695000Y-41795000D03*
%TD*%
D13*
%TO.C,Y4*%
X145820000Y-39995000D03*
X143620000Y-39995000D03*
X143620000Y-41695000D03*
X145820000Y-41695000D03*
%TD*%
D12*
%TO.C,R4*%
X150500000Y-63587500D03*
X150500000Y-65412500D03*
%TD*%
D17*
%TO.C,C8*%
X138950000Y-60000000D03*
X136875000Y-60000000D03*
%TD*%
%TO.C,C23*%
X131787500Y-36500000D03*
X129712500Y-36500000D03*
%TD*%
D10*
%TO.C,R10*%
X154687500Y-80070000D03*
X152862500Y-80070000D03*
%TD*%
D16*
%TO.C,R2*%
X135337500Y-32750000D03*
X137162500Y-32750000D03*
%TD*%
D11*
%TO.C,C10*%
X146537500Y-51031250D03*
X148612500Y-51031250D03*
%TD*%
D17*
%TO.C,C1*%
X137000000Y-34750000D03*
X134925000Y-34750000D03*
%TD*%
%TO.C,C3*%
X162562500Y-52500000D03*
X160487500Y-52500000D03*
%TD*%
D23*
%TO.C,U4*%
X139412500Y-65343750D03*
X139412500Y-64281250D03*
X139412500Y-63218750D03*
X139412500Y-62156250D03*
X138587500Y-65343750D03*
X138587500Y-64281250D03*
X138587500Y-63218750D03*
X138587500Y-62156250D03*
D24*
X140500000Y-65700000D03*
X140500000Y-65050000D03*
X140500000Y-64400000D03*
X140500000Y-63750000D03*
X140500000Y-63100000D03*
X140500000Y-62450000D03*
X140500000Y-61800000D03*
X137500000Y-61800000D03*
X137500000Y-62450000D03*
X137500000Y-63100000D03*
X137500000Y-63750000D03*
X137500000Y-64400000D03*
X137500000Y-65050000D03*
X137500000Y-65700000D03*
%TD*%
D25*
%TO.C,U1*%
X144225000Y-35155000D03*
X144225000Y-33885000D03*
X144225000Y-32615000D03*
X144225000Y-31345000D03*
X139275000Y-31345000D03*
X139275000Y-32615000D03*
X139275000Y-33885000D03*
X139275000Y-35155000D03*
%TD*%
D10*
%TO.C,R7*%
X154775000Y-86430000D03*
X152950000Y-86430000D03*
%TD*%
D18*
%TO.C,U7*%
X144687500Y-52876250D03*
X144687500Y-54146250D03*
X144687500Y-55416250D03*
X144687500Y-56686250D03*
X149637500Y-56686250D03*
X149637500Y-55416250D03*
X149637500Y-54146250D03*
X149637500Y-52876250D03*
%TD*%
D23*
%TO.C,U6*%
X141075000Y-56375000D03*
X141075000Y-55312500D03*
X141075000Y-54250000D03*
X141075000Y-53187500D03*
X140250000Y-56375000D03*
X140250000Y-55312500D03*
X140250000Y-54250000D03*
X140250000Y-53187500D03*
D24*
X142162500Y-56731250D03*
X142162500Y-56081250D03*
X142162500Y-55431250D03*
X142162500Y-54781250D03*
X142162500Y-54131250D03*
X142162500Y-53481250D03*
X142162500Y-52831250D03*
X139162500Y-52831250D03*
X139162500Y-53481250D03*
X139162500Y-54131250D03*
X139162500Y-54781250D03*
X139162500Y-55431250D03*
X139162500Y-56081250D03*
X139162500Y-56731250D03*
%TD*%
D26*
%TO.C,J8*%
X157820000Y-84950000D03*
X157820000Y-84150000D03*
D27*
X157820000Y-83000000D03*
X157820000Y-82000000D03*
X157820000Y-81500000D03*
X157820000Y-80500000D03*
D26*
X157820000Y-79350000D03*
X157820000Y-78550000D03*
X157820000Y-78550000D03*
X157820000Y-79350000D03*
D27*
X157820000Y-80000000D03*
X157820000Y-81000000D03*
X157820000Y-82500000D03*
X157820000Y-83500000D03*
D26*
X157820000Y-84150000D03*
X157820000Y-84950000D03*
D28*
X158395000Y-86070000D03*
D29*
X162575000Y-86070000D03*
D28*
X158395000Y-77430000D03*
D29*
X162575000Y-77430000D03*
%TD*%
D11*
%TO.C,C7*%
X144962500Y-60000000D03*
X147037500Y-60000000D03*
%TD*%
%TO.C,C9*%
X148875000Y-60000000D03*
X150950000Y-60000000D03*
%TD*%
D30*
%TO.C,U2*%
X162200000Y-57075000D03*
X163150000Y-57075000D03*
X164100000Y-57075000D03*
X164100000Y-54800000D03*
X163150000Y-54800000D03*
X162200000Y-54800000D03*
%TD*%
D31*
%TO.C,Y1*%
X146912500Y-34750000D03*
X146912500Y-37250000D03*
%TD*%
D10*
%TO.C,R8*%
X151025000Y-85180000D03*
X149200000Y-85180000D03*
%TD*%
D14*
%TO.C,C2*%
X161750000Y-61587500D03*
X161750000Y-59512500D03*
%TD*%
D11*
%TO.C,C15*%
X151695000Y-41560000D03*
X153770000Y-41560000D03*
%TD*%
D23*
%TO.C,U8*%
X142232500Y-46903750D03*
X142232500Y-45841250D03*
X142232500Y-44778750D03*
X142232500Y-43716250D03*
X141407500Y-46903750D03*
X141407500Y-45841250D03*
X141407500Y-44778750D03*
X141407500Y-43716250D03*
D24*
X143320000Y-47260000D03*
X143320000Y-46610000D03*
X143320000Y-45960000D03*
X143320000Y-45310000D03*
X143320000Y-44660000D03*
X143320000Y-44010000D03*
X143320000Y-43360000D03*
X140320000Y-43360000D03*
X140320000Y-44010000D03*
X140320000Y-44660000D03*
X140320000Y-45310000D03*
X140320000Y-45960000D03*
X140320000Y-46610000D03*
X140320000Y-47260000D03*
%TD*%
D17*
%TO.C,C21*%
X131737500Y-34500000D03*
X129662500Y-34500000D03*
%TD*%
D32*
%TO.C,C4*%
X160400000Y-54750000D03*
X160400000Y-56825000D03*
%TD*%
D11*
%TO.C,C13*%
X147695000Y-41560000D03*
X149770000Y-41560000D03*
%TD*%
D33*
%TO.C,U3*%
X156775000Y-61450000D03*
X156775000Y-60500000D03*
X156775000Y-59550000D03*
X154500000Y-59550000D03*
X154500000Y-61450000D03*
%TD*%
D17*
%TO.C,C18*%
X154862500Y-84180000D03*
X152787500Y-84180000D03*
%TD*%
%TO.C,C6*%
X156287500Y-64000000D03*
X154212500Y-64000000D03*
%TD*%
M02*
