%TF.GenerationSoftware,KiCad,Pcbnew,9.0.6-unknown-1000.20251110git96868b2.fc41*%
%TF.CreationDate,2025-12-16T17:43:44-08:00*%
%TF.ProjectId,Telemetry-Logging-Board,54656c65-6d65-4747-9279-2d4c6f676769,rev?*%
%TF.SameCoordinates,Original*%
%TF.FileFunction,Soldermask,Bot*%
%TF.FilePolarity,Negative*%
%FSLAX46Y46*%
G04 Gerber Fmt 4.6, Leading zero omitted, Abs format (unit mm)*
G04 Created by KiCad (PCBNEW 9.0.6-unknown-1000.20251110git96868b2.fc41) date 2025-12-16 17:43:44*
%MOMM*%
%LPD*%
G01*
G04 APERTURE LIST*
G04 Aperture macros list*
%AMRoundRect*
0 Rectangle with rounded corners*
0 $1 Rounding radius*
0 $2 $3 $4 $5 $6 $7 $8 $9 X,Y pos of 4 corners*
0 Add a 4 corners polygon primitive as box body*
4,1,4,$2,$3,$4,$5,$6,$7,$8,$9,$2,$3,0*
0 Add four circle primitives for the rounded corners*
1,1,$1+$1,$2,$3*
1,1,$1+$1,$4,$5*
1,1,$1+$1,$6,$7*
1,1,$1+$1,$8,$9*
0 Add four rect primitives between the rounded corners*
20,1,$1+$1,$2,$3,$4,$5,0*
20,1,$1+$1,$4,$5,$6,$7,0*
20,1,$1+$1,$6,$7,$8,$9,0*
20,1,$1+$1,$8,$9,$2,$3,0*%
G04 Aperture macros list end*
%ADD10R,1.700000X1.700000*%
%ADD11C,1.700000*%
%ADD12C,1.300000*%
%ADD13RoundRect,0.250000X0.850000X0.600000X-0.850000X0.600000X-0.850000X-0.600000X0.850000X-0.600000X0*%
%ADD14O,2.200000X1.700000*%
%ADD15RoundRect,0.250000X-0.600000X0.850000X-0.600000X-0.850000X0.600000X-0.850000X0.600000X0.850000X0*%
%ADD16O,1.700000X2.200000*%
%ADD17C,0.650000*%
%ADD18O,2.100000X1.000000*%
%ADD19O,1.800000X1.000000*%
%ADD20C,1.100000*%
%ADD21C,1.600000*%
%ADD22R,1.550000X0.300000*%
%ADD23R,2.750000X1.200000*%
%ADD24R,2.000000X0.600000*%
%ADD25R,3.200000X2.300000*%
G04 APERTURE END LIST*
D10*
%TO.C,J1*%
X126275000Y-84375000D03*
D11*
X123735000Y-84375000D03*
X126275000Y-81835000D03*
X123735000Y-81835000D03*
X126275000Y-79295000D03*
X123735000Y-79295000D03*
X126275000Y-76755000D03*
X123735000Y-76755000D03*
X126275000Y-74215000D03*
X123735000Y-74215000D03*
X126275000Y-71675000D03*
X123735000Y-71675000D03*
X126275000Y-69135000D03*
X123735000Y-69135000D03*
X126275000Y-66595000D03*
X123735000Y-66595000D03*
X126275000Y-64055000D03*
X123735000Y-64055000D03*
X126275000Y-61515000D03*
X123735000Y-61515000D03*
X126275000Y-58975000D03*
X123735000Y-58975000D03*
X126275000Y-56435000D03*
X123735000Y-56435000D03*
X126275000Y-53895000D03*
X123735000Y-53895000D03*
X126275000Y-51355000D03*
X123735000Y-51355000D03*
X126275000Y-48815000D03*
X123735000Y-48815000D03*
X126275000Y-46275000D03*
X123735000Y-46275000D03*
X126275000Y-43735000D03*
X123735000Y-43735000D03*
X126275000Y-41195000D03*
X123735000Y-41195000D03*
X126275000Y-38655000D03*
X123735000Y-38655000D03*
X126275000Y-36115000D03*
X123735000Y-36115000D03*
%TD*%
D12*
%TO.C,J6*%
X159665000Y-44250000D03*
D13*
X158325000Y-48000000D03*
D14*
X158325000Y-45500000D03*
X158325000Y-43000000D03*
X158325000Y-40500000D03*
%TD*%
D12*
%TO.C,J3*%
X159000000Y-70585000D03*
D15*
X162750000Y-71925000D03*
D16*
X160250000Y-71925000D03*
X157750000Y-71925000D03*
X155250000Y-71925000D03*
%TD*%
D17*
%TO.C,J8*%
X158895000Y-84640000D03*
X158895000Y-78860000D03*
D18*
X158395000Y-86070000D03*
D19*
X162575000Y-86070000D03*
D18*
X158395000Y-77430000D03*
D19*
X162575000Y-77430000D03*
%TD*%
D20*
%TO.C,J9*%
X133750000Y-39500000D03*
D21*
X133750000Y-59500000D03*
D22*
X128470000Y-40250000D03*
X136030000Y-40500000D03*
X128470000Y-40750000D03*
X136030000Y-41000000D03*
X128470000Y-41250000D03*
X136030000Y-41500000D03*
X128470000Y-41750000D03*
X136030000Y-42000000D03*
X128470000Y-42250000D03*
X136030000Y-42500000D03*
X128470000Y-42750000D03*
X136030000Y-43000000D03*
X128470000Y-43250000D03*
X136030000Y-43500000D03*
X128470000Y-43750000D03*
X136030000Y-44000000D03*
X128470000Y-44250000D03*
X136030000Y-44500000D03*
X128470000Y-44750000D03*
X136030000Y-45000000D03*
X128470000Y-45250000D03*
X136030000Y-45500000D03*
X128470000Y-45750000D03*
X136030000Y-48000000D03*
X128470000Y-48250000D03*
X136030000Y-48500000D03*
X128470000Y-48750000D03*
X136030000Y-49000000D03*
X128470000Y-49250000D03*
X136030000Y-49500000D03*
X128470000Y-49750000D03*
X136030000Y-50000000D03*
X128470000Y-50250000D03*
X136030000Y-50500000D03*
X128470000Y-50750000D03*
X136030000Y-51000000D03*
X128470000Y-51250000D03*
X136030000Y-51500000D03*
X128470000Y-51750000D03*
X136030000Y-52000000D03*
X128470000Y-52250000D03*
X136030000Y-52500000D03*
X128470000Y-52750000D03*
X136030000Y-53000000D03*
X128470000Y-53250000D03*
X136030000Y-53500000D03*
X128470000Y-53750000D03*
X136030000Y-54000000D03*
X128470000Y-54250000D03*
X136030000Y-54500000D03*
X128470000Y-54750000D03*
X136030000Y-55000000D03*
X128470000Y-55250000D03*
X136030000Y-55500000D03*
X128470000Y-55750000D03*
X136030000Y-56000000D03*
X128470000Y-56250000D03*
X136030000Y-56500000D03*
X128470000Y-56750000D03*
X136030000Y-57000000D03*
X128470000Y-57250000D03*
X136030000Y-57500000D03*
X128470000Y-57750000D03*
X136030000Y-58000000D03*
X128470000Y-58250000D03*
X136030000Y-58500000D03*
X128470000Y-58750000D03*
D23*
X129250000Y-59850000D03*
X129250000Y-39150000D03*
%TD*%
D21*
%TO.C,J2*%
X133750000Y-89500000D03*
D20*
X133750000Y-64500000D03*
D24*
X129650000Y-88800000D03*
X137850000Y-88400000D03*
X129650000Y-88000000D03*
X137850000Y-87600000D03*
X129650000Y-87200000D03*
X137850000Y-86800000D03*
X129650000Y-86400000D03*
X137850000Y-86000000D03*
X129650000Y-85600000D03*
X137850000Y-85200000D03*
X129650000Y-84800000D03*
X137850000Y-84400000D03*
X129650000Y-84000000D03*
X137850000Y-83600000D03*
X129650000Y-83200000D03*
X137850000Y-82800000D03*
X129650000Y-79200000D03*
X137850000Y-78800000D03*
X129650000Y-78400000D03*
X137850000Y-78000000D03*
X129650000Y-77600000D03*
X137850000Y-77200000D03*
X129650000Y-76800000D03*
X137850000Y-76400000D03*
X129650000Y-76000000D03*
X137850000Y-75600000D03*
X129650000Y-75200000D03*
X137850000Y-74800000D03*
X129650000Y-74400000D03*
X137850000Y-74000000D03*
X129650000Y-73600000D03*
X137850000Y-73200000D03*
X129650000Y-72800000D03*
X137850000Y-72400000D03*
X129650000Y-72000000D03*
X137850000Y-71600000D03*
X129650000Y-71200000D03*
X137850000Y-70800000D03*
X129650000Y-70400000D03*
X137850000Y-70000000D03*
X129650000Y-69600000D03*
X137850000Y-69200000D03*
X129650000Y-68800000D03*
X137850000Y-68400000D03*
X129650000Y-68000000D03*
X137850000Y-67600000D03*
X129650000Y-67200000D03*
X137850000Y-66800000D03*
X129650000Y-66400000D03*
X137850000Y-66000000D03*
X129650000Y-65600000D03*
X137850000Y-65200000D03*
D25*
X130250000Y-91650000D03*
X130250000Y-62350000D03*
%TD*%
M02*
