M48
; DRILL file {KiCad 9.0.1} date 2025-09-03T00:36:16-0700
; FORMAT={-:-/ absolute / inch / decimal}
; #@! TF.CreationDate,2025-09-03T00:36:16-07:00
; #@! TF.GenerationSoftware,Kicad,Pcbnew,9.0.1
; #@! TF.FileFunction,Plated,1,4,PTH
FMAT,2
INCH
; #@! TA.AperFunction,Plated,PTH,ViaDrill
T1C0.0118
; #@! TA.AperFunction,Plated,PTH,ViaDrill
T2C0.0236
; #@! TA.AperFunction,Plated,PTH,ComponentDrill
T3C0.0394
%
G90
G05
T1
X5.17Y-3.49
X5.29Y-3.49
X5.302Y-3.358
X5.5808Y-3.99
X5.6343Y-3.8757
X5.7Y-3.87
X5.7Y-3.9887
X5.7062Y-3.3338
X6.05Y-3.86
X6.09Y-3.36
X6.3Y-3.49
X6.33Y-3.88
X6.71Y-3.67
T2
X5.45Y-3.35
X5.54Y-3.53
X6.32Y-3.33
T3
X5.18Y-3.75
X5.18Y-3.85
X5.18Y-3.95
X5.18Y-4.05
X5.861Y-3.6408
X5.861Y-3.7408
X6.04Y-3.64
X6.04Y-3.74
X6.21Y-3.64
X6.21Y-3.74
X6.65Y-3.81
X6.65Y-3.91
X6.65Y-4.01
X6.65Y-4.11
M30
