%TF.GenerationSoftware,KiCad,Pcbnew,9.0.1*%
%TF.CreationDate,2025-09-03T00:36:21-07:00*%
%TF.ProjectId,stm32-test,73746d33-322d-4746-9573-742e6b696361,rev?*%
%TF.SameCoordinates,Original*%
%TF.FileFunction,Copper,L3,Inr*%
%TF.FilePolarity,Positive*%
%FSLAX46Y46*%
G04 Gerber Fmt 4.6, Leading zero omitted, Abs format (unit mm)*
G04 Created by KiCad (PCBNEW 9.0.1) date 2025-09-03 00:36:21*
%MOMM*%
%LPD*%
G01*
G04 APERTURE LIST*
%TA.AperFunction,ComponentPad*%
%ADD10R,1.700000X1.700000*%
%TD*%
%TA.AperFunction,ComponentPad*%
%ADD11C,1.700000*%
%TD*%
%TA.AperFunction,ViaPad*%
%ADD12C,0.600000*%
%TD*%
%TA.AperFunction,ViaPad*%
%ADD13C,1.200000*%
%TD*%
G04 APERTURE END LIST*
D10*
%TO.N,+12V*%
%TO.C,J1*%
X168910000Y-96774000D03*
D11*
%TO.N,/CANH*%
X168910000Y-99314000D03*
%TO.N,/CANL*%
X168910000Y-101854000D03*
%TO.N,GND*%
X168910000Y-104394000D03*
%TD*%
D10*
%TO.N,+3V3*%
%TO.C,J4*%
X153416000Y-92456000D03*
D11*
%TO.N,GND*%
X153416000Y-94996000D03*
%TD*%
%TO.N,/SPI_CS*%
%TO.C,J2*%
X131572000Y-95250000D03*
%TO.N,/SPI_CLK*%
X131572000Y-97790000D03*
%TO.N,/SPI_MISO*%
X131572000Y-100330000D03*
D10*
%TO.N,/SPI_MOSI*%
X131572000Y-102870000D03*
%TD*%
D11*
%TO.N,/I2C_SCL*%
%TO.C,J5*%
X148869000Y-95016000D03*
D10*
%TO.N,/I2C_SDA*%
X148869000Y-92476000D03*
%TD*%
D11*
%TO.N,GND*%
%TO.C,J6*%
X157734000Y-94996000D03*
D10*
%TO.N,+3V3*%
X157734000Y-92456000D03*
%TD*%
D12*
%TO.N,/NRST*%
X131318000Y-88646000D03*
X134366000Y-88646000D03*
%TO.N,+3V3*%
X153670000Y-98044000D03*
%TO.N,+5V*%
X160020000Y-88646000D03*
X170434000Y-93218000D03*
X160782000Y-98552000D03*
D13*
%TO.N,GND*%
X140716000Y-89662000D03*
D12*
X144937910Y-84678090D03*
X134672000Y-85292000D03*
%TO.N,+3V3*%
X141752000Y-101346000D03*
D13*
X138430000Y-85090000D03*
D12*
X144780000Y-101314000D03*
D13*
X160528000Y-84582000D03*
D12*
X154686000Y-85344000D03*
%TO.N,/I2C_SCL*%
X144780000Y-98298000D03*
%TO.N,/I2C_SDA*%
X143111787Y-98442213D03*
%TD*%
%TA.AperFunction,Conductor*%
%TO.N,+3V3*%
G36*
X172409039Y-81553685D02*
G01*
X172454794Y-81606489D01*
X172466000Y-81658000D01*
X172466000Y-106302000D01*
X172446315Y-106369039D01*
X172393511Y-106414794D01*
X172342000Y-106426000D01*
X124838000Y-106426000D01*
X124770961Y-106406315D01*
X124725206Y-106353511D01*
X124714000Y-106302000D01*
X124714000Y-104294000D01*
X153298000Y-104294000D01*
X156074000Y-104294000D01*
X156074000Y-104290530D01*
X167859500Y-104290530D01*
X167859500Y-104497469D01*
X167899868Y-104700412D01*
X167899870Y-104700420D01*
X167979058Y-104891596D01*
X168094024Y-105063657D01*
X168240342Y-105209975D01*
X168240345Y-105209977D01*
X168412402Y-105324941D01*
X168603580Y-105404130D01*
X168806530Y-105444499D01*
X168806534Y-105444500D01*
X168806535Y-105444500D01*
X169013466Y-105444500D01*
X169013467Y-105444499D01*
X169216420Y-105404130D01*
X169407598Y-105324941D01*
X169579655Y-105209977D01*
X169725977Y-105063655D01*
X169840941Y-104891598D01*
X169920130Y-104700420D01*
X169960500Y-104497465D01*
X169960500Y-104290535D01*
X169920130Y-104087580D01*
X169840941Y-103896402D01*
X169725977Y-103724345D01*
X169725975Y-103724342D01*
X169579657Y-103578024D01*
X169493626Y-103520541D01*
X169407598Y-103463059D01*
X169216420Y-103383870D01*
X169216412Y-103383868D01*
X169013469Y-103343500D01*
X169013465Y-103343500D01*
X168806535Y-103343500D01*
X168806530Y-103343500D01*
X168603587Y-103383868D01*
X168603579Y-103383870D01*
X168412403Y-103463058D01*
X168240342Y-103578024D01*
X168094024Y-103724342D01*
X167979058Y-103896403D01*
X167899870Y-104087579D01*
X167899868Y-104087587D01*
X167859500Y-104290530D01*
X156074000Y-104290530D01*
X156074000Y-101750530D01*
X167859500Y-101750530D01*
X167859500Y-101957469D01*
X167899868Y-102160412D01*
X167899870Y-102160420D01*
X167979058Y-102351596D01*
X168094024Y-102523657D01*
X168240342Y-102669975D01*
X168240345Y-102669977D01*
X168412402Y-102784941D01*
X168603580Y-102864130D01*
X168806530Y-102904499D01*
X168806534Y-102904500D01*
X168806535Y-102904500D01*
X169013466Y-102904500D01*
X169013467Y-102904499D01*
X169216420Y-102864130D01*
X169407598Y-102784941D01*
X169579655Y-102669977D01*
X169725977Y-102523655D01*
X169840941Y-102351598D01*
X169920130Y-102160420D01*
X169960500Y-101957465D01*
X169960500Y-101750535D01*
X169920130Y-101547580D01*
X169840941Y-101356402D01*
X169725977Y-101184345D01*
X169725975Y-101184342D01*
X169579657Y-101038024D01*
X169493626Y-100980541D01*
X169407598Y-100923059D01*
X169216420Y-100843870D01*
X169216412Y-100843868D01*
X169013469Y-100803500D01*
X169013465Y-100803500D01*
X168806535Y-100803500D01*
X168806530Y-100803500D01*
X168603587Y-100843868D01*
X168603579Y-100843870D01*
X168412403Y-100923058D01*
X168240342Y-101038024D01*
X168094024Y-101184342D01*
X167979058Y-101356403D01*
X167899870Y-101547579D01*
X167899868Y-101547587D01*
X167859500Y-101750530D01*
X156074000Y-101750530D01*
X156074000Y-99314000D01*
X153298000Y-99314000D01*
X153298000Y-104294000D01*
X124714000Y-104294000D01*
X124714000Y-102000247D01*
X130521500Y-102000247D01*
X130521500Y-103739752D01*
X130533131Y-103798229D01*
X130533132Y-103798230D01*
X130577447Y-103864552D01*
X130643769Y-103908867D01*
X130643770Y-103908868D01*
X130702247Y-103920499D01*
X130702250Y-103920500D01*
X130702252Y-103920500D01*
X132441750Y-103920500D01*
X132441751Y-103920499D01*
X132456568Y-103917552D01*
X132500229Y-103908868D01*
X132500229Y-103908867D01*
X132500231Y-103908867D01*
X132566552Y-103864552D01*
X132610867Y-103798231D01*
X132610867Y-103798229D01*
X132610868Y-103798229D01*
X132622499Y-103739752D01*
X132622500Y-103739750D01*
X132622500Y-102000249D01*
X132622499Y-102000247D01*
X132610868Y-101941770D01*
X132610867Y-101941769D01*
X132566552Y-101875447D01*
X132500230Y-101831132D01*
X132500229Y-101831131D01*
X132441752Y-101819500D01*
X132441748Y-101819500D01*
X130702252Y-101819500D01*
X130702247Y-101819500D01*
X130643770Y-101831131D01*
X130643769Y-101831132D01*
X130577447Y-101875447D01*
X130533132Y-101941769D01*
X130533131Y-101941770D01*
X130521500Y-102000247D01*
X124714000Y-102000247D01*
X124714000Y-100226530D01*
X130521500Y-100226530D01*
X130521500Y-100433469D01*
X130561868Y-100636412D01*
X130561870Y-100636420D01*
X130641058Y-100827596D01*
X130756024Y-100999657D01*
X130902342Y-101145975D01*
X130902345Y-101145977D01*
X131074402Y-101260941D01*
X131265580Y-101340130D01*
X131468530Y-101380499D01*
X131468534Y-101380500D01*
X131468535Y-101380500D01*
X131675466Y-101380500D01*
X131675467Y-101380499D01*
X131878420Y-101340130D01*
X132069598Y-101260941D01*
X132241655Y-101145977D01*
X132387977Y-100999655D01*
X132502941Y-100827598D01*
X132582130Y-100636420D01*
X132622500Y-100433465D01*
X132622500Y-100226535D01*
X132582130Y-100023580D01*
X132502941Y-99832402D01*
X132387977Y-99660345D01*
X132387975Y-99660342D01*
X132241657Y-99514024D01*
X132069596Y-99399057D01*
X132016824Y-99377199D01*
X131878420Y-99319870D01*
X131878412Y-99319868D01*
X131675469Y-99279500D01*
X131675465Y-99279500D01*
X131468535Y-99279500D01*
X131468530Y-99279500D01*
X131265587Y-99319868D01*
X131265579Y-99319870D01*
X131074403Y-99399058D01*
X130902342Y-99514024D01*
X130756024Y-99660342D01*
X130641058Y-99832403D01*
X130561870Y-100023579D01*
X130561868Y-100023587D01*
X130521500Y-100226530D01*
X124714000Y-100226530D01*
X124714000Y-99210530D01*
X167859500Y-99210530D01*
X167859500Y-99417469D01*
X167899868Y-99620412D01*
X167899870Y-99620420D01*
X167979059Y-99811598D01*
X168036541Y-99897626D01*
X168094024Y-99983657D01*
X168240342Y-100129975D01*
X168240345Y-100129977D01*
X168412402Y-100244941D01*
X168603580Y-100324130D01*
X168806530Y-100364499D01*
X168806534Y-100364500D01*
X168806535Y-100364500D01*
X169013466Y-100364500D01*
X169013467Y-100364499D01*
X169216420Y-100324130D01*
X169407598Y-100244941D01*
X169579655Y-100129977D01*
X169725977Y-99983655D01*
X169840941Y-99811598D01*
X169920130Y-99620420D01*
X169960500Y-99417465D01*
X169960500Y-99210535D01*
X169920130Y-99007580D01*
X169840941Y-98816402D01*
X169725977Y-98644345D01*
X169725975Y-98644342D01*
X169579657Y-98498024D01*
X169493626Y-98440541D01*
X169407598Y-98383059D01*
X169391331Y-98376321D01*
X169216420Y-98303870D01*
X169216412Y-98303868D01*
X169013469Y-98263500D01*
X169013465Y-98263500D01*
X168806535Y-98263500D01*
X168806530Y-98263500D01*
X168603587Y-98303868D01*
X168603579Y-98303870D01*
X168412403Y-98383058D01*
X168240342Y-98498024D01*
X168094024Y-98644342D01*
X167979058Y-98816403D01*
X167899870Y-99007579D01*
X167899868Y-99007587D01*
X167859500Y-99210530D01*
X124714000Y-99210530D01*
X124714000Y-97686530D01*
X130521500Y-97686530D01*
X130521500Y-97893469D01*
X130561868Y-98096412D01*
X130561870Y-98096420D01*
X130641058Y-98287596D01*
X130756024Y-98459657D01*
X130902342Y-98605975D01*
X130902345Y-98605977D01*
X131074402Y-98720941D01*
X131265580Y-98800130D01*
X131468530Y-98840499D01*
X131468534Y-98840500D01*
X131468535Y-98840500D01*
X131675466Y-98840500D01*
X131675467Y-98840499D01*
X131878420Y-98800130D01*
X132069598Y-98720941D01*
X132241655Y-98605977D01*
X132387977Y-98459655D01*
X132443659Y-98376321D01*
X142611287Y-98376321D01*
X142611287Y-98508104D01*
X142645395Y-98635400D01*
X142650558Y-98644342D01*
X142711287Y-98749527D01*
X142804473Y-98842713D01*
X142918601Y-98908605D01*
X143045895Y-98942713D01*
X143045897Y-98942713D01*
X143177677Y-98942713D01*
X143177679Y-98942713D01*
X143304973Y-98908605D01*
X143419101Y-98842713D01*
X143512287Y-98749527D01*
X143578179Y-98635399D01*
X143612287Y-98508105D01*
X143612287Y-98376321D01*
X143578179Y-98249027D01*
X143568411Y-98232108D01*
X144279500Y-98232108D01*
X144279500Y-98363892D01*
X144284636Y-98383059D01*
X144313608Y-98491187D01*
X144323376Y-98508105D01*
X144379500Y-98605314D01*
X144472686Y-98698500D01*
X144586814Y-98764392D01*
X144714108Y-98798500D01*
X144714110Y-98798500D01*
X144845890Y-98798500D01*
X144845892Y-98798500D01*
X144973186Y-98764392D01*
X145087314Y-98698500D01*
X145180500Y-98605314D01*
X145246392Y-98491186D01*
X145247753Y-98486108D01*
X160281500Y-98486108D01*
X160281500Y-98617891D01*
X160315608Y-98745187D01*
X160346388Y-98798499D01*
X160381500Y-98859314D01*
X160474686Y-98952500D01*
X160588814Y-99018392D01*
X160716108Y-99052500D01*
X160716110Y-99052500D01*
X160847890Y-99052500D01*
X160847892Y-99052500D01*
X160975186Y-99018392D01*
X161089314Y-98952500D01*
X161182500Y-98859314D01*
X161248392Y-98745186D01*
X161282500Y-98617892D01*
X161282500Y-98486108D01*
X161248392Y-98358814D01*
X161182500Y-98244686D01*
X161089314Y-98151500D01*
X161008452Y-98104814D01*
X160975187Y-98085608D01*
X160911539Y-98068554D01*
X160847892Y-98051500D01*
X160716108Y-98051500D01*
X160588812Y-98085608D01*
X160474686Y-98151500D01*
X160474683Y-98151502D01*
X160381502Y-98244683D01*
X160381500Y-98244686D01*
X160315608Y-98358812D01*
X160281500Y-98486108D01*
X145247753Y-98486108D01*
X145280500Y-98363892D01*
X145280500Y-98232108D01*
X145246392Y-98104814D01*
X145180500Y-97990686D01*
X145087314Y-97897500D01*
X145030250Y-97864554D01*
X144973187Y-97831608D01*
X144903243Y-97812867D01*
X144845892Y-97797500D01*
X144714108Y-97797500D01*
X144586812Y-97831608D01*
X144472686Y-97897500D01*
X144472683Y-97897502D01*
X144379502Y-97990683D01*
X144379500Y-97990686D01*
X144313608Y-98104812D01*
X144301098Y-98151502D01*
X144279500Y-98232108D01*
X143568411Y-98232108D01*
X143512287Y-98134899D01*
X143419101Y-98041713D01*
X143330715Y-97990683D01*
X143304974Y-97975821D01*
X143241326Y-97958767D01*
X143177679Y-97941713D01*
X143045895Y-97941713D01*
X142918599Y-97975821D01*
X142804473Y-98041713D01*
X142804470Y-98041715D01*
X142711289Y-98134896D01*
X142711287Y-98134899D01*
X142645395Y-98249025D01*
X142611287Y-98376321D01*
X132443659Y-98376321D01*
X132502941Y-98287598D01*
X132582130Y-98096420D01*
X132622500Y-97893465D01*
X132622500Y-97686535D01*
X132582130Y-97483580D01*
X132502941Y-97292402D01*
X132387977Y-97120345D01*
X132387975Y-97120342D01*
X132241657Y-96974024D01*
X132155626Y-96916541D01*
X132069598Y-96859059D01*
X131878420Y-96779870D01*
X131878412Y-96779868D01*
X131675469Y-96739500D01*
X131675465Y-96739500D01*
X131468535Y-96739500D01*
X131468530Y-96739500D01*
X131265587Y-96779868D01*
X131265579Y-96779870D01*
X131074403Y-96859058D01*
X130902342Y-96974024D01*
X130756024Y-97120342D01*
X130641058Y-97292403D01*
X130561870Y-97483579D01*
X130561868Y-97483587D01*
X130521500Y-97686530D01*
X124714000Y-97686530D01*
X124714000Y-95146530D01*
X130521500Y-95146530D01*
X130521500Y-95353469D01*
X130553352Y-95513598D01*
X130561870Y-95556420D01*
X130641059Y-95747598D01*
X130684073Y-95811974D01*
X130756024Y-95919657D01*
X130902342Y-96065975D01*
X130902345Y-96065977D01*
X131074402Y-96180941D01*
X131265580Y-96260130D01*
X131468530Y-96300499D01*
X131468534Y-96300500D01*
X131468535Y-96300500D01*
X131675466Y-96300500D01*
X131675467Y-96300499D01*
X131878420Y-96260130D01*
X132069598Y-96180941D01*
X132241655Y-96065977D01*
X132387977Y-95919655D01*
X132502941Y-95747598D01*
X132582130Y-95556420D01*
X132622500Y-95353465D01*
X132622500Y-95146535D01*
X132617116Y-95119466D01*
X132582132Y-94943587D01*
X132582129Y-94943579D01*
X132569268Y-94912530D01*
X147818500Y-94912530D01*
X147818500Y-95119469D01*
X147858868Y-95322412D01*
X147858870Y-95322420D01*
X147938058Y-95513596D01*
X148053024Y-95685657D01*
X148199342Y-95831975D01*
X148199345Y-95831977D01*
X148371402Y-95946941D01*
X148562580Y-96026130D01*
X148762896Y-96065975D01*
X148765530Y-96066499D01*
X148765534Y-96066500D01*
X148765535Y-96066500D01*
X148972466Y-96066500D01*
X148972467Y-96066499D01*
X149175420Y-96026130D01*
X149366598Y-95946941D01*
X149538655Y-95831977D01*
X149684977Y-95685655D01*
X149799941Y-95513598D01*
X149879130Y-95322420D01*
X149919500Y-95119465D01*
X149919500Y-94912535D01*
X149919123Y-94910639D01*
X149919123Y-94910637D01*
X149919122Y-94910634D01*
X149915521Y-94892530D01*
X152365500Y-94892530D01*
X152365500Y-95099469D01*
X152405868Y-95302412D01*
X152405870Y-95302420D01*
X152485059Y-95493598D01*
X152527030Y-95556412D01*
X152600024Y-95665657D01*
X152746342Y-95811975D01*
X152746345Y-95811977D01*
X152918402Y-95926941D01*
X153109580Y-96006130D01*
X153312530Y-96046499D01*
X153312534Y-96046500D01*
X153312535Y-96046500D01*
X153519466Y-96046500D01*
X153519467Y-96046499D01*
X153722420Y-96006130D01*
X153913598Y-95926941D01*
X154085655Y-95811977D01*
X154231977Y-95665655D01*
X154346941Y-95493598D01*
X154426130Y-95302420D01*
X154466500Y-95099465D01*
X154466500Y-94892535D01*
X154466499Y-94892530D01*
X156683500Y-94892530D01*
X156683500Y-95099469D01*
X156723868Y-95302412D01*
X156723870Y-95302420D01*
X156803059Y-95493598D01*
X156845030Y-95556412D01*
X156918024Y-95665657D01*
X157064342Y-95811975D01*
X157064345Y-95811977D01*
X157236402Y-95926941D01*
X157427580Y-96006130D01*
X157630530Y-96046499D01*
X157630534Y-96046500D01*
X157630535Y-96046500D01*
X157837466Y-96046500D01*
X157837467Y-96046499D01*
X158040420Y-96006130D01*
X158231598Y-95926941D01*
X158265562Y-95904247D01*
X167859500Y-95904247D01*
X167859500Y-97643752D01*
X167871131Y-97702229D01*
X167871132Y-97702230D01*
X167915447Y-97768552D01*
X167981769Y-97812867D01*
X167981770Y-97812868D01*
X168040247Y-97824499D01*
X168040250Y-97824500D01*
X168040252Y-97824500D01*
X169779750Y-97824500D01*
X169779751Y-97824499D01*
X169794568Y-97821552D01*
X169838229Y-97812868D01*
X169838229Y-97812867D01*
X169838231Y-97812867D01*
X169904552Y-97768552D01*
X169948867Y-97702231D01*
X169948867Y-97702229D01*
X169948868Y-97702229D01*
X169960499Y-97643752D01*
X169960500Y-97643750D01*
X169960500Y-95904249D01*
X169960499Y-95904247D01*
X169948868Y-95845770D01*
X169948867Y-95845769D01*
X169904552Y-95779447D01*
X169838230Y-95735132D01*
X169838229Y-95735131D01*
X169779752Y-95723500D01*
X169779748Y-95723500D01*
X168040252Y-95723500D01*
X168040247Y-95723500D01*
X167981770Y-95735131D01*
X167981769Y-95735132D01*
X167915447Y-95779447D01*
X167871132Y-95845769D01*
X167871131Y-95845770D01*
X167859500Y-95904247D01*
X158265562Y-95904247D01*
X158403655Y-95811977D01*
X158403658Y-95811974D01*
X158405154Y-95810479D01*
X158549974Y-95665658D01*
X158549975Y-95665657D01*
X158549977Y-95665655D01*
X158664941Y-95493598D01*
X158744130Y-95302420D01*
X158784500Y-95099465D01*
X158784500Y-94892535D01*
X158744130Y-94689580D01*
X158664941Y-94498402D01*
X158549977Y-94326345D01*
X158549975Y-94326342D01*
X158403657Y-94180024D01*
X158261529Y-94085058D01*
X158231598Y-94065059D01*
X158040420Y-93985870D01*
X158040412Y-93985868D01*
X157837469Y-93945500D01*
X157837465Y-93945500D01*
X157630535Y-93945500D01*
X157630530Y-93945500D01*
X157427587Y-93985868D01*
X157427579Y-93985870D01*
X157236403Y-94065058D01*
X157064342Y-94180024D01*
X156918024Y-94326342D01*
X156803058Y-94498403D01*
X156723870Y-94689579D01*
X156723868Y-94689587D01*
X156683500Y-94892530D01*
X154466499Y-94892530D01*
X154426130Y-94689580D01*
X154346941Y-94498402D01*
X154231977Y-94326345D01*
X154231975Y-94326342D01*
X154085657Y-94180024D01*
X153943529Y-94085058D01*
X153913598Y-94065059D01*
X153722420Y-93985870D01*
X153722412Y-93985868D01*
X153519469Y-93945500D01*
X153519465Y-93945500D01*
X153312535Y-93945500D01*
X153312530Y-93945500D01*
X153109587Y-93985868D01*
X153109579Y-93985870D01*
X152918403Y-94065058D01*
X152746342Y-94180024D01*
X152600024Y-94326342D01*
X152485058Y-94498403D01*
X152405870Y-94689579D01*
X152405868Y-94689587D01*
X152365500Y-94892530D01*
X149915521Y-94892530D01*
X149887648Y-94752403D01*
X149879130Y-94709580D01*
X149799941Y-94518402D01*
X149684977Y-94346345D01*
X149684975Y-94346342D01*
X149538657Y-94200024D01*
X149452626Y-94142541D01*
X149366598Y-94085059D01*
X149175420Y-94005870D01*
X149175412Y-94005868D01*
X148972469Y-93965500D01*
X148972465Y-93965500D01*
X148765535Y-93965500D01*
X148765530Y-93965500D01*
X148562587Y-94005868D01*
X148562579Y-94005870D01*
X148371403Y-94085058D01*
X148199342Y-94200024D01*
X148053024Y-94346342D01*
X147938058Y-94518403D01*
X147858870Y-94709579D01*
X147858868Y-94709587D01*
X147818500Y-94912530D01*
X132569268Y-94912530D01*
X132502941Y-94752402D01*
X132387977Y-94580345D01*
X132387975Y-94580342D01*
X132241657Y-94434024D01*
X132155626Y-94376541D01*
X132069598Y-94319059D01*
X131878420Y-94239870D01*
X131878412Y-94239868D01*
X131675469Y-94199500D01*
X131675465Y-94199500D01*
X131468535Y-94199500D01*
X131468530Y-94199500D01*
X131265587Y-94239868D01*
X131265579Y-94239870D01*
X131074403Y-94319058D01*
X130902342Y-94434024D01*
X130756024Y-94580342D01*
X130641058Y-94752403D01*
X130561870Y-94943579D01*
X130561868Y-94943587D01*
X130521500Y-95146530D01*
X124714000Y-95146530D01*
X124714000Y-91606247D01*
X147818500Y-91606247D01*
X147818500Y-93345752D01*
X147830131Y-93404229D01*
X147830132Y-93404230D01*
X147874447Y-93470552D01*
X147940769Y-93514867D01*
X147940770Y-93514868D01*
X147999247Y-93526499D01*
X147999250Y-93526500D01*
X147999252Y-93526500D01*
X149738750Y-93526500D01*
X149738751Y-93526499D01*
X149753568Y-93523552D01*
X149797229Y-93514868D01*
X149797229Y-93514867D01*
X149797231Y-93514867D01*
X149863552Y-93470552D01*
X149907867Y-93404231D01*
X149907867Y-93404229D01*
X149907868Y-93404229D01*
X149919499Y-93345752D01*
X149919500Y-93345750D01*
X149919500Y-93152108D01*
X169933500Y-93152108D01*
X169933500Y-93283891D01*
X169967608Y-93411187D01*
X170000554Y-93468250D01*
X170033500Y-93525314D01*
X170126686Y-93618500D01*
X170240814Y-93684392D01*
X170368108Y-93718500D01*
X170368110Y-93718500D01*
X170499890Y-93718500D01*
X170499892Y-93718500D01*
X170627186Y-93684392D01*
X170741314Y-93618500D01*
X170834500Y-93525314D01*
X170900392Y-93411186D01*
X170934500Y-93283892D01*
X170934500Y-93152108D01*
X170900392Y-93024814D01*
X170834500Y-92910686D01*
X170741314Y-92817500D01*
X170684250Y-92784554D01*
X170627187Y-92751608D01*
X170563539Y-92734554D01*
X170499892Y-92717500D01*
X170368108Y-92717500D01*
X170240812Y-92751608D01*
X170126686Y-92817500D01*
X170126683Y-92817502D01*
X170033502Y-92910683D01*
X170033500Y-92910686D01*
X169967608Y-93024812D01*
X169933500Y-93152108D01*
X149919500Y-93152108D01*
X149919500Y-91606249D01*
X149919499Y-91606247D01*
X149907868Y-91547770D01*
X149907867Y-91547769D01*
X149863552Y-91481447D01*
X149797230Y-91437132D01*
X149797229Y-91437131D01*
X149738752Y-91425500D01*
X149738748Y-91425500D01*
X147999252Y-91425500D01*
X147999247Y-91425500D01*
X147940770Y-91437131D01*
X147940769Y-91437132D01*
X147874447Y-91481447D01*
X147830132Y-91547769D01*
X147830131Y-91547770D01*
X147818500Y-91606247D01*
X124714000Y-91606247D01*
X124714000Y-89583153D01*
X139915500Y-89583153D01*
X139915500Y-89740846D01*
X139946261Y-89895489D01*
X139946264Y-89895501D01*
X140006602Y-90041172D01*
X140006609Y-90041185D01*
X140094210Y-90172288D01*
X140094213Y-90172292D01*
X140205707Y-90283786D01*
X140205711Y-90283789D01*
X140336814Y-90371390D01*
X140336827Y-90371397D01*
X140482498Y-90431735D01*
X140482503Y-90431737D01*
X140637153Y-90462499D01*
X140637156Y-90462500D01*
X140637158Y-90462500D01*
X140794844Y-90462500D01*
X140794845Y-90462499D01*
X140949497Y-90431737D01*
X141095179Y-90371394D01*
X141226289Y-90283789D01*
X141337789Y-90172289D01*
X141425394Y-90041179D01*
X141485737Y-89895497D01*
X141516500Y-89740842D01*
X141516500Y-89583158D01*
X141516500Y-89583155D01*
X141516499Y-89583153D01*
X141485738Y-89428510D01*
X141485737Y-89428503D01*
X141485735Y-89428498D01*
X141425397Y-89282827D01*
X141425390Y-89282814D01*
X141337789Y-89151711D01*
X141337786Y-89151707D01*
X141226292Y-89040213D01*
X141226288Y-89040210D01*
X141095185Y-88952609D01*
X141095172Y-88952602D01*
X140949501Y-88892264D01*
X140949489Y-88892261D01*
X140794845Y-88861500D01*
X140794842Y-88861500D01*
X140637158Y-88861500D01*
X140637155Y-88861500D01*
X140482510Y-88892261D01*
X140482498Y-88892264D01*
X140336827Y-88952602D01*
X140336814Y-88952609D01*
X140205711Y-89040210D01*
X140205707Y-89040213D01*
X140094213Y-89151707D01*
X140094210Y-89151711D01*
X140006609Y-89282814D01*
X140006602Y-89282827D01*
X139946264Y-89428498D01*
X139946261Y-89428510D01*
X139915500Y-89583153D01*
X124714000Y-89583153D01*
X124714000Y-88580108D01*
X130817500Y-88580108D01*
X130817500Y-88711891D01*
X130851608Y-88839187D01*
X130864491Y-88861500D01*
X130917500Y-88953314D01*
X131010686Y-89046500D01*
X131124814Y-89112392D01*
X131252108Y-89146500D01*
X131252110Y-89146500D01*
X131383890Y-89146500D01*
X131383892Y-89146500D01*
X131511186Y-89112392D01*
X131625314Y-89046500D01*
X131718500Y-88953314D01*
X131784392Y-88839186D01*
X131818500Y-88711892D01*
X131818500Y-88580108D01*
X133865500Y-88580108D01*
X133865500Y-88711891D01*
X133899608Y-88839187D01*
X133912491Y-88861500D01*
X133965500Y-88953314D01*
X134058686Y-89046500D01*
X134172814Y-89112392D01*
X134300108Y-89146500D01*
X134300110Y-89146500D01*
X134431890Y-89146500D01*
X134431892Y-89146500D01*
X134559186Y-89112392D01*
X134673314Y-89046500D01*
X134766500Y-88953314D01*
X134832392Y-88839186D01*
X134866500Y-88711892D01*
X134866500Y-88580108D01*
X159519500Y-88580108D01*
X159519500Y-88711891D01*
X159553608Y-88839187D01*
X159566491Y-88861500D01*
X159619500Y-88953314D01*
X159712686Y-89046500D01*
X159826814Y-89112392D01*
X159954108Y-89146500D01*
X159954110Y-89146500D01*
X160085890Y-89146500D01*
X160085892Y-89146500D01*
X160213186Y-89112392D01*
X160327314Y-89046500D01*
X160420500Y-88953314D01*
X160486392Y-88839186D01*
X160520500Y-88711892D01*
X160520500Y-88580108D01*
X160486392Y-88452814D01*
X160420500Y-88338686D01*
X160327314Y-88245500D01*
X160270250Y-88212554D01*
X160213187Y-88179608D01*
X160149539Y-88162554D01*
X160085892Y-88145500D01*
X159954108Y-88145500D01*
X159826812Y-88179608D01*
X159712686Y-88245500D01*
X159712683Y-88245502D01*
X159619502Y-88338683D01*
X159619500Y-88338686D01*
X159553608Y-88452812D01*
X159519500Y-88580108D01*
X134866500Y-88580108D01*
X134832392Y-88452814D01*
X134766500Y-88338686D01*
X134673314Y-88245500D01*
X134616250Y-88212554D01*
X134559187Y-88179608D01*
X134495539Y-88162554D01*
X134431892Y-88145500D01*
X134300108Y-88145500D01*
X134172812Y-88179608D01*
X134058686Y-88245500D01*
X134058683Y-88245502D01*
X133965502Y-88338683D01*
X133965500Y-88338686D01*
X133899608Y-88452812D01*
X133865500Y-88580108D01*
X131818500Y-88580108D01*
X131784392Y-88452814D01*
X131718500Y-88338686D01*
X131625314Y-88245500D01*
X131568250Y-88212554D01*
X131511187Y-88179608D01*
X131447539Y-88162554D01*
X131383892Y-88145500D01*
X131252108Y-88145500D01*
X131124812Y-88179608D01*
X131010686Y-88245500D01*
X131010683Y-88245502D01*
X130917502Y-88338683D01*
X130917500Y-88338686D01*
X130851608Y-88452812D01*
X130817500Y-88580108D01*
X124714000Y-88580108D01*
X124714000Y-85226108D01*
X134171500Y-85226108D01*
X134171500Y-85357891D01*
X134205608Y-85485187D01*
X134238554Y-85542250D01*
X134271500Y-85599314D01*
X134364686Y-85692500D01*
X134478814Y-85758392D01*
X134606108Y-85792500D01*
X134606110Y-85792500D01*
X134737890Y-85792500D01*
X134737892Y-85792500D01*
X134865186Y-85758392D01*
X134979314Y-85692500D01*
X135072500Y-85599314D01*
X135138392Y-85485186D01*
X135172500Y-85357892D01*
X135172500Y-85226108D01*
X135138392Y-85098814D01*
X135072500Y-84984686D01*
X134979314Y-84891500D01*
X134922250Y-84858554D01*
X134865187Y-84825608D01*
X134801539Y-84808554D01*
X134737892Y-84791500D01*
X134606108Y-84791500D01*
X134478812Y-84825608D01*
X134364686Y-84891500D01*
X134364683Y-84891502D01*
X134271502Y-84984683D01*
X134271500Y-84984686D01*
X134205608Y-85098812D01*
X134171500Y-85226108D01*
X124714000Y-85226108D01*
X124714000Y-84612198D01*
X144437410Y-84612198D01*
X144437410Y-84743981D01*
X144471518Y-84871277D01*
X144504464Y-84928340D01*
X144537410Y-84985404D01*
X144630596Y-85078590D01*
X144744724Y-85144482D01*
X144872018Y-85178590D01*
X144872020Y-85178590D01*
X145003800Y-85178590D01*
X145003802Y-85178590D01*
X145131096Y-85144482D01*
X145245224Y-85078590D01*
X145338410Y-84985404D01*
X145404302Y-84871276D01*
X145438410Y-84743982D01*
X145438410Y-84612198D01*
X145404302Y-84484904D01*
X145338410Y-84370776D01*
X145245224Y-84277590D01*
X145188160Y-84244644D01*
X145131097Y-84211698D01*
X145067449Y-84194644D01*
X145003802Y-84177590D01*
X144872018Y-84177590D01*
X144744722Y-84211698D01*
X144630596Y-84277590D01*
X144630593Y-84277592D01*
X144537412Y-84370773D01*
X144537410Y-84370776D01*
X144471518Y-84484902D01*
X144437410Y-84612198D01*
X124714000Y-84612198D01*
X124714000Y-81658000D01*
X124733685Y-81590961D01*
X124786489Y-81545206D01*
X124838000Y-81534000D01*
X172342000Y-81534000D01*
X172409039Y-81553685D01*
G37*
%TD.AperFunction*%
%TD*%
M02*
