%TF.GenerationSoftware,KiCad,Pcbnew,9.0.1*%
%TF.CreationDate,2025-09-03T00:36:21-07:00*%
%TF.ProjectId,stm32-test,73746d33-322d-4746-9573-742e6b696361,rev?*%
%TF.SameCoordinates,Original*%
%TF.FileFunction,Copper,L1,Top*%
%TF.FilePolarity,Positive*%
%FSLAX46Y46*%
G04 Gerber Fmt 4.6, Leading zero omitted, Abs format (unit mm)*
G04 Created by KiCad (PCBNEW 9.0.1) date 2025-09-03 00:36:21*
%MOMM*%
%LPD*%
G01*
G04 APERTURE LIST*
G04 Aperture macros list*
%AMRoundRect*
0 Rectangle with rounded corners*
0 $1 Rounding radius*
0 $2 $3 $4 $5 $6 $7 $8 $9 X,Y pos of 4 corners*
0 Add a 4 corners polygon primitive as box body*
4,1,4,$2,$3,$4,$5,$6,$7,$8,$9,$2,$3,0*
0 Add four circle primitives for the rounded corners*
1,1,$1+$1,$2,$3*
1,1,$1+$1,$4,$5*
1,1,$1+$1,$6,$7*
1,1,$1+$1,$8,$9*
0 Add four rect primitives between the rounded corners*
20,1,$1+$1,$2,$3,$4,$5,0*
20,1,$1+$1,$4,$5,$6,$7,0*
20,1,$1+$1,$6,$7,$8,$9,0*
20,1,$1+$1,$8,$9,$2,$3,0*%
G04 Aperture macros list end*
%TA.AperFunction,ComponentPad*%
%ADD10R,1.700000X1.700000*%
%TD*%
%TA.AperFunction,ComponentPad*%
%ADD11C,1.700000*%
%TD*%
%TA.AperFunction,SMDPad,CuDef*%
%ADD12R,0.990600X2.184400*%
%TD*%
%TA.AperFunction,SMDPad,CuDef*%
%ADD13RoundRect,0.150000X-0.825000X-0.150000X0.825000X-0.150000X0.825000X0.150000X-0.825000X0.150000X0*%
%TD*%
%TA.AperFunction,SMDPad,CuDef*%
%ADD14RoundRect,0.250000X-0.337500X-0.475000X0.337500X-0.475000X0.337500X0.475000X-0.337500X0.475000X0*%
%TD*%
%TA.AperFunction,SMDPad,CuDef*%
%ADD15RoundRect,0.250000X0.337500X0.475000X-0.337500X0.475000X-0.337500X-0.475000X0.337500X-0.475000X0*%
%TD*%
%TA.AperFunction,SMDPad,CuDef*%
%ADD16RoundRect,0.250000X0.574524X0.097227X0.097227X0.574524X-0.574524X-0.097227X-0.097227X-0.574524X0*%
%TD*%
%TA.AperFunction,SMDPad,CuDef*%
%ADD17RoundRect,0.250000X0.475000X-0.337500X0.475000X0.337500X-0.475000X0.337500X-0.475000X-0.337500X0*%
%TD*%
%TA.AperFunction,SMDPad,CuDef*%
%ADD18RoundRect,0.250000X-0.475000X0.337500X-0.475000X-0.337500X0.475000X-0.337500X0.475000X0.337500X0*%
%TD*%
%TA.AperFunction,SMDPad,CuDef*%
%ADD19R,0.740000X2.400000*%
%TD*%
%TA.AperFunction,SMDPad,CuDef*%
%ADD20RoundRect,0.250000X-0.750000X-0.650000X0.750000X-0.650000X0.750000X0.650000X-0.750000X0.650000X0*%
%TD*%
%TA.AperFunction,SMDPad,CuDef*%
%ADD21RoundRect,0.250000X0.450000X-0.350000X0.450000X0.350000X-0.450000X0.350000X-0.450000X-0.350000X0*%
%TD*%
%TA.AperFunction,SMDPad,CuDef*%
%ADD22RoundRect,0.250000X0.250000X-0.525000X0.250000X0.525000X-0.250000X0.525000X-0.250000X-0.525000X0*%
%TD*%
%TA.AperFunction,SMDPad,CuDef*%
%ADD23RoundRect,0.125000X-0.530330X-0.353553X-0.353553X-0.530330X0.530330X0.353553X0.353553X0.530330X0*%
%TD*%
%TA.AperFunction,SMDPad,CuDef*%
%ADD24RoundRect,0.125000X-0.530330X0.353553X0.353553X-0.530330X0.530330X-0.353553X-0.353553X0.530330X0*%
%TD*%
%TA.AperFunction,SMDPad,CuDef*%
%ADD25RoundRect,0.150000X-0.512500X-0.150000X0.512500X-0.150000X0.512500X0.150000X-0.512500X0.150000X0*%
%TD*%
%TA.AperFunction,SMDPad,CuDef*%
%ADD26RoundRect,0.150000X0.512500X0.150000X-0.512500X0.150000X-0.512500X-0.150000X0.512500X-0.150000X0*%
%TD*%
%TA.AperFunction,SMDPad,CuDef*%
%ADD27RoundRect,0.200000X-0.250000X-0.200000X0.250000X-0.200000X0.250000X0.200000X-0.250000X0.200000X0*%
%TD*%
%TA.AperFunction,ViaPad*%
%ADD28C,0.600000*%
%TD*%
%TA.AperFunction,ViaPad*%
%ADD29C,1.200000*%
%TD*%
%TA.AperFunction,Conductor*%
%ADD30C,0.254000*%
%TD*%
%TA.AperFunction,Conductor*%
%ADD31C,0.508000*%
%TD*%
G04 APERTURE END LIST*
D10*
%TO.P,J1,1,Pin_1*%
%TO.N,+12V*%
X168910000Y-96774000D03*
D11*
%TO.P,J1,2,Pin_2*%
%TO.N,/CANH*%
X168910000Y-99314000D03*
%TO.P,J1,3,Pin_3*%
%TO.N,/CANL*%
X168910000Y-101854000D03*
%TO.P,J1,4,Pin_4*%
%TO.N,GND*%
X168910000Y-104394000D03*
%TD*%
D12*
%TO.P,SW1,1,1*%
%TO.N,GND*%
X127508000Y-98704400D03*
%TO.P,SW1,2,2*%
%TO.N,/NRST*%
X127508000Y-93827600D03*
%TD*%
D13*
%TO.P,U5,8,VCC2*%
%TO.N,+5V*%
X157161000Y-99949000D03*
%TO.P,U5,7,GND2*%
%TO.N,GND*%
X157161000Y-101219000D03*
%TO.P,U5,6,CANH*%
%TO.N,/CANH*%
X157161000Y-102489000D03*
%TO.P,U5,5,CANL*%
%TO.N,/CANL*%
X157161000Y-103759000D03*
%TO.P,U5,4,GND1*%
%TO.N,GND*%
X152211000Y-103759000D03*
%TO.P,U5,3,RXD*%
%TO.N,/CAN_RX*%
X152211000Y-102489000D03*
%TO.P,U5,2,TXD*%
%TO.N,/CAN_TX*%
X152211000Y-101219000D03*
%TO.P,U5,1,VCC1*%
%TO.N,+3V3*%
X152211000Y-99949000D03*
%TD*%
D10*
%TO.P,J4,1,Pin_1*%
%TO.N,+3V3*%
X153416000Y-92456000D03*
D11*
%TO.P,J4,2,Pin_2*%
%TO.N,GND*%
X153416000Y-94996000D03*
%TD*%
D14*
%TO.P,C1,2*%
%TO.N,GND*%
X141753500Y-86106000D03*
%TO.P,C1,1*%
%TO.N,+3V3*%
X139678500Y-86106000D03*
%TD*%
%TO.P,C2,2*%
%TO.N,GND*%
X141753500Y-84074000D03*
%TO.P,C2,1*%
%TO.N,+3V3*%
X139678500Y-84074000D03*
%TD*%
D15*
%TO.P,C3,2*%
%TO.N,GND*%
X139678500Y-100330000D03*
%TO.P,C3,1*%
%TO.N,+3V3*%
X141753500Y-100330000D03*
%TD*%
%TO.P,C4,2*%
%TO.N,GND*%
X139678500Y-102362000D03*
%TO.P,C4,1*%
%TO.N,+3V3*%
X141753500Y-102362000D03*
%TD*%
D16*
%TO.P,C5,2*%
%TO.N,GND*%
X136411174Y-97636333D03*
%TO.P,C5,1*%
%TO.N,Net-(U1-VDDA)*%
X137878420Y-99103579D03*
%TD*%
%TO.P,C6,2*%
%TO.N,GND*%
X134974333Y-99073174D03*
%TO.P,C6,1*%
%TO.N,Net-(U1-VDDA)*%
X136441579Y-100540420D03*
%TD*%
D17*
%TO.P,C7,2*%
%TO.N,/NRST*%
X131572000Y-89894500D03*
%TO.P,C7,1*%
%TO.N,GND*%
X131572000Y-91969500D03*
%TD*%
D15*
%TO.P,C8,2*%
%TO.N,GND*%
X135106500Y-84074000D03*
%TO.P,C8,1*%
%TO.N,/OSC_IN*%
X137181500Y-84074000D03*
%TD*%
D17*
%TO.P,C9,2*%
%TO.N,GND*%
X133096000Y-84052500D03*
%TO.P,C9,1*%
%TO.N,/OSC_OUT*%
X133096000Y-86127500D03*
%TD*%
D15*
%TO.P,C10,2*%
%TO.N,+12V*%
X160760500Y-92964000D03*
%TO.P,C10,1*%
%TO.N,GND*%
X162835500Y-92964000D03*
%TD*%
%TO.P,C11,2*%
%TO.N,Net-(U2-BST)*%
X160760500Y-87376000D03*
%TO.P,C11,1*%
%TO.N,Net-(U2-SW)*%
X162835500Y-87376000D03*
%TD*%
D14*
%TO.P,C12,2*%
%TO.N,+5V*%
X168677500Y-92964000D03*
%TO.P,C12,1*%
%TO.N,GND*%
X166602500Y-92964000D03*
%TD*%
D18*
%TO.P,C13,2*%
%TO.N,+5V*%
X168402000Y-84603500D03*
%TO.P,C13,1*%
%TO.N,GND*%
X168402000Y-82528500D03*
%TD*%
%TO.P,C14,2*%
%TO.N,+3V3*%
X162052000Y-84603500D03*
%TO.P,C14,1*%
%TO.N,GND*%
X162052000Y-82528500D03*
%TD*%
D15*
%TO.P,C15,2*%
%TO.N,GND*%
X150346500Y-98044000D03*
%TO.P,C15,1*%
%TO.N,+3V3*%
X152421500Y-98044000D03*
%TD*%
D18*
%TO.P,C16,2*%
%TO.N,GND*%
X159512000Y-100605500D03*
%TO.P,C16,1*%
%TO.N,+5V*%
X159512000Y-98530500D03*
%TD*%
D11*
%TO.P,J2,4,Pin_4*%
%TO.N,/SPI_CS*%
X131572000Y-95250000D03*
%TO.P,J2,3,Pin_3*%
%TO.N,/SPI_CLK*%
X131572000Y-97790000D03*
%TO.P,J2,2,Pin_2*%
%TO.N,/SPI_MISO*%
X131572000Y-100330000D03*
D10*
%TO.P,J2,1,Pin_1*%
%TO.N,/SPI_MOSI*%
X131572000Y-102870000D03*
%TD*%
D11*
%TO.P,J5,2,Pin_2*%
%TO.N,/I2C_SCL*%
X148869000Y-95016000D03*
D10*
%TO.P,J5,1,Pin_1*%
%TO.N,/I2C_SDA*%
X148869000Y-92476000D03*
%TD*%
D11*
%TO.P,J6,2,Pin_2*%
%TO.N,GND*%
X157734000Y-94996000D03*
D10*
%TO.P,J6,1,Pin_1*%
%TO.N,+3V3*%
X157734000Y-92456000D03*
%TD*%
D19*
%TO.P,J7,14,Pin_14*%
%TO.N,/UART_TX*%
X148336000Y-87376000D03*
%TO.P,J7,13,Pin_13*%
%TO.N,/UART_RX*%
X148336000Y-83476000D03*
%TO.P,J7,12,Pin_12*%
%TO.N,/NRST*%
X149606000Y-87376000D03*
%TO.P,J7,11,Pin_11*%
%TO.N,/GNDDETECT*%
X149606000Y-83476000D03*
%TO.P,J7,10,Pin_10*%
%TO.N,unconnected-(J7-Pin_10-Pad10)*%
X150876000Y-87376000D03*
%TO.P,J7,9,Pin_9*%
%TO.N,unconnected-(J7-Pin_9-Pad9)*%
X150876000Y-83476000D03*
%TO.P,J7,8,Pin_8*%
%TO.N,/STLINK_SWO*%
X152146000Y-87376000D03*
%TO.P,J7,7,Pin_7*%
%TO.N,GND*%
X152146000Y-83476000D03*
%TO.P,J7,6,Pin_6*%
%TO.N,/STLINK_SWCLK*%
X153416000Y-87376000D03*
%TO.P,J7,5,Pin_5*%
%TO.N,GND*%
X153416000Y-83476000D03*
%TO.P,J7,4,Pin_4*%
%TO.N,/STLINK_SWDIO*%
X154686000Y-87376000D03*
%TO.P,J7,3,Pin_3*%
%TO.N,+3V3*%
X154686000Y-83476000D03*
%TO.P,J7,2,Pin_2*%
%TO.N,unconnected-(J7-Pin_2-Pad2)*%
X155956000Y-87376000D03*
%TO.P,J7,1,Pin_1*%
%TO.N,unconnected-(J7-Pin_1-Pad1)*%
X155956000Y-83476000D03*
%TD*%
D20*
%TO.P,L1,2,2*%
%TO.N,+5V*%
X169636000Y-88900000D03*
%TO.P,L1,1,1*%
%TO.N,Net-(U2-SW)*%
X165136000Y-88900000D03*
%TD*%
D21*
%TO.P,R1,2*%
%TO.N,GND*%
X143764000Y-84598000D03*
%TO.P,R1,1*%
%TO.N,/BOOT0*%
X143764000Y-86598000D03*
%TD*%
%TO.P,R2,2*%
%TO.N,/I2C_SCL*%
X145796000Y-99314000D03*
%TO.P,R2,1*%
%TO.N,+3V3*%
X145796000Y-101314000D03*
%TD*%
%TO.P,R3,2*%
%TO.N,/I2C_SDA*%
X143764000Y-99314000D03*
%TO.P,R3,1*%
%TO.N,+3V3*%
X143764000Y-101314000D03*
%TD*%
D22*
%TO.P,SW2,2,2*%
%TO.N,/NRST*%
X129362000Y-85005000D03*
X129362000Y-90255000D03*
%TO.P,SW2,1,1*%
%TO.N,GND*%
X126162000Y-85005000D03*
X126162000Y-90255000D03*
%TD*%
D23*
%TO.P,U1,32,VSS*%
%TO.N,GND*%
X141688272Y-88285930D03*
%TO.P,U1,31,PB8*%
%TO.N,/BOOT0*%
X142253957Y-88851616D03*
%TO.P,U1,30,PB7*%
%TO.N,unconnected-(U1-PB7-Pad30)*%
X142819643Y-89417301D03*
%TO.P,U1,29,PB6*%
%TO.N,unconnected-(U1-PB6-Pad29)*%
X143385328Y-89982986D03*
%TO.P,U1,28,PB5*%
%TO.N,unconnected-(U1-PB5-Pad28)*%
X143951014Y-90548672D03*
%TO.P,U1,27,PB4*%
%TO.N,unconnected-(U1-PB4-Pad27)*%
X144516699Y-91114357D03*
%TO.P,U1,26,PB3*%
%TO.N,/STLINK_SWO*%
X145082384Y-91680043D03*
%TO.P,U1,25,PA15*%
%TO.N,unconnected-(U1-PA15-Pad25)*%
X145648070Y-92245728D03*
D24*
%TO.P,U1,24,PA14*%
%TO.N,/STLINK_SWCLK*%
X145648070Y-94190272D03*
%TO.P,U1,23,PA13*%
%TO.N,/STLINK_SWDIO*%
X145082384Y-94755957D03*
%TO.P,U1,22,PA12*%
%TO.N,/CAN_TX*%
X144516699Y-95321643D03*
%TO.P,U1,21,PA11*%
%TO.N,/CAN_RX*%
X143951014Y-95887328D03*
%TO.P,U1,20,PA10*%
%TO.N,unconnected-(U1-PA10-Pad20)*%
X143385328Y-96453014D03*
%TO.P,U1,19,PA9*%
%TO.N,/I2C_SCL*%
X142819643Y-97018699D03*
%TO.P,U1,18,PA8*%
%TO.N,/I2C_SDA*%
X142253957Y-97584384D03*
%TO.P,U1,17,VDD*%
%TO.N,+3V3*%
X141688272Y-98150070D03*
D23*
%TO.P,U1,16,VSS*%
%TO.N,GND*%
X139743728Y-98150070D03*
%TO.P,U1,15,VDDA*%
%TO.N,Net-(U1-VDDA)*%
X139178043Y-97584384D03*
%TO.P,U1,14,VSSA*%
%TO.N,GND*%
X138612357Y-97018699D03*
%TO.P,U1,13,PB0*%
%TO.N,unconnected-(U1-PB0-Pad13)*%
X138046672Y-96453014D03*
%TO.P,U1,12,PA7*%
%TO.N,/SPI_MOSI*%
X137480986Y-95887328D03*
%TO.P,U1,11,PA6*%
%TO.N,/SPI_MISO*%
X136915301Y-95321643D03*
%TO.P,U1,10,PA5*%
%TO.N,/SPI_CLK*%
X136349616Y-94755957D03*
%TO.P,U1,9,PA4*%
%TO.N,/SPI_CS*%
X135783930Y-94190272D03*
D24*
%TO.P,U1,8,PA3*%
%TO.N,/UART_RX*%
X135783930Y-92245728D03*
%TO.P,U1,7,PA2*%
%TO.N,/UART_TX*%
X136349616Y-91680043D03*
%TO.P,U1,6,PA1*%
%TO.N,unconnected-(U1-PA1-Pad6)*%
X136915301Y-91114357D03*
%TO.P,U1,5,PA0*%
%TO.N,unconnected-(U1-PA0-Pad5)*%
X137480986Y-90548672D03*
%TO.P,U1,4,PG10*%
%TO.N,/NRST*%
X138046672Y-89982986D03*
%TO.P,U1,3,PF1*%
%TO.N,/OSC_OUT*%
X138612357Y-89417301D03*
%TO.P,U1,2,PF0*%
%TO.N,/OSC_IN*%
X139178043Y-88851616D03*
%TO.P,U1,1,VDD*%
%TO.N,+3V3*%
X139743728Y-88285930D03*
%TD*%
D25*
%TO.P,U2,6,BST*%
%TO.N,Net-(U2-BST)*%
X162935500Y-89220000D03*
%TO.P,U2,5,SW*%
%TO.N,Net-(U2-SW)*%
X162935500Y-90170000D03*
%TO.P,U2,4,GND*%
%TO.N,GND*%
X162935500Y-91120000D03*
%TO.P,U2,3,IN*%
%TO.N,+12V*%
X160660500Y-91120000D03*
%TO.P,U2,2,EN*%
X160660500Y-90170000D03*
%TO.P,U2,1,FB*%
%TO.N,+5V*%
X160660500Y-89220000D03*
%TD*%
D26*
%TO.P,U3,5,VOUT*%
%TO.N,+3V3*%
X163962500Y-84516000D03*
%TO.P,U3,4,NC*%
%TO.N,unconnected-(U3-NC-Pad4)*%
X163962500Y-82616000D03*
%TO.P,U3,3,EN*%
%TO.N,+5V*%
X166237500Y-82616000D03*
%TO.P,U3,2,GND*%
%TO.N,GND*%
X166237500Y-83566000D03*
%TO.P,U3,1,VIN*%
%TO.N,+5V*%
X166237500Y-84516000D03*
%TD*%
D27*
%TO.P,Y2,4,4*%
%TO.N,GND*%
X135444000Y-86064000D03*
%TO.P,Y2,3,3*%
%TO.N,/OSC_IN*%
X136844000Y-86064000D03*
%TO.P,Y2,2,2*%
%TO.N,GND*%
X136844000Y-87164000D03*
%TO.P,Y2,1,1*%
%TO.N,/OSC_OUT*%
X135444000Y-87164000D03*
%TD*%
D28*
%TO.N,/NRST*%
X131318000Y-88646000D03*
X134366000Y-88646000D03*
%TO.N,+3V3*%
X153670000Y-98044000D03*
%TO.N,+5V*%
X160020000Y-88646000D03*
X170434000Y-93218000D03*
X160782000Y-98552000D03*
D29*
%TO.N,GND*%
X140716000Y-89662000D03*
D28*
X144937910Y-84678090D03*
X134672000Y-85292000D03*
%TO.N,+3V3*%
X141752000Y-101346000D03*
D29*
X138430000Y-85090000D03*
D28*
X144780000Y-101314000D03*
D29*
X160528000Y-84582000D03*
D28*
X154686000Y-85344000D03*
%TO.N,/I2C_SCL*%
X144780000Y-98298000D03*
%TO.N,/I2C_SDA*%
X143111787Y-98442213D03*
%TD*%
D30*
%TO.N,/NRST*%
X131318000Y-88646000D02*
X131318000Y-89640500D01*
X131318000Y-89640500D02*
X131572000Y-89894500D01*
X134366000Y-88646000D02*
X136709686Y-88646000D01*
X134366000Y-88646000D02*
X133620936Y-88646000D01*
X133620936Y-88646000D02*
X133104468Y-88129532D01*
X136709686Y-88646000D02*
X138046672Y-89982986D01*
%TO.N,+3V3*%
X152421500Y-98044000D02*
X153670000Y-98044000D01*
%TO.N,+5V*%
X160594000Y-89220000D02*
X160020000Y-88646000D01*
X160660500Y-89220000D02*
X160594000Y-89220000D01*
X160760500Y-98530500D02*
X160782000Y-98552000D01*
X159512000Y-98530500D02*
X160760500Y-98530500D01*
%TO.N,/CANL*%
X157161000Y-103759000D02*
X158189000Y-103759000D01*
X165884468Y-102944000D02*
X166914468Y-101914000D01*
X158189000Y-103759000D02*
X159004000Y-102944000D01*
X159004000Y-102944000D02*
X165884468Y-102944000D01*
X166914468Y-101914000D02*
X168811000Y-101914000D01*
%TO.N,/CANH*%
X157161000Y-102489000D02*
X165696000Y-102489000D01*
X165696000Y-102489000D02*
X168811000Y-99374000D01*
%TO.N,+3V3*%
X152211000Y-99949000D02*
X152211000Y-98254500D01*
X152211000Y-98254500D02*
X152421500Y-98044000D01*
%TO.N,+5V*%
X157161000Y-99949000D02*
X158579500Y-98530500D01*
X158579500Y-98530500D02*
X159512000Y-98530500D01*
%TO.N,GND*%
X159512000Y-100605500D02*
X158898500Y-101219000D01*
X158898500Y-101219000D02*
X157161000Y-101219000D01*
%TO.N,/CAN_TX*%
X144516699Y-95321643D02*
X150414056Y-101219000D01*
X150414056Y-101219000D02*
X152211000Y-101219000D01*
%TO.N,/CAN_RX*%
X143951014Y-95887328D02*
X143951014Y-95945014D01*
X143951014Y-95945014D02*
X146050000Y-98044000D01*
X146050000Y-98044000D02*
X146558000Y-98044000D01*
X146558000Y-98044000D02*
X151003000Y-102489000D01*
X151003000Y-102489000D02*
X152211000Y-102489000D01*
%TO.N,/NRST*%
X127508000Y-93776800D02*
X127508000Y-92109000D01*
X127508000Y-92109000D02*
X129362000Y-90255000D01*
X129362000Y-85005000D02*
X129362000Y-90255000D01*
X131572000Y-89894500D02*
X129722500Y-89894500D01*
X129722500Y-89894500D02*
X129362000Y-90255000D01*
D31*
%TO.N,GND*%
X141688272Y-88285930D02*
X140716000Y-89258202D01*
X140716000Y-89258202D02*
X140716000Y-89662000D01*
%TO.N,+3V3*%
X139743728Y-88285930D02*
X139700000Y-88242202D01*
X139700000Y-88242202D02*
X139700000Y-84095500D01*
%TO.N,GND*%
X141732000Y-84095500D02*
X141732000Y-88242202D01*
D30*
X135594000Y-86064000D02*
X135444000Y-86064000D01*
X134112000Y-84052500D02*
X134112000Y-84732000D01*
X134112000Y-84052500D02*
X135085000Y-84052500D01*
D31*
X139677000Y-100331500D02*
X139678500Y-100330000D01*
D30*
X134112000Y-84732000D02*
X134672000Y-85292000D01*
D31*
X141732000Y-86127500D02*
X141753500Y-86106000D01*
D30*
X133096000Y-84052500D02*
X134112000Y-84052500D01*
D31*
X139677000Y-102362000D02*
X139677000Y-100331500D01*
X141753500Y-88220702D02*
X141688272Y-88285930D01*
D30*
X143764000Y-84598000D02*
X144857820Y-84598000D01*
X136694000Y-87164000D02*
X135594000Y-86064000D01*
D31*
X136411174Y-97636333D02*
X137994723Y-97636333D01*
X137994723Y-97636333D02*
X138612357Y-97018699D01*
D30*
X135085000Y-84052500D02*
X135106500Y-84074000D01*
X134672000Y-85292000D02*
X135444000Y-86064000D01*
X144857820Y-84598000D02*
X144937910Y-84678090D01*
D31*
X134974333Y-99073174D02*
X136411174Y-97636333D01*
X139678500Y-98215298D02*
X139743728Y-98150070D01*
X139678500Y-100330000D02*
X139678500Y-98215298D01*
D30*
X136844000Y-87164000D02*
X136694000Y-87164000D01*
D31*
X139698500Y-100858000D02*
X139678500Y-100838000D01*
D30*
%TO.N,Net-(U2-BST)*%
X160760500Y-87376000D02*
X162604500Y-89220000D01*
D31*
X162604500Y-89220000D02*
X162935500Y-89220000D01*
D30*
%TO.N,+5V*%
X168402000Y-84603500D02*
X168402000Y-84387850D01*
X166630150Y-82616000D02*
X166237500Y-82616000D01*
X168402000Y-84387850D02*
X166630150Y-82616000D01*
%TO.N,+3V3*%
X154686000Y-83476000D02*
X154686000Y-85344000D01*
X141752000Y-101346000D02*
X141752000Y-102360500D01*
D31*
X139700000Y-84095500D02*
X139678500Y-84074000D01*
X162052000Y-84603500D02*
X163068000Y-84603500D01*
X163875000Y-84603500D02*
X163962500Y-84516000D01*
X141753500Y-98215298D02*
X141688272Y-98150070D01*
D30*
X143764000Y-101314000D02*
X144780000Y-101314000D01*
D31*
X141752000Y-101346000D02*
X141752000Y-100331500D01*
X141752000Y-100331500D02*
X141753500Y-100330000D01*
X141752000Y-102362000D02*
X141752000Y-101346000D01*
X139678500Y-86106000D02*
X139700000Y-86127500D01*
D30*
X144780000Y-101314000D02*
X145796000Y-101314000D01*
D31*
X141773500Y-100858000D02*
X141753500Y-100838000D01*
X160549500Y-84603500D02*
X160528000Y-84582000D01*
X163068000Y-84603500D02*
X163875000Y-84603500D01*
X141753500Y-100330000D02*
X141753500Y-98215298D01*
X162052000Y-84603500D02*
X160549500Y-84603500D01*
D30*
%TO.N,/UART_RX*%
X130810000Y-83288265D02*
X132003266Y-82095000D01*
X144528468Y-82095000D02*
X145909468Y-83476000D01*
X135783930Y-92245728D02*
X135783930Y-92095930D01*
X135783930Y-92095930D02*
X130810000Y-87122000D01*
X130810000Y-87122000D02*
X130810000Y-83288265D01*
X132003266Y-82095000D02*
X144528468Y-82095000D01*
X145909468Y-83476000D02*
X148336000Y-83476000D01*
%TO.N,/UART_TX*%
X133858000Y-89154000D02*
X133485468Y-89154000D01*
X132191733Y-82550000D02*
X144340000Y-82550000D01*
X144340000Y-82550000D02*
X148336000Y-86546000D01*
X131318000Y-83423733D02*
X132191733Y-82550000D01*
X135128000Y-90424000D02*
X133858000Y-89154000D01*
X136349616Y-91645616D02*
X136349616Y-91680043D01*
X135128000Y-90424000D02*
X136349616Y-91645616D01*
X148336000Y-86546000D02*
X148336000Y-87376000D01*
X131318000Y-86986532D02*
X131318000Y-83423733D01*
X133485468Y-89154000D02*
X131318000Y-86986532D01*
%TO.N,/BOOT0*%
X143764000Y-86598000D02*
X143764000Y-87341573D01*
X143764000Y-87341573D02*
X142253957Y-88851616D01*
%TO.N,/SPI_MOSI*%
X133350000Y-101092000D02*
X131572000Y-102870000D01*
X137480986Y-95887328D02*
X137060892Y-96307422D01*
X136445371Y-96307422D02*
X133350000Y-99402793D01*
X133350000Y-99402793D02*
X133350000Y-101092000D01*
X137060892Y-96307422D02*
X136445371Y-96307422D01*
%TO.N,/OSC_IN*%
X136844000Y-85406000D02*
X137181500Y-85068500D01*
X137622000Y-87295573D02*
X139178043Y-88851616D01*
X136844000Y-86064000D02*
X136946246Y-86064000D01*
X136946246Y-86064000D02*
X137622000Y-86739754D01*
X136844000Y-86064000D02*
X136844000Y-85406000D01*
X137622000Y-86739754D02*
X137622000Y-87295573D01*
X137181500Y-85068500D02*
X137181500Y-84074000D01*
%TO.N,/SPI_MISO*%
X136256904Y-95852422D02*
X132895000Y-99214326D01*
X132895000Y-99341945D02*
X131906945Y-100330000D01*
X132895000Y-99214326D02*
X132895000Y-99341945D01*
X136384522Y-95852422D02*
X136256904Y-95852422D01*
X136915301Y-95321643D02*
X136384522Y-95852422D01*
X131906945Y-100330000D02*
X131572000Y-100330000D01*
%TO.N,/STLINK_SWCLK*%
X146812000Y-91304532D02*
X147946532Y-90170000D01*
X146812000Y-93026342D02*
X146812000Y-91304532D01*
X145648070Y-94190272D02*
X146812000Y-93026342D01*
X153416000Y-88832532D02*
X153416000Y-87376000D01*
X147946532Y-90170000D02*
X152078532Y-90170000D01*
X152078532Y-90170000D02*
X153416000Y-88832532D01*
%TO.N,/STLINK_SWDIO*%
X147267000Y-94095864D02*
X147267000Y-91493000D01*
X154686000Y-88426000D02*
X154686000Y-87376000D01*
X145082384Y-94755957D02*
X145502478Y-95176051D01*
X147267000Y-91493000D02*
X148082000Y-90678000D01*
X146186813Y-95176051D02*
X147267000Y-94095864D01*
X148082000Y-90678000D02*
X152434000Y-90678000D01*
X152434000Y-90678000D02*
X154686000Y-88426000D01*
X145502478Y-95176051D02*
X146186813Y-95176051D01*
%TO.N,/STLINK_SWO*%
X147100427Y-89662000D02*
X151638000Y-89662000D01*
X145082384Y-91680043D02*
X147100427Y-89662000D01*
X151638000Y-89662000D02*
X152146000Y-89154000D01*
X152146000Y-89154000D02*
X152146000Y-87376000D01*
%TO.N,/SPI_CS*%
X134724202Y-95250000D02*
X131572000Y-95250000D01*
X135783930Y-94190272D02*
X134724202Y-95250000D01*
%TO.N,/SPI_CLK*%
X133315573Y-97790000D02*
X136349616Y-94755957D01*
X131572000Y-97790000D02*
X133315573Y-97790000D01*
%TO.N,/I2C_SCL*%
X144780000Y-98298000D02*
X144653000Y-98171000D01*
X145796000Y-99314000D02*
X144780000Y-98298000D01*
X143844944Y-98044000D02*
X142819643Y-97018699D01*
X144526000Y-98044000D02*
X143844944Y-98044000D01*
X144780000Y-98298000D02*
X144526000Y-98044000D01*
%TO.N,/I2C_SDA*%
X143111787Y-98442213D02*
X143764000Y-99094427D01*
X142253957Y-97584384D02*
X143111787Y-98442213D01*
X143764000Y-99094427D02*
X143764000Y-99314000D01*
%TO.N,/OSC_OUT*%
X137333056Y-88138000D02*
X138612357Y-89417301D01*
X135444000Y-87164000D02*
X136418000Y-88138000D01*
X136418000Y-88138000D02*
X137333056Y-88138000D01*
X134133500Y-86635500D02*
X134662000Y-87164000D01*
X134662000Y-87164000D02*
X135444000Y-87164000D01*
X133096000Y-86635500D02*
X134133500Y-86635500D01*
D31*
%TO.N,Net-(U1-VDDA)*%
X139178043Y-97584384D02*
X137878420Y-98884007D01*
X136441579Y-100540420D02*
X137878420Y-99103579D01*
X137878420Y-98884007D02*
X137878420Y-99103579D01*
%TO.N,GND*%
X141732000Y-88242202D02*
X141688272Y-88285930D01*
X141753500Y-84074000D02*
X141732000Y-84095500D01*
D30*
%TO.N,/NRST*%
X132364201Y-83021000D02*
X144167532Y-83021000D01*
X146689000Y-88904000D02*
X149034000Y-88904000D01*
X149606000Y-88206000D02*
X149606000Y-87376000D01*
X133104468Y-88129532D02*
X133446080Y-88471144D01*
X133104468Y-88129532D02*
X131773000Y-86798064D01*
X149034000Y-88778000D02*
X149606000Y-88206000D01*
X131773000Y-83612201D02*
X132364201Y-83021000D01*
X131773000Y-86798064D02*
X131773000Y-83612201D01*
X144167532Y-83021000D02*
X145796000Y-84649468D01*
X149034000Y-88904000D02*
X149034000Y-88778000D01*
X145796000Y-84649468D02*
X145796000Y-88011000D01*
X145796000Y-88011000D02*
X146689000Y-88904000D01*
%TD*%
%TA.AperFunction,Conductor*%
%TO.N,GND*%
G36*
X131956751Y-81553685D02*
G01*
X132002506Y-81606489D01*
X132012450Y-81675647D01*
X131983425Y-81739203D01*
X131924647Y-81776977D01*
X131921848Y-81777762D01*
X131891515Y-81785890D01*
X131876855Y-81789819D01*
X131802177Y-81832934D01*
X131802174Y-81832936D01*
X130591469Y-83043640D01*
X130547936Y-83087173D01*
X130547934Y-83087176D01*
X130504819Y-83161854D01*
X130504819Y-83161855D01*
X130482500Y-83245149D01*
X130482500Y-87078884D01*
X130482500Y-87165116D01*
X130490839Y-87196237D01*
X130504819Y-87248410D01*
X130547934Y-87323088D01*
X130547936Y-87323091D01*
X131193490Y-87968645D01*
X131226975Y-88029968D01*
X131221991Y-88099660D01*
X131180119Y-88155593D01*
X131137905Y-88176100D01*
X131124814Y-88179607D01*
X131010686Y-88245500D01*
X131010683Y-88245502D01*
X130917502Y-88338683D01*
X130917500Y-88338686D01*
X130851608Y-88452812D01*
X130845871Y-88474224D01*
X130817500Y-88580108D01*
X130817500Y-88711892D01*
X130831695Y-88764868D01*
X130851608Y-88839187D01*
X130881332Y-88890669D01*
X130917500Y-88953314D01*
X130917502Y-88953316D01*
X130918583Y-88954397D01*
X130919203Y-88955532D01*
X130922447Y-88959760D01*
X130921787Y-88960265D01*
X130952068Y-89015720D01*
X130947084Y-89085412D01*
X130905212Y-89141345D01*
X130888853Y-89151703D01*
X130884123Y-89154203D01*
X130774850Y-89234850D01*
X130694207Y-89344117D01*
X130694206Y-89344119D01*
X130646861Y-89479423D01*
X130644898Y-89478736D01*
X130616435Y-89530757D01*
X130555083Y-89564189D01*
X130528830Y-89567000D01*
X130114206Y-89567000D01*
X130047167Y-89547315D01*
X130014436Y-89516634D01*
X129997831Y-89494135D01*
X129934150Y-89407850D01*
X129824882Y-89327207D01*
X129789468Y-89314815D01*
X129772544Y-89308893D01*
X129715769Y-89268171D01*
X129690022Y-89203218D01*
X129689500Y-89191852D01*
X129689500Y-86068147D01*
X129709185Y-86001108D01*
X129761989Y-85955353D01*
X129772525Y-85951113D01*
X129824882Y-85932793D01*
X129934150Y-85852150D01*
X130014793Y-85742882D01*
X130042783Y-85662890D01*
X130059646Y-85614701D01*
X130059646Y-85614699D01*
X130062500Y-85584269D01*
X130062500Y-84425730D01*
X130059646Y-84395300D01*
X130059646Y-84395298D01*
X130014793Y-84267119D01*
X130014792Y-84267117D01*
X130014665Y-84266945D01*
X129934150Y-84157850D01*
X129824882Y-84077207D01*
X129824880Y-84077206D01*
X129696700Y-84032353D01*
X129666270Y-84029500D01*
X129666266Y-84029500D01*
X129057734Y-84029500D01*
X129057730Y-84029500D01*
X129027300Y-84032353D01*
X129027298Y-84032353D01*
X128899119Y-84077206D01*
X128899117Y-84077207D01*
X128789850Y-84157850D01*
X128709207Y-84267117D01*
X128709206Y-84267119D01*
X128664353Y-84395298D01*
X128664353Y-84395300D01*
X128661500Y-84425730D01*
X128661500Y-85584269D01*
X128664353Y-85614699D01*
X128664353Y-85614701D01*
X128709206Y-85742880D01*
X128709207Y-85742882D01*
X128789850Y-85852150D01*
X128899118Y-85932793D01*
X128951456Y-85951107D01*
X129008230Y-85991827D01*
X129033978Y-86056779D01*
X129034500Y-86068147D01*
X129034500Y-89191852D01*
X129014815Y-89258891D01*
X128962011Y-89304646D01*
X128951456Y-89308893D01*
X128899117Y-89327207D01*
X128789850Y-89407850D01*
X128709207Y-89517117D01*
X128709206Y-89517119D01*
X128664353Y-89645298D01*
X128664353Y-89645300D01*
X128661500Y-89675730D01*
X128661500Y-90440983D01*
X128641815Y-90508022D01*
X128625181Y-90528664D01*
X127245936Y-91907908D01*
X127245934Y-91907911D01*
X127202819Y-91982589D01*
X127202819Y-91982590D01*
X127182765Y-92057433D01*
X127180500Y-92065885D01*
X127180500Y-92410900D01*
X127160815Y-92477939D01*
X127108011Y-92523694D01*
X127056500Y-92534900D01*
X126992947Y-92534900D01*
X126934470Y-92546531D01*
X126934469Y-92546532D01*
X126868147Y-92590847D01*
X126823832Y-92657169D01*
X126823831Y-92657170D01*
X126812200Y-92715647D01*
X126812200Y-94846600D01*
X126792515Y-94913639D01*
X126739711Y-94959394D01*
X126688200Y-94970600D01*
X125806200Y-94970600D01*
X125806200Y-97561400D01*
X126634700Y-97561400D01*
X126701739Y-97581085D01*
X126747494Y-97633889D01*
X126758700Y-97685400D01*
X126758700Y-98450400D01*
X128257299Y-98450400D01*
X128257299Y-97685400D01*
X128276984Y-97618361D01*
X128329788Y-97572606D01*
X128381299Y-97561400D01*
X129209800Y-97561400D01*
X129209800Y-95146530D01*
X130521500Y-95146530D01*
X130521500Y-95353469D01*
X130561868Y-95556412D01*
X130561870Y-95556420D01*
X130641058Y-95747596D01*
X130756024Y-95919657D01*
X130902342Y-96065975D01*
X130902345Y-96065977D01*
X131074402Y-96180941D01*
X131265580Y-96260130D01*
X131457354Y-96298276D01*
X131468530Y-96300499D01*
X131468534Y-96300500D01*
X131468535Y-96300500D01*
X131675466Y-96300500D01*
X131675467Y-96300499D01*
X131878420Y-96260130D01*
X132069598Y-96180941D01*
X132241655Y-96065977D01*
X132387977Y-95919655D01*
X132502941Y-95747598D01*
X132528598Y-95685658D01*
X132541691Y-95654048D01*
X132585532Y-95599644D01*
X132651826Y-95577579D01*
X132656252Y-95577500D01*
X134765556Y-95577500D01*
X134832595Y-95597185D01*
X134878350Y-95649989D01*
X134888294Y-95719147D01*
X134859269Y-95782703D01*
X134853237Y-95789181D01*
X133216237Y-97426181D01*
X133154914Y-97459666D01*
X133128556Y-97462500D01*
X132656252Y-97462500D01*
X132589213Y-97442815D01*
X132543458Y-97390011D01*
X132541691Y-97385952D01*
X132502943Y-97292405D01*
X132387975Y-97120342D01*
X132241657Y-96974024D01*
X132155626Y-96916541D01*
X132069598Y-96859059D01*
X131878420Y-96779870D01*
X131878412Y-96779868D01*
X131675469Y-96739500D01*
X131675465Y-96739500D01*
X131468535Y-96739500D01*
X131468530Y-96739500D01*
X131265587Y-96779868D01*
X131265579Y-96779870D01*
X131074403Y-96859058D01*
X130902342Y-96974024D01*
X130756024Y-97120342D01*
X130641058Y-97292403D01*
X130561870Y-97483579D01*
X130561868Y-97483587D01*
X130521500Y-97686530D01*
X130521500Y-97893469D01*
X130561868Y-98096412D01*
X130561870Y-98096420D01*
X130639561Y-98283983D01*
X130641059Y-98287598D01*
X130664038Y-98321989D01*
X130756024Y-98459657D01*
X130902342Y-98605975D01*
X130902345Y-98605977D01*
X131074402Y-98720941D01*
X131265580Y-98800130D01*
X131468530Y-98840499D01*
X131468534Y-98840500D01*
X131468535Y-98840500D01*
X131675466Y-98840500D01*
X131675467Y-98840499D01*
X131878420Y-98800130D01*
X132069598Y-98720941D01*
X132241655Y-98605977D01*
X132387977Y-98459655D01*
X132502941Y-98287598D01*
X132504439Y-98283983D01*
X132541691Y-98194048D01*
X132585532Y-98139644D01*
X132651826Y-98117579D01*
X132656252Y-98117500D01*
X133229309Y-98117500D01*
X133296348Y-98137185D01*
X133342103Y-98189989D01*
X133352047Y-98259147D01*
X133323022Y-98322703D01*
X133316990Y-98329181D01*
X132632936Y-99013234D01*
X132632934Y-99013237D01*
X132589819Y-99087915D01*
X132565397Y-99179060D01*
X132563804Y-99178633D01*
X132539401Y-99233782D01*
X132532417Y-99241372D01*
X132324470Y-99449319D01*
X132263147Y-99482804D01*
X132193455Y-99477820D01*
X132167899Y-99464741D01*
X132098264Y-99418213D01*
X132069598Y-99399059D01*
X132068009Y-99398401D01*
X131878420Y-99319870D01*
X131878412Y-99319868D01*
X131675469Y-99279500D01*
X131675465Y-99279500D01*
X131468535Y-99279500D01*
X131468530Y-99279500D01*
X131265587Y-99319868D01*
X131265579Y-99319870D01*
X131074403Y-99399058D01*
X130902342Y-99514024D01*
X130756024Y-99660342D01*
X130641058Y-99832403D01*
X130561870Y-100023579D01*
X130561868Y-100023587D01*
X130521500Y-100226530D01*
X130521500Y-100433469D01*
X130561868Y-100636412D01*
X130561870Y-100636420D01*
X130627065Y-100793815D01*
X130641059Y-100827598D01*
X130658184Y-100853227D01*
X130756024Y-100999657D01*
X130902342Y-101145975D01*
X130902345Y-101145977D01*
X131074402Y-101260941D01*
X131265580Y-101340130D01*
X131439975Y-101374819D01*
X131468530Y-101380499D01*
X131468534Y-101380500D01*
X131468535Y-101380500D01*
X131675466Y-101380500D01*
X131675467Y-101380499D01*
X131878420Y-101340130D01*
X132069598Y-101260941D01*
X132241655Y-101145977D01*
X132387977Y-100999655D01*
X132502941Y-100827598D01*
X132582130Y-100636420D01*
X132622500Y-100433465D01*
X132622500Y-100226535D01*
X132610720Y-100167313D01*
X132611427Y-100159407D01*
X132608653Y-100151969D01*
X132614496Y-100125105D01*
X132616947Y-100097724D01*
X132622195Y-100089714D01*
X132623505Y-100083696D01*
X132644649Y-100055449D01*
X132810822Y-99889277D01*
X132872142Y-99855795D01*
X132941834Y-99860779D01*
X132997767Y-99902651D01*
X133022184Y-99968115D01*
X133022500Y-99976961D01*
X133022500Y-100904983D01*
X133002815Y-100972022D01*
X132986181Y-100992664D01*
X132195664Y-101783181D01*
X132134341Y-101816666D01*
X132107983Y-101819500D01*
X130702247Y-101819500D01*
X130643770Y-101831131D01*
X130643769Y-101831132D01*
X130577447Y-101875447D01*
X130533132Y-101941769D01*
X130533131Y-101941770D01*
X130521500Y-102000247D01*
X130521500Y-103739752D01*
X130533131Y-103798229D01*
X130533132Y-103798230D01*
X130577447Y-103864552D01*
X130643769Y-103908867D01*
X130643770Y-103908868D01*
X130702247Y-103920499D01*
X130702250Y-103920500D01*
X130702252Y-103920500D01*
X132441750Y-103920500D01*
X132441751Y-103920499D01*
X132456568Y-103917552D01*
X132500229Y-103908868D01*
X132500229Y-103908867D01*
X132500231Y-103908867D01*
X132538943Y-103883000D01*
X132554161Y-103872832D01*
X132566552Y-103864552D01*
X132599412Y-103815374D01*
X132610867Y-103798231D01*
X132610867Y-103798229D01*
X132610868Y-103798229D01*
X132622499Y-103739752D01*
X132622500Y-103739750D01*
X132622500Y-102885216D01*
X138837001Y-102885216D01*
X138843452Y-102945235D01*
X138843453Y-102945238D01*
X138894099Y-103081021D01*
X138894103Y-103081027D01*
X138980952Y-103197047D01*
X139096972Y-103283896D01*
X139096974Y-103283897D01*
X139232768Y-103334547D01*
X139292780Y-103340999D01*
X139424499Y-103340999D01*
X139932500Y-103340999D01*
X140064207Y-103340999D01*
X140064216Y-103340998D01*
X140124235Y-103334547D01*
X140124238Y-103334546D01*
X140260021Y-103283900D01*
X140260027Y-103283896D01*
X140376047Y-103197047D01*
X140462896Y-103081027D01*
X140462897Y-103081025D01*
X140513547Y-102945231D01*
X140519999Y-102885227D01*
X140520000Y-102885210D01*
X140520000Y-102616000D01*
X139932500Y-102616000D01*
X139932500Y-103340999D01*
X139424499Y-103340999D01*
X139424500Y-103340998D01*
X139424500Y-102616000D01*
X138837001Y-102616000D01*
X138837001Y-102885216D01*
X132622500Y-102885216D01*
X132622500Y-102334017D01*
X132642185Y-102266978D01*
X132658819Y-102246336D01*
X133066383Y-101838772D01*
X138837000Y-101838772D01*
X138837000Y-102108000D01*
X139424500Y-102108000D01*
X139932500Y-102108000D01*
X140519999Y-102108000D01*
X140519999Y-101838792D01*
X140519998Y-101838783D01*
X140513547Y-101778764D01*
X140513546Y-101778761D01*
X140462900Y-101642978D01*
X140462896Y-101642972D01*
X140376047Y-101526952D01*
X140266927Y-101445268D01*
X140225055Y-101389335D01*
X140220070Y-101319643D01*
X140253554Y-101258320D01*
X140266927Y-101246732D01*
X140376047Y-101165047D01*
X140462896Y-101049027D01*
X140462897Y-101049025D01*
X140513547Y-100913231D01*
X140519999Y-100853227D01*
X140520000Y-100853210D01*
X140520000Y-100584000D01*
X139932500Y-100584000D01*
X139932500Y-102108000D01*
X139424500Y-102108000D01*
X139424500Y-100584000D01*
X138837001Y-100584000D01*
X138837001Y-100853216D01*
X138843452Y-100913235D01*
X138843453Y-100913238D01*
X138894099Y-101049021D01*
X138894103Y-101049027D01*
X138980951Y-101165045D01*
X139090073Y-101246732D01*
X139131944Y-101302666D01*
X139136929Y-101372357D01*
X139103445Y-101433681D01*
X139090073Y-101445268D01*
X138980951Y-101526954D01*
X138894103Y-101642972D01*
X138894102Y-101642974D01*
X138843452Y-101778768D01*
X138837000Y-101838772D01*
X133066383Y-101838772D01*
X133157368Y-101747787D01*
X133378203Y-101526952D01*
X133612065Y-101293090D01*
X133655181Y-101218410D01*
X133677500Y-101135116D01*
X133677500Y-101048884D01*
X133677500Y-100637647D01*
X135411466Y-100637647D01*
X135431707Y-100771936D01*
X135490629Y-100894288D01*
X135490630Y-100894290D01*
X135495382Y-100900025D01*
X135510131Y-100917827D01*
X135510140Y-100917836D01*
X135510148Y-100917845D01*
X136064153Y-101471850D01*
X136064162Y-101471858D01*
X136064172Y-101471868D01*
X136073355Y-101479476D01*
X136087708Y-101491368D01*
X136087710Y-101491369D01*
X136210064Y-101550292D01*
X136344352Y-101570533D01*
X136478639Y-101550292D01*
X136600994Y-101491369D01*
X136624532Y-101471868D01*
X137373027Y-100723373D01*
X137392528Y-100699835D01*
X137451451Y-100577480D01*
X137471692Y-100443193D01*
X137451451Y-100308905D01*
X137445549Y-100296649D01*
X137441752Y-100273589D01*
X137433586Y-100251695D01*
X137436182Y-100239759D01*
X137434198Y-100227707D01*
X137443470Y-100206256D01*
X137448438Y-100183422D01*
X137460042Y-100167919D01*
X137461922Y-100163573D01*
X137469578Y-100155179D01*
X137493170Y-100131587D01*
X137554491Y-100098104D01*
X137624183Y-100103088D01*
X137634649Y-100107549D01*
X137646905Y-100113451D01*
X137781193Y-100133692D01*
X137915480Y-100113451D01*
X138007003Y-100069376D01*
X138037831Y-100054530D01*
X138037831Y-100054529D01*
X138037835Y-100054528D01*
X138061373Y-100035027D01*
X138219520Y-99876880D01*
X138289628Y-99806772D01*
X138837000Y-99806772D01*
X138837000Y-100076000D01*
X139424500Y-100076000D01*
X139932500Y-100076000D01*
X140519999Y-100076000D01*
X140519999Y-99806792D01*
X140519998Y-99806783D01*
X140513547Y-99746764D01*
X140513546Y-99746761D01*
X140462900Y-99610978D01*
X140462896Y-99610972D01*
X140376047Y-99494952D01*
X140260027Y-99408103D01*
X140260025Y-99408102D01*
X140124231Y-99357452D01*
X140064227Y-99351000D01*
X139932500Y-99351000D01*
X139932500Y-100076000D01*
X139424500Y-100076000D01*
X139424500Y-99351000D01*
X139292793Y-99351000D01*
X139292783Y-99351001D01*
X139232764Y-99357452D01*
X139232761Y-99357453D01*
X139096978Y-99408099D01*
X139096972Y-99408103D01*
X138980952Y-99494952D01*
X138894103Y-99610972D01*
X138894102Y-99610974D01*
X138843452Y-99746768D01*
X138837000Y-99806772D01*
X138289628Y-99806772D01*
X138380614Y-99715787D01*
X138809850Y-99286550D01*
X138809868Y-99286532D01*
X138829369Y-99262994D01*
X138888292Y-99140639D01*
X138905891Y-99023881D01*
X139223468Y-99023881D01*
X139223469Y-99023882D01*
X139326929Y-99059401D01*
X139453419Y-99059401D01*
X139573050Y-99018330D01*
X139573055Y-99018327D01*
X139632729Y-98973832D01*
X139923333Y-98683228D01*
X139923333Y-98683227D01*
X139743728Y-98503623D01*
X139223468Y-99023881D01*
X138905891Y-99023881D01*
X138908533Y-99006352D01*
X138888292Y-98872064D01*
X138861487Y-98816403D01*
X138854920Y-98802766D01*
X138843568Y-98733824D01*
X138871290Y-98669690D01*
X138878959Y-98661283D01*
X139566951Y-97973293D01*
X140263985Y-97276257D01*
X140263985Y-97276256D01*
X140160526Y-97240739D01*
X140145195Y-97240739D01*
X140078156Y-97221054D01*
X140032401Y-97168250D01*
X140028673Y-97159150D01*
X140015189Y-97122103D01*
X139994613Y-97065570D01*
X139965505Y-97027636D01*
X139734791Y-96796924D01*
X139734786Y-96796920D01*
X139734785Y-96796919D01*
X139696858Y-96767815D01*
X139696857Y-96767814D01*
X139696855Y-96767813D01*
X139696857Y-96767813D01*
X139603278Y-96733754D01*
X139547014Y-96692328D01*
X139522078Y-96627059D01*
X139521688Y-96617232D01*
X139521688Y-96601899D01*
X139486169Y-96498440D01*
X139486168Y-96498439D01*
X138789134Y-97195476D01*
X138092098Y-97892509D01*
X138098809Y-97921516D01*
X138094742Y-97991267D01*
X138053610Y-98047747D01*
X137988472Y-98073023D01*
X137978000Y-98073466D01*
X137975647Y-98073466D01*
X137841360Y-98093707D01*
X137841357Y-98093707D01*
X137719008Y-98152627D01*
X137719003Y-98152630D01*
X137695475Y-98172124D01*
X137695448Y-98172148D01*
X136946989Y-98920607D01*
X136946965Y-98920634D01*
X136927471Y-98944162D01*
X136927468Y-98944167D01*
X136868548Y-99066516D01*
X136868548Y-99066519D01*
X136848307Y-99200806D01*
X136860168Y-99279500D01*
X136868548Y-99335093D01*
X136874448Y-99347345D01*
X136878244Y-99370404D01*
X136886412Y-99392301D01*
X136883815Y-99404235D01*
X136885800Y-99416287D01*
X136876527Y-99437738D01*
X136871560Y-99460574D01*
X136859957Y-99476072D01*
X136858078Y-99480421D01*
X136850409Y-99488828D01*
X136826828Y-99512409D01*
X136765505Y-99545894D01*
X136695813Y-99540910D01*
X136685350Y-99536450D01*
X136673094Y-99530548D01*
X136538806Y-99510307D01*
X136404519Y-99530548D01*
X136404516Y-99530548D01*
X136282167Y-99589468D01*
X136282162Y-99589471D01*
X136258634Y-99608965D01*
X136258607Y-99608989D01*
X135510148Y-100357448D01*
X135510124Y-100357475D01*
X135490630Y-100381003D01*
X135490627Y-100381008D01*
X135431707Y-100503357D01*
X135431707Y-100503360D01*
X135411466Y-100637647D01*
X133677500Y-100637647D01*
X133677500Y-99945036D01*
X134461681Y-99945036D01*
X134554810Y-100038165D01*
X134554818Y-100038172D01*
X134601820Y-100076050D01*
X134733652Y-100136255D01*
X134877105Y-100156881D01*
X135020558Y-100136255D01*
X135152391Y-100076049D01*
X135199396Y-100038169D01*
X135389757Y-99847807D01*
X134974333Y-99432384D01*
X134461681Y-99945036D01*
X133677500Y-99945036D01*
X133677500Y-99589809D01*
X133686143Y-99560372D01*
X133692667Y-99530383D01*
X133696422Y-99525365D01*
X133697185Y-99522770D01*
X133713809Y-99502138D01*
X133784065Y-99431882D01*
X133845382Y-99398401D01*
X133915074Y-99403385D01*
X133968291Y-99441759D01*
X134009335Y-99492690D01*
X134102470Y-99585824D01*
X134615123Y-99073173D01*
X135333543Y-99073173D01*
X135333543Y-99073174D01*
X135748966Y-99488598D01*
X135939328Y-99298237D01*
X135939330Y-99298235D01*
X135977207Y-99251235D01*
X136037414Y-99119399D01*
X136058040Y-98975947D01*
X136038641Y-98841027D01*
X136048584Y-98771868D01*
X136094339Y-98719064D01*
X136161378Y-98699379D01*
X136179027Y-98700641D01*
X136313947Y-98720040D01*
X136457399Y-98699414D01*
X136589232Y-98639208D01*
X136636237Y-98601328D01*
X136826598Y-98410966D01*
X136411175Y-97995543D01*
X136411174Y-97995543D01*
X135901804Y-98504910D01*
X135901800Y-98504916D01*
X135333543Y-99073173D01*
X134615123Y-99073173D01*
X134754166Y-98934131D01*
X134794728Y-98893569D01*
X135523296Y-98164998D01*
X135523305Y-98164988D01*
X135578911Y-98109385D01*
X136143888Y-97544409D01*
X136205211Y-97510924D01*
X136274903Y-97515908D01*
X136319250Y-97544409D01*
X136411173Y-97636332D01*
X136503096Y-97544409D01*
X136564419Y-97510924D01*
X136634111Y-97515908D01*
X136678459Y-97544409D01*
X137185807Y-98051757D01*
X137376169Y-97861396D01*
X137376171Y-97861394D01*
X137414048Y-97814394D01*
X137474255Y-97682558D01*
X137493680Y-97547460D01*
X137522705Y-97483905D01*
X137581484Y-97446131D01*
X137651353Y-97446131D01*
X137710131Y-97483906D01*
X137733699Y-97524845D01*
X137738543Y-97538956D01*
X137738544Y-97538956D01*
X138435580Y-96841922D01*
X139132614Y-96144886D01*
X139132614Y-96144885D01*
X139029155Y-96109368D01*
X139013823Y-96109368D01*
X138946784Y-96089683D01*
X138901029Y-96036879D01*
X138897306Y-96027791D01*
X138863242Y-95934200D01*
X138834134Y-95896266D01*
X138603420Y-95665554D01*
X138603415Y-95665550D01*
X138603414Y-95665549D01*
X138565487Y-95636445D01*
X138565486Y-95636444D01*
X138565484Y-95636443D01*
X138565486Y-95636443D01*
X138457620Y-95597184D01*
X138446934Y-95595300D01*
X138447301Y-95593215D01*
X138393777Y-95577499D01*
X138348022Y-95524695D01*
X138339794Y-95486873D01*
X138338700Y-95487066D01*
X138336816Y-95476384D01*
X138336816Y-95476380D01*
X138297556Y-95368514D01*
X138268448Y-95330580D01*
X138037734Y-95099868D01*
X138037729Y-95099864D01*
X138037728Y-95099863D01*
X137999801Y-95070759D01*
X137999800Y-95070758D01*
X137999798Y-95070757D01*
X137999800Y-95070757D01*
X137891934Y-95031498D01*
X137881248Y-95029614D01*
X137881615Y-95027529D01*
X137828092Y-95011813D01*
X137782337Y-94959009D01*
X137774109Y-94921188D01*
X137773015Y-94921381D01*
X137771131Y-94910699D01*
X137771131Y-94910695D01*
X137731871Y-94802829D01*
X137702763Y-94764895D01*
X137472049Y-94534183D01*
X137472044Y-94534179D01*
X137472043Y-94534178D01*
X137434116Y-94505074D01*
X137434115Y-94505073D01*
X137434113Y-94505072D01*
X137434115Y-94505072D01*
X137326249Y-94465813D01*
X137315563Y-94463929D01*
X137315930Y-94461844D01*
X137262407Y-94446128D01*
X137216652Y-94393324D01*
X137208424Y-94355502D01*
X137207330Y-94355695D01*
X137205446Y-94345013D01*
X137205446Y-94345009D01*
X137166186Y-94237143D01*
X137137078Y-94199209D01*
X136906364Y-93968497D01*
X136906359Y-93968493D01*
X136906358Y-93968492D01*
X136883467Y-93950926D01*
X136868430Y-93939387D01*
X136868428Y-93939386D01*
X136868430Y-93939386D01*
X136760564Y-93900127D01*
X136749878Y-93898243D01*
X136750245Y-93896158D01*
X136696721Y-93880442D01*
X136650966Y-93827638D01*
X136642738Y-93789817D01*
X136641644Y-93790010D01*
X136639760Y-93779328D01*
X136639760Y-93779324D01*
X136600500Y-93671458D01*
X136571392Y-93633524D01*
X136340678Y-93402812D01*
X136340673Y-93402808D01*
X136340672Y-93402807D01*
X136302744Y-93373702D01*
X136215641Y-93341999D01*
X136194878Y-93334442D01*
X136080089Y-93334442D01*
X136059326Y-93341999D01*
X136059324Y-93341999D01*
X135972223Y-93373702D01*
X135934282Y-93402814D01*
X135934280Y-93402816D01*
X134996473Y-94340626D01*
X134996467Y-94340632D01*
X134967361Y-94378562D01*
X134967358Y-94378568D01*
X134928100Y-94486430D01*
X134928100Y-94531585D01*
X134908415Y-94598624D01*
X134891781Y-94619266D01*
X134624866Y-94886181D01*
X134563543Y-94919666D01*
X134537185Y-94922500D01*
X132656252Y-94922500D01*
X132589213Y-94902815D01*
X132543458Y-94850011D01*
X132541691Y-94845952D01*
X132502943Y-94752405D01*
X132387975Y-94580342D01*
X132241657Y-94434024D01*
X132112253Y-94347560D01*
X132069598Y-94319059D01*
X132059125Y-94314721D01*
X131878420Y-94239870D01*
X131878412Y-94239868D01*
X131675469Y-94199500D01*
X131675465Y-94199500D01*
X131468535Y-94199500D01*
X131468530Y-94199500D01*
X131265587Y-94239868D01*
X131265579Y-94239870D01*
X131074403Y-94319058D01*
X130902342Y-94434024D01*
X130756024Y-94580342D01*
X130641058Y-94752403D01*
X130561870Y-94943579D01*
X130561868Y-94943587D01*
X130521500Y-95146530D01*
X129209800Y-95146530D01*
X129209800Y-94970600D01*
X128327800Y-94970600D01*
X128260761Y-94950915D01*
X128215006Y-94898111D01*
X128203800Y-94846600D01*
X128203800Y-92715649D01*
X128203799Y-92715647D01*
X128192168Y-92657170D01*
X128192167Y-92657169D01*
X128147852Y-92590847D01*
X128081530Y-92546532D01*
X128081529Y-92546531D01*
X128023052Y-92534900D01*
X128023048Y-92534900D01*
X127959500Y-92534900D01*
X127950814Y-92532349D01*
X127941853Y-92533638D01*
X127917812Y-92522659D01*
X127892461Y-92515215D01*
X127886533Y-92508374D01*
X127878297Y-92504613D01*
X127864007Y-92482378D01*
X127846706Y-92462411D01*
X127844418Y-92451896D01*
X127840523Y-92445835D01*
X127835500Y-92410900D01*
X127835500Y-92355216D01*
X130593001Y-92355216D01*
X130599452Y-92415235D01*
X130599453Y-92415238D01*
X130650099Y-92551021D01*
X130650103Y-92551027D01*
X130736952Y-92667047D01*
X130852972Y-92753896D01*
X130852974Y-92753897D01*
X130988768Y-92804547D01*
X131048780Y-92810999D01*
X131317999Y-92810999D01*
X131826000Y-92810999D01*
X132095207Y-92810999D01*
X132095216Y-92810998D01*
X132155235Y-92804547D01*
X132155238Y-92804546D01*
X132291021Y-92753900D01*
X132291027Y-92753896D01*
X132407047Y-92667047D01*
X132493896Y-92551027D01*
X132493897Y-92551025D01*
X132544547Y-92415231D01*
X132550999Y-92355227D01*
X132551000Y-92355210D01*
X132551000Y-92223500D01*
X131826000Y-92223500D01*
X131826000Y-92810999D01*
X131317999Y-92810999D01*
X131318000Y-92810998D01*
X131318000Y-92223500D01*
X130593001Y-92223500D01*
X130593001Y-92355216D01*
X127835500Y-92355216D01*
X127835500Y-92296016D01*
X127855185Y-92228977D01*
X127871814Y-92208339D01*
X128496381Y-91583772D01*
X130593000Y-91583772D01*
X130593000Y-91715500D01*
X131318000Y-91715500D01*
X131826000Y-91715500D01*
X132550999Y-91715500D01*
X132550999Y-91583792D01*
X132550998Y-91583783D01*
X132544547Y-91523764D01*
X132544546Y-91523761D01*
X132493900Y-91387978D01*
X132493896Y-91387972D01*
X132407047Y-91271952D01*
X132291027Y-91185103D01*
X132291025Y-91185102D01*
X132155231Y-91134452D01*
X132095227Y-91128000D01*
X131826000Y-91128000D01*
X131826000Y-91715500D01*
X131318000Y-91715500D01*
X131318000Y-91128000D01*
X131048793Y-91128000D01*
X131048783Y-91128001D01*
X130988764Y-91134452D01*
X130988761Y-91134453D01*
X130852978Y-91185099D01*
X130852972Y-91185103D01*
X130736952Y-91271952D01*
X130650103Y-91387972D01*
X130650102Y-91387974D01*
X130599452Y-91523768D01*
X130593000Y-91583772D01*
X128496381Y-91583772D01*
X128842724Y-91237429D01*
X128904045Y-91203946D01*
X128971359Y-91208071D01*
X129027301Y-91227646D01*
X129027300Y-91227646D01*
X129057730Y-91230500D01*
X129057734Y-91230500D01*
X129666270Y-91230500D01*
X129696699Y-91227646D01*
X129696701Y-91227646D01*
X129764430Y-91203946D01*
X129824882Y-91182793D01*
X129934150Y-91102150D01*
X130014793Y-90992882D01*
X130043338Y-90911305D01*
X130059646Y-90864701D01*
X130059646Y-90864699D01*
X130062500Y-90834269D01*
X130062500Y-90346000D01*
X130082185Y-90278961D01*
X130134989Y-90233206D01*
X130186500Y-90222000D01*
X130528830Y-90222000D01*
X130595869Y-90241685D01*
X130641624Y-90294489D01*
X130646674Y-90309642D01*
X130646861Y-90309577D01*
X130694206Y-90444880D01*
X130694207Y-90444882D01*
X130774850Y-90554150D01*
X130884118Y-90634793D01*
X130926845Y-90649744D01*
X131012299Y-90679646D01*
X131042730Y-90682500D01*
X131042734Y-90682500D01*
X132101270Y-90682500D01*
X132131699Y-90679646D01*
X132131701Y-90679646D01*
X132216451Y-90649990D01*
X132259882Y-90634793D01*
X132369150Y-90554150D01*
X132449793Y-90444882D01*
X132472219Y-90380790D01*
X132494646Y-90316701D01*
X132494646Y-90316699D01*
X132497500Y-90286269D01*
X132497500Y-89572017D01*
X132517185Y-89504978D01*
X132569989Y-89459223D01*
X132639147Y-89449279D01*
X132702703Y-89478304D01*
X132709181Y-89484336D01*
X134907337Y-91682492D01*
X134940822Y-91743815D01*
X134936179Y-91812581D01*
X134928100Y-91834778D01*
X134928100Y-91949569D01*
X134961779Y-92042103D01*
X134967360Y-92057435D01*
X134993108Y-92090991D01*
X134996472Y-92095375D01*
X134996474Y-92095377D01*
X135934284Y-93033184D01*
X135934290Y-93033190D01*
X135972220Y-93062296D01*
X135972223Y-93062298D01*
X136080089Y-93101558D01*
X136194878Y-93101558D01*
X136302744Y-93062298D01*
X136340678Y-93033190D01*
X136571390Y-92802476D01*
X136600500Y-92764542D01*
X136639760Y-92656676D01*
X136639760Y-92656670D01*
X136641644Y-92645990D01*
X136643728Y-92646357D01*
X136659445Y-92592834D01*
X136712249Y-92547079D01*
X136750070Y-92538851D01*
X136749878Y-92537757D01*
X136760558Y-92535873D01*
X136760564Y-92535873D01*
X136868430Y-92496613D01*
X136906364Y-92467505D01*
X137137076Y-92236791D01*
X137166186Y-92198857D01*
X137205446Y-92090991D01*
X137205446Y-92090985D01*
X137207330Y-92080305D01*
X137209414Y-92080672D01*
X137225131Y-92027148D01*
X137277935Y-91981393D01*
X137315755Y-91973165D01*
X137315563Y-91972071D01*
X137326243Y-91970187D01*
X137326249Y-91970187D01*
X137434115Y-91930927D01*
X137472049Y-91901819D01*
X137702761Y-91671105D01*
X137731871Y-91633171D01*
X137771131Y-91525305D01*
X137771131Y-91525299D01*
X137773015Y-91514619D01*
X137775099Y-91514986D01*
X137790816Y-91461463D01*
X137843620Y-91415708D01*
X137881440Y-91407480D01*
X137881248Y-91406386D01*
X137891928Y-91404502D01*
X137891934Y-91404502D01*
X137999800Y-91365242D01*
X138037734Y-91336134D01*
X138268446Y-91105420D01*
X138297556Y-91067486D01*
X138336816Y-90959620D01*
X138336816Y-90959614D01*
X138338700Y-90948934D01*
X138340784Y-90949301D01*
X138356501Y-90895777D01*
X138409305Y-90850022D01*
X138447126Y-90841794D01*
X138446934Y-90840700D01*
X138457614Y-90838816D01*
X138457620Y-90838816D01*
X138565486Y-90799556D01*
X138603420Y-90770448D01*
X138834132Y-90539734D01*
X138863242Y-90501800D01*
X138902502Y-90393934D01*
X138902502Y-90393928D01*
X138904386Y-90383248D01*
X138906470Y-90383615D01*
X138922187Y-90330092D01*
X138974991Y-90284337D01*
X139012811Y-90276109D01*
X139012619Y-90275015D01*
X139023299Y-90273131D01*
X139023305Y-90273131D01*
X139131171Y-90233871D01*
X139169105Y-90204763D01*
X139399817Y-89974049D01*
X139428927Y-89936115D01*
X139468187Y-89828249D01*
X139468187Y-89828243D01*
X139470071Y-89817563D01*
X139472155Y-89817930D01*
X139487872Y-89764407D01*
X139540676Y-89718652D01*
X139578497Y-89710424D01*
X139578305Y-89709330D01*
X139588985Y-89707446D01*
X139588991Y-89707446D01*
X139696857Y-89668186D01*
X139734791Y-89639078D01*
X139965503Y-89408364D01*
X139994613Y-89370430D01*
X140033873Y-89262564D01*
X140033873Y-89262558D01*
X140035757Y-89251878D01*
X140037841Y-89252245D01*
X140053558Y-89198721D01*
X140106362Y-89152966D01*
X140144182Y-89144738D01*
X140143990Y-89143644D01*
X140154670Y-89141760D01*
X140154676Y-89141760D01*
X140262542Y-89102500D01*
X140300476Y-89073392D01*
X140531188Y-88842678D01*
X140560298Y-88804744D01*
X140570898Y-88775618D01*
X140612323Y-88719356D01*
X140677591Y-88694419D01*
X140745980Y-88708728D01*
X140795776Y-88757739D01*
X140804701Y-88777765D01*
X140814458Y-88806187D01*
X140814459Y-88806187D01*
X141334718Y-88285929D01*
X141155113Y-88106324D01*
X140864508Y-88396930D01*
X140820014Y-88456602D01*
X140820009Y-88456612D01*
X140804700Y-88501203D01*
X140764313Y-88558218D01*
X140699513Y-88584347D01*
X140630874Y-88571294D01*
X140580187Y-88523204D01*
X140570898Y-88503347D01*
X140560298Y-88474224D01*
X140560298Y-88474223D01*
X140531190Y-88436288D01*
X140531188Y-88436286D01*
X140531185Y-88436282D01*
X140190819Y-88095916D01*
X140157334Y-88034593D01*
X140154500Y-88008235D01*
X140154500Y-87752771D01*
X141508666Y-87752771D01*
X141688271Y-87932376D01*
X142208529Y-87412117D01*
X142208529Y-87412116D01*
X142105070Y-87376599D01*
X141978581Y-87376599D01*
X141858949Y-87417669D01*
X141858944Y-87417672D01*
X141799272Y-87462166D01*
X141508666Y-87752771D01*
X140154500Y-87752771D01*
X140154500Y-87097803D01*
X140174185Y-87030764D01*
X140221516Y-86989751D01*
X140220663Y-86988137D01*
X140228879Y-86983794D01*
X140228882Y-86983793D01*
X140338150Y-86903150D01*
X140418793Y-86793882D01*
X140452820Y-86696638D01*
X140463646Y-86665701D01*
X140463646Y-86665699D01*
X140466500Y-86635269D01*
X140466500Y-86629216D01*
X140912001Y-86629216D01*
X140918452Y-86689235D01*
X140918453Y-86689238D01*
X140969099Y-86825021D01*
X140969103Y-86825027D01*
X141055952Y-86941047D01*
X141171972Y-87027896D01*
X141171974Y-87027897D01*
X141307768Y-87078547D01*
X141367780Y-87084999D01*
X141499499Y-87084999D01*
X142007500Y-87084999D01*
X142139207Y-87084999D01*
X142139216Y-87084998D01*
X142199235Y-87078547D01*
X142199238Y-87078546D01*
X142335021Y-87027900D01*
X142335027Y-87027896D01*
X142451047Y-86941047D01*
X142537896Y-86825027D01*
X142537897Y-86825025D01*
X142588547Y-86689231D01*
X142594999Y-86629227D01*
X142595000Y-86629210D01*
X142595000Y-86360000D01*
X142007500Y-86360000D01*
X142007500Y-87084999D01*
X141499499Y-87084999D01*
X141499500Y-87084998D01*
X141499500Y-86360000D01*
X140912001Y-86360000D01*
X140912001Y-86629216D01*
X140466500Y-86629216D01*
X140466500Y-85582772D01*
X140912000Y-85582772D01*
X140912000Y-85852000D01*
X141499500Y-85852000D01*
X141499500Y-84328000D01*
X142007500Y-84328000D01*
X142007500Y-85852000D01*
X142594999Y-85852000D01*
X142594999Y-85582792D01*
X142594998Y-85582783D01*
X142588547Y-85522764D01*
X142588546Y-85522761D01*
X142537900Y-85386978D01*
X142537896Y-85386972D01*
X142451047Y-85270952D01*
X142341927Y-85189268D01*
X142300055Y-85133335D01*
X142295070Y-85063643D01*
X142328554Y-85002320D01*
X142341927Y-84990732D01*
X142451047Y-84909047D01*
X142537896Y-84793027D01*
X142537898Y-84793023D01*
X142569818Y-84707445D01*
X142611689Y-84651511D01*
X142677154Y-84627094D01*
X142745427Y-84641946D01*
X142794832Y-84691351D01*
X142810000Y-84750778D01*
X142810000Y-84996206D01*
X142810001Y-84996216D01*
X142816452Y-85056235D01*
X142816453Y-85056238D01*
X142867099Y-85192021D01*
X142867103Y-85192027D01*
X142953952Y-85308047D01*
X143069972Y-85394896D01*
X143069974Y-85394897D01*
X143205768Y-85445547D01*
X143265780Y-85451999D01*
X143509999Y-85451999D01*
X144018000Y-85451999D01*
X144262207Y-85451999D01*
X144262216Y-85451998D01*
X144322235Y-85445547D01*
X144322238Y-85445546D01*
X144458021Y-85394900D01*
X144458027Y-85394896D01*
X144574047Y-85308047D01*
X144660896Y-85192027D01*
X144660897Y-85192025D01*
X144711547Y-85056231D01*
X144717999Y-84996227D01*
X144718000Y-84996210D01*
X144718000Y-84852000D01*
X144018000Y-84852000D01*
X144018000Y-85451999D01*
X143509999Y-85451999D01*
X143510000Y-85451998D01*
X143510000Y-83744000D01*
X143265793Y-83744000D01*
X143265783Y-83744001D01*
X143205764Y-83750452D01*
X143205761Y-83750453D01*
X143069978Y-83801099D01*
X143069972Y-83801103D01*
X142953952Y-83887952D01*
X142867103Y-84003972D01*
X142867102Y-84003974D01*
X142816452Y-84139768D01*
X142810000Y-84199772D01*
X142810000Y-84243638D01*
X142790315Y-84310677D01*
X142737511Y-84356432D01*
X142668353Y-84366376D01*
X142604797Y-84337351D01*
X142598319Y-84331319D01*
X142595000Y-84328000D01*
X142007500Y-84328000D01*
X141499500Y-84328000D01*
X140912001Y-84328000D01*
X140912001Y-84597216D01*
X140918452Y-84657235D01*
X140918453Y-84657238D01*
X140969099Y-84793021D01*
X140969103Y-84793027D01*
X141055951Y-84909045D01*
X141165073Y-84990732D01*
X141206944Y-85046666D01*
X141211929Y-85116357D01*
X141178445Y-85177681D01*
X141165073Y-85189268D01*
X141055951Y-85270954D01*
X140969103Y-85386972D01*
X140969102Y-85386974D01*
X140918452Y-85522768D01*
X140912000Y-85582772D01*
X140466500Y-85582772D01*
X140466500Y-85576730D01*
X140463646Y-85546303D01*
X140463646Y-85546301D01*
X140420457Y-85422875D01*
X140413500Y-85381922D01*
X140413500Y-84798077D01*
X140420459Y-84757122D01*
X140463531Y-84634027D01*
X140463646Y-84633699D01*
X140466500Y-84603266D01*
X140466500Y-83544734D01*
X140463646Y-83514301D01*
X140463646Y-83514300D01*
X140463646Y-83514299D01*
X140463350Y-83513453D01*
X140463316Y-83512787D01*
X140462036Y-83506927D01*
X140463006Y-83506715D01*
X140461848Y-83484021D01*
X140457654Y-83454853D01*
X140460087Y-83449524D01*
X140459789Y-83443674D01*
X140474436Y-83418104D01*
X140486679Y-83391297D01*
X140491607Y-83388129D01*
X140494519Y-83383047D01*
X140520665Y-83369455D01*
X140545457Y-83353523D01*
X140553554Y-83352358D01*
X140556513Y-83350821D01*
X140580392Y-83348500D01*
X140795702Y-83348500D01*
X140862741Y-83368185D01*
X140908496Y-83420989D01*
X140918991Y-83485755D01*
X140912001Y-83550770D01*
X140912000Y-83550789D01*
X140912000Y-83820000D01*
X142594999Y-83820000D01*
X142594999Y-83550792D01*
X142594998Y-83550786D01*
X142588008Y-83485753D01*
X142600415Y-83416994D01*
X142648026Y-83365857D01*
X142711298Y-83348500D01*
X143980515Y-83348500D01*
X144009955Y-83357144D01*
X144039942Y-83363668D01*
X144044957Y-83367422D01*
X144047554Y-83368185D01*
X144068196Y-83384819D01*
X144215696Y-83532319D01*
X144249181Y-83593642D01*
X144244197Y-83663334D01*
X144202325Y-83719267D01*
X144136861Y-83743684D01*
X144128015Y-83744000D01*
X144018000Y-83744000D01*
X144018000Y-84344000D01*
X144717999Y-84344000D01*
X144717999Y-84333984D01*
X144737684Y-84266945D01*
X144790488Y-84221190D01*
X144859646Y-84211246D01*
X144923202Y-84240271D01*
X144929680Y-84246303D01*
X145432181Y-84748804D01*
X145465666Y-84810127D01*
X145468500Y-84836485D01*
X145468500Y-87967884D01*
X145468500Y-88054116D01*
X145490819Y-88137410D01*
X145533935Y-88212090D01*
X146487910Y-89166065D01*
X146562590Y-89209181D01*
X146645884Y-89231500D01*
X146645886Y-89231500D01*
X146768410Y-89231500D01*
X146835449Y-89251185D01*
X146881204Y-89303989D01*
X146891148Y-89373147D01*
X146862123Y-89436703D01*
X146856091Y-89443181D01*
X145569756Y-90729515D01*
X145508433Y-90763000D01*
X145438741Y-90758016D01*
X145382808Y-90716144D01*
X145365554Y-90684246D01*
X145333269Y-90595543D01*
X145304161Y-90557609D01*
X145073447Y-90326897D01*
X145073442Y-90326893D01*
X145073441Y-90326892D01*
X145057310Y-90314514D01*
X145035513Y-90297787D01*
X145035511Y-90297786D01*
X145035513Y-90297786D01*
X144927647Y-90258527D01*
X144916961Y-90256643D01*
X144917328Y-90254558D01*
X144863805Y-90238842D01*
X144818050Y-90186038D01*
X144809822Y-90148217D01*
X144808728Y-90148410D01*
X144806844Y-90137728D01*
X144806844Y-90137724D01*
X144767584Y-90029858D01*
X144738476Y-89991924D01*
X144507762Y-89761212D01*
X144507757Y-89761208D01*
X144507756Y-89761207D01*
X144469829Y-89732103D01*
X144469828Y-89732102D01*
X144469826Y-89732101D01*
X144469828Y-89732101D01*
X144361962Y-89692842D01*
X144351276Y-89690958D01*
X144351643Y-89688873D01*
X144298119Y-89673157D01*
X144252364Y-89620353D01*
X144244136Y-89582531D01*
X144243042Y-89582724D01*
X144241158Y-89572042D01*
X144241158Y-89572038D01*
X144201898Y-89464172D01*
X144172790Y-89426238D01*
X143942076Y-89195526D01*
X143942071Y-89195522D01*
X143942070Y-89195521D01*
X143916838Y-89176159D01*
X143904142Y-89166416D01*
X143904140Y-89166415D01*
X143904142Y-89166415D01*
X143796276Y-89127156D01*
X143785590Y-89125272D01*
X143785957Y-89123187D01*
X143732434Y-89107471D01*
X143686679Y-89054667D01*
X143678451Y-89016846D01*
X143677357Y-89017039D01*
X143675473Y-89006357D01*
X143675473Y-89006353D01*
X143636213Y-88898487D01*
X143607105Y-88860553D01*
X143376391Y-88629841D01*
X143376386Y-88629837D01*
X143376385Y-88629836D01*
X143360254Y-88617458D01*
X143338457Y-88600731D01*
X143338455Y-88600730D01*
X143338457Y-88600730D01*
X143249755Y-88568446D01*
X143193491Y-88527020D01*
X143168555Y-88461751D01*
X143182865Y-88393362D01*
X143204481Y-88364246D01*
X144026065Y-87542663D01*
X144069181Y-87467983D01*
X144069181Y-87467981D01*
X144073244Y-87460945D01*
X144076227Y-87462667D01*
X144110113Y-87420632D01*
X144176411Y-87398578D01*
X144180816Y-87398500D01*
X144268270Y-87398500D01*
X144298699Y-87395646D01*
X144298701Y-87395646D01*
X144386023Y-87365090D01*
X144426882Y-87350793D01*
X144536150Y-87270150D01*
X144616793Y-87160882D01*
X144645604Y-87078546D01*
X144661646Y-87032701D01*
X144661646Y-87032699D01*
X144664500Y-87002269D01*
X144664500Y-86193730D01*
X144661646Y-86163300D01*
X144661646Y-86163298D01*
X144616793Y-86035119D01*
X144616792Y-86035117D01*
X144614084Y-86031448D01*
X144536150Y-85925850D01*
X144426882Y-85845207D01*
X144426880Y-85845206D01*
X144298700Y-85800353D01*
X144268270Y-85797500D01*
X144268266Y-85797500D01*
X143259734Y-85797500D01*
X143259730Y-85797500D01*
X143229300Y-85800353D01*
X143229298Y-85800353D01*
X143101119Y-85845206D01*
X143101117Y-85845207D01*
X142991850Y-85925850D01*
X142911207Y-86035117D01*
X142911206Y-86035119D01*
X142866353Y-86163298D01*
X142866353Y-86163300D01*
X142863500Y-86193730D01*
X142863500Y-87002269D01*
X142866353Y-87032699D01*
X142866353Y-87032701D01*
X142911206Y-87160880D01*
X142911207Y-87160882D01*
X142991850Y-87270150D01*
X143063579Y-87323088D01*
X143094793Y-87346125D01*
X143137043Y-87401772D01*
X143142502Y-87471429D01*
X143109434Y-87532978D01*
X143108840Y-87533576D01*
X142782963Y-87859453D01*
X142721640Y-87892938D01*
X142651948Y-87887954D01*
X142596015Y-87846082D01*
X142578001Y-87812035D01*
X142562084Y-87765671D01*
X142562083Y-87765670D01*
X141865049Y-88462707D01*
X141168012Y-89159741D01*
X141168013Y-89159742D01*
X141271473Y-89195261D01*
X141286805Y-89195261D01*
X141353844Y-89214946D01*
X141399599Y-89267750D01*
X141403324Y-89276842D01*
X141437387Y-89370430D01*
X141437388Y-89370431D01*
X141466100Y-89407850D01*
X141466495Y-89408364D01*
X141697209Y-89639076D01*
X141697212Y-89639078D01*
X141697213Y-89639079D01*
X141697214Y-89639080D01*
X141703861Y-89644181D01*
X141735143Y-89668186D01*
X141735142Y-89668186D01*
X141772470Y-89681772D01*
X141843009Y-89707446D01*
X141843014Y-89707446D01*
X141853695Y-89709330D01*
X141853327Y-89711414D01*
X141906852Y-89727131D01*
X141952607Y-89779935D01*
X141960834Y-89817755D01*
X141961929Y-89817563D01*
X141963813Y-89828249D01*
X142003073Y-89936115D01*
X142032181Y-89974049D01*
X142262895Y-90204761D01*
X142262898Y-90204763D01*
X142262899Y-90204764D01*
X142262900Y-90204765D01*
X142269547Y-90209866D01*
X142300829Y-90233871D01*
X142300828Y-90233871D01*
X142337783Y-90247321D01*
X142408695Y-90273131D01*
X142408700Y-90273131D01*
X142419381Y-90275015D01*
X142419013Y-90277099D01*
X142472537Y-90292816D01*
X142518292Y-90345620D01*
X142526519Y-90383440D01*
X142527614Y-90383248D01*
X142529498Y-90393934D01*
X142568758Y-90501800D01*
X142597866Y-90539734D01*
X142828580Y-90770446D01*
X142828583Y-90770448D01*
X142828584Y-90770449D01*
X142828585Y-90770450D01*
X142835232Y-90775551D01*
X142866514Y-90799556D01*
X142866513Y-90799556D01*
X142905773Y-90813845D01*
X142974380Y-90838816D01*
X142974385Y-90838816D01*
X142985066Y-90840700D01*
X142984698Y-90842784D01*
X143038223Y-90858501D01*
X143083978Y-90911305D01*
X143092205Y-90949126D01*
X143093300Y-90948934D01*
X143095184Y-90959620D01*
X143134444Y-91067486D01*
X143163552Y-91105420D01*
X143394266Y-91336132D01*
X143394269Y-91336134D01*
X143394270Y-91336135D01*
X143394271Y-91336136D01*
X143400918Y-91341237D01*
X143432200Y-91365242D01*
X143432199Y-91365242D01*
X143461235Y-91375810D01*
X143540066Y-91404502D01*
X143540071Y-91404502D01*
X143550752Y-91406386D01*
X143550384Y-91408470D01*
X143603908Y-91424187D01*
X143649663Y-91476991D01*
X143657890Y-91514811D01*
X143658985Y-91514619D01*
X143660869Y-91525305D01*
X143700129Y-91633171D01*
X143729237Y-91671105D01*
X143959951Y-91901817D01*
X143959954Y-91901819D01*
X143959955Y-91901820D01*
X143959956Y-91901821D01*
X143966603Y-91906922D01*
X143997885Y-91930927D01*
X143997884Y-91930927D01*
X144037144Y-91945216D01*
X144105751Y-91970187D01*
X144105756Y-91970187D01*
X144116437Y-91972071D01*
X144116069Y-91974155D01*
X144169593Y-91989872D01*
X144215348Y-92042676D01*
X144223575Y-92080497D01*
X144224670Y-92080305D01*
X144226554Y-92090991D01*
X144265814Y-92198857D01*
X144294922Y-92236791D01*
X144525636Y-92467503D01*
X144525639Y-92467505D01*
X144525640Y-92467506D01*
X144525641Y-92467507D01*
X144532288Y-92472608D01*
X144563570Y-92496613D01*
X144563569Y-92496613D01*
X144595883Y-92508374D01*
X144671436Y-92535873D01*
X144671441Y-92535873D01*
X144682122Y-92537757D01*
X144681754Y-92539841D01*
X144735279Y-92555558D01*
X144781034Y-92608362D01*
X144789261Y-92646182D01*
X144790356Y-92645990D01*
X144792240Y-92656676D01*
X144831500Y-92764542D01*
X144860608Y-92802476D01*
X145091322Y-93033188D01*
X145091325Y-93033190D01*
X145091326Y-93033191D01*
X145091327Y-93033192D01*
X145095624Y-93036489D01*
X145129256Y-93062298D01*
X145129255Y-93062298D01*
X145156569Y-93072239D01*
X145237122Y-93101558D01*
X145351911Y-93101558D01*
X145459777Y-93062298D01*
X145497712Y-93033190D01*
X146272819Y-92258080D01*
X146334142Y-92224596D01*
X146403833Y-92229580D01*
X146459767Y-92271451D01*
X146484184Y-92336916D01*
X146484500Y-92345762D01*
X146484500Y-92839324D01*
X146464815Y-92906363D01*
X146448181Y-92927005D01*
X145822724Y-93552462D01*
X145761401Y-93585947D01*
X145691709Y-93580963D01*
X145647362Y-93552462D01*
X145497709Y-93402809D01*
X145459779Y-93373703D01*
X145459775Y-93373701D01*
X145372674Y-93341999D01*
X145351911Y-93334442D01*
X145237122Y-93334442D01*
X145216359Y-93341999D01*
X145216357Y-93341999D01*
X145161415Y-93361997D01*
X145129256Y-93373702D01*
X145129255Y-93373702D01*
X145129254Y-93373703D01*
X145091326Y-93402806D01*
X145091325Y-93402807D01*
X144860606Y-93633528D01*
X144860605Y-93633529D01*
X144831499Y-93671458D01*
X144792240Y-93779323D01*
X144790356Y-93790010D01*
X144788271Y-93789642D01*
X144772555Y-93843166D01*
X144719751Y-93888921D01*
X144681929Y-93897148D01*
X144682122Y-93898243D01*
X144671435Y-93900127D01*
X144563569Y-93939387D01*
X144563568Y-93939388D01*
X144525640Y-93968491D01*
X144525639Y-93968492D01*
X144294920Y-94199213D01*
X144294919Y-94199214D01*
X144265813Y-94237143D01*
X144226554Y-94345008D01*
X144224670Y-94355695D01*
X144222585Y-94355327D01*
X144206869Y-94408852D01*
X144154065Y-94454607D01*
X144116244Y-94462834D01*
X144116437Y-94463929D01*
X144105750Y-94465813D01*
X143997884Y-94505073D01*
X143997883Y-94505074D01*
X143959955Y-94534177D01*
X143959954Y-94534178D01*
X143729235Y-94764899D01*
X143729234Y-94764900D01*
X143700128Y-94802829D01*
X143660869Y-94910694D01*
X143658985Y-94921381D01*
X143656900Y-94921013D01*
X143641184Y-94974537D01*
X143588380Y-95020292D01*
X143550559Y-95028519D01*
X143550752Y-95029614D01*
X143540065Y-95031498D01*
X143432199Y-95070758D01*
X143432198Y-95070759D01*
X143394270Y-95099862D01*
X143394269Y-95099863D01*
X143163550Y-95330584D01*
X143163549Y-95330585D01*
X143134443Y-95368514D01*
X143095184Y-95476379D01*
X143093300Y-95487066D01*
X143091215Y-95486698D01*
X143075499Y-95540223D01*
X143022695Y-95585978D01*
X142984873Y-95594205D01*
X142985066Y-95595300D01*
X142974379Y-95597184D01*
X142866513Y-95636444D01*
X142866512Y-95636445D01*
X142828584Y-95665548D01*
X142828583Y-95665549D01*
X142597864Y-95896270D01*
X142597863Y-95896271D01*
X142568757Y-95934200D01*
X142529498Y-96042065D01*
X142527614Y-96052752D01*
X142525529Y-96052384D01*
X142509813Y-96105908D01*
X142457009Y-96151663D01*
X142419188Y-96159890D01*
X142419381Y-96160985D01*
X142408694Y-96162869D01*
X142300828Y-96202129D01*
X142300827Y-96202130D01*
X142262899Y-96231233D01*
X142262898Y-96231234D01*
X142032179Y-96461955D01*
X142032178Y-96461956D01*
X142003072Y-96499885D01*
X141963813Y-96607750D01*
X141961929Y-96618437D01*
X141959844Y-96618069D01*
X141944128Y-96671593D01*
X141891324Y-96717348D01*
X141853502Y-96725575D01*
X141853695Y-96726670D01*
X141843008Y-96728554D01*
X141735142Y-96767814D01*
X141735141Y-96767815D01*
X141697213Y-96796918D01*
X141697212Y-96796919D01*
X141466493Y-97027640D01*
X141466492Y-97027641D01*
X141437386Y-97065570D01*
X141398127Y-97173435D01*
X141396243Y-97184122D01*
X141394158Y-97183754D01*
X141378442Y-97237279D01*
X141325638Y-97283034D01*
X141287817Y-97291261D01*
X141288010Y-97292356D01*
X141277323Y-97294240D01*
X141169457Y-97333500D01*
X141169456Y-97333501D01*
X141131528Y-97362604D01*
X141131527Y-97362605D01*
X140900808Y-97593326D01*
X140900807Y-97593327D01*
X140871702Y-97631255D01*
X140861101Y-97660382D01*
X140819674Y-97716646D01*
X140754405Y-97741581D01*
X140686017Y-97727271D01*
X140636221Y-97678259D01*
X140627298Y-97658234D01*
X140617540Y-97629811D01*
X140617539Y-97629810D01*
X140097281Y-98150069D01*
X140097281Y-98150070D01*
X140276885Y-98329675D01*
X140276886Y-98329675D01*
X140567490Y-98039071D01*
X140611985Y-97979397D01*
X140611989Y-97979390D01*
X140627298Y-97934798D01*
X140667683Y-97877783D01*
X140732483Y-97851652D01*
X140801123Y-97864703D01*
X140851811Y-97912792D01*
X140861099Y-97932646D01*
X140871702Y-97961777D01*
X140894330Y-97991267D01*
X140900814Y-97999717D01*
X140900816Y-97999719D01*
X141262681Y-98361582D01*
X141296166Y-98422905D01*
X141299000Y-98449263D01*
X141299000Y-99330673D01*
X141279315Y-99397712D01*
X141226511Y-99443467D01*
X141215960Y-99447713D01*
X141203118Y-99452207D01*
X141093850Y-99532850D01*
X141013207Y-99642117D01*
X141013206Y-99642119D01*
X140968353Y-99770298D01*
X140968353Y-99770300D01*
X140965500Y-99800730D01*
X140965500Y-100859269D01*
X140968353Y-100889699D01*
X140968353Y-100889701D01*
X141013206Y-101017880D01*
X141013207Y-101017882D01*
X141036191Y-101049025D01*
X141093851Y-101127151D01*
X141201133Y-101206328D01*
X141204154Y-101210307D01*
X141208703Y-101212385D01*
X141225076Y-101237863D01*
X141243384Y-101261975D01*
X141244511Y-101268104D01*
X141246477Y-101271163D01*
X141251500Y-101306098D01*
X141251500Y-101385901D01*
X141231815Y-101452940D01*
X141201134Y-101485671D01*
X141093850Y-101564850D01*
X141013207Y-101674117D01*
X141013206Y-101674119D01*
X140968353Y-101802298D01*
X140968353Y-101802300D01*
X140965500Y-101832730D01*
X140965500Y-102891269D01*
X140968353Y-102921699D01*
X140968353Y-102921701D01*
X141006602Y-103031007D01*
X141013207Y-103049882D01*
X141093850Y-103159150D01*
X141203118Y-103239793D01*
X141245845Y-103254744D01*
X141331299Y-103284646D01*
X141361730Y-103287500D01*
X141361734Y-103287500D01*
X142145270Y-103287500D01*
X142175699Y-103284646D01*
X142175701Y-103284646D01*
X142260448Y-103254991D01*
X142303882Y-103239793D01*
X142413150Y-103159150D01*
X142493793Y-103049882D01*
X142518395Y-102979573D01*
X142538646Y-102921701D01*
X142538646Y-102921699D01*
X142541500Y-102891269D01*
X142541500Y-101832730D01*
X142538646Y-101802300D01*
X142538646Y-101802298D01*
X142493793Y-101674119D01*
X142493792Y-101674117D01*
X142413150Y-101564850D01*
X142303882Y-101484207D01*
X142302866Y-101483457D01*
X142299843Y-101479476D01*
X142295297Y-101477400D01*
X142278923Y-101451921D01*
X142260616Y-101427809D01*
X142259488Y-101421680D01*
X142257523Y-101418622D01*
X142252500Y-101383687D01*
X142252500Y-101308312D01*
X142272185Y-101241273D01*
X142302867Y-101208542D01*
X142361801Y-101165047D01*
X142413150Y-101127150D01*
X142493793Y-101017882D01*
X142526973Y-100923059D01*
X142531637Y-100909730D01*
X142863500Y-100909730D01*
X142863500Y-101718269D01*
X142866353Y-101748699D01*
X142866353Y-101748701D01*
X142910705Y-101875447D01*
X142911207Y-101876882D01*
X142991850Y-101986150D01*
X143101118Y-102066793D01*
X143143845Y-102081744D01*
X143229299Y-102111646D01*
X143259730Y-102114500D01*
X143259734Y-102114500D01*
X144268270Y-102114500D01*
X144298699Y-102111646D01*
X144298701Y-102111646D01*
X144362790Y-102089219D01*
X144426882Y-102066793D01*
X144536150Y-101986150D01*
X144616793Y-101876882D01*
X144616794Y-101876880D01*
X144622311Y-101869405D01*
X144624285Y-101870862D01*
X144624825Y-101870306D01*
X144630767Y-101857297D01*
X144648706Y-101845768D01*
X144663580Y-101830485D01*
X144678637Y-101826532D01*
X144689545Y-101819523D01*
X144724480Y-101814500D01*
X144835520Y-101814500D01*
X144902559Y-101834185D01*
X144936031Y-101870628D01*
X144937689Y-101869405D01*
X144943206Y-101876880D01*
X144943207Y-101876882D01*
X145023850Y-101986150D01*
X145133118Y-102066793D01*
X145175845Y-102081744D01*
X145261299Y-102111646D01*
X145291730Y-102114500D01*
X145291734Y-102114500D01*
X146300270Y-102114500D01*
X146330699Y-102111646D01*
X146330701Y-102111646D01*
X146394790Y-102089219D01*
X146458882Y-102066793D01*
X146568150Y-101986150D01*
X146648793Y-101876882D01*
X146678106Y-101793111D01*
X146693646Y-101748701D01*
X146693646Y-101748699D01*
X146696500Y-101718269D01*
X146696500Y-100909730D01*
X146693646Y-100879300D01*
X146693646Y-100879298D01*
X146658830Y-100779802D01*
X146648793Y-100751118D01*
X146568150Y-100641850D01*
X146458882Y-100561207D01*
X146458880Y-100561206D01*
X146330700Y-100516353D01*
X146300270Y-100513500D01*
X146300266Y-100513500D01*
X145291734Y-100513500D01*
X145291730Y-100513500D01*
X145261300Y-100516353D01*
X145261298Y-100516353D01*
X145133119Y-100561206D01*
X145133117Y-100561207D01*
X145067069Y-100609953D01*
X145023850Y-100641850D01*
X144952827Y-100738084D01*
X144937689Y-100758595D01*
X144935714Y-100757137D01*
X144935174Y-100757693D01*
X144929233Y-100770703D01*
X144911293Y-100782231D01*
X144896420Y-100797515D01*
X144881362Y-100801467D01*
X144870455Y-100808477D01*
X144835520Y-100813500D01*
X144724480Y-100813500D01*
X144657441Y-100793815D01*
X144623968Y-100757371D01*
X144622311Y-100758595D01*
X144616792Y-100751117D01*
X144536150Y-100641850D01*
X144426882Y-100561207D01*
X144426880Y-100561206D01*
X144298700Y-100516353D01*
X144268270Y-100513500D01*
X144268266Y-100513500D01*
X143259734Y-100513500D01*
X143259730Y-100513500D01*
X143229300Y-100516353D01*
X143229298Y-100516353D01*
X143101119Y-100561206D01*
X143101117Y-100561207D01*
X142991850Y-100641850D01*
X142911207Y-100751117D01*
X142911206Y-100751119D01*
X142866353Y-100879298D01*
X142866353Y-100879300D01*
X142863500Y-100909730D01*
X142531637Y-100909730D01*
X142538646Y-100889701D01*
X142541500Y-100859268D01*
X142541500Y-99800730D01*
X142538646Y-99770300D01*
X142538646Y-99770298D01*
X142493793Y-99642119D01*
X142493792Y-99642117D01*
X142477773Y-99620412D01*
X142413150Y-99532850D01*
X142303882Y-99452207D01*
X142295629Y-99449319D01*
X142291040Y-99447713D01*
X142234266Y-99406989D01*
X142208522Y-99342035D01*
X142208000Y-99330673D01*
X142208000Y-99025914D01*
X142227685Y-98958875D01*
X142244318Y-98938233D01*
X142245015Y-98937535D01*
X142245020Y-98937532D01*
X142475732Y-98706818D01*
X142483105Y-98697209D01*
X142539529Y-98656008D01*
X142609275Y-98651851D01*
X142670196Y-98686062D01*
X142673674Y-98689773D01*
X142682369Y-98699440D01*
X142711287Y-98749527D01*
X142804473Y-98842713D01*
X142818538Y-98850833D01*
X142831694Y-98865460D01*
X142838628Y-98879930D01*
X142849706Y-98891544D01*
X142855360Y-98914842D01*
X142861890Y-98928468D01*
X142860794Y-98937235D01*
X142863500Y-98948383D01*
X142863500Y-99718269D01*
X142866353Y-99748699D01*
X142866353Y-99748701D01*
X142901033Y-99847807D01*
X142911207Y-99876882D01*
X142991850Y-99986150D01*
X143101118Y-100066793D01*
X143127573Y-100076050D01*
X143229299Y-100111646D01*
X143259730Y-100114500D01*
X143259734Y-100114500D01*
X144268270Y-100114500D01*
X144298699Y-100111646D01*
X144298701Y-100111646D01*
X144362790Y-100089219D01*
X144426882Y-100066793D01*
X144536150Y-99986150D01*
X144616793Y-99876882D01*
X144639637Y-99811598D01*
X144662959Y-99744949D01*
X144703681Y-99688173D01*
X144768634Y-99662426D01*
X144837195Y-99675883D01*
X144887598Y-99724270D01*
X144897041Y-99744949D01*
X144927643Y-99832403D01*
X144943207Y-99876882D01*
X145023850Y-99986150D01*
X145133118Y-100066793D01*
X145159573Y-100076050D01*
X145261299Y-100111646D01*
X145291730Y-100114500D01*
X145291734Y-100114500D01*
X146300270Y-100114500D01*
X146330699Y-100111646D01*
X146330701Y-100111646D01*
X146394790Y-100089219D01*
X146458882Y-100066793D01*
X146568150Y-99986150D01*
X146648793Y-99876882D01*
X146671637Y-99811596D01*
X146693646Y-99748701D01*
X146693646Y-99748699D01*
X146696500Y-99718269D01*
X146696500Y-98945017D01*
X146716185Y-98877978D01*
X146768989Y-98832223D01*
X146838147Y-98822279D01*
X146901703Y-98851304D01*
X146908181Y-98857336D01*
X150740935Y-102690090D01*
X150801910Y-102751065D01*
X150876590Y-102794181D01*
X150959884Y-102816500D01*
X151016456Y-102816500D01*
X151083495Y-102836185D01*
X151104137Y-102852819D01*
X151179514Y-102928196D01*
X151179515Y-102928196D01*
X151179517Y-102928198D01*
X151275883Y-102975308D01*
X151293258Y-102983802D01*
X151292207Y-102985951D01*
X151339051Y-103016991D01*
X151367184Y-103080947D01*
X151356274Y-103149959D01*
X151309785Y-103202118D01*
X151263615Y-103219347D01*
X151259608Y-103219981D01*
X151259604Y-103219982D01*
X151145573Y-103278084D01*
X151145569Y-103278087D01*
X151055087Y-103368569D01*
X151055084Y-103368574D01*
X150996984Y-103482600D01*
X150993436Y-103505000D01*
X152087000Y-103505000D01*
X152154039Y-103524685D01*
X152199794Y-103577489D01*
X152211000Y-103629000D01*
X152211000Y-103759000D01*
X152341000Y-103759000D01*
X152408039Y-103778685D01*
X152453794Y-103831489D01*
X152465000Y-103883000D01*
X152465000Y-104312999D01*
X153067799Y-104312999D01*
X153067799Y-104312998D01*
X153104997Y-104307107D01*
X167806000Y-104307107D01*
X167806000Y-104480892D01*
X167833183Y-104652521D01*
X167886884Y-104817793D01*
X167965771Y-104972616D01*
X167965778Y-104972627D01*
X167968464Y-104976325D01*
X168425841Y-104518947D01*
X168444075Y-104586993D01*
X168509901Y-104701007D01*
X168602993Y-104794099D01*
X168717007Y-104859925D01*
X168785051Y-104878157D01*
X168327674Y-105335534D01*
X168327674Y-105335535D01*
X168331374Y-105338223D01*
X168486206Y-105417115D01*
X168651478Y-105470816D01*
X168823108Y-105498000D01*
X168996892Y-105498000D01*
X169168521Y-105470816D01*
X169333793Y-105417115D01*
X169488618Y-105338228D01*
X169492325Y-105335534D01*
X169034948Y-104878157D01*
X169102993Y-104859925D01*
X169217007Y-104794099D01*
X169310099Y-104701007D01*
X169375925Y-104586993D01*
X169394157Y-104518948D01*
X169851534Y-104976325D01*
X169854228Y-104972618D01*
X169933115Y-104817793D01*
X169986816Y-104652521D01*
X170014000Y-104480892D01*
X170014000Y-104307107D01*
X169986816Y-104135478D01*
X169933115Y-103970206D01*
X169854223Y-103815374D01*
X169851535Y-103811674D01*
X169851534Y-103811674D01*
X169394157Y-104269051D01*
X169375925Y-104201007D01*
X169310099Y-104086993D01*
X169217007Y-103993901D01*
X169102993Y-103928075D01*
X169034948Y-103909842D01*
X169492325Y-103452464D01*
X169488627Y-103449778D01*
X169488616Y-103449771D01*
X169333793Y-103370884D01*
X169168521Y-103317183D01*
X168996892Y-103290000D01*
X168823108Y-103290000D01*
X168651478Y-103317183D01*
X168486206Y-103370884D01*
X168331377Y-103449774D01*
X168327674Y-103452464D01*
X168785052Y-103909842D01*
X168717007Y-103928075D01*
X168602993Y-103993901D01*
X168509901Y-104086993D01*
X168444075Y-104201007D01*
X168425842Y-104269052D01*
X167968464Y-103811674D01*
X167965774Y-103815377D01*
X167886884Y-103970206D01*
X167833183Y-104135478D01*
X167806000Y-104307107D01*
X153104997Y-104307107D01*
X153162394Y-104298017D01*
X153162396Y-104298016D01*
X153174614Y-104291791D01*
X153243283Y-104278893D01*
X153280508Y-104294000D01*
X153298000Y-104294000D01*
X156073999Y-104294000D01*
X156074000Y-104294000D01*
X156074000Y-104293999D01*
X156093970Y-104274029D01*
X156155293Y-104240543D01*
X156224985Y-104245527D01*
X156233871Y-104249345D01*
X156234607Y-104249573D01*
X156302739Y-104259500D01*
X156302740Y-104259500D01*
X158019261Y-104259500D01*
X158041971Y-104256191D01*
X158087393Y-104249573D01*
X158192483Y-104198198D01*
X158275198Y-104115483D01*
X158285904Y-104093581D01*
X158298677Y-104079969D01*
X158313346Y-104071341D01*
X158324824Y-104058778D01*
X158327078Y-104057444D01*
X158390090Y-104021065D01*
X159103336Y-103307819D01*
X159164659Y-103274334D01*
X159191017Y-103271500D01*
X165927582Y-103271500D01*
X165927584Y-103271500D01*
X166010878Y-103249181D01*
X166085558Y-103206065D01*
X167013804Y-102277819D01*
X167075127Y-102244334D01*
X167101485Y-102241500D01*
X167850601Y-102241500D01*
X167917640Y-102261185D01*
X167963395Y-102313989D01*
X167965145Y-102318008D01*
X167971777Y-102334017D01*
X167979059Y-102351598D01*
X168094024Y-102523657D01*
X168240342Y-102669975D01*
X168240345Y-102669977D01*
X168412402Y-102784941D01*
X168603580Y-102864130D01*
X168806530Y-102904499D01*
X168806534Y-102904500D01*
X168806535Y-102904500D01*
X169013466Y-102904500D01*
X169013467Y-102904499D01*
X169216420Y-102864130D01*
X169407598Y-102784941D01*
X169579655Y-102669977D01*
X169725977Y-102523655D01*
X169840941Y-102351598D01*
X169920130Y-102160420D01*
X169960500Y-101957465D01*
X169960500Y-101750535D01*
X169920130Y-101547580D01*
X169840941Y-101356402D01*
X169725977Y-101184345D01*
X169725975Y-101184342D01*
X169579657Y-101038024D01*
X169480877Y-100972022D01*
X169407598Y-100923059D01*
X169395010Y-100917845D01*
X169216420Y-100843870D01*
X169216412Y-100843868D01*
X169013469Y-100803500D01*
X169013465Y-100803500D01*
X168806535Y-100803500D01*
X168806530Y-100803500D01*
X168603587Y-100843868D01*
X168603579Y-100843870D01*
X168412403Y-100923058D01*
X168240342Y-101038024D01*
X168094024Y-101184342D01*
X167979058Y-101356403D01*
X167960788Y-101400511D01*
X167923154Y-101491369D01*
X167915456Y-101509953D01*
X167871615Y-101564356D01*
X167805321Y-101586421D01*
X167800895Y-101586500D01*
X167361017Y-101586500D01*
X167293978Y-101566815D01*
X167248223Y-101514011D01*
X167238279Y-101444853D01*
X167267304Y-101381297D01*
X167273336Y-101374819D01*
X167521005Y-101127150D01*
X168347319Y-100300834D01*
X168408640Y-100267351D01*
X168478331Y-100272335D01*
X168482430Y-100273948D01*
X168603580Y-100324130D01*
X168771218Y-100357475D01*
X168806530Y-100364499D01*
X168806534Y-100364500D01*
X168806535Y-100364500D01*
X169013466Y-100364500D01*
X169013467Y-100364499D01*
X169216420Y-100324130D01*
X169407598Y-100244941D01*
X169579655Y-100129977D01*
X169725977Y-99983655D01*
X169840941Y-99811598D01*
X169920130Y-99620420D01*
X169960500Y-99417465D01*
X169960500Y-99210535D01*
X169920130Y-99007580D01*
X169840941Y-98816402D01*
X169725977Y-98644345D01*
X169725975Y-98644342D01*
X169579657Y-98498024D01*
X169552020Y-98479558D01*
X169547596Y-98476602D01*
X169502792Y-98422991D01*
X169494084Y-98353666D01*
X169524238Y-98290638D01*
X169583680Y-98253919D01*
X169616487Y-98249500D01*
X170055991Y-98249500D01*
X170056000Y-98249500D01*
X170099684Y-98244803D01*
X170134693Y-98237187D01*
X170151174Y-98233602D01*
X170151190Y-98233598D01*
X170151195Y-98233597D01*
X170161373Y-98231110D01*
X170242085Y-98188100D01*
X170294889Y-98142345D01*
X170312843Y-98124754D01*
X170357490Y-98044937D01*
X170377175Y-97977898D01*
X170385500Y-97920000D01*
X170385500Y-95628000D01*
X170380803Y-95584316D01*
X170376897Y-95566364D01*
X170369602Y-95532825D01*
X170367615Y-95524695D01*
X170367110Y-95522627D01*
X170324100Y-95441915D01*
X170278345Y-95389111D01*
X170278339Y-95389104D01*
X170260757Y-95371160D01*
X170260756Y-95371159D01*
X170260754Y-95371157D01*
X170260752Y-95371156D01*
X170260750Y-95371154D01*
X170180940Y-95326511D01*
X170180935Y-95326509D01*
X170113903Y-95306826D01*
X170113899Y-95306825D01*
X170113898Y-95306825D01*
X170056000Y-95298500D01*
X170055996Y-95298500D01*
X167430128Y-95298500D01*
X167397501Y-95294131D01*
X163288733Y-94173556D01*
X163229236Y-94136925D01*
X163198987Y-94073943D01*
X163207590Y-94004605D01*
X163228091Y-93980000D01*
X167386000Y-93980000D01*
X167386000Y-93835467D01*
X167429563Y-93879030D01*
X167441897Y-93912097D01*
X167450401Y-93951190D01*
X167451919Y-93957400D01*
X167452890Y-93961373D01*
X167495900Y-94042085D01*
X167511391Y-94059962D01*
X167541660Y-94094895D01*
X167556865Y-94110413D01*
X167559246Y-94112843D01*
X167559247Y-94112844D01*
X167559249Y-94112845D01*
X167629055Y-94151892D01*
X167639063Y-94157490D01*
X167706102Y-94177175D01*
X167764000Y-94185500D01*
X167764004Y-94185500D01*
X170817991Y-94185500D01*
X170818000Y-94185500D01*
X170861684Y-94180803D01*
X170894997Y-94173556D01*
X170913174Y-94169602D01*
X170913190Y-94169598D01*
X170913195Y-94169597D01*
X170923373Y-94167110D01*
X171004085Y-94124100D01*
X171056889Y-94078345D01*
X171074843Y-94060754D01*
X171119490Y-93980937D01*
X171139175Y-93913898D01*
X171147500Y-93856000D01*
X171147500Y-84198000D01*
X171142803Y-84154316D01*
X171136944Y-84127385D01*
X171131602Y-84102825D01*
X171131348Y-84101789D01*
X171129110Y-84092627D01*
X171086100Y-84011915D01*
X171040345Y-83959111D01*
X171040339Y-83959104D01*
X171022757Y-83941160D01*
X171022756Y-83941159D01*
X171022754Y-83941157D01*
X171022752Y-83941156D01*
X171022750Y-83941154D01*
X170942940Y-83896511D01*
X170942935Y-83896509D01*
X170875903Y-83876826D01*
X170875899Y-83876825D01*
X170875898Y-83876825D01*
X170818000Y-83868500D01*
X170817996Y-83868500D01*
X169126078Y-83868500D01*
X169085124Y-83861542D01*
X168961699Y-83818354D01*
X168961698Y-83818353D01*
X168961696Y-83818353D01*
X168931270Y-83815500D01*
X168931266Y-83815500D01*
X168344167Y-83815500D01*
X168277128Y-83795815D01*
X168256486Y-83779181D01*
X168058985Y-83581680D01*
X168025500Y-83520357D01*
X168030484Y-83450665D01*
X168072356Y-83394732D01*
X168137820Y-83370315D01*
X168146666Y-83369999D01*
X168147999Y-83369999D01*
X168656000Y-83369999D01*
X168925207Y-83369999D01*
X168925216Y-83369998D01*
X168985235Y-83363547D01*
X168985238Y-83363546D01*
X169121021Y-83312900D01*
X169121027Y-83312896D01*
X169237047Y-83226047D01*
X169323896Y-83110027D01*
X169323897Y-83110025D01*
X169374547Y-82974231D01*
X169380999Y-82914227D01*
X169381000Y-82914210D01*
X169381000Y-82782500D01*
X168656000Y-82782500D01*
X168656000Y-83369999D01*
X168147999Y-83369999D01*
X168148000Y-83369998D01*
X168148000Y-82782500D01*
X167419833Y-82782500D01*
X167415713Y-82788003D01*
X167390953Y-82797237D01*
X167367761Y-82809902D01*
X167358731Y-82809256D01*
X167350249Y-82812420D01*
X167324428Y-82806803D01*
X167298069Y-82804918D01*
X167289015Y-82799099D01*
X167281976Y-82797568D01*
X167253722Y-82776417D01*
X167136819Y-82659514D01*
X167103334Y-82598191D01*
X167100500Y-82571833D01*
X167100500Y-82432739D01*
X167090573Y-82364608D01*
X167056146Y-82294185D01*
X167039198Y-82259517D01*
X167039196Y-82259515D01*
X167039196Y-82259514D01*
X166956485Y-82176803D01*
X166851391Y-82125426D01*
X166783261Y-82115500D01*
X166783260Y-82115500D01*
X165691740Y-82115500D01*
X165691739Y-82115500D01*
X165623608Y-82125426D01*
X165518514Y-82176803D01*
X165435803Y-82259514D01*
X165384426Y-82364608D01*
X165374500Y-82432739D01*
X165374500Y-82799260D01*
X165384426Y-82867391D01*
X165384427Y-82867393D01*
X165435802Y-82972483D01*
X165435803Y-82972484D01*
X165435804Y-82972486D01*
X165441773Y-82980847D01*
X165438477Y-82983199D01*
X165462291Y-83026811D01*
X165457307Y-83096503D01*
X165428807Y-83140849D01*
X165394087Y-83175569D01*
X165394084Y-83175574D01*
X165335984Y-83289600D01*
X165332436Y-83312000D01*
X166113500Y-83312000D01*
X166180539Y-83331685D01*
X166226294Y-83384489D01*
X166237500Y-83436000D01*
X166237500Y-83696000D01*
X166217815Y-83763039D01*
X166165011Y-83808794D01*
X166113500Y-83820000D01*
X165332437Y-83820000D01*
X165331674Y-83820891D01*
X165323125Y-83887042D01*
X165290811Y-83930856D01*
X165239106Y-83975659D01*
X165221160Y-83993242D01*
X165221154Y-83993249D01*
X165176511Y-84073059D01*
X165176509Y-84073064D01*
X165156826Y-84140096D01*
X165156825Y-84140101D01*
X165156825Y-84140102D01*
X165148502Y-84197992D01*
X165148500Y-84198003D01*
X165148500Y-85474007D01*
X165153197Y-85517686D01*
X165164397Y-85569174D01*
X165166244Y-85576730D01*
X165166890Y-85579373D01*
X165209900Y-85660085D01*
X165240412Y-85695298D01*
X165269437Y-85758853D01*
X165259494Y-85828011D01*
X165213739Y-85880815D01*
X165146699Y-85900500D01*
X162175992Y-85900500D01*
X162132313Y-85905197D01*
X162080825Y-85916397D01*
X162070627Y-85918890D01*
X162070624Y-85918891D01*
X161989916Y-85961899D01*
X161989913Y-85961901D01*
X161937104Y-86007660D01*
X161919160Y-86025242D01*
X161919154Y-86025249D01*
X161874511Y-86105059D01*
X161874509Y-86105064D01*
X161854826Y-86172096D01*
X161854825Y-86172101D01*
X161854825Y-86172102D01*
X161851677Y-86194000D01*
X161846500Y-86230003D01*
X161846500Y-87699483D01*
X161840261Y-87720728D01*
X161838682Y-87742817D01*
X161830609Y-87753600D01*
X161826815Y-87766522D01*
X161810081Y-87781021D01*
X161796810Y-87798750D01*
X161784189Y-87803457D01*
X161774011Y-87812277D01*
X161752093Y-87815428D01*
X161731346Y-87823167D01*
X161718185Y-87820304D01*
X161704853Y-87822221D01*
X161684709Y-87813021D01*
X161663073Y-87808315D01*
X161645347Y-87795046D01*
X161641297Y-87793196D01*
X161634819Y-87787164D01*
X161584819Y-87737164D01*
X161551334Y-87675841D01*
X161548500Y-87649483D01*
X161548500Y-86846730D01*
X161545646Y-86816300D01*
X161545646Y-86816298D01*
X161500793Y-86688119D01*
X161500792Y-86688117D01*
X161420150Y-86578850D01*
X161310882Y-86498207D01*
X161310880Y-86498206D01*
X161182700Y-86453353D01*
X161152270Y-86450500D01*
X161152266Y-86450500D01*
X160368734Y-86450500D01*
X160368730Y-86450500D01*
X160338300Y-86453353D01*
X160338298Y-86453353D01*
X160210119Y-86498206D01*
X160210117Y-86498207D01*
X160100850Y-86578850D01*
X160020207Y-86688117D01*
X160020206Y-86688119D01*
X159975353Y-86816298D01*
X159975353Y-86816300D01*
X159972500Y-86846730D01*
X159972500Y-87905269D01*
X159975353Y-87935698D01*
X159996513Y-87996170D01*
X160000074Y-88065949D01*
X159965345Y-88126576D01*
X159911565Y-88156899D01*
X159881584Y-88164932D01*
X159826814Y-88179608D01*
X159826812Y-88179608D01*
X159826812Y-88179609D01*
X159712686Y-88245500D01*
X159712683Y-88245502D01*
X159619502Y-88338683D01*
X159619500Y-88338686D01*
X159553608Y-88452812D01*
X159547871Y-88474224D01*
X159519500Y-88580108D01*
X159519500Y-88711892D01*
X159533695Y-88764868D01*
X159553608Y-88839187D01*
X159583332Y-88890669D01*
X159619500Y-88953314D01*
X159712686Y-89046500D01*
X159735498Y-89059670D01*
X159783714Y-89110235D01*
X159797500Y-89167058D01*
X159797500Y-89403260D01*
X159807426Y-89471392D01*
X159807426Y-89471393D01*
X159850327Y-89559149D01*
X159862085Y-89628022D01*
X159834742Y-89692319D01*
X159790789Y-89723954D01*
X159791475Y-89725241D01*
X159784627Y-89728889D01*
X159784627Y-89728890D01*
X159778598Y-89732103D01*
X159703916Y-89771899D01*
X159703913Y-89771901D01*
X159651104Y-89817660D01*
X159633160Y-89835242D01*
X159633154Y-89835249D01*
X159588511Y-89915059D01*
X159588509Y-89915064D01*
X159568826Y-89982096D01*
X159568825Y-89982101D01*
X159568825Y-89982102D01*
X159561959Y-90029858D01*
X159560500Y-90040003D01*
X159560500Y-93905605D01*
X159567136Y-93957400D01*
X159579761Y-94005870D01*
X159582894Y-94017895D01*
X159588466Y-94035869D01*
X159624566Y-94092089D01*
X159624267Y-94092282D01*
X159635919Y-94110413D01*
X159650778Y-94130690D01*
X159678060Y-94151550D01*
X159677726Y-94151892D01*
X159685882Y-94159889D01*
X159685883Y-94159890D01*
X159687768Y-94161739D01*
X159687772Y-94161742D01*
X159687775Y-94161745D01*
X159687778Y-94161747D01*
X159734935Y-94196331D01*
X159734937Y-94196332D01*
X159734941Y-94196335D01*
X167261942Y-98210736D01*
X167308808Y-98228776D01*
X167367161Y-98243364D01*
X167417001Y-98249500D01*
X167417009Y-98249500D01*
X168203513Y-98249500D01*
X168270552Y-98269185D01*
X168316307Y-98321989D01*
X168326251Y-98391147D01*
X168297226Y-98454703D01*
X168272404Y-98476601D01*
X168267980Y-98479558D01*
X168240342Y-98498024D01*
X168094024Y-98644342D01*
X167979058Y-98816403D01*
X167899870Y-99007579D01*
X167899868Y-99007587D01*
X167859500Y-99210530D01*
X167859500Y-99417469D01*
X167899868Y-99620412D01*
X167899870Y-99620420D01*
X167916406Y-99660342D01*
X167927197Y-99686392D01*
X167934666Y-99755861D01*
X167903391Y-99818340D01*
X167900317Y-99821526D01*
X165596664Y-102125181D01*
X165535341Y-102158666D01*
X165508983Y-102161500D01*
X158355544Y-102161500D01*
X158288505Y-102141815D01*
X158267863Y-102125181D01*
X158192485Y-102049803D01*
X158078742Y-101994198D01*
X158079791Y-101992050D01*
X158032939Y-101960997D01*
X158004813Y-101897038D01*
X158015731Y-101828027D01*
X158062227Y-101775873D01*
X158108394Y-101758650D01*
X158112397Y-101758016D01*
X158226426Y-101699915D01*
X158226430Y-101699912D01*
X158316912Y-101609430D01*
X158316915Y-101609425D01*
X158375015Y-101495399D01*
X158378564Y-101473000D01*
X157285000Y-101473000D01*
X157217961Y-101453315D01*
X157172206Y-101400511D01*
X157161000Y-101349000D01*
X157161000Y-101089000D01*
X157180685Y-101021961D01*
X157233489Y-100976206D01*
X157285000Y-100965000D01*
X158421194Y-100965000D01*
X158488233Y-100984685D01*
X158533988Y-101037489D01*
X158537375Y-101045665D01*
X158590100Y-101187021D01*
X158590103Y-101187027D01*
X158676952Y-101303047D01*
X158792972Y-101389896D01*
X158792974Y-101389897D01*
X158928768Y-101440547D01*
X158988780Y-101446999D01*
X159257999Y-101446999D01*
X159766000Y-101446999D01*
X160035207Y-101446999D01*
X160035216Y-101446998D01*
X160095235Y-101440547D01*
X160095238Y-101440546D01*
X160231021Y-101389900D01*
X160231027Y-101389896D01*
X160347047Y-101303047D01*
X160433896Y-101187027D01*
X160433897Y-101187025D01*
X160484547Y-101051231D01*
X160490999Y-100991227D01*
X160491000Y-100991210D01*
X160491000Y-100859500D01*
X159766000Y-100859500D01*
X159766000Y-101446999D01*
X159257999Y-101446999D01*
X159258000Y-101446998D01*
X159258000Y-100859500D01*
X158533000Y-100859500D01*
X158520974Y-100871526D01*
X158459651Y-100905010D01*
X158389959Y-100900025D01*
X158334026Y-100858153D01*
X158322810Y-100840141D01*
X158316916Y-100828574D01*
X158316912Y-100828569D01*
X158226430Y-100738087D01*
X158226426Y-100738084D01*
X158112395Y-100679982D01*
X158108387Y-100679348D01*
X158103906Y-100677223D01*
X158103113Y-100676966D01*
X158103146Y-100676863D01*
X158045253Y-100649417D01*
X158008323Y-100590104D01*
X158009323Y-100520242D01*
X158047934Y-100462010D01*
X158079279Y-100444901D01*
X158078742Y-100443802D01*
X158087392Y-100439573D01*
X158087393Y-100439573D01*
X158192483Y-100388198D01*
X158275198Y-100305483D01*
X158297599Y-100259659D01*
X158344727Y-100208078D01*
X158412261Y-100190163D01*
X158478760Y-100211604D01*
X158523110Y-100265593D01*
X158533000Y-100314120D01*
X158533000Y-100351500D01*
X159258000Y-100351500D01*
X159766000Y-100351500D01*
X160490999Y-100351500D01*
X160490999Y-100219792D01*
X160490998Y-100219783D01*
X160484547Y-100159764D01*
X160484546Y-100159761D01*
X160433900Y-100023978D01*
X160433896Y-100023972D01*
X160347047Y-99907952D01*
X160231027Y-99821103D01*
X160231025Y-99821102D01*
X160095231Y-99770452D01*
X160035227Y-99764000D01*
X159766000Y-99764000D01*
X159766000Y-100351500D01*
X159258000Y-100351500D01*
X159258000Y-99764000D01*
X158988793Y-99764000D01*
X158988783Y-99764001D01*
X158928764Y-99770452D01*
X158928761Y-99770453D01*
X158792978Y-99821099D01*
X158792972Y-99821103D01*
X158676952Y-99907952D01*
X158590103Y-100023972D01*
X158590100Y-100023978D01*
X158576681Y-100059955D01*
X158534810Y-100115888D01*
X158469345Y-100140304D01*
X158401072Y-100125452D01*
X158351667Y-100076046D01*
X158336500Y-100016620D01*
X158336500Y-99765739D01*
X158326573Y-99697608D01*
X158316792Y-99677600D01*
X158275198Y-99592517D01*
X158275196Y-99592515D01*
X158275196Y-99592514D01*
X158215599Y-99532917D01*
X158182114Y-99471594D01*
X158187098Y-99401902D01*
X158215599Y-99357555D01*
X158339372Y-99233782D01*
X158472050Y-99101103D01*
X158533371Y-99067620D01*
X158603062Y-99072604D01*
X158658996Y-99114475D01*
X158659499Y-99115152D01*
X158674270Y-99135165D01*
X158714850Y-99190150D01*
X158824118Y-99270793D01*
X158866845Y-99285744D01*
X158952299Y-99315646D01*
X158982730Y-99318500D01*
X158982734Y-99318500D01*
X160041270Y-99318500D01*
X160071699Y-99315646D01*
X160071701Y-99315646D01*
X160135790Y-99293219D01*
X160199882Y-99270793D01*
X160309150Y-99190150D01*
X160389793Y-99080882D01*
X160392003Y-99074565D01*
X160432723Y-99017790D01*
X160497676Y-98992042D01*
X160566237Y-99005498D01*
X160571044Y-99008133D01*
X160588810Y-99018390D01*
X160588811Y-99018390D01*
X160588814Y-99018392D01*
X160716108Y-99052500D01*
X160716110Y-99052500D01*
X160847890Y-99052500D01*
X160847892Y-99052500D01*
X160975186Y-99018392D01*
X161089314Y-98952500D01*
X161182500Y-98859314D01*
X161248392Y-98745186D01*
X161282500Y-98617892D01*
X161282500Y-98486108D01*
X161248392Y-98358814D01*
X161182500Y-98244686D01*
X161089314Y-98151500D01*
X161017247Y-98109892D01*
X160975187Y-98085608D01*
X160911539Y-98068554D01*
X160847892Y-98051500D01*
X160716108Y-98051500D01*
X160588814Y-98085608D01*
X160588813Y-98085608D01*
X160588811Y-98085609D01*
X160588808Y-98085610D01*
X160583553Y-98088644D01*
X160515652Y-98105111D01*
X160449626Y-98082254D01*
X160406440Y-98027330D01*
X160404536Y-98022252D01*
X160389793Y-97980118D01*
X160309150Y-97870850D01*
X160199882Y-97790207D01*
X160199880Y-97790206D01*
X160071700Y-97745353D01*
X160041270Y-97742500D01*
X160041266Y-97742500D01*
X158982734Y-97742500D01*
X158982730Y-97742500D01*
X158952300Y-97745353D01*
X158952298Y-97745353D01*
X158824119Y-97790206D01*
X158824117Y-97790207D01*
X158714850Y-97870850D01*
X158634207Y-97980117D01*
X158634206Y-97980119D01*
X158589353Y-98108298D01*
X158587744Y-98115670D01*
X158585602Y-98115202D01*
X158563798Y-98169924D01*
X158506949Y-98210545D01*
X158498300Y-98213204D01*
X158453092Y-98225318D01*
X158453089Y-98225319D01*
X158378411Y-98268434D01*
X158378408Y-98268436D01*
X157234664Y-99412181D01*
X157173341Y-99445666D01*
X157146983Y-99448500D01*
X156302739Y-99448500D01*
X156234606Y-99458426D01*
X156234599Y-99458429D01*
X156234590Y-99458429D01*
X156225078Y-99459815D01*
X156224895Y-99458564D01*
X156164736Y-99459408D01*
X156105434Y-99422461D01*
X156075521Y-99359318D01*
X156074000Y-99339953D01*
X156074000Y-99314000D01*
X153298000Y-99314000D01*
X153298000Y-99339953D01*
X153278315Y-99406992D01*
X153225511Y-99452747D01*
X153156353Y-99462691D01*
X153137401Y-99458429D01*
X153137393Y-99458426D01*
X153069261Y-99448500D01*
X153069260Y-99448500D01*
X152662500Y-99448500D01*
X152653814Y-99445949D01*
X152644853Y-99447238D01*
X152620812Y-99436259D01*
X152595461Y-99428815D01*
X152589533Y-99421974D01*
X152581297Y-99418213D01*
X152567007Y-99395978D01*
X152549706Y-99376011D01*
X152547418Y-99365496D01*
X152543523Y-99359435D01*
X152538500Y-99324500D01*
X152538500Y-99093500D01*
X152558185Y-99026461D01*
X152610989Y-98980706D01*
X152662500Y-98969500D01*
X152813270Y-98969500D01*
X152843699Y-98966646D01*
X152843701Y-98966646D01*
X152907955Y-98944162D01*
X152971882Y-98921793D01*
X153081150Y-98841150D01*
X153161793Y-98731882D01*
X153189797Y-98651851D01*
X153206646Y-98603701D01*
X153206646Y-98603699D01*
X153209500Y-98573269D01*
X153209500Y-98570832D01*
X153229185Y-98503793D01*
X153281989Y-98458038D01*
X153351147Y-98448094D01*
X153395497Y-98463443D01*
X153476814Y-98510392D01*
X153604108Y-98544500D01*
X153604110Y-98544500D01*
X153735890Y-98544500D01*
X153735892Y-98544500D01*
X153863186Y-98510392D01*
X153977314Y-98444500D01*
X154070500Y-98351314D01*
X154136392Y-98237186D01*
X154170500Y-98109892D01*
X154170500Y-97978108D01*
X154136392Y-97850814D01*
X154070500Y-97736686D01*
X153977314Y-97643500D01*
X153920250Y-97610554D01*
X153863187Y-97577608D01*
X153799539Y-97560554D01*
X153735892Y-97543500D01*
X153604108Y-97543500D01*
X153476814Y-97577608D01*
X153476813Y-97577608D01*
X153476811Y-97577609D01*
X153476810Y-97577609D01*
X153395500Y-97624554D01*
X153327600Y-97641027D01*
X153261573Y-97618174D01*
X153218382Y-97563253D01*
X153209500Y-97517167D01*
X153209500Y-97514730D01*
X153206646Y-97484300D01*
X153206646Y-97484298D01*
X153164063Y-97362605D01*
X153161793Y-97356118D01*
X153081150Y-97246850D01*
X152971882Y-97166207D01*
X152971880Y-97166206D01*
X152843700Y-97121353D01*
X152813270Y-97118500D01*
X152813266Y-97118500D01*
X152029734Y-97118500D01*
X152029730Y-97118500D01*
X151999300Y-97121353D01*
X151999298Y-97121353D01*
X151871119Y-97166206D01*
X151871117Y-97166207D01*
X151761850Y-97246850D01*
X151681207Y-97356117D01*
X151681206Y-97356119D01*
X151636353Y-97484298D01*
X151636353Y-97484300D01*
X151633500Y-97514730D01*
X151633500Y-98573269D01*
X151636353Y-98603699D01*
X151636353Y-98603701D01*
X151679209Y-98726172D01*
X151681207Y-98731882D01*
X151761849Y-98841149D01*
X151761851Y-98841151D01*
X151833133Y-98893759D01*
X151875384Y-98949406D01*
X151883500Y-98993529D01*
X151883500Y-99324500D01*
X151863815Y-99391539D01*
X151811011Y-99437294D01*
X151759500Y-99448500D01*
X151352739Y-99448500D01*
X151284608Y-99458426D01*
X151179514Y-99509803D01*
X151096803Y-99592514D01*
X151045426Y-99697608D01*
X151035500Y-99765739D01*
X151035500Y-100132260D01*
X151045426Y-100200391D01*
X151096803Y-100305485D01*
X151179514Y-100388196D01*
X151179515Y-100388196D01*
X151179517Y-100388198D01*
X151284607Y-100439573D01*
X151309446Y-100443192D01*
X151352739Y-100449500D01*
X151352740Y-100449500D01*
X153069261Y-100449500D01*
X153146922Y-100438185D01*
X153147104Y-100439436D01*
X153164654Y-100439189D01*
X153191647Y-100435308D01*
X153199081Y-100438703D01*
X153207252Y-100438588D01*
X153230395Y-100453003D01*
X153255203Y-100464333D01*
X153259621Y-100471208D01*
X153266558Y-100475529D01*
X153278235Y-100500172D01*
X153292977Y-100523111D01*
X153294663Y-100534842D01*
X153296477Y-100538669D01*
X153298000Y-100558046D01*
X153298000Y-100609953D01*
X153278315Y-100676992D01*
X153225511Y-100722747D01*
X153156353Y-100732691D01*
X153137401Y-100728429D01*
X153137393Y-100728426D01*
X153069261Y-100718500D01*
X153069260Y-100718500D01*
X151352740Y-100718500D01*
X151352739Y-100718500D01*
X151284608Y-100728426D01*
X151179514Y-100779803D01*
X151104137Y-100855181D01*
X151042814Y-100888666D01*
X151016456Y-100891500D01*
X150601073Y-100891500D01*
X150534034Y-100871815D01*
X150513392Y-100855181D01*
X148225427Y-98567216D01*
X149505001Y-98567216D01*
X149511452Y-98627235D01*
X149511453Y-98627238D01*
X149562099Y-98763021D01*
X149562103Y-98763027D01*
X149648952Y-98879047D01*
X149764972Y-98965896D01*
X149764974Y-98965897D01*
X149900768Y-99016547D01*
X149960780Y-99022999D01*
X150092499Y-99022999D01*
X150600500Y-99022999D01*
X150732207Y-99022999D01*
X150732216Y-99022998D01*
X150792235Y-99016547D01*
X150792238Y-99016546D01*
X150928021Y-98965900D01*
X150928027Y-98965896D01*
X151044047Y-98879047D01*
X151130896Y-98763027D01*
X151130897Y-98763025D01*
X151181547Y-98627231D01*
X151187999Y-98567227D01*
X151188000Y-98567210D01*
X151188000Y-98298000D01*
X150600500Y-98298000D01*
X150600500Y-99022999D01*
X150092499Y-99022999D01*
X150092500Y-99022998D01*
X150092500Y-98298000D01*
X149505001Y-98298000D01*
X149505001Y-98567216D01*
X148225427Y-98567216D01*
X147178983Y-97520772D01*
X149505000Y-97520772D01*
X149505000Y-97790000D01*
X150092500Y-97790000D01*
X150600500Y-97790000D01*
X151187999Y-97790000D01*
X151187999Y-97520792D01*
X151187998Y-97520783D01*
X151181547Y-97460764D01*
X151181546Y-97460761D01*
X151130900Y-97324978D01*
X151130896Y-97324972D01*
X151044047Y-97208952D01*
X150928027Y-97122103D01*
X150928025Y-97122102D01*
X150792231Y-97071452D01*
X150732227Y-97065000D01*
X150600500Y-97065000D01*
X150600500Y-97790000D01*
X150092500Y-97790000D01*
X150092500Y-97065000D01*
X149960793Y-97065000D01*
X149960783Y-97065001D01*
X149900764Y-97071452D01*
X149900761Y-97071453D01*
X149764978Y-97122099D01*
X149764972Y-97122103D01*
X149648952Y-97208952D01*
X149562103Y-97324972D01*
X149562102Y-97324974D01*
X149511452Y-97460768D01*
X149505000Y-97520772D01*
X147178983Y-97520772D01*
X145467225Y-95809014D01*
X145433740Y-95747691D01*
X145438724Y-95677999D01*
X145480596Y-95622066D01*
X145496454Y-95611974D01*
X145504213Y-95607826D01*
X145601198Y-95572527D01*
X145639132Y-95543419D01*
X145655687Y-95526863D01*
X145671911Y-95518192D01*
X145688834Y-95514668D01*
X145704005Y-95506385D01*
X145730363Y-95503551D01*
X146229927Y-95503551D01*
X146229929Y-95503551D01*
X146313223Y-95481232D01*
X146387903Y-95438116D01*
X146913489Y-94912530D01*
X147818500Y-94912530D01*
X147818500Y-95119469D01*
X147858868Y-95322412D01*
X147858870Y-95322420D01*
X147930769Y-95496000D01*
X147938059Y-95513598D01*
X147992650Y-95595300D01*
X148053024Y-95685657D01*
X148199342Y-95831975D01*
X148199345Y-95831977D01*
X148371402Y-95946941D01*
X148562580Y-96026130D01*
X148694569Y-96052384D01*
X148765530Y-96066499D01*
X148765534Y-96066500D01*
X148765535Y-96066500D01*
X148972466Y-96066500D01*
X148972467Y-96066499D01*
X149175420Y-96026130D01*
X149366598Y-95946941D01*
X149538655Y-95831977D01*
X149538658Y-95831974D01*
X149568038Y-95802595D01*
X149684974Y-95685658D01*
X149684975Y-95685657D01*
X149684977Y-95685655D01*
X149799941Y-95513598D01*
X149879130Y-95322420D01*
X149919500Y-95119465D01*
X149919500Y-94912535D01*
X149919500Y-94912532D01*
X149918819Y-94909107D01*
X152312000Y-94909107D01*
X152312000Y-95082892D01*
X152339183Y-95254521D01*
X152392884Y-95419793D01*
X152471771Y-95574616D01*
X152471778Y-95574627D01*
X152474464Y-95578325D01*
X152931841Y-95120947D01*
X152950075Y-95188993D01*
X153015901Y-95303007D01*
X153108993Y-95396099D01*
X153223007Y-95461925D01*
X153291051Y-95480157D01*
X152833674Y-95937534D01*
X152833674Y-95937535D01*
X152837374Y-95940223D01*
X152992206Y-96019115D01*
X153157478Y-96072816D01*
X153329108Y-96100000D01*
X153502892Y-96100000D01*
X153674521Y-96072816D01*
X153839793Y-96019115D01*
X153994618Y-95940228D01*
X153998325Y-95937534D01*
X153540948Y-95480157D01*
X153608993Y-95461925D01*
X153723007Y-95396099D01*
X153816099Y-95303007D01*
X153881925Y-95188993D01*
X153900157Y-95120948D01*
X154357534Y-95578325D01*
X154360228Y-95574618D01*
X154439115Y-95419793D01*
X154492816Y-95254521D01*
X154520000Y-95082892D01*
X154520000Y-94909107D01*
X156630000Y-94909107D01*
X156630000Y-95082892D01*
X156657183Y-95254521D01*
X156710884Y-95419793D01*
X156789771Y-95574616D01*
X156789778Y-95574627D01*
X156792464Y-95578325D01*
X157249841Y-95120947D01*
X157268075Y-95188993D01*
X157333901Y-95303007D01*
X157426993Y-95396099D01*
X157541007Y-95461925D01*
X157609051Y-95480157D01*
X157151674Y-95937534D01*
X157151674Y-95937535D01*
X157155374Y-95940223D01*
X157310206Y-96019115D01*
X157475478Y-96072816D01*
X157647108Y-96100000D01*
X157820892Y-96100000D01*
X157992521Y-96072816D01*
X158157793Y-96019115D01*
X158312618Y-95940228D01*
X158316325Y-95937534D01*
X157858948Y-95480157D01*
X157926993Y-95461925D01*
X158041007Y-95396099D01*
X158134099Y-95303007D01*
X158199925Y-95188993D01*
X158218157Y-95120948D01*
X158675534Y-95578325D01*
X158678228Y-95574618D01*
X158757115Y-95419793D01*
X158810816Y-95254521D01*
X158838000Y-95082892D01*
X158838000Y-94909107D01*
X158810816Y-94737478D01*
X158757115Y-94572206D01*
X158678223Y-94417374D01*
X158675535Y-94413674D01*
X158675534Y-94413674D01*
X158218157Y-94871051D01*
X158199925Y-94803007D01*
X158134099Y-94688993D01*
X158041007Y-94595901D01*
X157926993Y-94530075D01*
X157858948Y-94511842D01*
X158316325Y-94054464D01*
X158312627Y-94051778D01*
X158312616Y-94051771D01*
X158157793Y-93972884D01*
X157992521Y-93919183D01*
X157820892Y-93892000D01*
X157647108Y-93892000D01*
X157475478Y-93919183D01*
X157310206Y-93972884D01*
X157155377Y-94051774D01*
X157151674Y-94054464D01*
X157609052Y-94511842D01*
X157541007Y-94530075D01*
X157426993Y-94595901D01*
X157333901Y-94688993D01*
X157268075Y-94803007D01*
X157249842Y-94871052D01*
X156792464Y-94413674D01*
X156789774Y-94417377D01*
X156710884Y-94572206D01*
X156657183Y-94737478D01*
X156630000Y-94909107D01*
X154520000Y-94909107D01*
X154492816Y-94737478D01*
X154439115Y-94572206D01*
X154360223Y-94417374D01*
X154357535Y-94413674D01*
X154357534Y-94413674D01*
X153900157Y-94871051D01*
X153881925Y-94803007D01*
X153816099Y-94688993D01*
X153723007Y-94595901D01*
X153608993Y-94530075D01*
X153540948Y-94511842D01*
X153998325Y-94054464D01*
X153994627Y-94051778D01*
X153994616Y-94051771D01*
X153839793Y-93972884D01*
X153674521Y-93919183D01*
X153502892Y-93892000D01*
X153329108Y-93892000D01*
X153157478Y-93919183D01*
X152992206Y-93972884D01*
X152837377Y-94051774D01*
X152833674Y-94054464D01*
X153291052Y-94511842D01*
X153223007Y-94530075D01*
X153108993Y-94595901D01*
X153015901Y-94688993D01*
X152950075Y-94803007D01*
X152931842Y-94871051D01*
X152474464Y-94413674D01*
X152471774Y-94417377D01*
X152392884Y-94572206D01*
X152339183Y-94737478D01*
X152312000Y-94909107D01*
X149918819Y-94909107D01*
X149890134Y-94764900D01*
X149879130Y-94709580D01*
X149799941Y-94518402D01*
X149684977Y-94346345D01*
X149684975Y-94346342D01*
X149538658Y-94200025D01*
X149509890Y-94180803D01*
X149366598Y-94085059D01*
X149307911Y-94060750D01*
X149175420Y-94005870D01*
X149175412Y-94005868D01*
X148972469Y-93965500D01*
X148972465Y-93965500D01*
X148765535Y-93965500D01*
X148765530Y-93965500D01*
X148562587Y-94005868D01*
X148562579Y-94005870D01*
X148371403Y-94085058D01*
X148199342Y-94200024D01*
X148053024Y-94346342D01*
X147938058Y-94518403D01*
X147858870Y-94709579D01*
X147858868Y-94709587D01*
X147818500Y-94912530D01*
X146913489Y-94912530D01*
X147529065Y-94296954D01*
X147572181Y-94222274D01*
X147594500Y-94138980D01*
X147594500Y-94052748D01*
X147594500Y-93458752D01*
X147614185Y-93391713D01*
X147666989Y-93345958D01*
X147736147Y-93336014D01*
X147799703Y-93365039D01*
X147821520Y-93395297D01*
X147823348Y-93394077D01*
X147874447Y-93470552D01*
X147940769Y-93514867D01*
X147940770Y-93514868D01*
X147999247Y-93526499D01*
X147999250Y-93526500D01*
X147999252Y-93526500D01*
X149738750Y-93526500D01*
X149738751Y-93526499D01*
X149753568Y-93523552D01*
X149797229Y-93514868D01*
X149797229Y-93514867D01*
X149797231Y-93514867D01*
X149863552Y-93470552D01*
X149907867Y-93404231D01*
X149907867Y-93404229D01*
X149907868Y-93404229D01*
X149919499Y-93345752D01*
X149919500Y-93345750D01*
X149919500Y-91606250D01*
X149919121Y-91604345D01*
X149919121Y-91604342D01*
X149915521Y-91586247D01*
X152365500Y-91586247D01*
X152365500Y-93325752D01*
X152377131Y-93384229D01*
X152377132Y-93384230D01*
X152421447Y-93450552D01*
X152487769Y-93494867D01*
X152487770Y-93494868D01*
X152546247Y-93506499D01*
X152546250Y-93506500D01*
X152546252Y-93506500D01*
X154285750Y-93506500D01*
X154285751Y-93506499D01*
X154300568Y-93503552D01*
X154344229Y-93494868D01*
X154344229Y-93494867D01*
X154344231Y-93494867D01*
X154410552Y-93450552D01*
X154454867Y-93384231D01*
X154454867Y-93384229D01*
X154454868Y-93384229D01*
X154466499Y-93325752D01*
X154466500Y-93325750D01*
X154466500Y-91586249D01*
X154466499Y-91586247D01*
X156683500Y-91586247D01*
X156683500Y-93325752D01*
X156695131Y-93384229D01*
X156695132Y-93384230D01*
X156739447Y-93450552D01*
X156805769Y-93494867D01*
X156805770Y-93494868D01*
X156864247Y-93506499D01*
X156864250Y-93506500D01*
X156864252Y-93506500D01*
X158603750Y-93506500D01*
X158603751Y-93506499D01*
X158618568Y-93503552D01*
X158662229Y-93494868D01*
X158662229Y-93494867D01*
X158662231Y-93494867D01*
X158728552Y-93450552D01*
X158772867Y-93384231D01*
X158772867Y-93384229D01*
X158772868Y-93384229D01*
X158784499Y-93325752D01*
X158784500Y-93325750D01*
X158784500Y-91586249D01*
X158784499Y-91586247D01*
X158772868Y-91527770D01*
X158772867Y-91527769D01*
X158728552Y-91461447D01*
X158662230Y-91417132D01*
X158662229Y-91417131D01*
X158603752Y-91405500D01*
X158603748Y-91405500D01*
X156864252Y-91405500D01*
X156864247Y-91405500D01*
X156805770Y-91417131D01*
X156805769Y-91417132D01*
X156739447Y-91461447D01*
X156695132Y-91527769D01*
X156695131Y-91527770D01*
X156683500Y-91586247D01*
X154466499Y-91586247D01*
X154454868Y-91527770D01*
X154454867Y-91527769D01*
X154410552Y-91461447D01*
X154344230Y-91417132D01*
X154344229Y-91417131D01*
X154285752Y-91405500D01*
X154285748Y-91405500D01*
X152546252Y-91405500D01*
X152546247Y-91405500D01*
X152487770Y-91417131D01*
X152487769Y-91417132D01*
X152421447Y-91461447D01*
X152377132Y-91527769D01*
X152377131Y-91527770D01*
X152365500Y-91586247D01*
X149915521Y-91586247D01*
X149907867Y-91547770D01*
X149907867Y-91547769D01*
X149863552Y-91481447D01*
X149797230Y-91437132D01*
X149797229Y-91437131D01*
X149738752Y-91425500D01*
X149738748Y-91425500D01*
X148097017Y-91425500D01*
X148075771Y-91419261D01*
X148053683Y-91417682D01*
X148042899Y-91409609D01*
X148029978Y-91405815D01*
X148015478Y-91389081D01*
X147997750Y-91375810D01*
X147993042Y-91363189D01*
X147984223Y-91353011D01*
X147981071Y-91331093D01*
X147973333Y-91310346D01*
X147976195Y-91297185D01*
X147974279Y-91283853D01*
X147983478Y-91263709D01*
X147988185Y-91242073D01*
X148001453Y-91224347D01*
X148003304Y-91220297D01*
X148009336Y-91213819D01*
X148181336Y-91041819D01*
X148242659Y-91008334D01*
X148269017Y-91005500D01*
X152477114Y-91005500D01*
X152477116Y-91005500D01*
X152560410Y-90983181D01*
X152635090Y-90940065D01*
X154762336Y-88812819D01*
X154823659Y-88779334D01*
X154850017Y-88776500D01*
X155075750Y-88776500D01*
X155075751Y-88776499D01*
X155090568Y-88773552D01*
X155134229Y-88764868D01*
X155134229Y-88764867D01*
X155134231Y-88764867D01*
X155200552Y-88720552D01*
X155217898Y-88694591D01*
X155271509Y-88649787D01*
X155340834Y-88641080D01*
X155403862Y-88671234D01*
X155424100Y-88694590D01*
X155436898Y-88713743D01*
X155441448Y-88720552D01*
X155507769Y-88764867D01*
X155507770Y-88764868D01*
X155566247Y-88776499D01*
X155566250Y-88776500D01*
X155566252Y-88776500D01*
X156345750Y-88776500D01*
X156345751Y-88776499D01*
X156360568Y-88773552D01*
X156404229Y-88764868D01*
X156404229Y-88764867D01*
X156404231Y-88764867D01*
X156470552Y-88720552D01*
X156514867Y-88654231D01*
X156514867Y-88654229D01*
X156514868Y-88654229D01*
X156526499Y-88595752D01*
X156526500Y-88595750D01*
X156526500Y-86156249D01*
X156526499Y-86156247D01*
X156514868Y-86097770D01*
X156514867Y-86097769D01*
X156470552Y-86031447D01*
X156404230Y-85987132D01*
X156404229Y-85987131D01*
X156345752Y-85975500D01*
X156345748Y-85975500D01*
X155566252Y-85975500D01*
X155566247Y-85975500D01*
X155507770Y-85987131D01*
X155507769Y-85987132D01*
X155441447Y-86031447D01*
X155424102Y-86057407D01*
X155370489Y-86102212D01*
X155301164Y-86110919D01*
X155238137Y-86080764D01*
X155217898Y-86057407D01*
X155200552Y-86031447D01*
X155134230Y-85987132D01*
X155134229Y-85987131D01*
X155075752Y-85975500D01*
X155075748Y-85975500D01*
X155055984Y-85975500D01*
X154988945Y-85955815D01*
X154943190Y-85903011D01*
X154933246Y-85833853D01*
X154962271Y-85770297D01*
X154987120Y-85749780D01*
X154986865Y-85749448D01*
X154993306Y-85744504D01*
X154993314Y-85744500D01*
X155086500Y-85651314D01*
X155152392Y-85537186D01*
X155186500Y-85409892D01*
X155186500Y-85278108D01*
X155152392Y-85150814D01*
X155148420Y-85143935D01*
X155086272Y-85036291D01*
X155078732Y-85005212D01*
X155069659Y-84974550D01*
X155070550Y-84971489D01*
X155069799Y-84968391D01*
X155080261Y-84938161D01*
X155089204Y-84907470D01*
X155091800Y-84904821D01*
X155092651Y-84902364D01*
X155112261Y-84880748D01*
X155129409Y-84865826D01*
X155134231Y-84864867D01*
X155200552Y-84820552D01*
X155227103Y-84780816D01*
X155239602Y-84769940D01*
X155256899Y-84761996D01*
X155271509Y-84749787D01*
X155287997Y-84747716D01*
X155303097Y-84740782D01*
X155321947Y-84743452D01*
X155340834Y-84741080D01*
X155355821Y-84748250D01*
X155372276Y-84750581D01*
X155386690Y-84763018D01*
X155403862Y-84771234D01*
X155424100Y-84794590D01*
X155434482Y-84810127D01*
X155441448Y-84820552D01*
X155507769Y-84864867D01*
X155507770Y-84864868D01*
X155566247Y-84876499D01*
X155566250Y-84876500D01*
X155566252Y-84876500D01*
X156345750Y-84876500D01*
X156345751Y-84876499D01*
X156365963Y-84872479D01*
X156404229Y-84864868D01*
X156404229Y-84864867D01*
X156404231Y-84864867D01*
X156470552Y-84820552D01*
X156514867Y-84754231D01*
X156514867Y-84754229D01*
X156514868Y-84754229D01*
X156526499Y-84695752D01*
X156526500Y-84695750D01*
X156526500Y-84503153D01*
X159727500Y-84503153D01*
X159727500Y-84660846D01*
X159758261Y-84815489D01*
X159758264Y-84815501D01*
X159818602Y-84961172D01*
X159818609Y-84961185D01*
X159906210Y-85092288D01*
X159906213Y-85092292D01*
X160017707Y-85203786D01*
X160017711Y-85203789D01*
X160148814Y-85291390D01*
X160148827Y-85291397D01*
X160264960Y-85339500D01*
X160294503Y-85351737D01*
X160446252Y-85381922D01*
X160449153Y-85382499D01*
X160449156Y-85382500D01*
X160449158Y-85382500D01*
X160606844Y-85382500D01*
X160606845Y-85382499D01*
X160761497Y-85351737D01*
X160907179Y-85291394D01*
X161038289Y-85203789D01*
X161038293Y-85203784D01*
X161042999Y-85199924D01*
X161044377Y-85201603D01*
X161097086Y-85172804D01*
X161166779Y-85177769D01*
X161222724Y-85219625D01*
X161223222Y-85220296D01*
X161254850Y-85263150D01*
X161364118Y-85343793D01*
X161386815Y-85351735D01*
X161492299Y-85388646D01*
X161522730Y-85391500D01*
X161522734Y-85391500D01*
X162581270Y-85391500D01*
X162611699Y-85388646D01*
X162611701Y-85388646D01*
X162685323Y-85362884D01*
X162739882Y-85343793D01*
X162849150Y-85263150D01*
X162929793Y-85153882D01*
X162934284Y-85141045D01*
X162975004Y-85084271D01*
X163039956Y-85058522D01*
X163051326Y-85058000D01*
X163807552Y-85058000D01*
X163807568Y-85058001D01*
X163815164Y-85058001D01*
X163934835Y-85058001D01*
X163934836Y-85058001D01*
X164026002Y-85033572D01*
X164050431Y-85027027D01*
X164053792Y-85025086D01*
X164064568Y-85021823D01*
X164074157Y-85021741D01*
X164100510Y-85016500D01*
X164508261Y-85016500D01*
X164544924Y-85011158D01*
X164576393Y-85006573D01*
X164681483Y-84955198D01*
X164764198Y-84872483D01*
X164815573Y-84767393D01*
X164825500Y-84699260D01*
X164825500Y-84332740D01*
X164824809Y-84328000D01*
X164815573Y-84264608D01*
X164815573Y-84264607D01*
X164764198Y-84159517D01*
X164764196Y-84159515D01*
X164764196Y-84159514D01*
X164681485Y-84076803D01*
X164673826Y-84073059D01*
X164576393Y-84025427D01*
X164576391Y-84025426D01*
X164508261Y-84015500D01*
X164508260Y-84015500D01*
X163416740Y-84015500D01*
X163416739Y-84015500D01*
X163348608Y-84025426D01*
X163243514Y-84076803D01*
X163207639Y-84112680D01*
X163180708Y-84127385D01*
X163154892Y-84143977D01*
X163148693Y-84144868D01*
X163146317Y-84146166D01*
X163119957Y-84149000D01*
X163051326Y-84149000D01*
X162984287Y-84129315D01*
X162938532Y-84076511D01*
X162934288Y-84065966D01*
X162929793Y-84053118D01*
X162849150Y-83943850D01*
X162739882Y-83863207D01*
X162739880Y-83863206D01*
X162611700Y-83818353D01*
X162581270Y-83815500D01*
X162581266Y-83815500D01*
X161522734Y-83815500D01*
X161522730Y-83815500D01*
X161492300Y-83818353D01*
X161492298Y-83818353D01*
X161364119Y-83863206D01*
X161364117Y-83863207D01*
X161254849Y-83943851D01*
X161241503Y-83961933D01*
X161185854Y-84004181D01*
X161116198Y-84009637D01*
X161054650Y-83976567D01*
X161054055Y-83975976D01*
X161038292Y-83960213D01*
X161038288Y-83960210D01*
X160907185Y-83872609D01*
X160907172Y-83872602D01*
X160761501Y-83812264D01*
X160761489Y-83812261D01*
X160606845Y-83781500D01*
X160606842Y-83781500D01*
X160449158Y-83781500D01*
X160449155Y-83781500D01*
X160294510Y-83812261D01*
X160294498Y-83812264D01*
X160148827Y-83872602D01*
X160148814Y-83872609D01*
X160017711Y-83960210D01*
X160017707Y-83960213D01*
X159906213Y-84071707D01*
X159906210Y-84071711D01*
X159818609Y-84202814D01*
X159818602Y-84202827D01*
X159758264Y-84348498D01*
X159758261Y-84348510D01*
X159727500Y-84503153D01*
X156526500Y-84503153D01*
X156526500Y-82914216D01*
X161073001Y-82914216D01*
X161079452Y-82974235D01*
X161079453Y-82974238D01*
X161130099Y-83110021D01*
X161130103Y-83110027D01*
X161216952Y-83226047D01*
X161332972Y-83312896D01*
X161332974Y-83312897D01*
X161468768Y-83363547D01*
X161528780Y-83369999D01*
X161797999Y-83369999D01*
X161798000Y-83369998D01*
X161798000Y-82782500D01*
X161073001Y-82782500D01*
X161073001Y-82914216D01*
X156526500Y-82914216D01*
X156526500Y-82256249D01*
X156526499Y-82256247D01*
X156514868Y-82197770D01*
X156514867Y-82197769D01*
X156470552Y-82131447D01*
X156404230Y-82087132D01*
X156404229Y-82087131D01*
X156345752Y-82075500D01*
X156345748Y-82075500D01*
X155566252Y-82075500D01*
X155566247Y-82075500D01*
X155507770Y-82087131D01*
X155507769Y-82087132D01*
X155441447Y-82131447D01*
X155424102Y-82157407D01*
X155370489Y-82202212D01*
X155301164Y-82210919D01*
X155238137Y-82180764D01*
X155217898Y-82157407D01*
X155200552Y-82131447D01*
X155134230Y-82087132D01*
X155134229Y-82087131D01*
X155075752Y-82075500D01*
X155075748Y-82075500D01*
X154296252Y-82075500D01*
X154296247Y-82075500D01*
X154237770Y-82087131D01*
X154237769Y-82087132D01*
X154161293Y-82138233D01*
X154160462Y-82136990D01*
X154111121Y-82163929D01*
X154041430Y-82158940D01*
X153985499Y-82117065D01*
X153981668Y-82111651D01*
X153969122Y-82092875D01*
X153885104Y-82036736D01*
X153885103Y-82036735D01*
X153811021Y-82022000D01*
X153670000Y-82022000D01*
X153670000Y-84929999D01*
X153811015Y-84929999D01*
X153885106Y-84915262D01*
X153885109Y-84915261D01*
X153969123Y-84859124D01*
X153981667Y-84840350D01*
X154035278Y-84795543D01*
X154104603Y-84786834D01*
X154155555Y-84807426D01*
X154168856Y-84816673D01*
X154171448Y-84820552D01*
X154237769Y-84864867D01*
X154238338Y-84864980D01*
X154249124Y-84872479D01*
X154270342Y-84898843D01*
X154292036Y-84924801D01*
X154292184Y-84925982D01*
X154292931Y-84926910D01*
X154296527Y-84960565D01*
X154300743Y-84994126D01*
X154300259Y-84995483D01*
X154300356Y-84996384D01*
X154298915Y-84999256D01*
X154285727Y-85036291D01*
X154219609Y-85150810D01*
X154219609Y-85150811D01*
X154219608Y-85150813D01*
X154219608Y-85150814D01*
X154185500Y-85278108D01*
X154185500Y-85409892D01*
X154198411Y-85458078D01*
X154219608Y-85537187D01*
X154245939Y-85582792D01*
X154285500Y-85651314D01*
X154378686Y-85744500D01*
X154378689Y-85744502D01*
X154385135Y-85749448D01*
X154384228Y-85750629D01*
X154426231Y-85794678D01*
X154439455Y-85863285D01*
X154413488Y-85928150D01*
X154356574Y-85968679D01*
X154316016Y-85975500D01*
X154296247Y-85975500D01*
X154237770Y-85987131D01*
X154237769Y-85987132D01*
X154171447Y-86031447D01*
X154154102Y-86057407D01*
X154100489Y-86102212D01*
X154031164Y-86110919D01*
X153968137Y-86080764D01*
X153947898Y-86057407D01*
X153930552Y-86031447D01*
X153864230Y-85987132D01*
X153864229Y-85987131D01*
X153805752Y-85975500D01*
X153805748Y-85975500D01*
X153026252Y-85975500D01*
X153026247Y-85975500D01*
X152967770Y-85987131D01*
X152967769Y-85987132D01*
X152901447Y-86031447D01*
X152884102Y-86057407D01*
X152830489Y-86102212D01*
X152761164Y-86110919D01*
X152698137Y-86080764D01*
X152677898Y-86057407D01*
X152660552Y-86031447D01*
X152594230Y-85987132D01*
X152594229Y-85987131D01*
X152535752Y-85975500D01*
X152535748Y-85975500D01*
X151756252Y-85975500D01*
X151756247Y-85975500D01*
X151697770Y-85987131D01*
X151697769Y-85987132D01*
X151631447Y-86031447D01*
X151614102Y-86057407D01*
X151560489Y-86102212D01*
X151491164Y-86110919D01*
X151428137Y-86080764D01*
X151407898Y-86057407D01*
X151390552Y-86031447D01*
X151324230Y-85987132D01*
X151324229Y-85987131D01*
X151265752Y-85975500D01*
X151265748Y-85975500D01*
X150486252Y-85975500D01*
X150486247Y-85975500D01*
X150427770Y-85987131D01*
X150427769Y-85987132D01*
X150361447Y-86031447D01*
X150344102Y-86057407D01*
X150290489Y-86102212D01*
X150221164Y-86110919D01*
X150158137Y-86080764D01*
X150137898Y-86057407D01*
X150120552Y-86031447D01*
X150054230Y-85987132D01*
X150054229Y-85987131D01*
X149995752Y-85975500D01*
X149995748Y-85975500D01*
X149216252Y-85975500D01*
X149216247Y-85975500D01*
X149157770Y-85987131D01*
X149157769Y-85987132D01*
X149091447Y-86031447D01*
X149074102Y-86057407D01*
X149020489Y-86102212D01*
X148951164Y-86110919D01*
X148888137Y-86080764D01*
X148867898Y-86057407D01*
X148850552Y-86031447D01*
X148784230Y-85987132D01*
X148784229Y-85987131D01*
X148725752Y-85975500D01*
X148725748Y-85975500D01*
X148280017Y-85975500D01*
X148212978Y-85955815D01*
X148192336Y-85939181D01*
X146268336Y-84015181D01*
X146234851Y-83953858D01*
X146239835Y-83884166D01*
X146281707Y-83828233D01*
X146347171Y-83803816D01*
X146356017Y-83803500D01*
X147641500Y-83803500D01*
X147708539Y-83823185D01*
X147754294Y-83875989D01*
X147765500Y-83927500D01*
X147765500Y-84695752D01*
X147777131Y-84754229D01*
X147777132Y-84754230D01*
X147821447Y-84820552D01*
X147887769Y-84864867D01*
X147887770Y-84864868D01*
X147946247Y-84876499D01*
X147946250Y-84876500D01*
X147946252Y-84876500D01*
X148725750Y-84876500D01*
X148725751Y-84876499D01*
X148745963Y-84872479D01*
X148784229Y-84864868D01*
X148784229Y-84864867D01*
X148784231Y-84864867D01*
X148850552Y-84820552D01*
X148867898Y-84794591D01*
X148921509Y-84749787D01*
X148990834Y-84741080D01*
X149053862Y-84771234D01*
X149074100Y-84794590D01*
X149084482Y-84810127D01*
X149091448Y-84820552D01*
X149157769Y-84864867D01*
X149157770Y-84864868D01*
X149216247Y-84876499D01*
X149216250Y-84876500D01*
X149216252Y-84876500D01*
X149995750Y-84876500D01*
X149995751Y-84876499D01*
X150015963Y-84872479D01*
X150054229Y-84864868D01*
X150054229Y-84864867D01*
X150054231Y-84864867D01*
X150120552Y-84820552D01*
X150137898Y-84794591D01*
X150191509Y-84749787D01*
X150260834Y-84741080D01*
X150323862Y-84771234D01*
X150344100Y-84794590D01*
X150354482Y-84810127D01*
X150361448Y-84820552D01*
X150427769Y-84864867D01*
X150427770Y-84864868D01*
X150486247Y-84876499D01*
X150486250Y-84876500D01*
X150486252Y-84876500D01*
X151265750Y-84876500D01*
X151265751Y-84876499D01*
X151285963Y-84872479D01*
X151324229Y-84864868D01*
X151324229Y-84864867D01*
X151324231Y-84864867D01*
X151390552Y-84820552D01*
X151390551Y-84820552D01*
X151400707Y-84813767D01*
X151401538Y-84815011D01*
X151450862Y-84788074D01*
X151520554Y-84793053D01*
X151576490Y-84834921D01*
X151580330Y-84840347D01*
X151592876Y-84859123D01*
X151676895Y-84915263D01*
X151676896Y-84915264D01*
X151750980Y-84929999D01*
X151891999Y-84929999D01*
X152400000Y-84929999D01*
X152541015Y-84929999D01*
X152615106Y-84915262D01*
X152615109Y-84915261D01*
X152709278Y-84852339D01*
X152711175Y-84855178D01*
X152754642Y-84831444D01*
X152824334Y-84836428D01*
X152851631Y-84853971D01*
X152852722Y-84852339D01*
X152946895Y-84915263D01*
X152946896Y-84915264D01*
X153020980Y-84929999D01*
X153161999Y-84929999D01*
X153162000Y-84929998D01*
X153162000Y-83730000D01*
X152400000Y-83730000D01*
X152400000Y-84929999D01*
X151891999Y-84929999D01*
X151892000Y-84929998D01*
X151892000Y-83222000D01*
X152400000Y-83222000D01*
X153162000Y-83222000D01*
X153162000Y-82022000D01*
X153020985Y-82022000D01*
X152946893Y-82036737D01*
X152946890Y-82036738D01*
X152852722Y-82099661D01*
X152850824Y-82096821D01*
X152807358Y-82120556D01*
X152737666Y-82115572D01*
X152710368Y-82098028D01*
X152709278Y-82099661D01*
X152615104Y-82036736D01*
X152615103Y-82036735D01*
X152541021Y-82022000D01*
X152400000Y-82022000D01*
X152400000Y-83222000D01*
X151892000Y-83222000D01*
X151892000Y-82022000D01*
X151750985Y-82022000D01*
X151676893Y-82036737D01*
X151676890Y-82036738D01*
X151592875Y-82092876D01*
X151580329Y-82111653D01*
X151526716Y-82156458D01*
X151457391Y-82165164D01*
X151400803Y-82138088D01*
X151400707Y-82138233D01*
X151399704Y-82137563D01*
X151394364Y-82135008D01*
X151390741Y-82131574D01*
X151324230Y-82087132D01*
X151324229Y-82087131D01*
X151265752Y-82075500D01*
X151265748Y-82075500D01*
X150486252Y-82075500D01*
X150486247Y-82075500D01*
X150427770Y-82087131D01*
X150427769Y-82087132D01*
X150361447Y-82131447D01*
X150344102Y-82157407D01*
X150290489Y-82202212D01*
X150221164Y-82210919D01*
X150158137Y-82180764D01*
X150137898Y-82157407D01*
X150120552Y-82131447D01*
X150054230Y-82087132D01*
X150054229Y-82087131D01*
X149995752Y-82075500D01*
X149995748Y-82075500D01*
X149216252Y-82075500D01*
X149216247Y-82075500D01*
X149157770Y-82087131D01*
X149157769Y-82087132D01*
X149091447Y-82131447D01*
X149074102Y-82157407D01*
X149020489Y-82202212D01*
X148951164Y-82210919D01*
X148888137Y-82180764D01*
X148867898Y-82157407D01*
X148850552Y-82131447D01*
X148784230Y-82087132D01*
X148784229Y-82087131D01*
X148725752Y-82075500D01*
X148725748Y-82075500D01*
X147946252Y-82075500D01*
X147946247Y-82075500D01*
X147887770Y-82087131D01*
X147887769Y-82087132D01*
X147821447Y-82131447D01*
X147777132Y-82197769D01*
X147777131Y-82197770D01*
X147765500Y-82256247D01*
X147765500Y-83024500D01*
X147745815Y-83091539D01*
X147693011Y-83137294D01*
X147641500Y-83148500D01*
X146096485Y-83148500D01*
X146029446Y-83128815D01*
X146008804Y-83112181D01*
X144729559Y-81832936D01*
X144729558Y-81832935D01*
X144654878Y-81789819D01*
X144654879Y-81789819D01*
X144640218Y-81785890D01*
X144609926Y-81777774D01*
X144550268Y-81741409D01*
X144519739Y-81678562D01*
X144528034Y-81609187D01*
X144572520Y-81555309D01*
X144639072Y-81534035D01*
X144642022Y-81534000D01*
X161241077Y-81534000D01*
X161308116Y-81553685D01*
X161353871Y-81606489D01*
X161363815Y-81675647D01*
X161334790Y-81739203D01*
X161315386Y-81757268D01*
X161216952Y-81830952D01*
X161130103Y-81946972D01*
X161130102Y-81946974D01*
X161079452Y-82082768D01*
X161073000Y-82142772D01*
X161073000Y-82274500D01*
X161928000Y-82274500D01*
X161995039Y-82294185D01*
X162040794Y-82346989D01*
X162052000Y-82398500D01*
X162052000Y-82528500D01*
X162182000Y-82528500D01*
X162249039Y-82548185D01*
X162294794Y-82600989D01*
X162306000Y-82652500D01*
X162306000Y-83369999D01*
X162575207Y-83369999D01*
X162575216Y-83369998D01*
X162635235Y-83363547D01*
X162635238Y-83363546D01*
X162771021Y-83312900D01*
X162771027Y-83312896D01*
X162887047Y-83226047D01*
X162973896Y-83110027D01*
X162973897Y-83110025D01*
X162994608Y-83054500D01*
X163036480Y-82998567D01*
X163101944Y-82974150D01*
X163170217Y-82989002D01*
X163198471Y-83010153D01*
X163243514Y-83055196D01*
X163243515Y-83055196D01*
X163243517Y-83055198D01*
X163348607Y-83106573D01*
X163372313Y-83110027D01*
X163416739Y-83116500D01*
X163416740Y-83116500D01*
X164508261Y-83116500D01*
X164537903Y-83112181D01*
X164576393Y-83106573D01*
X164681483Y-83055198D01*
X164764198Y-82972483D01*
X164815573Y-82867393D01*
X164825500Y-82799260D01*
X164825500Y-82432740D01*
X164815573Y-82364607D01*
X164764198Y-82259517D01*
X164764196Y-82259515D01*
X164764196Y-82259514D01*
X164681485Y-82176803D01*
X164576391Y-82125426D01*
X164508261Y-82115500D01*
X164508260Y-82115500D01*
X163416740Y-82115500D01*
X163416739Y-82115500D01*
X163348608Y-82125426D01*
X163243515Y-82176803D01*
X163238194Y-82182124D01*
X163176869Y-82215606D01*
X163107178Y-82210619D01*
X163051246Y-82168745D01*
X163027226Y-82107690D01*
X163024547Y-82082764D01*
X163024546Y-82082761D01*
X162973900Y-81946978D01*
X162973896Y-81946972D01*
X162887047Y-81830952D01*
X162788614Y-81757268D01*
X162746742Y-81701335D01*
X162741757Y-81631643D01*
X162775241Y-81570320D01*
X162836564Y-81536834D01*
X162862923Y-81534000D01*
X167591077Y-81534000D01*
X167658116Y-81553685D01*
X167703871Y-81606489D01*
X167713815Y-81675647D01*
X167684790Y-81739203D01*
X167665386Y-81757268D01*
X167566952Y-81830952D01*
X167480103Y-81946972D01*
X167480102Y-81946974D01*
X167429452Y-82082768D01*
X167423000Y-82142772D01*
X167423000Y-82274500D01*
X169380999Y-82274500D01*
X169380999Y-82142792D01*
X169380998Y-82142783D01*
X169374547Y-82082764D01*
X169374546Y-82082761D01*
X169323900Y-81946978D01*
X169323896Y-81946972D01*
X169237047Y-81830952D01*
X169138614Y-81757268D01*
X169096742Y-81701335D01*
X169091757Y-81631643D01*
X169125241Y-81570320D01*
X169186564Y-81536834D01*
X169212923Y-81534000D01*
X172342000Y-81534000D01*
X172409039Y-81553685D01*
X172454794Y-81606489D01*
X172466000Y-81658000D01*
X172466000Y-106302000D01*
X172446315Y-106369039D01*
X172393511Y-106414794D01*
X172342000Y-106426000D01*
X124838000Y-106426000D01*
X124770961Y-106406315D01*
X124725206Y-106353511D01*
X124714000Y-106302000D01*
X124714000Y-104013000D01*
X150993437Y-104013000D01*
X150996984Y-104035400D01*
X151055084Y-104149425D01*
X151055087Y-104149430D01*
X151145569Y-104239912D01*
X151145573Y-104239915D01*
X151259605Y-104298017D01*
X151354204Y-104312999D01*
X151956999Y-104312999D01*
X151957000Y-104312998D01*
X151957000Y-104013000D01*
X150993437Y-104013000D01*
X124714000Y-104013000D01*
X124714000Y-99821614D01*
X126758701Y-99821614D01*
X126773437Y-99895706D01*
X126773438Y-99895709D01*
X126829576Y-99979723D01*
X126913595Y-100035863D01*
X126913596Y-100035864D01*
X126987680Y-100050599D01*
X127253999Y-100050599D01*
X127762000Y-100050599D01*
X128028315Y-100050599D01*
X128102406Y-100035862D01*
X128102409Y-100035861D01*
X128186423Y-99979723D01*
X128242563Y-99895704D01*
X128242564Y-99895703D01*
X128257299Y-99821621D01*
X128257300Y-99821618D01*
X128257300Y-98958400D01*
X127762000Y-98958400D01*
X127762000Y-100050599D01*
X127253999Y-100050599D01*
X127254000Y-100050598D01*
X127254000Y-98958400D01*
X126758701Y-98958400D01*
X126758701Y-99821614D01*
X124714000Y-99821614D01*
X124714000Y-90828216D01*
X125408001Y-90828216D01*
X125414452Y-90888235D01*
X125414453Y-90888238D01*
X125465099Y-91024021D01*
X125465103Y-91024027D01*
X125551952Y-91140047D01*
X125667972Y-91226896D01*
X125667974Y-91226897D01*
X125803768Y-91277547D01*
X125863781Y-91283999D01*
X125907999Y-91283999D01*
X126416000Y-91283999D01*
X126460207Y-91283999D01*
X126460216Y-91283998D01*
X126520235Y-91277547D01*
X126520238Y-91277546D01*
X126656021Y-91226900D01*
X126656027Y-91226896D01*
X126772047Y-91140047D01*
X126858896Y-91024027D01*
X126858897Y-91024025D01*
X126909547Y-90888231D01*
X126915999Y-90828227D01*
X126916000Y-90828210D01*
X126916000Y-90509000D01*
X126416000Y-90509000D01*
X126416000Y-91283999D01*
X125907999Y-91283999D01*
X125908000Y-91283998D01*
X125908000Y-90509000D01*
X125408001Y-90509000D01*
X125408001Y-90828216D01*
X124714000Y-90828216D01*
X124714000Y-89681772D01*
X125408000Y-89681772D01*
X125408000Y-90001000D01*
X125908000Y-90001000D01*
X126416000Y-90001000D01*
X126915999Y-90001000D01*
X126915999Y-89681792D01*
X126915998Y-89681783D01*
X126909547Y-89621764D01*
X126909546Y-89621761D01*
X126858900Y-89485978D01*
X126858896Y-89485972D01*
X126772047Y-89369952D01*
X126656027Y-89283103D01*
X126656025Y-89283102D01*
X126520231Y-89232452D01*
X126460227Y-89226000D01*
X126416000Y-89226000D01*
X126416000Y-90001000D01*
X125908000Y-90001000D01*
X125908000Y-89226000D01*
X125863793Y-89226000D01*
X125863782Y-89226001D01*
X125803764Y-89232452D01*
X125803761Y-89232453D01*
X125667978Y-89283099D01*
X125667972Y-89283103D01*
X125551952Y-89369952D01*
X125465103Y-89485972D01*
X125465102Y-89485974D01*
X125414452Y-89621768D01*
X125408000Y-89681772D01*
X124714000Y-89681772D01*
X124714000Y-85578216D01*
X125408001Y-85578216D01*
X125414452Y-85638235D01*
X125414453Y-85638238D01*
X125465099Y-85774021D01*
X125465103Y-85774027D01*
X125551952Y-85890047D01*
X125667972Y-85976896D01*
X125667974Y-85976897D01*
X125803768Y-86027547D01*
X125863781Y-86033999D01*
X125907999Y-86033999D01*
X126416000Y-86033999D01*
X126460207Y-86033999D01*
X126460216Y-86033998D01*
X126520235Y-86027547D01*
X126520238Y-86027546D01*
X126656021Y-85976900D01*
X126656027Y-85976896D01*
X126772047Y-85890047D01*
X126858896Y-85774027D01*
X126858897Y-85774025D01*
X126909547Y-85638231D01*
X126915999Y-85578227D01*
X126916000Y-85578210D01*
X126916000Y-85259000D01*
X126416000Y-85259000D01*
X126416000Y-86033999D01*
X125907999Y-86033999D01*
X125908000Y-86033998D01*
X125908000Y-85259000D01*
X125408001Y-85259000D01*
X125408001Y-85578216D01*
X124714000Y-85578216D01*
X124714000Y-84431772D01*
X125408000Y-84431772D01*
X125408000Y-84751000D01*
X125908000Y-84751000D01*
X126416000Y-84751000D01*
X126915999Y-84751000D01*
X126915999Y-84431792D01*
X126915998Y-84431783D01*
X126909547Y-84371764D01*
X126909546Y-84371761D01*
X126858900Y-84235978D01*
X126858896Y-84235972D01*
X126772047Y-84119952D01*
X126656027Y-84033103D01*
X126656025Y-84033102D01*
X126520231Y-83982452D01*
X126460227Y-83976000D01*
X126416000Y-83976000D01*
X126416000Y-84751000D01*
X125908000Y-84751000D01*
X125908000Y-83976000D01*
X125863793Y-83976000D01*
X125863782Y-83976001D01*
X125803764Y-83982452D01*
X125803761Y-83982453D01*
X125667978Y-84033099D01*
X125667972Y-84033103D01*
X125551952Y-84119952D01*
X125465103Y-84235972D01*
X125465102Y-84235974D01*
X125414452Y-84371768D01*
X125408000Y-84431772D01*
X124714000Y-84431772D01*
X124714000Y-81658000D01*
X124733685Y-81590961D01*
X124786489Y-81545206D01*
X124838000Y-81534000D01*
X131889712Y-81534000D01*
X131956751Y-81553685D01*
G37*
%TD.AperFunction*%
%TA.AperFunction,Conductor*%
G36*
X162052000Y-92074641D02*
G01*
X162018667Y-92041308D01*
X162003500Y-91981883D01*
X162003500Y-91712022D01*
X162023185Y-91644983D01*
X162052000Y-91620014D01*
X162052000Y-92074641D01*
G37*
%TD.AperFunction*%
%TA.AperFunction,Conductor*%
G36*
X163844176Y-91668825D02*
G01*
X163844741Y-91668525D01*
X163846835Y-91672456D01*
X163847757Y-91673714D01*
X163848389Y-91675370D01*
X163848390Y-91675373D01*
X163881950Y-91738351D01*
X163891399Y-91756083D01*
X163891401Y-91756086D01*
X163937160Y-91808895D01*
X163940772Y-91812581D01*
X163954746Y-91826843D01*
X163954747Y-91826844D01*
X163954749Y-91826845D01*
X163990665Y-91846935D01*
X164034563Y-91871490D01*
X164101602Y-91891175D01*
X164159500Y-91899500D01*
X164159504Y-91899500D01*
X165838906Y-91899500D01*
X165905945Y-91919185D01*
X165930913Y-91948000D01*
X163830000Y-91948000D01*
X163830000Y-91649467D01*
X163844176Y-91668825D01*
G37*
%TD.AperFunction*%
%TA.AperFunction,Conductor*%
G36*
X136346647Y-83368185D02*
G01*
X136392402Y-83420989D01*
X136402346Y-83490147D01*
X136396650Y-83513453D01*
X136396353Y-83514299D01*
X136396353Y-83514300D01*
X136393500Y-83544730D01*
X136393500Y-84603269D01*
X136396353Y-84633699D01*
X136396353Y-84633701D01*
X136441206Y-84761880D01*
X136441207Y-84761882D01*
X136517213Y-84864868D01*
X136521850Y-84871150D01*
X136631118Y-84951793D01*
X136631121Y-84951794D01*
X136632518Y-84952825D01*
X136643543Y-84967346D01*
X136658142Y-84978272D01*
X136664233Y-84994596D01*
X136674769Y-85008473D01*
X136676193Y-85026649D01*
X136682568Y-85043733D01*
X136678866Y-85060758D01*
X136680228Y-85078129D01*
X136671598Y-85094192D01*
X136667725Y-85112008D01*
X136647528Y-85138994D01*
X136647161Y-85139679D01*
X136646578Y-85140265D01*
X136642921Y-85143923D01*
X136642910Y-85143935D01*
X136581933Y-85204911D01*
X136538819Y-85279589D01*
X136538819Y-85279590D01*
X136519488Y-85351735D01*
X136516500Y-85362885D01*
X136516500Y-85378009D01*
X136496815Y-85445048D01*
X136448796Y-85488493D01*
X136355659Y-85535949D01*
X136355656Y-85535951D01*
X136262201Y-85629406D01*
X136200877Y-85662890D01*
X136131186Y-85657906D01*
X136075253Y-85616034D01*
X136074749Y-85615357D01*
X136018650Y-85539345D01*
X135908536Y-85458078D01*
X135779364Y-85412877D01*
X135779352Y-85412875D01*
X135748690Y-85410000D01*
X135698000Y-85410000D01*
X135698000Y-85940000D01*
X135678315Y-86007039D01*
X135625511Y-86052794D01*
X135574000Y-86064000D01*
X135444000Y-86064000D01*
X135444000Y-86194000D01*
X135424315Y-86261039D01*
X135371511Y-86306794D01*
X135320000Y-86318000D01*
X134740000Y-86318000D01*
X134740000Y-86318690D01*
X134742875Y-86349352D01*
X134742877Y-86349364D01*
X134788078Y-86478536D01*
X134792420Y-86486752D01*
X134790844Y-86487584D01*
X134810982Y-86542720D01*
X134795666Y-86610890D01*
X134745926Y-86659958D01*
X134677553Y-86674345D01*
X134612256Y-86649483D01*
X134599560Y-86638405D01*
X134334591Y-86373436D01*
X134334590Y-86373435D01*
X134259910Y-86330319D01*
X134259911Y-86330319D01*
X134232145Y-86322879D01*
X134176616Y-86308000D01*
X134176614Y-86308000D01*
X134145500Y-86308000D01*
X134078461Y-86288315D01*
X134032706Y-86235511D01*
X134021500Y-86184000D01*
X134021500Y-85809309D01*
X134740000Y-85809309D01*
X134740000Y-85810000D01*
X135190000Y-85810000D01*
X135190000Y-85410000D01*
X135139310Y-85410000D01*
X135108647Y-85412875D01*
X135108635Y-85412877D01*
X134979463Y-85458078D01*
X134979462Y-85458078D01*
X134869347Y-85539346D01*
X134869346Y-85539347D01*
X134788078Y-85649462D01*
X134788078Y-85649463D01*
X134742877Y-85778635D01*
X134742875Y-85778647D01*
X134740000Y-85809309D01*
X134021500Y-85809309D01*
X134021500Y-85735730D01*
X134018646Y-85705300D01*
X134018646Y-85705298D01*
X133981901Y-85600289D01*
X133973793Y-85577118D01*
X133893150Y-85467850D01*
X133783882Y-85387207D01*
X133783880Y-85387206D01*
X133655700Y-85342353D01*
X133625270Y-85339500D01*
X133625266Y-85339500D01*
X132566734Y-85339500D01*
X132566730Y-85339500D01*
X132536300Y-85342353D01*
X132536298Y-85342353D01*
X132408119Y-85387206D01*
X132408118Y-85387207D01*
X132298133Y-85468379D01*
X132232504Y-85492349D01*
X132164334Y-85477033D01*
X132115266Y-85427293D01*
X132100500Y-85368608D01*
X132100500Y-84877653D01*
X132120185Y-84810614D01*
X132172989Y-84764859D01*
X132242147Y-84754915D01*
X132298810Y-84778386D01*
X132376971Y-84836896D01*
X132376974Y-84836897D01*
X132512768Y-84887547D01*
X132572780Y-84893999D01*
X132841999Y-84893999D01*
X133350000Y-84893999D01*
X133619207Y-84893999D01*
X133619216Y-84893998D01*
X133679235Y-84887547D01*
X133679238Y-84887546D01*
X133815021Y-84836900D01*
X133815027Y-84836896D01*
X133931047Y-84750047D01*
X134017896Y-84634027D01*
X134017897Y-84634026D01*
X134029402Y-84603180D01*
X134071273Y-84547245D01*
X134136737Y-84522827D01*
X134205010Y-84537678D01*
X134254416Y-84587082D01*
X134268875Y-84633256D01*
X134271453Y-84657236D01*
X134271453Y-84657238D01*
X134322099Y-84793021D01*
X134322103Y-84793027D01*
X134408952Y-84909047D01*
X134524972Y-84995896D01*
X134524974Y-84995897D01*
X134660768Y-85046547D01*
X134720780Y-85052999D01*
X134852499Y-85052999D01*
X135360500Y-85052999D01*
X135492207Y-85052999D01*
X135492216Y-85052998D01*
X135552235Y-85046547D01*
X135552238Y-85046546D01*
X135688021Y-84995900D01*
X135688027Y-84995896D01*
X135804047Y-84909047D01*
X135890896Y-84793027D01*
X135890897Y-84793025D01*
X135941547Y-84657231D01*
X135947999Y-84597227D01*
X135948000Y-84597210D01*
X135948000Y-84328000D01*
X135360500Y-84328000D01*
X135360500Y-85052999D01*
X134852499Y-85052999D01*
X134852500Y-85052998D01*
X134852500Y-84328000D01*
X134262150Y-84328000D01*
X134207106Y-84358055D01*
X134137415Y-84353069D01*
X134093069Y-84324569D01*
X134075000Y-84306500D01*
X133350000Y-84306500D01*
X133350000Y-84893999D01*
X132841999Y-84893999D01*
X132842000Y-84893998D01*
X132842000Y-84176500D01*
X132861685Y-84109461D01*
X132914489Y-84063706D01*
X132966000Y-84052500D01*
X133096000Y-84052500D01*
X133096000Y-83922500D01*
X133115685Y-83855461D01*
X133168489Y-83809706D01*
X133220000Y-83798500D01*
X134077849Y-83798500D01*
X134132889Y-83768445D01*
X134202581Y-83773429D01*
X134246930Y-83801930D01*
X134265000Y-83820000D01*
X135947999Y-83820000D01*
X135947999Y-83550792D01*
X135947998Y-83550786D01*
X135941008Y-83485753D01*
X135943787Y-83470347D01*
X135941560Y-83454853D01*
X135949865Y-83436667D01*
X135953415Y-83416994D01*
X135964081Y-83405537D01*
X135970585Y-83391297D01*
X135987403Y-83380488D01*
X136001026Y-83365857D01*
X136016981Y-83361480D01*
X136029363Y-83353523D01*
X136064298Y-83348500D01*
X136279608Y-83348500D01*
X136346647Y-83368185D01*
G37*
%TD.AperFunction*%
%TD*%
%TA.AperFunction,Conductor*%
%TO.N,+3V3*%
G36*
X140151039Y-83585685D02*
G01*
X140196794Y-83638489D01*
X140208000Y-83690000D01*
X140208000Y-86490000D01*
X140188315Y-86557039D01*
X140135511Y-86602794D01*
X140084000Y-86614000D01*
X138300000Y-86614000D01*
X138232961Y-86594315D01*
X138187206Y-86541511D01*
X138176000Y-86490000D01*
X138176000Y-83690000D01*
X138195685Y-83622961D01*
X138248489Y-83577206D01*
X138300000Y-83566000D01*
X140084000Y-83566000D01*
X140151039Y-83585685D01*
G37*
%TD.AperFunction*%
%TD*%
%TA.AperFunction,Conductor*%
%TO.N,+12V*%
G36*
X161741039Y-89935685D02*
G01*
X161786794Y-89988489D01*
X161798000Y-90040000D01*
X161798000Y-93980000D01*
X159795940Y-93980000D01*
X159781758Y-93966094D01*
X159766000Y-93905599D01*
X159766000Y-90040000D01*
X159785685Y-89972961D01*
X159838489Y-89927206D01*
X159890000Y-89916000D01*
X161674000Y-89916000D01*
X161741039Y-89935685D01*
G37*
%TD.AperFunction*%
%TD*%
%TA.AperFunction,Conductor*%
%TO.N,Net-(U2-SW)*%
G36*
X167075039Y-86125685D02*
G01*
X167120794Y-86178489D01*
X167132000Y-86230000D01*
X167132000Y-91570000D01*
X167112315Y-91637039D01*
X167059511Y-91682794D01*
X167008000Y-91694000D01*
X164159500Y-91694000D01*
X164092461Y-91674315D01*
X164046706Y-91621511D01*
X164035500Y-91570000D01*
X164035500Y-90677997D01*
X164035499Y-90677995D01*
X164030348Y-90632271D01*
X163990666Y-90549873D01*
X163919163Y-90492851D01*
X163830004Y-90472500D01*
X163830000Y-90472500D01*
X162176000Y-90472500D01*
X162108961Y-90452815D01*
X162063206Y-90400011D01*
X162052000Y-90348500D01*
X162052000Y-89786000D01*
X162054550Y-89777314D01*
X162053262Y-89768353D01*
X162064240Y-89744312D01*
X162071685Y-89718961D01*
X162078525Y-89713033D01*
X162082287Y-89704797D01*
X162104521Y-89690507D01*
X162124489Y-89673206D01*
X162135003Y-89670918D01*
X162141065Y-89667023D01*
X162176000Y-89662000D01*
X162193561Y-89662000D01*
X162248020Y-89674598D01*
X162321607Y-89710573D01*
X162338491Y-89713033D01*
X162389739Y-89720500D01*
X162389740Y-89720500D01*
X163481261Y-89720500D01*
X163503971Y-89717191D01*
X163549393Y-89710573D01*
X163622979Y-89674598D01*
X163677439Y-89662000D01*
X163830000Y-89662000D01*
X163830000Y-88646000D01*
X162545017Y-88646000D01*
X162477978Y-88626315D01*
X162457336Y-88609681D01*
X162088319Y-88240664D01*
X162054834Y-88179341D01*
X162052000Y-88152983D01*
X162052000Y-86230000D01*
X162071685Y-86162961D01*
X162124489Y-86117206D01*
X162176000Y-86106000D01*
X167008000Y-86106000D01*
X167075039Y-86125685D01*
G37*
%TD.AperFunction*%
%TD*%
%TA.AperFunction,Conductor*%
%TO.N,+5V*%
G36*
X170885039Y-84093685D02*
G01*
X170930794Y-84146489D01*
X170942000Y-84198000D01*
X170942000Y-93856000D01*
X170922315Y-93923039D01*
X170869511Y-93968794D01*
X170818000Y-93980000D01*
X167764000Y-93980000D01*
X167696961Y-93960315D01*
X167651206Y-93907511D01*
X167640000Y-93856000D01*
X167640000Y-85598000D01*
X165478000Y-85598000D01*
X165410961Y-85578315D01*
X165365206Y-85525511D01*
X165354000Y-85474000D01*
X165354000Y-84198000D01*
X165373685Y-84130961D01*
X165426489Y-84085206D01*
X165478000Y-84074000D01*
X170818000Y-84074000D01*
X170885039Y-84093685D01*
G37*
%TD.AperFunction*%
%TD*%
%TA.AperFunction,Conductor*%
%TO.N,+12V*%
G36*
X167386000Y-95504000D02*
G01*
X170056000Y-95504000D01*
X170123039Y-95523685D01*
X170168794Y-95576489D01*
X170180000Y-95628000D01*
X170180000Y-97920000D01*
X170160315Y-97987039D01*
X170107511Y-98032794D01*
X170056000Y-98044000D01*
X167417001Y-98044000D01*
X167358648Y-98029412D01*
X159831647Y-94015011D01*
X159821598Y-94005158D01*
X159808797Y-93999312D01*
X159797145Y-93981181D01*
X159795941Y-93980000D01*
X161798000Y-93980000D01*
X167386000Y-95504000D01*
G37*
%TD.AperFunction*%
%TD*%
%TA.AperFunction,Conductor*%
%TO.N,GND*%
G36*
X163830000Y-91948000D02*
G01*
X167386000Y-91948000D01*
X167386000Y-93980000D01*
X162579021Y-93980000D01*
X162052000Y-93836266D01*
X162052000Y-90678000D01*
X163830000Y-90678000D01*
X163830000Y-91948000D01*
G37*
%TD.AperFunction*%
%TD*%
M02*
