%TF.GenerationSoftware,KiCad,Pcbnew,9.0.1*%
%TF.CreationDate,2025-09-03T00:36:21-07:00*%
%TF.ProjectId,stm32-test,73746d33-322d-4746-9573-742e6b696361,rev?*%
%TF.SameCoordinates,Original*%
%TF.FileFunction,Copper,L2,Inr*%
%TF.FilePolarity,Positive*%
%FSLAX46Y46*%
G04 Gerber Fmt 4.6, Leading zero omitted, Abs format (unit mm)*
G04 Created by KiCad (PCBNEW 9.0.1) date 2025-09-03 00:36:21*
%MOMM*%
%LPD*%
G01*
G04 APERTURE LIST*
%TA.AperFunction,ComponentPad*%
%ADD10R,1.700000X1.700000*%
%TD*%
%TA.AperFunction,ComponentPad*%
%ADD11C,1.700000*%
%TD*%
%TA.AperFunction,ViaPad*%
%ADD12C,0.600000*%
%TD*%
%TA.AperFunction,ViaPad*%
%ADD13C,1.200000*%
%TD*%
%TA.AperFunction,Conductor*%
%ADD14C,0.254000*%
%TD*%
G04 APERTURE END LIST*
D10*
%TO.N,+12V*%
%TO.C,J1*%
X168910000Y-96774000D03*
D11*
%TO.N,/CANH*%
X168910000Y-99314000D03*
%TO.N,/CANL*%
X168910000Y-101854000D03*
%TO.N,GND*%
X168910000Y-104394000D03*
%TD*%
D10*
%TO.N,+3V3*%
%TO.C,J4*%
X153416000Y-92456000D03*
D11*
%TO.N,GND*%
X153416000Y-94996000D03*
%TD*%
%TO.N,/SPI_CS*%
%TO.C,J2*%
X131572000Y-95250000D03*
%TO.N,/SPI_CLK*%
X131572000Y-97790000D03*
%TO.N,/SPI_MISO*%
X131572000Y-100330000D03*
D10*
%TO.N,/SPI_MOSI*%
X131572000Y-102870000D03*
%TD*%
D11*
%TO.N,/I2C_SCL*%
%TO.C,J5*%
X148869000Y-95016000D03*
D10*
%TO.N,/I2C_SDA*%
X148869000Y-92476000D03*
%TD*%
D11*
%TO.N,GND*%
%TO.C,J6*%
X157734000Y-94996000D03*
D10*
%TO.N,+3V3*%
X157734000Y-92456000D03*
%TD*%
D12*
%TO.N,/NRST*%
X131318000Y-88646000D03*
X134366000Y-88646000D03*
%TO.N,+3V3*%
X153670000Y-98044000D03*
%TO.N,+5V*%
X160020000Y-88646000D03*
X170434000Y-93218000D03*
X160782000Y-98552000D03*
D13*
%TO.N,GND*%
X140716000Y-89662000D03*
D12*
X144937910Y-84678090D03*
X134672000Y-85292000D03*
%TO.N,+3V3*%
X141752000Y-101346000D03*
D13*
X138430000Y-85090000D03*
D12*
X144780000Y-101314000D03*
D13*
X160528000Y-84582000D03*
D12*
X154686000Y-85344000D03*
%TO.N,/I2C_SCL*%
X144780000Y-98298000D03*
%TO.N,/I2C_SDA*%
X143111787Y-98442213D03*
%TD*%
D14*
%TO.N,/NRST*%
X134366000Y-88646000D02*
X131318000Y-88646000D01*
%TO.N,+5V*%
X160020000Y-88646000D02*
X161544000Y-88646000D01*
X161544000Y-88646000D02*
X166116000Y-93218000D01*
X166116000Y-93218000D02*
X170434000Y-93218000D01*
X160782000Y-98552000D02*
X166116000Y-93218000D01*
%TO.N,/I2C_SCL*%
X144780000Y-98298000D02*
X144825000Y-98298000D01*
X144825000Y-98298000D02*
X148107000Y-95016000D01*
X148107000Y-95016000D02*
X148869000Y-95016000D01*
%TO.N,/I2C_SDA*%
X148869000Y-93193000D02*
X148869000Y-92476000D01*
X143111787Y-98442213D02*
X143619787Y-98442213D01*
X143619787Y-98442213D02*
X148869000Y-93193000D01*
%TD*%
%TA.AperFunction,Conductor*%
%TO.N,GND*%
G36*
X172409039Y-81553685D02*
G01*
X172454794Y-81606489D01*
X172466000Y-81658000D01*
X172466000Y-106302000D01*
X172446315Y-106369039D01*
X172393511Y-106414794D01*
X172342000Y-106426000D01*
X124838000Y-106426000D01*
X124770961Y-106406315D01*
X124725206Y-106353511D01*
X124714000Y-106302000D01*
X124714000Y-104307107D01*
X167806000Y-104307107D01*
X167806000Y-104480892D01*
X167833183Y-104652521D01*
X167886884Y-104817793D01*
X167965771Y-104972616D01*
X167965778Y-104972627D01*
X167968464Y-104976325D01*
X168425841Y-104518947D01*
X168444075Y-104586993D01*
X168509901Y-104701007D01*
X168602993Y-104794099D01*
X168717007Y-104859925D01*
X168785051Y-104878157D01*
X168327674Y-105335534D01*
X168327674Y-105335535D01*
X168331374Y-105338223D01*
X168486206Y-105417115D01*
X168651478Y-105470816D01*
X168823108Y-105498000D01*
X168996892Y-105498000D01*
X169168521Y-105470816D01*
X169333793Y-105417115D01*
X169488618Y-105338228D01*
X169492325Y-105335534D01*
X169034948Y-104878157D01*
X169102993Y-104859925D01*
X169217007Y-104794099D01*
X169310099Y-104701007D01*
X169375925Y-104586993D01*
X169394157Y-104518948D01*
X169851534Y-104976325D01*
X169854228Y-104972618D01*
X169933115Y-104817793D01*
X169986816Y-104652521D01*
X170014000Y-104480892D01*
X170014000Y-104307107D01*
X169986816Y-104135478D01*
X169933115Y-103970206D01*
X169854223Y-103815374D01*
X169851535Y-103811674D01*
X169851534Y-103811674D01*
X169394157Y-104269051D01*
X169375925Y-104201007D01*
X169310099Y-104086993D01*
X169217007Y-103993901D01*
X169102993Y-103928075D01*
X169034948Y-103909842D01*
X169492325Y-103452464D01*
X169488627Y-103449778D01*
X169488616Y-103449771D01*
X169333793Y-103370884D01*
X169168521Y-103317183D01*
X168996892Y-103290000D01*
X168823108Y-103290000D01*
X168651478Y-103317183D01*
X168486206Y-103370884D01*
X168331377Y-103449774D01*
X168327674Y-103452464D01*
X168785052Y-103909842D01*
X168717007Y-103928075D01*
X168602993Y-103993901D01*
X168509901Y-104086993D01*
X168444075Y-104201007D01*
X168425842Y-104269052D01*
X167968464Y-103811674D01*
X167965774Y-103815377D01*
X167886884Y-103970206D01*
X167833183Y-104135478D01*
X167806000Y-104307107D01*
X124714000Y-104307107D01*
X124714000Y-104294000D01*
X153298000Y-104294000D01*
X156074000Y-104294000D01*
X156074000Y-101750530D01*
X167859500Y-101750530D01*
X167859500Y-101957469D01*
X167899868Y-102160412D01*
X167899870Y-102160420D01*
X167979058Y-102351596D01*
X168094024Y-102523657D01*
X168240342Y-102669975D01*
X168240345Y-102669977D01*
X168412402Y-102784941D01*
X168603580Y-102864130D01*
X168806530Y-102904499D01*
X168806534Y-102904500D01*
X168806535Y-102904500D01*
X169013466Y-102904500D01*
X169013467Y-102904499D01*
X169216420Y-102864130D01*
X169407598Y-102784941D01*
X169579655Y-102669977D01*
X169725977Y-102523655D01*
X169840941Y-102351598D01*
X169920130Y-102160420D01*
X169960500Y-101957465D01*
X169960500Y-101750535D01*
X169920130Y-101547580D01*
X169840941Y-101356402D01*
X169725977Y-101184345D01*
X169725975Y-101184342D01*
X169579657Y-101038024D01*
X169493626Y-100980541D01*
X169407598Y-100923059D01*
X169216420Y-100843870D01*
X169216412Y-100843868D01*
X169013469Y-100803500D01*
X169013465Y-100803500D01*
X168806535Y-100803500D01*
X168806530Y-100803500D01*
X168603587Y-100843868D01*
X168603579Y-100843870D01*
X168412403Y-100923058D01*
X168240342Y-101038024D01*
X168094024Y-101184342D01*
X167979058Y-101356403D01*
X167899870Y-101547579D01*
X167899868Y-101547587D01*
X167859500Y-101750530D01*
X156074000Y-101750530D01*
X156074000Y-99314000D01*
X153298000Y-99314000D01*
X153298000Y-104294000D01*
X124714000Y-104294000D01*
X124714000Y-102000247D01*
X130521500Y-102000247D01*
X130521500Y-103739752D01*
X130533131Y-103798229D01*
X130533132Y-103798230D01*
X130577447Y-103864552D01*
X130643769Y-103908867D01*
X130643770Y-103908868D01*
X130702247Y-103920499D01*
X130702250Y-103920500D01*
X130702252Y-103920500D01*
X132441750Y-103920500D01*
X132441751Y-103920499D01*
X132456568Y-103917552D01*
X132500229Y-103908868D01*
X132500229Y-103908867D01*
X132500231Y-103908867D01*
X132566552Y-103864552D01*
X132610867Y-103798231D01*
X132610867Y-103798229D01*
X132610868Y-103798229D01*
X132622499Y-103739752D01*
X132622500Y-103739750D01*
X132622500Y-102000249D01*
X132622499Y-102000247D01*
X132610868Y-101941770D01*
X132610867Y-101941769D01*
X132566552Y-101875447D01*
X132500230Y-101831132D01*
X132500229Y-101831131D01*
X132441752Y-101819500D01*
X132441748Y-101819500D01*
X130702252Y-101819500D01*
X130702247Y-101819500D01*
X130643770Y-101831131D01*
X130643769Y-101831132D01*
X130577447Y-101875447D01*
X130533132Y-101941769D01*
X130533131Y-101941770D01*
X130521500Y-102000247D01*
X124714000Y-102000247D01*
X124714000Y-100226530D01*
X130521500Y-100226530D01*
X130521500Y-100433469D01*
X130561868Y-100636412D01*
X130561870Y-100636420D01*
X130641058Y-100827596D01*
X130756024Y-100999657D01*
X130902342Y-101145975D01*
X130902345Y-101145977D01*
X131074402Y-101260941D01*
X131265580Y-101340130D01*
X131465468Y-101379890D01*
X131468530Y-101380499D01*
X131468534Y-101380500D01*
X131468535Y-101380500D01*
X131675466Y-101380500D01*
X131675467Y-101380499D01*
X131878420Y-101340130D01*
X132023325Y-101280108D01*
X141251500Y-101280108D01*
X141251500Y-101411891D01*
X141285608Y-101539187D01*
X141290454Y-101547580D01*
X141351500Y-101653314D01*
X141444686Y-101746500D01*
X141558814Y-101812392D01*
X141686108Y-101846500D01*
X141686110Y-101846500D01*
X141817890Y-101846500D01*
X141817892Y-101846500D01*
X141945186Y-101812392D01*
X142059314Y-101746500D01*
X142152500Y-101653314D01*
X142218392Y-101539186D01*
X142252500Y-101411892D01*
X142252500Y-101280108D01*
X142243926Y-101248108D01*
X144279500Y-101248108D01*
X144279500Y-101379891D01*
X144313608Y-101507187D01*
X144346554Y-101564250D01*
X144379500Y-101621314D01*
X144472686Y-101714500D01*
X144586814Y-101780392D01*
X144714108Y-101814500D01*
X144714110Y-101814500D01*
X144845890Y-101814500D01*
X144845892Y-101814500D01*
X144973186Y-101780392D01*
X145087314Y-101714500D01*
X145180500Y-101621314D01*
X145246392Y-101507186D01*
X145280500Y-101379892D01*
X145280500Y-101248108D01*
X145246392Y-101120814D01*
X145180500Y-101006686D01*
X145087314Y-100913500D01*
X145030250Y-100880554D01*
X144973187Y-100847608D01*
X144898499Y-100827596D01*
X144845892Y-100813500D01*
X144714108Y-100813500D01*
X144586812Y-100847608D01*
X144472686Y-100913500D01*
X144472683Y-100913502D01*
X144379502Y-101006683D01*
X144379500Y-101006686D01*
X144313608Y-101120812D01*
X144279500Y-101248108D01*
X142243926Y-101248108D01*
X142218392Y-101152814D01*
X142214443Y-101145975D01*
X142199917Y-101120814D01*
X142152500Y-101038686D01*
X142059314Y-100945500D01*
X142002250Y-100912554D01*
X141945187Y-100879608D01*
X141881539Y-100862554D01*
X141817892Y-100845500D01*
X141686108Y-100845500D01*
X141558812Y-100879608D01*
X141444686Y-100945500D01*
X141444683Y-100945502D01*
X141351502Y-101038683D01*
X141351500Y-101038686D01*
X141285608Y-101152812D01*
X141251500Y-101280108D01*
X132023325Y-101280108D01*
X132069598Y-101260941D01*
X132207381Y-101168878D01*
X132207383Y-101168877D01*
X132224580Y-101157385D01*
X132241655Y-101145977D01*
X132387977Y-100999655D01*
X132502941Y-100827598D01*
X132582130Y-100636420D01*
X132622500Y-100433465D01*
X132622500Y-100226535D01*
X132582130Y-100023580D01*
X132502941Y-99832402D01*
X132387977Y-99660345D01*
X132387975Y-99660342D01*
X132241657Y-99514024D01*
X132069596Y-99399057D01*
X132016824Y-99377199D01*
X131878420Y-99319870D01*
X131878412Y-99319868D01*
X131675469Y-99279500D01*
X131675465Y-99279500D01*
X131468535Y-99279500D01*
X131468530Y-99279500D01*
X131265587Y-99319868D01*
X131265579Y-99319870D01*
X131074403Y-99399058D01*
X130902342Y-99514024D01*
X130756024Y-99660342D01*
X130641058Y-99832403D01*
X130561870Y-100023579D01*
X130561868Y-100023587D01*
X130521500Y-100226530D01*
X124714000Y-100226530D01*
X124714000Y-99210530D01*
X167859500Y-99210530D01*
X167859500Y-99417469D01*
X167899868Y-99620412D01*
X167899870Y-99620420D01*
X167979059Y-99811598D01*
X168036541Y-99897626D01*
X168094024Y-99983657D01*
X168240342Y-100129975D01*
X168240345Y-100129977D01*
X168412402Y-100244941D01*
X168603580Y-100324130D01*
X168806530Y-100364499D01*
X168806534Y-100364500D01*
X168806535Y-100364500D01*
X169013466Y-100364500D01*
X169013467Y-100364499D01*
X169216420Y-100324130D01*
X169407598Y-100244941D01*
X169579655Y-100129977D01*
X169725977Y-99983655D01*
X169840941Y-99811598D01*
X169920130Y-99620420D01*
X169960500Y-99417465D01*
X169960500Y-99210535D01*
X169920130Y-99007580D01*
X169840941Y-98816402D01*
X169725977Y-98644345D01*
X169725975Y-98644342D01*
X169579657Y-98498024D01*
X169486649Y-98435879D01*
X169407598Y-98383059D01*
X169391331Y-98376321D01*
X169216420Y-98303870D01*
X169216412Y-98303868D01*
X169013469Y-98263500D01*
X169013465Y-98263500D01*
X168806535Y-98263500D01*
X168806530Y-98263500D01*
X168603587Y-98303868D01*
X168603579Y-98303870D01*
X168412403Y-98383058D01*
X168240342Y-98498024D01*
X168094024Y-98644342D01*
X167979058Y-98816403D01*
X167899870Y-99007579D01*
X167899868Y-99007587D01*
X167859500Y-99210530D01*
X124714000Y-99210530D01*
X124714000Y-97686530D01*
X130521500Y-97686530D01*
X130521500Y-97893469D01*
X130561868Y-98096412D01*
X130561870Y-98096420D01*
X130641058Y-98287596D01*
X130756024Y-98459657D01*
X130902342Y-98605975D01*
X130902345Y-98605977D01*
X131074402Y-98720941D01*
X131265580Y-98800130D01*
X131468530Y-98840499D01*
X131468534Y-98840500D01*
X131468535Y-98840500D01*
X131675466Y-98840500D01*
X131675467Y-98840499D01*
X131878420Y-98800130D01*
X132069598Y-98720941D01*
X132241655Y-98605977D01*
X132387977Y-98459655D01*
X132443659Y-98376321D01*
X142611287Y-98376321D01*
X142611287Y-98508104D01*
X142645395Y-98635400D01*
X142650558Y-98644342D01*
X142711287Y-98749527D01*
X142804473Y-98842713D01*
X142918601Y-98908605D01*
X143045895Y-98942713D01*
X143045897Y-98942713D01*
X143177677Y-98942713D01*
X143177679Y-98942713D01*
X143304973Y-98908605D01*
X143419101Y-98842713D01*
X143455782Y-98806032D01*
X143517105Y-98772547D01*
X143543463Y-98769713D01*
X143662901Y-98769713D01*
X143662903Y-98769713D01*
X143746197Y-98747394D01*
X143820877Y-98704278D01*
X144102647Y-98422507D01*
X144163968Y-98389024D01*
X144233659Y-98394008D01*
X144289593Y-98435879D01*
X144310100Y-98478094D01*
X144313608Y-98491186D01*
X144379500Y-98605314D01*
X144472686Y-98698500D01*
X144586814Y-98764392D01*
X144714108Y-98798500D01*
X144714110Y-98798500D01*
X144845890Y-98798500D01*
X144845892Y-98798500D01*
X144973186Y-98764392D01*
X145087314Y-98698500D01*
X145180500Y-98605314D01*
X145246392Y-98491186D01*
X145280500Y-98363892D01*
X145280500Y-98357016D01*
X145300185Y-98289977D01*
X145316814Y-98269340D01*
X145608046Y-97978108D01*
X153169500Y-97978108D01*
X153169500Y-98109891D01*
X153203608Y-98237187D01*
X153210443Y-98249025D01*
X153269500Y-98351314D01*
X153362686Y-98444500D01*
X153476814Y-98510392D01*
X153604108Y-98544500D01*
X153604110Y-98544500D01*
X153735890Y-98544500D01*
X153735892Y-98544500D01*
X153863186Y-98510392D01*
X153977314Y-98444500D01*
X154070500Y-98351314D01*
X154136392Y-98237186D01*
X154170500Y-98109892D01*
X154170500Y-97978108D01*
X154136392Y-97850814D01*
X154070500Y-97736686D01*
X153977314Y-97643500D01*
X153920250Y-97610554D01*
X153863187Y-97577608D01*
X153799539Y-97560554D01*
X153735892Y-97543500D01*
X153604108Y-97543500D01*
X153476812Y-97577608D01*
X153362686Y-97643500D01*
X153362683Y-97643502D01*
X153269502Y-97736683D01*
X153269500Y-97736686D01*
X153203608Y-97850812D01*
X153169500Y-97978108D01*
X145608046Y-97978108D01*
X147889081Y-95697072D01*
X147950402Y-95663589D01*
X148020094Y-95668573D01*
X148064441Y-95697074D01*
X148199342Y-95831975D01*
X148199345Y-95831977D01*
X148371402Y-95946941D01*
X148562580Y-96026130D01*
X148762896Y-96065975D01*
X148765530Y-96066499D01*
X148765534Y-96066500D01*
X148765535Y-96066500D01*
X148972466Y-96066500D01*
X148972467Y-96066499D01*
X149175420Y-96026130D01*
X149366598Y-95946941D01*
X149538655Y-95831977D01*
X149538658Y-95831974D01*
X149568038Y-95802595D01*
X149684974Y-95685658D01*
X149684975Y-95685657D01*
X149684977Y-95685655D01*
X149799941Y-95513598D01*
X149879130Y-95322420D01*
X149919500Y-95119465D01*
X149919500Y-94912535D01*
X149919500Y-94912532D01*
X149918819Y-94909107D01*
X152312000Y-94909107D01*
X152312000Y-95082892D01*
X152339183Y-95254521D01*
X152392884Y-95419793D01*
X152471771Y-95574616D01*
X152471778Y-95574627D01*
X152474464Y-95578325D01*
X152931841Y-95120947D01*
X152950075Y-95188993D01*
X153015901Y-95303007D01*
X153108993Y-95396099D01*
X153223007Y-95461925D01*
X153291051Y-95480157D01*
X152833674Y-95937534D01*
X152833674Y-95937535D01*
X152837374Y-95940223D01*
X152992206Y-96019115D01*
X153157478Y-96072816D01*
X153329108Y-96100000D01*
X153502892Y-96100000D01*
X153674521Y-96072816D01*
X153839793Y-96019115D01*
X153994618Y-95940228D01*
X153998325Y-95937534D01*
X153540948Y-95480157D01*
X153608993Y-95461925D01*
X153723007Y-95396099D01*
X153816099Y-95303007D01*
X153881925Y-95188993D01*
X153900157Y-95120948D01*
X154357534Y-95578325D01*
X154360228Y-95574618D01*
X154439115Y-95419793D01*
X154492816Y-95254521D01*
X154520000Y-95082892D01*
X154520000Y-94909107D01*
X156630000Y-94909107D01*
X156630000Y-95082892D01*
X156657183Y-95254521D01*
X156710884Y-95419793D01*
X156789771Y-95574616D01*
X156789778Y-95574627D01*
X156792464Y-95578325D01*
X157249841Y-95120947D01*
X157268075Y-95188993D01*
X157333901Y-95303007D01*
X157426993Y-95396099D01*
X157541007Y-95461925D01*
X157609051Y-95480157D01*
X157151674Y-95937534D01*
X157151674Y-95937535D01*
X157155374Y-95940223D01*
X157310206Y-96019115D01*
X157475478Y-96072816D01*
X157647108Y-96100000D01*
X157820892Y-96100000D01*
X157992521Y-96072816D01*
X158157793Y-96019115D01*
X158312618Y-95940228D01*
X158316325Y-95937534D01*
X157858948Y-95480157D01*
X157926993Y-95461925D01*
X158041007Y-95396099D01*
X158134099Y-95303007D01*
X158199925Y-95188993D01*
X158218157Y-95120948D01*
X158675534Y-95578325D01*
X158678228Y-95574618D01*
X158757115Y-95419793D01*
X158810816Y-95254521D01*
X158838000Y-95082892D01*
X158838000Y-94909107D01*
X158810816Y-94737478D01*
X158757115Y-94572206D01*
X158678223Y-94417374D01*
X158675535Y-94413674D01*
X158675534Y-94413674D01*
X158218157Y-94871051D01*
X158199925Y-94803007D01*
X158134099Y-94688993D01*
X158041007Y-94595901D01*
X157926993Y-94530075D01*
X157858948Y-94511842D01*
X158316325Y-94054464D01*
X158312627Y-94051778D01*
X158312616Y-94051771D01*
X158157793Y-93972884D01*
X157992521Y-93919183D01*
X157820892Y-93892000D01*
X157647108Y-93892000D01*
X157475478Y-93919183D01*
X157310206Y-93972884D01*
X157155377Y-94051774D01*
X157151674Y-94054464D01*
X157609052Y-94511842D01*
X157541007Y-94530075D01*
X157426993Y-94595901D01*
X157333901Y-94688993D01*
X157268075Y-94803007D01*
X157249842Y-94871052D01*
X156792464Y-94413674D01*
X156789774Y-94417377D01*
X156710884Y-94572206D01*
X156657183Y-94737478D01*
X156630000Y-94909107D01*
X154520000Y-94909107D01*
X154492816Y-94737478D01*
X154439115Y-94572206D01*
X154360223Y-94417374D01*
X154357535Y-94413674D01*
X154357534Y-94413674D01*
X153900157Y-94871051D01*
X153881925Y-94803007D01*
X153816099Y-94688993D01*
X153723007Y-94595901D01*
X153608993Y-94530075D01*
X153540948Y-94511842D01*
X153998325Y-94054464D01*
X153994627Y-94051778D01*
X153994616Y-94051771D01*
X153839793Y-93972884D01*
X153674521Y-93919183D01*
X153502892Y-93892000D01*
X153329108Y-93892000D01*
X153157478Y-93919183D01*
X152992206Y-93972884D01*
X152837377Y-94051774D01*
X152833674Y-94054464D01*
X153291052Y-94511842D01*
X153223007Y-94530075D01*
X153108993Y-94595901D01*
X153015901Y-94688993D01*
X152950075Y-94803007D01*
X152931842Y-94871051D01*
X152474464Y-94413674D01*
X152471774Y-94417377D01*
X152392884Y-94572206D01*
X152339183Y-94737478D01*
X152312000Y-94909107D01*
X149918819Y-94909107D01*
X149879131Y-94709587D01*
X149879130Y-94709580D01*
X149799941Y-94518402D01*
X149684977Y-94346345D01*
X149684975Y-94346342D01*
X149538658Y-94200025D01*
X149536375Y-94198499D01*
X149366598Y-94085059D01*
X149286241Y-94051774D01*
X149175420Y-94005870D01*
X149175412Y-94005868D01*
X148972469Y-93965500D01*
X148972465Y-93965500D01*
X148859017Y-93965500D01*
X148791978Y-93945815D01*
X148746223Y-93893011D01*
X148736279Y-93823853D01*
X148765304Y-93760297D01*
X148771336Y-93753819D01*
X148962336Y-93562819D01*
X149023659Y-93529334D01*
X149050017Y-93526500D01*
X149738750Y-93526500D01*
X149738751Y-93526499D01*
X149753568Y-93523552D01*
X149797229Y-93514868D01*
X149797229Y-93514867D01*
X149797231Y-93514867D01*
X149863552Y-93470552D01*
X149907867Y-93404231D01*
X149907867Y-93404229D01*
X149907868Y-93404229D01*
X149919499Y-93345752D01*
X149919500Y-93345750D01*
X149919500Y-91606250D01*
X149919121Y-91604345D01*
X149919121Y-91604342D01*
X149915521Y-91586247D01*
X152365500Y-91586247D01*
X152365500Y-93325752D01*
X152377131Y-93384229D01*
X152377132Y-93384230D01*
X152421447Y-93450552D01*
X152487769Y-93494867D01*
X152487770Y-93494868D01*
X152546247Y-93506499D01*
X152546250Y-93506500D01*
X152546252Y-93506500D01*
X154285750Y-93506500D01*
X154285751Y-93506499D01*
X154300568Y-93503552D01*
X154344229Y-93494868D01*
X154344229Y-93494867D01*
X154344231Y-93494867D01*
X154410552Y-93450552D01*
X154454867Y-93384231D01*
X154454867Y-93384229D01*
X154454868Y-93384229D01*
X154466499Y-93325752D01*
X154466500Y-93325750D01*
X154466500Y-91586249D01*
X154466499Y-91586247D01*
X156683500Y-91586247D01*
X156683500Y-93325752D01*
X156695131Y-93384229D01*
X156695132Y-93384230D01*
X156739447Y-93450552D01*
X156805769Y-93494867D01*
X156805770Y-93494868D01*
X156864247Y-93506499D01*
X156864250Y-93506500D01*
X156864252Y-93506500D01*
X158603750Y-93506500D01*
X158603751Y-93506499D01*
X158618568Y-93503552D01*
X158662229Y-93494868D01*
X158662229Y-93494867D01*
X158662231Y-93494867D01*
X158728552Y-93450552D01*
X158772867Y-93384231D01*
X158772867Y-93384229D01*
X158772868Y-93384229D01*
X158784499Y-93325752D01*
X158784500Y-93325750D01*
X158784500Y-91586249D01*
X158784499Y-91586247D01*
X158772868Y-91527770D01*
X158772867Y-91527769D01*
X158728552Y-91461447D01*
X158662230Y-91417132D01*
X158662229Y-91417131D01*
X158603752Y-91405500D01*
X158603748Y-91405500D01*
X156864252Y-91405500D01*
X156864247Y-91405500D01*
X156805770Y-91417131D01*
X156805769Y-91417132D01*
X156739447Y-91461447D01*
X156695132Y-91527769D01*
X156695131Y-91527770D01*
X156683500Y-91586247D01*
X154466499Y-91586247D01*
X154454868Y-91527770D01*
X154454867Y-91527769D01*
X154410552Y-91461447D01*
X154344230Y-91417132D01*
X154344229Y-91417131D01*
X154285752Y-91405500D01*
X154285748Y-91405500D01*
X152546252Y-91405500D01*
X152546247Y-91405500D01*
X152487770Y-91417131D01*
X152487769Y-91417132D01*
X152421447Y-91461447D01*
X152377132Y-91527769D01*
X152377131Y-91527770D01*
X152365500Y-91586247D01*
X149915521Y-91586247D01*
X149907867Y-91547770D01*
X149907867Y-91547769D01*
X149863552Y-91481447D01*
X149797230Y-91437132D01*
X149797229Y-91437131D01*
X149738752Y-91425500D01*
X149738748Y-91425500D01*
X147999252Y-91425500D01*
X147999247Y-91425500D01*
X147940770Y-91437131D01*
X147940769Y-91437132D01*
X147874447Y-91481447D01*
X147830132Y-91547769D01*
X147830131Y-91547770D01*
X147818500Y-91606247D01*
X147818500Y-93345752D01*
X147830131Y-93404229D01*
X147830132Y-93404230D01*
X147874447Y-93470551D01*
X147900987Y-93488285D01*
X147945791Y-93541898D01*
X147954498Y-93611223D01*
X147924343Y-93674250D01*
X147919776Y-93679068D01*
X143573888Y-98024955D01*
X143512565Y-98058440D01*
X143442873Y-98053456D01*
X143424206Y-98044661D01*
X143419102Y-98041714D01*
X143419101Y-98041713D01*
X143362498Y-98009033D01*
X143304974Y-97975821D01*
X143241326Y-97958767D01*
X143177679Y-97941713D01*
X143045895Y-97941713D01*
X142918599Y-97975821D01*
X142804473Y-98041713D01*
X142804470Y-98041715D01*
X142711289Y-98134896D01*
X142711287Y-98134899D01*
X142645395Y-98249025D01*
X142611287Y-98376321D01*
X132443659Y-98376321D01*
X132502941Y-98287598D01*
X132582130Y-98096420D01*
X132622500Y-97893465D01*
X132622500Y-97686535D01*
X132582130Y-97483580D01*
X132502941Y-97292402D01*
X132387977Y-97120345D01*
X132387975Y-97120342D01*
X132241657Y-96974024D01*
X132155626Y-96916541D01*
X132069598Y-96859059D01*
X131878420Y-96779870D01*
X131878412Y-96779868D01*
X131675469Y-96739500D01*
X131675465Y-96739500D01*
X131468535Y-96739500D01*
X131468530Y-96739500D01*
X131265587Y-96779868D01*
X131265579Y-96779870D01*
X131074403Y-96859058D01*
X130902342Y-96974024D01*
X130756024Y-97120342D01*
X130641058Y-97292403D01*
X130561870Y-97483579D01*
X130561868Y-97483587D01*
X130521500Y-97686530D01*
X124714000Y-97686530D01*
X124714000Y-95146530D01*
X130521500Y-95146530D01*
X130521500Y-95353469D01*
X130561868Y-95556412D01*
X130561870Y-95556420D01*
X130608325Y-95668573D01*
X130641059Y-95747598D01*
X130677807Y-95802595D01*
X130756024Y-95919657D01*
X130902342Y-96065975D01*
X130902345Y-96065977D01*
X131074402Y-96180941D01*
X131265580Y-96260130D01*
X131468530Y-96300499D01*
X131468534Y-96300500D01*
X131468535Y-96300500D01*
X131675466Y-96300500D01*
X131675467Y-96300499D01*
X131878420Y-96260130D01*
X132069598Y-96180941D01*
X132241655Y-96065977D01*
X132387977Y-95919655D01*
X132502941Y-95747598D01*
X132582130Y-95556420D01*
X132622500Y-95353465D01*
X132622500Y-95146535D01*
X132582130Y-94943580D01*
X132502941Y-94752402D01*
X132387977Y-94580345D01*
X132387975Y-94580342D01*
X132241657Y-94434024D01*
X132155626Y-94376541D01*
X132069598Y-94319059D01*
X131878420Y-94239870D01*
X131878412Y-94239868D01*
X131675469Y-94199500D01*
X131675465Y-94199500D01*
X131468535Y-94199500D01*
X131468530Y-94199500D01*
X131265587Y-94239868D01*
X131265579Y-94239870D01*
X131074403Y-94319058D01*
X130902342Y-94434024D01*
X130756024Y-94580342D01*
X130641058Y-94752403D01*
X130561870Y-94943579D01*
X130561868Y-94943587D01*
X130521500Y-95146530D01*
X124714000Y-95146530D01*
X124714000Y-88580108D01*
X130817500Y-88580108D01*
X130817500Y-88711891D01*
X130851608Y-88839187D01*
X130884554Y-88896250D01*
X130917500Y-88953314D01*
X131010686Y-89046500D01*
X131124814Y-89112392D01*
X131252108Y-89146500D01*
X131252110Y-89146500D01*
X131383890Y-89146500D01*
X131383892Y-89146500D01*
X131511186Y-89112392D01*
X131625314Y-89046500D01*
X131661995Y-89009819D01*
X131723318Y-88976334D01*
X131749676Y-88973500D01*
X133934324Y-88973500D01*
X134001363Y-88993185D01*
X134022005Y-89009819D01*
X134058686Y-89046500D01*
X134172814Y-89112392D01*
X134300108Y-89146500D01*
X134300110Y-89146500D01*
X134431890Y-89146500D01*
X134431892Y-89146500D01*
X134559186Y-89112392D01*
X134673314Y-89046500D01*
X134766500Y-88953314D01*
X134832392Y-88839186D01*
X134866500Y-88711892D01*
X134866500Y-88580108D01*
X159519500Y-88580108D01*
X159519500Y-88711891D01*
X159553608Y-88839187D01*
X159586554Y-88896250D01*
X159619500Y-88953314D01*
X159712686Y-89046500D01*
X159826814Y-89112392D01*
X159954108Y-89146500D01*
X159954110Y-89146500D01*
X160085890Y-89146500D01*
X160085892Y-89146500D01*
X160213186Y-89112392D01*
X160327314Y-89046500D01*
X160363995Y-89009819D01*
X160425318Y-88976334D01*
X160451676Y-88973500D01*
X161356983Y-88973500D01*
X161424022Y-88993185D01*
X161444664Y-89009819D01*
X165565164Y-93130319D01*
X165598649Y-93191642D01*
X165593665Y-93261334D01*
X165565164Y-93305681D01*
X160855664Y-98015181D01*
X160794341Y-98048666D01*
X160767983Y-98051500D01*
X160716108Y-98051500D01*
X160588812Y-98085608D01*
X160474686Y-98151500D01*
X160474683Y-98151502D01*
X160381502Y-98244683D01*
X160381500Y-98244686D01*
X160315608Y-98358812D01*
X160281500Y-98486108D01*
X160281500Y-98617891D01*
X160315608Y-98745187D01*
X160331405Y-98772547D01*
X160381500Y-98859314D01*
X160474686Y-98952500D01*
X160588814Y-99018392D01*
X160716108Y-99052500D01*
X160716110Y-99052500D01*
X160847890Y-99052500D01*
X160847892Y-99052500D01*
X160975186Y-99018392D01*
X161089314Y-98952500D01*
X161182500Y-98859314D01*
X161248392Y-98745186D01*
X161282500Y-98617892D01*
X161282500Y-98566017D01*
X161302185Y-98498978D01*
X161318819Y-98478336D01*
X163892908Y-95904247D01*
X167859500Y-95904247D01*
X167859500Y-97643752D01*
X167871131Y-97702229D01*
X167871132Y-97702230D01*
X167915447Y-97768552D01*
X167981769Y-97812867D01*
X167981770Y-97812868D01*
X168040247Y-97824499D01*
X168040250Y-97824500D01*
X168040252Y-97824500D01*
X169779750Y-97824500D01*
X169779751Y-97824499D01*
X169794568Y-97821552D01*
X169838229Y-97812868D01*
X169838229Y-97812867D01*
X169838231Y-97812867D01*
X169904552Y-97768552D01*
X169948867Y-97702231D01*
X169948867Y-97702229D01*
X169948868Y-97702229D01*
X169960499Y-97643752D01*
X169960500Y-97643750D01*
X169960500Y-95904249D01*
X169960499Y-95904247D01*
X169948868Y-95845770D01*
X169948867Y-95845769D01*
X169904552Y-95779447D01*
X169838230Y-95735132D01*
X169838229Y-95735131D01*
X169779752Y-95723500D01*
X169779748Y-95723500D01*
X168040252Y-95723500D01*
X168040247Y-95723500D01*
X167981770Y-95735131D01*
X167981769Y-95735132D01*
X167915447Y-95779447D01*
X167871132Y-95845769D01*
X167871131Y-95845770D01*
X167859500Y-95904247D01*
X163892908Y-95904247D01*
X166215336Y-93581819D01*
X166276659Y-93548334D01*
X166303017Y-93545500D01*
X170002324Y-93545500D01*
X170069363Y-93565185D01*
X170090005Y-93581819D01*
X170126686Y-93618500D01*
X170223248Y-93674250D01*
X170231592Y-93679068D01*
X170240814Y-93684392D01*
X170368108Y-93718500D01*
X170368110Y-93718500D01*
X170499890Y-93718500D01*
X170499892Y-93718500D01*
X170627186Y-93684392D01*
X170741314Y-93618500D01*
X170834500Y-93525314D01*
X170900392Y-93411186D01*
X170934500Y-93283892D01*
X170934500Y-93152108D01*
X170900392Y-93024814D01*
X170834500Y-92910686D01*
X170741314Y-92817500D01*
X170684250Y-92784554D01*
X170627187Y-92751608D01*
X170563539Y-92734554D01*
X170499892Y-92717500D01*
X170368108Y-92717500D01*
X170240812Y-92751608D01*
X170126686Y-92817500D01*
X170126683Y-92817502D01*
X170090005Y-92854181D01*
X170028682Y-92887666D01*
X170002324Y-92890500D01*
X166303017Y-92890500D01*
X166235978Y-92870815D01*
X166215336Y-92854181D01*
X161745091Y-88383936D01*
X161745090Y-88383935D01*
X161670410Y-88340819D01*
X161670411Y-88340819D01*
X161642645Y-88333379D01*
X161587116Y-88318500D01*
X161587114Y-88318500D01*
X160451676Y-88318500D01*
X160384637Y-88298815D01*
X160363995Y-88282181D01*
X160327316Y-88245502D01*
X160327314Y-88245500D01*
X160270250Y-88212554D01*
X160213187Y-88179608D01*
X160149539Y-88162554D01*
X160085892Y-88145500D01*
X159954108Y-88145500D01*
X159826812Y-88179608D01*
X159712686Y-88245500D01*
X159712683Y-88245502D01*
X159619502Y-88338683D01*
X159619500Y-88338686D01*
X159553608Y-88452812D01*
X159519500Y-88580108D01*
X134866500Y-88580108D01*
X134832392Y-88452814D01*
X134766500Y-88338686D01*
X134673314Y-88245500D01*
X134616250Y-88212554D01*
X134559187Y-88179608D01*
X134495539Y-88162554D01*
X134431892Y-88145500D01*
X134300108Y-88145500D01*
X134172812Y-88179608D01*
X134058686Y-88245500D01*
X134058683Y-88245502D01*
X134022005Y-88282181D01*
X133960682Y-88315666D01*
X133934324Y-88318500D01*
X131749676Y-88318500D01*
X131682637Y-88298815D01*
X131661995Y-88282181D01*
X131625316Y-88245502D01*
X131625314Y-88245500D01*
X131568250Y-88212554D01*
X131511187Y-88179608D01*
X131447539Y-88162554D01*
X131383892Y-88145500D01*
X131252108Y-88145500D01*
X131124812Y-88179608D01*
X131010686Y-88245500D01*
X131010683Y-88245502D01*
X130917502Y-88338683D01*
X130917500Y-88338686D01*
X130851608Y-88452812D01*
X130817500Y-88580108D01*
X124714000Y-88580108D01*
X124714000Y-85011153D01*
X137629500Y-85011153D01*
X137629500Y-85168846D01*
X137660261Y-85323489D01*
X137660264Y-85323501D01*
X137720602Y-85469172D01*
X137720609Y-85469185D01*
X137808210Y-85600288D01*
X137808213Y-85600292D01*
X137919707Y-85711786D01*
X137919711Y-85711789D01*
X138050814Y-85799390D01*
X138050827Y-85799397D01*
X138159717Y-85844500D01*
X138196503Y-85859737D01*
X138351153Y-85890499D01*
X138351156Y-85890500D01*
X138351158Y-85890500D01*
X138508844Y-85890500D01*
X138508845Y-85890499D01*
X138663497Y-85859737D01*
X138809179Y-85799394D01*
X138940289Y-85711789D01*
X139051789Y-85600289D01*
X139139394Y-85469179D01*
X139199737Y-85323497D01*
X139208765Y-85278110D01*
X139208765Y-85278108D01*
X154185500Y-85278108D01*
X154185500Y-85409891D01*
X154219608Y-85537187D01*
X154252554Y-85594250D01*
X154285500Y-85651314D01*
X154378686Y-85744500D01*
X154492814Y-85810392D01*
X154620108Y-85844500D01*
X154620110Y-85844500D01*
X154751890Y-85844500D01*
X154751892Y-85844500D01*
X154879186Y-85810392D01*
X154993314Y-85744500D01*
X155086500Y-85651314D01*
X155152392Y-85537186D01*
X155186500Y-85409892D01*
X155186500Y-85278108D01*
X155152392Y-85150814D01*
X155086500Y-85036686D01*
X154993314Y-84943500D01*
X154936250Y-84910554D01*
X154879187Y-84877608D01*
X154800420Y-84856503D01*
X154751892Y-84843500D01*
X154620108Y-84843500D01*
X154492812Y-84877608D01*
X154378686Y-84943500D01*
X154378683Y-84943502D01*
X154285502Y-85036683D01*
X154285500Y-85036686D01*
X154219608Y-85150812D01*
X154185500Y-85278108D01*
X139208765Y-85278108D01*
X139215195Y-85245789D01*
X139215195Y-85245788D01*
X139230499Y-85168846D01*
X139230500Y-85168844D01*
X139230500Y-85011155D01*
X139230499Y-85011153D01*
X139199738Y-84856510D01*
X139199737Y-84856503D01*
X139182749Y-84815489D01*
X139139397Y-84710827D01*
X139139390Y-84710814D01*
X139051792Y-84579716D01*
X139051789Y-84579711D01*
X139051784Y-84579706D01*
X139051781Y-84579702D01*
X138975232Y-84503153D01*
X159727500Y-84503153D01*
X159727500Y-84660846D01*
X159758261Y-84815489D01*
X159758264Y-84815501D01*
X159818602Y-84961172D01*
X159818609Y-84961185D01*
X159906210Y-85092288D01*
X159906213Y-85092292D01*
X160017707Y-85203786D01*
X160017711Y-85203789D01*
X160148814Y-85291390D01*
X160148827Y-85291397D01*
X160294498Y-85351735D01*
X160294503Y-85351737D01*
X160449153Y-85382499D01*
X160449156Y-85382500D01*
X160449158Y-85382500D01*
X160606844Y-85382500D01*
X160606845Y-85382499D01*
X160761497Y-85351737D01*
X160907179Y-85291394D01*
X161038289Y-85203789D01*
X161149789Y-85092289D01*
X161237394Y-84961179D01*
X161297737Y-84815497D01*
X161328500Y-84660842D01*
X161328500Y-84503158D01*
X161328500Y-84503155D01*
X161328499Y-84503153D01*
X161321549Y-84468213D01*
X161297737Y-84348503D01*
X161286039Y-84320261D01*
X161237397Y-84202827D01*
X161237390Y-84202814D01*
X161149789Y-84071711D01*
X161149786Y-84071707D01*
X161038292Y-83960213D01*
X161038288Y-83960210D01*
X160907185Y-83872609D01*
X160907172Y-83872602D01*
X160761501Y-83812264D01*
X160761489Y-83812261D01*
X160606845Y-83781500D01*
X160606842Y-83781500D01*
X160449158Y-83781500D01*
X160449155Y-83781500D01*
X160294510Y-83812261D01*
X160294498Y-83812264D01*
X160148827Y-83872602D01*
X160148814Y-83872609D01*
X160017711Y-83960210D01*
X160017707Y-83960213D01*
X159906213Y-84071707D01*
X159906210Y-84071711D01*
X159818609Y-84202814D01*
X159818602Y-84202827D01*
X159758264Y-84348498D01*
X159758261Y-84348510D01*
X159727500Y-84503153D01*
X138975232Y-84503153D01*
X138940292Y-84468213D01*
X138940288Y-84468210D01*
X138809185Y-84380609D01*
X138809172Y-84380602D01*
X138663501Y-84320264D01*
X138663489Y-84320261D01*
X138508845Y-84289500D01*
X138508842Y-84289500D01*
X138351158Y-84289500D01*
X138351155Y-84289500D01*
X138196510Y-84320261D01*
X138196498Y-84320264D01*
X138050827Y-84380602D01*
X138050814Y-84380609D01*
X137919711Y-84468210D01*
X137919707Y-84468213D01*
X137808213Y-84579707D01*
X137808210Y-84579711D01*
X137720609Y-84710814D01*
X137720602Y-84710827D01*
X137660264Y-84856498D01*
X137660261Y-84856510D01*
X137629500Y-85011153D01*
X124714000Y-85011153D01*
X124714000Y-81658000D01*
X124733685Y-81590961D01*
X124786489Y-81545206D01*
X124838000Y-81534000D01*
X172342000Y-81534000D01*
X172409039Y-81553685D01*
G37*
%TD.AperFunction*%
%TD*%
M02*
