%TF.GenerationSoftware,KiCad,Pcbnew,9.0.6*%
%TF.CreationDate,2026-04-28T02:04:34-07:00*%
%TF.ProjectId,steering_wheel,73746565-7269-46e6-975f-776865656c2e,rev?*%
%TF.SameCoordinates,Original*%
%TF.FileFunction,Copper,L1,Top*%
%TF.FilePolarity,Positive*%
%FSLAX46Y46*%
G04 Gerber Fmt 4.6, Leading zero omitted, Abs format (unit mm)*
G04 Created by KiCad (PCBNEW 9.0.6) date 2026-04-28 02:04:34*
%MOMM*%
%LPD*%
G01*
G04 APERTURE LIST*
G04 Aperture macros list*
%AMRoundRect*
0 Rectangle with rounded corners*
0 $1 Rounding radius*
0 $2 $3 $4 $5 $6 $7 $8 $9 X,Y pos of 4 corners*
0 Add a 4 corners polygon primitive as box body*
4,1,4,$2,$3,$4,$5,$6,$7,$8,$9,$2,$3,0*
0 Add four circle primitives for the rounded corners*
1,1,$1+$1,$2,$3*
1,1,$1+$1,$4,$5*
1,1,$1+$1,$6,$7*
1,1,$1+$1,$8,$9*
0 Add four rect primitives between the rounded corners*
20,1,$1+$1,$2,$3,$4,$5,0*
20,1,$1+$1,$4,$5,$6,$7,0*
20,1,$1+$1,$6,$7,$8,$9,0*
20,1,$1+$1,$8,$9,$2,$3,0*%
G04 Aperture macros list end*
%TA.AperFunction,SMDPad,CuDef*%
%ADD10R,2.489200X1.244600*%
%TD*%
%TA.AperFunction,SMDPad,CuDef*%
%ADD11R,8.204200X1.092200*%
%TD*%
%TA.AperFunction,SMDPad,CuDef*%
%ADD12RoundRect,0.225000X0.225000X0.250000X-0.225000X0.250000X-0.225000X-0.250000X0.225000X-0.250000X0*%
%TD*%
%TA.AperFunction,SMDPad,CuDef*%
%ADD13RoundRect,0.250000X-0.337500X-0.475000X0.337500X-0.475000X0.337500X0.475000X-0.337500X0.475000X0*%
%TD*%
%TA.AperFunction,ComponentPad*%
%ADD14R,2.100000X2.100000*%
%TD*%
%TA.AperFunction,ComponentPad*%
%ADD15C,2.100000*%
%TD*%
%TA.AperFunction,SMDPad,CuDef*%
%ADD16RoundRect,0.225000X-0.225000X-0.250000X0.225000X-0.250000X0.225000X0.250000X-0.225000X0.250000X0*%
%TD*%
%TA.AperFunction,SMDPad,CuDef*%
%ADD17RoundRect,0.200000X0.275000X-0.200000X0.275000X0.200000X-0.275000X0.200000X-0.275000X-0.200000X0*%
%TD*%
%TA.AperFunction,SMDPad,CuDef*%
%ADD18RoundRect,0.237500X-0.237500X0.300000X-0.237500X-0.300000X0.237500X-0.300000X0.237500X0.300000X0*%
%TD*%
%TA.AperFunction,SMDPad,CuDef*%
%ADD19RoundRect,0.200000X-0.200000X-0.275000X0.200000X-0.275000X0.200000X0.275000X-0.200000X0.275000X0*%
%TD*%
%TA.AperFunction,SMDPad,CuDef*%
%ADD20RoundRect,0.250000X-0.312500X-1.075000X0.312500X-1.075000X0.312500X1.075000X-0.312500X1.075000X0*%
%TD*%
%TA.AperFunction,SMDPad,CuDef*%
%ADD21R,0.254000X1.295400*%
%TD*%
%TA.AperFunction,SMDPad,CuDef*%
%ADD22R,1.727200X2.794000*%
%TD*%
%TA.AperFunction,SMDPad,CuDef*%
%ADD23RoundRect,0.225000X-0.250000X0.225000X-0.250000X-0.225000X0.250000X-0.225000X0.250000X0.225000X0*%
%TD*%
%TA.AperFunction,SMDPad,CuDef*%
%ADD24RoundRect,0.250000X0.337500X0.475000X-0.337500X0.475000X-0.337500X-0.475000X0.337500X-0.475000X0*%
%TD*%
%TA.AperFunction,SMDPad,CuDef*%
%ADD25RoundRect,0.200000X0.200000X0.275000X-0.200000X0.275000X-0.200000X-0.275000X0.200000X-0.275000X0*%
%TD*%
%TA.AperFunction,SMDPad,CuDef*%
%ADD26RoundRect,0.225000X0.250000X-0.225000X0.250000X0.225000X-0.250000X0.225000X-0.250000X-0.225000X0*%
%TD*%
%TA.AperFunction,SMDPad,CuDef*%
%ADD27RoundRect,0.237500X0.237500X-0.287500X0.237500X0.287500X-0.237500X0.287500X-0.237500X-0.287500X0*%
%TD*%
%TA.AperFunction,SMDPad,CuDef*%
%ADD28RoundRect,0.150000X0.150000X-0.512500X0.150000X0.512500X-0.150000X0.512500X-0.150000X-0.512500X0*%
%TD*%
%TA.AperFunction,SMDPad,CuDef*%
%ADD29RoundRect,0.062500X-0.062500X0.350000X-0.062500X-0.350000X0.062500X-0.350000X0.062500X0.350000X0*%
%TD*%
%TA.AperFunction,SMDPad,CuDef*%
%ADD30RoundRect,0.062500X-0.350000X0.062500X-0.350000X-0.062500X0.350000X-0.062500X0.350000X0.062500X0*%
%TD*%
%TA.AperFunction,HeatsinkPad*%
%ADD31R,7.150000X7.150000*%
%TD*%
%TA.AperFunction,SMDPad,CuDef*%
%ADD32RoundRect,0.237500X0.237500X-0.300000X0.237500X0.300000X-0.237500X0.300000X-0.237500X-0.300000X0*%
%TD*%
%TA.AperFunction,SMDPad,CuDef*%
%ADD33RoundRect,0.200000X-0.275000X0.200000X-0.275000X-0.200000X0.275000X-0.200000X0.275000X0.200000X0*%
%TD*%
%TA.AperFunction,ComponentPad*%
%ADD34C,3.000000*%
%TD*%
%TA.AperFunction,SMDPad,CuDef*%
%ADD35RoundRect,0.150000X0.512500X0.150000X-0.512500X0.150000X-0.512500X-0.150000X0.512500X-0.150000X0*%
%TD*%
%TA.AperFunction,SMDPad,CuDef*%
%ADD36RoundRect,0.200000X0.250000X0.200000X-0.250000X0.200000X-0.250000X-0.200000X0.250000X-0.200000X0*%
%TD*%
%TA.AperFunction,SMDPad,CuDef*%
%ADD37RoundRect,0.250000X0.750000X0.650000X-0.750000X0.650000X-0.750000X-0.650000X0.750000X-0.650000X0*%
%TD*%
%TA.AperFunction,SMDPad,CuDef*%
%ADD38RoundRect,0.322500X2.827500X-0.752500X2.827500X0.752500X-2.827500X0.752500X-2.827500X-0.752500X0*%
%TD*%
%TA.AperFunction,SMDPad,CuDef*%
%ADD39RoundRect,0.150000X-0.150000X0.825000X-0.150000X-0.825000X0.150000X-0.825000X0.150000X0.825000X0*%
%TD*%
%TA.AperFunction,SMDPad,CuDef*%
%ADD40RoundRect,0.125000X0.125000X-0.625000X0.125000X0.625000X-0.125000X0.625000X-0.125000X-0.625000X0*%
%TD*%
%TA.AperFunction,SMDPad,CuDef*%
%ADD41RoundRect,0.125000X0.625000X-0.125000X0.625000X0.125000X-0.625000X0.125000X-0.625000X-0.125000X0*%
%TD*%
%TA.AperFunction,ComponentPad*%
%ADD42C,1.400000*%
%TD*%
%TA.AperFunction,ComponentPad*%
%ADD43C,2.400000*%
%TD*%
%TA.AperFunction,ViaPad*%
%ADD44C,0.600000*%
%TD*%
%TA.AperFunction,Conductor*%
%ADD45C,0.200000*%
%TD*%
G04 APERTURE END LIST*
D10*
%TO.P,J5,1,Pin_1*%
%TO.N,+3V3*%
X11333102Y-35387600D03*
%TO.P,J5,2,Pin_2*%
%TO.N,/Lap*%
X11333102Y-32887600D03*
D11*
%TO.P,J5,MP,MountPin*%
%TO.N,unconnected-(J5-MountPin-PadMP)*%
X6943104Y-30617599D03*
%TO.N,unconnected-(J5-MountPin-PadMP)_1*%
X6943104Y-37657601D03*
%TD*%
D12*
%TO.P,C24,1*%
%TO.N,/Display Interface/LED_High*%
X86080000Y-24779000D03*
%TO.P,C24,2*%
%TO.N,GND*%
X84530000Y-24779000D03*
%TD*%
D13*
%TO.P,C1,1*%
%TO.N,GND*%
X57919700Y-27607400D03*
%TO.P,C1,2*%
%TO.N,+12V*%
X59994700Y-27607400D03*
%TD*%
D12*
%TO.P,C13,1*%
%TO.N,+3V3*%
X70355000Y-14279000D03*
%TO.P,C13,2*%
%TO.N,GND*%
X68805000Y-14279000D03*
%TD*%
D14*
%TO.P,S1,1*%
%TO.N,+3V3*%
X88747600Y-128981200D03*
D15*
%TO.P,S1,2*%
%TO.N,/Switches/Analog_2V2*%
X83816600Y-126134200D03*
%TO.P,S1,3*%
%TO.N,/Switches/Analog_1V1*%
X80969600Y-121203200D03*
%TO.P,S1,4*%
%TO.N,GND*%
X80969600Y-115509200D03*
%TO.P,S1,5*%
%TO.N,/Switches/TC_Unfiltered*%
X88766600Y-121184200D03*
%TO.P,S1,MP*%
%TO.N,unconnected-(S1-PadMP)*%
X102219600Y-115509200D03*
%TD*%
D16*
%TO.P,C15,1*%
%TO.N,+1V2*%
X82805000Y-11779000D03*
%TO.P,C15,2*%
%TO.N,GND*%
X84355000Y-11779000D03*
%TD*%
D17*
%TO.P,R6,1*%
%TO.N,/Switches/Analog_1V1*%
X9782600Y-96292716D03*
%TO.P,R6,2*%
%TO.N,GND*%
X9782600Y-94642716D03*
%TD*%
D12*
%TO.P,C14,1*%
%TO.N,+3V3*%
X70355000Y-8279000D03*
%TO.P,C14,2*%
%TO.N,GND*%
X68805000Y-8279000D03*
%TD*%
D18*
%TO.P,C22,1*%
%TO.N,+3V3_A*%
X48508400Y-3405800D03*
%TO.P,C22,2*%
%TO.N,GND*%
X48508400Y-5130800D03*
%TD*%
D16*
%TO.P,C2,1*%
%TO.N,Net-(U1-SW)*%
X57016200Y-33449400D03*
%TO.P,C2,2*%
%TO.N,Net-(U1-BST)*%
X58566200Y-33449400D03*
%TD*%
D19*
%TO.P,R4,1*%
%TO.N,/Lap*%
X15080000Y-35779000D03*
%TO.P,R4,2*%
%TO.N,GND*%
X16730000Y-35779000D03*
%TD*%
D16*
%TO.P,C10,1*%
%TO.N,GND*%
X68805000Y-12779000D03*
%TO.P,C10,2*%
%TO.N,+1V2*%
X70355000Y-12779000D03*
%TD*%
D20*
%TO.P,R11,1*%
%TO.N,/Display Interface/LED_Low*%
X88617500Y-30779000D03*
%TO.P,R11,2*%
%TO.N,GND*%
X91542500Y-30779000D03*
%TD*%
D10*
%TO.P,J6,1,Pin_1*%
%TO.N,+3V3*%
X95265601Y-34818000D03*
%TO.P,J6,2,Pin_2*%
%TO.N,/Launch_Control*%
X95265601Y-37318000D03*
D11*
%TO.P,J6,MP,MountPin*%
%TO.N,unconnected-(J6-MountPin-PadMP)*%
X99655599Y-39588001D03*
%TO.N,unconnected-(J6-MountPin-PadMP)_1*%
X99655599Y-32547999D03*
%TD*%
D18*
%TO.P,C23,1*%
%TO.N,+3V3_A*%
X45508400Y-3405800D03*
%TO.P,C23,2*%
%TO.N,GND*%
X45508400Y-5130800D03*
%TD*%
D14*
%TO.P,S2,1*%
%TO.N,+3V3*%
X50393600Y-137007600D03*
D15*
%TO.P,S2,2*%
%TO.N,/Switches/Analog_2V2*%
X45462600Y-134160600D03*
%TO.P,S2,3*%
%TO.N,/Switches/Analog_1V1*%
X42615600Y-129229600D03*
%TO.P,S2,4*%
%TO.N,GND*%
X42615600Y-123535600D03*
%TO.P,S2,5*%
%TO.N,/Switches/Mode_Unfiltered*%
X50412600Y-129210600D03*
%TO.P,S2,MP*%
%TO.N,unconnected-(S2-PadMP)*%
X63865600Y-123535600D03*
%TD*%
D21*
%TO.P,J4,1,Pin_1*%
%TO.N,/Display Interface/LED_Low*%
X88080000Y-22556800D03*
%TO.P,J4,2,Pin_2*%
%TO.N,/Display Interface/LED_High*%
X87579998Y-22556800D03*
%TO.P,J4,3,Pin_3*%
%TO.N,GND*%
X87079999Y-22556800D03*
%TO.P,J4,4,Pin_4*%
%TO.N,+3V3*%
X86580000Y-22556800D03*
%TO.P,J4,5,Pin_5*%
%TO.N,/Display Interface/RGB_R0*%
X86079999Y-22556800D03*
%TO.P,J4,6,Pin_6*%
%TO.N,/Display Interface/RGB_R1*%
X85580000Y-22556800D03*
%TO.P,J4,7,Pin_7*%
%TO.N,/Display Interface/RGB_R2*%
X85079998Y-22556800D03*
%TO.P,J4,8,Pin_8*%
%TO.N,/Display Interface/RGB_R3*%
X84579999Y-22556800D03*
%TO.P,J4,9,Pin_9*%
%TO.N,/Display Interface/RGB_R4*%
X84080000Y-22556800D03*
%TO.P,J4,10,Pin_10*%
%TO.N,/Display Interface/RGB_R5*%
X83579999Y-22556800D03*
%TO.P,J4,11,Pin_11*%
%TO.N,/Display Interface/RGB_R6*%
X83080000Y-22556800D03*
%TO.P,J4,12,Pin_12*%
%TO.N,/Display Interface/RGB_R7*%
X82579998Y-22556800D03*
%TO.P,J4,13,Pin_13*%
%TO.N,/Display Interface/RGB_G0*%
X82079999Y-22556800D03*
%TO.P,J4,14,Pin_14*%
%TO.N,/Display Interface/RGB_G1*%
X81580000Y-22556800D03*
%TO.P,J4,15,Pin_15*%
%TO.N,/Display Interface/RGB_G2*%
X81079999Y-22556800D03*
%TO.P,J4,16,Pin_16*%
%TO.N,/Display Interface/RGB_G3*%
X80580000Y-22556800D03*
%TO.P,J4,17,Pin_17*%
%TO.N,/Display Interface/RGB_G4*%
X80079998Y-22556800D03*
%TO.P,J4,18,Pin_18*%
%TO.N,/Display Interface/RGB_G5*%
X79579999Y-22556800D03*
%TO.P,J4,19,Pin_19*%
%TO.N,/Display Interface/RGB_G6*%
X79080000Y-22556800D03*
%TO.P,J4,20,Pin_20*%
%TO.N,/Display Interface/RGB_G7*%
X78579999Y-22556800D03*
%TO.P,J4,21,Pin_21*%
%TO.N,/Display Interface/RGB_B0*%
X78079999Y-22556800D03*
%TO.P,J4,22,Pin_22*%
%TO.N,/Display Interface/RGB_B1*%
X77579998Y-22556800D03*
%TO.P,J4,23,Pin_23*%
%TO.N,/Display Interface/RGB_B2*%
X77079999Y-22556800D03*
%TO.P,J4,24,Pin_24*%
%TO.N,/Display Interface/RGB_B3*%
X76580000Y-22556800D03*
%TO.P,J4,25,Pin_25*%
%TO.N,/Display Interface/RGB_B4*%
X76079998Y-22556800D03*
%TO.P,J4,26,Pin_26*%
%TO.N,/Display Interface/RGB_B5*%
X75579999Y-22556800D03*
%TO.P,J4,27,Pin_27*%
%TO.N,/Display Interface/RGB_B6*%
X75079998Y-22556800D03*
%TO.P,J4,28,Pin_28*%
%TO.N,/Display Interface/RGB_B7*%
X74579999Y-22556800D03*
%TO.P,J4,29,Pin_29*%
%TO.N,GND*%
X74080000Y-22556800D03*
%TO.P,J4,30,Pin_30*%
%TO.N,/Display Interface/LCD_Dot_Clock*%
X73579998Y-22556800D03*
%TO.P,J4,31,Pin_31*%
%TO.N,/Display Interface/LCD_Display_Enable*%
X73079999Y-22556800D03*
%TO.P,J4,32,Pin_32*%
%TO.N,/Display Interface/LCD_HSync*%
X72580000Y-22556800D03*
%TO.P,J4,33,Pin_33*%
%TO.N,/Display Interface/LCD_VSync*%
X72079999Y-22556800D03*
%TO.P,J4,34,Pin_34*%
%TO.N,/Display Interface/LCD_Data_Enable*%
X71580000Y-22556800D03*
%TO.P,J4,35,Pin_35*%
%TO.N,unconnected-(J4-Pin_35-Pad35)*%
X71079998Y-22556800D03*
%TO.P,J4,36,Pin_36*%
%TO.N,GND*%
X70579999Y-22556800D03*
%TO.P,J4,37,Pin_37*%
%TO.N,unconnected-(J4-Pin_37-Pad37)*%
X70080000Y-22556800D03*
%TO.P,J4,38,Pin_38*%
%TO.N,unconnected-(J4-Pin_38-Pad38)*%
X69579999Y-22556800D03*
%TO.P,J4,39,Pin_39*%
%TO.N,unconnected-(J4-Pin_39-Pad39)*%
X69080000Y-22556800D03*
%TO.P,J4,40,Pin_40*%
%TO.N,unconnected-(J4-Pin_40-Pad40)*%
X68579998Y-22556800D03*
D22*
%TO.P,J4,MP,MountPin*%
%TO.N,unconnected-(J4-MountPin-PadMP)_1*%
X90019998Y-19476801D03*
%TO.N,unconnected-(J4-MountPin-PadMP)*%
X66640000Y-19476801D03*
%TD*%
D12*
%TO.P,C11,1*%
%TO.N,+3V3*%
X70355000Y-11279000D03*
%TO.P,C11,2*%
%TO.N,GND*%
X68805000Y-11279000D03*
%TD*%
D23*
%TO.P,C6,1*%
%TO.N,+5V*%
X55880000Y-17462200D03*
%TO.P,C6,2*%
%TO.N,GND*%
X55880000Y-19012200D03*
%TD*%
D24*
%TO.P,C3,1*%
%TO.N,GND*%
X54660700Y-27353400D03*
%TO.P,C3,2*%
%TO.N,+5V*%
X52585700Y-27353400D03*
%TD*%
D14*
%TO.P,S3,1*%
%TO.N,+3V3*%
X12039600Y-128981200D03*
D15*
%TO.P,S3,2*%
%TO.N,/Switches/Analog_2V2*%
X7108600Y-126134200D03*
%TO.P,S3,3*%
%TO.N,/Switches/Analog_1V1*%
X4261600Y-121203200D03*
%TO.P,S3,4*%
%TO.N,GND*%
X4261600Y-115509200D03*
%TO.P,S3,5*%
%TO.N,/Switches/Regen_Unfiltered*%
X12058600Y-121184200D03*
%TO.P,S3,MP*%
%TO.N,unconnected-(S3-PadMP)*%
X25511600Y-115509200D03*
%TD*%
D18*
%TO.P,C19,1*%
%TO.N,GND*%
X60498400Y-3405800D03*
%TO.P,C19,2*%
%TO.N,+3V3*%
X60498400Y-5130800D03*
%TD*%
D25*
%TO.P,R9,1*%
%TO.N,/Switches/TC_Unfiltered*%
X34117200Y-38100000D03*
%TO.P,R9,2*%
%TO.N,/MCU/TC_Analog*%
X32467200Y-38100000D03*
%TD*%
D10*
%TO.P,J3,1,Pin_1*%
%TO.N,+3V3*%
X11160399Y-23602000D03*
%TO.P,J3,2,Pin_2*%
%TO.N,/Layout_Cycle_Unfiltered*%
X11160399Y-21102000D03*
D11*
%TO.P,J3,MP,MountPin*%
%TO.N,unconnected-(J3-MountPin-PadMP)*%
X6770401Y-18831999D03*
%TO.N,unconnected-(J3-MountPin-PadMP)_1*%
X6770401Y-25872001D03*
%TD*%
D26*
%TO.P,C4,1*%
%TO.N,+5V*%
X47571200Y-29740400D03*
%TO.P,C4,2*%
%TO.N,GND*%
X47571200Y-28190400D03*
%TD*%
D25*
%TO.P,R7,1*%
%TO.N,/Launch_Control*%
X92011000Y-39624000D03*
%TO.P,R7,2*%
%TO.N,GND*%
X90361000Y-39624000D03*
%TD*%
D27*
%TO.P,FB1,1*%
%TO.N,+3V3*%
X51508400Y-5143300D03*
%TO.P,FB1,2*%
%TO.N,+3V3_A*%
X51508400Y-3393300D03*
%TD*%
D28*
%TO.P,U7,1,SW*%
%TO.N,/Display Interface/Backlight_Switch*%
X84680000Y-29916500D03*
%TO.P,U7,2,GND*%
%TO.N,GND*%
X85630000Y-29916500D03*
%TO.P,U7,3,FB*%
%TO.N,/Display Interface/LED_Low*%
X86580000Y-29916500D03*
%TO.P,U7,4,CTRL*%
%TO.N,/Display Interface/Backlight_PWM*%
X86580000Y-27641500D03*
%TO.P,U7,5,V_{OUT}*%
%TO.N,/Display Interface/LED_High*%
X85630000Y-27641500D03*
%TO.P,U7,6,V_{IN}*%
%TO.N,+12V*%
X84680000Y-27641500D03*
%TD*%
D18*
%TO.P,C20,1*%
%TO.N,GND*%
X57508400Y-3405800D03*
%TO.P,C20,2*%
%TO.N,+3V3*%
X57508400Y-5130800D03*
%TD*%
D29*
%TO.P,U4,1,R0*%
%TO.N,/Display Interface/RGB_R0*%
X80080000Y-7404000D03*
%TO.P,U4,2,VCC1V2*%
%TO.N,+1V2*%
X79580000Y-7404000D03*
%TO.P,U4,3,SCK*%
%TO.N,/Display Interface/SPI.CLK*%
X79080000Y-7404000D03*
%TO.P,U4,4,MISO*%
%TO.N,/Display Interface/SPI.MISO*%
X78580000Y-7404000D03*
%TO.P,U4,5,MOSI*%
%TO.N,/Display Interface/SPI.MOSI*%
X78080000Y-7404000D03*
%TO.P,U4,6,CS_N*%
%TO.N,/Display Interface/SPI.CS*%
X77580000Y-7404000D03*
%TO.P,U4,7,GPIO0/IO2*%
%TO.N,unconnected-(U4-GPIO0{slash}IO2-Pad7)*%
X77080000Y-7404000D03*
%TO.P,U4,8,GPIO1/IO3*%
%TO.N,unconnected-(U4-GPIO1{slash}IO3-Pad8)*%
X76580000Y-7404000D03*
%TO.P,U4,9,VCCIO1*%
%TO.N,+3V3*%
X76080000Y-7404000D03*
%TO.P,U4,10,GPIO2*%
%TO.N,unconnected-(U4-GPIO2-Pad10)*%
X75580000Y-7404000D03*
%TO.P,U4,11,INT_N*%
%TO.N,/MCU/Driver_Interrupt*%
X75080000Y-7404000D03*
%TO.P,U4,12,PD_N*%
%TO.N,/Display Interface/Driver_Power*%
X74580000Y-7404000D03*
%TO.P,U4,13,GPIO3*%
%TO.N,unconnected-(U4-GPIO3-Pad13)*%
X74080000Y-7404000D03*
%TO.P,U4,14,SPIM_SCLK*%
%TO.N,unconnected-(U4-SPIM_SCLK-Pad14)*%
X73580000Y-7404000D03*
%TO.P,U4,15,SPIM_SS_N*%
%TO.N,unconnected-(U4-SPIM_SS_N-Pad15)*%
X73080000Y-7404000D03*
%TO.P,U4,16,SPIM_MOSI*%
%TO.N,unconnected-(U4-SPIM_MOSI-Pad16)*%
X72580000Y-7404000D03*
D30*
%TO.P,U4,17,VCCIO3*%
%TO.N,+3V3*%
X71892500Y-8091500D03*
%TO.P,U4,18,SPIM_MISO*%
%TO.N,unconnected-(U4-SPIM_MISO-Pad18)*%
X71892500Y-8591500D03*
%TO.P,U4,19,SPIM_IO2*%
%TO.N,unconnected-(U4-SPIM_IO2-Pad19)*%
X71892500Y-9091500D03*
%TO.P,U4,20,SPIM_IO3*%
%TO.N,unconnected-(U4-SPIM_IO3-Pad20)*%
X71892500Y-9591500D03*
%TO.P,U4,21,X1/CLK*%
%TO.N,unconnected-(U4-X1{slash}CLK-Pad21)*%
X71892500Y-10091500D03*
%TO.P,U4,22,X2*%
%TO.N,unconnected-(U4-X2-Pad22)*%
X71892500Y-10591500D03*
%TO.P,U4,23,GND*%
%TO.N,GND*%
X71892500Y-11091500D03*
%TO.P,U4,24,VCC*%
%TO.N,+3V3*%
X71892500Y-11591500D03*
%TO.P,U4,25,VOUT1V2*%
%TO.N,+1V2*%
X71892500Y-12091500D03*
%TO.P,U4,26,AUDIO_L*%
%TO.N,unconnected-(U4-AUDIO_L-Pad26)*%
X71892500Y-12591500D03*
%TO.P,U4,27,VCCA*%
%TO.N,unconnected-(U4-VCCA-Pad27)*%
X71892500Y-13091500D03*
%TO.P,U4,28,VCCIO2*%
%TO.N,+3V3*%
X71892500Y-13591500D03*
%TO.P,U4,29,CTP_RST_N*%
%TO.N,unconnected-(U4-CTP_RST_N-Pad29)*%
X71892500Y-14091500D03*
%TO.P,U4,30,CTP_INT_N*%
%TO.N,unconnected-(U4-CTP_INT_N-Pad30)*%
X71892500Y-14591500D03*
%TO.P,U4,31,CTP_SCL*%
%TO.N,unconnected-(U4-CTP_SCL-Pad31)*%
X71892500Y-15091500D03*
%TO.P,U4,32,CTP_SDA*%
%TO.N,unconnected-(U4-CTP_SDA-Pad32)*%
X71892500Y-15591500D03*
D29*
%TO.P,U4,33,GND*%
%TO.N,GND*%
X72580000Y-16279000D03*
%TO.P,U4,34,BACKLIGHT*%
%TO.N,/Display Interface/Backlight_PWM*%
X73080000Y-16279000D03*
%TO.P,U4,35,DE*%
%TO.N,/Display Interface/LCD_Data_Enable*%
X73580000Y-16279000D03*
%TO.P,U4,36,VSYNC*%
%TO.N,/Display Interface/LCD_VSync*%
X74080000Y-16279000D03*
%TO.P,U4,37,HSYNC*%
%TO.N,/Display Interface/LCD_HSync*%
X74580000Y-16279000D03*
%TO.P,U4,38,DISP*%
%TO.N,/Display Interface/LCD_Display_Enable*%
X75080000Y-16279000D03*
%TO.P,U4,39,PCLK*%
%TO.N,/Display Interface/LCD_Dot_Clock*%
X75580000Y-16279000D03*
%TO.P,U4,40,B7*%
%TO.N,/Display Interface/RGB_B7*%
X76080000Y-16279000D03*
%TO.P,U4,41,B6*%
%TO.N,/Display Interface/RGB_B6*%
X76580000Y-16279000D03*
%TO.P,U4,42,B5*%
%TO.N,/Display Interface/RGB_B5*%
X77080000Y-16279000D03*
%TO.P,U4,43,B4*%
%TO.N,/Display Interface/RGB_B4*%
X77580000Y-16279000D03*
%TO.P,U4,44,B3*%
%TO.N,/Display Interface/RGB_B3*%
X78080000Y-16279000D03*
%TO.P,U4,45,B2*%
%TO.N,/Display Interface/RGB_B2*%
X78580000Y-16279000D03*
%TO.P,U4,46,B1*%
%TO.N,/Display Interface/RGB_B1*%
X79080000Y-16279000D03*
%TO.P,U4,47,B0*%
%TO.N,/Display Interface/RGB_B0*%
X79580000Y-16279000D03*
%TO.P,U4,48,GND*%
%TO.N,GND*%
X80080000Y-16279000D03*
D30*
%TO.P,U4,49,G7*%
%TO.N,/Display Interface/RGB_G7*%
X80767500Y-15591500D03*
%TO.P,U4,50,G6*%
%TO.N,/Display Interface/RGB_G6*%
X80767500Y-15091500D03*
%TO.P,U4,51,G5*%
%TO.N,/Display Interface/RGB_G5*%
X80767500Y-14591500D03*
%TO.P,U4,52,G4*%
%TO.N,/Display Interface/RGB_G4*%
X80767500Y-14091500D03*
%TO.P,U4,53,G3*%
%TO.N,/Display Interface/RGB_G3*%
X80767500Y-13591500D03*
%TO.P,U4,54,G2*%
%TO.N,/Display Interface/RGB_G2*%
X80767500Y-13091500D03*
%TO.P,U4,55,G1*%
%TO.N,/Display Interface/RGB_G1*%
X80767500Y-12591500D03*
%TO.P,U4,56,G0*%
%TO.N,/Display Interface/RGB_G0*%
X80767500Y-12091500D03*
%TO.P,U4,57,VCC1V2*%
%TO.N,+1V2*%
X80767500Y-11591500D03*
%TO.P,U4,58,R7*%
%TO.N,/Display Interface/RGB_R7*%
X80767500Y-11091500D03*
%TO.P,U4,59,R6*%
%TO.N,/Display Interface/RGB_R6*%
X80767500Y-10591500D03*
%TO.P,U4,60,R5*%
%TO.N,/Display Interface/RGB_R5*%
X80767500Y-10091500D03*
%TO.P,U4,61,R4*%
%TO.N,/Display Interface/RGB_R4*%
X80767500Y-9591500D03*
%TO.P,U4,62,R3*%
%TO.N,/Display Interface/RGB_R3*%
X80767500Y-9091500D03*
%TO.P,U4,63,R2*%
%TO.N,/Display Interface/RGB_R2*%
X80767500Y-8591500D03*
%TO.P,U4,64,R1*%
%TO.N,/Display Interface/RGB_R1*%
X80767500Y-8091500D03*
D31*
%TO.P,U4,65,GND*%
%TO.N,GND*%
X76330000Y-11841500D03*
%TD*%
D17*
%TO.P,R5,1*%
%TO.N,+3V3*%
X9782600Y-102292716D03*
%TO.P,R5,2*%
%TO.N,/Switches/Analog_2V2*%
X9782600Y-100642716D03*
%TD*%
D25*
%TO.P,R12,1*%
%TO.N,/Switches/Regen_Unfiltered*%
X27000000Y-38100000D03*
%TO.P,R12,2*%
%TO.N,/MCU/Regen_Analog*%
X25350000Y-38100000D03*
%TD*%
D32*
%TO.P,C16,1*%
%TO.N,/MCU/OSC_IN*%
X34580000Y-16641500D03*
%TO.P,C16,2*%
%TO.N,GND*%
X34580000Y-14916500D03*
%TD*%
D16*
%TO.P,C29,1*%
%TO.N,/MCU/Regen_Analog*%
X25400000Y-34798000D03*
%TO.P,C29,2*%
%TO.N,GND*%
X26950000Y-34798000D03*
%TD*%
%TO.P,C27,1*%
%TO.N,/MCU/TC_Analog*%
X32702200Y-34798000D03*
%TO.P,C27,2*%
%TO.N,GND*%
X34252200Y-34798000D03*
%TD*%
D33*
%TO.P,R17,1*%
%TO.N,/Layout_Cycle_Unfiltered*%
X18580000Y-22954000D03*
%TO.P,R17,2*%
%TO.N,/MCU/Layout_Cycle*%
X18580000Y-24604000D03*
%TD*%
D16*
%TO.P,C8,1*%
%TO.N,+1V2*%
X80805000Y-1819000D03*
%TO.P,C8,2*%
%TO.N,GND*%
X82355000Y-1819000D03*
%TD*%
D34*
%TO.P,J10,1,Pin_1*%
%TO.N,/Display Interface/Backlight_PWM*%
X73580000Y-36779000D03*
%TD*%
D35*
%TO.P,U1,1,FB*%
%TO.N,+5V*%
X59840700Y-31605400D03*
%TO.P,U1,2,EN*%
%TO.N,+12V*%
X59840700Y-30655400D03*
%TO.P,U1,3,IN*%
X59840700Y-29705400D03*
%TO.P,U1,4,GND*%
%TO.N,GND*%
X57565700Y-29705400D03*
%TO.P,U1,5,SW*%
%TO.N,Net-(U1-SW)*%
X57565700Y-30655400D03*
%TO.P,U1,6,BST*%
%TO.N,Net-(U1-BST)*%
X57565700Y-31605400D03*
%TD*%
D18*
%TO.P,C17,1*%
%TO.N,/MCU/OSC_OUT*%
X39580000Y-15916500D03*
%TO.P,C17,2*%
%TO.N,GND*%
X39580000Y-17641500D03*
%TD*%
D26*
%TO.P,C26,1*%
%TO.N,/MCU/Layout_Cycle*%
X21580000Y-24554000D03*
%TO.P,C26,2*%
%TO.N,GND*%
X21580000Y-23004000D03*
%TD*%
D36*
%TO.P,Y1,1,1*%
%TO.N,/MCU/OSC_OUT*%
X37980000Y-15229000D03*
%TO.P,Y1,2,2*%
%TO.N,GND*%
X36580000Y-15229000D03*
%TO.P,Y1,3,3*%
%TO.N,/MCU/OSC_IN*%
X36580000Y-16329000D03*
%TO.P,Y1,4,4*%
%TO.N,GND*%
X37980000Y-16329000D03*
%TD*%
D16*
%TO.P,C9,1*%
%TO.N,+1V2*%
X80805000Y-4779000D03*
%TO.P,C9,2*%
%TO.N,GND*%
X82355000Y-4779000D03*
%TD*%
D25*
%TO.P,R1,1*%
%TO.N,/MCU/BOOT0*%
X32405000Y-12779000D03*
%TO.P,R1,2*%
%TO.N,GND*%
X30755000Y-12779000D03*
%TD*%
D37*
%TO.P,L1,1,1*%
%TO.N,Net-(U1-SW)*%
X54857200Y-31417400D03*
%TO.P,L1,2,2*%
%TO.N,+5V*%
X50357200Y-31417400D03*
%TD*%
D34*
%TO.P,J11,1,Pin_1*%
%TO.N,/Display Interface/LED_Low*%
X87080000Y-36279000D03*
%TD*%
D17*
%TO.P,R3,1*%
%TO.N,/Switches/Analog_2V2*%
X9782600Y-99292716D03*
%TO.P,R3,2*%
%TO.N,/Switches/Analog_1V1*%
X9782600Y-97642716D03*
%TD*%
D25*
%TO.P,R10,1*%
%TO.N,/Switches/Mode_Unfiltered*%
X30556000Y-38100000D03*
%TO.P,R10,2*%
%TO.N,/MCU/Mode_Analog*%
X28906000Y-38100000D03*
%TD*%
D38*
%TO.P,L2,1,1*%
%TO.N,/Display Interface/Backlight_Switch*%
X79080000Y-32279000D03*
%TO.P,L2,2,2*%
%TO.N,+12V*%
X79080000Y-28129000D03*
%TD*%
D34*
%TO.P,J12,1,Pin_1*%
%TO.N,/Display Interface/LED_High*%
X80416400Y-38303200D03*
%TD*%
D39*
%TO.P,U3,1,VCC1*%
%TO.N,+3V3*%
X54559200Y-11698200D03*
%TO.P,U3,2,TXD*%
%TO.N,/MCU/CAN_TX*%
X53289200Y-11698200D03*
%TO.P,U3,3,RXD*%
%TO.N,/MCU/CAN_RX*%
X52019200Y-11698200D03*
%TO.P,U3,4,GND1*%
%TO.N,GND*%
X50749200Y-11698200D03*
%TO.P,U3,5,CANL*%
%TO.N,/CAN_L*%
X50749200Y-16648200D03*
%TO.P,U3,6,CANH*%
%TO.N,/CAN_H*%
X52019200Y-16648200D03*
%TO.P,U3,7,GND2*%
%TO.N,GND*%
X53289200Y-16648200D03*
%TO.P,U3,8,VCC2*%
%TO.N,+5V*%
X54559200Y-16648200D03*
%TD*%
D35*
%TO.P,U2,1,VIN*%
%TO.N,+5V*%
X45870700Y-29319400D03*
%TO.P,U2,2,GND*%
%TO.N,GND*%
X45870700Y-28369400D03*
%TO.P,U2,3,EN*%
%TO.N,+5V*%
X45870700Y-27419400D03*
%TO.P,U2,4,NC*%
%TO.N,unconnected-(U2-NC-Pad4)*%
X43595700Y-27419400D03*
%TO.P,U2,5,VOUT*%
%TO.N,+3V3*%
X43595700Y-29319400D03*
%TD*%
D40*
%TO.P,U5,1,VDD*%
%TO.N,+3V3*%
X36280000Y-12954000D03*
%TO.P,U5,2,RCC_OSC_IN*%
%TO.N,/MCU/OSC_IN*%
X37080000Y-12954000D03*
%TO.P,U5,3,RCC_OSC_OUT*%
%TO.N,/MCU/OSC_OUT*%
X37880000Y-12954000D03*
%TO.P,U5,4,PG10*%
%TO.N,NRST*%
X38680000Y-12954000D03*
%TO.P,U5,5,ADC1_IN1*%
%TO.N,/MCU/Regen_Analog*%
X39480000Y-12954000D03*
%TO.P,U5,6,ADC1_IN2*%
%TO.N,/MCU/Mode_Analog*%
X40280000Y-12954000D03*
%TO.P,U5,7,USART2_TX*%
%TO.N,VCP_UART_TX*%
X41080000Y-12954000D03*
%TO.P,U5,8,USART2_RX*%
%TO.N,VCP_UART_RX*%
X41880000Y-12954000D03*
D41*
%TO.P,U5,9,SPI1_NSS*%
%TO.N,/Display Interface/SPI.CS*%
X43255000Y-11579000D03*
%TO.P,U5,10,SPI1_SCK*%
%TO.N,/Display Interface/SPI.CLK*%
X43255000Y-10779000D03*
%TO.P,U5,11,SPI1_MISO*%
%TO.N,/Display Interface/SPI.MISO*%
X43255000Y-9979000D03*
%TO.P,U5,12,SPI1_MOSI*%
%TO.N,/Display Interface/SPI.MOSI*%
X43255000Y-9179000D03*
%TO.P,U5,13,ADC1_IN15*%
%TO.N,/MCU/TC_Analog*%
X43255000Y-8379000D03*
%TO.P,U5,14,VSSA*%
%TO.N,GND*%
X43255000Y-7579000D03*
%TO.P,U5,15,VDDA*%
%TO.N,+3V3_A*%
X43255000Y-6779000D03*
%TO.P,U5,16,VSS*%
%TO.N,GND*%
X43255000Y-5979000D03*
D40*
%TO.P,U5,17,VDD*%
%TO.N,+3V3*%
X41880000Y-4604000D03*
%TO.P,U5,18,PA8*%
%TO.N,Net-(U5-PA8)*%
X41080000Y-4604000D03*
%TO.P,U5,19,PA9*%
%TO.N,Net-(U5-PA9)*%
X40280000Y-4604000D03*
%TO.P,U5,20,PA10*%
%TO.N,Net-(U5-PA10)*%
X39480000Y-4604000D03*
%TO.P,U5,21,FDCAN1_RX*%
%TO.N,/MCU/CAN_RX*%
X38680000Y-4604000D03*
%TO.P,U5,22,FDCAN1_TX*%
%TO.N,/MCU/CAN_TX*%
X37880000Y-4604000D03*
%TO.P,U5,23,SYS_JTMS-SWDIO*%
%TO.N,STLINK_SWDIO*%
X37080000Y-4604000D03*
%TO.P,U5,24,SYS_JTCK-SWCLK*%
%TO.N,STLINK_SWCLK*%
X36280000Y-4604000D03*
D41*
%TO.P,U5,25,PA15*%
%TO.N,/Display Interface/Driver_Power*%
X34905000Y-5979000D03*
%TO.P,U5,26,SYS_JTDO-SWO*%
%TO.N,STLINK_SWO*%
X34905000Y-6779000D03*
%TO.P,U5,27,PB4*%
%TO.N,/MCU/Layout_Cycle*%
X34905000Y-7579000D03*
%TO.P,U5,28,PB5*%
%TO.N,Net-(U5-PB5)*%
X34905000Y-8379000D03*
%TO.P,U5,29,PB6*%
%TO.N,Net-(U5-PB6)*%
X34905000Y-9179000D03*
%TO.P,U5,30,PB7*%
%TO.N,/MCU/Driver_Interrupt*%
X34905000Y-9979000D03*
%TO.P,U5,31,PB8*%
%TO.N,/MCU/BOOT0*%
X34905000Y-10779000D03*
%TO.P,U5,32,VSS*%
%TO.N,GND*%
X34905000Y-11579000D03*
%TD*%
D16*
%TO.P,C28,1*%
%TO.N,/MCU/Mode_Analog*%
X28956000Y-34798000D03*
%TO.P,C28,2*%
%TO.N,GND*%
X30506000Y-34798000D03*
%TD*%
%TO.P,C25,1*%
%TO.N,+12V*%
X79061000Y-26185000D03*
%TO.P,C25,2*%
%TO.N,GND*%
X80611000Y-26185000D03*
%TD*%
D26*
%TO.P,C12,1*%
%TO.N,+3V3*%
X76080000Y-5779000D03*
%TO.P,C12,2*%
%TO.N,GND*%
X76080000Y-4229000D03*
%TD*%
%TO.P,C5,1*%
%TO.N,+3V3*%
X41733200Y-29144400D03*
%TO.P,C5,2*%
%TO.N,GND*%
X41733200Y-27594400D03*
%TD*%
D19*
%TO.P,R2,1*%
%TO.N,+3V3*%
X31255000Y-10279000D03*
%TO.P,R2,2*%
%TO.N,/MCU/Driver_Interrupt*%
X32905000Y-10279000D03*
%TD*%
D16*
%TO.P,C7,1*%
%TO.N,+3V3*%
X54698600Y-9093200D03*
%TO.P,C7,2*%
%TO.N,GND*%
X56248600Y-9093200D03*
%TD*%
D18*
%TO.P,C21,1*%
%TO.N,GND*%
X54508400Y-3405800D03*
%TO.P,C21,2*%
%TO.N,+3V3*%
X54508400Y-5130800D03*
%TD*%
D17*
%TO.P,R8,1*%
%TO.N,/Layout_Cycle_Unfiltered*%
X16580000Y-24604000D03*
%TO.P,R8,2*%
%TO.N,GND*%
X16580000Y-22954000D03*
%TD*%
D42*
%TO.P,J1,1,1*%
%TO.N,/CAN_L*%
X49530000Y-23749000D03*
%TO.P,J1,2,2*%
%TO.N,/CAN_H*%
X48260000Y-21199000D03*
%TO.P,J1,3,3*%
%TO.N,/Launch_Control*%
X50800000Y-21199000D03*
%TO.P,J1,4,4*%
%TO.N,/Lap*%
X53340000Y-21199000D03*
%TO.P,J1,5,5*%
%TO.N,unconnected-(J1-Pad5)*%
X52070000Y-23749000D03*
%TO.P,J1,6,6*%
%TO.N,unconnected-(J1-Pad6)*%
X54610000Y-23749000D03*
%TO.P,J1,7,7*%
%TO.N,+12V*%
X57150000Y-23749000D03*
%TO.P,J1,8,8*%
%TO.N,GND*%
X55880000Y-21199000D03*
D43*
%TO.P,J1,MH1,MH1*%
%TO.N,unconnected-(J1-PadMH1)*%
X60580000Y-17599000D03*
%TO.P,J1,MH2,MH2*%
%TO.N,unconnected-(J1-PadMH2)*%
X44830000Y-17599000D03*
%TO.P,J1,MH3,MH3*%
%TO.N,unconnected-(J1-PadMH3)*%
X47205000Y-14279000D03*
%TO.P,J1,MH4,MH4*%
%TO.N,unconnected-(J1-PadMH4)*%
X58205000Y-14279000D03*
%TD*%
D44*
%TO.N,GND*%
X30276800Y-13766800D03*
X74115323Y-23573250D03*
X17272000Y-21945600D03*
X42265600Y-26670000D03*
X90424000Y-31089600D03*
X34955600Y-35509200D03*
X47070800Y-5130800D03*
X84734400Y-12954000D03*
X83312000Y-5384800D03*
X17424400Y-34798000D03*
X44856400Y-7467600D03*
X57404000Y-8483600D03*
X70408800Y-21336000D03*
X43586400Y-4423329D03*
X88493600Y-39878000D03*
X27533600Y-35560000D03*
X87426800Y-21031200D03*
X81940400Y-26009600D03*
X76980000Y-5181600D03*
X85801200Y-31546800D03*
X53848000Y-14833600D03*
X56794400Y-28346400D03*
X34493200Y-14020800D03*
X49123600Y-10820400D03*
X31292800Y-35306000D03*
X36017200Y-11480800D03*
X72028881Y-16216500D03*
X33680400Y-12852400D03*
X49915600Y-5160100D03*
X22301200Y-22098000D03*
X57556400Y-25857200D03*
X82804000Y-2844800D03*
X48158400Y-27279600D03*
X9223800Y-93743316D03*
X59059600Y-3405800D03*
X38883850Y-16945350D03*
X55067200Y-28752800D03*
X68173600Y-10312400D03*
X56011600Y-3405800D03*
X84175600Y-25806400D03*
X67665600Y-8077200D03*
%TO.N,+3V3*%
X30175200Y-11633200D03*
X59029600Y-5130800D03*
X36931600Y-11582400D03*
X59334400Y-9580800D03*
X37919264Y-10594736D03*
X62959065Y-34932535D03*
X42621200Y-34747200D03*
X26568400Y-14274800D03*
X39928800Y-7975600D03*
X38717135Y-9441265D03*
%TO.N,+1V2*%
X79680000Y-5911200D03*
X69697600Y-12141200D03*
X83437714Y-13082286D03*
%TO.N,NRST*%
X36423600Y-10464800D03*
%TO.N,/Display Interface/LED_High*%
X86969600Y-31292800D03*
X87455415Y-29943385D03*
%TO.N,/MCU/Layout_Cycle*%
X36220400Y-8128000D03*
X24079200Y-10515600D03*
%TO.N,/MCU/TC_Analog*%
X35864800Y-26873200D03*
X43206751Y-13892449D03*
X34645600Y-28590800D03*
X40741600Y-8890000D03*
%TO.N,/MCU/Mode_Analog*%
X42875200Y-14630400D03*
X33274000Y-28590800D03*
X40497200Y-14218187D03*
X34290000Y-26924000D03*
%TO.N,/MCU/Regen_Analog*%
X32207200Y-28600400D03*
X40227917Y-14971505D03*
X42357600Y-15290800D03*
X33172400Y-26984400D03*
%TO.N,/Launch_Control*%
X51054000Y-24739600D03*
X61417200Y-32816800D03*
%TO.N,/Lap*%
X46634400Y-23063200D03*
%TO.N,VCP_UART_RX*%
X35052000Y-17729200D03*
%TO.N,VCP_UART_TX*%
X40825335Y-17965335D03*
%TO.N,STLINK_SWDIO*%
X27533600Y-22860000D03*
%TO.N,STLINK_SWO*%
X29551031Y-22862415D03*
%TO.N,STLINK_SWCLK*%
X28752800Y-22809200D03*
%TO.N,/Display Interface/Backlight_PWM*%
X72593200Y-23926800D03*
X72339200Y-30683200D03*
%TO.N,/MCU/Driver_Interrupt*%
X40359895Y-2362908D03*
X74726800Y-6045200D03*
X75539600Y-1016000D03*
X37449200Y-6248400D03*
%TO.N,/MCU/CAN_RX*%
X44500800Y-12801600D03*
X41554400Y-9855200D03*
%TO.N,/MCU/CAN_TX*%
X41110638Y-10520843D03*
X43703154Y-12862958D03*
%TO.N,/Display Interface/Driver_Power*%
X36626800Y-5842000D03*
X73863200Y-6045200D03*
X39974812Y-1661684D03*
X74676000Y-554000D03*
%TO.N,/Display Interface/SPI.CS*%
X44856400Y-11379200D03*
X46673122Y-10406465D03*
%TO.N,/Display Interface/SPI.MISO*%
X62788800Y-6350000D03*
X61010800Y-6299200D03*
%TO.N,Net-(U5-PA8)*%
X22504400Y-2844800D03*
%TO.N,Net-(U5-PA9)*%
X25400000Y-3302000D03*
%TO.N,Net-(U5-PA10)*%
X27889200Y-4521200D03*
%TO.N,Net-(U5-PB5)*%
X32308800Y-8026400D03*
%TO.N,Net-(U5-PB6)*%
X31851600Y-8686800D03*
%TD*%
D45*
%TO.N,GND*%
X56011600Y-3405800D02*
X56062400Y-3405800D01*
X26950000Y-34976400D02*
X27533600Y-35560000D01*
X37980000Y-16329000D02*
X38267500Y-16329000D01*
X82355000Y-4779000D02*
X82706200Y-4779000D01*
X48508400Y-5130800D02*
X47070800Y-5130800D01*
X57251600Y-8483600D02*
X56642000Y-9093200D01*
X84530000Y-25398800D02*
X84530000Y-24779000D01*
X91542500Y-30779000D02*
X90734600Y-30779000D01*
X54660700Y-27353400D02*
X54660700Y-28346300D01*
X81307800Y-26185000D02*
X80611000Y-26185000D01*
X68805000Y-10943800D02*
X68173600Y-10312400D01*
X44856400Y-7467600D02*
X43366400Y-7467600D01*
X21580000Y-23004000D02*
X21580000Y-22819200D01*
X81483200Y-26009600D02*
X81307800Y-26185000D01*
X57919700Y-29351400D02*
X57919700Y-27607400D01*
X38267500Y-16329000D02*
X39580000Y-17641500D01*
X34580000Y-14916500D02*
X34580000Y-14107600D01*
X43255000Y-5767000D02*
X43255000Y-5979000D01*
X34252200Y-34805800D02*
X34955600Y-35509200D01*
X43586400Y-5435600D02*
X43255000Y-5767000D01*
X30784800Y-34798000D02*
X31292800Y-35306000D01*
X37915936Y-16329000D02*
X37980000Y-16329000D01*
X82706200Y-4779000D02*
X83312000Y-5384800D01*
X43586400Y-4423329D02*
X43586400Y-5435600D01*
X82355000Y-2395800D02*
X82804000Y-2844800D01*
X47070800Y-5130800D02*
X45508400Y-5130800D01*
X80080000Y-16279000D02*
X80054000Y-16253000D01*
X80054000Y-16253000D02*
X80054000Y-15565500D01*
X75580000Y-11091500D02*
X76330000Y-11841500D01*
X57404000Y-8483600D02*
X57251600Y-8483600D01*
X71892500Y-11091500D02*
X75580000Y-11091500D01*
X90734600Y-30779000D02*
X90424000Y-31089600D01*
X57919700Y-27607400D02*
X57533400Y-27607400D01*
X45870700Y-28369400D02*
X47392200Y-28369400D01*
X74080000Y-23537927D02*
X74115323Y-23573250D01*
X76330000Y-11841500D02*
X72654000Y-15517500D01*
X16730000Y-35779000D02*
X16730000Y-35492400D01*
X43366400Y-7467600D02*
X43255000Y-7579000D01*
X72580000Y-16279000D02*
X72091381Y-16279000D01*
X85630000Y-31375600D02*
X85801200Y-31546800D01*
X53289200Y-15392400D02*
X53848000Y-14833600D01*
X57665700Y-27353400D02*
X57919700Y-27607400D01*
X36815936Y-15229000D02*
X37915936Y-16329000D01*
X82355000Y-1819000D02*
X82355000Y-2395800D01*
X59059600Y-3405800D02*
X60498400Y-3405800D01*
X57565700Y-29705400D02*
X57919700Y-29351400D01*
X48508400Y-5130800D02*
X49886300Y-5130800D01*
X56642000Y-9093200D02*
X56248600Y-9093200D01*
X47571200Y-27866800D02*
X48158400Y-27279600D01*
X54508400Y-3405800D02*
X56011600Y-3405800D01*
X50001400Y-11698200D02*
X49123600Y-10820400D01*
X56062400Y-3405800D02*
X57508400Y-3405800D01*
X9782600Y-94642716D02*
X9782600Y-94302116D01*
X30506000Y-34798000D02*
X30784800Y-34798000D01*
X84355000Y-12574600D02*
X84734400Y-12954000D01*
X16580000Y-22954000D02*
X16580000Y-22637600D01*
X26950000Y-34798000D02*
X26950000Y-34976400D01*
X21580000Y-22819200D02*
X22301200Y-22098000D01*
X34905000Y-11579000D02*
X35919000Y-11579000D01*
X72091381Y-16279000D02*
X72028881Y-16216500D01*
X80054000Y-15565500D02*
X76330000Y-11841500D01*
X30276800Y-13766800D02*
X30276800Y-13257200D01*
X74080000Y-22556800D02*
X74080000Y-23537927D01*
X50749200Y-11698200D02*
X50001400Y-11698200D01*
X76980000Y-5181600D02*
X76980000Y-5129000D01*
X72654000Y-16205000D02*
X72580000Y-16279000D01*
X84175600Y-25806400D02*
X84175600Y-25753200D01*
X90170000Y-39878000D02*
X90361000Y-39687000D01*
X54660700Y-27353400D02*
X57665700Y-27353400D01*
X34905000Y-11579000D02*
X34905000Y-11627800D01*
X47571200Y-28190400D02*
X47571200Y-27866800D01*
X16580000Y-22637600D02*
X17272000Y-21945600D01*
X88493600Y-39878000D02*
X90170000Y-39878000D01*
X90361000Y-39687000D02*
X90361000Y-39624000D01*
X84175600Y-25753200D02*
X84530000Y-25398800D01*
X72654000Y-15517500D02*
X72654000Y-16205000D01*
X81940400Y-26009600D02*
X81483200Y-26009600D01*
X34905000Y-11627800D02*
X33680400Y-12852400D01*
X30276800Y-13257200D02*
X30755000Y-12779000D01*
X35919000Y-11579000D02*
X36017200Y-11480800D01*
X68805000Y-11279000D02*
X68805000Y-14279000D01*
X70579999Y-21507199D02*
X70408800Y-21336000D01*
X68805000Y-8279000D02*
X67867400Y-8279000D01*
X53289200Y-16648200D02*
X53289200Y-15392400D01*
X70579999Y-22556800D02*
X70579999Y-21507199D01*
X16730000Y-35492400D02*
X17424400Y-34798000D01*
X9782600Y-94302116D02*
X9223800Y-93743316D01*
X54660700Y-28346300D02*
X55067200Y-28752800D01*
X67867400Y-8279000D02*
X67665600Y-8077200D01*
X85630000Y-29916500D02*
X85630000Y-31375600D01*
X55880000Y-19012200D02*
X55880000Y-21199000D01*
X87079999Y-21378001D02*
X87426800Y-21031200D01*
X34252200Y-34798000D02*
X34252200Y-34805800D01*
X36580000Y-15229000D02*
X36815936Y-15229000D01*
X45445900Y-5068300D02*
X45508400Y-5130800D01*
X84355000Y-11779000D02*
X84355000Y-12574600D01*
X41733200Y-27594400D02*
X41733200Y-27202400D01*
X49886300Y-5130800D02*
X49915600Y-5160100D01*
X34580000Y-14107600D02*
X34493200Y-14020800D01*
X57508400Y-3405800D02*
X59059600Y-3405800D01*
X57533400Y-27607400D02*
X56794400Y-28346400D01*
X41733200Y-27202400D02*
X42265600Y-26670000D01*
X57919700Y-27607400D02*
X57919700Y-26220500D01*
X76980000Y-5129000D02*
X76080000Y-4229000D01*
X87079999Y-22556800D02*
X87079999Y-21378001D01*
X57919700Y-26220500D02*
X57556400Y-25857200D01*
X68805000Y-11279000D02*
X68805000Y-10943800D01*
X47392200Y-28369400D02*
X47571200Y-28190400D01*
%TO.N,+12V*%
X79080000Y-28129000D02*
X79080000Y-26204000D01*
X78558400Y-27607400D02*
X79080000Y-28129000D01*
X59994700Y-27607400D02*
X59994700Y-26593700D01*
X79080000Y-28129000D02*
X84192500Y-28129000D01*
X84192500Y-28129000D02*
X84680000Y-27641500D01*
X59994700Y-27607400D02*
X78558400Y-27607400D01*
X59840700Y-27761400D02*
X59994700Y-27607400D01*
X79080000Y-26204000D02*
X79061000Y-26185000D01*
X59994700Y-26593700D02*
X57150000Y-23749000D01*
X59840700Y-30655400D02*
X59840700Y-29705400D01*
X59840700Y-29705400D02*
X59840700Y-27761400D01*
%TO.N,Net-(U1-SW)*%
X55344200Y-33449400D02*
X57016200Y-33449400D01*
X54857200Y-31417400D02*
X55619200Y-30655400D01*
X54857200Y-31417400D02*
X54857200Y-32962400D01*
X54857200Y-32962400D02*
X55344200Y-33449400D01*
X55619200Y-30655400D02*
X57565700Y-30655400D01*
%TO.N,Net-(U1-BST)*%
X57565700Y-31605400D02*
X58566200Y-32605900D01*
X58566200Y-32605900D02*
X58566200Y-33449400D01*
%TO.N,+5V*%
X44907200Y-27720401D02*
X45208201Y-27419400D01*
X55880000Y-17462200D02*
X55373200Y-17462200D01*
X50357200Y-31417400D02*
X47851200Y-31417400D01*
X52585700Y-27353400D02*
X53441600Y-26497500D01*
X57883910Y-35356800D02*
X51968400Y-35356800D01*
X53441600Y-23368000D02*
X54559200Y-22250400D01*
X53441600Y-26497500D02*
X53441600Y-23368000D01*
X50357200Y-33745600D02*
X50357200Y-31417400D01*
X45870700Y-29319400D02*
X45870700Y-30198900D01*
X47851200Y-31417400D02*
X47066200Y-30632400D01*
X44907200Y-29018399D02*
X44907200Y-27720401D01*
X50357200Y-31417400D02*
X50357200Y-29581900D01*
X46304200Y-30632400D02*
X47066200Y-30632400D01*
X47571200Y-30127400D02*
X47571200Y-29740400D01*
X45870700Y-29319400D02*
X45208201Y-29319400D01*
X47066200Y-30632400D02*
X47571200Y-30127400D01*
X45870700Y-30198900D02*
X46304200Y-30632400D01*
X59840700Y-31605400D02*
X59840700Y-33400010D01*
X55373200Y-17462200D02*
X54559200Y-16648200D01*
X59840700Y-33400010D02*
X57883910Y-35356800D01*
X45208201Y-27419400D02*
X45870700Y-27419400D01*
X45208201Y-29319400D02*
X44907200Y-29018399D01*
X51968400Y-35356800D02*
X50357200Y-33745600D01*
X50357200Y-29581900D02*
X52585700Y-27353400D01*
X54559200Y-22250400D02*
X54559200Y-16648200D01*
%TO.N,+3V3*%
X24841200Y-22517910D02*
X22054110Y-25305000D01*
X70355000Y-9550400D02*
X70355000Y-8279000D01*
X24841200Y-16002000D02*
X24841200Y-22517910D01*
X37919264Y-10594736D02*
X38811200Y-9702800D01*
X85694200Y-41458200D02*
X88392000Y-38760400D01*
X76080000Y-7404000D02*
X76080000Y-5779000D01*
X61094200Y-12242800D02*
X61094200Y-11340600D01*
X37338000Y-128981200D02*
X12039600Y-128981200D01*
X54508400Y-5130800D02*
X57508400Y-5130800D01*
X11333102Y-35387600D02*
X9787502Y-33842000D01*
X8128000Y-92710000D02*
X8839200Y-91998800D01*
X71042500Y-13591500D02*
X71892500Y-13591500D01*
X10343701Y-31464699D02*
X11346204Y-31464699D01*
X10558600Y-98879652D02*
X10270664Y-98591716D01*
X87675743Y-20430200D02*
X95252499Y-28006956D01*
X32208793Y-13771857D02*
X33892200Y-13771857D01*
X80975200Y-124155200D02*
X85801200Y-124155200D01*
X9782600Y-102292716D02*
X10558600Y-101516716D01*
X30175200Y-11358800D02*
X31255000Y-10279000D01*
X5506197Y-124358400D02*
X2910600Y-121762803D01*
X36280000Y-12234000D02*
X36931600Y-11582400D01*
X70205600Y-134924800D02*
X80975200Y-124155200D01*
X57217000Y-11698200D02*
X59334400Y-9580800D01*
X40579600Y-27990800D02*
X41733200Y-29144400D01*
X9787502Y-33842000D02*
X9787502Y-32020898D01*
X2910600Y-109164716D02*
X9782600Y-102292716D01*
X63993600Y-9580800D02*
X64024000Y-9550400D01*
X54495900Y-5143300D02*
X54508400Y-5130800D01*
X67190535Y-34932535D02*
X73716200Y-41458200D01*
X61094200Y-11340600D02*
X59334400Y-9580800D01*
X41880000Y-4604000D02*
X44401200Y-2082800D01*
X70667500Y-11591500D02*
X71892500Y-11591500D01*
X12604999Y-25046600D02*
X11160399Y-23602000D01*
X8128000Y-97891600D02*
X8128000Y-92710000D01*
X95252499Y-34804898D02*
X95265601Y-34818000D01*
X64024000Y-9550400D02*
X70355000Y-9550400D01*
X36280000Y-12954000D02*
X36280000Y-12234000D01*
X51866800Y-2082800D02*
X52832000Y-3048000D01*
X70355000Y-8279000D02*
X70542500Y-8091500D01*
X31704000Y-13267064D02*
X32208793Y-13771857D01*
X52476400Y-134924800D02*
X70205600Y-134924800D01*
X2910600Y-121762803D02*
X2910600Y-109164716D01*
X53340000Y-5143300D02*
X54495900Y-5143300D01*
X73716200Y-41458200D02*
X85694200Y-41458200D01*
X12604999Y-30205904D02*
X12604999Y-25046600D01*
X31255000Y-10279000D02*
X31704000Y-10728000D01*
X87177857Y-20430200D02*
X87675743Y-20430200D01*
X70355000Y-11279000D02*
X70667500Y-11591500D01*
X54559200Y-9232600D02*
X54698600Y-9093200D01*
X41880000Y-6024400D02*
X41880000Y-4604000D01*
X54559200Y-11698200D02*
X57217000Y-11698200D01*
X7416800Y-124358400D02*
X5506197Y-124358400D01*
X33892200Y-13771857D02*
X34710057Y-12954000D01*
X44401200Y-2082800D02*
X51866800Y-2082800D01*
X38811200Y-9702800D02*
X38811200Y-9347200D01*
X91323201Y-38760400D02*
X95265601Y-34818000D01*
X52832000Y-4635300D02*
X53340000Y-5143300D01*
X25707264Y-27990800D02*
X40579600Y-27990800D01*
X70355000Y-14279000D02*
X71042500Y-13591500D01*
X25707264Y-27990800D02*
X17143064Y-36555000D01*
X8839200Y-91998800D02*
X8839200Y-44691348D01*
X50393600Y-137007600D02*
X45364400Y-137007600D01*
X22054110Y-25305000D02*
X12863399Y-25305000D01*
X70355000Y-8279000D02*
X73189800Y-5444200D01*
X52832000Y-3048000D02*
X52832000Y-4635300D01*
X10558600Y-101516716D02*
X10558600Y-98879652D01*
X73189800Y-5444200D02*
X75745200Y-5444200D01*
X17143064Y-36555000D02*
X12500502Y-36555000D01*
X63906400Y-15055000D02*
X69579000Y-15055000D01*
X45364400Y-137007600D02*
X37338000Y-128981200D01*
X51508400Y-5143300D02*
X52862000Y-5143300D01*
X61094200Y-12242800D02*
X63906400Y-15055000D01*
X75745200Y-5444200D02*
X76080000Y-5779000D01*
X11346204Y-35400702D02*
X11333102Y-35387600D01*
X86580000Y-22556800D02*
X86580000Y-21028057D01*
X39928800Y-7975600D02*
X41880000Y-6024400D01*
X38811200Y-9347200D02*
X38717135Y-9441265D01*
X26568400Y-14274800D02*
X24841200Y-16002000D01*
X69579000Y-15055000D02*
X70355000Y-14279000D01*
X70542500Y-8091500D02*
X71892500Y-8091500D01*
X12500502Y-36555000D02*
X11333102Y-35387600D01*
X70355000Y-11279000D02*
X70355000Y-9550400D01*
X86580000Y-21028057D02*
X87177857Y-20430200D01*
X34710057Y-12954000D02*
X36280000Y-12954000D01*
X85801200Y-124155200D02*
X88747600Y-127101600D01*
X57508400Y-5130800D02*
X60498400Y-5130800D01*
X31704000Y-10728000D02*
X31704000Y-13267064D01*
X95252499Y-28006956D02*
X95252499Y-34804898D01*
X50393600Y-137007600D02*
X52476400Y-134924800D01*
X59334400Y-9580800D02*
X63993600Y-9580800D01*
X52862000Y-5143300D02*
X53340000Y-5143300D01*
X11346204Y-31464699D02*
X12604999Y-30205904D01*
X30175200Y-11633200D02*
X30175200Y-11358800D01*
X54559200Y-11698200D02*
X54559200Y-9232600D01*
X10270664Y-98591716D02*
X8828116Y-98591716D01*
X8839200Y-44691348D02*
X11346204Y-42184344D01*
X62959065Y-34932535D02*
X67190535Y-34932535D01*
X12863399Y-25305000D02*
X11160399Y-23602000D01*
X42621200Y-34747200D02*
X41733200Y-33859200D01*
X9787502Y-32020898D02*
X10343701Y-31464699D01*
X88392000Y-38760400D02*
X91323201Y-38760400D01*
X88747600Y-127101600D02*
X88747600Y-128981200D01*
X41733200Y-33859200D02*
X41733200Y-29144400D01*
X41733200Y-29144400D02*
X41718400Y-29159200D01*
X12039600Y-128981200D02*
X7416800Y-124358400D01*
X8828116Y-98591716D02*
X8128000Y-97891600D01*
X11346204Y-42184344D02*
X11346204Y-35400702D01*
%TO.N,+1V2*%
X82805000Y-12449575D02*
X82805000Y-11779000D01*
X70355000Y-12779000D02*
X70335400Y-12779000D01*
X83437711Y-13082286D02*
X82805000Y-12449575D01*
X79580000Y-7404000D02*
X79580000Y-6004000D01*
X70335400Y-12779000D02*
X69697600Y-12141200D01*
X82617500Y-11591500D02*
X80767500Y-11591500D01*
X79580000Y-6004000D02*
X80805000Y-4779000D01*
X71042500Y-12091500D02*
X71892500Y-12091500D01*
X70355000Y-12779000D02*
X71042500Y-12091500D01*
X82805000Y-11779000D02*
X82617500Y-11591500D01*
X80805000Y-4779000D02*
X80805000Y-1819000D01*
X83437714Y-13082286D02*
X83437711Y-13082286D01*
%TO.N,/MCU/OSC_IN*%
X36580000Y-16329000D02*
X36515936Y-16329000D01*
X37080000Y-13509918D02*
X37080000Y-12954000D01*
X35829000Y-15867500D02*
X35829000Y-14935200D01*
X35055000Y-16641500D02*
X35829000Y-15867500D01*
X36515936Y-16329000D02*
X35829000Y-15642064D01*
X35829000Y-14760918D02*
X37080000Y-13509918D01*
X34580000Y-16641500D02*
X35055000Y-16641500D01*
X35829000Y-15642064D02*
X35829000Y-14760918D01*
%TO.N,/MCU/OSC_OUT*%
X37980000Y-13054000D02*
X37880000Y-12954000D01*
X37980000Y-15229000D02*
X38892500Y-15229000D01*
X38892500Y-15229000D02*
X39580000Y-15916500D01*
X37980000Y-15229000D02*
X37980000Y-13054000D01*
%TO.N,NRST*%
X36423600Y-10464800D02*
X36940799Y-10464800D01*
X38680000Y-12204001D02*
X38680000Y-12954000D01*
X36940799Y-10464800D02*
X38680000Y-12204001D01*
%TO.N,+3V3_A*%
X48508400Y-3405800D02*
X51495900Y-3405800D01*
X51495900Y-3405800D02*
X51508400Y-3393300D01*
X44004999Y-6779000D02*
X44732400Y-6051599D01*
X44732400Y-4181800D02*
X45508400Y-3405800D01*
X43255000Y-6779000D02*
X44004999Y-6779000D01*
X44732400Y-6051599D02*
X44732400Y-4181800D01*
X45508400Y-3405800D02*
X48508400Y-3405800D01*
%TO.N,/Display Interface/LED_High*%
X87455415Y-28519215D02*
X87181000Y-28244800D01*
X80416400Y-38303200D02*
X80467200Y-38303200D01*
X87181000Y-28344968D02*
X87181000Y-26720800D01*
X85630000Y-27995968D02*
X86239032Y-28605000D01*
X85630000Y-27641500D02*
X85630000Y-27995968D01*
X86239032Y-28605000D02*
X86920968Y-28605000D01*
X87181000Y-26720800D02*
X87181000Y-25880000D01*
X86080000Y-24779000D02*
X87579998Y-23279002D01*
X87181000Y-28244800D02*
X87181000Y-26720800D01*
X80467200Y-38303200D02*
X86969600Y-31800800D01*
X87455415Y-29943385D02*
X87455415Y-28519215D01*
X87579998Y-23279002D02*
X87579998Y-22556800D01*
X86969600Y-31800800D02*
X86969600Y-31292800D01*
X87181000Y-25880000D02*
X86080000Y-24779000D01*
X86920968Y-28605000D02*
X87181000Y-28344968D01*
%TO.N,/MCU/Layout_Cycle*%
X21530000Y-24604000D02*
X21580000Y-24554000D01*
X35671400Y-7579000D02*
X34905000Y-7579000D01*
X24079200Y-10515600D02*
X24079200Y-22054800D01*
X36220400Y-8128000D02*
X35671400Y-7579000D01*
X24079200Y-22054800D02*
X21580000Y-24554000D01*
X18580000Y-24604000D02*
X21530000Y-24604000D01*
%TO.N,/MCU/TC_Analog*%
X43049743Y-16015700D02*
X43049743Y-19688257D01*
X32766000Y-37801200D02*
X32766000Y-34861800D01*
X43206751Y-13892449D02*
X43476200Y-14161898D01*
X32467200Y-38100000D02*
X32766000Y-37801200D01*
X43255000Y-8379000D02*
X41252600Y-8379000D01*
X34645600Y-29352800D02*
X32702200Y-31296200D01*
X34645600Y-28590800D02*
X34645600Y-29352800D01*
X32702200Y-31296200D02*
X32702200Y-34798000D01*
X32766000Y-34861800D02*
X32702200Y-34798000D01*
X41252600Y-8379000D02*
X40741600Y-8890000D01*
X43476200Y-15589243D02*
X43049743Y-16015700D01*
X43476200Y-14161898D02*
X43476200Y-15589243D01*
X43049743Y-19688257D02*
X35864800Y-26873200D01*
%TO.N,/MCU/Mode_Analog*%
X42648743Y-18565257D02*
X34290000Y-26924000D01*
X42958600Y-15539743D02*
X42648743Y-15849600D01*
X40497200Y-14218187D02*
X40497200Y-13171200D01*
X40497200Y-13171200D02*
X40280000Y-12954000D01*
X28906000Y-34848000D02*
X28956000Y-34798000D01*
X42875200Y-14630400D02*
X42958600Y-14713800D01*
X28956000Y-32908800D02*
X28956000Y-34798000D01*
X42958600Y-14713800D02*
X42958600Y-15539743D01*
X28906000Y-38100000D02*
X28906000Y-34848000D01*
X33274000Y-28590800D02*
X28956000Y-32908800D01*
X42648743Y-15849600D02*
X42648743Y-18565257D01*
%TO.N,/MCU/Regen_Analog*%
X41960800Y-15687600D02*
X42357600Y-15290800D01*
X25400000Y-34798000D02*
X25400000Y-34848800D01*
X33375600Y-26974800D02*
X41960800Y-18389600D01*
X33182000Y-26974800D02*
X33375600Y-26974800D01*
X41960800Y-18389600D02*
X41960800Y-15687600D01*
X40168305Y-14971505D02*
X39480000Y-14283200D01*
X25350000Y-34898800D02*
X25350000Y-38100000D01*
X39480000Y-12954000D02*
X39480000Y-14283200D01*
X25400000Y-34137600D02*
X25400000Y-34798000D01*
X40227917Y-14971505D02*
X40168305Y-14971505D01*
X30937200Y-28600400D02*
X25400000Y-34137600D01*
X33172400Y-26984400D02*
X33182000Y-26974800D01*
X32207200Y-28600400D02*
X30937200Y-28600400D01*
X25400000Y-34848800D02*
X25350000Y-34898800D01*
%TO.N,/CAN_L*%
X47040800Y-22453600D02*
X48336200Y-23749000D01*
X48336200Y-23749000D02*
X49530000Y-23749000D01*
X49317000Y-23962000D02*
X49530000Y-23749000D01*
X50749200Y-16648200D02*
X47040800Y-20356600D01*
X47040800Y-20356600D02*
X47040800Y-22453600D01*
%TO.N,/Launch_Control*%
X63144400Y-35966400D02*
X67411600Y-35966400D01*
X73029210Y-41569104D02*
X73463610Y-41859200D01*
X67411600Y-35966400D02*
X72993081Y-41547881D01*
X61417200Y-32816800D02*
X61417200Y-34239200D01*
X72993081Y-41547881D02*
X73029210Y-41569104D01*
X61417200Y-34239200D02*
X63144400Y-35966400D01*
X73463610Y-41859200D02*
X89775800Y-41859200D01*
X51054000Y-24148628D02*
X50800000Y-23894628D01*
X50800000Y-23894628D02*
X50800000Y-21199000D01*
X92959601Y-39624000D02*
X95265601Y-37318000D01*
X92011000Y-39624000D02*
X92959601Y-39624000D01*
X89775800Y-41859200D02*
X92011000Y-39624000D01*
X51054000Y-24739600D02*
X51054000Y-24148628D01*
%TO.N,/Lap*%
X14224502Y-35779000D02*
X15080000Y-35779000D01*
X40595385Y-23463415D02*
X36474400Y-27584400D01*
X23274600Y-27584400D02*
X15080000Y-35779000D01*
X11333102Y-32887600D02*
X14224502Y-35779000D01*
X46234185Y-23463415D02*
X40595385Y-23463415D01*
X36474400Y-27584400D02*
X23274600Y-27584400D01*
X46634400Y-23063200D02*
X46234185Y-23463415D01*
%TO.N,/CAN_H*%
X52019200Y-17439800D02*
X52019200Y-16648200D01*
X48260000Y-21199000D02*
X52019200Y-17439800D01*
%TO.N,VCP_UART_RX*%
X41426335Y-18214278D02*
X41426335Y-18212865D01*
X41072865Y-18566335D02*
X41074278Y-18566335D01*
X41554400Y-13835518D02*
X41631000Y-13758918D01*
X40640000Y-18999200D02*
X41072865Y-18566335D01*
X41631000Y-13758918D02*
X41631000Y-13203000D01*
X41074278Y-18566335D02*
X41426335Y-18214278D01*
X41426335Y-18212865D02*
X41554400Y-18084800D01*
X36322000Y-18999200D02*
X40640000Y-18999200D01*
X41554400Y-18084800D02*
X41554400Y-13835518D01*
X35052000Y-17729200D02*
X36322000Y-18999200D01*
X41631000Y-13203000D02*
X41880000Y-12954000D01*
%TO.N,VCP_UART_TX*%
X41097200Y-17693470D02*
X40825335Y-17965335D01*
X41080000Y-12954000D02*
X41097200Y-12971200D01*
X41097200Y-12971200D02*
X41097200Y-17693470D01*
%TO.N,STLINK_SWDIO*%
X34750200Y-3553000D02*
X27533600Y-10769600D01*
X36584918Y-3553000D02*
X34750200Y-3553000D01*
X37080000Y-4604000D02*
X37080000Y-4048082D01*
X27533600Y-10769600D02*
X27533600Y-22860000D01*
X37080000Y-4048082D02*
X36584918Y-3553000D01*
%TO.N,STLINK_SWO*%
X34905000Y-6779000D02*
X32658400Y-6779000D01*
X32658400Y-6779000D02*
X29551031Y-9886369D01*
X29551031Y-9886369D02*
X29551031Y-22862415D01*
%TO.N,STLINK_SWCLK*%
X36280000Y-4604000D02*
X35943200Y-4267200D01*
X34603100Y-4267200D02*
X28752800Y-10117500D01*
X35943200Y-4267200D02*
X34603100Y-4267200D01*
X28752800Y-10117500D02*
X28752800Y-22809200D01*
%TO.N,/Layout_Cycle_Unfiltered*%
X16580000Y-24604000D02*
X16930000Y-24604000D01*
X16930000Y-24604000D02*
X18580000Y-22954000D01*
X13078000Y-21102000D02*
X16580000Y-24604000D01*
X11160399Y-21102000D02*
X13078000Y-21102000D01*
%TO.N,/Display Interface/RGB_B0*%
X78079999Y-19346101D02*
X78079999Y-22556800D01*
X79580000Y-16279000D02*
X79580000Y-17846100D01*
X79580000Y-17846100D02*
X78079999Y-19346101D01*
%TO.N,/Display Interface/LCD_Dot_Clock*%
X75580000Y-16279000D02*
X75580000Y-17111300D01*
X73579998Y-19111302D02*
X73579998Y-22556800D01*
X75580000Y-17111300D02*
X73579998Y-19111302D01*
%TO.N,/Display Interface/RGB_B4*%
X77580000Y-16279000D02*
X77580000Y-17379700D01*
X77580000Y-17379700D02*
X76079998Y-18879702D01*
X76079998Y-18879702D02*
X76079998Y-22556800D01*
%TO.N,/Display Interface/RGB_G2*%
X81079999Y-19748701D02*
X83085000Y-17743700D01*
X83085000Y-17743700D02*
X83085000Y-14712302D01*
X81079999Y-22556800D02*
X81079999Y-19748701D01*
X83085000Y-14712302D02*
X81464198Y-13091500D01*
X81464198Y-13091500D02*
X80767500Y-13091500D01*
%TO.N,/Display Interface/RGB_B3*%
X76580000Y-22556800D02*
X76580000Y-18946800D01*
X76580000Y-18946800D02*
X78080000Y-17446800D01*
X78080000Y-17446800D02*
X78080000Y-16279000D01*
%TO.N,/Display Interface/LCD_HSync*%
X74580000Y-16279000D02*
X74580000Y-16953300D01*
X72580000Y-18953300D02*
X72580000Y-22556800D01*
X74580000Y-16953300D02*
X72580000Y-18953300D01*
%TO.N,/Display Interface/RGB_R0*%
X86079999Y-22556800D02*
X86079999Y-20464201D01*
X88314000Y-18230200D02*
X88314000Y-11110290D01*
X86079999Y-20464201D02*
X88314000Y-18230200D01*
X84607710Y-7404000D02*
X80080000Y-7404000D01*
X88314000Y-11110290D02*
X84607710Y-7404000D01*
%TO.N,/Display Interface/RGB_B5*%
X75579999Y-18812601D02*
X77080000Y-17312600D01*
X75579999Y-22556800D02*
X75579999Y-18812601D01*
X77080000Y-17312600D02*
X77080000Y-16279000D01*
%TO.N,/Display Interface/RGB_B7*%
X76080000Y-17178400D02*
X76080000Y-16279000D01*
X74579999Y-22556800D02*
X74579999Y-18678401D01*
X74579999Y-18678401D02*
X76080000Y-17178400D01*
%TO.N,/Display Interface/RGB_R3*%
X84593910Y-9091500D02*
X80767500Y-9091500D01*
X87111000Y-17731900D02*
X87111000Y-11608590D01*
X86409300Y-18433600D02*
X87111000Y-17731900D01*
X86400000Y-18433600D02*
X86409300Y-18433600D01*
X87111000Y-11608590D02*
X84593910Y-9091500D01*
X84579999Y-20253601D02*
X86400000Y-18433600D01*
X84579999Y-22556800D02*
X84579999Y-20253601D01*
%TO.N,/Display Interface/RGB_G6*%
X79080000Y-19480300D02*
X81481000Y-17079300D01*
X81481000Y-15376702D02*
X81195798Y-15091500D01*
X81195798Y-15091500D02*
X80767500Y-15091500D01*
X79080000Y-22556800D02*
X79080000Y-19480300D01*
X81481000Y-17079300D02*
X81481000Y-15376702D01*
%TO.N,/Display Interface/LCD_Display_Enable*%
X73079999Y-19020401D02*
X75080000Y-17020400D01*
X75080000Y-17020400D02*
X75080000Y-16279000D01*
X73079999Y-22556800D02*
X73079999Y-19020401D01*
%TO.N,/Display Interface/RGB_G5*%
X81262898Y-14591500D02*
X81882000Y-15210602D01*
X81882000Y-17245400D02*
X79579999Y-19547401D01*
X79579999Y-19547401D02*
X79579999Y-22556800D01*
X81882000Y-15210602D02*
X81882000Y-17245400D01*
X80767500Y-14591500D02*
X81262898Y-14591500D01*
%TO.N,/Display Interface/RGB_B6*%
X76580000Y-16279000D02*
X76580000Y-17245500D01*
X76580000Y-17245500D02*
X75079998Y-18745502D01*
X75079998Y-18745502D02*
X75079998Y-22556800D01*
%TO.N,/Display Interface/RGB_B1*%
X79080000Y-17581000D02*
X79080000Y-16279000D01*
X77579998Y-22556800D02*
X77579998Y-19081002D01*
X77579998Y-19081002D02*
X79080000Y-17581000D01*
%TO.N,/Display Interface/LCD_VSync*%
X72079999Y-18886201D02*
X72079999Y-22556800D01*
X74080000Y-16886200D02*
X72079999Y-18886201D01*
X74080000Y-16279000D02*
X74080000Y-16886200D01*
%TO.N,/Display Interface/RGB_R5*%
X84459710Y-10091500D02*
X86309000Y-11940790D01*
X86077100Y-17631600D02*
X86067800Y-17631600D01*
X86309000Y-11940790D02*
X86309000Y-17399700D01*
X83579999Y-20119401D02*
X83579999Y-22556800D01*
X86309000Y-17399700D02*
X86077100Y-17631600D01*
X80767500Y-10091500D02*
X84459710Y-10091500D01*
X86067800Y-17631600D02*
X83579999Y-20119401D01*
%TO.N,/Display Interface/LCD_Data_Enable*%
X71580000Y-18819100D02*
X71580000Y-22556800D01*
X73580000Y-16819100D02*
X71580000Y-18819100D01*
X73580000Y-16279000D02*
X73580000Y-16819100D01*
%TO.N,/Display Interface/RGB_G4*%
X82283000Y-15044502D02*
X81329998Y-14091500D01*
X80079998Y-22556800D02*
X80079998Y-19614502D01*
X82283000Y-17411500D02*
X82283000Y-15044502D01*
X80079998Y-19614502D02*
X82283000Y-17411500D01*
X81329998Y-14091500D02*
X80767500Y-14091500D01*
%TO.N,/Display Interface/LED_Low*%
X88617500Y-34741500D02*
X88617500Y-30779000D01*
X87442500Y-30779000D02*
X88617500Y-30779000D01*
X87080000Y-36279000D02*
X88617500Y-34741500D01*
X88617500Y-23094300D02*
X88080000Y-22556800D01*
X86580000Y-29916500D02*
X87442500Y-30779000D01*
X88617500Y-30779000D02*
X88617500Y-23094300D01*
%TO.N,/Display Interface/RGB_G7*%
X80767500Y-17225700D02*
X78579999Y-19413201D01*
X80767500Y-15591500D02*
X80767500Y-17225700D01*
X78579999Y-19413201D02*
X78579999Y-22556800D01*
%TO.N,/Display Interface/RGB_B2*%
X78580000Y-16279000D02*
X78580000Y-17513900D01*
X77079999Y-19013901D02*
X77079999Y-22556800D01*
X78580000Y-17513900D02*
X77079999Y-19013901D01*
%TO.N,/Display Interface/RGB_G3*%
X80767500Y-13591500D02*
X81397098Y-13591500D01*
X82684000Y-17577600D02*
X80580000Y-19681600D01*
X81397098Y-13591500D02*
X82684000Y-14878402D01*
X80580000Y-19681600D02*
X80580000Y-22556800D01*
X82684000Y-14878402D02*
X82684000Y-17577600D01*
%TO.N,/Display Interface/RGB_R7*%
X82579998Y-19985202D02*
X84480400Y-18084800D01*
X82355890Y-11003000D02*
X82267390Y-11091500D01*
X82579998Y-22556800D02*
X82579998Y-19985202D01*
X84074000Y-14000002D02*
X84074000Y-12868629D01*
X84480400Y-14406402D02*
X84074000Y-14000002D01*
X83254110Y-11003000D02*
X82355890Y-11003000D01*
X82267390Y-11091500D02*
X80767500Y-11091500D01*
X83604000Y-11352890D02*
X83254110Y-11003000D01*
X84074000Y-12868629D02*
X83604000Y-12398629D01*
X83604000Y-12398629D02*
X83604000Y-11352890D01*
X84480400Y-18084800D02*
X84480400Y-14406402D01*
%TO.N,/Display Interface/RGB_R2*%
X87512000Y-11442490D02*
X84661010Y-8591500D01*
X85079998Y-20330002D02*
X87512000Y-17898000D01*
X87512000Y-17898000D02*
X87512000Y-11442490D01*
X84661010Y-8591500D02*
X80767500Y-8591500D01*
X85079998Y-22556800D02*
X85079998Y-20330002D01*
%TO.N,/Display Interface/RGB_G1*%
X81580000Y-20013802D02*
X81580000Y-22556800D01*
X81584800Y-19811000D02*
X81584800Y-20009002D01*
X83486000Y-14546202D02*
X83486000Y-17909800D01*
X83486000Y-17909800D02*
X81584800Y-19811000D01*
X80767500Y-12591500D02*
X81531298Y-12591500D01*
X81531298Y-12591500D02*
X83486000Y-14546202D01*
X81584800Y-20009002D02*
X81580000Y-20013802D01*
%TO.N,/Display Interface/RGB_R6*%
X85908000Y-12106890D02*
X85908000Y-17230600D01*
X83080000Y-20052300D02*
X83080000Y-22556800D01*
X85908000Y-17230600D02*
X85901700Y-17230600D01*
X84392610Y-10591500D02*
X85908000Y-12106890D01*
X80767500Y-10591500D02*
X84392610Y-10591500D01*
X85901700Y-17230600D02*
X83080000Y-20052300D01*
%TO.N,/Display Interface/RGB_G0*%
X82079999Y-19882901D02*
X83887000Y-18075900D01*
X81585900Y-12091500D02*
X80767500Y-12091500D01*
X81684900Y-12190500D02*
X81585900Y-12091500D01*
X82079999Y-22556800D02*
X82079999Y-19882901D01*
X83887000Y-14380102D02*
X81697398Y-12190500D01*
X83887000Y-18075900D02*
X83887000Y-14380102D01*
X81697398Y-12190500D02*
X81684900Y-12190500D01*
%TO.N,/Display Interface/RGB_R1*%
X87913000Y-11276390D02*
X84728110Y-8091500D01*
X87913000Y-18064100D02*
X87913000Y-11276390D01*
X85580000Y-20397100D02*
X87913000Y-18064100D01*
X85580000Y-22556800D02*
X85580000Y-20397100D01*
X84728110Y-8091500D02*
X80767500Y-8091500D01*
%TO.N,/Display Interface/RGB_R4*%
X86710000Y-17565800D02*
X86710000Y-11774690D01*
X86243200Y-18032600D02*
X86710000Y-17565800D01*
X86233900Y-18032600D02*
X86243200Y-18032600D01*
X86710000Y-11774690D02*
X84526810Y-9591500D01*
X84080000Y-22556800D02*
X84080000Y-20186500D01*
X84080000Y-20186500D02*
X86233900Y-18032600D01*
X84526810Y-9591500D02*
X80767500Y-9591500D01*
%TO.N,/Display Interface/Backlight_PWM*%
X84197257Y-26678000D02*
X86278999Y-26678000D01*
X73866380Y-24174250D02*
X74364266Y-24174250D01*
X73580000Y-31924000D02*
X72339200Y-30683200D01*
X74364266Y-24174250D02*
X74611716Y-23926800D01*
X68151998Y-23505500D02*
X68573298Y-23926800D01*
X68151998Y-21662402D02*
X68151998Y-23505500D01*
X73580000Y-36779000D02*
X73580000Y-31924000D01*
X86580000Y-26979001D02*
X86580000Y-27641500D01*
X74611716Y-23926800D02*
X81446057Y-23926800D01*
X81446057Y-23926800D02*
X84197257Y-26678000D01*
X68573298Y-23926800D02*
X73618930Y-23926800D01*
X86278999Y-26678000D02*
X86580000Y-26979001D01*
X73080000Y-16279000D02*
X73080000Y-16734400D01*
X73618930Y-23926800D02*
X73866380Y-24174250D01*
X73080000Y-16734400D02*
X68151998Y-21662402D01*
%TO.N,/Display Interface/Backlight_Switch*%
X82317500Y-32279000D02*
X84680000Y-29916500D01*
X79080000Y-32279000D02*
X82317500Y-32279000D01*
%TO.N,/MCU/BOOT0*%
X32405000Y-12529001D02*
X32405000Y-12779000D01*
X34905000Y-10779000D02*
X34155001Y-10779000D01*
X34155001Y-10779000D02*
X32405000Y-12529001D01*
%TO.N,/MCU/Driver_Interrupt*%
X37449200Y-6248400D02*
X37449200Y-6442000D01*
X35842600Y-9979000D02*
X34905000Y-9979000D01*
X37338000Y-8483600D02*
X35842600Y-9979000D01*
X41567802Y-1155000D02*
X75400600Y-1155000D01*
X33205000Y-9979000D02*
X32905000Y-10279000D01*
X34905000Y-9979000D02*
X33205000Y-9979000D01*
X75400600Y-1155000D02*
X75539600Y-1016000D01*
X37449200Y-6442000D02*
X37338000Y-6553200D01*
X74726800Y-6045200D02*
X75080000Y-6398400D01*
X37338000Y-6553200D02*
X37338000Y-8483600D01*
X75080000Y-6398400D02*
X75080000Y-7404000D01*
X40359895Y-2362908D02*
X41567802Y-1155000D01*
%TO.N,/Switches/Analog_1V1*%
X42615600Y-129229600D02*
X38169200Y-124783200D01*
X38169200Y-124783200D02*
X20795600Y-124783200D01*
X10419116Y-97642716D02*
X9782600Y-97642716D01*
X80969600Y-121203200D02*
X70245200Y-131927600D01*
X4261600Y-121203200D02*
X11430000Y-114034800D01*
X11430000Y-114034800D02*
X11430000Y-98653600D01*
X11430000Y-98653600D02*
X10419116Y-97642716D01*
X70245200Y-131927600D02*
X45313600Y-131927600D01*
X20795600Y-124783200D02*
X19100800Y-123088400D01*
X45313600Y-131927600D02*
X42615600Y-129229600D01*
X19100800Y-123088400D02*
X6146800Y-123088400D01*
X6146800Y-123088400D02*
X4261600Y-121203200D01*
X9782600Y-97642716D02*
X9782600Y-96292716D01*
%TO.N,/Switches/Analog_2V2*%
X2509600Y-123020124D02*
X5623676Y-126134200D01*
X90881200Y-127355600D02*
X87172800Y-123647200D01*
X2509600Y-106565716D02*
X2509600Y-123020124D01*
X7108600Y-127619124D02*
X19595876Y-140106400D01*
X9782600Y-99292716D02*
X2509600Y-106565716D01*
X90881200Y-129794000D02*
X90881200Y-127355600D01*
X80518000Y-123647200D02*
X70004600Y-134160600D01*
X19595876Y-140106400D02*
X75692000Y-140106400D01*
X70004600Y-134160600D02*
X45462600Y-134160600D01*
X88087200Y-132588000D02*
X90881200Y-129794000D01*
X83261200Y-132537200D02*
X83312000Y-132588000D01*
X75692000Y-140106400D02*
X83261200Y-132537200D01*
X83816600Y-131981800D02*
X83816600Y-126134200D01*
X87172800Y-123647200D02*
X80518000Y-123647200D01*
X83261200Y-132537200D02*
X83816600Y-131981800D01*
X9782600Y-100642716D02*
X9782600Y-99292716D01*
X7108600Y-126134200D02*
X7108600Y-127619124D01*
X83312000Y-132588000D02*
X88087200Y-132588000D01*
X5623676Y-126134200D02*
X7108600Y-126134200D01*
%TO.N,/Switches/TC_Unfiltered*%
X81076800Y-111048800D02*
X85750400Y-115722400D01*
X10160000Y-56074200D02*
X10160000Y-86664800D01*
X26386100Y-39848100D02*
X10160000Y-56074200D01*
X10160000Y-86664800D02*
X34544000Y-111048800D01*
X85750400Y-118168000D02*
X88766600Y-121184200D01*
X34117200Y-38100000D02*
X32369100Y-39848100D01*
X32369100Y-39848100D02*
X26386100Y-39848100D01*
X34544000Y-111048800D02*
X81076800Y-111048800D01*
X85750400Y-115722400D02*
X85750400Y-118168000D01*
%TO.N,/Switches/Mode_Unfiltered*%
X37586600Y-111449800D02*
X50412600Y-124275800D01*
X50412600Y-124275800D02*
X50412600Y-129210600D01*
X30556000Y-38100000D02*
X29421650Y-39234350D01*
X9759000Y-86830900D02*
X34377900Y-111449800D01*
X9759000Y-55908100D02*
X9759000Y-86830900D01*
X29421650Y-39234350D02*
X26432750Y-39234350D01*
X34377900Y-111449800D02*
X37586600Y-111449800D01*
X26432750Y-39234350D02*
X9759000Y-55908100D01*
%TO.N,/Switches/Regen_Unfiltered*%
X9358000Y-87234400D02*
X9358000Y-55742000D01*
X12058600Y-121184200D02*
X12058600Y-89935000D01*
X12058600Y-89935000D02*
X9358000Y-87234400D01*
X9358000Y-55742000D02*
X27000000Y-38100000D01*
%TO.N,/MCU/CAN_RX*%
X44754800Y-12547600D02*
X48282832Y-12547600D01*
X40689600Y-9855200D02*
X38680000Y-7845600D01*
X48282832Y-12547600D02*
X48709432Y-12974200D01*
X44500800Y-12801600D02*
X44754800Y-12547600D01*
X48709432Y-12974200D02*
X51090168Y-12974200D01*
X41554400Y-9855200D02*
X40689600Y-9855200D01*
X44450000Y-12852400D02*
X44500800Y-12801600D01*
X38680000Y-7845600D02*
X38680000Y-4604000D01*
X52019200Y-12045168D02*
X52019200Y-11698200D01*
X51090168Y-12974200D02*
X52019200Y-12045168D01*
%TO.N,/MCU/CAN_TX*%
X40645243Y-10520843D02*
X38049200Y-7924800D01*
X38049200Y-7924800D02*
X38049200Y-4773200D01*
X43840400Y-12954000D02*
X43840400Y-12852400D01*
X43703154Y-12862958D02*
X43703154Y-13375554D01*
X46380400Y-16052800D02*
X49281568Y-16052800D01*
X38049200Y-4773200D02*
X37880000Y-4604000D01*
X43794196Y-12954000D02*
X43703154Y-12862958D01*
X49281568Y-16052800D02*
X53289200Y-12045168D01*
X53289200Y-12045168D02*
X53289200Y-11698200D01*
X43840400Y-12954000D02*
X43794196Y-12954000D01*
X43703154Y-13375554D02*
X46380400Y-16052800D01*
X41110638Y-10520843D02*
X40645243Y-10520843D01*
%TO.N,/Display Interface/SPI.MOSI*%
X60073435Y-7486535D02*
X61355765Y-7486535D01*
X46073122Y-11177065D02*
X46073122Y-10111678D01*
X55334200Y-7253600D02*
X59840500Y-7253600D01*
X77109000Y-2585400D02*
X78080000Y-3556400D01*
X42450082Y-12130000D02*
X45121600Y-12130000D01*
X75327757Y-2585400D02*
X77109000Y-2585400D01*
X48931200Y-7253600D02*
X55334200Y-7253600D01*
X42204000Y-9674082D02*
X42204000Y-11883918D01*
X45721065Y-11529122D02*
X46073122Y-11177065D01*
X64964600Y-7222200D02*
X69601400Y-2585400D01*
X42699082Y-9179000D02*
X42204000Y-9674082D01*
X78080000Y-3556400D02*
X78080000Y-7404000D01*
X59840500Y-7253600D02*
X60073435Y-7486535D01*
X61355765Y-7486535D02*
X61620100Y-7222200D01*
X42204000Y-11883918D02*
X42450082Y-12130000D01*
X46073122Y-10111678D02*
X48931200Y-7253600D01*
X43255000Y-9179000D02*
X42699082Y-9179000D01*
X45721065Y-11530535D02*
X45721065Y-11529122D01*
X45121600Y-12130000D02*
X45721065Y-11530535D01*
X61620100Y-7222200D02*
X64964600Y-7222200D01*
X69601400Y-2585400D02*
X75539600Y-2585400D01*
X69601400Y-2585400D02*
X70002400Y-2585400D01*
%TO.N,/Display Interface/Driver_Power*%
X74477000Y-355000D02*
X74676000Y-554000D01*
X36489800Y-5979000D02*
X36626800Y-5842000D01*
X73863200Y-6045200D02*
X74580000Y-6762000D01*
X34905000Y-5979000D02*
X36489800Y-5979000D01*
X39974812Y-1661684D02*
X40349916Y-1661684D01*
X40349916Y-1661684D02*
X41656600Y-355000D01*
X41656600Y-355000D02*
X74477000Y-355000D01*
X74580000Y-6762000D02*
X74580000Y-7404000D01*
%TO.N,/Display Interface/SPI.CS*%
X44656600Y-11579000D02*
X44856400Y-11379200D01*
X61521865Y-7887535D02*
X61786200Y-7623200D01*
X77580000Y-3623500D02*
X77580000Y-7404000D01*
X59674400Y-7654600D02*
X59907335Y-7887535D01*
X46673122Y-10078778D02*
X49097300Y-7654600D01*
X76942900Y-2986400D02*
X77580000Y-3623500D01*
X65130700Y-7623200D02*
X69767500Y-2986400D01*
X43255000Y-11579000D02*
X44656600Y-11579000D01*
X61786200Y-7623200D02*
X65130700Y-7623200D01*
X54813200Y-7654600D02*
X59674400Y-7654600D01*
X49097300Y-7654600D02*
X55168100Y-7654600D01*
X46673122Y-10406465D02*
X46673122Y-10078778D01*
X59907335Y-7887535D02*
X61521865Y-7887535D01*
X69767500Y-2986400D02*
X76942900Y-2986400D01*
%TO.N,/Display Interface/SPI.CLK*%
X43255000Y-10779000D02*
X44542200Y-10779000D01*
X79080000Y-3134000D02*
X79080000Y-7404000D01*
X60460257Y-6852600D02*
X60693192Y-7085535D01*
X44542200Y-10779000D02*
X48468600Y-6852600D01*
X61189665Y-7085535D02*
X66553400Y-1721800D01*
X61191078Y-7085535D02*
X61543135Y-6733478D01*
X60693192Y-7085535D02*
X61191078Y-7085535D01*
X74995557Y-1721800D02*
X77667800Y-1721800D01*
X55067200Y-6852600D02*
X60460257Y-6852600D01*
X66553400Y-1721800D02*
X75488800Y-1721800D01*
X48468600Y-6852600D02*
X55500300Y-6852600D01*
X77667800Y-1721800D02*
X79080000Y-3134000D01*
%TO.N,/Display Interface/SPI.MISO*%
X62788800Y-6350000D02*
X65125600Y-6350000D01*
X61010800Y-6299200D02*
X61010800Y-6350000D01*
X61010800Y-6350000D02*
X60909200Y-6451600D01*
X69352800Y-2122800D02*
X77213500Y-2122800D01*
X60909200Y-6451600D02*
X47955200Y-6451600D01*
X44427800Y-9979000D02*
X43255000Y-9979000D01*
X47955200Y-6451600D02*
X44427800Y-9979000D01*
X78580000Y-3489300D02*
X78580000Y-7404000D01*
X77213500Y-2122800D02*
X78580000Y-3489300D01*
X65125600Y-6350000D02*
X69352800Y-2122800D01*
%TO.N,Net-(U5-PA8)*%
X41080000Y-4604000D02*
X41080000Y-3931543D01*
X41080000Y-3931543D02*
X39282057Y-2133600D01*
X23215600Y-2133600D02*
X22504400Y-2844800D01*
X39282057Y-2133600D02*
X23215600Y-2133600D01*
%TO.N,Net-(U5-PA9)*%
X39176999Y-2751000D02*
X25951000Y-2751000D01*
X40280000Y-4604000D02*
X40280000Y-3854001D01*
X25951000Y-2751000D02*
X25400000Y-3302000D01*
X40280000Y-3854001D02*
X39176999Y-2751000D01*
%TO.N,Net-(U5-PA10)*%
X39480000Y-4604000D02*
X39480000Y-3854001D01*
X29258400Y-3152000D02*
X27838400Y-4572000D01*
X27838400Y-4572000D02*
X27889200Y-4521200D01*
X39480000Y-3854001D02*
X38777999Y-3152000D01*
X38777999Y-3152000D02*
X29258400Y-3152000D01*
%TO.N,Net-(U5-PB5)*%
X34905000Y-8379000D02*
X32661400Y-8379000D01*
X32661400Y-8379000D02*
X32308800Y-8026400D01*
%TO.N,Net-(U5-PB6)*%
X34905000Y-9179000D02*
X32343800Y-9179000D01*
X32343800Y-9179000D02*
X31851600Y-8686800D01*
%TD*%
%TA.AperFunction,Conductor*%
%TO.N,+5V*%
G36*
X51559749Y-26334085D02*
G01*
X51605504Y-26386889D01*
X51615448Y-26456047D01*
X51598248Y-26503497D01*
X51563846Y-26559269D01*
X51563841Y-26559280D01*
X51508694Y-26725702D01*
X51508693Y-26725709D01*
X51498200Y-26828413D01*
X51498200Y-27103400D01*
X52461700Y-27103400D01*
X52528739Y-27123085D01*
X52574494Y-27175889D01*
X52585700Y-27227400D01*
X52585700Y-27353400D01*
X52711700Y-27353400D01*
X52778739Y-27373085D01*
X52824494Y-27425889D01*
X52835700Y-27477400D01*
X52835700Y-28578399D01*
X52872019Y-28614718D01*
X52868935Y-28617801D01*
X52897605Y-28650888D01*
X52907549Y-28720046D01*
X52878524Y-28783602D01*
X52819746Y-28821376D01*
X52811329Y-28823417D01*
X52811332Y-28823427D01*
X52808475Y-28824119D01*
X52716266Y-28851194D01*
X52716257Y-28851199D01*
X52591664Y-28923137D01*
X52591658Y-28923140D01*
X52536739Y-28966332D01*
X52437456Y-29070460D01*
X52387688Y-29166998D01*
X52371527Y-29198347D01*
X52368565Y-29206907D01*
X52348674Y-29264380D01*
X52321448Y-29405655D01*
X52263292Y-30626944D01*
X52261627Y-30661900D01*
X52260128Y-30693369D01*
X52257875Y-30740691D01*
X52193463Y-32093342D01*
X52189675Y-32172899D01*
X52189675Y-32172900D01*
X52115828Y-33723678D01*
X52078683Y-34503713D01*
X52078683Y-34503714D01*
X52083183Y-34599161D01*
X52083184Y-34599177D01*
X52083185Y-34599179D01*
X52089782Y-34645393D01*
X52091510Y-34652562D01*
X52112172Y-34738309D01*
X52177839Y-34866330D01*
X52217980Y-34922945D01*
X52218248Y-34923326D01*
X52317328Y-35027665D01*
X52441784Y-35099859D01*
X52441788Y-35099861D01*
X52506596Y-35125960D01*
X52523208Y-35130026D01*
X52524029Y-35130502D01*
X52524978Y-35130473D01*
X52554181Y-35147992D01*
X52583646Y-35165084D01*
X52584079Y-35165928D01*
X52584893Y-35166417D01*
X52599982Y-35196931D01*
X52615536Y-35227252D01*
X52615582Y-35228478D01*
X52615864Y-35229047D01*
X52616953Y-35264324D01*
X52590384Y-35500653D01*
X52563333Y-35565074D01*
X52505748Y-35604643D01*
X52467160Y-35610800D01*
X45028048Y-35610800D01*
X44961009Y-35591115D01*
X44915254Y-35538311D01*
X44904089Y-35489993D01*
X44898277Y-35264324D01*
X44882522Y-34652562D01*
X44900473Y-34585043D01*
X44939438Y-34545061D01*
X44991743Y-34511447D01*
X45044547Y-34465692D01*
X45138767Y-34356958D01*
X45198538Y-34226081D01*
X45218223Y-34159042D01*
X45218224Y-34159038D01*
X45238700Y-34016622D01*
X45238700Y-32117386D01*
X48857201Y-32117386D01*
X48867694Y-32220097D01*
X48922841Y-32386519D01*
X48922843Y-32386524D01*
X49014884Y-32535745D01*
X49138854Y-32659715D01*
X49288075Y-32751756D01*
X49288080Y-32751758D01*
X49454502Y-32806905D01*
X49454509Y-32806906D01*
X49557219Y-32817399D01*
X50107199Y-32817399D01*
X50607200Y-32817399D01*
X51157172Y-32817399D01*
X51157186Y-32817398D01*
X51259897Y-32806905D01*
X51426319Y-32751758D01*
X51426324Y-32751756D01*
X51575545Y-32659715D01*
X51699515Y-32535745D01*
X51791556Y-32386524D01*
X51791558Y-32386519D01*
X51846705Y-32220097D01*
X51846706Y-32220090D01*
X51857199Y-32117386D01*
X51857200Y-32117373D01*
X51857200Y-31667400D01*
X50607200Y-31667400D01*
X50607200Y-32817399D01*
X50107199Y-32817399D01*
X50107200Y-32817398D01*
X50107200Y-31667400D01*
X48857201Y-31667400D01*
X48857201Y-32117386D01*
X45238700Y-32117386D01*
X45238700Y-30717413D01*
X48857200Y-30717413D01*
X48857200Y-31167400D01*
X50107200Y-31167400D01*
X50607200Y-31167400D01*
X51857199Y-31167400D01*
X51857199Y-30717428D01*
X51857198Y-30717413D01*
X51846705Y-30614702D01*
X51791558Y-30448280D01*
X51791556Y-30448275D01*
X51699515Y-30299054D01*
X51575545Y-30175084D01*
X51426324Y-30083043D01*
X51426319Y-30083041D01*
X51259897Y-30027894D01*
X51259890Y-30027893D01*
X51157186Y-30017400D01*
X50607200Y-30017400D01*
X50607200Y-31167400D01*
X50107200Y-31167400D01*
X50107200Y-30017400D01*
X49557228Y-30017400D01*
X49557212Y-30017401D01*
X49454502Y-30027894D01*
X49288080Y-30083041D01*
X49288075Y-30083043D01*
X49138854Y-30175084D01*
X49014884Y-30299054D01*
X48922843Y-30448275D01*
X48922841Y-30448280D01*
X48867694Y-30614702D01*
X48867693Y-30614709D01*
X48857200Y-30717413D01*
X45238700Y-30717413D01*
X45238700Y-30243400D01*
X45258385Y-30176361D01*
X45311189Y-30130606D01*
X45362700Y-30119400D01*
X45620700Y-30119400D01*
X45620700Y-29443400D01*
X45640385Y-29376361D01*
X45693189Y-29330606D01*
X45744700Y-29319400D01*
X45996700Y-29319400D01*
X46063739Y-29339085D01*
X46109494Y-29391889D01*
X46120700Y-29443400D01*
X46120700Y-30119400D01*
X46448834Y-30119400D01*
X46448849Y-30119399D01*
X46485689Y-30116500D01*
X46491921Y-30115362D01*
X46492326Y-30117580D01*
X46551940Y-30117745D01*
X46610613Y-30155682D01*
X46634382Y-30197621D01*
X46659652Y-30273881D01*
X46659657Y-30273892D01*
X46748624Y-30418128D01*
X46748627Y-30418132D01*
X46868467Y-30537972D01*
X46868471Y-30537975D01*
X47012707Y-30626942D01*
X47012718Y-30626947D01*
X47173593Y-30680255D01*
X47272883Y-30690399D01*
X47821200Y-30690399D01*
X47869508Y-30690399D01*
X47869522Y-30690398D01*
X47968807Y-30680255D01*
X48129681Y-30626947D01*
X48129688Y-30626944D01*
X48159224Y-30608726D01*
X48159225Y-30608725D01*
X48273928Y-30537975D01*
X48273932Y-30537972D01*
X48393772Y-30418132D01*
X48393775Y-30418128D01*
X48482742Y-30273892D01*
X48482747Y-30273881D01*
X48536055Y-30113006D01*
X48546199Y-30013722D01*
X48546200Y-30013709D01*
X48546200Y-29990400D01*
X47821200Y-29990400D01*
X47821200Y-30690399D01*
X47272883Y-30690399D01*
X47321199Y-30690398D01*
X47321200Y-30690398D01*
X47321200Y-29864400D01*
X47340885Y-29797361D01*
X47393689Y-29751606D01*
X47445200Y-29740400D01*
X47571200Y-29740400D01*
X47571200Y-29614400D01*
X47590885Y-29547361D01*
X47643689Y-29501606D01*
X47695200Y-29490400D01*
X48546199Y-29490400D01*
X48546199Y-29467092D01*
X48546198Y-29467077D01*
X48536055Y-29367792D01*
X48482747Y-29206918D01*
X48482742Y-29206907D01*
X48393775Y-29062671D01*
X48393772Y-29062667D01*
X48384539Y-29053434D01*
X48351054Y-28992111D01*
X48356038Y-28922419D01*
X48384543Y-28878068D01*
X48394168Y-28868444D01*
X48483203Y-28724097D01*
X48536549Y-28563108D01*
X48546700Y-28463745D01*
X48546699Y-28049178D01*
X48566383Y-27982140D01*
X48601806Y-27946078D01*
X48668689Y-27901389D01*
X48691692Y-27878386D01*
X51498201Y-27878386D01*
X51508694Y-27981097D01*
X51563841Y-28147519D01*
X51563843Y-28147524D01*
X51655884Y-28296745D01*
X51779854Y-28420715D01*
X51929075Y-28512756D01*
X51929080Y-28512758D01*
X52095502Y-28567905D01*
X52095509Y-28567906D01*
X52198219Y-28578399D01*
X52335699Y-28578399D01*
X52335700Y-28578398D01*
X52335700Y-27603400D01*
X51498201Y-27603400D01*
X51498201Y-27878386D01*
X48691692Y-27878386D01*
X48780189Y-27789889D01*
X48867794Y-27658779D01*
X48928137Y-27513097D01*
X48958900Y-27358442D01*
X48958900Y-27200758D01*
X48958900Y-27200755D01*
X48958899Y-27200753D01*
X48928138Y-27046110D01*
X48928137Y-27046103D01*
X48928135Y-27046098D01*
X48867797Y-26900427D01*
X48867790Y-26900414D01*
X48780189Y-26769311D01*
X48780186Y-26769307D01*
X48668692Y-26657813D01*
X48668688Y-26657810D01*
X48624827Y-26628503D01*
X48615779Y-26617676D01*
X48603593Y-26610568D01*
X48593820Y-26591401D01*
X48580022Y-26574891D01*
X48577635Y-26559659D01*
X48571855Y-26548323D01*
X48570334Y-26513061D01*
X48579035Y-26426060D01*
X48605293Y-26361312D01*
X48662388Y-26321039D01*
X48702419Y-26314400D01*
X51492710Y-26314400D01*
X51559749Y-26334085D01*
G37*
%TD.AperFunction*%
%TD*%
%TA.AperFunction,Conductor*%
%TO.N,GND*%
G36*
X57206282Y-25281319D02*
G01*
X57210685Y-25280269D01*
X57239683Y-25290427D01*
X57269324Y-25298509D01*
X57273079Y-25302125D01*
X57276626Y-25303368D01*
X57302078Y-25327819D01*
X57304879Y-25331408D01*
X57321579Y-25356383D01*
X57336365Y-25372833D01*
X57336859Y-25372388D01*
X57345399Y-25383332D01*
X57345571Y-25383553D01*
X57372228Y-25417872D01*
X57372230Y-25417873D01*
X57372232Y-25417876D01*
X57408306Y-25443892D01*
X57423378Y-25454762D01*
X57430310Y-25460144D01*
X57478744Y-25500591D01*
X57494846Y-25507592D01*
X57518604Y-25517923D01*
X57526643Y-25521767D01*
X57531223Y-25524163D01*
X57531223Y-25524164D01*
X57550792Y-25534403D01*
X57551092Y-25534561D01*
X57554957Y-25536607D01*
X57554657Y-25537172D01*
X57596450Y-25554483D01*
X57596450Y-25554484D01*
X57684852Y-25591100D01*
X57706287Y-25602558D01*
X57734297Y-25621273D01*
X57753084Y-25636691D01*
X57776904Y-25660510D01*
X57792325Y-25679300D01*
X57811040Y-25707309D01*
X57822499Y-25728748D01*
X57835388Y-25759865D01*
X57842444Y-25783125D01*
X57861230Y-25877567D01*
X57862172Y-25882192D01*
X57862599Y-25884249D01*
X57863538Y-25888660D01*
X57863543Y-25888675D01*
X57878807Y-25929601D01*
X57884170Y-25943980D01*
X57883438Y-25944198D01*
X57889758Y-25965555D01*
X57902858Y-25994082D01*
X57904454Y-25998360D01*
X57913819Y-26023469D01*
X57913823Y-26023478D01*
X57927701Y-26048893D01*
X57931554Y-26056570D01*
X57949797Y-26096294D01*
X57949799Y-26096298D01*
X57956957Y-26107385D01*
X57975898Y-26130839D01*
X57986810Y-26146738D01*
X57998086Y-26166268D01*
X58014701Y-26228271D01*
X58014701Y-26307237D01*
X58014700Y-26307264D01*
X58014700Y-26343633D01*
X58019845Y-26415574D01*
X58024866Y-26450502D01*
X58024868Y-26450509D01*
X58040192Y-26520959D01*
X58054249Y-26551744D01*
X58076523Y-26615685D01*
X58098324Y-26648267D01*
X58099956Y-26651840D01*
X58100721Y-26653031D01*
X58100725Y-26653039D01*
X58111586Y-26669938D01*
X58111590Y-26669945D01*
X58132226Y-26702060D01*
X58132238Y-26702073D01*
X58136729Y-26709061D01*
X58137514Y-26710325D01*
X58137753Y-26710655D01*
X58137755Y-26710658D01*
X58139404Y-26712561D01*
X58139864Y-26713568D01*
X58140919Y-26715023D01*
X58140626Y-26715235D01*
X58168436Y-26776112D01*
X58169700Y-26793773D01*
X58169700Y-27483400D01*
X58150015Y-27550439D01*
X58097211Y-27596194D01*
X58045700Y-27607400D01*
X57919700Y-27607400D01*
X57919700Y-27733400D01*
X57900015Y-27800439D01*
X57847211Y-27846194D01*
X57795700Y-27857400D01*
X56832201Y-27857400D01*
X56832201Y-28132386D01*
X56842694Y-28235097D01*
X56897841Y-28401519D01*
X56897843Y-28401524D01*
X56989884Y-28550745D01*
X57113855Y-28674716D01*
X57113857Y-28674717D01*
X57115709Y-28675860D01*
X57116712Y-28676975D01*
X57119523Y-28679198D01*
X57119143Y-28679678D01*
X57162435Y-28727806D01*
X57173659Y-28796769D01*
X57145817Y-28860851D01*
X57087750Y-28899709D01*
X57050615Y-28905400D01*
X56987550Y-28905400D01*
X56950710Y-28908299D01*
X56950704Y-28908300D01*
X56793003Y-28954117D01*
X56788185Y-28956202D01*
X56718841Y-28964756D01*
X56657744Y-28936110D01*
X56623034Y-28906033D01*
X56623033Y-28906032D01*
X56623029Y-28906030D01*
X56492163Y-28846264D01*
X56492158Y-28846262D01*
X56492157Y-28846262D01*
X56425118Y-28826577D01*
X56425120Y-28826577D01*
X56425115Y-28826576D01*
X56346241Y-28815236D01*
X56282698Y-28806100D01*
X55691841Y-28806100D01*
X55691839Y-28806100D01*
X55637790Y-28808997D01*
X55637789Y-28808997D01*
X55611456Y-28811829D01*
X55611429Y-28811832D01*
X55558033Y-28820485D01*
X55558031Y-28820485D01*
X55423223Y-28870767D01*
X55361897Y-28904253D01*
X55284593Y-28962121D01*
X55279176Y-28965954D01*
X55217088Y-29007440D01*
X55195650Y-29018899D01*
X55164531Y-29031789D01*
X55141271Y-29038845D01*
X55124540Y-29042173D01*
X55108231Y-29045417D01*
X55084041Y-29047800D01*
X55050359Y-29047800D01*
X55026170Y-29045417D01*
X54993124Y-29038844D01*
X54969867Y-29031788D01*
X54938747Y-29018898D01*
X54917308Y-29007439D01*
X54882742Y-28984342D01*
X54868774Y-28973492D01*
X54859048Y-28964756D01*
X54847421Y-28954312D01*
X54847418Y-28954309D01*
X54826773Y-28937673D01*
X54782895Y-28906033D01*
X54652021Y-28846263D01*
X54648043Y-28845095D01*
X54584979Y-28826577D01*
X54584981Y-28826577D01*
X54584976Y-28826576D01*
X54460826Y-28808726D01*
X54397270Y-28779701D01*
X54359496Y-28720923D01*
X54359496Y-28651053D01*
X54390792Y-28598307D01*
X54410700Y-28578399D01*
X54910700Y-28578399D01*
X55048172Y-28578399D01*
X55048186Y-28578398D01*
X55150897Y-28567905D01*
X55317319Y-28512758D01*
X55317324Y-28512756D01*
X55466545Y-28420715D01*
X55590515Y-28296745D01*
X55682556Y-28147524D01*
X55682558Y-28147519D01*
X55737705Y-27981097D01*
X55737706Y-27981090D01*
X55748199Y-27878386D01*
X55748200Y-27878373D01*
X55748200Y-27603400D01*
X54910700Y-27603400D01*
X54910700Y-28578399D01*
X54410700Y-28578399D01*
X54410700Y-27103400D01*
X54910700Y-27103400D01*
X55748199Y-27103400D01*
X55748199Y-27082413D01*
X56832200Y-27082413D01*
X56832200Y-27357400D01*
X57669700Y-27357400D01*
X57669700Y-26382400D01*
X57532227Y-26382400D01*
X57532212Y-26382401D01*
X57429502Y-26392894D01*
X57263080Y-26448041D01*
X57263075Y-26448043D01*
X57113854Y-26540084D01*
X56989884Y-26664054D01*
X56897843Y-26813275D01*
X56897841Y-26813280D01*
X56842694Y-26979702D01*
X56842693Y-26979709D01*
X56832200Y-27082413D01*
X55748199Y-27082413D01*
X55748199Y-26828428D01*
X55748198Y-26828413D01*
X55737705Y-26725702D01*
X55682558Y-26559280D01*
X55682556Y-26559275D01*
X55590515Y-26410054D01*
X55466545Y-26286084D01*
X55317324Y-26194043D01*
X55317319Y-26194041D01*
X55150897Y-26138894D01*
X55150890Y-26138893D01*
X55048186Y-26128400D01*
X54910700Y-26128400D01*
X54910700Y-27103400D01*
X54410700Y-27103400D01*
X54410700Y-26128400D01*
X54273227Y-26128400D01*
X54273209Y-26128401D01*
X54178701Y-26138056D01*
X54110008Y-26125286D01*
X54059124Y-26077405D01*
X54042100Y-26014698D01*
X54042100Y-25463100D01*
X54061785Y-25396061D01*
X54114589Y-25350306D01*
X54163686Y-25339124D01*
X57201917Y-25280129D01*
X57206282Y-25281319D01*
G37*
%TD.AperFunction*%
%TD*%
%TA.AperFunction,Conductor*%
%TO.N,Net-(U1-SW)*%
G36*
X54509598Y-29331285D02*
G01*
X54530240Y-29347919D01*
X54556907Y-29374586D01*
X54556911Y-29374589D01*
X54688014Y-29462190D01*
X54688027Y-29462197D01*
X54754441Y-29489706D01*
X54833703Y-29522537D01*
X54988353Y-29553299D01*
X54988356Y-29553300D01*
X54988358Y-29553300D01*
X55146044Y-29553300D01*
X55146045Y-29553299D01*
X55300697Y-29522537D01*
X55446379Y-29462194D01*
X55577489Y-29374589D01*
X55588403Y-29363675D01*
X55604160Y-29347919D01*
X55665483Y-29314434D01*
X55691841Y-29311600D01*
X56282698Y-29311600D01*
X56349737Y-29331285D01*
X56395492Y-29384089D01*
X56404449Y-29446384D01*
X56406099Y-29446514D01*
X56402700Y-29489698D01*
X56402700Y-29921101D01*
X56405601Y-29957967D01*
X56405602Y-29957973D01*
X56451454Y-30115793D01*
X56451456Y-30115799D01*
X56452626Y-30117777D01*
X56453069Y-30119526D01*
X56454553Y-30122954D01*
X56453999Y-30123193D01*
X56469803Y-30185502D01*
X56462984Y-30221692D01*
X56436427Y-30297907D01*
X56417918Y-30323783D01*
X56400801Y-30350587D01*
X56397740Y-30351995D01*
X56395780Y-30354736D01*
X56366220Y-30366497D01*
X56337328Y-30379792D01*
X56333992Y-30379322D01*
X56330861Y-30380568D01*
X56299637Y-30374482D01*
X56268141Y-30370045D01*
X56265588Y-30367845D01*
X56262281Y-30367201D01*
X56239305Y-30345201D01*
X56215208Y-30324441D01*
X56213793Y-30322202D01*
X56199515Y-30299054D01*
X56075545Y-30175084D01*
X55926324Y-30083043D01*
X55926319Y-30083041D01*
X55759897Y-30027894D01*
X55759890Y-30027893D01*
X55657186Y-30017400D01*
X55107200Y-30017400D01*
X55107200Y-32817399D01*
X55657172Y-32817399D01*
X55657186Y-32817398D01*
X55759897Y-32806905D01*
X55926319Y-32751758D01*
X55926326Y-32751755D01*
X55950314Y-32736959D01*
X56017706Y-32718518D01*
X56084370Y-32739440D01*
X56129140Y-32793081D01*
X56137802Y-32862412D01*
X56131209Y-32883823D01*
X56131925Y-32884061D01*
X56076344Y-33051793D01*
X56066200Y-33151077D01*
X56066200Y-33199400D01*
X56892200Y-33199400D01*
X56959239Y-33219085D01*
X57004994Y-33271889D01*
X57016200Y-33323400D01*
X57016200Y-33449400D01*
X57142200Y-33449400D01*
X57209239Y-33469085D01*
X57254994Y-33521889D01*
X57266200Y-33573400D01*
X57266200Y-34424399D01*
X57289508Y-34424399D01*
X57289522Y-34424398D01*
X57388807Y-34414255D01*
X57549681Y-34360947D01*
X57549690Y-34360943D01*
X57609417Y-34324102D01*
X57618159Y-34321709D01*
X57625122Y-34315901D01*
X57651335Y-34312630D01*
X57676809Y-34305660D01*
X57685457Y-34308374D01*
X57694454Y-34307252D01*
X57718272Y-34318672D01*
X57743473Y-34326581D01*
X57749281Y-34333540D01*
X57757456Y-34337460D01*
X57771317Y-34359941D01*
X57788244Y-34380222D01*
X57790338Y-34390792D01*
X57794125Y-34396934D01*
X57798494Y-34431957D01*
X57796361Y-34546046D01*
X57775427Y-34612706D01*
X57760065Y-34631409D01*
X57671494Y-34719981D01*
X57610171Y-34753466D01*
X57583812Y-34756300D01*
X53718709Y-34756300D01*
X53706669Y-34755714D01*
X52695432Y-34657056D01*
X52630620Y-34630955D01*
X52590209Y-34573958D01*
X52583612Y-34527744D01*
X52589841Y-34396934D01*
X52620756Y-33747722D01*
X56066201Y-33747722D01*
X56076344Y-33847007D01*
X56129652Y-34007881D01*
X56129657Y-34007892D01*
X56218624Y-34152128D01*
X56218627Y-34152132D01*
X56338467Y-34271972D01*
X56338471Y-34271975D01*
X56482707Y-34360942D01*
X56482718Y-34360947D01*
X56643593Y-34414255D01*
X56742883Y-34424399D01*
X56766200Y-34424398D01*
X56766200Y-33699400D01*
X56066201Y-33699400D01*
X56066201Y-33747722D01*
X52620756Y-33747722D01*
X52698391Y-32117386D01*
X53357201Y-32117386D01*
X53367694Y-32220097D01*
X53422841Y-32386519D01*
X53422843Y-32386524D01*
X53514884Y-32535745D01*
X53638854Y-32659715D01*
X53788075Y-32751756D01*
X53788080Y-32751758D01*
X53954502Y-32806905D01*
X53954509Y-32806906D01*
X54057219Y-32817399D01*
X54607199Y-32817399D01*
X54607200Y-32817398D01*
X54607200Y-31667400D01*
X53357201Y-31667400D01*
X53357201Y-32117386D01*
X52698391Y-32117386D01*
X52765056Y-30717413D01*
X53357200Y-30717413D01*
X53357200Y-31167400D01*
X54607200Y-31167400D01*
X54607200Y-30017400D01*
X54057228Y-30017400D01*
X54057212Y-30017401D01*
X53954502Y-30027894D01*
X53788080Y-30083041D01*
X53788075Y-30083043D01*
X53638854Y-30175084D01*
X53514884Y-30299054D01*
X53422843Y-30448275D01*
X53422841Y-30448280D01*
X53367694Y-30614702D01*
X53367693Y-30614709D01*
X53357200Y-30717413D01*
X52765056Y-30717413D01*
X52826376Y-29429701D01*
X52849227Y-29363675D01*
X52904148Y-29320483D01*
X52950236Y-29311600D01*
X54442559Y-29311600D01*
X54509598Y-29331285D01*
G37*
%TD.AperFunction*%
%TD*%
%TA.AperFunction,Conductor*%
%TO.N,+3V3*%
G36*
X39981019Y-28346433D02*
G01*
X39989942Y-28346640D01*
X40754430Y-28364411D01*
X40820990Y-28385648D01*
X40865506Y-28439501D01*
X40873840Y-28508871D01*
X40857084Y-28553474D01*
X40821654Y-28610913D01*
X40821652Y-28610918D01*
X40768344Y-28771793D01*
X40758200Y-28871077D01*
X40758200Y-28894400D01*
X42714200Y-28894400D01*
X42781239Y-28914085D01*
X42826994Y-28966889D01*
X42838200Y-29018400D01*
X42838200Y-29069400D01*
X43471700Y-29069400D01*
X43538739Y-29089085D01*
X43584494Y-29141889D01*
X43595700Y-29193400D01*
X43595700Y-29319400D01*
X43721700Y-29319400D01*
X43788739Y-29339085D01*
X43834494Y-29391889D01*
X43845700Y-29443400D01*
X43845700Y-30119400D01*
X44173834Y-30119400D01*
X44173849Y-30119399D01*
X44210689Y-30116500D01*
X44210695Y-30116499D01*
X44368393Y-30070683D01*
X44368396Y-30070682D01*
X44509752Y-29987085D01*
X44509761Y-29987078D01*
X44521519Y-29975321D01*
X44582842Y-29941836D01*
X44652534Y-29946820D01*
X44708467Y-29988692D01*
X44732884Y-30054156D01*
X44733200Y-30063002D01*
X44733200Y-34016622D01*
X44713515Y-34083661D01*
X44660711Y-34129416D01*
X44612259Y-34140584D01*
X38685349Y-34286837D01*
X38617844Y-34268812D01*
X38570801Y-34217153D01*
X38558295Y-34161817D01*
X38598843Y-29417722D01*
X40758201Y-29417722D01*
X40768344Y-29517007D01*
X40821652Y-29677881D01*
X40821657Y-29677892D01*
X40910624Y-29822128D01*
X40910627Y-29822132D01*
X41030467Y-29941972D01*
X41030471Y-29941975D01*
X41174707Y-30030942D01*
X41174718Y-30030947D01*
X41335593Y-30084255D01*
X41434883Y-30094399D01*
X41983200Y-30094399D01*
X42031508Y-30094399D01*
X42031522Y-30094398D01*
X42130807Y-30084255D01*
X42291681Y-30030947D01*
X42291692Y-30030942D01*
X42435929Y-29941974D01*
X42448549Y-29929355D01*
X42509871Y-29895869D01*
X42579563Y-29900851D01*
X42623915Y-29929353D01*
X42681642Y-29987081D01*
X42681647Y-29987085D01*
X42823003Y-30070682D01*
X42823006Y-30070683D01*
X42980704Y-30116499D01*
X42980710Y-30116500D01*
X43017550Y-30119399D01*
X43017566Y-30119400D01*
X43345700Y-30119400D01*
X43345700Y-29569400D01*
X42427200Y-29569400D01*
X42360161Y-29549715D01*
X42314406Y-29496911D01*
X42303200Y-29445400D01*
X42303200Y-29394400D01*
X41983200Y-29394400D01*
X41983200Y-30094399D01*
X41434883Y-30094399D01*
X41483199Y-30094398D01*
X41483200Y-30094398D01*
X41483200Y-29394400D01*
X40758201Y-29394400D01*
X40758201Y-29417722D01*
X38598843Y-29417722D01*
X38606949Y-28469339D01*
X38627205Y-28402471D01*
X38680399Y-28357169D01*
X38730944Y-28346400D01*
X39978138Y-28346400D01*
X39981019Y-28346433D01*
G37*
%TD.AperFunction*%
%TD*%
%TA.AperFunction,Conductor*%
%TO.N,/Display Interface/Backlight_Switch*%
G36*
X84829500Y-30494701D02*
G01*
X84832401Y-30531567D01*
X84832402Y-30531573D01*
X84836000Y-30543957D01*
X84836000Y-31209000D01*
X84836000Y-33033802D01*
X84816315Y-33100841D01*
X84799681Y-33121483D01*
X83455671Y-34465492D01*
X83394348Y-34498977D01*
X83373013Y-34501709D01*
X81078387Y-34594735D01*
X81075228Y-34594823D01*
X74454706Y-34694380D01*
X74387379Y-34675706D01*
X74340835Y-34623596D01*
X74329103Y-34562362D01*
X74425510Y-33077694D01*
X75430001Y-33077694D01*
X75445546Y-33215677D01*
X75506764Y-33390628D01*
X75605375Y-33547565D01*
X75736434Y-33678624D01*
X75893370Y-33777234D01*
X76068319Y-33838452D01*
X76068324Y-33838453D01*
X76206308Y-33853999D01*
X78829999Y-33853999D01*
X79330000Y-33853999D01*
X81953689Y-33853999D01*
X81953694Y-33853998D01*
X82091677Y-33838453D01*
X82266628Y-33777235D01*
X82423565Y-33678624D01*
X82554624Y-33547565D01*
X82653234Y-33390629D01*
X82714452Y-33215680D01*
X82714453Y-33215675D01*
X82729999Y-33077693D01*
X82730000Y-33077689D01*
X82730000Y-32529000D01*
X79330000Y-32529000D01*
X79330000Y-33853999D01*
X78829999Y-33853999D01*
X78830000Y-33853998D01*
X78830000Y-32529000D01*
X75430001Y-32529000D01*
X75430001Y-33077694D01*
X74425510Y-33077694D01*
X74567234Y-30895142D01*
X74591221Y-30829522D01*
X74646879Y-30787285D01*
X74684838Y-30779332D01*
X75575216Y-30735254D01*
X75643145Y-30751599D01*
X75691454Y-30802076D01*
X75704805Y-30870659D01*
X75678958Y-30935572D01*
X75669027Y-30946783D01*
X75605374Y-31010436D01*
X75506765Y-31167370D01*
X75445547Y-31342319D01*
X75445546Y-31342324D01*
X75430000Y-31480306D01*
X75430000Y-32029000D01*
X82729999Y-32029000D01*
X82729999Y-31480311D01*
X82729998Y-31480305D01*
X82714453Y-31342322D01*
X82653235Y-31167371D01*
X82554624Y-31010434D01*
X82423565Y-30879375D01*
X82266629Y-30780765D01*
X82091680Y-30719547D01*
X82091675Y-30719546D01*
X81953693Y-30704000D01*
X81219206Y-30704000D01*
X81152167Y-30684315D01*
X81106412Y-30631511D01*
X81096468Y-30562353D01*
X81125493Y-30498797D01*
X81184271Y-30461023D01*
X81213068Y-30456153D01*
X83749871Y-30330568D01*
X83817800Y-30346913D01*
X83866109Y-30397390D01*
X83880000Y-30454416D01*
X83880000Y-30494649D01*
X83882899Y-30531489D01*
X83882900Y-30531495D01*
X83928716Y-30689193D01*
X83928717Y-30689196D01*
X84012314Y-30830552D01*
X84012321Y-30830561D01*
X84128438Y-30946678D01*
X84128447Y-30946685D01*
X84269801Y-31030281D01*
X84427514Y-31076100D01*
X84427511Y-31076100D01*
X84429998Y-31076295D01*
X84430000Y-31076295D01*
X84430000Y-30296899D01*
X84829500Y-30277121D01*
X84829500Y-30494701D01*
G37*
%TD.AperFunction*%
%TD*%
%TA.AperFunction,Conductor*%
%TO.N,+12V*%
G36*
X57971692Y-24217138D02*
G01*
X58157882Y-24403328D01*
X58157883Y-24403328D01*
X58176333Y-24377935D01*
X58176336Y-24377930D01*
X58208060Y-24315667D01*
X58256033Y-24264870D01*
X58323854Y-24248074D01*
X58329288Y-24248427D01*
X61620389Y-24536399D01*
X61620400Y-24536400D01*
X72455928Y-24717709D01*
X72478031Y-24720074D01*
X72505876Y-24725612D01*
X72514357Y-24727300D01*
X72514358Y-24727300D01*
X72672045Y-24727300D01*
X72679657Y-24725785D01*
X72686734Y-24724377D01*
X72712990Y-24722011D01*
X73633688Y-24737417D01*
X73663689Y-24741622D01*
X73787323Y-24774750D01*
X73945437Y-24774750D01*
X74277597Y-24774750D01*
X74277613Y-24774751D01*
X74285209Y-24774751D01*
X74443321Y-24774751D01*
X74443323Y-24774751D01*
X74510095Y-24756859D01*
X74544240Y-24752653D01*
X79753170Y-24839814D01*
X79819867Y-24860617D01*
X79864732Y-24914179D01*
X79866404Y-24918199D01*
X79982234Y-25211544D01*
X79988546Y-25281128D01*
X79956236Y-25343079D01*
X79947780Y-25351076D01*
X79940343Y-25357475D01*
X79932956Y-25362032D01*
X79920047Y-25374940D01*
X79916527Y-25377970D01*
X79888747Y-25390541D01*
X79862000Y-25405146D01*
X79857231Y-25404804D01*
X79852873Y-25406777D01*
X79822710Y-25402334D01*
X79792308Y-25400159D01*
X79787660Y-25397172D01*
X79783748Y-25396596D01*
X79775313Y-25389236D01*
X79747965Y-25371660D01*
X79738732Y-25362427D01*
X79738728Y-25362424D01*
X79594492Y-25273457D01*
X79594481Y-25273452D01*
X79433606Y-25220144D01*
X79334322Y-25210000D01*
X79311000Y-25210000D01*
X79311000Y-26438398D01*
X79327166Y-26468004D01*
X79330000Y-26494362D01*
X79330000Y-27879000D01*
X82729999Y-27879000D01*
X82729999Y-27330311D01*
X82729998Y-27330305D01*
X82714453Y-27192322D01*
X82653235Y-27017371D01*
X82554624Y-26860434D01*
X82475815Y-26781625D01*
X82442330Y-26720302D01*
X82447314Y-26650610D01*
X82475813Y-26606264D01*
X82562189Y-26519889D01*
X82622298Y-26429928D01*
X82624134Y-26428394D01*
X82624935Y-26426137D01*
X82650799Y-26406109D01*
X82675908Y-26385126D01*
X82678874Y-26384371D01*
X82680179Y-26383361D01*
X82714534Y-26375298D01*
X82960962Y-26353634D01*
X83029463Y-26367371D01*
X83059498Y-26389476D01*
X83712396Y-27042374D01*
X83712406Y-27042385D01*
X83716736Y-27046715D01*
X83716737Y-27046716D01*
X83828541Y-27158520D01*
X83828543Y-27158521D01*
X83831483Y-27160777D01*
X83833334Y-27163312D01*
X83834288Y-27164266D01*
X83834139Y-27164414D01*
X83872688Y-27217203D01*
X83880000Y-27259155D01*
X83880000Y-27391500D01*
X84556000Y-27391500D01*
X84623039Y-27411185D01*
X84668794Y-27463989D01*
X84680000Y-27515500D01*
X84680000Y-27767500D01*
X84660315Y-27834539D01*
X84607511Y-27880294D01*
X84556000Y-27891500D01*
X83880000Y-27891500D01*
X83880000Y-28219649D01*
X83882899Y-28256489D01*
X83882900Y-28256495D01*
X83928716Y-28414193D01*
X83928717Y-28414196D01*
X84012314Y-28555552D01*
X84012321Y-28555561D01*
X84128438Y-28671678D01*
X84128447Y-28671685D01*
X84128939Y-28671976D01*
X84129245Y-28672304D01*
X84134607Y-28676463D01*
X84133936Y-28677327D01*
X84176624Y-28723044D01*
X84189129Y-28791786D01*
X84162484Y-28856376D01*
X84134141Y-28880937D01*
X84134298Y-28881139D01*
X84130592Y-28884012D01*
X84128953Y-28885434D01*
X84128142Y-28885913D01*
X84128129Y-28885923D01*
X84011923Y-29002129D01*
X84011917Y-29002137D01*
X83928255Y-29143603D01*
X83928254Y-29143606D01*
X83882402Y-29301426D01*
X83882401Y-29301432D01*
X83879500Y-29338298D01*
X83879500Y-29704010D01*
X83859815Y-29771049D01*
X83807011Y-29816804D01*
X83743946Y-29827470D01*
X83724877Y-29825686D01*
X83724874Y-29825686D01*
X83724873Y-29825686D01*
X82222437Y-29900064D01*
X82154506Y-29883719D01*
X82106197Y-29833241D01*
X82092846Y-29764659D01*
X82118693Y-29699746D01*
X82175352Y-29659174D01*
X82266628Y-29627235D01*
X82423565Y-29528624D01*
X82554624Y-29397565D01*
X82653234Y-29240629D01*
X82714452Y-29065680D01*
X82714453Y-29065675D01*
X82729999Y-28927693D01*
X82730000Y-28927689D01*
X82730000Y-28379000D01*
X79330000Y-28379000D01*
X79330000Y-29703999D01*
X81174657Y-29703999D01*
X81241696Y-29723684D01*
X81287451Y-29776488D01*
X81297395Y-29845646D01*
X81268370Y-29909202D01*
X81209592Y-29946976D01*
X81188084Y-29951270D01*
X81188075Y-29951270D01*
X81188074Y-29951271D01*
X81183807Y-29951735D01*
X81128794Y-29957727D01*
X81128763Y-29957732D01*
X81100009Y-29962594D01*
X81099985Y-29962599D01*
X81099980Y-29962600D01*
X81076537Y-29968004D01*
X81041856Y-29975999D01*
X80976418Y-30005883D01*
X80910979Y-30035768D01*
X80886099Y-30051756D01*
X80852471Y-30073368D01*
X80852469Y-30073369D01*
X80852201Y-30073542D01*
X80852199Y-30073544D01*
X80743461Y-30167765D01*
X80709990Y-30219846D01*
X80701295Y-30228786D01*
X80681282Y-30240075D01*
X80663918Y-30255121D01*
X80648870Y-30258359D01*
X80640440Y-30263116D01*
X80629661Y-30262494D01*
X80611868Y-30266325D01*
X75710071Y-30244927D01*
X75697907Y-30243898D01*
X75697880Y-30244193D01*
X75550223Y-30230371D01*
X75296307Y-30242941D01*
X75289635Y-30243092D01*
X73067139Y-30233390D01*
X73000186Y-30213413D01*
X72964577Y-30178281D01*
X72960987Y-30172908D01*
X72849492Y-30061413D01*
X72849488Y-30061410D01*
X72718385Y-29973809D01*
X72718372Y-29973802D01*
X72572701Y-29913464D01*
X72572689Y-29913461D01*
X72418045Y-29882700D01*
X72418042Y-29882700D01*
X72260358Y-29882700D01*
X72260355Y-29882700D01*
X72105710Y-29913461D01*
X72105698Y-29913464D01*
X71960027Y-29973802D01*
X71960014Y-29973809D01*
X71828911Y-30061410D01*
X71828907Y-30061413D01*
X71717417Y-30172904D01*
X71713553Y-30177613D01*
X71712405Y-30176671D01*
X71664431Y-30216753D01*
X71614416Y-30227049D01*
X71382295Y-30226036D01*
X71374000Y-30226000D01*
X71373999Y-30226000D01*
X71373996Y-30226000D01*
X61133363Y-31047138D01*
X61064965Y-31032875D01*
X61015136Y-30983897D01*
X60999696Y-30915755D01*
X60999834Y-30913808D01*
X61000495Y-30905400D01*
X60735015Y-30905400D01*
X60671894Y-30888132D01*
X60643084Y-30871094D01*
X60613598Y-30853656D01*
X60613597Y-30853655D01*
X60613596Y-30853655D01*
X60613593Y-30853654D01*
X60455773Y-30807802D01*
X60455767Y-30807801D01*
X60418901Y-30804900D01*
X60418894Y-30804900D01*
X59964700Y-30804900D01*
X59897661Y-30785215D01*
X59851906Y-30732411D01*
X59840700Y-30680900D01*
X59840700Y-30655400D01*
X59714700Y-30655400D01*
X59647661Y-30635715D01*
X59601906Y-30582911D01*
X59590700Y-30531400D01*
X59590700Y-30405400D01*
X60090700Y-30405400D01*
X61000495Y-30405400D01*
X61000495Y-30405398D01*
X61000300Y-30402913D01*
X60954482Y-30245204D01*
X60953490Y-30243527D01*
X60953111Y-30242035D01*
X60951385Y-30238046D01*
X60952028Y-30237767D01*
X60936304Y-30175804D01*
X60951824Y-30122944D01*
X60951385Y-30122754D01*
X60952926Y-30119192D01*
X60953490Y-30117273D01*
X60954482Y-30115595D01*
X61000300Y-29957886D01*
X61000495Y-29955401D01*
X61000495Y-29955400D01*
X60090700Y-29955400D01*
X60090700Y-30405400D01*
X59590700Y-30405400D01*
X59590700Y-28962400D01*
X60090700Y-28962400D01*
X60090700Y-29455400D01*
X61000495Y-29455400D01*
X61000495Y-29455398D01*
X61000300Y-29452913D01*
X60954481Y-29295201D01*
X60870885Y-29153847D01*
X60870878Y-29153838D01*
X60754761Y-29037721D01*
X60754755Y-29037717D01*
X60654384Y-28978357D01*
X60607081Y-28927694D01*
X75430001Y-28927694D01*
X75445546Y-29065677D01*
X75506764Y-29240628D01*
X75605375Y-29397565D01*
X75736434Y-29528624D01*
X75893370Y-29627234D01*
X76068319Y-29688452D01*
X76068324Y-29688453D01*
X76206308Y-29703999D01*
X78829999Y-29703999D01*
X78830000Y-29703998D01*
X78830000Y-28379000D01*
X75430001Y-28379000D01*
X75430001Y-28927694D01*
X60607081Y-28927694D01*
X60606701Y-28927287D01*
X60594198Y-28858546D01*
X60620844Y-28793956D01*
X60652410Y-28766086D01*
X60800543Y-28674717D01*
X60924515Y-28550745D01*
X61016556Y-28401524D01*
X61016558Y-28401519D01*
X61053965Y-28288634D01*
X61071705Y-28235097D01*
X61071706Y-28235090D01*
X61082199Y-28132386D01*
X61082200Y-28132373D01*
X61082200Y-27857400D01*
X60244700Y-27857400D01*
X60244700Y-28838400D01*
X60225015Y-28905439D01*
X60172211Y-28951194D01*
X60120700Y-28962400D01*
X60090700Y-28962400D01*
X59590700Y-28962400D01*
X59590700Y-28899400D01*
X59610385Y-28832361D01*
X59663189Y-28786606D01*
X59714700Y-28775400D01*
X59744700Y-28775400D01*
X59744700Y-27357400D01*
X60244700Y-27357400D01*
X61082199Y-27357400D01*
X61082199Y-27330306D01*
X75430000Y-27330306D01*
X75430000Y-27879000D01*
X78830000Y-27879000D01*
X78830000Y-27275601D01*
X78813834Y-27245996D01*
X78811000Y-27219638D01*
X78811000Y-26435000D01*
X78111001Y-26435000D01*
X78108922Y-26437078D01*
X78091316Y-26497039D01*
X78038512Y-26542794D01*
X77987001Y-26554000D01*
X76206311Y-26554000D01*
X76206305Y-26554001D01*
X76068322Y-26569546D01*
X75893371Y-26630764D01*
X75736434Y-26729375D01*
X75605375Y-26860434D01*
X75506765Y-27017370D01*
X75445547Y-27192319D01*
X75445546Y-27192324D01*
X75430000Y-27330306D01*
X61082199Y-27330306D01*
X61082199Y-27082428D01*
X61082198Y-27082413D01*
X61071705Y-26979702D01*
X61016558Y-26813280D01*
X61016556Y-26813275D01*
X60924515Y-26664054D01*
X60800545Y-26540084D01*
X60651324Y-26448043D01*
X60651319Y-26448041D01*
X60484897Y-26392894D01*
X60484890Y-26392893D01*
X60382186Y-26382400D01*
X60244700Y-26382400D01*
X60244700Y-27357400D01*
X59744700Y-27357400D01*
X59744700Y-26382400D01*
X59607227Y-26382400D01*
X59607212Y-26382401D01*
X59504502Y-26392894D01*
X59338080Y-26448041D01*
X59338075Y-26448043D01*
X59188854Y-26540084D01*
X59064883Y-26664055D01*
X59064879Y-26664060D01*
X59063026Y-26667065D01*
X59061218Y-26668690D01*
X59060402Y-26669723D01*
X59060225Y-26669583D01*
X59011074Y-26713785D01*
X58942111Y-26725001D01*
X58878031Y-26697152D01*
X58851953Y-26667053D01*
X58851937Y-26667028D01*
X58849912Y-26663744D01*
X58725856Y-26539688D01*
X58579102Y-26449170D01*
X58572278Y-26441583D01*
X58562997Y-26437345D01*
X58549308Y-26416045D01*
X58532379Y-26397223D01*
X58529734Y-26385587D01*
X58525223Y-26378567D01*
X58520200Y-26343632D01*
X58520200Y-26309560D01*
X58520201Y-26309547D01*
X58520201Y-26141445D01*
X58520201Y-26141443D01*
X58479277Y-25988715D01*
X58420365Y-25886677D01*
X78111000Y-25886677D01*
X78111000Y-25935000D01*
X78811000Y-25935000D01*
X78811000Y-25209999D01*
X78787693Y-25210000D01*
X78787674Y-25210001D01*
X78688392Y-25220144D01*
X78527518Y-25273452D01*
X78527507Y-25273457D01*
X78383271Y-25362424D01*
X78383267Y-25362427D01*
X78263427Y-25482267D01*
X78263424Y-25482271D01*
X78174457Y-25626507D01*
X78174452Y-25626518D01*
X78121144Y-25787393D01*
X78111000Y-25886677D01*
X58420365Y-25886677D01*
X58400220Y-25851784D01*
X58381638Y-25833202D01*
X58374480Y-25822115D01*
X58368160Y-25800758D01*
X58357488Y-25781214D01*
X58357037Y-25779047D01*
X58326697Y-25626518D01*
X58326137Y-25623703D01*
X58276974Y-25505012D01*
X58265797Y-25478027D01*
X58265790Y-25478014D01*
X58178189Y-25346911D01*
X58178186Y-25346907D01*
X58066692Y-25235413D01*
X58066688Y-25235410D01*
X57935585Y-25147809D01*
X57935572Y-25147802D01*
X57789901Y-25087464D01*
X57789892Y-25087461D01*
X57785169Y-25086522D01*
X57765569Y-25076267D01*
X57744238Y-25070424D01*
X57735216Y-25060387D01*
X57723260Y-25054132D01*
X57712316Y-25034911D01*
X57697530Y-25018461D01*
X57690888Y-24997274D01*
X57688690Y-24993414D01*
X57686981Y-24984832D01*
X57677086Y-24923903D01*
X57685770Y-24854580D01*
X57730557Y-24800952D01*
X57743190Y-24793545D01*
X57778937Y-24775331D01*
X57804328Y-24756883D01*
X57804328Y-24756882D01*
X57620028Y-24572582D01*
X57556400Y-24180800D01*
X57971692Y-24217138D01*
G37*
%TD.AperFunction*%
%TD*%
M02*
