%TF.GenerationSoftware,KiCad,Pcbnew,9.0.6*%
%TF.CreationDate,2026-04-28T20:33:00-07:00*%
%TF.ProjectId,steering_wheel,73746565-7269-46e6-975f-776865656c2e,rev?*%
%TF.SameCoordinates,Original*%
%TF.FileFunction,Legend,Bot*%
%TF.FilePolarity,Positive*%
%FSLAX46Y46*%
G04 Gerber Fmt 4.6, Leading zero omitted, Abs format (unit mm)*
G04 Created by KiCad (PCBNEW 9.0.6) date 2026-04-28 20:33:00*
%MOMM*%
%LPD*%
G01*
G04 APERTURE LIST*
%ADD10C,0.152400*%
%ADD11C,0.508000*%
%ADD12C,0.120000*%
%ADD13C,0.000000*%
%ADD14C,0.100000*%
%ADD15C,0.200000*%
G04 APERTURE END LIST*
D10*
X30862095Y-725095D02*
X30281523Y-725095D01*
X30571809Y-1741095D02*
X30571809Y-725095D01*
X29942857Y-1741095D02*
X29942857Y-725095D01*
X29942857Y-725095D02*
X29555809Y-725095D01*
X29555809Y-725095D02*
X29459047Y-773476D01*
X29459047Y-773476D02*
X29410666Y-821857D01*
X29410666Y-821857D02*
X29362285Y-918619D01*
X29362285Y-918619D02*
X29362285Y-1063762D01*
X29362285Y-1063762D02*
X29410666Y-1160524D01*
X29410666Y-1160524D02*
X29459047Y-1208905D01*
X29459047Y-1208905D02*
X29555809Y-1257286D01*
X29555809Y-1257286D02*
X29942857Y-1257286D01*
X28443047Y-725095D02*
X28926857Y-725095D01*
X28926857Y-725095D02*
X28975238Y-1208905D01*
X28975238Y-1208905D02*
X28926857Y-1160524D01*
X28926857Y-1160524D02*
X28830095Y-1112143D01*
X28830095Y-1112143D02*
X28588190Y-1112143D01*
X28588190Y-1112143D02*
X28491428Y-1160524D01*
X28491428Y-1160524D02*
X28443047Y-1208905D01*
X28443047Y-1208905D02*
X28394666Y-1305667D01*
X28394666Y-1305667D02*
X28394666Y-1547572D01*
X28394666Y-1547572D02*
X28443047Y-1644334D01*
X28443047Y-1644334D02*
X28491428Y-1692715D01*
X28491428Y-1692715D02*
X28588190Y-1741095D01*
X28588190Y-1741095D02*
X28830095Y-1741095D01*
X28830095Y-1741095D02*
X28926857Y-1692715D01*
X28926857Y-1692715D02*
X28975238Y-1644334D01*
X21862095Y-725095D02*
X21281523Y-725095D01*
X21571809Y-1741095D02*
X21571809Y-725095D01*
X20942857Y-1741095D02*
X20942857Y-725095D01*
X20942857Y-725095D02*
X20555809Y-725095D01*
X20555809Y-725095D02*
X20459047Y-773476D01*
X20459047Y-773476D02*
X20410666Y-821857D01*
X20410666Y-821857D02*
X20362285Y-918619D01*
X20362285Y-918619D02*
X20362285Y-1063762D01*
X20362285Y-1063762D02*
X20410666Y-1160524D01*
X20410666Y-1160524D02*
X20459047Y-1208905D01*
X20459047Y-1208905D02*
X20555809Y-1257286D01*
X20555809Y-1257286D02*
X20942857Y-1257286D01*
X19394666Y-1741095D02*
X19975238Y-1741095D01*
X19684952Y-1741095D02*
X19684952Y-725095D01*
X19684952Y-725095D02*
X19781714Y-870238D01*
X19781714Y-870238D02*
X19878476Y-967000D01*
X19878476Y-967000D02*
X19975238Y-1015381D01*
X27862095Y-725095D02*
X27281523Y-725095D01*
X27571809Y-1741095D02*
X27571809Y-725095D01*
X26942857Y-1741095D02*
X26942857Y-725095D01*
X26942857Y-725095D02*
X26555809Y-725095D01*
X26555809Y-725095D02*
X26459047Y-773476D01*
X26459047Y-773476D02*
X26410666Y-821857D01*
X26410666Y-821857D02*
X26362285Y-918619D01*
X26362285Y-918619D02*
X26362285Y-1063762D01*
X26362285Y-1063762D02*
X26410666Y-1160524D01*
X26410666Y-1160524D02*
X26459047Y-1208905D01*
X26459047Y-1208905D02*
X26555809Y-1257286D01*
X26555809Y-1257286D02*
X26942857Y-1257286D01*
X26023619Y-725095D02*
X25394666Y-725095D01*
X25394666Y-725095D02*
X25733333Y-1112143D01*
X25733333Y-1112143D02*
X25588190Y-1112143D01*
X25588190Y-1112143D02*
X25491428Y-1160524D01*
X25491428Y-1160524D02*
X25443047Y-1208905D01*
X25443047Y-1208905D02*
X25394666Y-1305667D01*
X25394666Y-1305667D02*
X25394666Y-1547572D01*
X25394666Y-1547572D02*
X25443047Y-1644334D01*
X25443047Y-1644334D02*
X25491428Y-1692715D01*
X25491428Y-1692715D02*
X25588190Y-1741095D01*
X25588190Y-1741095D02*
X25878476Y-1741095D01*
X25878476Y-1741095D02*
X25975238Y-1692715D01*
X25975238Y-1692715D02*
X26023619Y-1644334D01*
X7494754Y-15901566D02*
X7494754Y-16385376D01*
X7785039Y-15804804D02*
X6769039Y-16143471D01*
X6769039Y-16143471D02*
X7785039Y-16482138D01*
X7785039Y-16820804D02*
X7107706Y-16820804D01*
X7301230Y-16820804D02*
X7204468Y-16869185D01*
X7204468Y-16869185D02*
X7156087Y-16917566D01*
X7156087Y-16917566D02*
X7107706Y-17014328D01*
X7107706Y-17014328D02*
X7107706Y-17111090D01*
X7736659Y-17885185D02*
X7785039Y-17788423D01*
X7785039Y-17788423D02*
X7785039Y-17594899D01*
X7785039Y-17594899D02*
X7736659Y-17498137D01*
X7736659Y-17498137D02*
X7688278Y-17449756D01*
X7688278Y-17449756D02*
X7591516Y-17401375D01*
X7591516Y-17401375D02*
X7301230Y-17401375D01*
X7301230Y-17401375D02*
X7204468Y-17449756D01*
X7204468Y-17449756D02*
X7156087Y-17498137D01*
X7156087Y-17498137D02*
X7107706Y-17594899D01*
X7107706Y-17594899D02*
X7107706Y-17788423D01*
X7107706Y-17788423D02*
X7156087Y-17885185D01*
X7785039Y-18320613D02*
X6769039Y-18320613D01*
X7785039Y-18756042D02*
X7252849Y-18756042D01*
X7252849Y-18756042D02*
X7156087Y-18707661D01*
X7156087Y-18707661D02*
X7107706Y-18610899D01*
X7107706Y-18610899D02*
X7107706Y-18465756D01*
X7107706Y-18465756D02*
X7156087Y-18368994D01*
X7156087Y-18368994D02*
X7204468Y-18320613D01*
X7785039Y-19239851D02*
X7107706Y-19239851D01*
X6769039Y-19239851D02*
X6817420Y-19191470D01*
X6817420Y-19191470D02*
X6865801Y-19239851D01*
X6865801Y-19239851D02*
X6817420Y-19288232D01*
X6817420Y-19288232D02*
X6769039Y-19239851D01*
X6769039Y-19239851D02*
X6865801Y-19239851D01*
X7107706Y-19578518D02*
X7107706Y-19965566D01*
X6769039Y-19723661D02*
X7639897Y-19723661D01*
X7639897Y-19723661D02*
X7736659Y-19772042D01*
X7736659Y-19772042D02*
X7785039Y-19868804D01*
X7785039Y-19868804D02*
X7785039Y-19965566D01*
X7736659Y-20691280D02*
X7785039Y-20594518D01*
X7785039Y-20594518D02*
X7785039Y-20400994D01*
X7785039Y-20400994D02*
X7736659Y-20304232D01*
X7736659Y-20304232D02*
X7639897Y-20255851D01*
X7639897Y-20255851D02*
X7252849Y-20255851D01*
X7252849Y-20255851D02*
X7156087Y-20304232D01*
X7156087Y-20304232D02*
X7107706Y-20400994D01*
X7107706Y-20400994D02*
X7107706Y-20594518D01*
X7107706Y-20594518D02*
X7156087Y-20691280D01*
X7156087Y-20691280D02*
X7252849Y-20739661D01*
X7252849Y-20739661D02*
X7349611Y-20739661D01*
X7349611Y-20739661D02*
X7446373Y-20255851D01*
X7736659Y-21610518D02*
X7785039Y-21513756D01*
X7785039Y-21513756D02*
X7785039Y-21320232D01*
X7785039Y-21320232D02*
X7736659Y-21223470D01*
X7736659Y-21223470D02*
X7688278Y-21175089D01*
X7688278Y-21175089D02*
X7591516Y-21126708D01*
X7591516Y-21126708D02*
X7301230Y-21126708D01*
X7301230Y-21126708D02*
X7204468Y-21175089D01*
X7204468Y-21175089D02*
X7156087Y-21223470D01*
X7156087Y-21223470D02*
X7107706Y-21320232D01*
X7107706Y-21320232D02*
X7107706Y-21513756D01*
X7107706Y-21513756D02*
X7156087Y-21610518D01*
X7107706Y-21900803D02*
X7107706Y-22287851D01*
X6769039Y-22045946D02*
X7639897Y-22045946D01*
X7639897Y-22045946D02*
X7736659Y-22094327D01*
X7736659Y-22094327D02*
X7785039Y-22191089D01*
X7785039Y-22191089D02*
X7785039Y-22287851D01*
X7688278Y-22626517D02*
X7736659Y-22674898D01*
X7736659Y-22674898D02*
X7785039Y-22626517D01*
X7785039Y-22626517D02*
X7736659Y-22578136D01*
X7736659Y-22578136D02*
X7688278Y-22626517D01*
X7688278Y-22626517D02*
X7785039Y-22626517D01*
X7156087Y-22626517D02*
X7204468Y-22674898D01*
X7204468Y-22674898D02*
X7252849Y-22626517D01*
X7252849Y-22626517D02*
X7204468Y-22578136D01*
X7204468Y-22578136D02*
X7156087Y-22626517D01*
X7156087Y-22626517D02*
X7252849Y-22626517D01*
X7785039Y-23884422D02*
X6769039Y-23884422D01*
X6769039Y-23884422D02*
X7785039Y-24464994D01*
X7785039Y-24464994D02*
X6769039Y-24464994D01*
X7785039Y-25093946D02*
X7736659Y-24997184D01*
X7736659Y-24997184D02*
X7688278Y-24948803D01*
X7688278Y-24948803D02*
X7591516Y-24900422D01*
X7591516Y-24900422D02*
X7301230Y-24900422D01*
X7301230Y-24900422D02*
X7204468Y-24948803D01*
X7204468Y-24948803D02*
X7156087Y-24997184D01*
X7156087Y-24997184D02*
X7107706Y-25093946D01*
X7107706Y-25093946D02*
X7107706Y-25239089D01*
X7107706Y-25239089D02*
X7156087Y-25335851D01*
X7156087Y-25335851D02*
X7204468Y-25384232D01*
X7204468Y-25384232D02*
X7301230Y-25432613D01*
X7301230Y-25432613D02*
X7591516Y-25432613D01*
X7591516Y-25432613D02*
X7688278Y-25384232D01*
X7688278Y-25384232D02*
X7736659Y-25335851D01*
X7736659Y-25335851D02*
X7785039Y-25239089D01*
X7785039Y-25239089D02*
X7785039Y-25093946D01*
X7107706Y-25771279D02*
X7785039Y-26013184D01*
X7785039Y-26013184D02*
X7107706Y-26255089D01*
X7785039Y-27077565D02*
X7252849Y-27077565D01*
X7252849Y-27077565D02*
X7156087Y-27029184D01*
X7156087Y-27029184D02*
X7107706Y-26932422D01*
X7107706Y-26932422D02*
X7107706Y-26738898D01*
X7107706Y-26738898D02*
X7156087Y-26642136D01*
X7736659Y-27077565D02*
X7785039Y-26980803D01*
X7785039Y-26980803D02*
X7785039Y-26738898D01*
X7785039Y-26738898D02*
X7736659Y-26642136D01*
X7736659Y-26642136D02*
X7639897Y-26593755D01*
X7639897Y-26593755D02*
X7543135Y-26593755D01*
X7543135Y-26593755D02*
X7446373Y-26642136D01*
X7446373Y-26642136D02*
X7397992Y-26738898D01*
X7397992Y-26738898D02*
X7397992Y-26980803D01*
X7397992Y-26980803D02*
X7349611Y-27077565D01*
X7785039Y-28335469D02*
X6769039Y-28335469D01*
X6769039Y-28335469D02*
X7494754Y-28674136D01*
X7494754Y-28674136D02*
X6769039Y-29012803D01*
X6769039Y-29012803D02*
X7785039Y-29012803D01*
X7785039Y-29641755D02*
X7736659Y-29544993D01*
X7736659Y-29544993D02*
X7688278Y-29496612D01*
X7688278Y-29496612D02*
X7591516Y-29448231D01*
X7591516Y-29448231D02*
X7301230Y-29448231D01*
X7301230Y-29448231D02*
X7204468Y-29496612D01*
X7204468Y-29496612D02*
X7156087Y-29544993D01*
X7156087Y-29544993D02*
X7107706Y-29641755D01*
X7107706Y-29641755D02*
X7107706Y-29786898D01*
X7107706Y-29786898D02*
X7156087Y-29883660D01*
X7156087Y-29883660D02*
X7204468Y-29932041D01*
X7204468Y-29932041D02*
X7301230Y-29980422D01*
X7301230Y-29980422D02*
X7591516Y-29980422D01*
X7591516Y-29980422D02*
X7688278Y-29932041D01*
X7688278Y-29932041D02*
X7736659Y-29883660D01*
X7736659Y-29883660D02*
X7785039Y-29786898D01*
X7785039Y-29786898D02*
X7785039Y-29641755D01*
X7107706Y-30415850D02*
X7785039Y-30415850D01*
X7204468Y-30415850D02*
X7156087Y-30464231D01*
X7156087Y-30464231D02*
X7107706Y-30560993D01*
X7107706Y-30560993D02*
X7107706Y-30706136D01*
X7107706Y-30706136D02*
X7156087Y-30802898D01*
X7156087Y-30802898D02*
X7252849Y-30851279D01*
X7252849Y-30851279D02*
X7785039Y-30851279D01*
X7785039Y-31770517D02*
X6769039Y-31770517D01*
X7736659Y-31770517D02*
X7785039Y-31673755D01*
X7785039Y-31673755D02*
X7785039Y-31480231D01*
X7785039Y-31480231D02*
X7736659Y-31383469D01*
X7736659Y-31383469D02*
X7688278Y-31335088D01*
X7688278Y-31335088D02*
X7591516Y-31286707D01*
X7591516Y-31286707D02*
X7301230Y-31286707D01*
X7301230Y-31286707D02*
X7204468Y-31335088D01*
X7204468Y-31335088D02*
X7156087Y-31383469D01*
X7156087Y-31383469D02*
X7107706Y-31480231D01*
X7107706Y-31480231D02*
X7107706Y-31673755D01*
X7107706Y-31673755D02*
X7156087Y-31770517D01*
X7785039Y-32689755D02*
X7252849Y-32689755D01*
X7252849Y-32689755D02*
X7156087Y-32641374D01*
X7156087Y-32641374D02*
X7107706Y-32544612D01*
X7107706Y-32544612D02*
X7107706Y-32351088D01*
X7107706Y-32351088D02*
X7156087Y-32254326D01*
X7736659Y-32689755D02*
X7785039Y-32592993D01*
X7785039Y-32592993D02*
X7785039Y-32351088D01*
X7785039Y-32351088D02*
X7736659Y-32254326D01*
X7736659Y-32254326D02*
X7639897Y-32205945D01*
X7639897Y-32205945D02*
X7543135Y-32205945D01*
X7543135Y-32205945D02*
X7446373Y-32254326D01*
X7446373Y-32254326D02*
X7397992Y-32351088D01*
X7397992Y-32351088D02*
X7397992Y-32592993D01*
X7397992Y-32592993D02*
X7349611Y-32689755D01*
X7785039Y-33318707D02*
X7736659Y-33221945D01*
X7736659Y-33221945D02*
X7639897Y-33173564D01*
X7639897Y-33173564D02*
X6769039Y-33173564D01*
X4204849Y-16288614D02*
X4204849Y-15949947D01*
X4737039Y-15949947D02*
X3721039Y-15949947D01*
X3721039Y-15949947D02*
X3721039Y-16433757D01*
X4737039Y-16965947D02*
X4688659Y-16869185D01*
X4688659Y-16869185D02*
X4640278Y-16820804D01*
X4640278Y-16820804D02*
X4543516Y-16772423D01*
X4543516Y-16772423D02*
X4253230Y-16772423D01*
X4253230Y-16772423D02*
X4156468Y-16820804D01*
X4156468Y-16820804D02*
X4108087Y-16869185D01*
X4108087Y-16869185D02*
X4059706Y-16965947D01*
X4059706Y-16965947D02*
X4059706Y-17111090D01*
X4059706Y-17111090D02*
X4108087Y-17207852D01*
X4108087Y-17207852D02*
X4156468Y-17256233D01*
X4156468Y-17256233D02*
X4253230Y-17304614D01*
X4253230Y-17304614D02*
X4543516Y-17304614D01*
X4543516Y-17304614D02*
X4640278Y-17256233D01*
X4640278Y-17256233D02*
X4688659Y-17207852D01*
X4688659Y-17207852D02*
X4737039Y-17111090D01*
X4737039Y-17111090D02*
X4737039Y-16965947D01*
X4737039Y-17740042D02*
X4059706Y-17740042D01*
X4253230Y-17740042D02*
X4156468Y-17788423D01*
X4156468Y-17788423D02*
X4108087Y-17836804D01*
X4108087Y-17836804D02*
X4059706Y-17933566D01*
X4059706Y-17933566D02*
X4059706Y-18030328D01*
X4737039Y-18368994D02*
X4059706Y-18368994D01*
X4156468Y-18368994D02*
X4108087Y-18417375D01*
X4108087Y-18417375D02*
X4059706Y-18514137D01*
X4059706Y-18514137D02*
X4059706Y-18659280D01*
X4059706Y-18659280D02*
X4108087Y-18756042D01*
X4108087Y-18756042D02*
X4204849Y-18804423D01*
X4204849Y-18804423D02*
X4737039Y-18804423D01*
X4204849Y-18804423D02*
X4108087Y-18852804D01*
X4108087Y-18852804D02*
X4059706Y-18949566D01*
X4059706Y-18949566D02*
X4059706Y-19094709D01*
X4059706Y-19094709D02*
X4108087Y-19191470D01*
X4108087Y-19191470D02*
X4204849Y-19239851D01*
X4204849Y-19239851D02*
X4737039Y-19239851D01*
X4059706Y-20159090D02*
X4737039Y-20159090D01*
X4059706Y-19723661D02*
X4591897Y-19723661D01*
X4591897Y-19723661D02*
X4688659Y-19772042D01*
X4688659Y-19772042D02*
X4737039Y-19868804D01*
X4737039Y-19868804D02*
X4737039Y-20013947D01*
X4737039Y-20013947D02*
X4688659Y-20110709D01*
X4688659Y-20110709D02*
X4640278Y-20159090D01*
X4737039Y-20788042D02*
X4688659Y-20691280D01*
X4688659Y-20691280D02*
X4591897Y-20642899D01*
X4591897Y-20642899D02*
X3721039Y-20642899D01*
X4737039Y-21610518D02*
X4204849Y-21610518D01*
X4204849Y-21610518D02*
X4108087Y-21562137D01*
X4108087Y-21562137D02*
X4059706Y-21465375D01*
X4059706Y-21465375D02*
X4059706Y-21271851D01*
X4059706Y-21271851D02*
X4108087Y-21175089D01*
X4688659Y-21610518D02*
X4737039Y-21513756D01*
X4737039Y-21513756D02*
X4737039Y-21271851D01*
X4737039Y-21271851D02*
X4688659Y-21175089D01*
X4688659Y-21175089D02*
X4591897Y-21126708D01*
X4591897Y-21126708D02*
X4495135Y-21126708D01*
X4495135Y-21126708D02*
X4398373Y-21175089D01*
X4398373Y-21175089D02*
X4349992Y-21271851D01*
X4349992Y-21271851D02*
X4349992Y-21513756D01*
X4349992Y-21513756D02*
X4301611Y-21610518D01*
X4688659Y-22820041D02*
X4737039Y-22965184D01*
X4737039Y-22965184D02*
X4737039Y-23207089D01*
X4737039Y-23207089D02*
X4688659Y-23303851D01*
X4688659Y-23303851D02*
X4640278Y-23352232D01*
X4640278Y-23352232D02*
X4543516Y-23400613D01*
X4543516Y-23400613D02*
X4446754Y-23400613D01*
X4446754Y-23400613D02*
X4349992Y-23352232D01*
X4349992Y-23352232D02*
X4301611Y-23303851D01*
X4301611Y-23303851D02*
X4253230Y-23207089D01*
X4253230Y-23207089D02*
X4204849Y-23013565D01*
X4204849Y-23013565D02*
X4156468Y-22916803D01*
X4156468Y-22916803D02*
X4108087Y-22868422D01*
X4108087Y-22868422D02*
X4011325Y-22820041D01*
X4011325Y-22820041D02*
X3914563Y-22820041D01*
X3914563Y-22820041D02*
X3817801Y-22868422D01*
X3817801Y-22868422D02*
X3769420Y-22916803D01*
X3769420Y-22916803D02*
X3721039Y-23013565D01*
X3721039Y-23013565D02*
X3721039Y-23255470D01*
X3721039Y-23255470D02*
X3769420Y-23400613D01*
X4737039Y-23981184D02*
X4688659Y-23884422D01*
X4688659Y-23884422D02*
X4591897Y-23836041D01*
X4591897Y-23836041D02*
X3721039Y-23836041D01*
X4059706Y-24803660D02*
X4737039Y-24803660D01*
X4059706Y-24368231D02*
X4591897Y-24368231D01*
X4591897Y-24368231D02*
X4688659Y-24416612D01*
X4688659Y-24416612D02*
X4737039Y-24513374D01*
X4737039Y-24513374D02*
X4737039Y-24658517D01*
X4737039Y-24658517D02*
X4688659Y-24755279D01*
X4688659Y-24755279D02*
X4640278Y-24803660D01*
X4059706Y-25722898D02*
X4882182Y-25722898D01*
X4882182Y-25722898D02*
X4978944Y-25674517D01*
X4978944Y-25674517D02*
X5027325Y-25626136D01*
X5027325Y-25626136D02*
X5075706Y-25529374D01*
X5075706Y-25529374D02*
X5075706Y-25384231D01*
X5075706Y-25384231D02*
X5027325Y-25287469D01*
X4688659Y-25722898D02*
X4737039Y-25626136D01*
X4737039Y-25626136D02*
X4737039Y-25432612D01*
X4737039Y-25432612D02*
X4688659Y-25335850D01*
X4688659Y-25335850D02*
X4640278Y-25287469D01*
X4640278Y-25287469D02*
X4543516Y-25239088D01*
X4543516Y-25239088D02*
X4253230Y-25239088D01*
X4253230Y-25239088D02*
X4156468Y-25287469D01*
X4156468Y-25287469D02*
X4108087Y-25335850D01*
X4108087Y-25335850D02*
X4059706Y-25432612D01*
X4059706Y-25432612D02*
X4059706Y-25626136D01*
X4059706Y-25626136D02*
X4108087Y-25722898D01*
X5728849Y-16288614D02*
X5728849Y-15949947D01*
X6261039Y-15949947D02*
X5245039Y-15949947D01*
X5245039Y-15949947D02*
X5245039Y-16433757D01*
X6212659Y-16772423D02*
X6261039Y-16917566D01*
X6261039Y-16917566D02*
X6261039Y-17159471D01*
X6261039Y-17159471D02*
X6212659Y-17256233D01*
X6212659Y-17256233D02*
X6164278Y-17304614D01*
X6164278Y-17304614D02*
X6067516Y-17352995D01*
X6067516Y-17352995D02*
X5970754Y-17352995D01*
X5970754Y-17352995D02*
X5873992Y-17304614D01*
X5873992Y-17304614D02*
X5825611Y-17256233D01*
X5825611Y-17256233D02*
X5777230Y-17159471D01*
X5777230Y-17159471D02*
X5728849Y-16965947D01*
X5728849Y-16965947D02*
X5680468Y-16869185D01*
X5680468Y-16869185D02*
X5632087Y-16820804D01*
X5632087Y-16820804D02*
X5535325Y-16772423D01*
X5535325Y-16772423D02*
X5438563Y-16772423D01*
X5438563Y-16772423D02*
X5341801Y-16820804D01*
X5341801Y-16820804D02*
X5293420Y-16869185D01*
X5293420Y-16869185D02*
X5245039Y-16965947D01*
X5245039Y-16965947D02*
X5245039Y-17207852D01*
X5245039Y-17207852D02*
X5293420Y-17352995D01*
X5873992Y-17788423D02*
X5873992Y-18562519D01*
X5583706Y-19481757D02*
X6261039Y-19481757D01*
X5196659Y-19239852D02*
X5922373Y-18997947D01*
X5922373Y-18997947D02*
X5922373Y-19626900D01*
X6212659Y-20739661D02*
X6261039Y-20884804D01*
X6261039Y-20884804D02*
X6261039Y-21126709D01*
X6261039Y-21126709D02*
X6212659Y-21223471D01*
X6212659Y-21223471D02*
X6164278Y-21271852D01*
X6164278Y-21271852D02*
X6067516Y-21320233D01*
X6067516Y-21320233D02*
X5970754Y-21320233D01*
X5970754Y-21320233D02*
X5873992Y-21271852D01*
X5873992Y-21271852D02*
X5825611Y-21223471D01*
X5825611Y-21223471D02*
X5777230Y-21126709D01*
X5777230Y-21126709D02*
X5728849Y-20933185D01*
X5728849Y-20933185D02*
X5680468Y-20836423D01*
X5680468Y-20836423D02*
X5632087Y-20788042D01*
X5632087Y-20788042D02*
X5535325Y-20739661D01*
X5535325Y-20739661D02*
X5438563Y-20739661D01*
X5438563Y-20739661D02*
X5341801Y-20788042D01*
X5341801Y-20788042D02*
X5293420Y-20836423D01*
X5293420Y-20836423D02*
X5245039Y-20933185D01*
X5245039Y-20933185D02*
X5245039Y-21175090D01*
X5245039Y-21175090D02*
X5293420Y-21320233D01*
X5583706Y-21610518D02*
X5583706Y-21997566D01*
X5245039Y-21755661D02*
X6115897Y-21755661D01*
X6115897Y-21755661D02*
X6212659Y-21804042D01*
X6212659Y-21804042D02*
X6261039Y-21900804D01*
X6261039Y-21900804D02*
X6261039Y-21997566D01*
X6212659Y-22723280D02*
X6261039Y-22626518D01*
X6261039Y-22626518D02*
X6261039Y-22432994D01*
X6261039Y-22432994D02*
X6212659Y-22336232D01*
X6212659Y-22336232D02*
X6115897Y-22287851D01*
X6115897Y-22287851D02*
X5728849Y-22287851D01*
X5728849Y-22287851D02*
X5632087Y-22336232D01*
X5632087Y-22336232D02*
X5583706Y-22432994D01*
X5583706Y-22432994D02*
X5583706Y-22626518D01*
X5583706Y-22626518D02*
X5632087Y-22723280D01*
X5632087Y-22723280D02*
X5728849Y-22771661D01*
X5728849Y-22771661D02*
X5825611Y-22771661D01*
X5825611Y-22771661D02*
X5922373Y-22287851D01*
X6212659Y-23594137D02*
X6261039Y-23497375D01*
X6261039Y-23497375D02*
X6261039Y-23303851D01*
X6261039Y-23303851D02*
X6212659Y-23207089D01*
X6212659Y-23207089D02*
X6115897Y-23158708D01*
X6115897Y-23158708D02*
X5728849Y-23158708D01*
X5728849Y-23158708D02*
X5632087Y-23207089D01*
X5632087Y-23207089D02*
X5583706Y-23303851D01*
X5583706Y-23303851D02*
X5583706Y-23497375D01*
X5583706Y-23497375D02*
X5632087Y-23594137D01*
X5632087Y-23594137D02*
X5728849Y-23642518D01*
X5728849Y-23642518D02*
X5825611Y-23642518D01*
X5825611Y-23642518D02*
X5922373Y-23158708D01*
X6261039Y-24077946D02*
X5583706Y-24077946D01*
X5777230Y-24077946D02*
X5680468Y-24126327D01*
X5680468Y-24126327D02*
X5632087Y-24174708D01*
X5632087Y-24174708D02*
X5583706Y-24271470D01*
X5583706Y-24271470D02*
X5583706Y-24368232D01*
X6261039Y-24706898D02*
X5583706Y-24706898D01*
X5245039Y-24706898D02*
X5293420Y-24658517D01*
X5293420Y-24658517D02*
X5341801Y-24706898D01*
X5341801Y-24706898D02*
X5293420Y-24755279D01*
X5293420Y-24755279D02*
X5245039Y-24706898D01*
X5245039Y-24706898D02*
X5341801Y-24706898D01*
X5583706Y-25190708D02*
X6261039Y-25190708D01*
X5680468Y-25190708D02*
X5632087Y-25239089D01*
X5632087Y-25239089D02*
X5583706Y-25335851D01*
X5583706Y-25335851D02*
X5583706Y-25480994D01*
X5583706Y-25480994D02*
X5632087Y-25577756D01*
X5632087Y-25577756D02*
X5728849Y-25626137D01*
X5728849Y-25626137D02*
X6261039Y-25626137D01*
X5583706Y-26545375D02*
X6406182Y-26545375D01*
X6406182Y-26545375D02*
X6502944Y-26496994D01*
X6502944Y-26496994D02*
X6551325Y-26448613D01*
X6551325Y-26448613D02*
X6599706Y-26351851D01*
X6599706Y-26351851D02*
X6599706Y-26206708D01*
X6599706Y-26206708D02*
X6551325Y-26109946D01*
X6212659Y-26545375D02*
X6261039Y-26448613D01*
X6261039Y-26448613D02*
X6261039Y-26255089D01*
X6261039Y-26255089D02*
X6212659Y-26158327D01*
X6212659Y-26158327D02*
X6164278Y-26109946D01*
X6164278Y-26109946D02*
X6067516Y-26061565D01*
X6067516Y-26061565D02*
X5777230Y-26061565D01*
X5777230Y-26061565D02*
X5680468Y-26109946D01*
X5680468Y-26109946D02*
X5632087Y-26158327D01*
X5632087Y-26158327D02*
X5583706Y-26255089D01*
X5583706Y-26255089D02*
X5583706Y-26448613D01*
X5583706Y-26448613D02*
X5632087Y-26545375D01*
X5245039Y-27706517D02*
X6261039Y-27948422D01*
X6261039Y-27948422D02*
X5535325Y-28141946D01*
X5535325Y-28141946D02*
X6261039Y-28335470D01*
X6261039Y-28335470D02*
X5245039Y-28577375D01*
X6261039Y-28964422D02*
X5245039Y-28964422D01*
X6261039Y-29399851D02*
X5728849Y-29399851D01*
X5728849Y-29399851D02*
X5632087Y-29351470D01*
X5632087Y-29351470D02*
X5583706Y-29254708D01*
X5583706Y-29254708D02*
X5583706Y-29109565D01*
X5583706Y-29109565D02*
X5632087Y-29012803D01*
X5632087Y-29012803D02*
X5680468Y-28964422D01*
X6212659Y-30270708D02*
X6261039Y-30173946D01*
X6261039Y-30173946D02*
X6261039Y-29980422D01*
X6261039Y-29980422D02*
X6212659Y-29883660D01*
X6212659Y-29883660D02*
X6115897Y-29835279D01*
X6115897Y-29835279D02*
X5728849Y-29835279D01*
X5728849Y-29835279D02*
X5632087Y-29883660D01*
X5632087Y-29883660D02*
X5583706Y-29980422D01*
X5583706Y-29980422D02*
X5583706Y-30173946D01*
X5583706Y-30173946D02*
X5632087Y-30270708D01*
X5632087Y-30270708D02*
X5728849Y-30319089D01*
X5728849Y-30319089D02*
X5825611Y-30319089D01*
X5825611Y-30319089D02*
X5922373Y-29835279D01*
X6212659Y-31141565D02*
X6261039Y-31044803D01*
X6261039Y-31044803D02*
X6261039Y-30851279D01*
X6261039Y-30851279D02*
X6212659Y-30754517D01*
X6212659Y-30754517D02*
X6115897Y-30706136D01*
X6115897Y-30706136D02*
X5728849Y-30706136D01*
X5728849Y-30706136D02*
X5632087Y-30754517D01*
X5632087Y-30754517D02*
X5583706Y-30851279D01*
X5583706Y-30851279D02*
X5583706Y-31044803D01*
X5583706Y-31044803D02*
X5632087Y-31141565D01*
X5632087Y-31141565D02*
X5728849Y-31189946D01*
X5728849Y-31189946D02*
X5825611Y-31189946D01*
X5825611Y-31189946D02*
X5922373Y-30706136D01*
X6261039Y-31770517D02*
X6212659Y-31673755D01*
X6212659Y-31673755D02*
X6115897Y-31625374D01*
X6115897Y-31625374D02*
X5245039Y-31625374D01*
X5245039Y-32786516D02*
X6261039Y-33125183D01*
X6261039Y-33125183D02*
X5245039Y-33463850D01*
X5341801Y-33754135D02*
X5293420Y-33802516D01*
X5293420Y-33802516D02*
X5245039Y-33899278D01*
X5245039Y-33899278D02*
X5245039Y-34141183D01*
X5245039Y-34141183D02*
X5293420Y-34237945D01*
X5293420Y-34237945D02*
X5341801Y-34286326D01*
X5341801Y-34286326D02*
X5438563Y-34334707D01*
X5438563Y-34334707D02*
X5535325Y-34334707D01*
X5535325Y-34334707D02*
X5680468Y-34286326D01*
X5680468Y-34286326D02*
X6261039Y-33705754D01*
X6261039Y-33705754D02*
X6261039Y-34334707D01*
X6164278Y-34770135D02*
X6212659Y-34818516D01*
X6212659Y-34818516D02*
X6261039Y-34770135D01*
X6261039Y-34770135D02*
X6212659Y-34721754D01*
X6212659Y-34721754D02*
X6164278Y-34770135D01*
X6164278Y-34770135D02*
X6261039Y-34770135D01*
X5245039Y-35447469D02*
X5245039Y-35544231D01*
X5245039Y-35544231D02*
X5293420Y-35640993D01*
X5293420Y-35640993D02*
X5341801Y-35689374D01*
X5341801Y-35689374D02*
X5438563Y-35737755D01*
X5438563Y-35737755D02*
X5632087Y-35786136D01*
X5632087Y-35786136D02*
X5873992Y-35786136D01*
X5873992Y-35786136D02*
X6067516Y-35737755D01*
X6067516Y-35737755D02*
X6164278Y-35689374D01*
X6164278Y-35689374D02*
X6212659Y-35640993D01*
X6212659Y-35640993D02*
X6261039Y-35544231D01*
X6261039Y-35544231D02*
X6261039Y-35447469D01*
X6261039Y-35447469D02*
X6212659Y-35350707D01*
X6212659Y-35350707D02*
X6164278Y-35302326D01*
X6164278Y-35302326D02*
X6067516Y-35253945D01*
X6067516Y-35253945D02*
X5873992Y-35205564D01*
X5873992Y-35205564D02*
X5632087Y-35205564D01*
X5632087Y-35205564D02*
X5438563Y-35253945D01*
X5438563Y-35253945D02*
X5341801Y-35302326D01*
X5341801Y-35302326D02*
X5293420Y-35350707D01*
X5293420Y-35350707D02*
X5245039Y-35447469D01*
X32434666Y-5642715D02*
X32289523Y-5691095D01*
X32289523Y-5691095D02*
X32047618Y-5691095D01*
X32047618Y-5691095D02*
X31950856Y-5642715D01*
X31950856Y-5642715D02*
X31902475Y-5594334D01*
X31902475Y-5594334D02*
X31854094Y-5497572D01*
X31854094Y-5497572D02*
X31854094Y-5400810D01*
X31854094Y-5400810D02*
X31902475Y-5304048D01*
X31902475Y-5304048D02*
X31950856Y-5255667D01*
X31950856Y-5255667D02*
X32047618Y-5207286D01*
X32047618Y-5207286D02*
X32241142Y-5158905D01*
X32241142Y-5158905D02*
X32337904Y-5110524D01*
X32337904Y-5110524D02*
X32386285Y-5062143D01*
X32386285Y-5062143D02*
X32434666Y-4965381D01*
X32434666Y-4965381D02*
X32434666Y-4868619D01*
X32434666Y-4868619D02*
X32386285Y-4771857D01*
X32386285Y-4771857D02*
X32337904Y-4723476D01*
X32337904Y-4723476D02*
X32241142Y-4675095D01*
X32241142Y-4675095D02*
X31999237Y-4675095D01*
X31999237Y-4675095D02*
X31854094Y-4723476D01*
X31515428Y-4675095D02*
X31273523Y-5691095D01*
X31273523Y-5691095D02*
X31079999Y-4965381D01*
X31079999Y-4965381D02*
X30886475Y-5691095D01*
X30886475Y-5691095D02*
X30644571Y-4675095D01*
X29725332Y-5691095D02*
X30305904Y-5691095D01*
X30015618Y-5691095D02*
X30015618Y-4675095D01*
X30015618Y-4675095D02*
X30112380Y-4820238D01*
X30112380Y-4820238D02*
X30209142Y-4917000D01*
X30209142Y-4917000D02*
X30305904Y-4965381D01*
X25015334Y-8625857D02*
X25063715Y-8577476D01*
X25063715Y-8577476D02*
X25112095Y-8432333D01*
X25112095Y-8432333D02*
X25112095Y-8335571D01*
X25112095Y-8335571D02*
X25063715Y-8190428D01*
X25063715Y-8190428D02*
X24966953Y-8093666D01*
X24966953Y-8093666D02*
X24870191Y-8045285D01*
X24870191Y-8045285D02*
X24676667Y-7996904D01*
X24676667Y-7996904D02*
X24531524Y-7996904D01*
X24531524Y-7996904D02*
X24338000Y-8045285D01*
X24338000Y-8045285D02*
X24241238Y-8093666D01*
X24241238Y-8093666D02*
X24144476Y-8190428D01*
X24144476Y-8190428D02*
X24096095Y-8335571D01*
X24096095Y-8335571D02*
X24096095Y-8432333D01*
X24096095Y-8432333D02*
X24144476Y-8577476D01*
X24144476Y-8577476D02*
X24192857Y-8625857D01*
X25112095Y-9593476D02*
X25112095Y-9012904D01*
X25112095Y-9303190D02*
X24096095Y-9303190D01*
X24096095Y-9303190D02*
X24241238Y-9206428D01*
X24241238Y-9206428D02*
X24338000Y-9109666D01*
X24338000Y-9109666D02*
X24386381Y-9012904D01*
X24531524Y-10174047D02*
X24483143Y-10077285D01*
X24483143Y-10077285D02*
X24434762Y-10028904D01*
X24434762Y-10028904D02*
X24338000Y-9980523D01*
X24338000Y-9980523D02*
X24289619Y-9980523D01*
X24289619Y-9980523D02*
X24192857Y-10028904D01*
X24192857Y-10028904D02*
X24144476Y-10077285D01*
X24144476Y-10077285D02*
X24096095Y-10174047D01*
X24096095Y-10174047D02*
X24096095Y-10367571D01*
X24096095Y-10367571D02*
X24144476Y-10464333D01*
X24144476Y-10464333D02*
X24192857Y-10512714D01*
X24192857Y-10512714D02*
X24289619Y-10561095D01*
X24289619Y-10561095D02*
X24338000Y-10561095D01*
X24338000Y-10561095D02*
X24434762Y-10512714D01*
X24434762Y-10512714D02*
X24483143Y-10464333D01*
X24483143Y-10464333D02*
X24531524Y-10367571D01*
X24531524Y-10367571D02*
X24531524Y-10174047D01*
X24531524Y-10174047D02*
X24579905Y-10077285D01*
X24579905Y-10077285D02*
X24628286Y-10028904D01*
X24628286Y-10028904D02*
X24725048Y-9980523D01*
X24725048Y-9980523D02*
X24918572Y-9980523D01*
X24918572Y-9980523D02*
X25015334Y-10028904D01*
X25015334Y-10028904D02*
X25063715Y-10077285D01*
X25063715Y-10077285D02*
X25112095Y-10174047D01*
X25112095Y-10174047D02*
X25112095Y-10367571D01*
X25112095Y-10367571D02*
X25063715Y-10464333D01*
X25063715Y-10464333D02*
X25015334Y-10512714D01*
X25015334Y-10512714D02*
X24918572Y-10561095D01*
X24918572Y-10561095D02*
X24725048Y-10561095D01*
X24725048Y-10561095D02*
X24628286Y-10512714D01*
X24628286Y-10512714D02*
X24579905Y-10464333D01*
X24579905Y-10464333D02*
X24531524Y-10367571D01*
X24862095Y-725095D02*
X24281523Y-725095D01*
X24571809Y-1741095D02*
X24571809Y-725095D01*
X23942857Y-1741095D02*
X23942857Y-725095D01*
X23942857Y-725095D02*
X23555809Y-725095D01*
X23555809Y-725095D02*
X23459047Y-773476D01*
X23459047Y-773476D02*
X23410666Y-821857D01*
X23410666Y-821857D02*
X23362285Y-918619D01*
X23362285Y-918619D02*
X23362285Y-1063762D01*
X23362285Y-1063762D02*
X23410666Y-1160524D01*
X23410666Y-1160524D02*
X23459047Y-1208905D01*
X23459047Y-1208905D02*
X23555809Y-1257286D01*
X23555809Y-1257286D02*
X23942857Y-1257286D01*
X22975238Y-821857D02*
X22926857Y-773476D01*
X22926857Y-773476D02*
X22830095Y-725095D01*
X22830095Y-725095D02*
X22588190Y-725095D01*
X22588190Y-725095D02*
X22491428Y-773476D01*
X22491428Y-773476D02*
X22443047Y-821857D01*
X22443047Y-821857D02*
X22394666Y-918619D01*
X22394666Y-918619D02*
X22394666Y-1015381D01*
X22394666Y-1015381D02*
X22443047Y-1160524D01*
X22443047Y-1160524D02*
X23023619Y-1741095D01*
X23023619Y-1741095D02*
X22394666Y-1741095D01*
X23931095Y-18490333D02*
X24656810Y-18490333D01*
X24656810Y-18490333D02*
X24801953Y-18441952D01*
X24801953Y-18441952D02*
X24898715Y-18345190D01*
X24898715Y-18345190D02*
X24947095Y-18200047D01*
X24947095Y-18200047D02*
X24947095Y-18103285D01*
X24027857Y-18925761D02*
X23979476Y-18974142D01*
X23979476Y-18974142D02*
X23931095Y-19070904D01*
X23931095Y-19070904D02*
X23931095Y-19312809D01*
X23931095Y-19312809D02*
X23979476Y-19409571D01*
X23979476Y-19409571D02*
X24027857Y-19457952D01*
X24027857Y-19457952D02*
X24124619Y-19506333D01*
X24124619Y-19506333D02*
X24221381Y-19506333D01*
X24221381Y-19506333D02*
X24366524Y-19457952D01*
X24366524Y-19457952D02*
X24947095Y-18877380D01*
X24947095Y-18877380D02*
X24947095Y-19506333D01*
X34362095Y-725095D02*
X33781523Y-725095D01*
X34071809Y-1741095D02*
X34071809Y-725095D01*
X33442857Y-1741095D02*
X33442857Y-725095D01*
X33442857Y-725095D02*
X33055809Y-725095D01*
X33055809Y-725095D02*
X32959047Y-773476D01*
X32959047Y-773476D02*
X32910666Y-821857D01*
X32910666Y-821857D02*
X32862285Y-918619D01*
X32862285Y-918619D02*
X32862285Y-1063762D01*
X32862285Y-1063762D02*
X32910666Y-1160524D01*
X32910666Y-1160524D02*
X32959047Y-1208905D01*
X32959047Y-1208905D02*
X33055809Y-1257286D01*
X33055809Y-1257286D02*
X33442857Y-1257286D01*
X31991428Y-1063762D02*
X31991428Y-1741095D01*
X32233333Y-676715D02*
X32475238Y-1402429D01*
X32475238Y-1402429D02*
X31846285Y-1402429D01*
X55122266Y-15745895D02*
X55122266Y-16471610D01*
X55122266Y-16471610D02*
X55170647Y-16616753D01*
X55170647Y-16616753D02*
X55267409Y-16713515D01*
X55267409Y-16713515D02*
X55412552Y-16761895D01*
X55412552Y-16761895D02*
X55509314Y-16761895D01*
X54106266Y-16761895D02*
X54686838Y-16761895D01*
X54396552Y-16761895D02*
X54396552Y-15745895D01*
X54396552Y-15745895D02*
X54493314Y-15891038D01*
X54493314Y-15891038D02*
X54590076Y-15987800D01*
X54590076Y-15987800D02*
X54686838Y-16036181D01*
D11*
%TO.C,J5*%
X11714102Y-39268400D02*
G75*
G02*
X10952102Y-39268400I-381000J0D01*
G01*
X10952102Y-39268400D02*
G75*
G02*
X11714102Y-39268400I381000J0D01*
G01*
%TO.C,J6*%
X95646601Y-30937200D02*
G75*
G02*
X94884601Y-30937200I-381000J0D01*
G01*
X94884601Y-30937200D02*
G75*
G02*
X95646601Y-30937200I381000J0D01*
G01*
%TO.C,J4*%
X92668299Y-22556800D02*
G75*
G02*
X91906299Y-22556800I-381000J0D01*
G01*
X91906299Y-22556800D02*
G75*
G02*
X92668299Y-22556800I381000J0D01*
G01*
%TO.C,J3*%
X11541399Y-27482800D02*
G75*
G02*
X10779399Y-27482800I-381000J0D01*
G01*
X10779399Y-27482800D02*
G75*
G02*
X11541399Y-27482800I381000J0D01*
G01*
D12*
%TO.C,TP5*%
X28880000Y-2579000D02*
X28880000Y-3979000D01*
X28880000Y-3979000D02*
X30280000Y-3979000D01*
X30280000Y-2579000D02*
X28880000Y-2579000D01*
X30280000Y-3979000D02*
X30280000Y-2579000D01*
%TO.C,TP1*%
X20380000Y-2579000D02*
X20380000Y-3979000D01*
X20380000Y-3979000D02*
X21780000Y-3979000D01*
X21780000Y-2579000D02*
X20380000Y-2579000D01*
X21780000Y-3979000D02*
X21780000Y-2579000D01*
%TO.C,TP3*%
X26380000Y-2579000D02*
X26380000Y-3979000D01*
X26380000Y-3979000D02*
X27780000Y-3979000D01*
X27780000Y-2579000D02*
X26380000Y-2579000D01*
X27780000Y-3979000D02*
X27780000Y-2579000D01*
D13*
%TO.C,G\u002A\u002A\u002A*%
G36*
X5390541Y-13505082D02*
G01*
X5430515Y-13525723D01*
X5508419Y-13573619D01*
X5618311Y-13644682D01*
X5754246Y-13734823D01*
X5910281Y-13839955D01*
X6080474Y-13955989D01*
X6258880Y-14078838D01*
X6439556Y-14204412D01*
X6616560Y-14328625D01*
X6783947Y-14447389D01*
X6935774Y-14556614D01*
X7066098Y-14652213D01*
X7168976Y-14730098D01*
X7198173Y-14754600D01*
X7250197Y-14812918D01*
X7265883Y-14857265D01*
X7264037Y-14863522D01*
X7250133Y-14878311D01*
X7217620Y-14889270D01*
X7159105Y-14897160D01*
X7067193Y-14902743D01*
X6934489Y-14906780D01*
X6753600Y-14910033D01*
X6662379Y-14911309D01*
X6505255Y-14912598D01*
X6392484Y-14911482D01*
X6316439Y-14907402D01*
X6269497Y-14899796D01*
X6244032Y-14888107D01*
X6232417Y-14871774D01*
X6227508Y-14857184D01*
X6226600Y-14814063D01*
X6256394Y-14783346D01*
X6323081Y-14762825D01*
X6432851Y-14750292D01*
X6591896Y-14743538D01*
X6907039Y-14735732D01*
X6231596Y-14256888D01*
X6178565Y-14219337D01*
X6009623Y-14100327D01*
X5855676Y-13992790D01*
X5722773Y-13900888D01*
X5616963Y-13828788D01*
X5544292Y-13780651D01*
X5510809Y-13760643D01*
X5506803Y-13759211D01*
X5485207Y-13759794D01*
X5472679Y-13785886D01*
X5466878Y-13847498D01*
X5465465Y-13954640D01*
X5465464Y-13960094D01*
X5463751Y-14056201D01*
X5454178Y-14120921D01*
X5429957Y-14154984D01*
X5384301Y-14159123D01*
X5310425Y-14134068D01*
X5201542Y-14080549D01*
X5050864Y-13999298D01*
X5041081Y-13993967D01*
X4923394Y-13931088D01*
X4823283Y-13879788D01*
X4751073Y-13845226D01*
X4717089Y-13832559D01*
X4715811Y-13832837D01*
X4703915Y-13865084D01*
X4693880Y-13947421D01*
X4686144Y-14074871D01*
X4681142Y-14242460D01*
X4679455Y-14329604D01*
X4676061Y-14463161D01*
X4671364Y-14554024D01*
X4663933Y-14610729D01*
X4652337Y-14641811D01*
X4635144Y-14655804D01*
X4610924Y-14661242D01*
X4548397Y-14670123D01*
X4548397Y-14140181D01*
X4548416Y-14062376D01*
X4548893Y-13898369D01*
X4550626Y-13779737D01*
X4554414Y-13699139D01*
X4561055Y-13649232D01*
X4571349Y-13622675D01*
X4586096Y-13612125D01*
X4606095Y-13610239D01*
X4608247Y-13610336D01*
X4657544Y-13625023D01*
X4743038Y-13661118D01*
X4853304Y-13713482D01*
X4976919Y-13776979D01*
X4993314Y-13785697D01*
X5110742Y-13847385D01*
X5208738Y-13897594D01*
X5277472Y-13931360D01*
X5307111Y-13943719D01*
X5309164Y-13942243D01*
X5318208Y-13905676D01*
X5326440Y-13830021D01*
X5332293Y-13728648D01*
X5337262Y-13633384D01*
X5346770Y-13558398D01*
X5362566Y-13519120D01*
X5387335Y-13504620D01*
X5390541Y-13505082D01*
G37*
G36*
X6090349Y-14255197D02*
G01*
X6104633Y-14300223D01*
X6091070Y-14354126D01*
X6044902Y-14439914D01*
X5976467Y-14534539D01*
X5896716Y-14623148D01*
X5816599Y-14690887D01*
X5722565Y-14749530D01*
X5621960Y-14794034D01*
X5513151Y-14818106D01*
X5380697Y-14824975D01*
X5209154Y-14817869D01*
X5036521Y-14811332D01*
X4865879Y-14820456D01*
X4745116Y-14849435D01*
X4672872Y-14898882D01*
X4647789Y-14969409D01*
X4668509Y-15061629D01*
X4670311Y-15065865D01*
X4709981Y-15138888D01*
X4751959Y-15190258D01*
X4752321Y-15190558D01*
X4787420Y-15209412D01*
X4826478Y-15198370D01*
X4886982Y-15152549D01*
X4977513Y-15100527D01*
X5106523Y-15084103D01*
X5256241Y-15117842D01*
X5425190Y-15201609D01*
X5427222Y-15202848D01*
X5555195Y-15274989D01*
X5652996Y-15314368D01*
X5732516Y-15324315D01*
X5805645Y-15308160D01*
X5847841Y-15285145D01*
X5916125Y-15202993D01*
X5963427Y-15071568D01*
X5990333Y-14889542D01*
X5993290Y-14854262D01*
X6003580Y-14760390D01*
X6016853Y-14706622D01*
X6037497Y-14680926D01*
X6069896Y-14671272D01*
X6091757Y-14669168D01*
X6118736Y-14678525D01*
X6130098Y-14716855D01*
X6132423Y-14797435D01*
X6125072Y-14926243D01*
X6090426Y-15100066D01*
X6031231Y-15247074D01*
X5951773Y-15354058D01*
X5891917Y-15403964D01*
X5820906Y-15436279D01*
X5728535Y-15444375D01*
X5684918Y-15443339D01*
X5630714Y-15436511D01*
X5572116Y-15419615D01*
X5498057Y-15388456D01*
X5397467Y-15338841D01*
X5259278Y-15266577D01*
X5202661Y-15238170D01*
X5129824Y-15206560D01*
X5086558Y-15194266D01*
X5072981Y-15197492D01*
X5020563Y-15227106D01*
X4955597Y-15277635D01*
X4929222Y-15299107D01*
X4858767Y-15343382D01*
X4803917Y-15361005D01*
X4742655Y-15342122D01*
X4667543Y-15292476D01*
X4600649Y-15228147D01*
X4561904Y-15165255D01*
X4553587Y-15146777D01*
X4518506Y-15115744D01*
X4481927Y-15115547D01*
X4465027Y-15149608D01*
X4445828Y-15191147D01*
X4400582Y-15205239D01*
X4354940Y-15181663D01*
X4350159Y-15174870D01*
X4349329Y-15127336D01*
X4390860Y-15078781D01*
X4465191Y-15041369D01*
X4497538Y-15024540D01*
X4520607Y-14989115D01*
X4516819Y-14977441D01*
X4477546Y-14940818D01*
X4410713Y-14902762D01*
X4335116Y-14872882D01*
X4269555Y-14860786D01*
X4234274Y-14851517D01*
X4214918Y-14804334D01*
X4218529Y-14774212D01*
X4250125Y-14736637D01*
X4307729Y-14741149D01*
X4383379Y-14788496D01*
X4400021Y-14802181D01*
X4474359Y-14850048D01*
X4529851Y-14854524D01*
X4577707Y-14817269D01*
X4618871Y-14773926D01*
X4677010Y-14734102D01*
X4752096Y-14707607D01*
X4853732Y-14692347D01*
X4991521Y-14686232D01*
X5175065Y-14687170D01*
X5256397Y-14688596D01*
X5388062Y-14689974D01*
X5481100Y-14687894D01*
X5546915Y-14680707D01*
X5596912Y-14666768D01*
X5642492Y-14644426D01*
X5695060Y-14612036D01*
X5740530Y-14579152D01*
X5836809Y-14488981D01*
X5915985Y-14390145D01*
X5936222Y-14360783D01*
X5998627Y-14289060D01*
X6052508Y-14252671D01*
X6090349Y-14255197D01*
G37*
D12*
%TO.C,SW1*%
X28630000Y-6829000D02*
X28630000Y-6879000D01*
X28630000Y-8529000D02*
X28630000Y-10029000D01*
X28630000Y-11729000D02*
X28630000Y-11679000D01*
X33530000Y-6829000D02*
X28630000Y-6829000D01*
X33530000Y-6829000D02*
X33530000Y-6879000D01*
X33530000Y-8529000D02*
X33530000Y-10029000D01*
X33530000Y-11729000D02*
X28630000Y-11729000D01*
X33530000Y-11729000D02*
X33530000Y-11679000D01*
%TO.C,C18*%
X25570000Y-9138420D02*
X25570000Y-9419580D01*
X26590000Y-9138420D02*
X26590000Y-9419580D01*
%TO.C,TP2*%
X23380000Y-2579000D02*
X23380000Y-3979000D01*
X23380000Y-3979000D02*
X24780000Y-3979000D01*
X24780000Y-2579000D02*
X23380000Y-2579000D01*
X24780000Y-3979000D02*
X24780000Y-2579000D01*
%TO.C,J2*%
X25485000Y-17014000D02*
X25485000Y-20644000D01*
X25485000Y-17014000D02*
X25550000Y-17014000D01*
X25485000Y-20644000D02*
X25550000Y-20644000D01*
X25550000Y-15739000D02*
X25550000Y-17014000D01*
X34530000Y-17014000D02*
X34595000Y-17014000D01*
X34530000Y-20644000D02*
X34595000Y-20644000D01*
X34595000Y-17014000D02*
X34595000Y-20644000D01*
%TO.C,TP4*%
X31380000Y-2579000D02*
X31380000Y-3979000D01*
X31380000Y-3979000D02*
X32780000Y-3979000D01*
X32780000Y-2579000D02*
X31380000Y-2579000D01*
X32780000Y-3979000D02*
X32780000Y-2579000D01*
D14*
%TO.C,J1*%
X36705000Y-17779000D02*
X36705000Y-17779000D01*
D15*
X36930000Y-23749000D02*
X36930000Y-23749000D01*
X37030000Y-23749000D02*
X37030000Y-23749000D01*
X37030000Y-23749000D02*
X37030000Y-23749000D01*
D14*
X68705000Y-17779000D02*
X68705000Y-17779000D01*
X36705000Y-17779000D02*
G75*
G02*
X68705000Y-17779000I16000000J0D01*
G01*
D15*
X36930000Y-23749000D02*
G75*
G02*
X37030000Y-23749000I50000J0D01*
G01*
X37030000Y-23749000D02*
G75*
G02*
X36930000Y-23749000I-50000J0D01*
G01*
X37030000Y-23749000D02*
G75*
G02*
X36930000Y-23749000I-50000J0D01*
G01*
D14*
X68705000Y-17779000D02*
G75*
G02*
X36705000Y-17779000I-16000000J0D01*
G01*
%TD*%
M02*
