%TF.GenerationSoftware,KiCad,Pcbnew,9.0.7*%
%TF.CreationDate,2026-02-11T01:53:08-08:00*%
%TF.ProjectId,steering_wheel,73746565-7269-46e6-975f-776865656c2e,rev?*%
%TF.SameCoordinates,Original*%
%TF.FileFunction,Legend,Bot*%
%TF.FilePolarity,Positive*%
%FSLAX46Y46*%
G04 Gerber Fmt 4.6, Leading zero omitted, Abs format (unit mm)*
G04 Created by KiCad (PCBNEW 9.0.7) date 2026-02-11 01:53:08*
%MOMM*%
%LPD*%
G01*
G04 APERTURE LIST*
%ADD10C,0.152400*%
%ADD11C,0.508000*%
%ADD12C,0.120000*%
%ADD13C,0.100000*%
%ADD14C,0.200000*%
G04 APERTURE END LIST*
D10*
X30782095Y15553904D02*
X30201523Y15553904D01*
X30491809Y14537904D02*
X30491809Y15553904D01*
X29862857Y14537904D02*
X29862857Y15553904D01*
X29862857Y15553904D02*
X29475809Y15553904D01*
X29475809Y15553904D02*
X29379047Y15505523D01*
X29379047Y15505523D02*
X29330666Y15457142D01*
X29330666Y15457142D02*
X29282285Y15360380D01*
X29282285Y15360380D02*
X29282285Y15215237D01*
X29282285Y15215237D02*
X29330666Y15118475D01*
X29330666Y15118475D02*
X29379047Y15070094D01*
X29379047Y15070094D02*
X29475809Y15021713D01*
X29475809Y15021713D02*
X29862857Y15021713D01*
X28363047Y15553904D02*
X28846857Y15553904D01*
X28846857Y15553904D02*
X28895238Y15070094D01*
X28895238Y15070094D02*
X28846857Y15118475D01*
X28846857Y15118475D02*
X28750095Y15166856D01*
X28750095Y15166856D02*
X28508190Y15166856D01*
X28508190Y15166856D02*
X28411428Y15118475D01*
X28411428Y15118475D02*
X28363047Y15070094D01*
X28363047Y15070094D02*
X28314666Y14973332D01*
X28314666Y14973332D02*
X28314666Y14731427D01*
X28314666Y14731427D02*
X28363047Y14634665D01*
X28363047Y14634665D02*
X28411428Y14586285D01*
X28411428Y14586285D02*
X28508190Y14537904D01*
X28508190Y14537904D02*
X28750095Y14537904D01*
X28750095Y14537904D02*
X28846857Y14586285D01*
X28846857Y14586285D02*
X28895238Y14634665D01*
X21782095Y15553904D02*
X21201523Y15553904D01*
X21491809Y14537904D02*
X21491809Y15553904D01*
X20862857Y14537904D02*
X20862857Y15553904D01*
X20862857Y15553904D02*
X20475809Y15553904D01*
X20475809Y15553904D02*
X20379047Y15505523D01*
X20379047Y15505523D02*
X20330666Y15457142D01*
X20330666Y15457142D02*
X20282285Y15360380D01*
X20282285Y15360380D02*
X20282285Y15215237D01*
X20282285Y15215237D02*
X20330666Y15118475D01*
X20330666Y15118475D02*
X20379047Y15070094D01*
X20379047Y15070094D02*
X20475809Y15021713D01*
X20475809Y15021713D02*
X20862857Y15021713D01*
X19314666Y14537904D02*
X19895238Y14537904D01*
X19604952Y14537904D02*
X19604952Y15553904D01*
X19604952Y15553904D02*
X19701714Y15408761D01*
X19701714Y15408761D02*
X19798476Y15311999D01*
X19798476Y15311999D02*
X19895238Y15263618D01*
X27782095Y15553904D02*
X27201523Y15553904D01*
X27491809Y14537904D02*
X27491809Y15553904D01*
X26862857Y14537904D02*
X26862857Y15553904D01*
X26862857Y15553904D02*
X26475809Y15553904D01*
X26475809Y15553904D02*
X26379047Y15505523D01*
X26379047Y15505523D02*
X26330666Y15457142D01*
X26330666Y15457142D02*
X26282285Y15360380D01*
X26282285Y15360380D02*
X26282285Y15215237D01*
X26282285Y15215237D02*
X26330666Y15118475D01*
X26330666Y15118475D02*
X26379047Y15070094D01*
X26379047Y15070094D02*
X26475809Y15021713D01*
X26475809Y15021713D02*
X26862857Y15021713D01*
X25943619Y15553904D02*
X25314666Y15553904D01*
X25314666Y15553904D02*
X25653333Y15166856D01*
X25653333Y15166856D02*
X25508190Y15166856D01*
X25508190Y15166856D02*
X25411428Y15118475D01*
X25411428Y15118475D02*
X25363047Y15070094D01*
X25363047Y15070094D02*
X25314666Y14973332D01*
X25314666Y14973332D02*
X25314666Y14731427D01*
X25314666Y14731427D02*
X25363047Y14634665D01*
X25363047Y14634665D02*
X25411428Y14586285D01*
X25411428Y14586285D02*
X25508190Y14537904D01*
X25508190Y14537904D02*
X25798476Y14537904D01*
X25798476Y14537904D02*
X25895238Y14586285D01*
X25895238Y14586285D02*
X25943619Y14634665D01*
X32354666Y10636285D02*
X32209523Y10587904D01*
X32209523Y10587904D02*
X31967618Y10587904D01*
X31967618Y10587904D02*
X31870856Y10636285D01*
X31870856Y10636285D02*
X31822475Y10684665D01*
X31822475Y10684665D02*
X31774094Y10781427D01*
X31774094Y10781427D02*
X31774094Y10878189D01*
X31774094Y10878189D02*
X31822475Y10974951D01*
X31822475Y10974951D02*
X31870856Y11023332D01*
X31870856Y11023332D02*
X31967618Y11071713D01*
X31967618Y11071713D02*
X32161142Y11120094D01*
X32161142Y11120094D02*
X32257904Y11168475D01*
X32257904Y11168475D02*
X32306285Y11216856D01*
X32306285Y11216856D02*
X32354666Y11313618D01*
X32354666Y11313618D02*
X32354666Y11410380D01*
X32354666Y11410380D02*
X32306285Y11507142D01*
X32306285Y11507142D02*
X32257904Y11555523D01*
X32257904Y11555523D02*
X32161142Y11603904D01*
X32161142Y11603904D02*
X31919237Y11603904D01*
X31919237Y11603904D02*
X31774094Y11555523D01*
X31435428Y11603904D02*
X31193523Y10587904D01*
X31193523Y10587904D02*
X30999999Y11313618D01*
X30999999Y11313618D02*
X30806475Y10587904D01*
X30806475Y10587904D02*
X30564571Y11603904D01*
X29645332Y10587904D02*
X30225904Y10587904D01*
X29935618Y10587904D02*
X29935618Y11603904D01*
X29935618Y11603904D02*
X30032380Y11458761D01*
X30032380Y11458761D02*
X30129142Y11361999D01*
X30129142Y11361999D02*
X30225904Y11313618D01*
X24935334Y7653142D02*
X24983715Y7701523D01*
X24983715Y7701523D02*
X25032095Y7846666D01*
X25032095Y7846666D02*
X25032095Y7943428D01*
X25032095Y7943428D02*
X24983715Y8088571D01*
X24983715Y8088571D02*
X24886953Y8185333D01*
X24886953Y8185333D02*
X24790191Y8233714D01*
X24790191Y8233714D02*
X24596667Y8282095D01*
X24596667Y8282095D02*
X24451524Y8282095D01*
X24451524Y8282095D02*
X24258000Y8233714D01*
X24258000Y8233714D02*
X24161238Y8185333D01*
X24161238Y8185333D02*
X24064476Y8088571D01*
X24064476Y8088571D02*
X24016095Y7943428D01*
X24016095Y7943428D02*
X24016095Y7846666D01*
X24016095Y7846666D02*
X24064476Y7701523D01*
X24064476Y7701523D02*
X24112857Y7653142D01*
X25032095Y6685523D02*
X25032095Y7266095D01*
X25032095Y6975809D02*
X24016095Y6975809D01*
X24016095Y6975809D02*
X24161238Y7072571D01*
X24161238Y7072571D02*
X24258000Y7169333D01*
X24258000Y7169333D02*
X24306381Y7266095D01*
X24451524Y6104952D02*
X24403143Y6201714D01*
X24403143Y6201714D02*
X24354762Y6250095D01*
X24354762Y6250095D02*
X24258000Y6298476D01*
X24258000Y6298476D02*
X24209619Y6298476D01*
X24209619Y6298476D02*
X24112857Y6250095D01*
X24112857Y6250095D02*
X24064476Y6201714D01*
X24064476Y6201714D02*
X24016095Y6104952D01*
X24016095Y6104952D02*
X24016095Y5911428D01*
X24016095Y5911428D02*
X24064476Y5814666D01*
X24064476Y5814666D02*
X24112857Y5766285D01*
X24112857Y5766285D02*
X24209619Y5717904D01*
X24209619Y5717904D02*
X24258000Y5717904D01*
X24258000Y5717904D02*
X24354762Y5766285D01*
X24354762Y5766285D02*
X24403143Y5814666D01*
X24403143Y5814666D02*
X24451524Y5911428D01*
X24451524Y5911428D02*
X24451524Y6104952D01*
X24451524Y6104952D02*
X24499905Y6201714D01*
X24499905Y6201714D02*
X24548286Y6250095D01*
X24548286Y6250095D02*
X24645048Y6298476D01*
X24645048Y6298476D02*
X24838572Y6298476D01*
X24838572Y6298476D02*
X24935334Y6250095D01*
X24935334Y6250095D02*
X24983715Y6201714D01*
X24983715Y6201714D02*
X25032095Y6104952D01*
X25032095Y6104952D02*
X25032095Y5911428D01*
X25032095Y5911428D02*
X24983715Y5814666D01*
X24983715Y5814666D02*
X24935334Y5766285D01*
X24935334Y5766285D02*
X24838572Y5717904D01*
X24838572Y5717904D02*
X24645048Y5717904D01*
X24645048Y5717904D02*
X24548286Y5766285D01*
X24548286Y5766285D02*
X24499905Y5814666D01*
X24499905Y5814666D02*
X24451524Y5911428D01*
X24782095Y15553904D02*
X24201523Y15553904D01*
X24491809Y14537904D02*
X24491809Y15553904D01*
X23862857Y14537904D02*
X23862857Y15553904D01*
X23862857Y15553904D02*
X23475809Y15553904D01*
X23475809Y15553904D02*
X23379047Y15505523D01*
X23379047Y15505523D02*
X23330666Y15457142D01*
X23330666Y15457142D02*
X23282285Y15360380D01*
X23282285Y15360380D02*
X23282285Y15215237D01*
X23282285Y15215237D02*
X23330666Y15118475D01*
X23330666Y15118475D02*
X23379047Y15070094D01*
X23379047Y15070094D02*
X23475809Y15021713D01*
X23475809Y15021713D02*
X23862857Y15021713D01*
X22895238Y15457142D02*
X22846857Y15505523D01*
X22846857Y15505523D02*
X22750095Y15553904D01*
X22750095Y15553904D02*
X22508190Y15553904D01*
X22508190Y15553904D02*
X22411428Y15505523D01*
X22411428Y15505523D02*
X22363047Y15457142D01*
X22363047Y15457142D02*
X22314666Y15360380D01*
X22314666Y15360380D02*
X22314666Y15263618D01*
X22314666Y15263618D02*
X22363047Y15118475D01*
X22363047Y15118475D02*
X22943619Y14537904D01*
X22943619Y14537904D02*
X22314666Y14537904D01*
X23851095Y-2211333D02*
X24576810Y-2211333D01*
X24576810Y-2211333D02*
X24721953Y-2162952D01*
X24721953Y-2162952D02*
X24818715Y-2066190D01*
X24818715Y-2066190D02*
X24867095Y-1921047D01*
X24867095Y-1921047D02*
X24867095Y-1824285D01*
X23947857Y-2646761D02*
X23899476Y-2695142D01*
X23899476Y-2695142D02*
X23851095Y-2791904D01*
X23851095Y-2791904D02*
X23851095Y-3033809D01*
X23851095Y-3033809D02*
X23899476Y-3130571D01*
X23899476Y-3130571D02*
X23947857Y-3178952D01*
X23947857Y-3178952D02*
X24044619Y-3227333D01*
X24044619Y-3227333D02*
X24141381Y-3227333D01*
X24141381Y-3227333D02*
X24286524Y-3178952D01*
X24286524Y-3178952D02*
X24867095Y-2598380D01*
X24867095Y-2598380D02*
X24867095Y-3227333D01*
X34282095Y15553904D02*
X33701523Y15553904D01*
X33991809Y14537904D02*
X33991809Y15553904D01*
X33362857Y14537904D02*
X33362857Y15553904D01*
X33362857Y15553904D02*
X32975809Y15553904D01*
X32975809Y15553904D02*
X32879047Y15505523D01*
X32879047Y15505523D02*
X32830666Y15457142D01*
X32830666Y15457142D02*
X32782285Y15360380D01*
X32782285Y15360380D02*
X32782285Y15215237D01*
X32782285Y15215237D02*
X32830666Y15118475D01*
X32830666Y15118475D02*
X32879047Y15070094D01*
X32879047Y15070094D02*
X32975809Y15021713D01*
X32975809Y15021713D02*
X33362857Y15021713D01*
X31911428Y15215237D02*
X31911428Y14537904D01*
X32153333Y15602285D02*
X32395238Y14876570D01*
X32395238Y14876570D02*
X31766285Y14876570D01*
X52908666Y583904D02*
X52908666Y-141810D01*
X52908666Y-141810D02*
X52957047Y-286953D01*
X52957047Y-286953D02*
X53053809Y-383715D01*
X53053809Y-383715D02*
X53198952Y-432095D01*
X53198952Y-432095D02*
X53295714Y-432095D01*
X51892666Y-432095D02*
X52473238Y-432095D01*
X52182952Y-432095D02*
X52182952Y583904D01*
X52182952Y583904D02*
X52279714Y438761D01*
X52279714Y438761D02*
X52376476Y341999D01*
X52376476Y341999D02*
X52473238Y293618D01*
D11*
%TO.C,J5*%
X10770998Y-26110799D02*
G75*
G02*
X10008998Y-26110799I-381000J0D01*
G01*
X10008998Y-26110799D02*
G75*
G02*
X10770998Y-26110799I381000J0D01*
G01*
%TO.C,J6*%
X95197601Y-17369200D02*
G75*
G02*
X94435601Y-17369200I-381000J0D01*
G01*
X94435601Y-17369200D02*
G75*
G02*
X95197601Y-17369200I381000J0D01*
G01*
%TO.C,J4*%
X92588299Y-6277800D02*
G75*
G02*
X91826299Y-6277800I-381000J0D01*
G01*
X91826299Y-6277800D02*
G75*
G02*
X92588299Y-6277800I381000J0D01*
G01*
%TO.C,J3*%
X10770998Y-14645999D02*
G75*
G02*
X10008998Y-14645999I-381000J0D01*
G01*
X10008998Y-14645999D02*
G75*
G02*
X10770998Y-14645999I381000J0D01*
G01*
D12*
%TO.C,TP5*%
X28800000Y13700000D02*
X28800000Y12300000D01*
X28800000Y12300000D02*
X30200000Y12300000D01*
X30200000Y13700000D02*
X28800000Y13700000D01*
X30200000Y12300000D02*
X30200000Y13700000D01*
%TO.C,TP1*%
X20300000Y13700000D02*
X20300000Y12300000D01*
X20300000Y12300000D02*
X21700000Y12300000D01*
X21700000Y13700000D02*
X20300000Y13700000D01*
X21700000Y12300000D02*
X21700000Y13700000D01*
%TO.C,TP3*%
X26300000Y13700000D02*
X26300000Y12300000D01*
X26300000Y12300000D02*
X27700000Y12300000D01*
X27700000Y13700000D02*
X26300000Y13700000D01*
X27700000Y12300000D02*
X27700000Y13700000D01*
%TO.C,SW1*%
X28550000Y9450000D02*
X28550000Y9400000D01*
X28550000Y7750000D02*
X28550000Y6250000D01*
X28550000Y4550000D02*
X28550000Y4600000D01*
X33450000Y9450000D02*
X28550000Y9450000D01*
X33450000Y9450000D02*
X33450000Y9400000D01*
X33450000Y7750000D02*
X33450000Y6250000D01*
X33450000Y4550000D02*
X28550000Y4550000D01*
X33450000Y4550000D02*
X33450000Y4600000D01*
%TO.C,C18*%
X25490000Y7140580D02*
X25490000Y6859420D01*
X26510000Y7140580D02*
X26510000Y6859420D01*
%TO.C,TP2*%
X23300000Y13700000D02*
X23300000Y12300000D01*
X23300000Y12300000D02*
X24700000Y12300000D01*
X24700000Y13700000D02*
X23300000Y13700000D01*
X24700000Y12300000D02*
X24700000Y13700000D01*
%TO.C,J2*%
X25405000Y-735000D02*
X25405000Y-4365000D01*
X25405000Y-735000D02*
X25470000Y-735000D01*
X25405000Y-4365000D02*
X25470000Y-4365000D01*
X25470000Y540000D02*
X25470000Y-735000D01*
X34450000Y-735000D02*
X34515000Y-735000D01*
X34450000Y-4365000D02*
X34515000Y-4365000D01*
X34515000Y-735000D02*
X34515000Y-4365000D01*
%TO.C,TP4*%
X31300000Y13700000D02*
X31300000Y12300000D01*
X31300000Y12300000D02*
X32700000Y12300000D01*
X32700000Y13700000D02*
X31300000Y13700000D01*
X32700000Y12300000D02*
X32700000Y13700000D01*
D13*
%TO.C,J1*%
X36625000Y-1500000D02*
X36625000Y-1500000D01*
D14*
X36850000Y-7470000D02*
X36850000Y-7470000D01*
X36950000Y-7470000D02*
X36950000Y-7470000D01*
X36950000Y-7470000D02*
X36950000Y-7470000D01*
D13*
X68625000Y-1500000D02*
X68625000Y-1500000D01*
X36625000Y-1500000D02*
G75*
G02*
X68625000Y-1500000I16000000J0D01*
G01*
D14*
X36850000Y-7470000D02*
G75*
G02*
X36950000Y-7470000I50000J0D01*
G01*
X36950000Y-7470000D02*
G75*
G02*
X36850000Y-7470000I-50000J0D01*
G01*
X36950000Y-7470000D02*
G75*
G02*
X36850000Y-7470000I-50000J0D01*
G01*
D13*
X68625000Y-1500000D02*
G75*
G02*
X36625000Y-1500000I-16000000J0D01*
G01*
%TD*%
M02*
