%TF.GenerationSoftware,KiCad,Pcbnew,9.0.7*%
%TF.CreationDate,2026-02-10T03:54:41-08:00*%
%TF.ProjectId,steering_wheel,73746565-7269-46e6-975f-776865656c2e,rev?*%
%TF.SameCoordinates,Original*%
%TF.FileFunction,Legend,Top*%
%TF.FilePolarity,Positive*%
%FSLAX46Y46*%
G04 Gerber Fmt 4.6, Leading zero omitted, Abs format (unit mm)*
G04 Created by KiCad (PCBNEW 9.0.7) date 2026-02-10 03:54:41*
%MOMM*%
%LPD*%
G01*
G04 APERTURE LIST*
%ADD10C,0.152400*%
%ADD11C,0.000000*%
%ADD12C,0.554000*%
%ADD13C,0.120000*%
%ADD14C,0.200000*%
%ADD15C,0.508000*%
G04 APERTURE END LIST*
D10*
X3252366Y-1500354D02*
X3736176Y-1500354D01*
X3155604Y-1790639D02*
X3494271Y-774639D01*
X3494271Y-774639D02*
X3832938Y-1790639D01*
X4171604Y-1790639D02*
X4171604Y-1113306D01*
X4171604Y-1306830D02*
X4219985Y-1210068D01*
X4219985Y-1210068D02*
X4268366Y-1161687D01*
X4268366Y-1161687D02*
X4365128Y-1113306D01*
X4365128Y-1113306D02*
X4461890Y-1113306D01*
X5235985Y-1742259D02*
X5139223Y-1790639D01*
X5139223Y-1790639D02*
X4945699Y-1790639D01*
X4945699Y-1790639D02*
X4848937Y-1742259D01*
X4848937Y-1742259D02*
X4800556Y-1693878D01*
X4800556Y-1693878D02*
X4752175Y-1597116D01*
X4752175Y-1597116D02*
X4752175Y-1306830D01*
X4752175Y-1306830D02*
X4800556Y-1210068D01*
X4800556Y-1210068D02*
X4848937Y-1161687D01*
X4848937Y-1161687D02*
X4945699Y-1113306D01*
X4945699Y-1113306D02*
X5139223Y-1113306D01*
X5139223Y-1113306D02*
X5235985Y-1161687D01*
X5671413Y-1790639D02*
X5671413Y-774639D01*
X6106842Y-1790639D02*
X6106842Y-1258449D01*
X6106842Y-1258449D02*
X6058461Y-1161687D01*
X6058461Y-1161687D02*
X5961699Y-1113306D01*
X5961699Y-1113306D02*
X5816556Y-1113306D01*
X5816556Y-1113306D02*
X5719794Y-1161687D01*
X5719794Y-1161687D02*
X5671413Y-1210068D01*
X6590651Y-1790639D02*
X6590651Y-1113306D01*
X6590651Y-774639D02*
X6542270Y-823020D01*
X6542270Y-823020D02*
X6590651Y-871401D01*
X6590651Y-871401D02*
X6639032Y-823020D01*
X6639032Y-823020D02*
X6590651Y-774639D01*
X6590651Y-774639D02*
X6590651Y-871401D01*
X6929318Y-1113306D02*
X7316366Y-1113306D01*
X7074461Y-774639D02*
X7074461Y-1645497D01*
X7074461Y-1645497D02*
X7122842Y-1742259D01*
X7122842Y-1742259D02*
X7219604Y-1790639D01*
X7219604Y-1790639D02*
X7316366Y-1790639D01*
X8042080Y-1742259D02*
X7945318Y-1790639D01*
X7945318Y-1790639D02*
X7751794Y-1790639D01*
X7751794Y-1790639D02*
X7655032Y-1742259D01*
X7655032Y-1742259D02*
X7606651Y-1645497D01*
X7606651Y-1645497D02*
X7606651Y-1258449D01*
X7606651Y-1258449D02*
X7655032Y-1161687D01*
X7655032Y-1161687D02*
X7751794Y-1113306D01*
X7751794Y-1113306D02*
X7945318Y-1113306D01*
X7945318Y-1113306D02*
X8042080Y-1161687D01*
X8042080Y-1161687D02*
X8090461Y-1258449D01*
X8090461Y-1258449D02*
X8090461Y-1355211D01*
X8090461Y-1355211D02*
X7606651Y-1451973D01*
X8961318Y-1742259D02*
X8864556Y-1790639D01*
X8864556Y-1790639D02*
X8671032Y-1790639D01*
X8671032Y-1790639D02*
X8574270Y-1742259D01*
X8574270Y-1742259D02*
X8525889Y-1693878D01*
X8525889Y-1693878D02*
X8477508Y-1597116D01*
X8477508Y-1597116D02*
X8477508Y-1306830D01*
X8477508Y-1306830D02*
X8525889Y-1210068D01*
X8525889Y-1210068D02*
X8574270Y-1161687D01*
X8574270Y-1161687D02*
X8671032Y-1113306D01*
X8671032Y-1113306D02*
X8864556Y-1113306D01*
X8864556Y-1113306D02*
X8961318Y-1161687D01*
X9251603Y-1113306D02*
X9638651Y-1113306D01*
X9396746Y-774639D02*
X9396746Y-1645497D01*
X9396746Y-1645497D02*
X9445127Y-1742259D01*
X9445127Y-1742259D02*
X9541889Y-1790639D01*
X9541889Y-1790639D02*
X9638651Y-1790639D01*
X9977317Y-1693878D02*
X10025698Y-1742259D01*
X10025698Y-1742259D02*
X9977317Y-1790639D01*
X9977317Y-1790639D02*
X9928936Y-1742259D01*
X9928936Y-1742259D02*
X9977317Y-1693878D01*
X9977317Y-1693878D02*
X9977317Y-1790639D01*
X9977317Y-1161687D02*
X10025698Y-1210068D01*
X10025698Y-1210068D02*
X9977317Y-1258449D01*
X9977317Y-1258449D02*
X9928936Y-1210068D01*
X9928936Y-1210068D02*
X9977317Y-1161687D01*
X9977317Y-1161687D02*
X9977317Y-1258449D01*
X11235222Y-1790639D02*
X11235222Y-774639D01*
X11235222Y-774639D02*
X11815794Y-1790639D01*
X11815794Y-1790639D02*
X11815794Y-774639D01*
X12444746Y-1790639D02*
X12347984Y-1742259D01*
X12347984Y-1742259D02*
X12299603Y-1693878D01*
X12299603Y-1693878D02*
X12251222Y-1597116D01*
X12251222Y-1597116D02*
X12251222Y-1306830D01*
X12251222Y-1306830D02*
X12299603Y-1210068D01*
X12299603Y-1210068D02*
X12347984Y-1161687D01*
X12347984Y-1161687D02*
X12444746Y-1113306D01*
X12444746Y-1113306D02*
X12589889Y-1113306D01*
X12589889Y-1113306D02*
X12686651Y-1161687D01*
X12686651Y-1161687D02*
X12735032Y-1210068D01*
X12735032Y-1210068D02*
X12783413Y-1306830D01*
X12783413Y-1306830D02*
X12783413Y-1597116D01*
X12783413Y-1597116D02*
X12735032Y-1693878D01*
X12735032Y-1693878D02*
X12686651Y-1742259D01*
X12686651Y-1742259D02*
X12589889Y-1790639D01*
X12589889Y-1790639D02*
X12444746Y-1790639D01*
X13122079Y-1113306D02*
X13363984Y-1790639D01*
X13363984Y-1790639D02*
X13605889Y-1113306D01*
X14428365Y-1790639D02*
X14428365Y-1258449D01*
X14428365Y-1258449D02*
X14379984Y-1161687D01*
X14379984Y-1161687D02*
X14283222Y-1113306D01*
X14283222Y-1113306D02*
X14089698Y-1113306D01*
X14089698Y-1113306D02*
X13992936Y-1161687D01*
X14428365Y-1742259D02*
X14331603Y-1790639D01*
X14331603Y-1790639D02*
X14089698Y-1790639D01*
X14089698Y-1790639D02*
X13992936Y-1742259D01*
X13992936Y-1742259D02*
X13944555Y-1645497D01*
X13944555Y-1645497D02*
X13944555Y-1548735D01*
X13944555Y-1548735D02*
X13992936Y-1451973D01*
X13992936Y-1451973D02*
X14089698Y-1403592D01*
X14089698Y-1403592D02*
X14331603Y-1403592D01*
X14331603Y-1403592D02*
X14428365Y-1355211D01*
X15686269Y-1790639D02*
X15686269Y-774639D01*
X15686269Y-774639D02*
X16024936Y-1500354D01*
X16024936Y-1500354D02*
X16363603Y-774639D01*
X16363603Y-774639D02*
X16363603Y-1790639D01*
X16992555Y-1790639D02*
X16895793Y-1742259D01*
X16895793Y-1742259D02*
X16847412Y-1693878D01*
X16847412Y-1693878D02*
X16799031Y-1597116D01*
X16799031Y-1597116D02*
X16799031Y-1306830D01*
X16799031Y-1306830D02*
X16847412Y-1210068D01*
X16847412Y-1210068D02*
X16895793Y-1161687D01*
X16895793Y-1161687D02*
X16992555Y-1113306D01*
X16992555Y-1113306D02*
X17137698Y-1113306D01*
X17137698Y-1113306D02*
X17234460Y-1161687D01*
X17234460Y-1161687D02*
X17282841Y-1210068D01*
X17282841Y-1210068D02*
X17331222Y-1306830D01*
X17331222Y-1306830D02*
X17331222Y-1597116D01*
X17331222Y-1597116D02*
X17282841Y-1693878D01*
X17282841Y-1693878D02*
X17234460Y-1742259D01*
X17234460Y-1742259D02*
X17137698Y-1790639D01*
X17137698Y-1790639D02*
X16992555Y-1790639D01*
X17766650Y-1113306D02*
X17766650Y-1790639D01*
X17766650Y-1210068D02*
X17815031Y-1161687D01*
X17815031Y-1161687D02*
X17911793Y-1113306D01*
X17911793Y-1113306D02*
X18056936Y-1113306D01*
X18056936Y-1113306D02*
X18153698Y-1161687D01*
X18153698Y-1161687D02*
X18202079Y-1258449D01*
X18202079Y-1258449D02*
X18202079Y-1790639D01*
X19121317Y-1790639D02*
X19121317Y-774639D01*
X19121317Y-1742259D02*
X19024555Y-1790639D01*
X19024555Y-1790639D02*
X18831031Y-1790639D01*
X18831031Y-1790639D02*
X18734269Y-1742259D01*
X18734269Y-1742259D02*
X18685888Y-1693878D01*
X18685888Y-1693878D02*
X18637507Y-1597116D01*
X18637507Y-1597116D02*
X18637507Y-1306830D01*
X18637507Y-1306830D02*
X18685888Y-1210068D01*
X18685888Y-1210068D02*
X18734269Y-1161687D01*
X18734269Y-1161687D02*
X18831031Y-1113306D01*
X18831031Y-1113306D02*
X19024555Y-1113306D01*
X19024555Y-1113306D02*
X19121317Y-1161687D01*
X20040555Y-1790639D02*
X20040555Y-1258449D01*
X20040555Y-1258449D02*
X19992174Y-1161687D01*
X19992174Y-1161687D02*
X19895412Y-1113306D01*
X19895412Y-1113306D02*
X19701888Y-1113306D01*
X19701888Y-1113306D02*
X19605126Y-1161687D01*
X20040555Y-1742259D02*
X19943793Y-1790639D01*
X19943793Y-1790639D02*
X19701888Y-1790639D01*
X19701888Y-1790639D02*
X19605126Y-1742259D01*
X19605126Y-1742259D02*
X19556745Y-1645497D01*
X19556745Y-1645497D02*
X19556745Y-1548735D01*
X19556745Y-1548735D02*
X19605126Y-1451973D01*
X19605126Y-1451973D02*
X19701888Y-1403592D01*
X19701888Y-1403592D02*
X19943793Y-1403592D01*
X19943793Y-1403592D02*
X20040555Y-1355211D01*
X20669507Y-1790639D02*
X20572745Y-1742259D01*
X20572745Y-1742259D02*
X20524364Y-1645497D01*
X20524364Y-1645497D02*
X20524364Y-774639D01*
X3639414Y265550D02*
X3300747Y265550D01*
X3300747Y-266639D02*
X3300747Y749360D01*
X3300747Y749360D02*
X3784557Y749360D01*
X4123223Y-218259D02*
X4268366Y-266639D01*
X4268366Y-266639D02*
X4510271Y-266639D01*
X4510271Y-266639D02*
X4607033Y-218259D01*
X4607033Y-218259D02*
X4655414Y-169878D01*
X4655414Y-169878D02*
X4703795Y-73116D01*
X4703795Y-73116D02*
X4703795Y23645D01*
X4703795Y23645D02*
X4655414Y120407D01*
X4655414Y120407D02*
X4607033Y168788D01*
X4607033Y168788D02*
X4510271Y217169D01*
X4510271Y217169D02*
X4316747Y265550D01*
X4316747Y265550D02*
X4219985Y313931D01*
X4219985Y313931D02*
X4171604Y362312D01*
X4171604Y362312D02*
X4123223Y459074D01*
X4123223Y459074D02*
X4123223Y555836D01*
X4123223Y555836D02*
X4171604Y652598D01*
X4171604Y652598D02*
X4219985Y700979D01*
X4219985Y700979D02*
X4316747Y749360D01*
X4316747Y749360D02*
X4558652Y749360D01*
X4558652Y749360D02*
X4703795Y700979D01*
X5139223Y120407D02*
X5913319Y120407D01*
X6832557Y410693D02*
X6832557Y-266639D01*
X6590652Y797741D02*
X6348747Y72026D01*
X6348747Y72026D02*
X6977700Y72026D01*
X8090461Y-218259D02*
X8235604Y-266639D01*
X8235604Y-266639D02*
X8477509Y-266639D01*
X8477509Y-266639D02*
X8574271Y-218259D01*
X8574271Y-218259D02*
X8622652Y-169878D01*
X8622652Y-169878D02*
X8671033Y-73116D01*
X8671033Y-73116D02*
X8671033Y23645D01*
X8671033Y23645D02*
X8622652Y120407D01*
X8622652Y120407D02*
X8574271Y168788D01*
X8574271Y168788D02*
X8477509Y217169D01*
X8477509Y217169D02*
X8283985Y265550D01*
X8283985Y265550D02*
X8187223Y313931D01*
X8187223Y313931D02*
X8138842Y362312D01*
X8138842Y362312D02*
X8090461Y459074D01*
X8090461Y459074D02*
X8090461Y555836D01*
X8090461Y555836D02*
X8138842Y652598D01*
X8138842Y652598D02*
X8187223Y700979D01*
X8187223Y700979D02*
X8283985Y749360D01*
X8283985Y749360D02*
X8525890Y749360D01*
X8525890Y749360D02*
X8671033Y700979D01*
X8961318Y410693D02*
X9348366Y410693D01*
X9106461Y749360D02*
X9106461Y-121497D01*
X9106461Y-121497D02*
X9154842Y-218259D01*
X9154842Y-218259D02*
X9251604Y-266639D01*
X9251604Y-266639D02*
X9348366Y-266639D01*
X10074080Y-218259D02*
X9977318Y-266639D01*
X9977318Y-266639D02*
X9783794Y-266639D01*
X9783794Y-266639D02*
X9687032Y-218259D01*
X9687032Y-218259D02*
X9638651Y-121497D01*
X9638651Y-121497D02*
X9638651Y265550D01*
X9638651Y265550D02*
X9687032Y362312D01*
X9687032Y362312D02*
X9783794Y410693D01*
X9783794Y410693D02*
X9977318Y410693D01*
X9977318Y410693D02*
X10074080Y362312D01*
X10074080Y362312D02*
X10122461Y265550D01*
X10122461Y265550D02*
X10122461Y168788D01*
X10122461Y168788D02*
X9638651Y72026D01*
X10944937Y-218259D02*
X10848175Y-266639D01*
X10848175Y-266639D02*
X10654651Y-266639D01*
X10654651Y-266639D02*
X10557889Y-218259D01*
X10557889Y-218259D02*
X10509508Y-121497D01*
X10509508Y-121497D02*
X10509508Y265550D01*
X10509508Y265550D02*
X10557889Y362312D01*
X10557889Y362312D02*
X10654651Y410693D01*
X10654651Y410693D02*
X10848175Y410693D01*
X10848175Y410693D02*
X10944937Y362312D01*
X10944937Y362312D02*
X10993318Y265550D01*
X10993318Y265550D02*
X10993318Y168788D01*
X10993318Y168788D02*
X10509508Y72026D01*
X11428746Y-266639D02*
X11428746Y410693D01*
X11428746Y217169D02*
X11477127Y313931D01*
X11477127Y313931D02*
X11525508Y362312D01*
X11525508Y362312D02*
X11622270Y410693D01*
X11622270Y410693D02*
X11719032Y410693D01*
X12057698Y-266639D02*
X12057698Y410693D01*
X12057698Y749360D02*
X12009317Y700979D01*
X12009317Y700979D02*
X12057698Y652598D01*
X12057698Y652598D02*
X12106079Y700979D01*
X12106079Y700979D02*
X12057698Y749360D01*
X12057698Y749360D02*
X12057698Y652598D01*
X12541508Y410693D02*
X12541508Y-266639D01*
X12541508Y313931D02*
X12589889Y362312D01*
X12589889Y362312D02*
X12686651Y410693D01*
X12686651Y410693D02*
X12831794Y410693D01*
X12831794Y410693D02*
X12928556Y362312D01*
X12928556Y362312D02*
X12976937Y265550D01*
X12976937Y265550D02*
X12976937Y-266639D01*
X13896175Y410693D02*
X13896175Y-411782D01*
X13896175Y-411782D02*
X13847794Y-508544D01*
X13847794Y-508544D02*
X13799413Y-556925D01*
X13799413Y-556925D02*
X13702651Y-605306D01*
X13702651Y-605306D02*
X13557508Y-605306D01*
X13557508Y-605306D02*
X13460746Y-556925D01*
X13896175Y-218259D02*
X13799413Y-266639D01*
X13799413Y-266639D02*
X13605889Y-266639D01*
X13605889Y-266639D02*
X13509127Y-218259D01*
X13509127Y-218259D02*
X13460746Y-169878D01*
X13460746Y-169878D02*
X13412365Y-73116D01*
X13412365Y-73116D02*
X13412365Y217169D01*
X13412365Y217169D02*
X13460746Y313931D01*
X13460746Y313931D02*
X13509127Y362312D01*
X13509127Y362312D02*
X13605889Y410693D01*
X13605889Y410693D02*
X13799413Y410693D01*
X13799413Y410693D02*
X13896175Y362312D01*
X15057317Y749360D02*
X15299222Y-266639D01*
X15299222Y-266639D02*
X15492746Y459074D01*
X15492746Y459074D02*
X15686270Y-266639D01*
X15686270Y-266639D02*
X15928175Y749360D01*
X16315222Y-266639D02*
X16315222Y749360D01*
X16750651Y-266639D02*
X16750651Y265550D01*
X16750651Y265550D02*
X16702270Y362312D01*
X16702270Y362312D02*
X16605508Y410693D01*
X16605508Y410693D02*
X16460365Y410693D01*
X16460365Y410693D02*
X16363603Y362312D01*
X16363603Y362312D02*
X16315222Y313931D01*
X17621508Y-218259D02*
X17524746Y-266639D01*
X17524746Y-266639D02*
X17331222Y-266639D01*
X17331222Y-266639D02*
X17234460Y-218259D01*
X17234460Y-218259D02*
X17186079Y-121497D01*
X17186079Y-121497D02*
X17186079Y265550D01*
X17186079Y265550D02*
X17234460Y362312D01*
X17234460Y362312D02*
X17331222Y410693D01*
X17331222Y410693D02*
X17524746Y410693D01*
X17524746Y410693D02*
X17621508Y362312D01*
X17621508Y362312D02*
X17669889Y265550D01*
X17669889Y265550D02*
X17669889Y168788D01*
X17669889Y168788D02*
X17186079Y72026D01*
X18492365Y-218259D02*
X18395603Y-266639D01*
X18395603Y-266639D02*
X18202079Y-266639D01*
X18202079Y-266639D02*
X18105317Y-218259D01*
X18105317Y-218259D02*
X18056936Y-121497D01*
X18056936Y-121497D02*
X18056936Y265550D01*
X18056936Y265550D02*
X18105317Y362312D01*
X18105317Y362312D02*
X18202079Y410693D01*
X18202079Y410693D02*
X18395603Y410693D01*
X18395603Y410693D02*
X18492365Y362312D01*
X18492365Y362312D02*
X18540746Y265550D01*
X18540746Y265550D02*
X18540746Y168788D01*
X18540746Y168788D02*
X18056936Y72026D01*
X19121317Y-266639D02*
X19024555Y-218259D01*
X19024555Y-218259D02*
X18976174Y-121497D01*
X18976174Y-121497D02*
X18976174Y749360D01*
X20137316Y749360D02*
X20475983Y-266639D01*
X20475983Y-266639D02*
X20814650Y749360D01*
X21685507Y-266639D02*
X21104935Y-266639D01*
X21395221Y-266639D02*
X21395221Y749360D01*
X21395221Y749360D02*
X21298459Y604217D01*
X21298459Y604217D02*
X21201697Y507455D01*
X21201697Y507455D02*
X21104935Y459074D01*
X22120935Y-169878D02*
X22169316Y-218259D01*
X22169316Y-218259D02*
X22120935Y-266639D01*
X22120935Y-266639D02*
X22072554Y-218259D01*
X22072554Y-218259D02*
X22120935Y-169878D01*
X22120935Y-169878D02*
X22120935Y-266639D01*
X22556364Y652598D02*
X22604745Y700979D01*
X22604745Y700979D02*
X22701507Y749360D01*
X22701507Y749360D02*
X22943412Y749360D01*
X22943412Y749360D02*
X23040174Y700979D01*
X23040174Y700979D02*
X23088555Y652598D01*
X23088555Y652598D02*
X23136936Y555836D01*
X23136936Y555836D02*
X23136936Y459074D01*
X23136936Y459074D02*
X23088555Y313931D01*
X23088555Y313931D02*
X22507983Y-266639D01*
X22507983Y-266639D02*
X23136936Y-266639D01*
X13760503Y-18641332D02*
X13034788Y-18641332D01*
X13034788Y-18641332D02*
X12889645Y-18592951D01*
X12889645Y-18592951D02*
X12792884Y-18496189D01*
X12792884Y-18496189D02*
X12744503Y-18351046D01*
X12744503Y-18351046D02*
X12744503Y-18254284D01*
X13760503Y-19608951D02*
X13760503Y-19125141D01*
X13760503Y-19125141D02*
X13276693Y-19076760D01*
X13276693Y-19076760D02*
X13325074Y-19125141D01*
X13325074Y-19125141D02*
X13373455Y-19221903D01*
X13373455Y-19221903D02*
X13373455Y-19463808D01*
X13373455Y-19463808D02*
X13325074Y-19560570D01*
X13325074Y-19560570D02*
X13276693Y-19608951D01*
X13276693Y-19608951D02*
X13179931Y-19657332D01*
X13179931Y-19657332D02*
X12938026Y-19657332D01*
X12938026Y-19657332D02*
X12841264Y-19608951D01*
X12841264Y-19608951D02*
X12792884Y-19560570D01*
X12792884Y-19560570D02*
X12744503Y-19463808D01*
X12744503Y-19463808D02*
X12744503Y-19221903D01*
X12744503Y-19221903D02*
X12792884Y-19125141D01*
X12792884Y-19125141D02*
X12841264Y-19076760D01*
X87738857Y-9001334D02*
X87690476Y-9049715D01*
X87690476Y-9049715D02*
X87545333Y-9098095D01*
X87545333Y-9098095D02*
X87448571Y-9098095D01*
X87448571Y-9098095D02*
X87303428Y-9049715D01*
X87303428Y-9049715D02*
X87206666Y-8952953D01*
X87206666Y-8952953D02*
X87158285Y-8856191D01*
X87158285Y-8856191D02*
X87109904Y-8662667D01*
X87109904Y-8662667D02*
X87109904Y-8517524D01*
X87109904Y-8517524D02*
X87158285Y-8324000D01*
X87158285Y-8324000D02*
X87206666Y-8227238D01*
X87206666Y-8227238D02*
X87303428Y-8130476D01*
X87303428Y-8130476D02*
X87448571Y-8082095D01*
X87448571Y-8082095D02*
X87545333Y-8082095D01*
X87545333Y-8082095D02*
X87690476Y-8130476D01*
X87690476Y-8130476D02*
X87738857Y-8178857D01*
X88125904Y-8178857D02*
X88174285Y-8130476D01*
X88174285Y-8130476D02*
X88271047Y-8082095D01*
X88271047Y-8082095D02*
X88512952Y-8082095D01*
X88512952Y-8082095D02*
X88609714Y-8130476D01*
X88609714Y-8130476D02*
X88658095Y-8178857D01*
X88658095Y-8178857D02*
X88706476Y-8275619D01*
X88706476Y-8275619D02*
X88706476Y-8372381D01*
X88706476Y-8372381D02*
X88658095Y-8517524D01*
X88658095Y-8517524D02*
X88077523Y-9098095D01*
X88077523Y-9098095D02*
X88706476Y-9098095D01*
X89577333Y-8420762D02*
X89577333Y-9098095D01*
X89335428Y-8033715D02*
X89093523Y-8759429D01*
X89093523Y-8759429D02*
X89722476Y-8759429D01*
X58504667Y-8845334D02*
X58456286Y-8893715D01*
X58456286Y-8893715D02*
X58311143Y-8942095D01*
X58311143Y-8942095D02*
X58214381Y-8942095D01*
X58214381Y-8942095D02*
X58069238Y-8893715D01*
X58069238Y-8893715D02*
X57972476Y-8796953D01*
X57972476Y-8796953D02*
X57924095Y-8700191D01*
X57924095Y-8700191D02*
X57875714Y-8506667D01*
X57875714Y-8506667D02*
X57875714Y-8361524D01*
X57875714Y-8361524D02*
X57924095Y-8168000D01*
X57924095Y-8168000D02*
X57972476Y-8071238D01*
X57972476Y-8071238D02*
X58069238Y-7974476D01*
X58069238Y-7974476D02*
X58214381Y-7926095D01*
X58214381Y-7926095D02*
X58311143Y-7926095D01*
X58311143Y-7926095D02*
X58456286Y-7974476D01*
X58456286Y-7974476D02*
X58504667Y-8022857D01*
X59472286Y-8942095D02*
X58891714Y-8942095D01*
X59182000Y-8942095D02*
X59182000Y-7926095D01*
X59182000Y-7926095D02*
X59085238Y-8071238D01*
X59085238Y-8071238D02*
X58988476Y-8168000D01*
X58988476Y-8168000D02*
X58891714Y-8216381D01*
X65846857Y1634665D02*
X65798476Y1586285D01*
X65798476Y1586285D02*
X65653333Y1537904D01*
X65653333Y1537904D02*
X65556571Y1537904D01*
X65556571Y1537904D02*
X65411428Y1586285D01*
X65411428Y1586285D02*
X65314666Y1683046D01*
X65314666Y1683046D02*
X65266285Y1779808D01*
X65266285Y1779808D02*
X65217904Y1973332D01*
X65217904Y1973332D02*
X65217904Y2118475D01*
X65217904Y2118475D02*
X65266285Y2311999D01*
X65266285Y2311999D02*
X65314666Y2408761D01*
X65314666Y2408761D02*
X65411428Y2505523D01*
X65411428Y2505523D02*
X65556571Y2553904D01*
X65556571Y2553904D02*
X65653333Y2553904D01*
X65653333Y2553904D02*
X65798476Y2505523D01*
X65798476Y2505523D02*
X65846857Y2457142D01*
X66814476Y1537904D02*
X66233904Y1537904D01*
X66524190Y1537904D02*
X66524190Y2553904D01*
X66524190Y2553904D02*
X66427428Y2408761D01*
X66427428Y2408761D02*
X66330666Y2311999D01*
X66330666Y2311999D02*
X66233904Y2263618D01*
X67153142Y2553904D02*
X67782095Y2553904D01*
X67782095Y2553904D02*
X67443428Y2166856D01*
X67443428Y2166856D02*
X67588571Y2166856D01*
X67588571Y2166856D02*
X67685333Y2118475D01*
X67685333Y2118475D02*
X67733714Y2070094D01*
X67733714Y2070094D02*
X67782095Y1973332D01*
X67782095Y1973332D02*
X67782095Y1731427D01*
X67782095Y1731427D02*
X67733714Y1634665D01*
X67733714Y1634665D02*
X67685333Y1586285D01*
X67685333Y1586285D02*
X67588571Y1537904D01*
X67588571Y1537904D02*
X67298285Y1537904D01*
X67298285Y1537904D02*
X67201523Y1586285D01*
X67201523Y1586285D02*
X67153142Y1634665D01*
X90100904Y-93260715D02*
X90246047Y-93309095D01*
X90246047Y-93309095D02*
X90487952Y-93309095D01*
X90487952Y-93309095D02*
X90584714Y-93260715D01*
X90584714Y-93260715D02*
X90633095Y-93212334D01*
X90633095Y-93212334D02*
X90681476Y-93115572D01*
X90681476Y-93115572D02*
X90681476Y-93018810D01*
X90681476Y-93018810D02*
X90633095Y-92922048D01*
X90633095Y-92922048D02*
X90584714Y-92873667D01*
X90584714Y-92873667D02*
X90487952Y-92825286D01*
X90487952Y-92825286D02*
X90294428Y-92776905D01*
X90294428Y-92776905D02*
X90197666Y-92728524D01*
X90197666Y-92728524D02*
X90149285Y-92680143D01*
X90149285Y-92680143D02*
X90100904Y-92583381D01*
X90100904Y-92583381D02*
X90100904Y-92486619D01*
X90100904Y-92486619D02*
X90149285Y-92389857D01*
X90149285Y-92389857D02*
X90197666Y-92341476D01*
X90197666Y-92341476D02*
X90294428Y-92293095D01*
X90294428Y-92293095D02*
X90536333Y-92293095D01*
X90536333Y-92293095D02*
X90681476Y-92341476D01*
X91649095Y-93309095D02*
X91068523Y-93309095D01*
X91358809Y-93309095D02*
X91358809Y-92293095D01*
X91358809Y-92293095D02*
X91262047Y-92438238D01*
X91262047Y-92438238D02*
X91165285Y-92535000D01*
X91165285Y-92535000D02*
X91068523Y-92583381D01*
X82846857Y5564665D02*
X82798476Y5516285D01*
X82798476Y5516285D02*
X82653333Y5467904D01*
X82653333Y5467904D02*
X82556571Y5467904D01*
X82556571Y5467904D02*
X82411428Y5516285D01*
X82411428Y5516285D02*
X82314666Y5613046D01*
X82314666Y5613046D02*
X82266285Y5709808D01*
X82266285Y5709808D02*
X82217904Y5903332D01*
X82217904Y5903332D02*
X82217904Y6048475D01*
X82217904Y6048475D02*
X82266285Y6241999D01*
X82266285Y6241999D02*
X82314666Y6338761D01*
X82314666Y6338761D02*
X82411428Y6435523D01*
X82411428Y6435523D02*
X82556571Y6483904D01*
X82556571Y6483904D02*
X82653333Y6483904D01*
X82653333Y6483904D02*
X82798476Y6435523D01*
X82798476Y6435523D02*
X82846857Y6387142D01*
X83814476Y5467904D02*
X83233904Y5467904D01*
X83524190Y5467904D02*
X83524190Y6483904D01*
X83524190Y6483904D02*
X83427428Y6338761D01*
X83427428Y6338761D02*
X83330666Y6241999D01*
X83330666Y6241999D02*
X83233904Y6193618D01*
X84733714Y6483904D02*
X84249904Y6483904D01*
X84249904Y6483904D02*
X84201523Y6000094D01*
X84201523Y6000094D02*
X84249904Y6048475D01*
X84249904Y6048475D02*
X84346666Y6096856D01*
X84346666Y6096856D02*
X84588571Y6096856D01*
X84588571Y6096856D02*
X84685333Y6048475D01*
X84685333Y6048475D02*
X84733714Y6000094D01*
X84733714Y6000094D02*
X84782095Y5903332D01*
X84782095Y5903332D02*
X84782095Y5661427D01*
X84782095Y5661427D02*
X84733714Y5564665D01*
X84733714Y5564665D02*
X84685333Y5516285D01*
X84685333Y5516285D02*
X84588571Y5467904D01*
X84588571Y5467904D02*
X84346666Y5467904D01*
X84346666Y5467904D02*
X84249904Y5516285D01*
X84249904Y5516285D02*
X84201523Y5564665D01*
X16624095Y-29101332D02*
X16140286Y-29439999D01*
X16624095Y-29681904D02*
X15608095Y-29681904D01*
X15608095Y-29681904D02*
X15608095Y-29294856D01*
X15608095Y-29294856D02*
X15656476Y-29198094D01*
X15656476Y-29198094D02*
X15704857Y-29149713D01*
X15704857Y-29149713D02*
X15801619Y-29101332D01*
X15801619Y-29101332D02*
X15946762Y-29101332D01*
X15946762Y-29101332D02*
X16043524Y-29149713D01*
X16043524Y-29149713D02*
X16091905Y-29198094D01*
X16091905Y-29198094D02*
X16140286Y-29294856D01*
X16140286Y-29294856D02*
X16140286Y-29681904D01*
X15608095Y-28230475D02*
X15608095Y-28423999D01*
X15608095Y-28423999D02*
X15656476Y-28520761D01*
X15656476Y-28520761D02*
X15704857Y-28569142D01*
X15704857Y-28569142D02*
X15850000Y-28665904D01*
X15850000Y-28665904D02*
X16043524Y-28714285D01*
X16043524Y-28714285D02*
X16430572Y-28714285D01*
X16430572Y-28714285D02*
X16527334Y-28665904D01*
X16527334Y-28665904D02*
X16575715Y-28617523D01*
X16575715Y-28617523D02*
X16624095Y-28520761D01*
X16624095Y-28520761D02*
X16624095Y-28327237D01*
X16624095Y-28327237D02*
X16575715Y-28230475D01*
X16575715Y-28230475D02*
X16527334Y-28182094D01*
X16527334Y-28182094D02*
X16430572Y-28133713D01*
X16430572Y-28133713D02*
X16188667Y-28133713D01*
X16188667Y-28133713D02*
X16091905Y-28182094D01*
X16091905Y-28182094D02*
X16043524Y-28230475D01*
X16043524Y-28230475D02*
X15995143Y-28327237D01*
X15995143Y-28327237D02*
X15995143Y-28520761D01*
X15995143Y-28520761D02*
X16043524Y-28617523D01*
X16043524Y-28617523D02*
X16091905Y-28665904D01*
X16091905Y-28665904D02*
X16188667Y-28714285D01*
X68846857Y9134665D02*
X68798476Y9086285D01*
X68798476Y9086285D02*
X68653333Y9037904D01*
X68653333Y9037904D02*
X68556571Y9037904D01*
X68556571Y9037904D02*
X68411428Y9086285D01*
X68411428Y9086285D02*
X68314666Y9183046D01*
X68314666Y9183046D02*
X68266285Y9279808D01*
X68266285Y9279808D02*
X68217904Y9473332D01*
X68217904Y9473332D02*
X68217904Y9618475D01*
X68217904Y9618475D02*
X68266285Y9811999D01*
X68266285Y9811999D02*
X68314666Y9908761D01*
X68314666Y9908761D02*
X68411428Y10005523D01*
X68411428Y10005523D02*
X68556571Y10053904D01*
X68556571Y10053904D02*
X68653333Y10053904D01*
X68653333Y10053904D02*
X68798476Y10005523D01*
X68798476Y10005523D02*
X68846857Y9957142D01*
X69814476Y9037904D02*
X69233904Y9037904D01*
X69524190Y9037904D02*
X69524190Y10053904D01*
X69524190Y10053904D02*
X69427428Y9908761D01*
X69427428Y9908761D02*
X69330666Y9811999D01*
X69330666Y9811999D02*
X69233904Y9763618D01*
X70685333Y9715237D02*
X70685333Y9037904D01*
X70443428Y10102285D02*
X70201523Y9376570D01*
X70201523Y9376570D02*
X70830476Y9376570D01*
X50295334Y8846857D02*
X50343715Y8798476D01*
X50343715Y8798476D02*
X50392095Y8653333D01*
X50392095Y8653333D02*
X50392095Y8556571D01*
X50392095Y8556571D02*
X50343715Y8411428D01*
X50343715Y8411428D02*
X50246953Y8314666D01*
X50246953Y8314666D02*
X50150191Y8266285D01*
X50150191Y8266285D02*
X49956667Y8217904D01*
X49956667Y8217904D02*
X49811524Y8217904D01*
X49811524Y8217904D02*
X49618000Y8266285D01*
X49618000Y8266285D02*
X49521238Y8314666D01*
X49521238Y8314666D02*
X49424476Y8411428D01*
X49424476Y8411428D02*
X49376095Y8556571D01*
X49376095Y8556571D02*
X49376095Y8653333D01*
X49376095Y8653333D02*
X49424476Y8798476D01*
X49424476Y8798476D02*
X49472857Y8846857D01*
X49472857Y9233904D02*
X49424476Y9282285D01*
X49424476Y9282285D02*
X49376095Y9379047D01*
X49376095Y9379047D02*
X49376095Y9620952D01*
X49376095Y9620952D02*
X49424476Y9717714D01*
X49424476Y9717714D02*
X49472857Y9766095D01*
X49472857Y9766095D02*
X49569619Y9814476D01*
X49569619Y9814476D02*
X49666381Y9814476D01*
X49666381Y9814476D02*
X49811524Y9766095D01*
X49811524Y9766095D02*
X50392095Y9185523D01*
X50392095Y9185523D02*
X50392095Y9814476D01*
X49472857Y10201523D02*
X49424476Y10249904D01*
X49424476Y10249904D02*
X49376095Y10346666D01*
X49376095Y10346666D02*
X49376095Y10588571D01*
X49376095Y10588571D02*
X49424476Y10685333D01*
X49424476Y10685333D02*
X49472857Y10733714D01*
X49472857Y10733714D02*
X49569619Y10782095D01*
X49569619Y10782095D02*
X49666381Y10782095D01*
X49666381Y10782095D02*
X49811524Y10733714D01*
X49811524Y10733714D02*
X50392095Y10153142D01*
X50392095Y10153142D02*
X50392095Y10782095D01*
X57084667Y-17867334D02*
X57036286Y-17915715D01*
X57036286Y-17915715D02*
X56891143Y-17964095D01*
X56891143Y-17964095D02*
X56794381Y-17964095D01*
X56794381Y-17964095D02*
X56649238Y-17915715D01*
X56649238Y-17915715D02*
X56552476Y-17818953D01*
X56552476Y-17818953D02*
X56504095Y-17722191D01*
X56504095Y-17722191D02*
X56455714Y-17528667D01*
X56455714Y-17528667D02*
X56455714Y-17383524D01*
X56455714Y-17383524D02*
X56504095Y-17190000D01*
X56504095Y-17190000D02*
X56552476Y-17093238D01*
X56552476Y-17093238D02*
X56649238Y-16996476D01*
X56649238Y-16996476D02*
X56794381Y-16948095D01*
X56794381Y-16948095D02*
X56891143Y-16948095D01*
X56891143Y-16948095D02*
X57036286Y-16996476D01*
X57036286Y-16996476D02*
X57084667Y-17044857D01*
X57471714Y-17044857D02*
X57520095Y-16996476D01*
X57520095Y-16996476D02*
X57616857Y-16948095D01*
X57616857Y-16948095D02*
X57858762Y-16948095D01*
X57858762Y-16948095D02*
X57955524Y-16996476D01*
X57955524Y-16996476D02*
X58003905Y-17044857D01*
X58003905Y-17044857D02*
X58052286Y-17141619D01*
X58052286Y-17141619D02*
X58052286Y-17238381D01*
X58052286Y-17238381D02*
X58003905Y-17383524D01*
X58003905Y-17383524D02*
X57423333Y-17964095D01*
X57423333Y-17964095D02*
X58052286Y-17964095D01*
X15655667Y-18532095D02*
X15317000Y-18048286D01*
X15075095Y-18532095D02*
X15075095Y-17516095D01*
X15075095Y-17516095D02*
X15462143Y-17516095D01*
X15462143Y-17516095D02*
X15558905Y-17564476D01*
X15558905Y-17564476D02*
X15607286Y-17612857D01*
X15607286Y-17612857D02*
X15655667Y-17709619D01*
X15655667Y-17709619D02*
X15655667Y-17854762D01*
X15655667Y-17854762D02*
X15607286Y-17951524D01*
X15607286Y-17951524D02*
X15558905Y-17999905D01*
X15558905Y-17999905D02*
X15462143Y-18048286D01*
X15462143Y-18048286D02*
X15075095Y-18048286D01*
X16526524Y-17854762D02*
X16526524Y-18532095D01*
X16284619Y-17467715D02*
X16042714Y-18193429D01*
X16042714Y-18193429D02*
X16671667Y-18193429D01*
X65846857Y3134665D02*
X65798476Y3086285D01*
X65798476Y3086285D02*
X65653333Y3037904D01*
X65653333Y3037904D02*
X65556571Y3037904D01*
X65556571Y3037904D02*
X65411428Y3086285D01*
X65411428Y3086285D02*
X65314666Y3183046D01*
X65314666Y3183046D02*
X65266285Y3279808D01*
X65266285Y3279808D02*
X65217904Y3473332D01*
X65217904Y3473332D02*
X65217904Y3618475D01*
X65217904Y3618475D02*
X65266285Y3811999D01*
X65266285Y3811999D02*
X65314666Y3908761D01*
X65314666Y3908761D02*
X65411428Y4005523D01*
X65411428Y4005523D02*
X65556571Y4053904D01*
X65556571Y4053904D02*
X65653333Y4053904D01*
X65653333Y4053904D02*
X65798476Y4005523D01*
X65798476Y4005523D02*
X65846857Y3957142D01*
X66814476Y3037904D02*
X66233904Y3037904D01*
X66524190Y3037904D02*
X66524190Y4053904D01*
X66524190Y4053904D02*
X66427428Y3908761D01*
X66427428Y3908761D02*
X66330666Y3811999D01*
X66330666Y3811999D02*
X66233904Y3763618D01*
X67443428Y4053904D02*
X67540190Y4053904D01*
X67540190Y4053904D02*
X67636952Y4005523D01*
X67636952Y4005523D02*
X67685333Y3957142D01*
X67685333Y3957142D02*
X67733714Y3860380D01*
X67733714Y3860380D02*
X67782095Y3666856D01*
X67782095Y3666856D02*
X67782095Y3424951D01*
X67782095Y3424951D02*
X67733714Y3231427D01*
X67733714Y3231427D02*
X67685333Y3134665D01*
X67685333Y3134665D02*
X67636952Y3086285D01*
X67636952Y3086285D02*
X67540190Y3037904D01*
X67540190Y3037904D02*
X67443428Y3037904D01*
X67443428Y3037904D02*
X67346666Y3086285D01*
X67346666Y3086285D02*
X67298285Y3134665D01*
X67298285Y3134665D02*
X67249904Y3231427D01*
X67249904Y3231427D02*
X67201523Y3424951D01*
X67201523Y3424951D02*
X67201523Y3666856D01*
X67201523Y3666856D02*
X67249904Y3860380D01*
X67249904Y3860380D02*
X67298285Y3957142D01*
X67298285Y3957142D02*
X67346666Y4005523D01*
X67346666Y4005523D02*
X67443428Y4053904D01*
X89770857Y-17480095D02*
X89432190Y-16996286D01*
X89190285Y-17480095D02*
X89190285Y-16464095D01*
X89190285Y-16464095D02*
X89577333Y-16464095D01*
X89577333Y-16464095D02*
X89674095Y-16512476D01*
X89674095Y-16512476D02*
X89722476Y-16560857D01*
X89722476Y-16560857D02*
X89770857Y-16657619D01*
X89770857Y-16657619D02*
X89770857Y-16802762D01*
X89770857Y-16802762D02*
X89722476Y-16899524D01*
X89722476Y-16899524D02*
X89674095Y-16947905D01*
X89674095Y-16947905D02*
X89577333Y-16996286D01*
X89577333Y-16996286D02*
X89190285Y-16996286D01*
X90738476Y-17480095D02*
X90157904Y-17480095D01*
X90448190Y-17480095D02*
X90448190Y-16464095D01*
X90448190Y-16464095D02*
X90351428Y-16609238D01*
X90351428Y-16609238D02*
X90254666Y-16706000D01*
X90254666Y-16706000D02*
X90157904Y-16754381D01*
X91706095Y-17480095D02*
X91125523Y-17480095D01*
X91415809Y-17480095D02*
X91415809Y-16464095D01*
X91415809Y-16464095D02*
X91319047Y-16609238D01*
X91319047Y-16609238D02*
X91222285Y-16706000D01*
X91222285Y-16706000D02*
X91125523Y-16754381D01*
X102531333Y-16210095D02*
X102531333Y-16935810D01*
X102531333Y-16935810D02*
X102482952Y-17080953D01*
X102482952Y-17080953D02*
X102386190Y-17177715D01*
X102386190Y-17177715D02*
X102241047Y-17226095D01*
X102241047Y-17226095D02*
X102144285Y-17226095D01*
X103450571Y-16210095D02*
X103257047Y-16210095D01*
X103257047Y-16210095D02*
X103160285Y-16258476D01*
X103160285Y-16258476D02*
X103111904Y-16306857D01*
X103111904Y-16306857D02*
X103015142Y-16452000D01*
X103015142Y-16452000D02*
X102966761Y-16645524D01*
X102966761Y-16645524D02*
X102966761Y-17032572D01*
X102966761Y-17032572D02*
X103015142Y-17129334D01*
X103015142Y-17129334D02*
X103063523Y-17177715D01*
X103063523Y-17177715D02*
X103160285Y-17226095D01*
X103160285Y-17226095D02*
X103353809Y-17226095D01*
X103353809Y-17226095D02*
X103450571Y-17177715D01*
X103450571Y-17177715D02*
X103498952Y-17129334D01*
X103498952Y-17129334D02*
X103547333Y-17032572D01*
X103547333Y-17032572D02*
X103547333Y-16790667D01*
X103547333Y-16790667D02*
X103498952Y-16693905D01*
X103498952Y-16693905D02*
X103450571Y-16645524D01*
X103450571Y-16645524D02*
X103353809Y-16597143D01*
X103353809Y-16597143D02*
X103160285Y-16597143D01*
X103160285Y-16597143D02*
X103063523Y-16645524D01*
X103063523Y-16645524D02*
X103015142Y-16693905D01*
X103015142Y-16693905D02*
X102966761Y-16790667D01*
X47295334Y8846857D02*
X47343715Y8798476D01*
X47343715Y8798476D02*
X47392095Y8653333D01*
X47392095Y8653333D02*
X47392095Y8556571D01*
X47392095Y8556571D02*
X47343715Y8411428D01*
X47343715Y8411428D02*
X47246953Y8314666D01*
X47246953Y8314666D02*
X47150191Y8266285D01*
X47150191Y8266285D02*
X46956667Y8217904D01*
X46956667Y8217904D02*
X46811524Y8217904D01*
X46811524Y8217904D02*
X46618000Y8266285D01*
X46618000Y8266285D02*
X46521238Y8314666D01*
X46521238Y8314666D02*
X46424476Y8411428D01*
X46424476Y8411428D02*
X46376095Y8556571D01*
X46376095Y8556571D02*
X46376095Y8653333D01*
X46376095Y8653333D02*
X46424476Y8798476D01*
X46424476Y8798476D02*
X46472857Y8846857D01*
X46472857Y9233904D02*
X46424476Y9282285D01*
X46424476Y9282285D02*
X46376095Y9379047D01*
X46376095Y9379047D02*
X46376095Y9620952D01*
X46376095Y9620952D02*
X46424476Y9717714D01*
X46424476Y9717714D02*
X46472857Y9766095D01*
X46472857Y9766095D02*
X46569619Y9814476D01*
X46569619Y9814476D02*
X46666381Y9814476D01*
X46666381Y9814476D02*
X46811524Y9766095D01*
X46811524Y9766095D02*
X47392095Y9185523D01*
X47392095Y9185523D02*
X47392095Y9814476D01*
X46376095Y10153142D02*
X46376095Y10782095D01*
X46376095Y10782095D02*
X46763143Y10443428D01*
X46763143Y10443428D02*
X46763143Y10588571D01*
X46763143Y10588571D02*
X46811524Y10685333D01*
X46811524Y10685333D02*
X46859905Y10733714D01*
X46859905Y10733714D02*
X46956667Y10782095D01*
X46956667Y10782095D02*
X47198572Y10782095D01*
X47198572Y10782095D02*
X47295334Y10733714D01*
X47295334Y10733714D02*
X47343715Y10685333D01*
X47343715Y10685333D02*
X47392095Y10588571D01*
X47392095Y10588571D02*
X47392095Y10298285D01*
X47392095Y10298285D02*
X47343715Y10201523D01*
X47343715Y10201523D02*
X47295334Y10153142D01*
X51803904Y-110395715D02*
X51949047Y-110444095D01*
X51949047Y-110444095D02*
X52190952Y-110444095D01*
X52190952Y-110444095D02*
X52287714Y-110395715D01*
X52287714Y-110395715D02*
X52336095Y-110347334D01*
X52336095Y-110347334D02*
X52384476Y-110250572D01*
X52384476Y-110250572D02*
X52384476Y-110153810D01*
X52384476Y-110153810D02*
X52336095Y-110057048D01*
X52336095Y-110057048D02*
X52287714Y-110008667D01*
X52287714Y-110008667D02*
X52190952Y-109960286D01*
X52190952Y-109960286D02*
X51997428Y-109911905D01*
X51997428Y-109911905D02*
X51900666Y-109863524D01*
X51900666Y-109863524D02*
X51852285Y-109815143D01*
X51852285Y-109815143D02*
X51803904Y-109718381D01*
X51803904Y-109718381D02*
X51803904Y-109621619D01*
X51803904Y-109621619D02*
X51852285Y-109524857D01*
X51852285Y-109524857D02*
X51900666Y-109476476D01*
X51900666Y-109476476D02*
X51997428Y-109428095D01*
X51997428Y-109428095D02*
X52239333Y-109428095D01*
X52239333Y-109428095D02*
X52384476Y-109476476D01*
X52771523Y-109524857D02*
X52819904Y-109476476D01*
X52819904Y-109476476D02*
X52916666Y-109428095D01*
X52916666Y-109428095D02*
X53158571Y-109428095D01*
X53158571Y-109428095D02*
X53255333Y-109476476D01*
X53255333Y-109476476D02*
X53303714Y-109524857D01*
X53303714Y-109524857D02*
X53352095Y-109621619D01*
X53352095Y-109621619D02*
X53352095Y-109718381D01*
X53352095Y-109718381D02*
X53303714Y-109863524D01*
X53303714Y-109863524D02*
X52723142Y-110444095D01*
X52723142Y-110444095D02*
X53352095Y-110444095D01*
X68749333Y-7828095D02*
X68749333Y-8553810D01*
X68749333Y-8553810D02*
X68700952Y-8698953D01*
X68700952Y-8698953D02*
X68604190Y-8795715D01*
X68604190Y-8795715D02*
X68459047Y-8844095D01*
X68459047Y-8844095D02*
X68362285Y-8844095D01*
X69668571Y-8166762D02*
X69668571Y-8844095D01*
X69426666Y-7779715D02*
X69184761Y-8505429D01*
X69184761Y-8505429D02*
X69813714Y-8505429D01*
X65846857Y4634665D02*
X65798476Y4586285D01*
X65798476Y4586285D02*
X65653333Y4537904D01*
X65653333Y4537904D02*
X65556571Y4537904D01*
X65556571Y4537904D02*
X65411428Y4586285D01*
X65411428Y4586285D02*
X65314666Y4683046D01*
X65314666Y4683046D02*
X65266285Y4779808D01*
X65266285Y4779808D02*
X65217904Y4973332D01*
X65217904Y4973332D02*
X65217904Y5118475D01*
X65217904Y5118475D02*
X65266285Y5311999D01*
X65266285Y5311999D02*
X65314666Y5408761D01*
X65314666Y5408761D02*
X65411428Y5505523D01*
X65411428Y5505523D02*
X65556571Y5553904D01*
X65556571Y5553904D02*
X65653333Y5553904D01*
X65653333Y5553904D02*
X65798476Y5505523D01*
X65798476Y5505523D02*
X65846857Y5457142D01*
X66814476Y4537904D02*
X66233904Y4537904D01*
X66524190Y4537904D02*
X66524190Y5553904D01*
X66524190Y5553904D02*
X66427428Y5408761D01*
X66427428Y5408761D02*
X66330666Y5311999D01*
X66330666Y5311999D02*
X66233904Y5263618D01*
X67782095Y4537904D02*
X67201523Y4537904D01*
X67491809Y4537904D02*
X67491809Y5553904D01*
X67491809Y5553904D02*
X67395047Y5408761D01*
X67395047Y5408761D02*
X67298285Y5311999D01*
X67298285Y5311999D02*
X67201523Y5263618D01*
X56205667Y-2143334D02*
X56157286Y-2191715D01*
X56157286Y-2191715D02*
X56012143Y-2240095D01*
X56012143Y-2240095D02*
X55915381Y-2240095D01*
X55915381Y-2240095D02*
X55770238Y-2191715D01*
X55770238Y-2191715D02*
X55673476Y-2094953D01*
X55673476Y-2094953D02*
X55625095Y-1998191D01*
X55625095Y-1998191D02*
X55576714Y-1804667D01*
X55576714Y-1804667D02*
X55576714Y-1659524D01*
X55576714Y-1659524D02*
X55625095Y-1466000D01*
X55625095Y-1466000D02*
X55673476Y-1369238D01*
X55673476Y-1369238D02*
X55770238Y-1272476D01*
X55770238Y-1272476D02*
X55915381Y-1224095D01*
X55915381Y-1224095D02*
X56012143Y-1224095D01*
X56012143Y-1224095D02*
X56157286Y-1272476D01*
X56157286Y-1272476D02*
X56205667Y-1320857D01*
X57076524Y-1224095D02*
X56883000Y-1224095D01*
X56883000Y-1224095D02*
X56786238Y-1272476D01*
X56786238Y-1272476D02*
X56737857Y-1320857D01*
X56737857Y-1320857D02*
X56641095Y-1466000D01*
X56641095Y-1466000D02*
X56592714Y-1659524D01*
X56592714Y-1659524D02*
X56592714Y-2046572D01*
X56592714Y-2046572D02*
X56641095Y-2143334D01*
X56641095Y-2143334D02*
X56689476Y-2191715D01*
X56689476Y-2191715D02*
X56786238Y-2240095D01*
X56786238Y-2240095D02*
X56979762Y-2240095D01*
X56979762Y-2240095D02*
X57076524Y-2191715D01*
X57076524Y-2191715D02*
X57124905Y-2143334D01*
X57124905Y-2143334D02*
X57173286Y-2046572D01*
X57173286Y-2046572D02*
X57173286Y-1804667D01*
X57173286Y-1804667D02*
X57124905Y-1707905D01*
X57124905Y-1707905D02*
X57076524Y-1659524D01*
X57076524Y-1659524D02*
X56979762Y-1611143D01*
X56979762Y-1611143D02*
X56786238Y-1611143D01*
X56786238Y-1611143D02*
X56689476Y-1659524D01*
X56689476Y-1659524D02*
X56641095Y-1707905D01*
X56641095Y-1707905D02*
X56592714Y-1804667D01*
X49868667Y-10271334D02*
X49820286Y-10319715D01*
X49820286Y-10319715D02*
X49675143Y-10368095D01*
X49675143Y-10368095D02*
X49578381Y-10368095D01*
X49578381Y-10368095D02*
X49433238Y-10319715D01*
X49433238Y-10319715D02*
X49336476Y-10222953D01*
X49336476Y-10222953D02*
X49288095Y-10126191D01*
X49288095Y-10126191D02*
X49239714Y-9932667D01*
X49239714Y-9932667D02*
X49239714Y-9787524D01*
X49239714Y-9787524D02*
X49288095Y-9594000D01*
X49288095Y-9594000D02*
X49336476Y-9497238D01*
X49336476Y-9497238D02*
X49433238Y-9400476D01*
X49433238Y-9400476D02*
X49578381Y-9352095D01*
X49578381Y-9352095D02*
X49675143Y-9352095D01*
X49675143Y-9352095D02*
X49820286Y-9400476D01*
X49820286Y-9400476D02*
X49868667Y-9448857D01*
X50207333Y-9352095D02*
X50836286Y-9352095D01*
X50836286Y-9352095D02*
X50497619Y-9739143D01*
X50497619Y-9739143D02*
X50642762Y-9739143D01*
X50642762Y-9739143D02*
X50739524Y-9787524D01*
X50739524Y-9787524D02*
X50787905Y-9835905D01*
X50787905Y-9835905D02*
X50836286Y-9932667D01*
X50836286Y-9932667D02*
X50836286Y-10174572D01*
X50836286Y-10174572D02*
X50787905Y-10271334D01*
X50787905Y-10271334D02*
X50739524Y-10319715D01*
X50739524Y-10319715D02*
X50642762Y-10368095D01*
X50642762Y-10368095D02*
X50352476Y-10368095D01*
X50352476Y-10368095D02*
X50255714Y-10319715D01*
X50255714Y-10319715D02*
X50207333Y-10271334D01*
X14225904Y-93913715D02*
X14371047Y-93962095D01*
X14371047Y-93962095D02*
X14612952Y-93962095D01*
X14612952Y-93962095D02*
X14709714Y-93913715D01*
X14709714Y-93913715D02*
X14758095Y-93865334D01*
X14758095Y-93865334D02*
X14806476Y-93768572D01*
X14806476Y-93768572D02*
X14806476Y-93671810D01*
X14806476Y-93671810D02*
X14758095Y-93575048D01*
X14758095Y-93575048D02*
X14709714Y-93526667D01*
X14709714Y-93526667D02*
X14612952Y-93478286D01*
X14612952Y-93478286D02*
X14419428Y-93429905D01*
X14419428Y-93429905D02*
X14322666Y-93381524D01*
X14322666Y-93381524D02*
X14274285Y-93333143D01*
X14274285Y-93333143D02*
X14225904Y-93236381D01*
X14225904Y-93236381D02*
X14225904Y-93139619D01*
X14225904Y-93139619D02*
X14274285Y-93042857D01*
X14274285Y-93042857D02*
X14322666Y-92994476D01*
X14322666Y-92994476D02*
X14419428Y-92946095D01*
X14419428Y-92946095D02*
X14661333Y-92946095D01*
X14661333Y-92946095D02*
X14806476Y-92994476D01*
X15145142Y-92946095D02*
X15774095Y-92946095D01*
X15774095Y-92946095D02*
X15435428Y-93333143D01*
X15435428Y-93333143D02*
X15580571Y-93333143D01*
X15580571Y-93333143D02*
X15677333Y-93381524D01*
X15677333Y-93381524D02*
X15725714Y-93429905D01*
X15725714Y-93429905D02*
X15774095Y-93526667D01*
X15774095Y-93526667D02*
X15774095Y-93768572D01*
X15774095Y-93768572D02*
X15725714Y-93865334D01*
X15725714Y-93865334D02*
X15677333Y-93913715D01*
X15677333Y-93913715D02*
X15580571Y-93962095D01*
X15580571Y-93962095D02*
X15290285Y-93962095D01*
X15290285Y-93962095D02*
X15193523Y-93913715D01*
X15193523Y-93913715D02*
X15145142Y-93865334D01*
X62285334Y8846857D02*
X62333715Y8798476D01*
X62333715Y8798476D02*
X62382095Y8653333D01*
X62382095Y8653333D02*
X62382095Y8556571D01*
X62382095Y8556571D02*
X62333715Y8411428D01*
X62333715Y8411428D02*
X62236953Y8314666D01*
X62236953Y8314666D02*
X62140191Y8266285D01*
X62140191Y8266285D02*
X61946667Y8217904D01*
X61946667Y8217904D02*
X61801524Y8217904D01*
X61801524Y8217904D02*
X61608000Y8266285D01*
X61608000Y8266285D02*
X61511238Y8314666D01*
X61511238Y8314666D02*
X61414476Y8411428D01*
X61414476Y8411428D02*
X61366095Y8556571D01*
X61366095Y8556571D02*
X61366095Y8653333D01*
X61366095Y8653333D02*
X61414476Y8798476D01*
X61414476Y8798476D02*
X61462857Y8846857D01*
X62382095Y9814476D02*
X62382095Y9233904D01*
X62382095Y9524190D02*
X61366095Y9524190D01*
X61366095Y9524190D02*
X61511238Y9427428D01*
X61511238Y9427428D02*
X61608000Y9330666D01*
X61608000Y9330666D02*
X61656381Y9233904D01*
X62382095Y10298285D02*
X62382095Y10491809D01*
X62382095Y10491809D02*
X62333715Y10588571D01*
X62333715Y10588571D02*
X62285334Y10636952D01*
X62285334Y10636952D02*
X62140191Y10733714D01*
X62140191Y10733714D02*
X61946667Y10782095D01*
X61946667Y10782095D02*
X61559619Y10782095D01*
X61559619Y10782095D02*
X61462857Y10733714D01*
X61462857Y10733714D02*
X61414476Y10685333D01*
X61414476Y10685333D02*
X61366095Y10588571D01*
X61366095Y10588571D02*
X61366095Y10395047D01*
X61366095Y10395047D02*
X61414476Y10298285D01*
X61414476Y10298285D02*
X61462857Y10249904D01*
X61462857Y10249904D02*
X61559619Y10201523D01*
X61559619Y10201523D02*
X61801524Y10201523D01*
X61801524Y10201523D02*
X61898286Y10249904D01*
X61898286Y10249904D02*
X61946667Y10298285D01*
X61946667Y10298285D02*
X61995048Y10395047D01*
X61995048Y10395047D02*
X61995048Y10588571D01*
X61995048Y10588571D02*
X61946667Y10685333D01*
X61946667Y10685333D02*
X61898286Y10733714D01*
X61898286Y10733714D02*
X61801524Y10782095D01*
X39454667Y-22306095D02*
X39116000Y-21822286D01*
X38874095Y-22306095D02*
X38874095Y-21290095D01*
X38874095Y-21290095D02*
X39261143Y-21290095D01*
X39261143Y-21290095D02*
X39357905Y-21338476D01*
X39357905Y-21338476D02*
X39406286Y-21386857D01*
X39406286Y-21386857D02*
X39454667Y-21483619D01*
X39454667Y-21483619D02*
X39454667Y-21628762D01*
X39454667Y-21628762D02*
X39406286Y-21725524D01*
X39406286Y-21725524D02*
X39357905Y-21773905D01*
X39357905Y-21773905D02*
X39261143Y-21822286D01*
X39261143Y-21822286D02*
X38874095Y-21822286D01*
X39938476Y-22306095D02*
X40132000Y-22306095D01*
X40132000Y-22306095D02*
X40228762Y-22257715D01*
X40228762Y-22257715D02*
X40277143Y-22209334D01*
X40277143Y-22209334D02*
X40373905Y-22064191D01*
X40373905Y-22064191D02*
X40422286Y-21870667D01*
X40422286Y-21870667D02*
X40422286Y-21483619D01*
X40422286Y-21483619D02*
X40373905Y-21386857D01*
X40373905Y-21386857D02*
X40325524Y-21338476D01*
X40325524Y-21338476D02*
X40228762Y-21290095D01*
X40228762Y-21290095D02*
X40035238Y-21290095D01*
X40035238Y-21290095D02*
X39938476Y-21338476D01*
X39938476Y-21338476D02*
X39890095Y-21386857D01*
X39890095Y-21386857D02*
X39841714Y-21483619D01*
X39841714Y-21483619D02*
X39841714Y-21725524D01*
X39841714Y-21725524D02*
X39890095Y-21822286D01*
X39890095Y-21822286D02*
X39938476Y-21870667D01*
X39938476Y-21870667D02*
X40035238Y-21919048D01*
X40035238Y-21919048D02*
X40228762Y-21919048D01*
X40228762Y-21919048D02*
X40325524Y-21870667D01*
X40325524Y-21870667D02*
X40373905Y-21822286D01*
X40373905Y-21822286D02*
X40422286Y-21725524D01*
X13760503Y-7176532D02*
X13034788Y-7176532D01*
X13034788Y-7176532D02*
X12889645Y-7128151D01*
X12889645Y-7128151D02*
X12792884Y-7031389D01*
X12792884Y-7031389D02*
X12744503Y-6886246D01*
X12744503Y-6886246D02*
X12744503Y-6789484D01*
X13760503Y-7563579D02*
X13760503Y-8192532D01*
X13760503Y-8192532D02*
X13373455Y-7853865D01*
X13373455Y-7853865D02*
X13373455Y-7999008D01*
X13373455Y-7999008D02*
X13325074Y-8095770D01*
X13325074Y-8095770D02*
X13276693Y-8144151D01*
X13276693Y-8144151D02*
X13179931Y-8192532D01*
X13179931Y-8192532D02*
X12938026Y-8192532D01*
X12938026Y-8192532D02*
X12841264Y-8144151D01*
X12841264Y-8144151D02*
X12792884Y-8095770D01*
X12792884Y-8095770D02*
X12744503Y-7999008D01*
X12744503Y-7999008D02*
X12744503Y-7708722D01*
X12744503Y-7708722D02*
X12792884Y-7611960D01*
X12792884Y-7611960D02*
X12841264Y-7563579D01*
X46820667Y-14081334D02*
X46772286Y-14129715D01*
X46772286Y-14129715D02*
X46627143Y-14178095D01*
X46627143Y-14178095D02*
X46530381Y-14178095D01*
X46530381Y-14178095D02*
X46385238Y-14129715D01*
X46385238Y-14129715D02*
X46288476Y-14032953D01*
X46288476Y-14032953D02*
X46240095Y-13936191D01*
X46240095Y-13936191D02*
X46191714Y-13742667D01*
X46191714Y-13742667D02*
X46191714Y-13597524D01*
X46191714Y-13597524D02*
X46240095Y-13404000D01*
X46240095Y-13404000D02*
X46288476Y-13307238D01*
X46288476Y-13307238D02*
X46385238Y-13210476D01*
X46385238Y-13210476D02*
X46530381Y-13162095D01*
X46530381Y-13162095D02*
X46627143Y-13162095D01*
X46627143Y-13162095D02*
X46772286Y-13210476D01*
X46772286Y-13210476D02*
X46820667Y-13258857D01*
X47691524Y-13500762D02*
X47691524Y-14178095D01*
X47449619Y-13113715D02*
X47207714Y-13839429D01*
X47207714Y-13839429D02*
X47836667Y-13839429D01*
X91330667Y-28892095D02*
X90992000Y-28408286D01*
X90750095Y-28892095D02*
X90750095Y-27876095D01*
X90750095Y-27876095D02*
X91137143Y-27876095D01*
X91137143Y-27876095D02*
X91233905Y-27924476D01*
X91233905Y-27924476D02*
X91282286Y-27972857D01*
X91282286Y-27972857D02*
X91330667Y-28069619D01*
X91330667Y-28069619D02*
X91330667Y-28214762D01*
X91330667Y-28214762D02*
X91282286Y-28311524D01*
X91282286Y-28311524D02*
X91233905Y-28359905D01*
X91233905Y-28359905D02*
X91137143Y-28408286D01*
X91137143Y-28408286D02*
X90750095Y-28408286D01*
X91669333Y-27876095D02*
X92346667Y-27876095D01*
X92346667Y-27876095D02*
X91911238Y-28892095D01*
X52929905Y8653333D02*
X52929905Y8314666D01*
X53462095Y8314666D02*
X52446095Y8314666D01*
X52446095Y8314666D02*
X52446095Y8798476D01*
X52929905Y9524190D02*
X52978286Y9669333D01*
X52978286Y9669333D02*
X53026667Y9717714D01*
X53026667Y9717714D02*
X53123429Y9766095D01*
X53123429Y9766095D02*
X53268572Y9766095D01*
X53268572Y9766095D02*
X53365334Y9717714D01*
X53365334Y9717714D02*
X53413715Y9669333D01*
X53413715Y9669333D02*
X53462095Y9572571D01*
X53462095Y9572571D02*
X53462095Y9185523D01*
X53462095Y9185523D02*
X52446095Y9185523D01*
X52446095Y9185523D02*
X52446095Y9524190D01*
X52446095Y9524190D02*
X52494476Y9620952D01*
X52494476Y9620952D02*
X52542857Y9669333D01*
X52542857Y9669333D02*
X52639619Y9717714D01*
X52639619Y9717714D02*
X52736381Y9717714D01*
X52736381Y9717714D02*
X52833143Y9669333D01*
X52833143Y9669333D02*
X52881524Y9620952D01*
X52881524Y9620952D02*
X52929905Y9524190D01*
X52929905Y9524190D02*
X52929905Y9185523D01*
X53462095Y10733714D02*
X53462095Y10153142D01*
X53462095Y10443428D02*
X52446095Y10443428D01*
X52446095Y10443428D02*
X52591238Y10346666D01*
X52591238Y10346666D02*
X52688000Y10249904D01*
X52688000Y10249904D02*
X52736381Y10153142D01*
X82596095Y-13274095D02*
X83418572Y-13274095D01*
X83418572Y-13274095D02*
X83515334Y-13225714D01*
X83515334Y-13225714D02*
X83563715Y-13177333D01*
X83563715Y-13177333D02*
X83612095Y-13080571D01*
X83612095Y-13080571D02*
X83612095Y-12887047D01*
X83612095Y-12887047D02*
X83563715Y-12790285D01*
X83563715Y-12790285D02*
X83515334Y-12741904D01*
X83515334Y-12741904D02*
X83418572Y-12693523D01*
X83418572Y-12693523D02*
X82596095Y-12693523D01*
X82596095Y-12306476D02*
X82596095Y-11629142D01*
X82596095Y-11629142D02*
X83612095Y-12064571D01*
X59295334Y8846857D02*
X59343715Y8798476D01*
X59343715Y8798476D02*
X59392095Y8653333D01*
X59392095Y8653333D02*
X59392095Y8556571D01*
X59392095Y8556571D02*
X59343715Y8411428D01*
X59343715Y8411428D02*
X59246953Y8314666D01*
X59246953Y8314666D02*
X59150191Y8266285D01*
X59150191Y8266285D02*
X58956667Y8217904D01*
X58956667Y8217904D02*
X58811524Y8217904D01*
X58811524Y8217904D02*
X58618000Y8266285D01*
X58618000Y8266285D02*
X58521238Y8314666D01*
X58521238Y8314666D02*
X58424476Y8411428D01*
X58424476Y8411428D02*
X58376095Y8556571D01*
X58376095Y8556571D02*
X58376095Y8653333D01*
X58376095Y8653333D02*
X58424476Y8798476D01*
X58424476Y8798476D02*
X58472857Y8846857D01*
X58472857Y9233904D02*
X58424476Y9282285D01*
X58424476Y9282285D02*
X58376095Y9379047D01*
X58376095Y9379047D02*
X58376095Y9620952D01*
X58376095Y9620952D02*
X58424476Y9717714D01*
X58424476Y9717714D02*
X58472857Y9766095D01*
X58472857Y9766095D02*
X58569619Y9814476D01*
X58569619Y9814476D02*
X58666381Y9814476D01*
X58666381Y9814476D02*
X58811524Y9766095D01*
X58811524Y9766095D02*
X59392095Y9185523D01*
X59392095Y9185523D02*
X59392095Y9814476D01*
X58376095Y10443428D02*
X58376095Y10540190D01*
X58376095Y10540190D02*
X58424476Y10636952D01*
X58424476Y10636952D02*
X58472857Y10685333D01*
X58472857Y10685333D02*
X58569619Y10733714D01*
X58569619Y10733714D02*
X58763143Y10782095D01*
X58763143Y10782095D02*
X59005048Y10782095D01*
X59005048Y10782095D02*
X59198572Y10733714D01*
X59198572Y10733714D02*
X59295334Y10685333D01*
X59295334Y10685333D02*
X59343715Y10636952D01*
X59343715Y10636952D02*
X59392095Y10540190D01*
X59392095Y10540190D02*
X59392095Y10443428D01*
X59392095Y10443428D02*
X59343715Y10346666D01*
X59343715Y10346666D02*
X59295334Y10298285D01*
X59295334Y10298285D02*
X59198572Y10249904D01*
X59198572Y10249904D02*
X59005048Y10201523D01*
X59005048Y10201523D02*
X58763143Y10201523D01*
X58763143Y10201523D02*
X58569619Y10249904D01*
X58569619Y10249904D02*
X58472857Y10298285D01*
X58472857Y10298285D02*
X58424476Y10346666D01*
X58424476Y10346666D02*
X58376095Y10443428D01*
X71725904Y11053904D02*
X71725904Y10231427D01*
X71725904Y10231427D02*
X71774285Y10134665D01*
X71774285Y10134665D02*
X71822666Y10086285D01*
X71822666Y10086285D02*
X71919428Y10037904D01*
X71919428Y10037904D02*
X72112952Y10037904D01*
X72112952Y10037904D02*
X72209714Y10086285D01*
X72209714Y10086285D02*
X72258095Y10134665D01*
X72258095Y10134665D02*
X72306476Y10231427D01*
X72306476Y10231427D02*
X72306476Y11053904D01*
X73225714Y10715237D02*
X73225714Y10037904D01*
X72983809Y11102285D02*
X72741904Y10376570D01*
X72741904Y10376570D02*
X73370857Y10376570D01*
X16624095Y-23101332D02*
X16140286Y-23439999D01*
X16624095Y-23681904D02*
X15608095Y-23681904D01*
X15608095Y-23681904D02*
X15608095Y-23294856D01*
X15608095Y-23294856D02*
X15656476Y-23198094D01*
X15656476Y-23198094D02*
X15704857Y-23149713D01*
X15704857Y-23149713D02*
X15801619Y-23101332D01*
X15801619Y-23101332D02*
X15946762Y-23101332D01*
X15946762Y-23101332D02*
X16043524Y-23149713D01*
X16043524Y-23149713D02*
X16091905Y-23198094D01*
X16091905Y-23198094D02*
X16140286Y-23294856D01*
X16140286Y-23294856D02*
X16140286Y-23681904D01*
X15608095Y-22182094D02*
X15608095Y-22665904D01*
X15608095Y-22665904D02*
X16091905Y-22714285D01*
X16091905Y-22714285D02*
X16043524Y-22665904D01*
X16043524Y-22665904D02*
X15995143Y-22569142D01*
X15995143Y-22569142D02*
X15995143Y-22327237D01*
X15995143Y-22327237D02*
X16043524Y-22230475D01*
X16043524Y-22230475D02*
X16091905Y-22182094D01*
X16091905Y-22182094D02*
X16188667Y-22133713D01*
X16188667Y-22133713D02*
X16430572Y-22133713D01*
X16430572Y-22133713D02*
X16527334Y-22182094D01*
X16527334Y-22182094D02*
X16575715Y-22230475D01*
X16575715Y-22230475D02*
X16624095Y-22327237D01*
X16624095Y-22327237D02*
X16624095Y-22569142D01*
X16624095Y-22569142D02*
X16575715Y-22665904D01*
X16575715Y-22665904D02*
X16527334Y-22714285D01*
X31604857Y-22560095D02*
X31266190Y-22076286D01*
X31024285Y-22560095D02*
X31024285Y-21544095D01*
X31024285Y-21544095D02*
X31411333Y-21544095D01*
X31411333Y-21544095D02*
X31508095Y-21592476D01*
X31508095Y-21592476D02*
X31556476Y-21640857D01*
X31556476Y-21640857D02*
X31604857Y-21737619D01*
X31604857Y-21737619D02*
X31604857Y-21882762D01*
X31604857Y-21882762D02*
X31556476Y-21979524D01*
X31556476Y-21979524D02*
X31508095Y-22027905D01*
X31508095Y-22027905D02*
X31411333Y-22076286D01*
X31411333Y-22076286D02*
X31024285Y-22076286D01*
X32572476Y-22560095D02*
X31991904Y-22560095D01*
X32282190Y-22560095D02*
X32282190Y-21544095D01*
X32282190Y-21544095D02*
X32185428Y-21689238D01*
X32185428Y-21689238D02*
X32088666Y-21786000D01*
X32088666Y-21786000D02*
X31991904Y-21834381D01*
X32959523Y-21640857D02*
X33007904Y-21592476D01*
X33007904Y-21592476D02*
X33104666Y-21544095D01*
X33104666Y-21544095D02*
X33346571Y-21544095D01*
X33346571Y-21544095D02*
X33443333Y-21592476D01*
X33443333Y-21592476D02*
X33491714Y-21640857D01*
X33491714Y-21640857D02*
X33540095Y-21737619D01*
X33540095Y-21737619D02*
X33540095Y-21834381D01*
X33540095Y-21834381D02*
X33491714Y-21979524D01*
X33491714Y-21979524D02*
X32911142Y-22560095D01*
X32911142Y-22560095D02*
X33540095Y-22560095D01*
X33435334Y-153142D02*
X33483715Y-201523D01*
X33483715Y-201523D02*
X33532095Y-346666D01*
X33532095Y-346666D02*
X33532095Y-443428D01*
X33532095Y-443428D02*
X33483715Y-588571D01*
X33483715Y-588571D02*
X33386953Y-685333D01*
X33386953Y-685333D02*
X33290191Y-733714D01*
X33290191Y-733714D02*
X33096667Y-782095D01*
X33096667Y-782095D02*
X32951524Y-782095D01*
X32951524Y-782095D02*
X32758000Y-733714D01*
X32758000Y-733714D02*
X32661238Y-685333D01*
X32661238Y-685333D02*
X32564476Y-588571D01*
X32564476Y-588571D02*
X32516095Y-443428D01*
X32516095Y-443428D02*
X32516095Y-346666D01*
X32516095Y-346666D02*
X32564476Y-201523D01*
X32564476Y-201523D02*
X32612857Y-153142D01*
X33532095Y814476D02*
X33532095Y233904D01*
X33532095Y524190D02*
X32516095Y524190D01*
X32516095Y524190D02*
X32661238Y427428D01*
X32661238Y427428D02*
X32758000Y330666D01*
X32758000Y330666D02*
X32806381Y233904D01*
X32516095Y1685333D02*
X32516095Y1491809D01*
X32516095Y1491809D02*
X32564476Y1395047D01*
X32564476Y1395047D02*
X32612857Y1346666D01*
X32612857Y1346666D02*
X32758000Y1249904D01*
X32758000Y1249904D02*
X32951524Y1201523D01*
X32951524Y1201523D02*
X33338572Y1201523D01*
X33338572Y1201523D02*
X33435334Y1249904D01*
X33435334Y1249904D02*
X33483715Y1298285D01*
X33483715Y1298285D02*
X33532095Y1395047D01*
X33532095Y1395047D02*
X33532095Y1588571D01*
X33532095Y1588571D02*
X33483715Y1685333D01*
X33483715Y1685333D02*
X33435334Y1733714D01*
X33435334Y1733714D02*
X33338572Y1782095D01*
X33338572Y1782095D02*
X33096667Y1782095D01*
X33096667Y1782095D02*
X32999905Y1733714D01*
X32999905Y1733714D02*
X32951524Y1685333D01*
X32951524Y1685333D02*
X32903143Y1588571D01*
X32903143Y1588571D02*
X32903143Y1395047D01*
X32903143Y1395047D02*
X32951524Y1298285D01*
X32951524Y1298285D02*
X32999905Y1249904D01*
X32999905Y1249904D02*
X33096667Y1201523D01*
X31604857Y-19255334D02*
X31556476Y-19303715D01*
X31556476Y-19303715D02*
X31411333Y-19352095D01*
X31411333Y-19352095D02*
X31314571Y-19352095D01*
X31314571Y-19352095D02*
X31169428Y-19303715D01*
X31169428Y-19303715D02*
X31072666Y-19206953D01*
X31072666Y-19206953D02*
X31024285Y-19110191D01*
X31024285Y-19110191D02*
X30975904Y-18916667D01*
X30975904Y-18916667D02*
X30975904Y-18771524D01*
X30975904Y-18771524D02*
X31024285Y-18578000D01*
X31024285Y-18578000D02*
X31072666Y-18481238D01*
X31072666Y-18481238D02*
X31169428Y-18384476D01*
X31169428Y-18384476D02*
X31314571Y-18336095D01*
X31314571Y-18336095D02*
X31411333Y-18336095D01*
X31411333Y-18336095D02*
X31556476Y-18384476D01*
X31556476Y-18384476D02*
X31604857Y-18432857D01*
X31991904Y-18432857D02*
X32040285Y-18384476D01*
X32040285Y-18384476D02*
X32137047Y-18336095D01*
X32137047Y-18336095D02*
X32378952Y-18336095D01*
X32378952Y-18336095D02*
X32475714Y-18384476D01*
X32475714Y-18384476D02*
X32524095Y-18432857D01*
X32524095Y-18432857D02*
X32572476Y-18529619D01*
X32572476Y-18529619D02*
X32572476Y-18626381D01*
X32572476Y-18626381D02*
X32524095Y-18771524D01*
X32524095Y-18771524D02*
X31943523Y-19352095D01*
X31943523Y-19352095D02*
X32572476Y-19352095D01*
X33056285Y-19352095D02*
X33249809Y-19352095D01*
X33249809Y-19352095D02*
X33346571Y-19303715D01*
X33346571Y-19303715D02*
X33394952Y-19255334D01*
X33394952Y-19255334D02*
X33491714Y-19110191D01*
X33491714Y-19110191D02*
X33540095Y-18916667D01*
X33540095Y-18916667D02*
X33540095Y-18529619D01*
X33540095Y-18529619D02*
X33491714Y-18432857D01*
X33491714Y-18432857D02*
X33443333Y-18384476D01*
X33443333Y-18384476D02*
X33346571Y-18336095D01*
X33346571Y-18336095D02*
X33153047Y-18336095D01*
X33153047Y-18336095D02*
X33056285Y-18384476D01*
X33056285Y-18384476D02*
X33007904Y-18432857D01*
X33007904Y-18432857D02*
X32959523Y-18529619D01*
X32959523Y-18529619D02*
X32959523Y-18771524D01*
X32959523Y-18771524D02*
X33007904Y-18868286D01*
X33007904Y-18868286D02*
X33056285Y-18916667D01*
X33056285Y-18916667D02*
X33153047Y-18965048D01*
X33153047Y-18965048D02*
X33346571Y-18965048D01*
X33346571Y-18965048D02*
X33443333Y-18916667D01*
X33443333Y-18916667D02*
X33491714Y-18868286D01*
X33491714Y-18868286D02*
X33540095Y-18771524D01*
X39155857Y-19001334D02*
X39107476Y-19049715D01*
X39107476Y-19049715D02*
X38962333Y-19098095D01*
X38962333Y-19098095D02*
X38865571Y-19098095D01*
X38865571Y-19098095D02*
X38720428Y-19049715D01*
X38720428Y-19049715D02*
X38623666Y-18952953D01*
X38623666Y-18952953D02*
X38575285Y-18856191D01*
X38575285Y-18856191D02*
X38526904Y-18662667D01*
X38526904Y-18662667D02*
X38526904Y-18517524D01*
X38526904Y-18517524D02*
X38575285Y-18324000D01*
X38575285Y-18324000D02*
X38623666Y-18227238D01*
X38623666Y-18227238D02*
X38720428Y-18130476D01*
X38720428Y-18130476D02*
X38865571Y-18082095D01*
X38865571Y-18082095D02*
X38962333Y-18082095D01*
X38962333Y-18082095D02*
X39107476Y-18130476D01*
X39107476Y-18130476D02*
X39155857Y-18178857D01*
X39542904Y-18178857D02*
X39591285Y-18130476D01*
X39591285Y-18130476D02*
X39688047Y-18082095D01*
X39688047Y-18082095D02*
X39929952Y-18082095D01*
X39929952Y-18082095D02*
X40026714Y-18130476D01*
X40026714Y-18130476D02*
X40075095Y-18178857D01*
X40075095Y-18178857D02*
X40123476Y-18275619D01*
X40123476Y-18275619D02*
X40123476Y-18372381D01*
X40123476Y-18372381D02*
X40075095Y-18517524D01*
X40075095Y-18517524D02*
X39494523Y-19098095D01*
X39494523Y-19098095D02*
X40123476Y-19098095D01*
X40462142Y-18082095D02*
X41139476Y-18082095D01*
X41139476Y-18082095D02*
X40704047Y-19098095D01*
X20392095Y-8153142D02*
X19908286Y-8491809D01*
X20392095Y-8733714D02*
X19376095Y-8733714D01*
X19376095Y-8733714D02*
X19376095Y-8346666D01*
X19376095Y-8346666D02*
X19424476Y-8249904D01*
X19424476Y-8249904D02*
X19472857Y-8201523D01*
X19472857Y-8201523D02*
X19569619Y-8153142D01*
X19569619Y-8153142D02*
X19714762Y-8153142D01*
X19714762Y-8153142D02*
X19811524Y-8201523D01*
X19811524Y-8201523D02*
X19859905Y-8249904D01*
X19859905Y-8249904D02*
X19908286Y-8346666D01*
X19908286Y-8346666D02*
X19908286Y-8733714D01*
X20392095Y-7185523D02*
X20392095Y-7766095D01*
X20392095Y-7475809D02*
X19376095Y-7475809D01*
X19376095Y-7475809D02*
X19521238Y-7572571D01*
X19521238Y-7572571D02*
X19618000Y-7669333D01*
X19618000Y-7669333D02*
X19666381Y-7766095D01*
X19376095Y-6846857D02*
X19376095Y-6169523D01*
X19376095Y-6169523D02*
X20392095Y-6604952D01*
X81330667Y12594665D02*
X81282286Y12546285D01*
X81282286Y12546285D02*
X81137143Y12497904D01*
X81137143Y12497904D02*
X81040381Y12497904D01*
X81040381Y12497904D02*
X80895238Y12546285D01*
X80895238Y12546285D02*
X80798476Y12643046D01*
X80798476Y12643046D02*
X80750095Y12739808D01*
X80750095Y12739808D02*
X80701714Y12933332D01*
X80701714Y12933332D02*
X80701714Y13078475D01*
X80701714Y13078475D02*
X80750095Y13271999D01*
X80750095Y13271999D02*
X80798476Y13368761D01*
X80798476Y13368761D02*
X80895238Y13465523D01*
X80895238Y13465523D02*
X81040381Y13513904D01*
X81040381Y13513904D02*
X81137143Y13513904D01*
X81137143Y13513904D02*
X81282286Y13465523D01*
X81282286Y13465523D02*
X81330667Y13417142D01*
X81911238Y13078475D02*
X81814476Y13126856D01*
X81814476Y13126856D02*
X81766095Y13175237D01*
X81766095Y13175237D02*
X81717714Y13271999D01*
X81717714Y13271999D02*
X81717714Y13320380D01*
X81717714Y13320380D02*
X81766095Y13417142D01*
X81766095Y13417142D02*
X81814476Y13465523D01*
X81814476Y13465523D02*
X81911238Y13513904D01*
X81911238Y13513904D02*
X82104762Y13513904D01*
X82104762Y13513904D02*
X82201524Y13465523D01*
X82201524Y13465523D02*
X82249905Y13417142D01*
X82249905Y13417142D02*
X82298286Y13320380D01*
X82298286Y13320380D02*
X82298286Y13271999D01*
X82298286Y13271999D02*
X82249905Y13175237D01*
X82249905Y13175237D02*
X82201524Y13126856D01*
X82201524Y13126856D02*
X82104762Y13078475D01*
X82104762Y13078475D02*
X81911238Y13078475D01*
X81911238Y13078475D02*
X81814476Y13030094D01*
X81814476Y13030094D02*
X81766095Y12981713D01*
X81766095Y12981713D02*
X81717714Y12884951D01*
X81717714Y12884951D02*
X81717714Y12691427D01*
X81717714Y12691427D02*
X81766095Y12594665D01*
X81766095Y12594665D02*
X81814476Y12546285D01*
X81814476Y12546285D02*
X81911238Y12497904D01*
X81911238Y12497904D02*
X82104762Y12497904D01*
X82104762Y12497904D02*
X82201524Y12546285D01*
X82201524Y12546285D02*
X82249905Y12594665D01*
X82249905Y12594665D02*
X82298286Y12691427D01*
X82298286Y12691427D02*
X82298286Y12884951D01*
X82298286Y12884951D02*
X82249905Y12981713D01*
X82249905Y12981713D02*
X82201524Y13030094D01*
X82201524Y13030094D02*
X82104762Y13078475D01*
X72677524Y-22444095D02*
X72677524Y-23169810D01*
X72677524Y-23169810D02*
X72629143Y-23314953D01*
X72629143Y-23314953D02*
X72532381Y-23411715D01*
X72532381Y-23411715D02*
X72387238Y-23460095D01*
X72387238Y-23460095D02*
X72290476Y-23460095D01*
X73693524Y-23460095D02*
X73112952Y-23460095D01*
X73403238Y-23460095D02*
X73403238Y-22444095D01*
X73403238Y-22444095D02*
X73306476Y-22589238D01*
X73306476Y-22589238D02*
X73209714Y-22686000D01*
X73209714Y-22686000D02*
X73112952Y-22734381D01*
X74322476Y-22444095D02*
X74419238Y-22444095D01*
X74419238Y-22444095D02*
X74516000Y-22492476D01*
X74516000Y-22492476D02*
X74564381Y-22540857D01*
X74564381Y-22540857D02*
X74612762Y-22637619D01*
X74612762Y-22637619D02*
X74661143Y-22831143D01*
X74661143Y-22831143D02*
X74661143Y-23073048D01*
X74661143Y-23073048D02*
X74612762Y-23266572D01*
X74612762Y-23266572D02*
X74564381Y-23363334D01*
X74564381Y-23363334D02*
X74516000Y-23411715D01*
X74516000Y-23411715D02*
X74419238Y-23460095D01*
X74419238Y-23460095D02*
X74322476Y-23460095D01*
X74322476Y-23460095D02*
X74225714Y-23411715D01*
X74225714Y-23411715D02*
X74177333Y-23363334D01*
X74177333Y-23363334D02*
X74128952Y-23266572D01*
X74128952Y-23266572D02*
X74080571Y-23073048D01*
X74080571Y-23073048D02*
X74080571Y-22831143D01*
X74080571Y-22831143D02*
X74128952Y-22637619D01*
X74128952Y-22637619D02*
X74177333Y-22540857D01*
X74177333Y-22540857D02*
X74225714Y-22492476D01*
X74225714Y-22492476D02*
X74322476Y-22444095D01*
X46182095Y-7257142D02*
X45698286Y-7595809D01*
X46182095Y-7837714D02*
X45166095Y-7837714D01*
X45166095Y-7837714D02*
X45166095Y-7450666D01*
X45166095Y-7450666D02*
X45214476Y-7353904D01*
X45214476Y-7353904D02*
X45262857Y-7305523D01*
X45262857Y-7305523D02*
X45359619Y-7257142D01*
X45359619Y-7257142D02*
X45504762Y-7257142D01*
X45504762Y-7257142D02*
X45601524Y-7305523D01*
X45601524Y-7305523D02*
X45649905Y-7353904D01*
X45649905Y-7353904D02*
X45698286Y-7450666D01*
X45698286Y-7450666D02*
X45698286Y-7837714D01*
X46182095Y-6289523D02*
X46182095Y-6870095D01*
X46182095Y-6579809D02*
X45166095Y-6579809D01*
X45166095Y-6579809D02*
X45311238Y-6676571D01*
X45311238Y-6676571D02*
X45408000Y-6773333D01*
X45408000Y-6773333D02*
X45456381Y-6870095D01*
X45601524Y-5708952D02*
X45553143Y-5805714D01*
X45553143Y-5805714D02*
X45504762Y-5854095D01*
X45504762Y-5854095D02*
X45408000Y-5902476D01*
X45408000Y-5902476D02*
X45359619Y-5902476D01*
X45359619Y-5902476D02*
X45262857Y-5854095D01*
X45262857Y-5854095D02*
X45214476Y-5805714D01*
X45214476Y-5805714D02*
X45166095Y-5708952D01*
X45166095Y-5708952D02*
X45166095Y-5515428D01*
X45166095Y-5515428D02*
X45214476Y-5418666D01*
X45214476Y-5418666D02*
X45262857Y-5370285D01*
X45262857Y-5370285D02*
X45359619Y-5321904D01*
X45359619Y-5321904D02*
X45408000Y-5321904D01*
X45408000Y-5321904D02*
X45504762Y-5370285D01*
X45504762Y-5370285D02*
X45553143Y-5418666D01*
X45553143Y-5418666D02*
X45601524Y-5515428D01*
X45601524Y-5515428D02*
X45601524Y-5708952D01*
X45601524Y-5708952D02*
X45649905Y-5805714D01*
X45649905Y-5805714D02*
X45698286Y-5854095D01*
X45698286Y-5854095D02*
X45795048Y-5902476D01*
X45795048Y-5902476D02*
X45988572Y-5902476D01*
X45988572Y-5902476D02*
X46085334Y-5854095D01*
X46085334Y-5854095D02*
X46133715Y-5805714D01*
X46133715Y-5805714D02*
X46182095Y-5708952D01*
X46182095Y-5708952D02*
X46182095Y-5515428D01*
X46182095Y-5515428D02*
X46133715Y-5418666D01*
X46133715Y-5418666D02*
X46085334Y-5370285D01*
X46085334Y-5370285D02*
X45988572Y-5321904D01*
X45988572Y-5321904D02*
X45795048Y-5321904D01*
X45795048Y-5321904D02*
X45698286Y-5370285D01*
X45698286Y-5370285D02*
X45649905Y-5418666D01*
X45649905Y-5418666D02*
X45601524Y-5515428D01*
X60510095Y-14490095D02*
X61332572Y-14490095D01*
X61332572Y-14490095D02*
X61429334Y-14441714D01*
X61429334Y-14441714D02*
X61477715Y-14393333D01*
X61477715Y-14393333D02*
X61526095Y-14296571D01*
X61526095Y-14296571D02*
X61526095Y-14103047D01*
X61526095Y-14103047D02*
X61477715Y-14006285D01*
X61477715Y-14006285D02*
X61429334Y-13957904D01*
X61429334Y-13957904D02*
X61332572Y-13909523D01*
X61332572Y-13909523D02*
X60510095Y-13909523D01*
X61526095Y-12893523D02*
X61526095Y-13474095D01*
X61526095Y-13183809D02*
X60510095Y-13183809D01*
X60510095Y-13183809D02*
X60655238Y-13280571D01*
X60655238Y-13280571D02*
X60752000Y-13377333D01*
X60752000Y-13377333D02*
X60800381Y-13474095D01*
X41513334Y-1161142D02*
X41561715Y-1209523D01*
X41561715Y-1209523D02*
X41610095Y-1354666D01*
X41610095Y-1354666D02*
X41610095Y-1451428D01*
X41610095Y-1451428D02*
X41561715Y-1596571D01*
X41561715Y-1596571D02*
X41464953Y-1693333D01*
X41464953Y-1693333D02*
X41368191Y-1741714D01*
X41368191Y-1741714D02*
X41174667Y-1790095D01*
X41174667Y-1790095D02*
X41029524Y-1790095D01*
X41029524Y-1790095D02*
X40836000Y-1741714D01*
X40836000Y-1741714D02*
X40739238Y-1693333D01*
X40739238Y-1693333D02*
X40642476Y-1596571D01*
X40642476Y-1596571D02*
X40594095Y-1451428D01*
X40594095Y-1451428D02*
X40594095Y-1354666D01*
X40594095Y-1354666D02*
X40642476Y-1209523D01*
X40642476Y-1209523D02*
X40690857Y-1161142D01*
X41610095Y-193523D02*
X41610095Y-774095D01*
X41610095Y-483809D02*
X40594095Y-483809D01*
X40594095Y-483809D02*
X40739238Y-580571D01*
X40739238Y-580571D02*
X40836000Y-677333D01*
X40836000Y-677333D02*
X40884381Y-774095D01*
X40594095Y145142D02*
X40594095Y822476D01*
X40594095Y822476D02*
X41610095Y387047D01*
X23365334Y-8153142D02*
X23413715Y-8201523D01*
X23413715Y-8201523D02*
X23462095Y-8346666D01*
X23462095Y-8346666D02*
X23462095Y-8443428D01*
X23462095Y-8443428D02*
X23413715Y-8588571D01*
X23413715Y-8588571D02*
X23316953Y-8685333D01*
X23316953Y-8685333D02*
X23220191Y-8733714D01*
X23220191Y-8733714D02*
X23026667Y-8782095D01*
X23026667Y-8782095D02*
X22881524Y-8782095D01*
X22881524Y-8782095D02*
X22688000Y-8733714D01*
X22688000Y-8733714D02*
X22591238Y-8685333D01*
X22591238Y-8685333D02*
X22494476Y-8588571D01*
X22494476Y-8588571D02*
X22446095Y-8443428D01*
X22446095Y-8443428D02*
X22446095Y-8346666D01*
X22446095Y-8346666D02*
X22494476Y-8201523D01*
X22494476Y-8201523D02*
X22542857Y-8153142D01*
X22542857Y-7766095D02*
X22494476Y-7717714D01*
X22494476Y-7717714D02*
X22446095Y-7620952D01*
X22446095Y-7620952D02*
X22446095Y-7379047D01*
X22446095Y-7379047D02*
X22494476Y-7282285D01*
X22494476Y-7282285D02*
X22542857Y-7233904D01*
X22542857Y-7233904D02*
X22639619Y-7185523D01*
X22639619Y-7185523D02*
X22736381Y-7185523D01*
X22736381Y-7185523D02*
X22881524Y-7233904D01*
X22881524Y-7233904D02*
X23462095Y-7814476D01*
X23462095Y-7814476D02*
X23462095Y-7185523D01*
X22446095Y-6314666D02*
X22446095Y-6508190D01*
X22446095Y-6508190D02*
X22494476Y-6604952D01*
X22494476Y-6604952D02*
X22542857Y-6653333D01*
X22542857Y-6653333D02*
X22688000Y-6750095D01*
X22688000Y-6750095D02*
X22881524Y-6798476D01*
X22881524Y-6798476D02*
X23268572Y-6798476D01*
X23268572Y-6798476D02*
X23365334Y-6750095D01*
X23365334Y-6750095D02*
X23413715Y-6701714D01*
X23413715Y-6701714D02*
X23462095Y-6604952D01*
X23462095Y-6604952D02*
X23462095Y-6411428D01*
X23462095Y-6411428D02*
X23413715Y-6314666D01*
X23413715Y-6314666D02*
X23365334Y-6266285D01*
X23365334Y-6266285D02*
X23268572Y-6217904D01*
X23268572Y-6217904D02*
X23026667Y-6217904D01*
X23026667Y-6217904D02*
X22929905Y-6266285D01*
X22929905Y-6266285D02*
X22881524Y-6314666D01*
X22881524Y-6314666D02*
X22833143Y-6411428D01*
X22833143Y-6411428D02*
X22833143Y-6604952D01*
X22833143Y-6604952D02*
X22881524Y-6701714D01*
X22881524Y-6701714D02*
X22929905Y-6750095D01*
X22929905Y-6750095D02*
X23026667Y-6798476D01*
X36600190Y-1756286D02*
X36600190Y-2240095D01*
X36261523Y-1224095D02*
X36600190Y-1756286D01*
X36600190Y-1756286D02*
X36938857Y-1224095D01*
X37809714Y-2240095D02*
X37229142Y-2240095D01*
X37519428Y-2240095D02*
X37519428Y-1224095D01*
X37519428Y-1224095D02*
X37422666Y-1369238D01*
X37422666Y-1369238D02*
X37325904Y-1466000D01*
X37325904Y-1466000D02*
X37229142Y-1514381D01*
X81330667Y9594665D02*
X81282286Y9546285D01*
X81282286Y9546285D02*
X81137143Y9497904D01*
X81137143Y9497904D02*
X81040381Y9497904D01*
X81040381Y9497904D02*
X80895238Y9546285D01*
X80895238Y9546285D02*
X80798476Y9643046D01*
X80798476Y9643046D02*
X80750095Y9739808D01*
X80750095Y9739808D02*
X80701714Y9933332D01*
X80701714Y9933332D02*
X80701714Y10078475D01*
X80701714Y10078475D02*
X80750095Y10271999D01*
X80750095Y10271999D02*
X80798476Y10368761D01*
X80798476Y10368761D02*
X80895238Y10465523D01*
X80895238Y10465523D02*
X81040381Y10513904D01*
X81040381Y10513904D02*
X81137143Y10513904D01*
X81137143Y10513904D02*
X81282286Y10465523D01*
X81282286Y10465523D02*
X81330667Y10417142D01*
X81814476Y9497904D02*
X82008000Y9497904D01*
X82008000Y9497904D02*
X82104762Y9546285D01*
X82104762Y9546285D02*
X82153143Y9594665D01*
X82153143Y9594665D02*
X82249905Y9739808D01*
X82249905Y9739808D02*
X82298286Y9933332D01*
X82298286Y9933332D02*
X82298286Y10320380D01*
X82298286Y10320380D02*
X82249905Y10417142D01*
X82249905Y10417142D02*
X82201524Y10465523D01*
X82201524Y10465523D02*
X82104762Y10513904D01*
X82104762Y10513904D02*
X81911238Y10513904D01*
X81911238Y10513904D02*
X81814476Y10465523D01*
X81814476Y10465523D02*
X81766095Y10417142D01*
X81766095Y10417142D02*
X81717714Y10320380D01*
X81717714Y10320380D02*
X81717714Y10078475D01*
X81717714Y10078475D02*
X81766095Y9981713D01*
X81766095Y9981713D02*
X81814476Y9933332D01*
X81814476Y9933332D02*
X81911238Y9884951D01*
X81911238Y9884951D02*
X82104762Y9884951D01*
X82104762Y9884951D02*
X82201524Y9933332D01*
X82201524Y9933332D02*
X82249905Y9981713D01*
X82249905Y9981713D02*
X82298286Y10078475D01*
X28786667Y3093904D02*
X28448000Y3577713D01*
X28206095Y3093904D02*
X28206095Y4109904D01*
X28206095Y4109904D02*
X28593143Y4109904D01*
X28593143Y4109904D02*
X28689905Y4061523D01*
X28689905Y4061523D02*
X28738286Y4013142D01*
X28738286Y4013142D02*
X28786667Y3916380D01*
X28786667Y3916380D02*
X28786667Y3771237D01*
X28786667Y3771237D02*
X28738286Y3674475D01*
X28738286Y3674475D02*
X28689905Y3626094D01*
X28689905Y3626094D02*
X28593143Y3577713D01*
X28593143Y3577713D02*
X28206095Y3577713D01*
X29754286Y3093904D02*
X29173714Y3093904D01*
X29464000Y3093904D02*
X29464000Y4109904D01*
X29464000Y4109904D02*
X29367238Y3964761D01*
X29367238Y3964761D02*
X29270476Y3867999D01*
X29270476Y3867999D02*
X29173714Y3819618D01*
X51900667Y-17982095D02*
X51416857Y-17982095D01*
X51416857Y-17982095D02*
X51416857Y-16966095D01*
X52771524Y-17982095D02*
X52190952Y-17982095D01*
X52481238Y-17982095D02*
X52481238Y-16966095D01*
X52481238Y-16966095D02*
X52384476Y-17111238D01*
X52384476Y-17111238D02*
X52287714Y-17208000D01*
X52287714Y-17208000D02*
X52190952Y-17256381D01*
X86177524Y-21944095D02*
X86177524Y-22669810D01*
X86177524Y-22669810D02*
X86129143Y-22814953D01*
X86129143Y-22814953D02*
X86032381Y-22911715D01*
X86032381Y-22911715D02*
X85887238Y-22960095D01*
X85887238Y-22960095D02*
X85790476Y-22960095D01*
X87193524Y-22960095D02*
X86612952Y-22960095D01*
X86903238Y-22960095D02*
X86903238Y-21944095D01*
X86903238Y-21944095D02*
X86806476Y-22089238D01*
X86806476Y-22089238D02*
X86709714Y-22186000D01*
X86709714Y-22186000D02*
X86612952Y-22234381D01*
X88161143Y-22960095D02*
X87580571Y-22960095D01*
X87870857Y-22960095D02*
X87870857Y-21944095D01*
X87870857Y-21944095D02*
X87774095Y-22089238D01*
X87774095Y-22089238D02*
X87677333Y-22186000D01*
X87677333Y-22186000D02*
X87580571Y-22234381D01*
X16624095Y-26101332D02*
X16140286Y-26439999D01*
X16624095Y-26681904D02*
X15608095Y-26681904D01*
X15608095Y-26681904D02*
X15608095Y-26294856D01*
X15608095Y-26294856D02*
X15656476Y-26198094D01*
X15656476Y-26198094D02*
X15704857Y-26149713D01*
X15704857Y-26149713D02*
X15801619Y-26101332D01*
X15801619Y-26101332D02*
X15946762Y-26101332D01*
X15946762Y-26101332D02*
X16043524Y-26149713D01*
X16043524Y-26149713D02*
X16091905Y-26198094D01*
X16091905Y-26198094D02*
X16140286Y-26294856D01*
X16140286Y-26294856D02*
X16140286Y-26681904D01*
X15608095Y-25762666D02*
X15608095Y-25133713D01*
X15608095Y-25133713D02*
X15995143Y-25472380D01*
X15995143Y-25472380D02*
X15995143Y-25327237D01*
X15995143Y-25327237D02*
X16043524Y-25230475D01*
X16043524Y-25230475D02*
X16091905Y-25182094D01*
X16091905Y-25182094D02*
X16188667Y-25133713D01*
X16188667Y-25133713D02*
X16430572Y-25133713D01*
X16430572Y-25133713D02*
X16527334Y-25182094D01*
X16527334Y-25182094D02*
X16575715Y-25230475D01*
X16575715Y-25230475D02*
X16624095Y-25327237D01*
X16624095Y-25327237D02*
X16624095Y-25617523D01*
X16624095Y-25617523D02*
X16575715Y-25714285D01*
X16575715Y-25714285D02*
X16527334Y-25762666D01*
X35160857Y-22560095D02*
X34822190Y-22076286D01*
X34580285Y-22560095D02*
X34580285Y-21544095D01*
X34580285Y-21544095D02*
X34967333Y-21544095D01*
X34967333Y-21544095D02*
X35064095Y-21592476D01*
X35064095Y-21592476D02*
X35112476Y-21640857D01*
X35112476Y-21640857D02*
X35160857Y-21737619D01*
X35160857Y-21737619D02*
X35160857Y-21882762D01*
X35160857Y-21882762D02*
X35112476Y-21979524D01*
X35112476Y-21979524D02*
X35064095Y-22027905D01*
X35064095Y-22027905D02*
X34967333Y-22076286D01*
X34967333Y-22076286D02*
X34580285Y-22076286D01*
X36128476Y-22560095D02*
X35547904Y-22560095D01*
X35838190Y-22560095D02*
X35838190Y-21544095D01*
X35838190Y-21544095D02*
X35741428Y-21689238D01*
X35741428Y-21689238D02*
X35644666Y-21786000D01*
X35644666Y-21786000D02*
X35547904Y-21834381D01*
X36757428Y-21544095D02*
X36854190Y-21544095D01*
X36854190Y-21544095D02*
X36950952Y-21592476D01*
X36950952Y-21592476D02*
X36999333Y-21640857D01*
X36999333Y-21640857D02*
X37047714Y-21737619D01*
X37047714Y-21737619D02*
X37096095Y-21931143D01*
X37096095Y-21931143D02*
X37096095Y-22173048D01*
X37096095Y-22173048D02*
X37047714Y-22366572D01*
X37047714Y-22366572D02*
X36999333Y-22463334D01*
X36999333Y-22463334D02*
X36950952Y-22511715D01*
X36950952Y-22511715D02*
X36854190Y-22560095D01*
X36854190Y-22560095D02*
X36757428Y-22560095D01*
X36757428Y-22560095D02*
X36660666Y-22511715D01*
X36660666Y-22511715D02*
X36612285Y-22463334D01*
X36612285Y-22463334D02*
X36563904Y-22366572D01*
X36563904Y-22366572D02*
X36515523Y-22173048D01*
X36515523Y-22173048D02*
X36515523Y-21931143D01*
X36515523Y-21931143D02*
X36563904Y-21737619D01*
X36563904Y-21737619D02*
X36612285Y-21640857D01*
X36612285Y-21640857D02*
X36660666Y-21592476D01*
X36660666Y-21592476D02*
X36757428Y-21544095D01*
X74962095Y-14169332D02*
X74962095Y-14653142D01*
X74962095Y-14653142D02*
X73946095Y-14653142D01*
X74042857Y-13879047D02*
X73994476Y-13830666D01*
X73994476Y-13830666D02*
X73946095Y-13733904D01*
X73946095Y-13733904D02*
X73946095Y-13491999D01*
X73946095Y-13491999D02*
X73994476Y-13395237D01*
X73994476Y-13395237D02*
X74042857Y-13346856D01*
X74042857Y-13346856D02*
X74139619Y-13298475D01*
X74139619Y-13298475D02*
X74236381Y-13298475D01*
X74236381Y-13298475D02*
X74381524Y-13346856D01*
X74381524Y-13346856D02*
X74962095Y-13927428D01*
X74962095Y-13927428D02*
X74962095Y-13298475D01*
X79677524Y-22444095D02*
X79677524Y-23169810D01*
X79677524Y-23169810D02*
X79629143Y-23314953D01*
X79629143Y-23314953D02*
X79532381Y-23411715D01*
X79532381Y-23411715D02*
X79387238Y-23460095D01*
X79387238Y-23460095D02*
X79290476Y-23460095D01*
X80693524Y-23460095D02*
X80112952Y-23460095D01*
X80403238Y-23460095D02*
X80403238Y-22444095D01*
X80403238Y-22444095D02*
X80306476Y-22589238D01*
X80306476Y-22589238D02*
X80209714Y-22686000D01*
X80209714Y-22686000D02*
X80112952Y-22734381D01*
X81080571Y-22540857D02*
X81128952Y-22492476D01*
X81128952Y-22492476D02*
X81225714Y-22444095D01*
X81225714Y-22444095D02*
X81467619Y-22444095D01*
X81467619Y-22444095D02*
X81564381Y-22492476D01*
X81564381Y-22492476D02*
X81612762Y-22540857D01*
X81612762Y-22540857D02*
X81661143Y-22637619D01*
X81661143Y-22637619D02*
X81661143Y-22734381D01*
X81661143Y-22734381D02*
X81612762Y-22879524D01*
X81612762Y-22879524D02*
X81032190Y-23460095D01*
X81032190Y-23460095D02*
X81661143Y-23460095D01*
X54154095Y-1536095D02*
X54976572Y-1536095D01*
X54976572Y-1536095D02*
X55073334Y-1487714D01*
X55073334Y-1487714D02*
X55121715Y-1439333D01*
X55121715Y-1439333D02*
X55170095Y-1342571D01*
X55170095Y-1342571D02*
X55170095Y-1149047D01*
X55170095Y-1149047D02*
X55121715Y-1052285D01*
X55121715Y-1052285D02*
X55073334Y-1003904D01*
X55073334Y-1003904D02*
X54976572Y-955523D01*
X54976572Y-955523D02*
X54154095Y-955523D01*
X54154095Y-568476D02*
X54154095Y60476D01*
X54154095Y60476D02*
X54541143Y-278190D01*
X54541143Y-278190D02*
X54541143Y-133047D01*
X54541143Y-133047D02*
X54589524Y-36285D01*
X54589524Y-36285D02*
X54637905Y12095D01*
X54637905Y12095D02*
X54734667Y60476D01*
X54734667Y60476D02*
X54976572Y60476D01*
X54976572Y60476D02*
X55073334Y12095D01*
X55073334Y12095D02*
X55121715Y-36285D01*
X55121715Y-36285D02*
X55170095Y-133047D01*
X55170095Y-133047D02*
X55170095Y-423333D01*
X55170095Y-423333D02*
X55121715Y-520095D01*
X55121715Y-520095D02*
X55073334Y-568476D01*
X43421904Y-12768095D02*
X43421904Y-13590572D01*
X43421904Y-13590572D02*
X43470285Y-13687334D01*
X43470285Y-13687334D02*
X43518666Y-13735715D01*
X43518666Y-13735715D02*
X43615428Y-13784095D01*
X43615428Y-13784095D02*
X43808952Y-13784095D01*
X43808952Y-13784095D02*
X43905714Y-13735715D01*
X43905714Y-13735715D02*
X43954095Y-13687334D01*
X43954095Y-13687334D02*
X44002476Y-13590572D01*
X44002476Y-13590572D02*
X44002476Y-12768095D01*
X44437904Y-12864857D02*
X44486285Y-12816476D01*
X44486285Y-12816476D02*
X44583047Y-12768095D01*
X44583047Y-12768095D02*
X44824952Y-12768095D01*
X44824952Y-12768095D02*
X44921714Y-12816476D01*
X44921714Y-12816476D02*
X44970095Y-12864857D01*
X44970095Y-12864857D02*
X45018476Y-12961619D01*
X45018476Y-12961619D02*
X45018476Y-13058381D01*
X45018476Y-13058381D02*
X44970095Y-13203524D01*
X44970095Y-13203524D02*
X44389523Y-13784095D01*
X44389523Y-13784095D02*
X45018476Y-13784095D01*
X32566095Y8225904D02*
X33388572Y8225904D01*
X33388572Y8225904D02*
X33485334Y8274285D01*
X33485334Y8274285D02*
X33533715Y8322666D01*
X33533715Y8322666D02*
X33582095Y8419428D01*
X33582095Y8419428D02*
X33582095Y8612952D01*
X33582095Y8612952D02*
X33533715Y8709714D01*
X33533715Y8709714D02*
X33485334Y8758095D01*
X33485334Y8758095D02*
X33388572Y8806476D01*
X33388572Y8806476D02*
X32566095Y8806476D01*
X32566095Y9774095D02*
X32566095Y9290285D01*
X32566095Y9290285D02*
X33049905Y9241904D01*
X33049905Y9241904D02*
X33001524Y9290285D01*
X33001524Y9290285D02*
X32953143Y9387047D01*
X32953143Y9387047D02*
X32953143Y9628952D01*
X32953143Y9628952D02*
X33001524Y9725714D01*
X33001524Y9725714D02*
X33049905Y9774095D01*
X33049905Y9774095D02*
X33146667Y9822476D01*
X33146667Y9822476D02*
X33388572Y9822476D01*
X33388572Y9822476D02*
X33485334Y9774095D01*
X33485334Y9774095D02*
X33533715Y9725714D01*
X33533715Y9725714D02*
X33582095Y9628952D01*
X33582095Y9628952D02*
X33582095Y9387047D01*
X33582095Y9387047D02*
X33533715Y9290285D01*
X33533715Y9290285D02*
X33485334Y9241904D01*
X35160857Y-19255334D02*
X35112476Y-19303715D01*
X35112476Y-19303715D02*
X34967333Y-19352095D01*
X34967333Y-19352095D02*
X34870571Y-19352095D01*
X34870571Y-19352095D02*
X34725428Y-19303715D01*
X34725428Y-19303715D02*
X34628666Y-19206953D01*
X34628666Y-19206953D02*
X34580285Y-19110191D01*
X34580285Y-19110191D02*
X34531904Y-18916667D01*
X34531904Y-18916667D02*
X34531904Y-18771524D01*
X34531904Y-18771524D02*
X34580285Y-18578000D01*
X34580285Y-18578000D02*
X34628666Y-18481238D01*
X34628666Y-18481238D02*
X34725428Y-18384476D01*
X34725428Y-18384476D02*
X34870571Y-18336095D01*
X34870571Y-18336095D02*
X34967333Y-18336095D01*
X34967333Y-18336095D02*
X35112476Y-18384476D01*
X35112476Y-18384476D02*
X35160857Y-18432857D01*
X35547904Y-18432857D02*
X35596285Y-18384476D01*
X35596285Y-18384476D02*
X35693047Y-18336095D01*
X35693047Y-18336095D02*
X35934952Y-18336095D01*
X35934952Y-18336095D02*
X36031714Y-18384476D01*
X36031714Y-18384476D02*
X36080095Y-18432857D01*
X36080095Y-18432857D02*
X36128476Y-18529619D01*
X36128476Y-18529619D02*
X36128476Y-18626381D01*
X36128476Y-18626381D02*
X36080095Y-18771524D01*
X36080095Y-18771524D02*
X35499523Y-19352095D01*
X35499523Y-19352095D02*
X36128476Y-19352095D01*
X36709047Y-18771524D02*
X36612285Y-18723143D01*
X36612285Y-18723143D02*
X36563904Y-18674762D01*
X36563904Y-18674762D02*
X36515523Y-18578000D01*
X36515523Y-18578000D02*
X36515523Y-18529619D01*
X36515523Y-18529619D02*
X36563904Y-18432857D01*
X36563904Y-18432857D02*
X36612285Y-18384476D01*
X36612285Y-18384476D02*
X36709047Y-18336095D01*
X36709047Y-18336095D02*
X36902571Y-18336095D01*
X36902571Y-18336095D02*
X36999333Y-18384476D01*
X36999333Y-18384476D02*
X37047714Y-18432857D01*
X37047714Y-18432857D02*
X37096095Y-18529619D01*
X37096095Y-18529619D02*
X37096095Y-18578000D01*
X37096095Y-18578000D02*
X37047714Y-18674762D01*
X37047714Y-18674762D02*
X36999333Y-18723143D01*
X36999333Y-18723143D02*
X36902571Y-18771524D01*
X36902571Y-18771524D02*
X36709047Y-18771524D01*
X36709047Y-18771524D02*
X36612285Y-18819905D01*
X36612285Y-18819905D02*
X36563904Y-18868286D01*
X36563904Y-18868286D02*
X36515523Y-18965048D01*
X36515523Y-18965048D02*
X36515523Y-19158572D01*
X36515523Y-19158572D02*
X36563904Y-19255334D01*
X36563904Y-19255334D02*
X36612285Y-19303715D01*
X36612285Y-19303715D02*
X36709047Y-19352095D01*
X36709047Y-19352095D02*
X36902571Y-19352095D01*
X36902571Y-19352095D02*
X36999333Y-19303715D01*
X36999333Y-19303715D02*
X37047714Y-19255334D01*
X37047714Y-19255334D02*
X37096095Y-19158572D01*
X37096095Y-19158572D02*
X37096095Y-18965048D01*
X37096095Y-18965048D02*
X37047714Y-18868286D01*
X37047714Y-18868286D02*
X36999333Y-18819905D01*
X36999333Y-18819905D02*
X36902571Y-18771524D01*
X76054857Y-9509334D02*
X76006476Y-9557715D01*
X76006476Y-9557715D02*
X75861333Y-9606095D01*
X75861333Y-9606095D02*
X75764571Y-9606095D01*
X75764571Y-9606095D02*
X75619428Y-9557715D01*
X75619428Y-9557715D02*
X75522666Y-9460953D01*
X75522666Y-9460953D02*
X75474285Y-9364191D01*
X75474285Y-9364191D02*
X75425904Y-9170667D01*
X75425904Y-9170667D02*
X75425904Y-9025524D01*
X75425904Y-9025524D02*
X75474285Y-8832000D01*
X75474285Y-8832000D02*
X75522666Y-8735238D01*
X75522666Y-8735238D02*
X75619428Y-8638476D01*
X75619428Y-8638476D02*
X75764571Y-8590095D01*
X75764571Y-8590095D02*
X75861333Y-8590095D01*
X75861333Y-8590095D02*
X76006476Y-8638476D01*
X76006476Y-8638476D02*
X76054857Y-8686857D01*
X76441904Y-8686857D02*
X76490285Y-8638476D01*
X76490285Y-8638476D02*
X76587047Y-8590095D01*
X76587047Y-8590095D02*
X76828952Y-8590095D01*
X76828952Y-8590095D02*
X76925714Y-8638476D01*
X76925714Y-8638476D02*
X76974095Y-8686857D01*
X76974095Y-8686857D02*
X77022476Y-8783619D01*
X77022476Y-8783619D02*
X77022476Y-8880381D01*
X77022476Y-8880381D02*
X76974095Y-9025524D01*
X76974095Y-9025524D02*
X76393523Y-9606095D01*
X76393523Y-9606095D02*
X77022476Y-9606095D01*
X77941714Y-8590095D02*
X77457904Y-8590095D01*
X77457904Y-8590095D02*
X77409523Y-9073905D01*
X77409523Y-9073905D02*
X77457904Y-9025524D01*
X77457904Y-9025524D02*
X77554666Y-8977143D01*
X77554666Y-8977143D02*
X77796571Y-8977143D01*
X77796571Y-8977143D02*
X77893333Y-9025524D01*
X77893333Y-9025524D02*
X77941714Y-9073905D01*
X77941714Y-9073905D02*
X77990095Y-9170667D01*
X77990095Y-9170667D02*
X77990095Y-9412572D01*
X77990095Y-9412572D02*
X77941714Y-9509334D01*
X77941714Y-9509334D02*
X77893333Y-9557715D01*
X77893333Y-9557715D02*
X77796571Y-9606095D01*
X77796571Y-9606095D02*
X77554666Y-9606095D01*
X77554666Y-9606095D02*
X77457904Y-9557715D01*
X77457904Y-9557715D02*
X77409523Y-9509334D01*
X74935334Y10621857D02*
X74983715Y10573476D01*
X74983715Y10573476D02*
X75032095Y10428333D01*
X75032095Y10428333D02*
X75032095Y10331571D01*
X75032095Y10331571D02*
X74983715Y10186428D01*
X74983715Y10186428D02*
X74886953Y10089666D01*
X74886953Y10089666D02*
X74790191Y10041285D01*
X74790191Y10041285D02*
X74596667Y9992904D01*
X74596667Y9992904D02*
X74451524Y9992904D01*
X74451524Y9992904D02*
X74258000Y10041285D01*
X74258000Y10041285D02*
X74161238Y10089666D01*
X74161238Y10089666D02*
X74064476Y10186428D01*
X74064476Y10186428D02*
X74016095Y10331571D01*
X74016095Y10331571D02*
X74016095Y10428333D01*
X74016095Y10428333D02*
X74064476Y10573476D01*
X74064476Y10573476D02*
X74112857Y10621857D01*
X75032095Y11589476D02*
X75032095Y11008904D01*
X75032095Y11299190D02*
X74016095Y11299190D01*
X74016095Y11299190D02*
X74161238Y11202428D01*
X74161238Y11202428D02*
X74258000Y11105666D01*
X74258000Y11105666D02*
X74306381Y11008904D01*
X74112857Y11976523D02*
X74064476Y12024904D01*
X74064476Y12024904D02*
X74016095Y12121666D01*
X74016095Y12121666D02*
X74016095Y12363571D01*
X74016095Y12363571D02*
X74064476Y12460333D01*
X74064476Y12460333D02*
X74112857Y12508714D01*
X74112857Y12508714D02*
X74209619Y12557095D01*
X74209619Y12557095D02*
X74306381Y12557095D01*
X74306381Y12557095D02*
X74451524Y12508714D01*
X74451524Y12508714D02*
X75032095Y11928142D01*
X75032095Y11928142D02*
X75032095Y12557095D01*
X40131334Y-11091332D02*
X40179715Y-11139713D01*
X40179715Y-11139713D02*
X40228095Y-11284856D01*
X40228095Y-11284856D02*
X40228095Y-11381618D01*
X40228095Y-11381618D02*
X40179715Y-11526761D01*
X40179715Y-11526761D02*
X40082953Y-11623523D01*
X40082953Y-11623523D02*
X39986191Y-11671904D01*
X39986191Y-11671904D02*
X39792667Y-11720285D01*
X39792667Y-11720285D02*
X39647524Y-11720285D01*
X39647524Y-11720285D02*
X39454000Y-11671904D01*
X39454000Y-11671904D02*
X39357238Y-11623523D01*
X39357238Y-11623523D02*
X39260476Y-11526761D01*
X39260476Y-11526761D02*
X39212095Y-11381618D01*
X39212095Y-11381618D02*
X39212095Y-11284856D01*
X39212095Y-11284856D02*
X39260476Y-11139713D01*
X39260476Y-11139713D02*
X39308857Y-11091332D01*
X39212095Y-10172094D02*
X39212095Y-10655904D01*
X39212095Y-10655904D02*
X39695905Y-10704285D01*
X39695905Y-10704285D02*
X39647524Y-10655904D01*
X39647524Y-10655904D02*
X39599143Y-10559142D01*
X39599143Y-10559142D02*
X39599143Y-10317237D01*
X39599143Y-10317237D02*
X39647524Y-10220475D01*
X39647524Y-10220475D02*
X39695905Y-10172094D01*
X39695905Y-10172094D02*
X39792667Y-10123713D01*
X39792667Y-10123713D02*
X40034572Y-10123713D01*
X40034572Y-10123713D02*
X40131334Y-10172094D01*
X40131334Y-10172094D02*
X40179715Y-10220475D01*
X40179715Y-10220475D02*
X40228095Y-10317237D01*
X40228095Y-10317237D02*
X40228095Y-10559142D01*
X40228095Y-10559142D02*
X40179715Y-10655904D01*
X40179715Y-10655904D02*
X40131334Y-10704285D01*
X29040667Y5633904D02*
X28702000Y6117713D01*
X28460095Y5633904D02*
X28460095Y6649904D01*
X28460095Y6649904D02*
X28847143Y6649904D01*
X28847143Y6649904D02*
X28943905Y6601523D01*
X28943905Y6601523D02*
X28992286Y6553142D01*
X28992286Y6553142D02*
X29040667Y6456380D01*
X29040667Y6456380D02*
X29040667Y6311237D01*
X29040667Y6311237D02*
X28992286Y6214475D01*
X28992286Y6214475D02*
X28943905Y6166094D01*
X28943905Y6166094D02*
X28847143Y6117713D01*
X28847143Y6117713D02*
X28460095Y6117713D01*
X29427714Y6553142D02*
X29476095Y6601523D01*
X29476095Y6601523D02*
X29572857Y6649904D01*
X29572857Y6649904D02*
X29814762Y6649904D01*
X29814762Y6649904D02*
X29911524Y6601523D01*
X29911524Y6601523D02*
X29959905Y6553142D01*
X29959905Y6553142D02*
X30008286Y6456380D01*
X30008286Y6456380D02*
X30008286Y6359618D01*
X30008286Y6359618D02*
X29959905Y6214475D01*
X29959905Y6214475D02*
X29379333Y5633904D01*
X29379333Y5633904D02*
X30008286Y5633904D01*
X55202667Y3952665D02*
X55154286Y3904285D01*
X55154286Y3904285D02*
X55009143Y3855904D01*
X55009143Y3855904D02*
X54912381Y3855904D01*
X54912381Y3855904D02*
X54767238Y3904285D01*
X54767238Y3904285D02*
X54670476Y4001046D01*
X54670476Y4001046D02*
X54622095Y4097808D01*
X54622095Y4097808D02*
X54573714Y4291332D01*
X54573714Y4291332D02*
X54573714Y4436475D01*
X54573714Y4436475D02*
X54622095Y4629999D01*
X54622095Y4629999D02*
X54670476Y4726761D01*
X54670476Y4726761D02*
X54767238Y4823523D01*
X54767238Y4823523D02*
X54912381Y4871904D01*
X54912381Y4871904D02*
X55009143Y4871904D01*
X55009143Y4871904D02*
X55154286Y4823523D01*
X55154286Y4823523D02*
X55202667Y4775142D01*
X55541333Y4871904D02*
X56218667Y4871904D01*
X56218667Y4871904D02*
X55783238Y3855904D01*
X56295334Y8846857D02*
X56343715Y8798476D01*
X56343715Y8798476D02*
X56392095Y8653333D01*
X56392095Y8653333D02*
X56392095Y8556571D01*
X56392095Y8556571D02*
X56343715Y8411428D01*
X56343715Y8411428D02*
X56246953Y8314666D01*
X56246953Y8314666D02*
X56150191Y8266285D01*
X56150191Y8266285D02*
X55956667Y8217904D01*
X55956667Y8217904D02*
X55811524Y8217904D01*
X55811524Y8217904D02*
X55618000Y8266285D01*
X55618000Y8266285D02*
X55521238Y8314666D01*
X55521238Y8314666D02*
X55424476Y8411428D01*
X55424476Y8411428D02*
X55376095Y8556571D01*
X55376095Y8556571D02*
X55376095Y8653333D01*
X55376095Y8653333D02*
X55424476Y8798476D01*
X55424476Y8798476D02*
X55472857Y8846857D01*
X55472857Y9233904D02*
X55424476Y9282285D01*
X55424476Y9282285D02*
X55376095Y9379047D01*
X55376095Y9379047D02*
X55376095Y9620952D01*
X55376095Y9620952D02*
X55424476Y9717714D01*
X55424476Y9717714D02*
X55472857Y9766095D01*
X55472857Y9766095D02*
X55569619Y9814476D01*
X55569619Y9814476D02*
X55666381Y9814476D01*
X55666381Y9814476D02*
X55811524Y9766095D01*
X55811524Y9766095D02*
X56392095Y9185523D01*
X56392095Y9185523D02*
X56392095Y9814476D01*
X56392095Y10782095D02*
X56392095Y10201523D01*
X56392095Y10491809D02*
X55376095Y10491809D01*
X55376095Y10491809D02*
X55521238Y10395047D01*
X55521238Y10395047D02*
X55618000Y10298285D01*
X55618000Y10298285D02*
X55666381Y10201523D01*
X15532095Y-7669332D02*
X15048286Y-8007999D01*
X15532095Y-8249904D02*
X14516095Y-8249904D01*
X14516095Y-8249904D02*
X14516095Y-7862856D01*
X14516095Y-7862856D02*
X14564476Y-7766094D01*
X14564476Y-7766094D02*
X14612857Y-7717713D01*
X14612857Y-7717713D02*
X14709619Y-7669332D01*
X14709619Y-7669332D02*
X14854762Y-7669332D01*
X14854762Y-7669332D02*
X14951524Y-7717713D01*
X14951524Y-7717713D02*
X14999905Y-7766094D01*
X14999905Y-7766094D02*
X15048286Y-7862856D01*
X15048286Y-7862856D02*
X15048286Y-8249904D01*
X14951524Y-7088761D02*
X14903143Y-7185523D01*
X14903143Y-7185523D02*
X14854762Y-7233904D01*
X14854762Y-7233904D02*
X14758000Y-7282285D01*
X14758000Y-7282285D02*
X14709619Y-7282285D01*
X14709619Y-7282285D02*
X14612857Y-7233904D01*
X14612857Y-7233904D02*
X14564476Y-7185523D01*
X14564476Y-7185523D02*
X14516095Y-7088761D01*
X14516095Y-7088761D02*
X14516095Y-6895237D01*
X14516095Y-6895237D02*
X14564476Y-6798475D01*
X14564476Y-6798475D02*
X14612857Y-6750094D01*
X14612857Y-6750094D02*
X14709619Y-6701713D01*
X14709619Y-6701713D02*
X14758000Y-6701713D01*
X14758000Y-6701713D02*
X14854762Y-6750094D01*
X14854762Y-6750094D02*
X14903143Y-6798475D01*
X14903143Y-6798475D02*
X14951524Y-6895237D01*
X14951524Y-6895237D02*
X14951524Y-7088761D01*
X14951524Y-7088761D02*
X14999905Y-7185523D01*
X14999905Y-7185523D02*
X15048286Y-7233904D01*
X15048286Y-7233904D02*
X15145048Y-7282285D01*
X15145048Y-7282285D02*
X15338572Y-7282285D01*
X15338572Y-7282285D02*
X15435334Y-7233904D01*
X15435334Y-7233904D02*
X15483715Y-7185523D01*
X15483715Y-7185523D02*
X15532095Y-7088761D01*
X15532095Y-7088761D02*
X15532095Y-6895237D01*
X15532095Y-6895237D02*
X15483715Y-6798475D01*
X15483715Y-6798475D02*
X15435334Y-6750094D01*
X15435334Y-6750094D02*
X15338572Y-6701713D01*
X15338572Y-6701713D02*
X15145048Y-6701713D01*
X15145048Y-6701713D02*
X15048286Y-6750094D01*
X15048286Y-6750094D02*
X14999905Y-6798475D01*
X14999905Y-6798475D02*
X14951524Y-6895237D01*
D11*
%TO.C,G\u002A\u002A\u002A*%
G36*
X2012042Y1383476D02*
G01*
X2006604Y1359256D01*
X1992611Y1342063D01*
X1961529Y1330467D01*
X1904824Y1323036D01*
X1813961Y1318339D01*
X1680404Y1314945D01*
X1593260Y1313258D01*
X1425671Y1308256D01*
X1298221Y1300520D01*
X1215884Y1290485D01*
X1183637Y1278589D01*
X1183359Y1277311D01*
X1196026Y1243327D01*
X1230588Y1171117D01*
X1281888Y1071006D01*
X1344767Y953319D01*
X1350098Y943536D01*
X1431349Y792858D01*
X1484868Y683975D01*
X1509923Y610099D01*
X1505784Y564443D01*
X1471721Y540222D01*
X1407001Y530649D01*
X1310894Y528936D01*
X1305440Y528935D01*
X1198298Y527522D01*
X1136686Y521721D01*
X1110594Y509193D01*
X1110011Y487597D01*
X1111443Y483591D01*
X1131451Y450108D01*
X1179588Y377437D01*
X1251688Y271627D01*
X1343590Y138724D01*
X1451127Y-15223D01*
X1570137Y-184165D01*
X1607688Y-237196D01*
X2086532Y-912639D01*
X2094338Y-597496D01*
X2101092Y-438451D01*
X2113625Y-328681D01*
X2134146Y-261994D01*
X2164863Y-232200D01*
X2207984Y-233108D01*
X2222574Y-238017D01*
X2238907Y-249632D01*
X2250596Y-275097D01*
X2258202Y-322039D01*
X2262282Y-398084D01*
X2263398Y-510855D01*
X2262109Y-667979D01*
X2260833Y-759200D01*
X2257580Y-940089D01*
X2253543Y-1072793D01*
X2247960Y-1164705D01*
X2240070Y-1223220D01*
X2229111Y-1255733D01*
X2214322Y-1269637D01*
X2208065Y-1271483D01*
X2163718Y-1255797D01*
X2105400Y-1203773D01*
X2080898Y-1174576D01*
X2003013Y-1071698D01*
X1907414Y-941374D01*
X1798189Y-789547D01*
X1679425Y-622160D01*
X1555212Y-445156D01*
X1429638Y-264480D01*
X1306789Y-86074D01*
X1190755Y84119D01*
X1085623Y240154D01*
X995482Y376089D01*
X924419Y485981D01*
X876523Y563885D01*
X855882Y603859D01*
X855420Y607065D01*
X869920Y631834D01*
X909198Y647630D01*
X984184Y657138D01*
X1079448Y662107D01*
X1180821Y667960D01*
X1256476Y676192D01*
X1293043Y685236D01*
X1294519Y687289D01*
X1282160Y716928D01*
X1248394Y785662D01*
X1198185Y883658D01*
X1136497Y1001086D01*
X1127779Y1017481D01*
X1064282Y1141096D01*
X1011918Y1251362D01*
X975823Y1336856D01*
X961136Y1386153D01*
X961039Y1388305D01*
X962925Y1408304D01*
X973475Y1423051D01*
X1000032Y1433345D01*
X1049939Y1439986D01*
X1130537Y1443774D01*
X1249169Y1445507D01*
X1413176Y1445984D01*
X1490981Y1446003D01*
X2020923Y1446003D01*
X2012042Y1383476D01*
G37*
G36*
X2202317Y1760126D02*
G01*
X2211586Y1724845D01*
X2223682Y1659284D01*
X2253562Y1583687D01*
X2291618Y1516854D01*
X2328241Y1477581D01*
X2339915Y1473793D01*
X2375340Y1496862D01*
X2392169Y1529209D01*
X2429581Y1603540D01*
X2478136Y1645071D01*
X2525670Y1644241D01*
X2532463Y1639460D01*
X2556039Y1593818D01*
X2541947Y1548572D01*
X2500408Y1529373D01*
X2466347Y1512473D01*
X2466544Y1475894D01*
X2497577Y1440813D01*
X2516055Y1432496D01*
X2578947Y1393751D01*
X2643276Y1326857D01*
X2692922Y1251745D01*
X2711805Y1190483D01*
X2694182Y1135633D01*
X2649907Y1065178D01*
X2628435Y1038803D01*
X2577906Y973837D01*
X2548292Y921419D01*
X2545066Y907842D01*
X2557360Y864576D01*
X2588970Y791739D01*
X2617377Y735122D01*
X2689641Y596933D01*
X2739256Y496343D01*
X2770415Y422284D01*
X2787311Y363686D01*
X2794139Y309482D01*
X2795175Y265865D01*
X2787079Y173494D01*
X2754764Y102483D01*
X2704858Y42627D01*
X2597874Y-36831D01*
X2450866Y-96026D01*
X2277043Y-130672D01*
X2148235Y-138023D01*
X2067655Y-135698D01*
X2029325Y-124336D01*
X2019968Y-97357D01*
X2022072Y-75496D01*
X2031726Y-43097D01*
X2057422Y-22453D01*
X2111190Y-9180D01*
X2205062Y1110D01*
X2240342Y4067D01*
X2422368Y30973D01*
X2553793Y78275D01*
X2635945Y146559D01*
X2658960Y188755D01*
X2675115Y261884D01*
X2665168Y341404D01*
X2625789Y439205D01*
X2553648Y567178D01*
X2552409Y569210D01*
X2468642Y738159D01*
X2434903Y887877D01*
X2451327Y1016887D01*
X2503349Y1107418D01*
X2549170Y1167922D01*
X2560212Y1206980D01*
X2541358Y1242079D01*
X2541058Y1242441D01*
X2489688Y1284419D01*
X2416665Y1324089D01*
X2412429Y1325891D01*
X2320209Y1346611D01*
X2249682Y1321528D01*
X2200235Y1249284D01*
X2171256Y1128521D01*
X2162132Y957879D01*
X2168669Y785246D01*
X2175775Y613703D01*
X2168906Y481249D01*
X2144834Y372440D01*
X2100330Y271835D01*
X2041687Y177801D01*
X1973948Y97684D01*
X1885339Y17933D01*
X1790714Y-50502D01*
X1704926Y-96670D01*
X1651023Y-110233D01*
X1605997Y-95949D01*
X1603471Y-58108D01*
X1639860Y-4227D01*
X1711583Y58178D01*
X1740945Y78415D01*
X1839781Y157591D01*
X1929952Y253870D01*
X1962836Y299340D01*
X1995226Y351908D01*
X2017568Y397488D01*
X2031507Y447485D01*
X2038694Y513300D01*
X2040774Y606338D01*
X2039396Y738003D01*
X2037970Y819335D01*
X2037032Y1002879D01*
X2043147Y1140668D01*
X2058407Y1242304D01*
X2084902Y1317390D01*
X2124726Y1375529D01*
X2168069Y1416693D01*
X2205324Y1464549D01*
X2200848Y1520041D01*
X2152981Y1594379D01*
X2139296Y1611021D01*
X2091949Y1686671D01*
X2087437Y1744275D01*
X2125012Y1775871D01*
X2155134Y1779482D01*
X2202317Y1760126D01*
G37*
D10*
%TO.C,J5*%
X-211606Y-18058999D02*
X-211606Y-23900999D01*
X-211606Y-23900999D02*
X1236194Y-23900999D01*
X1236194Y-18058999D02*
X-211606Y-18058999D01*
X1236194Y-23900999D02*
X1236199Y-25475799D01*
X1236199Y-16484199D02*
X1236194Y-18058999D01*
X1236199Y-25475799D02*
X10176998Y-25475799D01*
X10176998Y-16484199D02*
X1236199Y-16484199D01*
X10176998Y-18774959D02*
X10176998Y-18330299D01*
X10176998Y-21274959D02*
X10176998Y-20685039D01*
X10176998Y-23629699D02*
X10176998Y-23185039D01*
D12*
X12983599Y-22479999D02*
G75*
G02*
X12429599Y-22479999I-277000J0D01*
G01*
X12429599Y-22479999D02*
G75*
G02*
X12983599Y-22479999I277000J0D01*
G01*
D13*
%TO.C,C24*%
X85365580Y-7990000D02*
X85084420Y-7990000D01*
X85365580Y-9010000D02*
X85084420Y-9010000D01*
%TO.C,C1*%
X58158748Y-9425000D02*
X58681252Y-9425000D01*
X58158748Y-10895000D02*
X58681252Y-10895000D01*
%TO.C,C13*%
X69640580Y2510000D02*
X69359420Y2510000D01*
X69640580Y1490000D02*
X69359420Y1490000D01*
D14*
%TO.C,S1*%
X77125000Y-92847000D02*
X77125000Y-92847000D01*
X87928000Y-106972000D02*
X87928000Y-106972000D01*
X88128000Y-106972000D02*
X88128000Y-106972000D01*
X104625000Y-92847000D02*
X104625000Y-92847000D01*
X77125000Y-92847000D02*
G75*
G02*
X104625000Y-92847000I13750000J0D01*
G01*
X87928000Y-106972000D02*
G75*
G02*
X88128000Y-106972000I100000J0D01*
G01*
X88128000Y-106972000D02*
G75*
G02*
X87928000Y-106972000I-100000J0D01*
G01*
X104625000Y-92847000D02*
G75*
G02*
X77125000Y-92847000I-13750000J0D01*
G01*
D13*
%TO.C,C15*%
X83359420Y5010000D02*
X83640580Y5010000D01*
X83359420Y3990000D02*
X83640580Y3990000D01*
%TO.C,R6*%
X14209500Y-28694742D02*
X14209500Y-29169258D01*
X15254500Y-28694742D02*
X15254500Y-29169258D01*
%TO.C,C14*%
X69640580Y8510000D02*
X69359420Y8510000D01*
X69640580Y7490000D02*
X69359420Y7490000D01*
%TO.C,C22*%
X47990000Y9646267D02*
X47990000Y9353733D01*
X49010000Y9646267D02*
X49010000Y9353733D01*
%TO.C,C2*%
X57113420Y-15492000D02*
X57394580Y-15492000D01*
X57113420Y-16512000D02*
X57394580Y-16512000D01*
%TO.C,R4*%
X15587742Y-18977500D02*
X16062258Y-18977500D01*
X15587742Y-20022500D02*
X16062258Y-20022500D01*
%TO.C,C10*%
X69359420Y4010000D02*
X69640580Y4010000D01*
X69359420Y2990000D02*
X69640580Y2990000D01*
%TO.C,R11*%
X89276263Y-13145000D02*
X90723737Y-13145000D01*
X89276263Y-15855000D02*
X90723737Y-15855000D01*
D10*
%TO.C,J6*%
X95029601Y-19850300D02*
X95029601Y-20294960D01*
X95029601Y-22205040D02*
X95029601Y-22794960D01*
X95029601Y-24705040D02*
X95029601Y-25149700D01*
X95029601Y-26995800D02*
X103970400Y-26995800D01*
X103970400Y-18004200D02*
X95029601Y-18004200D01*
X103970400Y-26995800D02*
X103970405Y-25421000D01*
X103970405Y-19579000D02*
X103970400Y-18004200D01*
X103970405Y-25421000D02*
X105418205Y-25421000D01*
X105418205Y-19579000D02*
X103970405Y-19579000D01*
X105418205Y-25421000D02*
X105418205Y-19579000D01*
D12*
X92777000Y-21000000D02*
G75*
G02*
X92223000Y-21000000I-277000J0D01*
G01*
X92223000Y-21000000D02*
G75*
G02*
X92777000Y-21000000I277000J0D01*
G01*
D13*
%TO.C,C23*%
X44990000Y9646267D02*
X44990000Y9353733D01*
X46010000Y9646267D02*
X46010000Y9353733D01*
D14*
%TO.C,S2*%
X38828000Y-109982000D02*
X38828000Y-109982000D01*
X49631000Y-124107000D02*
X49631000Y-124107000D01*
X49831000Y-124107000D02*
X49831000Y-124107000D01*
X66328000Y-109982000D02*
X66328000Y-109982000D01*
X38828000Y-109982000D02*
G75*
G02*
X66328000Y-109982000I13750000J0D01*
G01*
X49631000Y-124107000D02*
G75*
G02*
X49831000Y-124107000I100000J0D01*
G01*
X49831000Y-124107000D02*
G75*
G02*
X49631000Y-124107000I-100000J0D01*
G01*
X66328000Y-109982000D02*
G75*
G02*
X38828000Y-109982000I-13750000J0D01*
G01*
D10*
%TO.C,J4*%
X66070699Y-1020201D02*
X66070699Y-1468061D01*
X66070699Y-4927541D02*
X66070699Y-7344800D01*
X66070699Y-7344800D02*
X90429299Y-7344800D01*
X90429299Y-1020201D02*
X66070699Y-1020201D01*
X90429299Y-1468061D02*
X90429299Y-1020201D01*
X90429299Y-7344800D02*
X90429299Y-4927541D01*
D15*
X92588299Y-6277800D02*
G75*
G02*
X91826299Y-6277800I-381000J0D01*
G01*
X91826299Y-6277800D02*
G75*
G02*
X92588299Y-6277800I381000J0D01*
G01*
D13*
%TO.C,C11*%
X69640580Y5510000D02*
X69359420Y5510000D01*
X69640580Y4490000D02*
X69359420Y4490000D01*
%TO.C,C6*%
X55472420Y-2792000D02*
X55753580Y-2792000D01*
X55472420Y-3812000D02*
X55753580Y-3812000D01*
%TO.C,C3*%
X53347252Y-9171000D02*
X52824748Y-9171000D01*
X53347252Y-10641000D02*
X52824748Y-10641000D01*
D14*
%TO.C,S3*%
X1250000Y-93500000D02*
X1250000Y-93500000D01*
X12053000Y-107625000D02*
X12053000Y-107625000D01*
X12253000Y-107625000D02*
X12253000Y-107625000D01*
X28750000Y-93500000D02*
X28750000Y-93500000D01*
X1250000Y-93500000D02*
G75*
G02*
X28750000Y-93500000I13750000J0D01*
G01*
X12053000Y-107625000D02*
G75*
G02*
X12253000Y-107625000I100000J0D01*
G01*
X12253000Y-107625000D02*
G75*
G02*
X12053000Y-107625000I-100000J0D01*
G01*
X28750000Y-93500000D02*
G75*
G02*
X1250000Y-93500000I-13750000J0D01*
G01*
D13*
%TO.C,C19*%
X59980000Y9646267D02*
X59980000Y9353733D01*
X61000000Y9646267D02*
X61000000Y9353733D01*
%TO.C,R9*%
X39861258Y-22845500D02*
X39386742Y-22845500D01*
X39861258Y-23890500D02*
X39386742Y-23890500D01*
D10*
%TO.C,J3*%
X-211606Y-6594199D02*
X-211606Y-12436199D01*
X-211606Y-12436199D02*
X1236194Y-12436199D01*
X1236194Y-6594199D02*
X-211606Y-6594199D01*
X1236194Y-12436199D02*
X1236199Y-14010999D01*
X1236199Y-5019399D02*
X1236194Y-6594199D01*
X1236199Y-14010999D02*
X10176998Y-14010999D01*
X10176998Y-5019399D02*
X1236199Y-5019399D01*
X10176998Y-7310159D02*
X10176998Y-6865499D01*
X10176998Y-9810159D02*
X10176998Y-9220239D01*
X10176998Y-12164899D02*
X10176998Y-11720239D01*
D12*
X12983599Y-11015199D02*
G75*
G02*
X12429599Y-11015199I-277000J0D01*
G01*
X12429599Y-11015199D02*
G75*
G02*
X12983599Y-11015199I277000J0D01*
G01*
D13*
%TO.C,C4*%
X46524000Y-11658580D02*
X46524000Y-11377420D01*
X47544000Y-11658580D02*
X47544000Y-11377420D01*
%TO.C,R7*%
X91737258Y-26477500D02*
X91262742Y-26477500D01*
X91737258Y-27522500D02*
X91262742Y-27522500D01*
%TO.C,FB1*%
X50990000Y9328733D02*
X50990000Y9671267D01*
X52010000Y9328733D02*
X52010000Y9671267D01*
%TO.C,U7*%
X83990000Y-11590000D02*
X84040000Y-11590000D01*
X83990000Y-13410000D02*
X83990000Y-11590000D01*
X84040000Y-13410000D02*
X83990000Y-13410000D01*
X87060000Y-11590000D02*
X87110000Y-11590000D01*
X87110000Y-11590000D02*
X87110000Y-13410000D01*
X87110000Y-13410000D02*
X87060000Y-13410000D01*
X84040000Y-13950000D02*
X83710000Y-14190000D01*
X83710000Y-13710000D01*
X84040000Y-13950000D01*
G36*
X84040000Y-13950000D02*
G01*
X83710000Y-14190000D01*
X83710000Y-13710000D01*
X84040000Y-13950000D01*
G37*
%TO.C,C20*%
X56990000Y9646267D02*
X56990000Y9353733D01*
X58010000Y9646267D02*
X58010000Y9353733D01*
%TO.C,U4*%
X71640000Y9047500D02*
X72115000Y9047500D01*
X71640000Y8572500D02*
X71640000Y9047500D01*
X71640000Y-172500D02*
X71640000Y302500D01*
X72115000Y-172500D02*
X71640000Y-172500D01*
X80385000Y9047500D02*
X80860000Y9047500D01*
X80860000Y9047500D02*
X80860000Y8572500D01*
X80860000Y302500D02*
X80860000Y-172500D01*
X80860000Y-172500D02*
X80385000Y-172500D01*
X80000000Y9547500D02*
X79760000Y9877500D01*
X80240000Y9877500D01*
X80000000Y9547500D01*
G36*
X80000000Y9547500D02*
G01*
X79760000Y9877500D01*
X80240000Y9877500D01*
X80000000Y9547500D01*
G37*
%TO.C,R5*%
X14209500Y-22694742D02*
X14209500Y-23169258D01*
X15254500Y-22694742D02*
X15254500Y-23169258D01*
%TO.C,R12*%
X32495258Y-23099500D02*
X32020742Y-23099500D01*
X32495258Y-24144500D02*
X32020742Y-24144500D01*
%TO.C,C16*%
X33990000Y353733D02*
X33990000Y646267D01*
X35010000Y353733D02*
X35010000Y646267D01*
%TO.C,C29*%
X32117420Y-19810000D02*
X32398580Y-19810000D01*
X32117420Y-20830000D02*
X32398580Y-20830000D01*
%TO.C,C27*%
X39668420Y-19556000D02*
X39949580Y-19556000D01*
X39668420Y-20576000D02*
X39949580Y-20576000D01*
%TO.C,R17*%
X17977500Y-7262742D02*
X17977500Y-7737258D01*
X19022500Y-7262742D02*
X19022500Y-7737258D01*
%TO.C,C8*%
X81359420Y14970000D02*
X81640580Y14970000D01*
X81359420Y13950000D02*
X81640580Y13950000D01*
%TO.C,J10*%
X75200000Y-20500000D02*
G75*
G02*
X71800000Y-20500000I-1700000J0D01*
G01*
X71800000Y-20500000D02*
G75*
G02*
X75200000Y-20500000I1700000J0D01*
G01*
%TO.C,R18*%
X46721500Y-7095258D02*
X46721500Y-6620742D01*
X47766500Y-7095258D02*
X47766500Y-6620742D01*
%TO.C,U1*%
X57256000Y-11648000D02*
X59076000Y-11648000D01*
X57256000Y-11698000D02*
X57256000Y-11648000D01*
X57256000Y-14768000D02*
X57256000Y-14718000D01*
X59076000Y-11648000D02*
X59076000Y-11698000D01*
X59076000Y-14718000D02*
X59076000Y-14768000D01*
X59076000Y-14768000D02*
X57256000Y-14768000D01*
X59856000Y-15048000D02*
X59376000Y-15048000D01*
X59616000Y-14718000D01*
X59856000Y-15048000D01*
G36*
X59856000Y-15048000D02*
G01*
X59376000Y-15048000D01*
X59616000Y-14718000D01*
X59856000Y-15048000D01*
G37*
%TO.C,C17*%
X38990000Y-353733D02*
X38990000Y-646267D01*
X40010000Y-353733D02*
X40010000Y-646267D01*
%TO.C,C26*%
X20990000Y-7640580D02*
X20990000Y-7359420D01*
X22010000Y-7640580D02*
X22010000Y-7359420D01*
%TO.C,Y1*%
X38610000Y1710000D02*
X35790000Y1710000D01*
X38610000Y-710000D02*
X38610000Y1710000D01*
%TO.C,C9*%
X81359420Y12010000D02*
X81640580Y12010000D01*
X81359420Y10990000D02*
X81640580Y10990000D01*
%TO.C,R1*%
X31737258Y4022500D02*
X31262742Y4022500D01*
X31737258Y2977500D02*
X31262742Y2977500D01*
%TO.C,L1*%
X49110000Y-11260000D02*
X55030000Y-11260000D01*
X49110000Y-12810000D02*
X49110000Y-11260000D01*
X49110000Y-16680000D02*
X49110000Y-15130000D01*
X55030000Y-11260000D02*
X55030000Y-12810000D01*
X55030000Y-15130000D02*
X55030000Y-16680000D01*
X55030000Y-16680000D02*
X49110000Y-16680000D01*
%TO.C,J11*%
X88700000Y-20000000D02*
G75*
G02*
X85300000Y-20000000I-1700000J0D01*
G01*
X85300000Y-20000000D02*
G75*
G02*
X88700000Y-20000000I1700000J0D01*
G01*
%TO.C,R3*%
X14209500Y-25694742D02*
X14209500Y-26169258D01*
X15254500Y-25694742D02*
X15254500Y-26169258D01*
%TO.C,R10*%
X36051258Y-23099500D02*
X35576742Y-23099500D01*
X36051258Y-24144500D02*
X35576742Y-24144500D01*
%TO.C,J12*%
X82200000Y-20500000D02*
G75*
G02*
X78800000Y-20500000I-1700000J0D01*
G01*
X78800000Y-20500000D02*
G75*
G02*
X82200000Y-20500000I1700000J0D01*
G01*
%TO.C,U3*%
X48748000Y1806000D02*
X48843000Y1806000D01*
X48748000Y-2314000D02*
X48748000Y1806000D01*
X48843000Y-2314000D02*
X48748000Y-2314000D01*
X53773000Y1806000D02*
X53868000Y1806000D01*
X53868000Y1806000D02*
X53868000Y-2314000D01*
X53868000Y-2314000D02*
X53773000Y-2314000D01*
X54108000Y2106000D02*
X53778000Y2346000D01*
X54108000Y2586000D01*
X54108000Y2106000D01*
G36*
X54108000Y2106000D02*
G01*
X53778000Y2346000D01*
X54108000Y2586000D01*
X54108000Y2106000D01*
G37*
%TO.C,U2*%
X43286000Y-9362000D02*
X45106000Y-9362000D01*
X43286000Y-9412000D02*
X43286000Y-9362000D01*
X43286000Y-11312000D02*
X43286000Y-10532000D01*
X43286000Y-12482000D02*
X43286000Y-12432000D01*
X45106000Y-9362000D02*
X45106000Y-9412000D01*
X45106000Y-12432000D02*
X45106000Y-12482000D01*
X45106000Y-12482000D02*
X43286000Y-12482000D01*
X45886000Y-12762000D02*
X45406000Y-12762000D01*
X45646000Y-12432000D01*
X45886000Y-12762000D01*
G36*
X45886000Y-12762000D02*
G01*
X45406000Y-12762000D01*
X45646000Y-12432000D01*
X45886000Y-12762000D01*
G37*
%TO.C,U5*%
X35390000Y11110000D02*
X35690000Y11110000D01*
X35390000Y10810000D02*
X35390000Y11110000D01*
X35390000Y3890000D02*
X35390000Y4190000D01*
X35690000Y3890000D02*
X35390000Y3890000D01*
X42310000Y11110000D02*
X42610000Y11110000D01*
X42610000Y11110000D02*
X42610000Y10810000D01*
X42610000Y4190000D02*
X42610000Y3890000D01*
X42610000Y3890000D02*
X42310000Y3890000D01*
X35680000Y3250000D02*
X35210000Y2910000D01*
X35210000Y3590000D01*
X35680000Y3250000D01*
G36*
X35680000Y3250000D02*
G01*
X35210000Y2910000D01*
X35210000Y3590000D01*
X35680000Y3250000D01*
G37*
%TO.C,C28*%
X35673420Y-19810000D02*
X35954580Y-19810000D01*
X35673420Y-20830000D02*
X35954580Y-20830000D01*
%TO.C,C25*%
X79615420Y-9396000D02*
X79896580Y-9396000D01*
X79615420Y-10416000D02*
X79896580Y-10416000D01*
%TO.C,C12*%
X75490000Y11134420D02*
X75490000Y11415580D01*
X76510000Y11134420D02*
X76510000Y11415580D01*
%TO.C,C5*%
X40686000Y-11062580D02*
X40686000Y-10781420D01*
X41706000Y-11062580D02*
X41706000Y-10781420D01*
%TO.C,R2*%
X31762742Y6522500D02*
X32237258Y6522500D01*
X31762742Y5477500D02*
X32237258Y5477500D01*
%TO.C,C7*%
X54608000Y2185580D02*
X54608000Y1904420D01*
X55628000Y2185580D02*
X55628000Y1904420D01*
%TO.C,C21*%
X53990000Y9646267D02*
X53990000Y9353733D01*
X55010000Y9646267D02*
X55010000Y9353733D01*
%TO.C,R8*%
X15977500Y-7737258D02*
X15977500Y-7262742D01*
X17022500Y-7737258D02*
X17022500Y-7262742D01*
%TD*%
M02*
