%TF.GenerationSoftware,KiCad,Pcbnew,9.0.6*%
%TF.CreationDate,2026-04-28T02:04:34-07:00*%
%TF.ProjectId,steering_wheel,73746565-7269-46e6-975f-776865656c2e,rev?*%
%TF.SameCoordinates,Original*%
%TF.FileFunction,Soldermask,Bot*%
%TF.FilePolarity,Negative*%
%FSLAX46Y46*%
G04 Gerber Fmt 4.6, Leading zero omitted, Abs format (unit mm)*
G04 Created by KiCad (PCBNEW 9.0.6) date 2026-04-28 02:04:34*
%MOMM*%
%LPD*%
G01*
G04 APERTURE LIST*
G04 Aperture macros list*
%AMRoundRect*
0 Rectangle with rounded corners*
0 $1 Rounding radius*
0 $2 $3 $4 $5 $6 $7 $8 $9 X,Y pos of 4 corners*
0 Add a 4 corners polygon primitive as box body*
4,1,4,$2,$3,$4,$5,$6,$7,$8,$9,$2,$3,0*
0 Add four circle primitives for the rounded corners*
1,1,$1+$1,$2,$3*
1,1,$1+$1,$4,$5*
1,1,$1+$1,$6,$7*
1,1,$1+$1,$8,$9*
0 Add four rect primitives between the rounded corners*
20,1,$1+$1,$2,$3,$4,$5,0*
20,1,$1+$1,$4,$5,$6,$7,0*
20,1,$1+$1,$6,$7,$8,$9,0*
20,1,$1+$1,$8,$9,$2,$3,0*%
G04 Aperture macros list end*
%ADD10R,2.100000X2.100000*%
%ADD11C,2.100000*%
%ADD12C,4.300000*%
%ADD13C,5.300000*%
%ADD14C,3.000000*%
%ADD15R,1.000000X1.000000*%
%ADD16RoundRect,0.250000X0.525000X0.250000X-0.525000X0.250000X-0.525000X-0.250000X0.525000X-0.250000X0*%
%ADD17RoundRect,0.225000X-0.250000X0.225000X-0.250000X-0.225000X0.250000X-0.225000X0.250000X0.225000X0*%
%ADD18R,0.740000X2.400000*%
%ADD19C,1.400000*%
%ADD20C,2.400000*%
G04 APERTURE END LIST*
D10*
%TO.C,S1*%
X88747600Y-128981200D03*
D11*
X83816600Y-126134200D03*
X80969600Y-121203200D03*
X80969600Y-115509200D03*
X88766600Y-121184200D03*
X102219600Y-115509200D03*
%TD*%
D10*
%TO.C,S2*%
X50393600Y-137007600D03*
D11*
X45462600Y-134160600D03*
X42615600Y-129229600D03*
X42615600Y-123535600D03*
X50412600Y-129210600D03*
X63865600Y-123535600D03*
%TD*%
D12*
%TO.C,REF\u002A\u002A*%
X33223200Y-136702800D03*
%TD*%
D13*
%TO.C,REF\u002A\u002A*%
X5943600Y-5892800D03*
%TD*%
%TO.C,REF\u002A\u002A*%
X100482400Y-5943600D03*
%TD*%
D12*
%TO.C,REF\u002A\u002A*%
X73202800Y-136702800D03*
%TD*%
D10*
%TO.C,S3*%
X12039600Y-128981200D03*
D11*
X7108600Y-126134200D03*
X4261600Y-121203200D03*
X4261600Y-115509200D03*
X12058600Y-121184200D03*
X25511600Y-115509200D03*
%TD*%
D14*
%TO.C,J10*%
X73580000Y-36779000D03*
%TD*%
%TO.C,J11*%
X87080000Y-36279000D03*
%TD*%
%TO.C,J12*%
X80416400Y-38303200D03*
%TD*%
D15*
%TO.C,TP5*%
X29580000Y-3279000D03*
%TD*%
%TO.C,TP1*%
X21080000Y-3279000D03*
%TD*%
%TO.C,TP3*%
X27080000Y-3279000D03*
%TD*%
D16*
%TO.C,SW1*%
X33705000Y-7679000D03*
X28455000Y-7679000D03*
X33705000Y-10879000D03*
X28455000Y-10879000D03*
%TD*%
D17*
%TO.C,C18*%
X26080000Y-8504000D03*
X26080000Y-10054000D03*
%TD*%
D15*
%TO.C,TP2*%
X24080000Y-3279000D03*
%TD*%
D18*
%TO.C,J2*%
X26230000Y-16879000D03*
X26230000Y-20779000D03*
X27500000Y-16879000D03*
X27500000Y-20779000D03*
X28770000Y-16879000D03*
X28770000Y-20779000D03*
X30040000Y-16879000D03*
X30040000Y-20779000D03*
X31310000Y-16879000D03*
X31310000Y-20779000D03*
X32580000Y-16879000D03*
X32580000Y-20779000D03*
X33850000Y-16879000D03*
X33850000Y-20779000D03*
%TD*%
D15*
%TO.C,TP4*%
X32080000Y-3279000D03*
%TD*%
D19*
%TO.C,J1*%
X49530000Y-23749000D03*
X48260000Y-21199000D03*
X50800000Y-21199000D03*
X53340000Y-21199000D03*
X52070000Y-23749000D03*
X54610000Y-23749000D03*
X57150000Y-23749000D03*
X55880000Y-21199000D03*
D20*
X60580000Y-17599000D03*
X44830000Y-17599000D03*
X47205000Y-14279000D03*
X58205000Y-14279000D03*
%TD*%
M02*
