%TF.GenerationSoftware,KiCad,Pcbnew,9.0.7*%
%TF.CreationDate,2026-02-11T01:53:08-08:00*%
%TF.ProjectId,steering_wheel,73746565-7269-46e6-975f-776865656c2e,rev?*%
%TF.SameCoordinates,Original*%
%TF.FileFunction,Copper,L2,Bot*%
%TF.FilePolarity,Positive*%
%FSLAX46Y46*%
G04 Gerber Fmt 4.6, Leading zero omitted, Abs format (unit mm)*
G04 Created by KiCad (PCBNEW 9.0.7) date 2026-02-11 01:53:08*
%MOMM*%
%LPD*%
G01*
G04 APERTURE LIST*
G04 Aperture macros list*
%AMRoundRect*
0 Rectangle with rounded corners*
0 $1 Rounding radius*
0 $2 $3 $4 $5 $6 $7 $8 $9 X,Y pos of 4 corners*
0 Add a 4 corners polygon primitive as box body*
4,1,4,$2,$3,$4,$5,$6,$7,$8,$9,$2,$3,0*
0 Add four circle primitives for the rounded corners*
1,1,$1+$1,$2,$3*
1,1,$1+$1,$4,$5*
1,1,$1+$1,$6,$7*
1,1,$1+$1,$8,$9*
0 Add four rect primitives between the rounded corners*
20,1,$1+$1,$2,$3,$4,$5,0*
20,1,$1+$1,$4,$5,$6,$7,0*
20,1,$1+$1,$6,$7,$8,$9,0*
20,1,$1+$1,$8,$9,$2,$3,0*%
G04 Aperture macros list end*
%TA.AperFunction,ComponentPad*%
%ADD10R,2.100000X2.100000*%
%TD*%
%TA.AperFunction,ComponentPad*%
%ADD11C,2.100000*%
%TD*%
%TA.AperFunction,ComponentPad*%
%ADD12C,3.000000*%
%TD*%
%TA.AperFunction,SMDPad,CuDef*%
%ADD13R,1.000000X1.000000*%
%TD*%
%TA.AperFunction,SMDPad,CuDef*%
%ADD14RoundRect,0.250000X0.525000X0.250000X-0.525000X0.250000X-0.525000X-0.250000X0.525000X-0.250000X0*%
%TD*%
%TA.AperFunction,SMDPad,CuDef*%
%ADD15RoundRect,0.225000X-0.250000X0.225000X-0.250000X-0.225000X0.250000X-0.225000X0.250000X0.225000X0*%
%TD*%
%TA.AperFunction,SMDPad,CuDef*%
%ADD16R,0.740000X2.400000*%
%TD*%
%TA.AperFunction,ComponentPad*%
%ADD17C,1.400000*%
%TD*%
%TA.AperFunction,ComponentPad*%
%ADD18C,2.400000*%
%TD*%
%TA.AperFunction,ViaPad*%
%ADD19C,0.508000*%
%TD*%
%TA.AperFunction,ViaPad*%
%ADD20C,0.600000*%
%TD*%
%TA.AperFunction,Conductor*%
%ADD21C,0.200000*%
%TD*%
G04 APERTURE END LIST*
D10*
%TO.P,S1,1*%
%TO.N,+3V3*%
X88028000Y-103472000D03*
D11*
%TO.P,S1,2*%
%TO.N,/Switches/Analog_2V2*%
X83097000Y-100625000D03*
%TO.P,S1,3*%
%TO.N,/Switches/Analog_1V1*%
X80250000Y-95694000D03*
%TO.P,S1,4*%
%TO.N,GND*%
X80250000Y-90000000D03*
%TO.P,S1,5*%
%TO.N,/Switches/TC_Unfiltered*%
X88047000Y-95675000D03*
%TO.P,S1,MP*%
%TO.N,unconnected-(S1-PadMP)*%
X101500000Y-90000000D03*
%TD*%
D10*
%TO.P,S2,1*%
%TO.N,+3V3*%
X49731000Y-120607000D03*
D11*
%TO.P,S2,2*%
%TO.N,/Switches/Analog_2V2*%
X44800000Y-117760000D03*
%TO.P,S2,3*%
%TO.N,/Switches/Analog_1V1*%
X41953000Y-112829000D03*
%TO.P,S2,4*%
%TO.N,GND*%
X41953000Y-107135000D03*
%TO.P,S2,5*%
%TO.N,/Switches/Mode_Unfiltered*%
X49750000Y-112810000D03*
%TO.P,S2,MP*%
%TO.N,unconnected-(S2-PadMP)*%
X63203000Y-107135000D03*
%TD*%
D10*
%TO.P,S3,1*%
%TO.N,+3V3*%
X12153000Y-104125000D03*
D11*
%TO.P,S3,2*%
%TO.N,/Switches/Analog_2V2*%
X7222000Y-101278000D03*
%TO.P,S3,3*%
%TO.N,/Switches/Analog_1V1*%
X4375000Y-96347000D03*
%TO.P,S3,4*%
%TO.N,GND*%
X4375000Y-90653000D03*
%TO.P,S3,5*%
%TO.N,/Switches/Regen_Unfiltered*%
X12172000Y-96328000D03*
%TO.P,S3,MP*%
%TO.N,unconnected-(S3-PadMP)*%
X25625000Y-90653000D03*
%TD*%
D12*
%TO.P,J10,1,Pin_1*%
%TO.N,/Display Interface/Backlight_PWM*%
X73500000Y-20500000D03*
%TD*%
%TO.P,J11,1,Pin_1*%
%TO.N,/Display Interface/LED_Low*%
X87000000Y-20000000D03*
%TD*%
%TO.P,J12,1,Pin_1*%
%TO.N,/Display Interface/LED_High*%
X80500000Y-20500000D03*
%TD*%
D13*
%TO.P,TP5,1,1*%
%TO.N,Net-(U5-PB6)*%
X29500000Y13000000D03*
%TD*%
%TO.P,TP1,1,1*%
%TO.N,Net-(U5-PA8)*%
X21000000Y13000000D03*
%TD*%
%TO.P,TP3,1,1*%
%TO.N,Net-(U5-PA10)*%
X27000000Y13000000D03*
%TD*%
D14*
%TO.P,SW1,1,1*%
%TO.N,GND*%
X33625000Y8600000D03*
X28375000Y8600000D03*
%TO.P,SW1,2,2*%
%TO.N,NRST*%
X33625000Y5400000D03*
X28375000Y5400000D03*
%TD*%
D15*
%TO.P,C18,1*%
%TO.N,GND*%
X26000000Y7775000D03*
%TO.P,C18,2*%
%TO.N,NRST*%
X26000000Y6225000D03*
%TD*%
D13*
%TO.P,TP2,1,1*%
%TO.N,Net-(U5-PA9)*%
X24000000Y13000000D03*
%TD*%
D16*
%TO.P,J2,1,Pin_1*%
%TO.N,unconnected-(J2-Pin_1-Pad1)*%
X26150000Y-600000D03*
%TO.P,J2,2,Pin_2*%
%TO.N,unconnected-(J2-Pin_2-Pad2)*%
X26150000Y-4500000D03*
%TO.P,J2,3,Pin_3*%
%TO.N,+3V3*%
X27420000Y-600000D03*
%TO.P,J2,4,Pin_4*%
%TO.N,STLINK_SWDIO*%
X27420000Y-4500000D03*
%TO.P,J2,5,Pin_5*%
%TO.N,GND*%
X28690000Y-600000D03*
%TO.P,J2,6,Pin_6*%
%TO.N,STLINK_SWCLK*%
X28690000Y-4500000D03*
%TO.P,J2,7,Pin_7*%
%TO.N,GND*%
X29960000Y-600000D03*
%TO.P,J2,8,Pin_8*%
%TO.N,STLINK_SWO*%
X29960000Y-4500000D03*
%TO.P,J2,9,Pin_9*%
%TO.N,unconnected-(J2-Pin_9-Pad9)*%
X31230000Y-600000D03*
%TO.P,J2,10,Pin_10*%
%TO.N,unconnected-(J2-Pin_10-Pad10)*%
X31230000Y-4500000D03*
%TO.P,J2,11,Pin_11*%
%TO.N,GND*%
X32500000Y-600000D03*
%TO.P,J2,12,Pin_12*%
%TO.N,NRST*%
X32500000Y-4500000D03*
%TO.P,J2,13,Pin_13*%
%TO.N,VCP_UART_RX*%
X33770000Y-600000D03*
%TO.P,J2,14,Pin_14*%
%TO.N,VCP_UART_TX*%
X33770000Y-4500000D03*
%TD*%
D13*
%TO.P,TP4,1,1*%
%TO.N,Net-(U5-PB5)*%
X32000000Y13000000D03*
%TD*%
D17*
%TO.P,J1,1,1*%
%TO.N,/CAN_L*%
X49450000Y-7470000D03*
%TO.P,J1,2,2*%
%TO.N,/CAN_H*%
X48180000Y-4920000D03*
%TO.P,J1,3,3*%
%TO.N,/Launch_Control*%
X50720000Y-4920000D03*
%TO.P,J1,4,4*%
%TO.N,/Lap*%
X53260000Y-4920000D03*
%TO.P,J1,5,5*%
%TO.N,unconnected-(J1-Pad5)*%
X51990000Y-7470000D03*
%TO.P,J1,6,6*%
%TO.N,unconnected-(J1-Pad6)*%
X54530000Y-7470000D03*
%TO.P,J1,7,7*%
%TO.N,+12V*%
X57070000Y-7470000D03*
%TO.P,J1,8,8*%
%TO.N,GND*%
X55800000Y-4920000D03*
D18*
%TO.P,J1,MH1,MH1*%
%TO.N,unconnected-(J1-PadMH1)*%
X60500000Y-1320000D03*
%TO.P,J1,MH2,MH2*%
%TO.N,unconnected-(J1-PadMH2)*%
X44750000Y-1320000D03*
%TO.P,J1,MH3,MH3*%
%TO.N,unconnected-(J1-PadMH3)*%
X47125000Y2000000D03*
%TO.P,J1,MH4,MH4*%
%TO.N,unconnected-(J1-PadMH4)*%
X58125000Y2000000D03*
%TD*%
D19*
%TO.N,GND*%
X79623264Y-1623264D03*
X38000000Y-1000000D03*
X68000000Y6500000D03*
X49500000Y8500000D03*
D20*
X52324000Y-1270000D03*
X56642000Y-11430000D03*
D19*
X68000000Y4000000D03*
D20*
X40640000Y-21590000D03*
D19*
X87500000Y-5000000D03*
X85079000Y3724000D03*
X91000000Y-12000000D03*
D20*
X47244000Y-9652000D03*
X30500000Y2600000D03*
D19*
X72136000Y-7620000D03*
D20*
X33020000Y-21844000D03*
X14732000Y-31242000D03*
X54102000Y-11430000D03*
X81788000Y-9906000D03*
X55118000Y-254000D03*
D19*
X41659541Y9340459D03*
D20*
X58166000Y-12700000D03*
X36322000Y-21844000D03*
X50038000Y854000D03*
D19*
X77000000Y12050000D03*
X56000000Y11000000D03*
X35000000Y2500000D03*
X83566000Y-8382000D03*
D20*
X41148000Y-8890000D03*
D19*
X71500000Y-1000000D03*
D20*
X55118000Y-12192000D03*
D19*
X85000000Y-15000000D03*
X34500000Y4000000D03*
X18000000Y-19000000D03*
D20*
%TO.N,+3V3*%
X54102000Y7366000D03*
X42501735Y-8806265D03*
D19*
X69000000Y500000D03*
X65657815Y6309285D03*
X92867802Y-20632198D03*
X32320500Y2374500D03*
X74859464Y10359464D03*
D20*
X69342000Y-19558000D03*
X54356000Y3549000D03*
X33274000Y-17500000D03*
X36830000Y-17500000D03*
D19*
X70500000Y1000000D03*
X73000000Y9900000D03*
X93000000Y-19000000D03*
X63000000Y8000000D03*
D20*
X67220735Y-19647265D03*
X42953781Y-7561251D03*
X37122645Y-7159883D03*
X34561280Y-6959883D03*
D19*
%TO.N,+1V2*%
X71689598Y62500D03*
X83000000Y9188500D03*
X83277214Y3277214D03*
%TO.N,NRST*%
X38349239Y4826000D03*
D20*
X33020000Y-2540000D03*
X33239086Y1900000D03*
D19*
%TO.N,/Display Interface/LED_High*%
X87475000Y-13763972D03*
X86500000Y-15500000D03*
%TO.N,/MCU/Layout_Cycle*%
X36075000Y9481241D03*
X32071309Y11001000D03*
D20*
%TO.N,/MCU/TC_Analog*%
X42400000Y762000D03*
X40132000Y4826000D03*
%TO.N,/Launch_Control*%
X57150000Y-6096000D03*
X65278000Y-14986000D03*
X64516000Y-8382000D03*
%TO.N,/Lap*%
X38608000Y-7559235D03*
X34559000Y-7759883D03*
D19*
%TO.N,VCP_UART_RX*%
X34500000Y-2000000D03*
X43000000Y1500000D03*
X39000000Y-2500000D03*
D20*
%TO.N,VCP_UART_TX*%
X39746013Y-3100000D03*
X40894000Y1778000D03*
X40573444Y-1711444D03*
D19*
%TO.N,STLINK_SWDIO*%
X26997132Y-6500906D03*
X34850840Y13780534D03*
X37000000Y12954000D03*
%TO.N,STLINK_SWO*%
X32167233Y8832767D03*
X29717030Y10282970D03*
X26832027Y-7189387D03*
%TO.N,STLINK_SWCLK*%
X27760000Y-6260000D03*
X36167233Y12832767D03*
X34285153Y13214847D03*
D20*
%TO.N,/Display Interface/Backlight_PWM*%
X84836000Y-9906000D03*
X86150000Y-9906000D03*
D19*
%TO.N,/MCU/Driver_Interrupt*%
X62000000Y7000000D03*
X44850000Y6750000D03*
D20*
X39370000Y8128000D03*
D19*
X64500000Y6000000D03*
D20*
%TO.N,/Switches/Analog_1V1*%
X50038000Y-115062000D03*
%TO.N,/Switches/Analog_2V2*%
X50800000Y-115824000D03*
%TO.N,/MCU/CAN_RX*%
X44704000Y3549000D03*
X38465427Y8313957D03*
%TO.N,/MCU/CAN_TX*%
X43671787Y3016878D03*
X37899740Y7748270D03*
D19*
%TO.N,/Display Interface/Driver_Power*%
X64238498Y9154128D03*
X37230000Y9625919D03*
X67390715Y8109285D03*
X43000000Y12500000D03*
%TO.N,/Display Interface/SPI.CS*%
X60500000Y4749000D03*
X62582315Y4666685D03*
%TO.N,/Display Interface/SPI.MISO*%
X66100000Y11500000D03*
X64900000Y11000000D03*
%TO.N,Net-(U5-PA8)*%
X22000000Y14000000D03*
%TO.N,Net-(U5-PA9)*%
X39757335Y13456372D03*
%TO.N,Net-(U5-PA10)*%
X39108263Y13108263D03*
%TO.N,Net-(U5-PB5)*%
X36844512Y8844512D03*
%TO.N,Net-(U5-PB6)*%
X31500000Y7650057D03*
%TD*%
D21*
%TO.N,GND*%
X39116000Y4951105D02*
X35467105Y8600000D01*
X28961000Y-2027000D02*
X30485000Y-2027000D01*
X28690000Y-600000D02*
X28690000Y-1766000D01*
X29960000Y230000D02*
X29960000Y-600000D01*
X30746000Y1016000D02*
X29960000Y230000D01*
X32500000Y266000D02*
X31750000Y1016000D01*
X38000000Y-1000000D02*
X39116000Y116000D01*
X29879943Y7095057D02*
X32120057Y7095057D01*
X32120057Y7095057D02*
X33625000Y8600000D01*
X28375000Y8600000D02*
X29879943Y7095057D01*
X28690000Y750000D02*
X28956000Y1016000D01*
X28375000Y8600000D02*
X26825000Y8600000D01*
X28690000Y-1766000D02*
X28956000Y-2032000D01*
X31901000Y-2101000D02*
X30559000Y-2101000D01*
X31750000Y1016000D02*
X30746000Y1016000D01*
X35467105Y8600000D02*
X33625000Y8600000D01*
X32500000Y-600000D02*
X32500000Y-1502000D01*
X30485000Y-2027000D02*
X29960000Y-1502000D01*
X28690000Y-600000D02*
X28690000Y750000D01*
X30559000Y-2101000D02*
X30485000Y-2027000D01*
X32500000Y-1502000D02*
X31901000Y-2101000D01*
X28956000Y1016000D02*
X30746000Y1016000D01*
X26825000Y8600000D02*
X26000000Y7775000D01*
X28956000Y-2032000D02*
X28961000Y-2027000D01*
X39116000Y116000D02*
X39116000Y4951105D01*
X29960000Y-1502000D02*
X29960000Y-600000D01*
X32500000Y-600000D02*
X32500000Y266000D01*
%TO.N,+3V3*%
X28000000Y2000000D02*
X27420000Y1420000D01*
X54102000Y6604000D02*
X54356000Y6350000D01*
X65657815Y6342185D02*
X64000000Y8000000D01*
X36830000Y-17500000D02*
X33274000Y-17500000D01*
X73100000Y10000000D02*
X73000000Y9900000D01*
X37074762Y-7112000D02*
X37122645Y-7159883D01*
X69252735Y-19647265D02*
X69342000Y-19558000D01*
X92867802Y-20632198D02*
X92867802Y-19132198D01*
X65657815Y6309285D02*
X65657815Y6342185D01*
X42501735Y-8013297D02*
X42953781Y-7561251D01*
X32135936Y2235936D02*
X31900000Y2000000D01*
X54102000Y7366000D02*
X54102000Y6604000D01*
X67220735Y-19647265D02*
X69252735Y-19647265D01*
X42501735Y-8806265D02*
X42501735Y-8013297D01*
X34561280Y-6959883D02*
X34713397Y-7112000D01*
X32181936Y2235936D02*
X32135936Y2235936D01*
X64000000Y8000000D02*
X63000000Y8000000D01*
X32320500Y2374500D02*
X32181936Y2235936D01*
X54356000Y6350000D02*
X54356000Y3549000D01*
X70500000Y1000000D02*
X69500000Y1000000D01*
X31900000Y2000000D02*
X28000000Y2000000D01*
X69500000Y1000000D02*
X69000000Y500000D01*
X74500000Y10000000D02*
X73100000Y10000000D01*
X92867802Y-19132198D02*
X93000000Y-19000000D01*
X27420000Y1420000D02*
X27420000Y-600000D01*
X74859464Y10359464D02*
X74500000Y10000000D01*
X34713397Y-7112000D02*
X37074762Y-7112000D01*
%TO.N,+1V2*%
X80500000Y500000D02*
X83277214Y3277214D01*
X71689598Y62500D02*
X72127098Y500000D01*
X83000000Y3554428D02*
X83277214Y3277214D01*
X83000000Y9188500D02*
X83000000Y3554428D01*
X72127098Y500000D02*
X80500000Y500000D01*
%TO.N,NRST*%
X33625000Y5400000D02*
X28375000Y5400000D01*
X38000005Y5500000D02*
X33725000Y5500000D01*
X38349239Y4826000D02*
X38349239Y5150766D01*
X38349239Y5150766D02*
X38000005Y5500000D01*
X33625000Y2285914D02*
X33625000Y5400000D01*
X32500000Y-4500000D02*
X32500000Y-3060000D01*
X28375000Y5400000D02*
X26825000Y5400000D01*
X32500000Y-3060000D02*
X33020000Y-2540000D01*
X26825000Y5400000D02*
X26000000Y6225000D01*
X33239086Y1900000D02*
X33625000Y2285914D01*
%TO.N,/Display Interface/LED_High*%
X87475000Y-13763972D02*
X87475000Y-14525000D01*
X87475000Y-14525000D02*
X86500000Y-15500000D01*
%TO.N,/MCU/Layout_Cycle*%
X36075000Y9481241D02*
X33518759Y9481241D01*
X32071309Y10928691D02*
X32071309Y11001000D01*
X33518759Y9481241D02*
X32071309Y10928691D01*
%TO.N,/MCU/TC_Analog*%
X41910000Y1252000D02*
X41910000Y3048000D01*
X42400000Y762000D02*
X41910000Y1252000D01*
X41910000Y3048000D02*
X40132000Y4826000D01*
%TO.N,/Launch_Control*%
X65278000Y-9144000D02*
X64516000Y-8382000D01*
X51896000Y-6096000D02*
X50720000Y-4920000D01*
X65278000Y-14986000D02*
X65278000Y-9144000D01*
X57150000Y-6096000D02*
X51896000Y-6096000D01*
%TO.N,/Lap*%
X34559000Y-7759883D02*
X38407352Y-7759883D01*
X38407352Y-7759883D02*
X38608000Y-7559235D01*
%TO.N,VCP_UART_RX*%
X34500000Y-2000000D02*
X34000000Y-1500000D01*
X41656000Y-1844000D02*
X41000000Y-2500000D01*
X43000000Y1500000D02*
X43000000Y1011943D01*
X43001000Y513057D02*
X42648943Y161000D01*
X43000000Y1011943D02*
X43001000Y1010943D01*
X42648943Y161000D02*
X42325000Y161000D01*
X42325000Y161000D02*
X41656000Y-508000D01*
X43001000Y1010943D02*
X43001000Y513057D01*
X41000000Y-2500000D02*
X39000000Y-2500000D01*
X41656000Y-508000D02*
X41656000Y-1844000D01*
%TO.N,VCP_UART_TX*%
X39746013Y-3100000D02*
X39036013Y-3810000D01*
X41148000Y-1136888D02*
X40573444Y-1711444D01*
X39036013Y-3810000D02*
X34460000Y-3810000D01*
X40894000Y1778000D02*
X41148000Y1524000D01*
X34460000Y-3810000D02*
X33770000Y-4500000D01*
X41148000Y1524000D02*
X41148000Y-1136888D01*
%TO.N,STLINK_SWDIO*%
X35918290Y13433767D02*
X35718290Y13233767D01*
X26997132Y-6500906D02*
X26997132Y-4922868D01*
X37000000Y12954000D02*
X36872290Y13081710D01*
X36872290Y13081710D02*
X36768233Y13081710D01*
X35397607Y13233767D02*
X34850840Y13780534D01*
X36416176Y13433767D02*
X35918290Y13433767D01*
X35718290Y13233767D02*
X35397607Y13233767D01*
X36768233Y13081710D02*
X36416176Y13433767D01*
X26997132Y-4922868D02*
X27420000Y-4500000D01*
%TO.N,STLINK_SWO*%
X27142640Y-7500000D02*
X27862000Y-7500000D01*
X31500000Y8500000D02*
X31834466Y8500000D01*
X31834466Y8500000D02*
X32167233Y8832767D01*
X27862000Y-7500000D02*
X29960000Y-5402000D01*
X29717030Y10282970D02*
X31500000Y8500000D01*
X26832027Y-7189387D02*
X27142640Y-7500000D01*
%TO.N,STLINK_SWCLK*%
X34285153Y13214847D02*
X34667233Y12832767D01*
X34667233Y12832767D02*
X36167233Y12832767D01*
X27760000Y-6260000D02*
X28690000Y-5330000D01*
%TO.N,/Display Interface/Backlight_PWM*%
X86150000Y-9906000D02*
X84836000Y-9906000D01*
%TO.N,/MCU/Driver_Interrupt*%
X63000000Y7000000D02*
X64000000Y6000000D01*
X64000000Y6000000D02*
X64500000Y6000000D01*
X62000000Y7000000D02*
X63000000Y7000000D01*
X43472000Y8128000D02*
X44850000Y6750000D01*
X39370000Y8128000D02*
X43472000Y8128000D01*
%TO.N,/Switches/Analog_1V1*%
X47959000Y-114161000D02*
X43285000Y-114161000D01*
X48860000Y-115062000D02*
X47959000Y-114161000D01*
X43285000Y-114161000D02*
X41953000Y-112829000D01*
X50038000Y-115062000D02*
X48860000Y-115062000D01*
%TO.N,/Switches/Analog_2V2*%
X46736000Y-115824000D02*
X50800000Y-115824000D01*
X44800000Y-117760000D02*
X46736000Y-115824000D01*
%TO.N,/MCU/CAN_RX*%
X38465427Y8313957D02*
X38465427Y8182630D01*
X44189000Y4064000D02*
X44704000Y3549000D01*
X38465427Y8182630D02*
X42584057Y4064000D01*
X42584057Y4064000D02*
X44189000Y4064000D01*
%TO.N,/MCU/CAN_TX*%
X38225730Y7748270D02*
X42418000Y3556000D01*
X43132665Y3556000D02*
X43671787Y3016878D01*
X42418000Y3556000D02*
X43132665Y3556000D01*
X37899740Y7748270D02*
X38225730Y7748270D01*
%TO.N,/Display Interface/Driver_Power*%
X42500000Y12500000D02*
X43000000Y12500000D01*
X67390715Y8109285D02*
X65390715Y8109285D01*
X39652000Y9652000D02*
X42500000Y12500000D01*
X37230000Y9625919D02*
X37256081Y9652000D01*
X37256081Y9652000D02*
X39652000Y9652000D01*
X65390715Y8109285D02*
X64345872Y9154128D01*
X64345872Y9154128D02*
X64238498Y9154128D01*
%TO.N,/Display Interface/SPI.CS*%
X60582315Y4666685D02*
X60500000Y4749000D01*
X62582315Y4666685D02*
X60582315Y4666685D01*
%TO.N,/Display Interface/SPI.MISO*%
X65600000Y11000000D02*
X64900000Y11000000D01*
X66100000Y11500000D02*
X65600000Y11000000D01*
%TO.N,Net-(U5-PA8)*%
X22000000Y14000000D02*
X21000000Y13000000D01*
%TO.N,Net-(U5-PA9)*%
X38213708Y15000000D02*
X26000000Y15000000D01*
X39757335Y13456372D02*
X38213708Y15000000D01*
X26000000Y15000000D02*
X24000000Y13000000D01*
%TO.N,Net-(U5-PA10)*%
X28381534Y14381534D02*
X27000000Y13000000D01*
X39062264Y13154262D02*
X38845738Y13154262D01*
X39108263Y13108263D02*
X39062264Y13154262D01*
X37618466Y14381534D02*
X28381534Y14381534D01*
X38845738Y13154262D02*
X37618466Y14381534D01*
%TO.N,Net-(U5-PB5)*%
X35826057Y10082241D02*
X35626057Y9882241D01*
X35626057Y9882241D02*
X33684859Y9882241D01*
X36676000Y9730184D02*
X36323943Y10082241D01*
X36676000Y9013024D02*
X36676000Y9730184D01*
X33684859Y9882241D02*
X33001133Y10565967D01*
X33001133Y11998867D02*
X32000000Y13000000D01*
X36323943Y10082241D02*
X35826057Y10082241D01*
X33001133Y10565967D02*
X33001133Y11998867D01*
X36844512Y8844512D02*
X36676000Y9013024D01*
%TO.N,Net-(U5-PB6)*%
X29083503Y10066554D02*
X31500000Y7650057D01*
X29150057Y12650057D02*
X29150057Y10630994D01*
X29083503Y10564440D02*
X29083503Y10066554D01*
X29150057Y10630994D02*
X29083503Y10564440D01*
%TD*%
%TA.AperFunction,Conductor*%
%TO.N,GND*%
G36*
X25697973Y15727815D02*
G01*
X25743728Y15675011D01*
X25753672Y15605853D01*
X25724647Y15542297D01*
X25692933Y15516112D01*
X25631284Y15480520D01*
X25569271Y15418507D01*
X25515149Y15364385D01*
X25515139Y15364374D01*
X24187583Y14036818D01*
X24126260Y14003333D01*
X24099902Y14000499D01*
X23452128Y14000499D01*
X23403757Y13995299D01*
X23392516Y13994091D01*
X23257671Y13943797D01*
X23257664Y13943793D01*
X23142455Y13857547D01*
X23142452Y13857544D01*
X23056206Y13742335D01*
X23056202Y13742328D01*
X23005908Y13607482D01*
X23002119Y13572236D01*
X22999501Y13547876D01*
X22999500Y13547864D01*
X22999500Y12452129D01*
X22999501Y12452123D01*
X23005908Y12392516D01*
X23056202Y12257671D01*
X23056206Y12257664D01*
X23142452Y12142455D01*
X23142455Y12142452D01*
X23257664Y12056206D01*
X23257671Y12056202D01*
X23392517Y12005908D01*
X23392516Y12005908D01*
X23452116Y11999501D01*
X23452119Y11999500D01*
X23452127Y11999500D01*
X23452134Y11999500D01*
X23452135Y11999500D01*
X24547870Y11999500D01*
X24547876Y11999501D01*
X24607483Y12005908D01*
X24742328Y12056202D01*
X24742335Y12056206D01*
X24857544Y12142452D01*
X24857547Y12142455D01*
X24943793Y12257664D01*
X24943797Y12257671D01*
X24979071Y12352247D01*
X24994091Y12392517D01*
X25000500Y12452127D01*
X25000499Y13099902D01*
X25020183Y13166941D01*
X25036818Y13187583D01*
X26212416Y14363181D01*
X26273739Y14396666D01*
X26300097Y14399500D01*
X27250903Y14399500D01*
X27272148Y14393261D01*
X27294237Y14391682D01*
X27305020Y14383609D01*
X27317942Y14379815D01*
X27332441Y14363081D01*
X27350170Y14349810D01*
X27354877Y14337189D01*
X27363697Y14327011D01*
X27366848Y14305093D01*
X27374587Y14284346D01*
X27371724Y14271185D01*
X27373641Y14257853D01*
X27364441Y14237709D01*
X27359735Y14216073D01*
X27346466Y14198347D01*
X27344616Y14194297D01*
X27338584Y14187819D01*
X27187583Y14036818D01*
X27126260Y14003333D01*
X27099902Y14000499D01*
X26452128Y14000499D01*
X26403757Y13995299D01*
X26392516Y13994091D01*
X26257671Y13943797D01*
X26257664Y13943793D01*
X26142455Y13857547D01*
X26142452Y13857544D01*
X26056206Y13742335D01*
X26056202Y13742328D01*
X26005908Y13607482D01*
X26002119Y13572236D01*
X25999501Y13547876D01*
X25999500Y13547864D01*
X25999500Y12452129D01*
X25999501Y12452123D01*
X26005908Y12392516D01*
X26056202Y12257671D01*
X26056206Y12257664D01*
X26142452Y12142455D01*
X26142455Y12142452D01*
X26257664Y12056206D01*
X26257671Y12056202D01*
X26392517Y12005908D01*
X26392516Y12005908D01*
X26452116Y11999501D01*
X26452119Y11999500D01*
X26452127Y11999500D01*
X26452134Y11999500D01*
X26452135Y11999500D01*
X27547870Y11999500D01*
X27547876Y11999501D01*
X27607483Y12005908D01*
X27742328Y12056202D01*
X27742335Y12056206D01*
X27857544Y12142452D01*
X27857547Y12142455D01*
X27943793Y12257664D01*
X27943797Y12257671D01*
X27979071Y12352247D01*
X27994091Y12392517D01*
X28000500Y12452127D01*
X28000499Y13099902D01*
X28020183Y13166941D01*
X28036818Y13187583D01*
X28287819Y13438584D01*
X28349142Y13472069D01*
X28418834Y13467085D01*
X28474767Y13425213D01*
X28499184Y13359749D01*
X28499500Y13350903D01*
X28499500Y12452129D01*
X28499501Y12452123D01*
X28505908Y12392516D01*
X28541739Y12296451D01*
X28549557Y12253118D01*
X28549557Y10873843D01*
X28532942Y10811842D01*
X28523926Y10796225D01*
X28483002Y10643497D01*
X28483002Y10643494D01*
X28483002Y10477788D01*
X28483003Y10477770D01*
X28483003Y10155613D01*
X28483002Y10155600D01*
X28483002Y9987499D01*
X28483001Y9987499D01*
X28523927Y9834764D01*
X28523928Y9834763D01*
X28542706Y9802239D01*
X28542707Y9802240D01*
X28542843Y9802004D01*
X28602983Y9697838D01*
X28603713Y9697107D01*
X28608251Y9689288D01*
X28614739Y9662795D01*
X28624571Y9637356D01*
X28625000Y9627052D01*
X28625000Y7600000D01*
X28949971Y7600000D01*
X28949987Y7600001D01*
X29052697Y7610494D01*
X29219119Y7665641D01*
X29219124Y7665643D01*
X29368345Y7757684D01*
X29492315Y7881654D01*
X29584356Y8030875D01*
X29584358Y8030880D01*
X29639505Y8197302D01*
X29639506Y8197309D01*
X29649999Y8300013D01*
X29649999Y8351456D01*
X29669682Y8418496D01*
X29722485Y8464251D01*
X29791644Y8474196D01*
X29855200Y8445172D01*
X29861680Y8439139D01*
X30723973Y7576847D01*
X30757458Y7515524D01*
X30757909Y7513357D01*
X30774493Y7429984D01*
X30774495Y7429976D01*
X30831371Y7292665D01*
X30913939Y7169092D01*
X30913945Y7169085D01*
X31019028Y7064002D01*
X31019035Y7063996D01*
X31142608Y6981428D01*
X31279919Y6924552D01*
X31279927Y6924550D01*
X31425683Y6895557D01*
X31425688Y6895557D01*
X31574316Y6895557D01*
X31720072Y6924550D01*
X31720080Y6924552D01*
X31857391Y6981428D01*
X31980964Y7063996D01*
X31980971Y7064002D01*
X32086054Y7169085D01*
X32086060Y7169092D01*
X32168628Y7292665D01*
X32186602Y7336057D01*
X32225505Y7429977D01*
X32254500Y7575745D01*
X32254500Y7724369D01*
X32225505Y7870137D01*
X32225499Y7870149D01*
X32223737Y7875964D01*
X32225195Y7876406D01*
X32218517Y7938407D01*
X32249778Y8000893D01*
X32309860Y8036558D01*
X32379686Y8034079D01*
X32437086Y7994242D01*
X32446089Y7981514D01*
X32507682Y7881656D01*
X32631654Y7757684D01*
X32780875Y7665643D01*
X32780880Y7665641D01*
X32947302Y7610494D01*
X32947309Y7610493D01*
X33050013Y7600000D01*
X33375000Y7600000D01*
X33875000Y7600000D01*
X34199971Y7600000D01*
X34199987Y7600001D01*
X34302697Y7610494D01*
X34469119Y7665641D01*
X34469124Y7665643D01*
X34618345Y7757684D01*
X34742315Y7881654D01*
X34834356Y8030875D01*
X34834358Y8030880D01*
X34889505Y8197302D01*
X34889506Y8197309D01*
X34899999Y8300013D01*
X34900000Y8300026D01*
X34900000Y8350000D01*
X33875000Y8350000D01*
X33875000Y7600000D01*
X33375000Y7600000D01*
X33375000Y8476000D01*
X33394685Y8543039D01*
X33447489Y8588794D01*
X33499000Y8600000D01*
X33625000Y8600000D01*
X33625000Y8726000D01*
X33644685Y8793039D01*
X33697489Y8838794D01*
X33749000Y8850000D01*
X34904636Y8850000D01*
X34955744Y8877907D01*
X34982102Y8880741D01*
X35578033Y8880741D01*
X35645072Y8861056D01*
X35646888Y8859866D01*
X35662651Y8849334D01*
X35717610Y8812611D01*
X35854919Y8755736D01*
X35854927Y8755734D01*
X36000683Y8726741D01*
X36006749Y8726144D01*
X36006529Y8723911D01*
X36063931Y8707056D01*
X36109686Y8654252D01*
X36118508Y8626938D01*
X36119004Y8624440D01*
X36119008Y8624429D01*
X36175883Y8487120D01*
X36258451Y8363547D01*
X36258457Y8363540D01*
X36363540Y8258457D01*
X36363547Y8258451D01*
X36487120Y8175883D01*
X36624431Y8119007D01*
X36624439Y8119005D01*
X36770195Y8090012D01*
X36770200Y8090012D01*
X36918823Y8090012D01*
X36918824Y8090012D01*
X36948206Y8095856D01*
X36979108Y8102003D01*
X37048699Y8095774D01*
X37103876Y8052911D01*
X37127120Y7987021D01*
X37124915Y7956194D01*
X37099240Y7827116D01*
X37099240Y7669423D01*
X37130001Y7514780D01*
X37130004Y7514768D01*
X37190342Y7369097D01*
X37190349Y7369084D01*
X37277950Y7237981D01*
X37277953Y7237977D01*
X37389447Y7126483D01*
X37389451Y7126480D01*
X37520554Y7038879D01*
X37520567Y7038872D01*
X37666238Y6978534D01*
X37666250Y6978531D01*
X37820893Y6947770D01*
X37820898Y6947770D01*
X37978581Y6947770D01*
X37978582Y6947770D01*
X38009817Y6953983D01*
X38079070Y6967758D01*
X38148662Y6961530D01*
X38190942Y6933821D01*
X39561661Y5563102D01*
X39595146Y5501779D01*
X39590162Y5432087D01*
X39561661Y5387740D01*
X39510213Y5336292D01*
X39510210Y5336288D01*
X39422609Y5205185D01*
X39422602Y5205172D01*
X39362264Y5059501D01*
X39362261Y5059491D01*
X39338785Y4941472D01*
X39306400Y4879561D01*
X39245684Y4844987D01*
X39175914Y4848728D01*
X39119242Y4889594D01*
X39095552Y4941468D01*
X39074744Y5046080D01*
X39017868Y5183390D01*
X38936268Y5305513D01*
X38919599Y5342305D01*
X38908816Y5382550D01*
X38903250Y5392190D01*
X38838986Y5503500D01*
X38829759Y5519482D01*
X38717955Y5631286D01*
X38717953Y5631286D01*
X38707750Y5641490D01*
X38707745Y5641494D01*
X38490733Y5858506D01*
X38490729Y5858511D01*
X38480525Y5868714D01*
X38480525Y5868716D01*
X38368721Y5980520D01*
X38258037Y6044423D01*
X38231790Y6059577D01*
X38079062Y6100501D01*
X37920948Y6100501D01*
X37913352Y6100501D01*
X37913336Y6100500D01*
X34812231Y6100500D01*
X34745192Y6120185D01*
X34724550Y6136818D01*
X34711270Y6150098D01*
X34618656Y6242712D01*
X34469334Y6334814D01*
X34302797Y6389999D01*
X34200009Y6400500D01*
X33049992Y6400499D01*
X33049983Y6400498D01*
X33049981Y6400498D01*
X32947203Y6389999D01*
X32780666Y6334814D01*
X32631344Y6242712D01*
X32507288Y6118656D01*
X32470848Y6059576D01*
X32470741Y6059403D01*
X32418793Y6012679D01*
X32365202Y6000500D01*
X29634798Y6000500D01*
X29567759Y6020185D01*
X29529259Y6059403D01*
X29529153Y6059575D01*
X29492712Y6118656D01*
X29368656Y6242712D01*
X29219334Y6334814D01*
X29052797Y6389999D01*
X28950009Y6400500D01*
X27799992Y6400499D01*
X27799983Y6400498D01*
X27799981Y6400498D01*
X27697203Y6389999D01*
X27530666Y6334814D01*
X27381344Y6242712D01*
X27257288Y6118656D01*
X27224514Y6065521D01*
X27207223Y6049969D01*
X27193287Y6031353D01*
X27181735Y6027044D01*
X27172568Y6018799D01*
X27149612Y6015063D01*
X27127823Y6006936D01*
X27115776Y6009556D01*
X27103606Y6007576D01*
X27082274Y6016844D01*
X27059550Y6021788D01*
X27043853Y6033538D01*
X27039523Y6035420D01*
X27031296Y6042939D01*
X27011818Y6062417D01*
X26978333Y6123740D01*
X26975499Y6150098D01*
X26975499Y6498337D01*
X26975498Y6498355D01*
X26969940Y6552760D01*
X26965349Y6597708D01*
X26912003Y6758697D01*
X26822968Y6903044D01*
X26813343Y6912668D01*
X26779856Y6973987D01*
X26784835Y7043679D01*
X26813339Y7088034D01*
X26822572Y7097267D01*
X26822575Y7097271D01*
X26911542Y7241507D01*
X26911547Y7241518D01*
X26964855Y7402393D01*
X26974999Y7501677D01*
X26975000Y7501690D01*
X26975000Y7525000D01*
X25025001Y7525000D01*
X25025001Y7501677D01*
X25035144Y7402392D01*
X25088452Y7241518D01*
X25088457Y7241507D01*
X25177424Y7097271D01*
X25177428Y7097265D01*
X25186663Y7088031D01*
X25220146Y7026707D01*
X25215159Y6957015D01*
X25186660Y6912672D01*
X25177032Y6903044D01*
X25177029Y6903040D01*
X25088001Y6758705D01*
X25087996Y6758694D01*
X25034651Y6597709D01*
X25024500Y6498352D01*
X25024500Y5951662D01*
X25024501Y5951644D01*
X25034650Y5852292D01*
X25034651Y5852289D01*
X25087996Y5691305D01*
X25088001Y5691294D01*
X25177029Y5546959D01*
X25177032Y5546955D01*
X25296955Y5427032D01*
X25296959Y5427029D01*
X25441294Y5338001D01*
X25441305Y5337996D01*
X25602290Y5284651D01*
X25701647Y5274500D01*
X25701655Y5274500D01*
X26049902Y5274500D01*
X26116941Y5254815D01*
X26137583Y5238181D01*
X26456282Y4919481D01*
X26456290Y4919475D01*
X26511151Y4887802D01*
X26511152Y4887802D01*
X26593212Y4840424D01*
X26593214Y4840423D01*
X26593215Y4840423D01*
X26745942Y4799500D01*
X26745943Y4799500D01*
X27115202Y4799500D01*
X27182241Y4779815D01*
X27220739Y4740598D01*
X27239288Y4710527D01*
X27257289Y4681342D01*
X27381342Y4557289D01*
X27530663Y4465187D01*
X27530668Y4465185D01*
X27614670Y4437349D01*
X27697203Y4410001D01*
X27697204Y4410000D01*
X27799989Y4399500D01*
X27799991Y4399500D01*
X28950001Y4399500D01*
X28950018Y4399501D01*
X29052796Y4410000D01*
X29052799Y4410001D01*
X29219331Y4465185D01*
X29219334Y4465186D01*
X29224886Y4468610D01*
X29347952Y4544518D01*
X29368656Y4557288D01*
X29492712Y4681344D01*
X29529259Y4740597D01*
X29581207Y4787321D01*
X29634798Y4799500D01*
X32365202Y4799500D01*
X32432241Y4779815D01*
X32470739Y4740598D01*
X32489288Y4710527D01*
X32507289Y4681342D01*
X32631342Y4557289D01*
X32780663Y4465187D01*
X32780668Y4465185D01*
X32939504Y4412552D01*
X32996949Y4372779D01*
X33023772Y4308263D01*
X33024500Y4294846D01*
X33024500Y3036888D01*
X33004815Y2969849D01*
X32952011Y2924094D01*
X32882853Y2914150D01*
X32819297Y2943175D01*
X32812819Y2949207D01*
X32801471Y2960554D01*
X32801466Y2960559D01*
X32677890Y3043129D01*
X32540580Y3100005D01*
X32394814Y3128999D01*
X32394813Y3129000D01*
X32394812Y3129000D01*
X32246188Y3129000D01*
X32246187Y3129000D01*
X32246183Y3128999D01*
X32100420Y3100005D01*
X31963110Y3043129D01*
X31963108Y3043128D01*
X31839535Y2960560D01*
X31839528Y2960554D01*
X31734445Y2855471D01*
X31734439Y2855464D01*
X31651871Y2731891D01*
X31629154Y2677047D01*
X31585313Y2622644D01*
X31519019Y2600579D01*
X31514593Y2600500D01*
X28086669Y2600500D01*
X28086653Y2600501D01*
X28079057Y2600501D01*
X27920943Y2600501D01*
X27768215Y2559577D01*
X27747708Y2547737D01*
X27631284Y2480520D01*
X27555622Y2404858D01*
X27515149Y2364385D01*
X27515139Y2364374D01*
X27058355Y1907590D01*
X27058349Y1907585D01*
X26939481Y1788717D01*
X26939475Y1788709D01*
X26896303Y1713932D01*
X26896303Y1713931D01*
X26860423Y1651785D01*
X26819499Y1499057D01*
X26819499Y1499054D01*
X26819499Y1333348D01*
X26819500Y1333330D01*
X26819500Y1201066D01*
X26799815Y1134027D01*
X26747011Y1088272D01*
X26677853Y1078328D01*
X26652166Y1084884D01*
X26627483Y1094091D01*
X26567873Y1100500D01*
X25732128Y1100499D01*
X25683757Y1095299D01*
X25672516Y1094091D01*
X25537671Y1043797D01*
X25537664Y1043793D01*
X25422455Y957547D01*
X25422452Y957544D01*
X25336206Y842335D01*
X25336202Y842328D01*
X25285908Y707482D01*
X25279574Y648559D01*
X25279501Y647876D01*
X25279500Y647864D01*
X25279500Y-1847870D01*
X25279501Y-1847876D01*
X25285908Y-1907483D01*
X25336202Y-2042328D01*
X25336206Y-2042335D01*
X25422452Y-2157544D01*
X25422455Y-2157547D01*
X25537664Y-2243793D01*
X25537671Y-2243797D01*
X25672517Y-2294091D01*
X25672516Y-2294091D01*
X25679444Y-2294835D01*
X25732127Y-2300500D01*
X26567872Y-2300499D01*
X26627483Y-2294091D01*
X26741667Y-2251502D01*
X26811358Y-2246519D01*
X26828330Y-2251502D01*
X26869298Y-2266782D01*
X26942517Y-2294091D01*
X26942516Y-2294091D01*
X26949444Y-2294835D01*
X27002127Y-2300500D01*
X27837872Y-2300499D01*
X27897483Y-2294091D01*
X28012383Y-2251235D01*
X28082073Y-2246252D01*
X28099049Y-2251236D01*
X28212623Y-2293597D01*
X28212627Y-2293598D01*
X28272155Y-2299999D01*
X28272172Y-2300000D01*
X28440000Y-2300000D01*
X28940000Y-2300000D01*
X29107828Y-2300000D01*
X29107844Y-2299999D01*
X29167372Y-2293598D01*
X29167376Y-2293597D01*
X29281666Y-2250969D01*
X29351357Y-2245985D01*
X29368334Y-2250969D01*
X29482623Y-2293597D01*
X29482627Y-2293598D01*
X29542155Y-2299999D01*
X29542172Y-2300000D01*
X29710000Y-2300000D01*
X29710000Y-850000D01*
X28940000Y-850000D01*
X28940000Y-2300000D01*
X28440000Y-2300000D01*
X28440000Y-350000D01*
X28940000Y-350000D01*
X29710000Y-350000D01*
X29710000Y1100000D01*
X29542172Y1100000D01*
X29542155Y1099999D01*
X29482627Y1093598D01*
X29482623Y1093597D01*
X29368334Y1050969D01*
X29298643Y1045985D01*
X29281666Y1050969D01*
X29167376Y1093597D01*
X29167372Y1093598D01*
X29107844Y1099999D01*
X29107828Y1100000D01*
X28940000Y1100000D01*
X28940000Y-350000D01*
X28440000Y-350000D01*
X28440000Y1100000D01*
X28272172Y1100000D01*
X28272158Y1099999D01*
X28259815Y1098672D01*
X28191055Y1111076D01*
X28139917Y1158686D01*
X28122637Y1226385D01*
X28144701Y1292679D01*
X28158877Y1309642D01*
X28212416Y1363181D01*
X28273739Y1396666D01*
X28300097Y1399500D01*
X31813331Y1399500D01*
X31813339Y1399497D01*
X31813339Y1399499D01*
X31979054Y1399499D01*
X31979057Y1399499D01*
X32131785Y1440423D01*
X32185428Y1471394D01*
X32268716Y1519480D01*
X32328743Y1579507D01*
X32335902Y1584854D01*
X32360612Y1594039D01*
X32383745Y1606671D01*
X32392842Y1606020D01*
X32401393Y1609199D01*
X32427145Y1603567D01*
X32453437Y1601687D01*
X32460738Y1596220D01*
X32469650Y1594272D01*
X32488269Y1575611D01*
X32509370Y1559815D01*
X32516469Y1547348D01*
X32519000Y1544812D01*
X32519665Y1541735D01*
X32524663Y1532960D01*
X32529689Y1520826D01*
X32529695Y1520814D01*
X32617296Y1389711D01*
X32617299Y1389707D01*
X32728801Y1278205D01*
X32732574Y1275109D01*
X32771904Y1217360D01*
X32773768Y1147515D01*
X32750000Y1106210D01*
X32750000Y-476000D01*
X32730315Y-543039D01*
X32677511Y-588794D01*
X32626000Y-600000D01*
X32374000Y-600000D01*
X32306961Y-580315D01*
X32261206Y-527511D01*
X32250000Y-476000D01*
X32250000Y1100000D01*
X32082172Y1100000D01*
X32082155Y1099999D01*
X32022627Y1093598D01*
X32022623Y1093597D01*
X31909049Y1051236D01*
X31905944Y1051013D01*
X31903366Y1049272D01*
X31871322Y1048538D01*
X31839357Y1046252D01*
X31834447Y1047693D01*
X31833515Y1047672D01*
X31832584Y1048240D01*
X31822391Y1051232D01*
X31707483Y1094091D01*
X31647873Y1100500D01*
X30812128Y1100499D01*
X30752517Y1094091D01*
X30637616Y1051235D01*
X30567927Y1046252D01*
X30550951Y1051236D01*
X30437376Y1093597D01*
X30437372Y1093598D01*
X30377844Y1099999D01*
X30377828Y1100000D01*
X30210000Y1100000D01*
X30210000Y-2300000D01*
X30377828Y-2300000D01*
X30377844Y-2299999D01*
X30437372Y-2293598D01*
X30437376Y-2293597D01*
X30550951Y-2251236D01*
X30620643Y-2246252D01*
X30637608Y-2251232D01*
X30752517Y-2294091D01*
X30812127Y-2300500D01*
X31647872Y-2300499D01*
X31707483Y-2294091D01*
X31822383Y-2251235D01*
X31829390Y-2250734D01*
X31835444Y-2247170D01*
X31863781Y-2248275D01*
X31892073Y-2246252D01*
X31899924Y-2249684D01*
X31905260Y-2249893D01*
X31909049Y-2251236D01*
X32022623Y-2293597D01*
X32022627Y-2293598D01*
X32082155Y-2299999D01*
X32082172Y-2300000D01*
X32100462Y-2300000D01*
X32167501Y-2319685D01*
X32213256Y-2372489D01*
X32223200Y-2441647D01*
X32222078Y-2448197D01*
X32219361Y-2461853D01*
X32186973Y-2523762D01*
X32185427Y-2525336D01*
X32131287Y-2579477D01*
X32131286Y-2579478D01*
X32019481Y-2691282D01*
X32019479Y-2691285D01*
X31982984Y-2754498D01*
X31982983Y-2754500D01*
X31962191Y-2790512D01*
X31911623Y-2838727D01*
X31843016Y-2851949D01*
X31811472Y-2844693D01*
X31707485Y-2805909D01*
X31707483Y-2805908D01*
X31647883Y-2799501D01*
X31647881Y-2799500D01*
X31647873Y-2799500D01*
X31647864Y-2799500D01*
X30812129Y-2799500D01*
X30812123Y-2799501D01*
X30752516Y-2805908D01*
X30638333Y-2848496D01*
X30568641Y-2853480D01*
X30551667Y-2848496D01*
X30437482Y-2805908D01*
X30437483Y-2805908D01*
X30377883Y-2799501D01*
X30377881Y-2799500D01*
X30377873Y-2799500D01*
X30377864Y-2799500D01*
X29542129Y-2799500D01*
X29542123Y-2799501D01*
X29482516Y-2805908D01*
X29368333Y-2848496D01*
X29298641Y-2853480D01*
X29281667Y-2848496D01*
X29167482Y-2805908D01*
X29167483Y-2805908D01*
X29107883Y-2799501D01*
X29107881Y-2799500D01*
X29107873Y-2799500D01*
X29107864Y-2799500D01*
X28272129Y-2799500D01*
X28272123Y-2799501D01*
X28212516Y-2805908D01*
X28098333Y-2848496D01*
X28028641Y-2853480D01*
X28011667Y-2848496D01*
X27897482Y-2805908D01*
X27897483Y-2805908D01*
X27837883Y-2799501D01*
X27837881Y-2799500D01*
X27837873Y-2799500D01*
X27837864Y-2799500D01*
X27002129Y-2799500D01*
X27002123Y-2799501D01*
X26942516Y-2805908D01*
X26828333Y-2848496D01*
X26758641Y-2853480D01*
X26741667Y-2848496D01*
X26627482Y-2805908D01*
X26627483Y-2805908D01*
X26567883Y-2799501D01*
X26567881Y-2799500D01*
X26567873Y-2799500D01*
X26567864Y-2799500D01*
X25732129Y-2799500D01*
X25732123Y-2799501D01*
X25672516Y-2805908D01*
X25537671Y-2856202D01*
X25537664Y-2856206D01*
X25422455Y-2942452D01*
X25422452Y-2942455D01*
X25336206Y-3057664D01*
X25336202Y-3057671D01*
X25285908Y-3192517D01*
X25279501Y-3252116D01*
X25279500Y-3252135D01*
X25279500Y-5747870D01*
X25279501Y-5747876D01*
X25285908Y-5807483D01*
X25336202Y-5942328D01*
X25336206Y-5942335D01*
X25422452Y-6057544D01*
X25422455Y-6057547D01*
X25537664Y-6143793D01*
X25537671Y-6143797D01*
X25579460Y-6159383D01*
X25672517Y-6194091D01*
X25732127Y-6200500D01*
X26136511Y-6200499D01*
X26203549Y-6220183D01*
X26249304Y-6272987D01*
X26259248Y-6342146D01*
X26258128Y-6348689D01*
X26242632Y-6426595D01*
X26242632Y-6575221D01*
X26253794Y-6631335D01*
X26247567Y-6700926D01*
X26235280Y-6724416D01*
X26163397Y-6831998D01*
X26106522Y-6969306D01*
X26106520Y-6969314D01*
X26077527Y-7115070D01*
X26077527Y-7263703D01*
X26106520Y-7409459D01*
X26106522Y-7409467D01*
X26163398Y-7546778D01*
X26245966Y-7670351D01*
X26245972Y-7670358D01*
X26351055Y-7775441D01*
X26351062Y-7775447D01*
X26474635Y-7858015D01*
X26474636Y-7858015D01*
X26474637Y-7858016D01*
X26611947Y-7914892D01*
X26695329Y-7931477D01*
X26739844Y-7949870D01*
X26750101Y-7956697D01*
X26773924Y-7980520D01*
X26860735Y-8030639D01*
X26864158Y-8032615D01*
X26864162Y-8032618D01*
X26890218Y-8047661D01*
X26910855Y-8059577D01*
X27063583Y-8100500D01*
X27221697Y-8100500D01*
X27775331Y-8100500D01*
X27775347Y-8100501D01*
X27782943Y-8100501D01*
X27941054Y-8100501D01*
X27941057Y-8100501D01*
X28093785Y-8059577D01*
X28143904Y-8030639D01*
X28230716Y-7980520D01*
X28342520Y-7868716D01*
X28342520Y-7868714D01*
X28352728Y-7858507D01*
X28352730Y-7858504D01*
X29974416Y-6236818D01*
X30035739Y-6203333D01*
X30062097Y-6200499D01*
X30377871Y-6200499D01*
X30377872Y-6200499D01*
X30437483Y-6194091D01*
X30551667Y-6151502D01*
X30621358Y-6146519D01*
X30638330Y-6151502D01*
X30741935Y-6190144D01*
X30752517Y-6194091D01*
X30752516Y-6194091D01*
X30759444Y-6194835D01*
X30812127Y-6200500D01*
X31647872Y-6200499D01*
X31707483Y-6194091D01*
X31821667Y-6151502D01*
X31891358Y-6146519D01*
X31908330Y-6151502D01*
X32011935Y-6190144D01*
X32022517Y-6194091D01*
X32022516Y-6194091D01*
X32029444Y-6194835D01*
X32082127Y-6200500D01*
X32917872Y-6200499D01*
X32977483Y-6194091D01*
X33091667Y-6151502D01*
X33161358Y-6146519D01*
X33178330Y-6151502D01*
X33281935Y-6190144D01*
X33292517Y-6194091D01*
X33292516Y-6194091D01*
X33299444Y-6194835D01*
X33352127Y-6200500D01*
X33889223Y-6200499D01*
X33956261Y-6220183D01*
X34002016Y-6272987D01*
X34011960Y-6342146D01*
X33982935Y-6405702D01*
X33976904Y-6412179D01*
X33939494Y-6449589D01*
X33939490Y-6449594D01*
X33851889Y-6580697D01*
X33851882Y-6580710D01*
X33791544Y-6726381D01*
X33791541Y-6726393D01*
X33760780Y-6881036D01*
X33760780Y-7038729D01*
X33790568Y-7188478D01*
X33791543Y-7193380D01*
X33820670Y-7263699D01*
X33839715Y-7309679D01*
X33847183Y-7379149D01*
X33839714Y-7404583D01*
X33789264Y-7526381D01*
X33789261Y-7526393D01*
X33758500Y-7681036D01*
X33758500Y-7838729D01*
X33789261Y-7993372D01*
X33789264Y-7993384D01*
X33849602Y-8139055D01*
X33849609Y-8139068D01*
X33937210Y-8270171D01*
X33937213Y-8270175D01*
X34048707Y-8381669D01*
X34048711Y-8381672D01*
X34179814Y-8469273D01*
X34179827Y-8469280D01*
X34246171Y-8496760D01*
X34325503Y-8529620D01*
X34480153Y-8560382D01*
X34480156Y-8560383D01*
X34480158Y-8560383D01*
X34637844Y-8560383D01*
X34637845Y-8560382D01*
X34792497Y-8529620D01*
X34938179Y-8469277D01*
X34965250Y-8451189D01*
X35069875Y-8381281D01*
X35136553Y-8360403D01*
X35138766Y-8360383D01*
X38328291Y-8360383D01*
X38328295Y-8360384D01*
X38486409Y-8360384D01*
X38493360Y-8358521D01*
X38508651Y-8358357D01*
X38514841Y-8360102D01*
X38522973Y-8360369D01*
X38523095Y-8359138D01*
X38529157Y-8359735D01*
X38529158Y-8359735D01*
X38686844Y-8359735D01*
X38686845Y-8359734D01*
X38841497Y-8328972D01*
X38987179Y-8268629D01*
X39118289Y-8181024D01*
X39229789Y-8069524D01*
X39317394Y-7938414D01*
X39327138Y-7914891D01*
X39350696Y-7858015D01*
X39377737Y-7792732D01*
X39408500Y-7638077D01*
X39408500Y-7480393D01*
X39408500Y-7480390D01*
X39408499Y-7480388D01*
X39377738Y-7325745D01*
X39377737Y-7325738D01*
X39371085Y-7309679D01*
X39317397Y-7180062D01*
X39317390Y-7180049D01*
X39229789Y-7048946D01*
X39229786Y-7048942D01*
X39118292Y-6937448D01*
X39118288Y-6937445D01*
X38987185Y-6849844D01*
X38987172Y-6849837D01*
X38841501Y-6789499D01*
X38841489Y-6789496D01*
X38686845Y-6758735D01*
X38686842Y-6758735D01*
X38529158Y-6758735D01*
X38529155Y-6758735D01*
X38374510Y-6789496D01*
X38374498Y-6789499D01*
X38228827Y-6849837D01*
X38228814Y-6849844D01*
X38097711Y-6937445D01*
X38097705Y-6937450D01*
X38086981Y-6948174D01*
X38025657Y-6981657D01*
X37955966Y-6976670D01*
X37900033Y-6934797D01*
X37884742Y-6907942D01*
X37832042Y-6780709D01*
X37832035Y-6780697D01*
X37744434Y-6649594D01*
X37744431Y-6649590D01*
X37632937Y-6538096D01*
X37632933Y-6538093D01*
X37501830Y-6450492D01*
X37501817Y-6450485D01*
X37356146Y-6390147D01*
X37356134Y-6390144D01*
X37201490Y-6359383D01*
X37201487Y-6359383D01*
X37043803Y-6359383D01*
X37043800Y-6359383D01*
X36889155Y-6390144D01*
X36889143Y-6390147D01*
X36743472Y-6450485D01*
X36743465Y-6450489D01*
X36714529Y-6469823D01*
X36683431Y-6490602D01*
X36616756Y-6511480D01*
X36614542Y-6511500D01*
X35290713Y-6511500D01*
X35223674Y-6491815D01*
X35187611Y-6456391D01*
X35183069Y-6449594D01*
X35183066Y-6449590D01*
X35071572Y-6338096D01*
X35071568Y-6338093D01*
X34940465Y-6250492D01*
X34940452Y-6250485D01*
X34794781Y-6190147D01*
X34794771Y-6190144D01*
X34642677Y-6159890D01*
X34580766Y-6127505D01*
X34546192Y-6066789D01*
X34549933Y-5997019D01*
X34567602Y-5963962D01*
X34583796Y-5942331D01*
X34634091Y-5807483D01*
X34640500Y-5747873D01*
X34640499Y-4825513D01*
X46979500Y-4825513D01*
X46979500Y-5014486D01*
X47009059Y-5201118D01*
X47067454Y-5380836D01*
X47125879Y-5495500D01*
X47153240Y-5549199D01*
X47264310Y-5702073D01*
X47397927Y-5835690D01*
X47550801Y-5946760D01*
X47630347Y-5987290D01*
X47719163Y-6032545D01*
X47719165Y-6032545D01*
X47719168Y-6032547D01*
X47796107Y-6057546D01*
X47898881Y-6090940D01*
X48085514Y-6120500D01*
X48085519Y-6120500D01*
X48274486Y-6120500D01*
X48461118Y-6090940D01*
X48491753Y-6080986D01*
X48640832Y-6032547D01*
X48809199Y-5946760D01*
X48962073Y-5835690D01*
X49095690Y-5702073D01*
X49206760Y-5549199D01*
X49292547Y-5380832D01*
X49332069Y-5259195D01*
X49371507Y-5201521D01*
X49435866Y-5174323D01*
X49504712Y-5186238D01*
X49556188Y-5233482D01*
X49567931Y-5259196D01*
X49607454Y-5380836D01*
X49665879Y-5495500D01*
X49693240Y-5549199D01*
X49804310Y-5702073D01*
X49937927Y-5835690D01*
X50090801Y-5946760D01*
X50170347Y-5987290D01*
X50259163Y-6032545D01*
X50259165Y-6032545D01*
X50259168Y-6032547D01*
X50336107Y-6057546D01*
X50438881Y-6090940D01*
X50625514Y-6120500D01*
X50625519Y-6120500D01*
X50814486Y-6120500D01*
X50931017Y-6102042D01*
X50973753Y-6095274D01*
X51043045Y-6104228D01*
X51080831Y-6130066D01*
X51277371Y-6326606D01*
X51310856Y-6387929D01*
X51305872Y-6457621D01*
X51264000Y-6513554D01*
X51262576Y-6514604D01*
X51207933Y-6554305D01*
X51207924Y-6554312D01*
X51074312Y-6687924D01*
X51074312Y-6687925D01*
X51074310Y-6687927D01*
X51046368Y-6726386D01*
X50963240Y-6840800D01*
X50877454Y-7009163D01*
X50837931Y-7130803D01*
X50798493Y-7188478D01*
X50734134Y-7215676D01*
X50665288Y-7203761D01*
X50613812Y-7156516D01*
X50602069Y-7130803D01*
X50572152Y-7038729D01*
X50562547Y-7009168D01*
X50562545Y-7009165D01*
X50562545Y-7009163D01*
X50497263Y-6881041D01*
X50476760Y-6840801D01*
X50365690Y-6687927D01*
X50232073Y-6554310D01*
X50079199Y-6443240D01*
X50057202Y-6432032D01*
X49910836Y-6357454D01*
X49731118Y-6299059D01*
X49544486Y-6269500D01*
X49544481Y-6269500D01*
X49355519Y-6269500D01*
X49355514Y-6269500D01*
X49168881Y-6299059D01*
X48989163Y-6357454D01*
X48820800Y-6443240D01*
X48733579Y-6506610D01*
X48667927Y-6554310D01*
X48667925Y-6554312D01*
X48667924Y-6554312D01*
X48534312Y-6687924D01*
X48534312Y-6687925D01*
X48534310Y-6687927D01*
X48506368Y-6726386D01*
X48423240Y-6840800D01*
X48337454Y-7009163D01*
X48279059Y-7188881D01*
X48249500Y-7375513D01*
X48249500Y-7564486D01*
X48279059Y-7751118D01*
X48337454Y-7930836D01*
X48419752Y-8092354D01*
X48423240Y-8099199D01*
X48534310Y-8252073D01*
X48667927Y-8385690D01*
X48820801Y-8496760D01*
X48885289Y-8529618D01*
X48989163Y-8582545D01*
X48989165Y-8582545D01*
X48989168Y-8582547D01*
X49085497Y-8613846D01*
X49168881Y-8640940D01*
X49355514Y-8670500D01*
X49355519Y-8670500D01*
X49544486Y-8670500D01*
X49731118Y-8640940D01*
X49910832Y-8582547D01*
X50079199Y-8496760D01*
X50232073Y-8385690D01*
X50365690Y-8252073D01*
X50476760Y-8099199D01*
X50562547Y-7930832D01*
X50602069Y-7809195D01*
X50641507Y-7751521D01*
X50705866Y-7724323D01*
X50774712Y-7736238D01*
X50826188Y-7783482D01*
X50837931Y-7809196D01*
X50877454Y-7930836D01*
X50959752Y-8092354D01*
X50963240Y-8099199D01*
X51074310Y-8252073D01*
X51207927Y-8385690D01*
X51360801Y-8496760D01*
X51425289Y-8529618D01*
X51529163Y-8582545D01*
X51529165Y-8582545D01*
X51529168Y-8582547D01*
X51625497Y-8613846D01*
X51708881Y-8640940D01*
X51895514Y-8670500D01*
X51895519Y-8670500D01*
X52084486Y-8670500D01*
X52271118Y-8640940D01*
X52450832Y-8582547D01*
X52619199Y-8496760D01*
X52772073Y-8385690D01*
X52905690Y-8252073D01*
X53016760Y-8099199D01*
X53102547Y-7930832D01*
X53142069Y-7809195D01*
X53181507Y-7751521D01*
X53245866Y-7724323D01*
X53314712Y-7736238D01*
X53366188Y-7783482D01*
X53377931Y-7809196D01*
X53417454Y-7930836D01*
X53499752Y-8092354D01*
X53503240Y-8099199D01*
X53614310Y-8252073D01*
X53747927Y-8385690D01*
X53900801Y-8496760D01*
X53965289Y-8529618D01*
X54069163Y-8582545D01*
X54069165Y-8582545D01*
X54069168Y-8582547D01*
X54165497Y-8613846D01*
X54248881Y-8640940D01*
X54435514Y-8670500D01*
X54435519Y-8670500D01*
X54624486Y-8670500D01*
X54811118Y-8640940D01*
X54990832Y-8582547D01*
X55159199Y-8496760D01*
X55312073Y-8385690D01*
X55445690Y-8252073D01*
X55556760Y-8099199D01*
X55642547Y-7930832D01*
X55682069Y-7809195D01*
X55721507Y-7751521D01*
X55785866Y-7724323D01*
X55854712Y-7736238D01*
X55906188Y-7783482D01*
X55917931Y-7809196D01*
X55957454Y-7930836D01*
X56039752Y-8092354D01*
X56043240Y-8099199D01*
X56154310Y-8252073D01*
X56287927Y-8385690D01*
X56440801Y-8496760D01*
X56505289Y-8529618D01*
X56609163Y-8582545D01*
X56609165Y-8582545D01*
X56609168Y-8582547D01*
X56705497Y-8613846D01*
X56788881Y-8640940D01*
X56975514Y-8670500D01*
X56975519Y-8670500D01*
X57164486Y-8670500D01*
X57351118Y-8640940D01*
X57530832Y-8582547D01*
X57699199Y-8496760D01*
X57852073Y-8385690D01*
X57934610Y-8303153D01*
X63715500Y-8303153D01*
X63715500Y-8460846D01*
X63746261Y-8615489D01*
X63746264Y-8615501D01*
X63806602Y-8761172D01*
X63806609Y-8761185D01*
X63894210Y-8892288D01*
X63894213Y-8892292D01*
X64005707Y-9003786D01*
X64005711Y-9003789D01*
X64136814Y-9091390D01*
X64136827Y-9091397D01*
X64282498Y-9151735D01*
X64282503Y-9151737D01*
X64347147Y-9164595D01*
X64437849Y-9182638D01*
X64454605Y-9191402D01*
X64473085Y-9195423D01*
X64498123Y-9214167D01*
X64499760Y-9215023D01*
X64501339Y-9216574D01*
X64641181Y-9356416D01*
X64674666Y-9417739D01*
X64677500Y-9444097D01*
X64677500Y-14406234D01*
X64657815Y-14473273D01*
X64656602Y-14475125D01*
X64568609Y-14606814D01*
X64568602Y-14606827D01*
X64508264Y-14752498D01*
X64508261Y-14752510D01*
X64477500Y-14907153D01*
X64477500Y-15064846D01*
X64508261Y-15219489D01*
X64508264Y-15219501D01*
X64568602Y-15365172D01*
X64568609Y-15365185D01*
X64656210Y-15496288D01*
X64656213Y-15496292D01*
X64767707Y-15607786D01*
X64767711Y-15607789D01*
X64898814Y-15695390D01*
X64898827Y-15695397D01*
X65044498Y-15755735D01*
X65044503Y-15755737D01*
X65199153Y-15786499D01*
X65199156Y-15786500D01*
X65199158Y-15786500D01*
X65356844Y-15786500D01*
X65356845Y-15786499D01*
X65511497Y-15755737D01*
X65657179Y-15695394D01*
X65788289Y-15607789D01*
X65899789Y-15496289D01*
X65946966Y-15425683D01*
X85745500Y-15425683D01*
X85745500Y-15574316D01*
X85774493Y-15720072D01*
X85774495Y-15720080D01*
X85831371Y-15857391D01*
X85913939Y-15980964D01*
X85913945Y-15980971D01*
X86019028Y-16086054D01*
X86019035Y-16086060D01*
X86142608Y-16168628D01*
X86142609Y-16168628D01*
X86142610Y-16168629D01*
X86279920Y-16225505D01*
X86425683Y-16254499D01*
X86425687Y-16254500D01*
X86425688Y-16254500D01*
X86574313Y-16254500D01*
X86574314Y-16254499D01*
X86720080Y-16225505D01*
X86857390Y-16168629D01*
X86980966Y-16086059D01*
X87086059Y-15980966D01*
X87168629Y-15857390D01*
X87225505Y-15720080D01*
X87242090Y-15636694D01*
X87274474Y-15574787D01*
X87275970Y-15573263D01*
X87833506Y-15015728D01*
X87833511Y-15015724D01*
X87843714Y-15005520D01*
X87843716Y-15005520D01*
X87955520Y-14893716D01*
X88024352Y-14774495D01*
X88034577Y-14756785D01*
X88075500Y-14604058D01*
X88075500Y-14445943D01*
X88075500Y-14260939D01*
X88095185Y-14193900D01*
X88096398Y-14192048D01*
X88143628Y-14121363D01*
X88143629Y-14121362D01*
X88200505Y-13984052D01*
X88229500Y-13838284D01*
X88229500Y-13689660D01*
X88200505Y-13543892D01*
X88143629Y-13406582D01*
X88061059Y-13283006D01*
X88061054Y-13283000D01*
X87955971Y-13177917D01*
X87955964Y-13177911D01*
X87832391Y-13095343D01*
X87695080Y-13038467D01*
X87695072Y-13038465D01*
X87549316Y-13009472D01*
X87549312Y-13009472D01*
X87400688Y-13009472D01*
X87400683Y-13009472D01*
X87254927Y-13038465D01*
X87254919Y-13038467D01*
X87117608Y-13095343D01*
X86994035Y-13177911D01*
X86994028Y-13177917D01*
X86888945Y-13283000D01*
X86888939Y-13283007D01*
X86806371Y-13406580D01*
X86749495Y-13543891D01*
X86749493Y-13543899D01*
X86720500Y-13689655D01*
X86720500Y-13838288D01*
X86749493Y-13984044D01*
X86749495Y-13984052D01*
X86806371Y-14121363D01*
X86839167Y-14170446D01*
X86860045Y-14237123D01*
X86841560Y-14304503D01*
X86823746Y-14327017D01*
X86426790Y-14723973D01*
X86365467Y-14757458D01*
X86363300Y-14757909D01*
X86279927Y-14774493D01*
X86279919Y-14774495D01*
X86142608Y-14831371D01*
X86019035Y-14913939D01*
X86019028Y-14913945D01*
X85913945Y-15019028D01*
X85913939Y-15019035D01*
X85831371Y-15142608D01*
X85774495Y-15279919D01*
X85774493Y-15279927D01*
X85745500Y-15425683D01*
X65946966Y-15425683D01*
X65987394Y-15365179D01*
X66047737Y-15219497D01*
X66078500Y-15064842D01*
X66078500Y-14907158D01*
X66078500Y-14907155D01*
X66078499Y-14907153D01*
X66063425Y-14831371D01*
X66047737Y-14752503D01*
X66035920Y-14723973D01*
X65987397Y-14606827D01*
X65987390Y-14606814D01*
X65899398Y-14475125D01*
X65878520Y-14408447D01*
X65878500Y-14406234D01*
X65878500Y-9827153D01*
X84035500Y-9827153D01*
X84035500Y-9984846D01*
X84066261Y-10139489D01*
X84066264Y-10139501D01*
X84126602Y-10285172D01*
X84126609Y-10285185D01*
X84214210Y-10416288D01*
X84214213Y-10416292D01*
X84325707Y-10527786D01*
X84325711Y-10527789D01*
X84456814Y-10615390D01*
X84456827Y-10615397D01*
X84602498Y-10675735D01*
X84602503Y-10675737D01*
X84757153Y-10706499D01*
X84757156Y-10706500D01*
X84757158Y-10706500D01*
X84914844Y-10706500D01*
X84914845Y-10706499D01*
X85069497Y-10675737D01*
X85215179Y-10615394D01*
X85215185Y-10615390D01*
X85346875Y-10527398D01*
X85364921Y-10521747D01*
X85380831Y-10511523D01*
X85411792Y-10507071D01*
X85413553Y-10506520D01*
X85415766Y-10506500D01*
X85570234Y-10506500D01*
X85637273Y-10526185D01*
X85639125Y-10527398D01*
X85770814Y-10615390D01*
X85770827Y-10615397D01*
X85916498Y-10675735D01*
X85916503Y-10675737D01*
X86071153Y-10706499D01*
X86071156Y-10706500D01*
X86071158Y-10706500D01*
X86228844Y-10706500D01*
X86228845Y-10706499D01*
X86383497Y-10675737D01*
X86529179Y-10615394D01*
X86660289Y-10527789D01*
X86771789Y-10416289D01*
X86859394Y-10285179D01*
X86919737Y-10139497D01*
X86950500Y-9984842D01*
X86950500Y-9827158D01*
X86950500Y-9827155D01*
X86950499Y-9827153D01*
X86919738Y-9672510D01*
X86919737Y-9672503D01*
X86879766Y-9576003D01*
X86859397Y-9526827D01*
X86859390Y-9526814D01*
X86771789Y-9395711D01*
X86771786Y-9395707D01*
X86660292Y-9284213D01*
X86660288Y-9284210D01*
X86529185Y-9196609D01*
X86529172Y-9196602D01*
X86383501Y-9136264D01*
X86383489Y-9136261D01*
X86228845Y-9105500D01*
X86228842Y-9105500D01*
X86071158Y-9105500D01*
X86071155Y-9105500D01*
X85916510Y-9136261D01*
X85916498Y-9136264D01*
X85770827Y-9196602D01*
X85770814Y-9196609D01*
X85639125Y-9284602D01*
X85621078Y-9290252D01*
X85605169Y-9300477D01*
X85574207Y-9304928D01*
X85572447Y-9305480D01*
X85570234Y-9305500D01*
X85415766Y-9305500D01*
X85348727Y-9285815D01*
X85346875Y-9284602D01*
X85215185Y-9196609D01*
X85215172Y-9196602D01*
X85069501Y-9136264D01*
X85069489Y-9136261D01*
X84914845Y-9105500D01*
X84914842Y-9105500D01*
X84757158Y-9105500D01*
X84757155Y-9105500D01*
X84602510Y-9136261D01*
X84602498Y-9136264D01*
X84456827Y-9196602D01*
X84456814Y-9196609D01*
X84325711Y-9284210D01*
X84325707Y-9284213D01*
X84214213Y-9395707D01*
X84214210Y-9395711D01*
X84126609Y-9526814D01*
X84126602Y-9526827D01*
X84066264Y-9672498D01*
X84066261Y-9672510D01*
X84035500Y-9827153D01*
X65878500Y-9827153D01*
X65878500Y-9233060D01*
X65878501Y-9233047D01*
X65878501Y-9064944D01*
X65878501Y-9064943D01*
X65837577Y-8912216D01*
X65821926Y-8885107D01*
X65758524Y-8775290D01*
X65758518Y-8775282D01*
X65350573Y-8367337D01*
X65317088Y-8306014D01*
X65316637Y-8303847D01*
X65285738Y-8148510D01*
X65285737Y-8148503D01*
X65281829Y-8139068D01*
X65225397Y-8002827D01*
X65225390Y-8002814D01*
X65137789Y-7871711D01*
X65137786Y-7871707D01*
X65026292Y-7760213D01*
X65026288Y-7760210D01*
X64895185Y-7672609D01*
X64895172Y-7672602D01*
X64749501Y-7612264D01*
X64749489Y-7612261D01*
X64594845Y-7581500D01*
X64594842Y-7581500D01*
X64437158Y-7581500D01*
X64437155Y-7581500D01*
X64282510Y-7612261D01*
X64282498Y-7612264D01*
X64136827Y-7672602D01*
X64136814Y-7672609D01*
X64005711Y-7760210D01*
X64005707Y-7760213D01*
X63894213Y-7871707D01*
X63894210Y-7871711D01*
X63806609Y-8002814D01*
X63806602Y-8002827D01*
X63746264Y-8148498D01*
X63746261Y-8148510D01*
X63715500Y-8303153D01*
X57934610Y-8303153D01*
X57985690Y-8252073D01*
X58096760Y-8099199D01*
X58182547Y-7930832D01*
X58240940Y-7751118D01*
X58252040Y-7681036D01*
X58270500Y-7564486D01*
X58270500Y-7375513D01*
X58240940Y-7188881D01*
X58192152Y-7038729D01*
X58182547Y-7009168D01*
X58182545Y-7009165D01*
X58182545Y-7009163D01*
X58117263Y-6881041D01*
X58096760Y-6840801D01*
X57985690Y-6687927D01*
X57892659Y-6594896D01*
X57859174Y-6533573D01*
X57864158Y-6463881D01*
X57865762Y-6459804D01*
X57919737Y-6329497D01*
X57950500Y-6174842D01*
X57950500Y-6017158D01*
X57950500Y-6017155D01*
X57950499Y-6017153D01*
X57936497Y-5946760D01*
X57919737Y-5862503D01*
X57896947Y-5807482D01*
X57859397Y-5716827D01*
X57859390Y-5716814D01*
X57771789Y-5585711D01*
X57771786Y-5585707D01*
X57660292Y-5474213D01*
X57660288Y-5474210D01*
X57529185Y-5386609D01*
X57529172Y-5386602D01*
X57383501Y-5326264D01*
X57383489Y-5326261D01*
X57228845Y-5295500D01*
X57228842Y-5295500D01*
X57100670Y-5295500D01*
X57033631Y-5275815D01*
X56987876Y-5223011D01*
X56977932Y-5153853D01*
X56978197Y-5152102D01*
X57000000Y-5014447D01*
X57000000Y-4825552D01*
X56970451Y-4638997D01*
X56912085Y-4459362D01*
X56826329Y-4291059D01*
X56807883Y-4265670D01*
X56807882Y-4265669D01*
X56242137Y-4831413D01*
X56219333Y-4746306D01*
X56160090Y-4643694D01*
X56076306Y-4559910D01*
X55973694Y-4500667D01*
X55888584Y-4477861D01*
X56454328Y-3912116D01*
X56428933Y-3893666D01*
X56260637Y-3807914D01*
X56081002Y-3749548D01*
X55894447Y-3720000D01*
X55705553Y-3720000D01*
X55518997Y-3749548D01*
X55339362Y-3807914D01*
X55171060Y-3893669D01*
X55145670Y-3912116D01*
X55145669Y-3912116D01*
X55711415Y-4477861D01*
X55626306Y-4500667D01*
X55523694Y-4559910D01*
X55439910Y-4643694D01*
X55380667Y-4746306D01*
X55357861Y-4831414D01*
X54792116Y-4265669D01*
X54792116Y-4265670D01*
X54773669Y-4291060D01*
X54687915Y-4459361D01*
X54648193Y-4581612D01*
X54608755Y-4639287D01*
X54544396Y-4666485D01*
X54475550Y-4654570D01*
X54424074Y-4607326D01*
X54412332Y-4581614D01*
X54372547Y-4459168D01*
X54286760Y-4290801D01*
X54175690Y-4137927D01*
X54042073Y-4004310D01*
X53889199Y-3893240D01*
X53843068Y-3869735D01*
X53720836Y-3807454D01*
X53541118Y-3749059D01*
X53354486Y-3719500D01*
X53354481Y-3719500D01*
X53165519Y-3719500D01*
X53165514Y-3719500D01*
X52978881Y-3749059D01*
X52799163Y-3807454D01*
X52630800Y-3893240D01*
X52573910Y-3934574D01*
X52477927Y-4004310D01*
X52477925Y-4004312D01*
X52477924Y-4004312D01*
X52344312Y-4137924D01*
X52344312Y-4137925D01*
X52344310Y-4137927D01*
X52314677Y-4178713D01*
X52233240Y-4290800D01*
X52147454Y-4459163D01*
X52107931Y-4580803D01*
X52068493Y-4638478D01*
X52004134Y-4665676D01*
X51935288Y-4653761D01*
X51883812Y-4606516D01*
X51872069Y-4580803D01*
X51846031Y-4500667D01*
X51832547Y-4459168D01*
X51832545Y-4459165D01*
X51832545Y-4459163D01*
X51761382Y-4319499D01*
X51746760Y-4290801D01*
X51635690Y-4137927D01*
X51502073Y-4004310D01*
X51349199Y-3893240D01*
X51303068Y-3869735D01*
X51180836Y-3807454D01*
X51001118Y-3749059D01*
X50814486Y-3719500D01*
X50814481Y-3719500D01*
X50625519Y-3719500D01*
X50625514Y-3719500D01*
X50438881Y-3749059D01*
X50259163Y-3807454D01*
X50090800Y-3893240D01*
X50033910Y-3934574D01*
X49937927Y-4004310D01*
X49937925Y-4004312D01*
X49937924Y-4004312D01*
X49804312Y-4137924D01*
X49804312Y-4137925D01*
X49804310Y-4137927D01*
X49774677Y-4178713D01*
X49693240Y-4290800D01*
X49607454Y-4459163D01*
X49567931Y-4580803D01*
X49528493Y-4638478D01*
X49464134Y-4665676D01*
X49395288Y-4653761D01*
X49343812Y-4606516D01*
X49332069Y-4580803D01*
X49306031Y-4500667D01*
X49292547Y-4459168D01*
X49292545Y-4459165D01*
X49292545Y-4459163D01*
X49221382Y-4319499D01*
X49206760Y-4290801D01*
X49095690Y-4137927D01*
X48962073Y-4004310D01*
X48809199Y-3893240D01*
X48763068Y-3869735D01*
X48640836Y-3807454D01*
X48461118Y-3749059D01*
X48274486Y-3719500D01*
X48274481Y-3719500D01*
X48085519Y-3719500D01*
X48085514Y-3719500D01*
X47898881Y-3749059D01*
X47719163Y-3807454D01*
X47550800Y-3893240D01*
X47493910Y-3934574D01*
X47397927Y-4004310D01*
X47397925Y-4004312D01*
X47397924Y-4004312D01*
X47264312Y-4137924D01*
X47264312Y-4137925D01*
X47264310Y-4137927D01*
X47234677Y-4178713D01*
X47153240Y-4290800D01*
X47067454Y-4459163D01*
X47009059Y-4638881D01*
X46979500Y-4825513D01*
X34640499Y-4825513D01*
X34640499Y-4534499D01*
X34660184Y-4467461D01*
X34712988Y-4421706D01*
X34764499Y-4410500D01*
X38949344Y-4410500D01*
X38949360Y-4410501D01*
X38956956Y-4410501D01*
X39115067Y-4410501D01*
X39115070Y-4410501D01*
X39267798Y-4369577D01*
X39354535Y-4319499D01*
X39404729Y-4290520D01*
X39516533Y-4178716D01*
X39516533Y-4178714D01*
X39526737Y-4168511D01*
X39526740Y-4168506D01*
X39760674Y-3934572D01*
X39821996Y-3901089D01*
X39824163Y-3900638D01*
X39882098Y-3889113D01*
X39979510Y-3869737D01*
X40125192Y-3809394D01*
X40256302Y-3721789D01*
X40367802Y-3610289D01*
X40455407Y-3479179D01*
X40515750Y-3333497D01*
X40531938Y-3252116D01*
X40542244Y-3200308D01*
X40556958Y-3172177D01*
X40570148Y-3143297D01*
X40573037Y-3141440D01*
X40574629Y-3138397D01*
X40602221Y-3122684D01*
X40628926Y-3105523D01*
X40633519Y-3104862D01*
X40635345Y-3103823D01*
X40663861Y-3100500D01*
X40913331Y-3100500D01*
X40913347Y-3100501D01*
X40920943Y-3100501D01*
X41079054Y-3100501D01*
X41079057Y-3100501D01*
X41231785Y-3059577D01*
X41299468Y-3020500D01*
X41368716Y-2980520D01*
X41480520Y-2868716D01*
X41480520Y-2868714D01*
X41490724Y-2858511D01*
X41490728Y-2858506D01*
X42014506Y-2334728D01*
X42014511Y-2334724D01*
X42024714Y-2324520D01*
X42024716Y-2324520D01*
X42136520Y-2212716D01*
X42141690Y-2203761D01*
X42213687Y-2079059D01*
X42213689Y-2079053D01*
X42215577Y-2075785D01*
X42256500Y-1923057D01*
X42256500Y-1764943D01*
X42256500Y-808097D01*
X42276185Y-741058D01*
X42292819Y-720416D01*
X42537415Y-475820D01*
X42598738Y-442335D01*
X42625096Y-439501D01*
X42727997Y-439501D01*
X42728000Y-439501D01*
X42880728Y-398577D01*
X42930847Y-369639D01*
X43017659Y-319520D01*
X43129463Y-207716D01*
X43133783Y-203396D01*
X43133792Y-203385D01*
X43212541Y-124636D01*
X43273862Y-91153D01*
X43343554Y-96137D01*
X43399487Y-138009D01*
X43423904Y-203473D01*
X43409052Y-271746D01*
X43398597Y-287804D01*
X43333057Y-373218D01*
X43333052Y-373226D01*
X43221595Y-566273D01*
X43221593Y-566277D01*
X43136293Y-772209D01*
X43136290Y-772219D01*
X43078597Y-987534D01*
X43078594Y-987547D01*
X43049501Y-1208533D01*
X43049500Y-1208549D01*
X43049500Y-1431450D01*
X43049501Y-1431466D01*
X43078594Y-1652452D01*
X43078595Y-1652457D01*
X43078596Y-1652463D01*
X43131115Y-1848466D01*
X43136290Y-1867780D01*
X43136293Y-1867790D01*
X43208592Y-2042335D01*
X43221595Y-2073726D01*
X43333052Y-2266774D01*
X43333057Y-2266780D01*
X43333058Y-2266782D01*
X43468751Y-2443622D01*
X43468757Y-2443629D01*
X43626370Y-2601242D01*
X43626376Y-2601247D01*
X43803226Y-2736948D01*
X43996274Y-2848405D01*
X44202219Y-2933710D01*
X44417537Y-2991404D01*
X44638543Y-3020500D01*
X44638550Y-3020500D01*
X44861450Y-3020500D01*
X44861457Y-3020500D01*
X45082463Y-2991404D01*
X45297781Y-2933710D01*
X45503726Y-2848405D01*
X45696774Y-2736948D01*
X45873624Y-2601247D01*
X46031247Y-2443624D01*
X46166948Y-2266774D01*
X46278405Y-2073726D01*
X46363710Y-1867781D01*
X46421404Y-1652463D01*
X46450500Y-1431457D01*
X46450500Y-1208549D01*
X58799500Y-1208549D01*
X58799500Y-1431450D01*
X58799501Y-1431466D01*
X58828594Y-1652452D01*
X58828595Y-1652457D01*
X58828596Y-1652463D01*
X58881115Y-1848466D01*
X58886290Y-1867780D01*
X58886293Y-1867790D01*
X58958592Y-2042335D01*
X58971595Y-2073726D01*
X59083052Y-2266774D01*
X59083057Y-2266780D01*
X59083058Y-2266782D01*
X59218751Y-2443622D01*
X59218757Y-2443629D01*
X59376370Y-2601242D01*
X59376376Y-2601247D01*
X59553226Y-2736948D01*
X59746274Y-2848405D01*
X59952219Y-2933710D01*
X60167537Y-2991404D01*
X60388543Y-3020500D01*
X60388550Y-3020500D01*
X60611450Y-3020500D01*
X60611457Y-3020500D01*
X60832463Y-2991404D01*
X61047781Y-2933710D01*
X61253726Y-2848405D01*
X61446774Y-2736948D01*
X61623624Y-2601247D01*
X61781247Y-2443624D01*
X61916948Y-2266774D01*
X62028405Y-2073726D01*
X62113710Y-1867781D01*
X62171404Y-1652463D01*
X62200500Y-1431457D01*
X62200500Y-1208543D01*
X62171404Y-987537D01*
X62113710Y-772219D01*
X62028405Y-566274D01*
X61916948Y-373226D01*
X61856839Y-294890D01*
X61781248Y-196377D01*
X61781242Y-196370D01*
X61623629Y-38757D01*
X61623622Y-38751D01*
X61547733Y19480D01*
X61446774Y96948D01*
X61253726Y208405D01*
X61047781Y293710D01*
X60832463Y351404D01*
X60611457Y380500D01*
X60388543Y380500D01*
X60167537Y351404D01*
X59952219Y293710D01*
X59746274Y208405D01*
X59553226Y96948D01*
X59553217Y96941D01*
X59376377Y-38751D01*
X59376370Y-38757D01*
X59218757Y-196370D01*
X59218751Y-196377D01*
X59083058Y-373217D01*
X59083052Y-373226D01*
X58971595Y-566273D01*
X58971593Y-566277D01*
X58886293Y-772209D01*
X58886290Y-772219D01*
X58828597Y-987534D01*
X58828594Y-987547D01*
X58799501Y-1208533D01*
X58799500Y-1208549D01*
X46450500Y-1208549D01*
X46450500Y-1208543D01*
X46421404Y-987537D01*
X46363710Y-772219D01*
X46278405Y-566274D01*
X46166948Y-373226D01*
X46106839Y-294890D01*
X46031248Y-196377D01*
X46031242Y-196370D01*
X45873629Y-38757D01*
X45873622Y-38751D01*
X45797733Y19480D01*
X45696774Y96948D01*
X45503726Y208405D01*
X45297781Y293710D01*
X45082463Y351404D01*
X44861457Y380500D01*
X44638543Y380500D01*
X44417537Y351404D01*
X44202219Y293710D01*
X43996274Y208405D01*
X43803226Y96948D01*
X43803217Y96941D01*
X43671082Y-4449D01*
X43605913Y-29643D01*
X43537468Y-15605D01*
X43487479Y33209D01*
X43471815Y101301D01*
X43488209Y155927D01*
X43560575Y281268D01*
X43560575Y281269D01*
X43560577Y281272D01*
X43601501Y434000D01*
X43601501Y592115D01*
X43601501Y602104D01*
X43601500Y602117D01*
X43601500Y1004528D01*
X43621185Y1071567D01*
X43622397Y1073418D01*
X43635880Y1093597D01*
X43668629Y1142610D01*
X43725505Y1279920D01*
X43754500Y1425688D01*
X43754500Y1574312D01*
X43725505Y1720080D01*
X43668629Y1857390D01*
X43586059Y1980966D01*
X43586054Y1980971D01*
X43562329Y2004697D01*
X43554637Y2018782D01*
X43542961Y2029796D01*
X43538236Y2048818D01*
X43528844Y2066020D01*
X43529988Y2082028D01*
X43526120Y2097606D01*
X43530827Y2111450D01*
X45424500Y2111450D01*
X45424500Y1888549D01*
X45424501Y1888533D01*
X45453594Y1667547D01*
X45453595Y1667540D01*
X45453596Y1667537D01*
X45482460Y1559815D01*
X45511290Y1452219D01*
X45511293Y1452209D01*
X45596593Y1246277D01*
X45596595Y1246273D01*
X45708052Y1053226D01*
X45708058Y1053217D01*
X45843751Y876377D01*
X45843757Y876370D01*
X46001370Y718757D01*
X46001377Y718751D01*
X46178217Y583058D01*
X46178226Y583052D01*
X46371273Y471595D01*
X46371277Y471593D01*
X46577209Y386293D01*
X46577219Y386290D01*
X46792537Y328596D01*
X46792540Y328595D01*
X46792547Y328594D01*
X47013533Y299501D01*
X47013537Y299500D01*
X47013543Y299500D01*
X47013550Y299500D01*
X47236450Y299500D01*
X47236457Y299500D01*
X47236463Y299500D01*
X47236466Y299501D01*
X47457452Y328594D01*
X47457457Y328595D01*
X47457463Y328596D01*
X47672781Y386290D01*
X47672783Y386291D01*
X47672790Y386293D01*
X47878722Y471593D01*
X47878726Y471595D01*
X48003209Y543466D01*
X48071774Y583052D01*
X48149392Y642610D01*
X48248622Y718751D01*
X48248629Y718757D01*
X48406242Y876370D01*
X48406248Y876377D01*
X48537702Y1047693D01*
X48541948Y1053226D01*
X48653405Y1246274D01*
X48716873Y1399500D01*
X48738706Y1452209D01*
X48738706Y1452210D01*
X48738710Y1452219D01*
X48796404Y1667537D01*
X48825500Y1888543D01*
X48825500Y2111450D01*
X56424500Y2111450D01*
X56424500Y1888549D01*
X56424501Y1888533D01*
X56453594Y1667547D01*
X56453595Y1667540D01*
X56453596Y1667537D01*
X56482460Y1559815D01*
X56511290Y1452219D01*
X56511293Y1452209D01*
X56596593Y1246277D01*
X56596595Y1246273D01*
X56708052Y1053226D01*
X56708058Y1053217D01*
X56843751Y876377D01*
X56843757Y876370D01*
X57001370Y718757D01*
X57001377Y718751D01*
X57178217Y583058D01*
X57178226Y583052D01*
X57371273Y471595D01*
X57371277Y471593D01*
X57577209Y386293D01*
X57577219Y386290D01*
X57792537Y328596D01*
X57792540Y328595D01*
X57792547Y328594D01*
X58013533Y299501D01*
X58013537Y299500D01*
X58013543Y299500D01*
X58013550Y299500D01*
X58236450Y299500D01*
X58236457Y299500D01*
X58236463Y299500D01*
X58236466Y299501D01*
X58457452Y328594D01*
X58457457Y328595D01*
X58457463Y328596D01*
X58672781Y386290D01*
X58672783Y386291D01*
X58672790Y386293D01*
X58878722Y471593D01*
X58878726Y471595D01*
X59003209Y543466D01*
X59056643Y574316D01*
X68245500Y574316D01*
X68245500Y425683D01*
X68274493Y279927D01*
X68274495Y279919D01*
X68331371Y142608D01*
X68413939Y19035D01*
X68413945Y19028D01*
X68519028Y-86054D01*
X68519035Y-86060D01*
X68642608Y-168628D01*
X68642609Y-168628D01*
X68642610Y-168629D01*
X68779920Y-225505D01*
X68925683Y-254499D01*
X68925687Y-254500D01*
X68925688Y-254500D01*
X69074313Y-254500D01*
X69074314Y-254499D01*
X69220080Y-225505D01*
X69357390Y-168629D01*
X69480966Y-86059D01*
X69528274Y-38751D01*
X69586054Y19028D01*
X69586060Y19035D01*
X69668628Y142608D01*
X69695882Y208405D01*
X69725505Y279920D01*
X69729437Y299691D01*
X69744153Y327824D01*
X69757342Y356703D01*
X69760230Y358559D01*
X69761822Y361602D01*
X69789409Y377311D01*
X69816120Y394477D01*
X69820714Y395137D01*
X69822538Y396176D01*
X69851055Y399500D01*
X70003033Y399500D01*
X70070072Y379815D01*
X70071888Y378625D01*
X70094535Y363492D01*
X70142610Y331370D01*
X70279919Y274495D01*
X70279927Y274493D01*
X70425683Y245500D01*
X70425688Y245500D01*
X70574316Y245500D01*
X70720072Y274493D01*
X70720080Y274495D01*
X70769921Y295140D01*
X70839391Y302609D01*
X70901870Y271334D01*
X70937522Y211245D01*
X70938992Y156390D01*
X70935098Y136811D01*
X70935098Y-11816D01*
X70964091Y-157572D01*
X70964093Y-157580D01*
X71020969Y-294891D01*
X71103537Y-418464D01*
X71103543Y-418471D01*
X71208626Y-523554D01*
X71208633Y-523560D01*
X71332206Y-606128D01*
X71332207Y-606128D01*
X71332208Y-606129D01*
X71469518Y-663005D01*
X71615281Y-691999D01*
X71615285Y-692000D01*
X71615286Y-692000D01*
X71763911Y-692000D01*
X71763912Y-691999D01*
X71909678Y-663005D01*
X72046988Y-606129D01*
X72170564Y-523559D01*
X72275657Y-418466D01*
X72358227Y-294890D01*
X72407039Y-177047D01*
X72450880Y-122644D01*
X72517174Y-100579D01*
X72521600Y-100500D01*
X80413331Y-100500D01*
X80413347Y-100501D01*
X80420943Y-100501D01*
X80579054Y-100501D01*
X80579057Y-100501D01*
X80731785Y-59577D01*
X80801200Y-19500D01*
X80868716Y19480D01*
X80980520Y131284D01*
X80987588Y138352D01*
X80987590Y138355D01*
X83350423Y2501187D01*
X83411746Y2534672D01*
X83413913Y2535123D01*
X83497286Y2551707D01*
X83497294Y2551709D01*
X83634605Y2608585D01*
X83758178Y2691153D01*
X83758185Y2691159D01*
X83863268Y2796242D01*
X83863274Y2796249D01*
X83945842Y2919822D01*
X83948903Y2927211D01*
X84002719Y3057134D01*
X84031714Y3202902D01*
X84031714Y3351526D01*
X84002719Y3497294D01*
X83945843Y3634604D01*
X83863273Y3758180D01*
X83758180Y3863273D01*
X83721995Y3887450D01*
X83655610Y3931808D01*
X83610804Y3985420D01*
X83600500Y4034910D01*
X83600500Y7783119D01*
X94123500Y7783119D01*
X94123500Y7456880D01*
X94160022Y7132725D01*
X94160025Y7132711D01*
X94232617Y6814664D01*
X94232618Y6814662D01*
X94340363Y6506743D01*
X94481910Y6212820D01*
X94655470Y5936602D01*
X94858869Y5681546D01*
X95089546Y5450869D01*
X95344602Y5247470D01*
X95620820Y5073910D01*
X95914743Y4932363D01*
X96222662Y4824618D01*
X96222664Y4824617D01*
X96540711Y4752025D01*
X96540725Y4752022D01*
X96864880Y4715500D01*
X96864887Y4715500D01*
X97191119Y4715500D01*
X97515274Y4752022D01*
X97515286Y4752024D01*
X97515289Y4752025D01*
X97604719Y4772437D01*
X97833335Y4824617D01*
X97833337Y4824618D01*
X98141256Y4932363D01*
X98331696Y5024075D01*
X98435175Y5073908D01*
X98435179Y5073910D01*
X98619324Y5189616D01*
X98711399Y5247471D01*
X98966454Y5450870D01*
X99197130Y5681546D01*
X99400529Y5936601D01*
X99574092Y6212825D01*
X99715637Y6506744D01*
X99823382Y6814664D01*
X99895975Y7132711D01*
X99899653Y7165349D01*
X99932499Y7456880D01*
X99932500Y7456884D01*
X99932500Y7783115D01*
X99932499Y7783119D01*
X99927846Y7824413D01*
X99909526Y7987021D01*
X99895977Y8107274D01*
X99895976Y8107277D01*
X99895975Y8107289D01*
X99823382Y8425336D01*
X99715637Y8733256D01*
X99574092Y9027175D01*
X99400529Y9303399D01*
X99197130Y9558454D01*
X98966454Y9789130D01*
X98711399Y9992529D01*
X98435175Y10166092D01*
X98141256Y10307637D01*
X97833336Y10415382D01*
X97515289Y10487975D01*
X97515277Y10487976D01*
X97515274Y10487977D01*
X97356784Y10505833D01*
X97191116Y10524499D01*
X97191115Y10524500D01*
X97191113Y10524500D01*
X96864887Y10524500D01*
X96864885Y10524500D01*
X96864882Y10524499D01*
X96756828Y10512325D01*
X96540725Y10487977D01*
X96540720Y10487976D01*
X96540711Y10487975D01*
X96222664Y10415382D01*
X95914744Y10307637D01*
X95620825Y10166092D01*
X95344601Y9992529D01*
X95105984Y9802239D01*
X95089546Y9789130D01*
X94858869Y9558453D01*
X94827789Y9519480D01*
X94655471Y9303399D01*
X94655470Y9303397D01*
X94481910Y9027179D01*
X94481908Y9027175D01*
X94418292Y8895076D01*
X94340363Y8733256D01*
X94232618Y8425337D01*
X94232617Y8425335D01*
X94194527Y8258451D01*
X94164627Y8127449D01*
X94160025Y8107288D01*
X94160022Y8107274D01*
X94123500Y7783119D01*
X83600500Y7783119D01*
X83600500Y8691531D01*
X83620185Y8758570D01*
X83621397Y8760421D01*
X83627931Y8770200D01*
X83668629Y8831110D01*
X83725505Y8968420D01*
X83754500Y9114188D01*
X83754500Y9262812D01*
X83725505Y9408580D01*
X83668629Y9545890D01*
X83586059Y9669466D01*
X83480966Y9774559D01*
X83357390Y9857129D01*
X83220080Y9914005D01*
X83074314Y9942999D01*
X83074313Y9943000D01*
X83074312Y9943000D01*
X82925688Y9943000D01*
X82925687Y9943000D01*
X82925683Y9942999D01*
X82779920Y9914005D01*
X82642610Y9857129D01*
X82642608Y9857128D01*
X82519035Y9774560D01*
X82519028Y9774554D01*
X82413945Y9669471D01*
X82413939Y9669464D01*
X82331371Y9545891D01*
X82274495Y9408580D01*
X82274493Y9408572D01*
X82245500Y9262816D01*
X82245500Y9114183D01*
X82274493Y8968427D01*
X82274495Y8968419D01*
X82331370Y8831111D01*
X82378603Y8760421D01*
X82399480Y8693743D01*
X82399500Y8691531D01*
X82399500Y3643487D01*
X82399499Y3643474D01*
X82399499Y3475371D01*
X82428864Y3365779D01*
X82427201Y3295929D01*
X82396770Y3246005D01*
X80287584Y1136819D01*
X80226261Y1103334D01*
X80199903Y1100500D01*
X72206155Y1100500D01*
X72048040Y1100500D01*
X72030530Y1095808D01*
X72024121Y1094091D01*
X72024122Y1094091D01*
X71895314Y1059577D01*
X71895312Y1059576D01*
X71895307Y1059573D01*
X71758388Y980524D01*
X71758384Y980521D01*
X71758382Y980520D01*
X71683975Y906113D01*
X71642247Y864385D01*
X71642237Y864374D01*
X71616389Y838526D01*
X71555066Y805041D01*
X71552978Y804605D01*
X71469518Y788005D01*
X71419673Y767358D01*
X71350207Y759890D01*
X71287728Y791164D01*
X71252075Y851253D01*
X71250606Y906113D01*
X71254500Y925687D01*
X71254500Y1074313D01*
X71254499Y1074316D01*
X71250664Y1093598D01*
X71225505Y1220080D01*
X71168629Y1357390D01*
X71086059Y1480966D01*
X70980966Y1586059D01*
X70857390Y1668629D01*
X70720080Y1725505D01*
X70574314Y1754499D01*
X70574313Y1754500D01*
X70574312Y1754500D01*
X70425688Y1754500D01*
X70425687Y1754500D01*
X70425683Y1754499D01*
X70279920Y1725505D01*
X70142610Y1668629D01*
X70071922Y1621397D01*
X70005246Y1600520D01*
X70003033Y1600500D01*
X69586670Y1600500D01*
X69586654Y1600501D01*
X69579058Y1600501D01*
X69420943Y1600501D01*
X69268216Y1559577D01*
X69268214Y1559576D01*
X69268209Y1559573D01*
X69131290Y1480524D01*
X69131286Y1480521D01*
X69131284Y1480520D01*
X69131282Y1480518D01*
X68926791Y1276026D01*
X68865468Y1242541D01*
X68863380Y1242105D01*
X68779920Y1225505D01*
X68648974Y1171265D01*
X68642608Y1168628D01*
X68519035Y1086060D01*
X68519028Y1086054D01*
X68413945Y980971D01*
X68413939Y980964D01*
X68331371Y857391D01*
X68274495Y720080D01*
X68274493Y720072D01*
X68245500Y574316D01*
X59056643Y574316D01*
X59071774Y583052D01*
X59196530Y678780D01*
X59248622Y718751D01*
X59248629Y718757D01*
X59406242Y876370D01*
X59406248Y876377D01*
X59537702Y1047693D01*
X59541948Y1053226D01*
X59653405Y1246274D01*
X59716873Y1399500D01*
X59738706Y1452209D01*
X59738706Y1452210D01*
X59738710Y1452219D01*
X59796404Y1667537D01*
X59825500Y1888543D01*
X59825500Y2111457D01*
X59796404Y2332463D01*
X59738710Y2547781D01*
X59653405Y2753726D01*
X59541948Y2946774D01*
X59406247Y3123624D01*
X59248624Y3281247D01*
X59071774Y3416948D01*
X58878726Y3528405D01*
X58672781Y3613710D01*
X58457463Y3671404D01*
X58236457Y3700500D01*
X58013543Y3700500D01*
X57792537Y3671404D01*
X57577219Y3613710D01*
X57371274Y3528405D01*
X57178226Y3416948D01*
X57178217Y3416941D01*
X57001377Y3281248D01*
X57001370Y3281242D01*
X56843757Y3123629D01*
X56843751Y3123622D01*
X56718626Y2960554D01*
X56708052Y2946774D01*
X56611339Y2779263D01*
X56596595Y2753726D01*
X56596593Y2753722D01*
X56511293Y2547790D01*
X56511291Y2547783D01*
X56511290Y2547781D01*
X56453596Y2332463D01*
X56453595Y2332457D01*
X56453594Y2332452D01*
X56424501Y2111466D01*
X56424500Y2111450D01*
X48825500Y2111450D01*
X48825500Y2111457D01*
X48796404Y2332463D01*
X48738710Y2547781D01*
X48653405Y2753726D01*
X48541948Y2946774D01*
X48406247Y3123624D01*
X48248624Y3281247D01*
X48071774Y3416948D01*
X47878726Y3528405D01*
X47672781Y3613710D01*
X47457463Y3671404D01*
X47236457Y3700500D01*
X47013543Y3700500D01*
X46792537Y3671404D01*
X46577219Y3613710D01*
X46371274Y3528405D01*
X46178226Y3416948D01*
X46178217Y3416941D01*
X46001377Y3281248D01*
X46001370Y3281242D01*
X45843757Y3123629D01*
X45843751Y3123622D01*
X45718626Y2960554D01*
X45708052Y2946774D01*
X45611339Y2779263D01*
X45596595Y2753726D01*
X45596593Y2753722D01*
X45511293Y2547790D01*
X45511291Y2547783D01*
X45511290Y2547781D01*
X45453596Y2332463D01*
X45453595Y2332457D01*
X45453594Y2332452D01*
X45424501Y2111466D01*
X45424500Y2111450D01*
X43530827Y2111450D01*
X43532429Y2116163D01*
X43533828Y2135712D01*
X43543445Y2148559D01*
X43548613Y2163756D01*
X43563955Y2175957D01*
X43575700Y2191645D01*
X43591356Y2197746D01*
X43603299Y2207244D01*
X43628237Y2212120D01*
X43637553Y2215751D01*
X43643763Y2216378D01*
X43750629Y2216378D01*
X43860791Y2238290D01*
X43860803Y2238292D01*
X43905278Y2247139D01*
X43905288Y2247142D01*
X44050959Y2307480D01*
X44050972Y2307487D01*
X44182075Y2395088D01*
X44182079Y2395091D01*
X44293573Y2506585D01*
X44293576Y2506589D01*
X44381177Y2637692D01*
X44381181Y2637699D01*
X44381183Y2637705D01*
X44403210Y2690884D01*
X44447049Y2745286D01*
X44513343Y2767352D01*
X44541962Y2765048D01*
X44625153Y2748500D01*
X44625158Y2748500D01*
X44782846Y2748500D01*
X44937489Y2779261D01*
X44937501Y2779264D01*
X45083172Y2839602D01*
X45083185Y2839609D01*
X45214288Y2927210D01*
X45214292Y2927213D01*
X45325786Y3038707D01*
X45325789Y3038711D01*
X45413390Y3169814D01*
X45413397Y3169827D01*
X45473735Y3315498D01*
X45473737Y3315503D01*
X45504499Y3470153D01*
X45504500Y3470155D01*
X45504500Y3627844D01*
X45504499Y3627846D01*
X45473737Y3782497D01*
X45413394Y3928179D01*
X45325789Y4059289D01*
X45214289Y4170789D01*
X45083179Y4258394D01*
X44937497Y4318737D01*
X44857052Y4334738D01*
X44782151Y4349638D01*
X44765395Y4358402D01*
X44746917Y4362422D01*
X44721875Y4381167D01*
X44720240Y4382023D01*
X44718662Y4383573D01*
X44679731Y4422503D01*
X44679729Y4422507D01*
X44633626Y4468610D01*
X44557716Y4544520D01*
X44451367Y4605920D01*
X44420785Y4623577D01*
X44268057Y4664501D01*
X44109943Y4664501D01*
X44102347Y4664501D01*
X44102331Y4664500D01*
X42884154Y4664500D01*
X42817115Y4684185D01*
X42796473Y4700819D01*
X40181473Y7315819D01*
X40147988Y7377142D01*
X40152972Y7446834D01*
X40194844Y7502767D01*
X40260308Y7527184D01*
X40269154Y7527500D01*
X43171903Y7527500D01*
X43238942Y7507815D01*
X43259584Y7491181D01*
X44073973Y6676790D01*
X44107458Y6615467D01*
X44107909Y6613300D01*
X44124493Y6529927D01*
X44124495Y6529919D01*
X44181371Y6392608D01*
X44263939Y6269035D01*
X44263945Y6269028D01*
X44369028Y6163945D01*
X44369035Y6163939D01*
X44492608Y6081371D01*
X44629919Y6024495D01*
X44629927Y6024493D01*
X44775683Y5995500D01*
X44775688Y5995500D01*
X44924316Y5995500D01*
X45070072Y6024493D01*
X45070080Y6024495D01*
X45207391Y6081371D01*
X45330964Y6163939D01*
X45330971Y6163945D01*
X45436054Y6269028D01*
X45436060Y6269035D01*
X45518628Y6392608D01*
X45521246Y6398928D01*
X45575505Y6529920D01*
X45604500Y6675688D01*
X45604500Y6824312D01*
X45575505Y6970080D01*
X45518629Y7107390D01*
X45436059Y7230966D01*
X45330966Y7336059D01*
X45207390Y7418629D01*
X45144097Y7444846D01*
X53301500Y7444846D01*
X53301500Y7287153D01*
X53332261Y7132510D01*
X53332264Y7132498D01*
X53392602Y6986827D01*
X53392609Y6986814D01*
X53480602Y6855125D01*
X53486252Y6837078D01*
X53496477Y6821169D01*
X53500928Y6790207D01*
X53501480Y6788447D01*
X53501500Y6786234D01*
X53501500Y6693059D01*
X53501499Y6693046D01*
X53501499Y6524945D01*
X53501498Y6524945D01*
X53542423Y6372214D01*
X53555254Y6349992D01*
X53555256Y6349989D01*
X53621479Y6235285D01*
X53621481Y6235282D01*
X53719181Y6137583D01*
X53752666Y6076260D01*
X53755500Y6049902D01*
X53755500Y4128765D01*
X53735815Y4061726D01*
X53734602Y4059874D01*
X53646609Y3928185D01*
X53646602Y3928172D01*
X53586264Y3782501D01*
X53586261Y3782489D01*
X53555500Y3627846D01*
X53555500Y3470153D01*
X53586261Y3315510D01*
X53586264Y3315498D01*
X53646602Y3169827D01*
X53646609Y3169814D01*
X53734210Y3038711D01*
X53734213Y3038707D01*
X53845707Y2927213D01*
X53845711Y2927210D01*
X53976814Y2839609D01*
X53976827Y2839602D01*
X54122498Y2779264D01*
X54122510Y2779261D01*
X54277153Y2748500D01*
X54277158Y2748500D01*
X54434846Y2748500D01*
X54589489Y2779261D01*
X54589501Y2779264D01*
X54735172Y2839602D01*
X54735185Y2839609D01*
X54866288Y2927210D01*
X54866292Y2927213D01*
X54977786Y3038707D01*
X54977789Y3038711D01*
X55065390Y3169814D01*
X55065397Y3169827D01*
X55125735Y3315498D01*
X55125737Y3315503D01*
X55156499Y3470153D01*
X55156500Y3470155D01*
X55156500Y3627844D01*
X55156499Y3627846D01*
X55125737Y3782497D01*
X55065394Y3928179D01*
X54977789Y4059289D01*
X54977788Y4059289D01*
X54977398Y4059874D01*
X54956520Y4126551D01*
X54956500Y4128765D01*
X54956500Y4823316D01*
X59745500Y4823316D01*
X59745500Y4674683D01*
X59774493Y4528927D01*
X59774495Y4528919D01*
X59831371Y4391608D01*
X59913939Y4268035D01*
X59913945Y4268028D01*
X60019028Y4162945D01*
X60019035Y4162939D01*
X60142608Y4080371D01*
X60279919Y4023495D01*
X60279927Y4023493D01*
X60425683Y3994500D01*
X60425688Y3994500D01*
X60574316Y3994500D01*
X60720072Y4023493D01*
X60720080Y4023495D01*
X60772690Y4045287D01*
X60800354Y4056746D01*
X60847807Y4066185D01*
X62085348Y4066185D01*
X62152387Y4046500D01*
X62154203Y4045310D01*
X62169769Y4034910D01*
X62224925Y3998055D01*
X62362234Y3941180D01*
X62362242Y3941178D01*
X62507998Y3912185D01*
X62508003Y3912185D01*
X62656631Y3912185D01*
X62802387Y3941178D01*
X62802395Y3941180D01*
X62939706Y3998056D01*
X63063279Y4080624D01*
X63063286Y4080630D01*
X63168369Y4185713D01*
X63168375Y4185720D01*
X63250943Y4309293D01*
X63253600Y4315707D01*
X63307820Y4446605D01*
X63336815Y4592373D01*
X63336815Y4740997D01*
X63307820Y4886765D01*
X63250944Y5024075D01*
X63168374Y5147651D01*
X63063281Y5252744D01*
X62939705Y5335314D01*
X62802395Y5392190D01*
X62656629Y5421184D01*
X62656628Y5421185D01*
X62656627Y5421185D01*
X62508003Y5421185D01*
X62508002Y5421185D01*
X62507998Y5421184D01*
X62362235Y5392190D01*
X62224925Y5335314D01*
X62154237Y5288082D01*
X62087561Y5267205D01*
X62085348Y5267185D01*
X61100203Y5267185D01*
X61033164Y5286870D01*
X61012522Y5303504D01*
X60980971Y5335054D01*
X60980966Y5335059D01*
X60857390Y5417629D01*
X60720080Y5474505D01*
X60574314Y5503499D01*
X60574313Y5503500D01*
X60574312Y5503500D01*
X60425688Y5503500D01*
X60425687Y5503500D01*
X60425683Y5503499D01*
X60279920Y5474505D01*
X60142610Y5417629D01*
X60142608Y5417628D01*
X60019035Y5335060D01*
X60019028Y5335054D01*
X59913945Y5229971D01*
X59913939Y5229964D01*
X59831371Y5106391D01*
X59774495Y4969080D01*
X59774493Y4969072D01*
X59745500Y4823316D01*
X54956500Y4823316D01*
X54956500Y6429057D01*
X54953455Y6440423D01*
X54915577Y6581785D01*
X54872379Y6656606D01*
X54836520Y6718716D01*
X54780265Y6774970D01*
X54775316Y6781424D01*
X54765541Y6806724D01*
X54752543Y6830529D01*
X54753136Y6838833D01*
X54750137Y6846599D01*
X54755592Y6873164D01*
X54757527Y6900221D01*
X54763574Y6912036D01*
X54764191Y6915041D01*
X54766124Y6917019D01*
X54770607Y6925779D01*
X54811390Y6986815D01*
X54811397Y6986827D01*
X54847635Y7074316D01*
X61245500Y7074316D01*
X61245500Y6925683D01*
X61274493Y6779927D01*
X61274495Y6779919D01*
X61331371Y6642608D01*
X61413939Y6519035D01*
X61413945Y6519028D01*
X61519028Y6413945D01*
X61519035Y6413939D01*
X61642608Y6331371D01*
X61779919Y6274495D01*
X61779927Y6274493D01*
X61925683Y6245500D01*
X61925688Y6245500D01*
X62074316Y6245500D01*
X62220072Y6274493D01*
X62220080Y6274495D01*
X62357389Y6331370D01*
X62418516Y6372214D01*
X62428077Y6378602D01*
X62446122Y6384252D01*
X62462032Y6394477D01*
X62492993Y6398928D01*
X62494754Y6399480D01*
X62496967Y6399500D01*
X62699903Y6399500D01*
X62766942Y6379815D01*
X62787584Y6363181D01*
X63631282Y5519481D01*
X63631290Y5519475D01*
X63768209Y5440426D01*
X63768214Y5440423D01*
X63840015Y5421184D01*
X63920943Y5399499D01*
X64003033Y5399499D01*
X64070072Y5379814D01*
X64071923Y5378602D01*
X64142611Y5331370D01*
X64279919Y5274495D01*
X64279927Y5274493D01*
X64425683Y5245500D01*
X64425688Y5245500D01*
X64574316Y5245500D01*
X64720072Y5274493D01*
X64720080Y5274495D01*
X64857391Y5331371D01*
X64980964Y5413939D01*
X64980971Y5413945D01*
X65086055Y5519029D01*
X65086057Y5519032D01*
X65086059Y5519034D01*
X65139912Y5599631D01*
X65193522Y5644435D01*
X65262847Y5653143D01*
X65294566Y5642431D01*
X65294797Y5642987D01*
X65437734Y5583780D01*
X65437742Y5583778D01*
X65583498Y5554785D01*
X65583503Y5554785D01*
X65732131Y5554785D01*
X65877887Y5583778D01*
X65877895Y5583780D01*
X66015206Y5640656D01*
X66138779Y5723224D01*
X66138786Y5723230D01*
X66243869Y5828313D01*
X66243875Y5828320D01*
X66326443Y5951893D01*
X66350328Y6009556D01*
X66383320Y6089205D01*
X66412315Y6234973D01*
X66412315Y6383597D01*
X66383320Y6529365D01*
X66326444Y6666675D01*
X66243874Y6790251D01*
X66138781Y6895344D01*
X66015205Y6977914D01*
X65877895Y7034790D01*
X65835580Y7043206D01*
X65773672Y7075589D01*
X65772202Y7077031D01*
X65552129Y7297105D01*
X65518646Y7358427D01*
X65523630Y7428119D01*
X65565502Y7484052D01*
X65630967Y7508469D01*
X65639812Y7508785D01*
X66893748Y7508785D01*
X66960787Y7489100D01*
X66962603Y7487910D01*
X66985250Y7472777D01*
X67033325Y7440655D01*
X67170634Y7383780D01*
X67170642Y7383778D01*
X67316398Y7354785D01*
X67316403Y7354785D01*
X67465031Y7354785D01*
X67610787Y7383778D01*
X67610795Y7383780D01*
X67748106Y7440656D01*
X67871679Y7523224D01*
X67871686Y7523230D01*
X67976769Y7628313D01*
X67976775Y7628320D01*
X68059343Y7751893D01*
X68059344Y7751895D01*
X68116220Y7889205D01*
X68145215Y8034973D01*
X68145215Y8183597D01*
X68116220Y8329365D01*
X68059344Y8466675D01*
X67976774Y8590251D01*
X67871681Y8695344D01*
X67748105Y8777914D01*
X67610795Y8834790D01*
X67465029Y8863784D01*
X67465028Y8863785D01*
X67465027Y8863785D01*
X67316403Y8863785D01*
X67316402Y8863785D01*
X67316398Y8863784D01*
X67170635Y8834790D01*
X67033325Y8777914D01*
X66962637Y8730682D01*
X66895961Y8709805D01*
X66893748Y8709785D01*
X65690812Y8709785D01*
X65623773Y8729470D01*
X65603131Y8746104D01*
X65449249Y8899986D01*
X64973645Y9375588D01*
X64946768Y9415814D01*
X64907127Y9511518D01*
X64824557Y9635094D01*
X64719464Y9740187D01*
X64595888Y9822757D01*
X64458578Y9879633D01*
X64312812Y9908627D01*
X64312811Y9908628D01*
X64312810Y9908628D01*
X64164186Y9908628D01*
X64164185Y9908628D01*
X64164181Y9908627D01*
X64018418Y9879633D01*
X63888184Y9825688D01*
X63881106Y9822756D01*
X63757533Y9740188D01*
X63757526Y9740182D01*
X63652443Y9635099D01*
X63652437Y9635092D01*
X63569869Y9511519D01*
X63512993Y9374208D01*
X63512991Y9374200D01*
X63483998Y9228444D01*
X63483998Y9079811D01*
X63512991Y8934055D01*
X63512994Y8934043D01*
X63568121Y8800955D01*
X63575590Y8731486D01*
X63544315Y8669007D01*
X63484225Y8633355D01*
X63414400Y8635849D01*
X63384671Y8650400D01*
X63357390Y8668629D01*
X63220080Y8725505D01*
X63074314Y8754499D01*
X63074313Y8754500D01*
X63074312Y8754500D01*
X62925688Y8754500D01*
X62925687Y8754500D01*
X62925683Y8754499D01*
X62779920Y8725505D01*
X62653554Y8673162D01*
X62642608Y8668628D01*
X62519035Y8586060D01*
X62519028Y8586054D01*
X62413945Y8480971D01*
X62413939Y8480964D01*
X62331371Y8357391D01*
X62274495Y8220080D01*
X62274493Y8220072D01*
X62245500Y8074316D01*
X62245500Y7925689D01*
X62251802Y7894005D01*
X62245573Y7824413D01*
X62202710Y7769237D01*
X62136820Y7745993D01*
X62105996Y7748197D01*
X62074312Y7754500D01*
X61925688Y7754500D01*
X61925687Y7754500D01*
X61925683Y7754499D01*
X61779920Y7725505D01*
X61644539Y7669428D01*
X61642608Y7668628D01*
X61519035Y7586060D01*
X61519028Y7586054D01*
X61413945Y7480971D01*
X61413939Y7480964D01*
X61331371Y7357391D01*
X61274495Y7220080D01*
X61274493Y7220072D01*
X61245500Y7074316D01*
X54847635Y7074316D01*
X54869242Y7126480D01*
X54871737Y7132503D01*
X54902499Y7287153D01*
X54902500Y7287155D01*
X54902500Y7444844D01*
X54902499Y7444846D01*
X54900105Y7456880D01*
X54871737Y7599497D01*
X54811394Y7745179D01*
X54723789Y7876289D01*
X54612289Y7987789D01*
X54481179Y8075394D01*
X54335497Y8135737D01*
X54258520Y8151048D01*
X54180845Y8166500D01*
X54180842Y8166500D01*
X54023158Y8166500D01*
X54023155Y8166500D01*
X53929858Y8147941D01*
X53868503Y8135737D01*
X53868498Y8135735D01*
X53722827Y8075397D01*
X53722814Y8075390D01*
X53591711Y7987789D01*
X53591707Y7987786D01*
X53480213Y7876292D01*
X53480210Y7876288D01*
X53392609Y7745185D01*
X53392602Y7745172D01*
X53332264Y7599501D01*
X53332261Y7599489D01*
X53301500Y7444846D01*
X45144097Y7444846D01*
X45070080Y7475505D01*
X44986694Y7492090D01*
X44924787Y7524474D01*
X44923263Y7525970D01*
X43962728Y8486506D01*
X43962724Y8486511D01*
X43952520Y8496714D01*
X43952520Y8496716D01*
X43840716Y8608520D01*
X43746095Y8663149D01*
X43703785Y8687577D01*
X43551057Y8728501D01*
X43392943Y8728501D01*
X43385347Y8728501D01*
X43385331Y8728500D01*
X39949766Y8728500D01*
X39931680Y8733810D01*
X39912832Y8734128D01*
X39884508Y8747662D01*
X39882727Y8748185D01*
X39880979Y8749328D01*
X39880291Y8749786D01*
X39880289Y8749789D01*
X39749179Y8837394D01*
X39748418Y8837708D01*
X39742719Y8841509D01*
X39724025Y8863830D01*
X39703247Y8884216D01*
X39701863Y8890295D01*
X39697860Y8895076D01*
X39694203Y8923957D01*
X39687743Y8952344D01*
X39689866Y8958207D01*
X39689083Y8964393D01*
X39701620Y8990665D01*
X39711533Y9018039D01*
X39716489Y9021823D01*
X39719174Y9027450D01*
X39743923Y9042773D01*
X39767063Y9060443D01*
X39778429Y9064136D01*
X39778580Y9064230D01*
X39778709Y9064227D01*
X39779412Y9064456D01*
X39883786Y9092423D01*
X39921483Y9114188D01*
X39963604Y9138507D01*
X39963608Y9138508D01*
X40020709Y9171475D01*
X40020717Y9171481D01*
X40139588Y9290352D01*
X40139590Y9290355D01*
X40823551Y9974316D01*
X72245500Y9974316D01*
X72245500Y9825683D01*
X72274493Y9679927D01*
X72274495Y9679919D01*
X72331371Y9542608D01*
X72413939Y9419035D01*
X72413945Y9419028D01*
X72519028Y9313945D01*
X72519035Y9313939D01*
X72642608Y9231371D01*
X72779919Y9174495D01*
X72779927Y9174493D01*
X72925683Y9145500D01*
X72925688Y9145500D01*
X73074316Y9145500D01*
X73220072Y9174493D01*
X73220080Y9174495D01*
X73357391Y9231371D01*
X73480964Y9313939D01*
X73480971Y9313945D01*
X73530205Y9363180D01*
X73591528Y9396666D01*
X73617887Y9399500D01*
X74413331Y9399500D01*
X74413347Y9399499D01*
X74420943Y9399499D01*
X74579054Y9399499D01*
X74579057Y9399499D01*
X74731785Y9440423D01*
X74786498Y9472012D01*
X74868716Y9519480D01*
X74938539Y9589303D01*
X74945135Y9594336D01*
X74970322Y9603995D01*
X74993996Y9616922D01*
X74996163Y9617373D01*
X75079536Y9633957D01*
X75079544Y9633959D01*
X75216855Y9690835D01*
X75340428Y9773403D01*
X75340435Y9773409D01*
X75445518Y9878492D01*
X75445524Y9878499D01*
X75528092Y10002072D01*
X75528093Y10002074D01*
X75584969Y10139384D01*
X75613964Y10285152D01*
X75613964Y10433776D01*
X75584969Y10579544D01*
X75528093Y10716854D01*
X75445523Y10840430D01*
X75340430Y10945523D01*
X75216854Y11028093D01*
X75079544Y11084969D01*
X74933778Y11113963D01*
X74933777Y11113964D01*
X74933776Y11113964D01*
X74785152Y11113964D01*
X74785151Y11113964D01*
X74785147Y11113963D01*
X74639384Y11084969D01*
X74502074Y11028093D01*
X74502072Y11028092D01*
X74378499Y10945524D01*
X74378492Y10945518D01*
X74273409Y10840435D01*
X74273403Y10840428D01*
X74190835Y10716855D01*
X74174346Y10677047D01*
X74130505Y10622644D01*
X74064210Y10600579D01*
X74059785Y10600500D01*
X73305112Y10600500D01*
X73257659Y10609939D01*
X73220080Y10625505D01*
X73074314Y10654499D01*
X73074313Y10654500D01*
X73074312Y10654500D01*
X72925688Y10654500D01*
X72925687Y10654500D01*
X72925683Y10654499D01*
X72779920Y10625505D01*
X72668942Y10579536D01*
X72642608Y10568628D01*
X72519035Y10486060D01*
X72519028Y10486054D01*
X72413945Y10380971D01*
X72413939Y10380964D01*
X72331371Y10257391D01*
X72274495Y10120080D01*
X72274493Y10120072D01*
X72245500Y9974316D01*
X40823551Y9974316D01*
X41923551Y11074316D01*
X64145500Y11074316D01*
X64145500Y10925683D01*
X64174493Y10779927D01*
X64174495Y10779919D01*
X64231371Y10642608D01*
X64313939Y10519035D01*
X64313945Y10519028D01*
X64419028Y10413945D01*
X64419035Y10413939D01*
X64542608Y10331371D01*
X64679919Y10274495D01*
X64679927Y10274493D01*
X64825683Y10245500D01*
X64825688Y10245500D01*
X64974316Y10245500D01*
X65120072Y10274493D01*
X65120080Y10274495D01*
X65257389Y10331370D01*
X65324061Y10375919D01*
X65328077Y10378602D01*
X65346122Y10384252D01*
X65362032Y10394477D01*
X65392993Y10398928D01*
X65394754Y10399480D01*
X65396967Y10399500D01*
X65513331Y10399500D01*
X65513347Y10399499D01*
X65520943Y10399499D01*
X65679054Y10399499D01*
X65679057Y10399499D01*
X65831785Y10440423D01*
X65901233Y10480519D01*
X65968716Y10519480D01*
X66080520Y10631284D01*
X66080521Y10631285D01*
X66131978Y10682742D01*
X66173209Y10723973D01*
X66234532Y10757458D01*
X66236699Y10757909D01*
X66320072Y10774493D01*
X66320080Y10774495D01*
X66457391Y10831371D01*
X66580964Y10913939D01*
X66580971Y10913945D01*
X66686054Y11019028D01*
X66686060Y11019035D01*
X66768628Y11142608D01*
X66801129Y11221072D01*
X66825505Y11279920D01*
X66854500Y11425688D01*
X66854500Y11574312D01*
X66825505Y11720080D01*
X66768629Y11857390D01*
X66686059Y11980966D01*
X66580966Y12086059D01*
X66457390Y12168629D01*
X66320080Y12225505D01*
X66174314Y12254499D01*
X66174313Y12254500D01*
X66174312Y12254500D01*
X66025688Y12254500D01*
X66025687Y12254500D01*
X66025683Y12254499D01*
X65879920Y12225505D01*
X65742610Y12168629D01*
X65742608Y12168628D01*
X65619035Y12086060D01*
X65619028Y12086054D01*
X65513945Y11980971D01*
X65513939Y11980964D01*
X65431371Y11857391D01*
X65386607Y11749321D01*
X65342766Y11694918D01*
X65276472Y11672853D01*
X65224598Y11682211D01*
X65120080Y11725505D01*
X64974314Y11754499D01*
X64974313Y11754500D01*
X64974312Y11754500D01*
X64825688Y11754500D01*
X64825687Y11754500D01*
X64825683Y11754499D01*
X64679920Y11725505D01*
X64545022Y11669628D01*
X64542608Y11668628D01*
X64419035Y11586060D01*
X64419028Y11586054D01*
X64313945Y11480971D01*
X64313939Y11480964D01*
X64231371Y11357391D01*
X64174495Y11220080D01*
X64174493Y11220072D01*
X64145500Y11074316D01*
X41923551Y11074316D01*
X42610890Y11761655D01*
X42672213Y11795140D01*
X42741905Y11790156D01*
X42746023Y11788535D01*
X42779915Y11774496D01*
X42779927Y11774493D01*
X42925683Y11745500D01*
X42925688Y11745500D01*
X43074316Y11745500D01*
X43220072Y11774493D01*
X43220080Y11774495D01*
X43357391Y11831371D01*
X43480964Y11913939D01*
X43480971Y11913945D01*
X43586054Y12019028D01*
X43586060Y12019035D01*
X43668628Y12142608D01*
X43679406Y12168629D01*
X43725505Y12279920D01*
X43754500Y12425688D01*
X43754500Y12574312D01*
X43725505Y12720080D01*
X43668629Y12857390D01*
X43586059Y12980966D01*
X43480966Y13086059D01*
X43357390Y13168629D01*
X43220080Y13225505D01*
X43074314Y13254499D01*
X43074313Y13254500D01*
X43074312Y13254500D01*
X42925688Y13254500D01*
X42925687Y13254500D01*
X42925683Y13254499D01*
X42779920Y13225505D01*
X42642610Y13168629D01*
X42571922Y13121397D01*
X42505246Y13100520D01*
X42503033Y13100500D01*
X42420942Y13100500D01*
X42268215Y13059577D01*
X42245496Y13046460D01*
X42131284Y12980520D01*
X42050861Y12900097D01*
X42015149Y12864385D01*
X42015139Y12864374D01*
X39439584Y10288819D01*
X39378261Y10255334D01*
X39351903Y10252500D01*
X37687935Y10252500D01*
X37620896Y10272185D01*
X37619045Y10273397D01*
X37615905Y10275495D01*
X37587390Y10294548D01*
X37450080Y10351424D01*
X37304314Y10380418D01*
X37304313Y10380419D01*
X37304312Y10380419D01*
X37155688Y10380419D01*
X37155687Y10380419D01*
X37155683Y10380418D01*
X37009920Y10351424D01*
X37009909Y10351419D01*
X37004093Y10349656D01*
X37003609Y10351248D01*
X36991684Y10349967D01*
X36972959Y10342983D01*
X36957657Y10346311D01*
X36942086Y10344639D01*
X36924213Y10353586D01*
X36904686Y10357835D01*
X36882386Y10374528D01*
X36879609Y10375919D01*
X36876460Y10378958D01*
X36804464Y10450955D01*
X36804463Y10450957D01*
X36692659Y10562761D01*
X36605847Y10612880D01*
X36555728Y10641818D01*
X36403000Y10682742D01*
X36244886Y10682742D01*
X36237290Y10682742D01*
X36237274Y10682741D01*
X35912727Y10682741D01*
X35912711Y10682742D01*
X35905115Y10682742D01*
X35747000Y10682742D01*
X35594273Y10641818D01*
X35594271Y10641817D01*
X35594266Y10641814D01*
X35457347Y10562765D01*
X35457343Y10562762D01*
X35457341Y10562761D01*
X35457340Y10562760D01*
X35457339Y10562759D01*
X35413640Y10519060D01*
X35352317Y10485575D01*
X35325959Y10482741D01*
X33984957Y10482741D01*
X33917918Y10502426D01*
X33897276Y10519060D01*
X33637952Y10778383D01*
X33604467Y10839706D01*
X33601633Y10866064D01*
X33601633Y11912197D01*
X33601634Y11912215D01*
X33601634Y12077921D01*
X33601634Y12077924D01*
X33560710Y12230652D01*
X33505372Y12326500D01*
X33481653Y12367583D01*
X33369849Y12479387D01*
X33369847Y12479387D01*
X33359644Y12489591D01*
X33359639Y12489595D01*
X33036818Y12812416D01*
X33003333Y12873739D01*
X33000499Y12900097D01*
X33000499Y13547870D01*
X33000499Y13547873D01*
X32994091Y13607483D01*
X32991772Y13613701D01*
X32986788Y13683392D01*
X33020273Y13744715D01*
X33081596Y13778200D01*
X33107954Y13781034D01*
X33524050Y13781034D01*
X33591089Y13761349D01*
X33636844Y13708545D01*
X33646788Y13639387D01*
X33627152Y13588143D01*
X33616523Y13572236D01*
X33559648Y13434927D01*
X33559646Y13434919D01*
X33530653Y13289163D01*
X33530653Y13140530D01*
X33559646Y12994774D01*
X33559648Y12994766D01*
X33616524Y12857455D01*
X33699092Y12733882D01*
X33699098Y12733875D01*
X33804181Y12628792D01*
X33804188Y12628786D01*
X33927761Y12546218D01*
X34065072Y12489342D01*
X34065078Y12489340D01*
X34148452Y12472756D01*
X34210363Y12440371D01*
X34211940Y12438821D01*
X34298516Y12352246D01*
X34435442Y12273193D01*
X34435447Y12273190D01*
X34505199Y12254500D01*
X34588176Y12232266D01*
X34588178Y12232266D01*
X34753887Y12232266D01*
X34753903Y12232267D01*
X35670266Y12232267D01*
X35737305Y12212582D01*
X35739121Y12211392D01*
X35756920Y12199500D01*
X35809843Y12164137D01*
X35947152Y12107262D01*
X35947160Y12107260D01*
X36092916Y12078267D01*
X36092921Y12078267D01*
X36241549Y12078267D01*
X36387305Y12107260D01*
X36387313Y12107262D01*
X36524622Y12164137D01*
X36556240Y12185263D01*
X36626671Y12232323D01*
X36693347Y12253201D01*
X36743010Y12243783D01*
X36779919Y12228495D01*
X36779927Y12228492D01*
X36925683Y12199500D01*
X36925688Y12199500D01*
X37074316Y12199500D01*
X37220072Y12228493D01*
X37220080Y12228495D01*
X37357391Y12285371D01*
X37480964Y12367939D01*
X37480971Y12367945D01*
X37586054Y12473028D01*
X37586060Y12473035D01*
X37668628Y12596608D01*
X37681340Y12627298D01*
X37725505Y12733920D01*
X37754500Y12879688D01*
X37754500Y13028312D01*
X37742884Y13086709D01*
X37749111Y13156301D01*
X37791974Y13211478D01*
X37857863Y13234723D01*
X37925860Y13218656D01*
X37952182Y13198582D01*
X38477018Y12673745D01*
X38483471Y12668794D01*
X38482663Y12667741D01*
X38516116Y12636407D01*
X38522199Y12627303D01*
X38522203Y12627298D01*
X38627297Y12522203D01*
X38627298Y12522202D01*
X38750871Y12439634D01*
X38888182Y12382758D01*
X38888190Y12382756D01*
X39033946Y12353763D01*
X39033951Y12353763D01*
X39182579Y12353763D01*
X39328335Y12382756D01*
X39328343Y12382758D01*
X39465654Y12439634D01*
X39589227Y12522202D01*
X39589234Y12522208D01*
X39694319Y12627293D01*
X39694325Y12627301D01*
X39707329Y12646762D01*
X39760941Y12691568D01*
X39810431Y12701872D01*
X39831651Y12701872D01*
X39977407Y12730865D01*
X39977415Y12730867D01*
X40114726Y12787743D01*
X40238299Y12870311D01*
X40238306Y12870317D01*
X40343389Y12975400D01*
X40343395Y12975407D01*
X40425963Y13098980D01*
X40443176Y13140535D01*
X40482840Y13236292D01*
X40511835Y13382060D01*
X40511835Y13530684D01*
X40482840Y13676452D01*
X40425964Y13813762D01*
X40343394Y13937338D01*
X40238301Y14042431D01*
X40114725Y14125001D01*
X39977415Y14181877D01*
X39894031Y14198462D01*
X39832123Y14230846D01*
X39830599Y14232342D01*
X38704438Y15358504D01*
X38704436Y15358507D01*
X38694228Y15368714D01*
X38694228Y15368716D01*
X38582424Y15480520D01*
X38520773Y15516112D01*
X38472557Y15566678D01*
X38459333Y15635285D01*
X38485300Y15700150D01*
X38542214Y15740679D01*
X38582772Y15747500D01*
X104730125Y15747500D01*
X104768907Y15747500D01*
X104781061Y15746903D01*
X104911404Y15734065D01*
X104935246Y15729322D01*
X105054730Y15693076D01*
X105077186Y15683775D01*
X105187294Y15624922D01*
X105207507Y15611416D01*
X105304021Y15532209D01*
X105321209Y15515021D01*
X105400416Y15418507D01*
X105413922Y15398294D01*
X105472775Y15288186D01*
X105482076Y15265730D01*
X105518322Y15146245D01*
X105523065Y15122404D01*
X105535903Y14992063D01*
X105536500Y14979908D01*
X105536500Y-111438492D01*
X105536498Y-111438498D01*
X105536499Y-111466098D01*
X105536499Y-111477338D01*
X105536499Y-111477404D01*
X105535925Y-111489321D01*
X105523585Y-111617160D01*
X105519025Y-111640556D01*
X105484160Y-111757923D01*
X105475208Y-111780014D01*
X105418531Y-111888541D01*
X105405517Y-111908512D01*
X105329121Y-112004189D01*
X105312526Y-112021301D01*
X105214890Y-112104285D01*
X105205435Y-112111567D01*
X92782425Y-120760499D01*
X85848034Y-125588240D01*
X85847347Y-125588718D01*
X85847321Y-125588736D01*
X85845115Y-125590271D01*
X85837202Y-125595343D01*
X85749723Y-125646846D01*
X85732816Y-125655140D01*
X85642934Y-125691049D01*
X85624976Y-125696685D01*
X85530681Y-125718573D01*
X85512071Y-125721425D01*
X85410825Y-125729141D01*
X85401402Y-125729500D01*
X48346322Y-125729500D01*
X48345739Y-125729499D01*
X19353539Y-125593280D01*
X19286593Y-125573280D01*
X19283272Y-125571047D01*
X10985983Y-119794454D01*
X7967358Y-117692880D01*
X18431500Y-117692880D01*
X18431500Y-118019119D01*
X18468022Y-118343274D01*
X18468025Y-118343288D01*
X18540617Y-118661335D01*
X18540618Y-118661337D01*
X18648363Y-118969256D01*
X18789910Y-119263179D01*
X18822265Y-119314671D01*
X18963471Y-119539399D01*
X19166870Y-119794454D01*
X19397546Y-120025130D01*
X19652601Y-120228529D01*
X19928825Y-120402092D01*
X20222744Y-120543637D01*
X20530664Y-120651382D01*
X20848711Y-120723975D01*
X20848720Y-120723976D01*
X20848725Y-120723977D01*
X21064828Y-120748325D01*
X21172881Y-120760499D01*
X21172884Y-120760500D01*
X21172887Y-120760500D01*
X21499116Y-120760500D01*
X21499117Y-120760499D01*
X21664784Y-120741833D01*
X21823274Y-120723977D01*
X21823277Y-120723976D01*
X21823289Y-120723975D01*
X22141336Y-120651382D01*
X22449256Y-120543637D01*
X22743175Y-120402092D01*
X23019399Y-120228529D01*
X23274454Y-120025130D01*
X23505130Y-119794454D01*
X23708529Y-119539399D01*
X23727545Y-119509135D01*
X48180500Y-119509135D01*
X48180500Y-121704870D01*
X48180501Y-121704876D01*
X48186908Y-121764483D01*
X48237202Y-121899328D01*
X48237206Y-121899335D01*
X48323452Y-122014544D01*
X48323455Y-122014547D01*
X48438664Y-122100793D01*
X48438671Y-122100797D01*
X48573517Y-122151091D01*
X48573516Y-122151091D01*
X48580444Y-122151835D01*
X48633127Y-122157500D01*
X50828872Y-122157499D01*
X50888483Y-122151091D01*
X51023331Y-122100796D01*
X51138546Y-122014546D01*
X51224796Y-121899331D01*
X51275091Y-121764483D01*
X51281500Y-121704873D01*
X51281499Y-119509128D01*
X51275091Y-119449517D01*
X51271479Y-119439834D01*
X51224797Y-119314671D01*
X51224793Y-119314664D01*
X51138547Y-119199455D01*
X51138544Y-119199452D01*
X51023335Y-119113206D01*
X51023328Y-119113202D01*
X50888482Y-119062908D01*
X50888483Y-119062908D01*
X50828883Y-119056501D01*
X50828881Y-119056500D01*
X50828873Y-119056500D01*
X50828864Y-119056500D01*
X48633129Y-119056500D01*
X48633123Y-119056501D01*
X48573516Y-119062908D01*
X48438671Y-119113202D01*
X48438664Y-119113206D01*
X48323455Y-119199452D01*
X48323452Y-119199455D01*
X48237206Y-119314664D01*
X48237202Y-119314671D01*
X48186908Y-119449517D01*
X48180501Y-119509116D01*
X48180501Y-119509123D01*
X48180500Y-119509135D01*
X23727545Y-119509135D01*
X23882092Y-119263175D01*
X24023637Y-118969256D01*
X24131382Y-118661336D01*
X24203975Y-118343289D01*
X24240500Y-118019113D01*
X24240500Y-117692887D01*
X24203975Y-117368711D01*
X24131382Y-117050664D01*
X24023637Y-116742744D01*
X23882092Y-116448825D01*
X23880182Y-116445786D01*
X23810124Y-116334289D01*
X23708529Y-116172601D01*
X23505130Y-115917546D01*
X23274454Y-115686870D01*
X23019399Y-115483471D01*
X22927324Y-115425616D01*
X22743179Y-115309910D01*
X22449256Y-115168363D01*
X22141337Y-115060618D01*
X22141335Y-115060617D01*
X21878317Y-115000585D01*
X21823289Y-114988025D01*
X21823286Y-114988024D01*
X21823274Y-114988022D01*
X21499119Y-114951500D01*
X21499113Y-114951500D01*
X21172887Y-114951500D01*
X21172880Y-114951500D01*
X20848725Y-114988022D01*
X20848711Y-114988025D01*
X20530664Y-115060617D01*
X20530662Y-115060618D01*
X20222743Y-115168363D01*
X19928820Y-115309910D01*
X19652602Y-115483470D01*
X19397546Y-115686869D01*
X19166869Y-115917546D01*
X18963470Y-116172602D01*
X18789910Y-116448820D01*
X18648363Y-116742743D01*
X18540618Y-117050662D01*
X18540617Y-117050664D01*
X18468025Y-117368711D01*
X18468022Y-117368725D01*
X18431500Y-117692880D01*
X7967358Y-117692880D01*
X805782Y-112706973D01*
X40402500Y-112706973D01*
X40402500Y-112951026D01*
X40437669Y-113173076D01*
X40440679Y-113192076D01*
X40516096Y-113424185D01*
X40585551Y-113560499D01*
X40626896Y-113641642D01*
X40770339Y-113839076D01*
X40770343Y-113839081D01*
X40942918Y-114011656D01*
X40942923Y-114011660D01*
X41114208Y-114136105D01*
X41140361Y-114155106D01*
X41357815Y-114265904D01*
X41589924Y-114341321D01*
X41830973Y-114379500D01*
X41830974Y-114379500D01*
X42075026Y-114379500D01*
X42075027Y-114379500D01*
X42316076Y-114341321D01*
X42470245Y-114291227D01*
X42540085Y-114289233D01*
X42596243Y-114321478D01*
X42800139Y-114525374D01*
X42800149Y-114525385D01*
X42804479Y-114529715D01*
X42804480Y-114529716D01*
X42916284Y-114641520D01*
X42916286Y-114641521D01*
X42916290Y-114641524D01*
X42987820Y-114682821D01*
X43053216Y-114720577D01*
X43165019Y-114750534D01*
X43205942Y-114761500D01*
X43205943Y-114761500D01*
X47658903Y-114761500D01*
X47725942Y-114781185D01*
X47746584Y-114797819D01*
X47960584Y-115011819D01*
X47994069Y-115073142D01*
X47989085Y-115142834D01*
X47947213Y-115198767D01*
X47881749Y-115223184D01*
X47872903Y-115223500D01*
X46656940Y-115223500D01*
X46616019Y-115234464D01*
X46616019Y-115234465D01*
X46578751Y-115244451D01*
X46504214Y-115264423D01*
X46504209Y-115264426D01*
X46367290Y-115343475D01*
X46367282Y-115343481D01*
X46255478Y-115455286D01*
X45443243Y-116267520D01*
X45381920Y-116301005D01*
X45317244Y-116297770D01*
X45163077Y-116247679D01*
X45042551Y-116228589D01*
X44922027Y-116209500D01*
X44677973Y-116209500D01*
X44622093Y-116218350D01*
X44436927Y-116247678D01*
X44204812Y-116323097D01*
X43987357Y-116433896D01*
X43789923Y-116577339D01*
X43789918Y-116577343D01*
X43617343Y-116749918D01*
X43617339Y-116749923D01*
X43473896Y-116947357D01*
X43363097Y-117164812D01*
X43287678Y-117396927D01*
X43249500Y-117637973D01*
X43249500Y-117882026D01*
X43271213Y-118019119D01*
X43287679Y-118123076D01*
X43359230Y-118343288D01*
X43363097Y-118355187D01*
X43473896Y-118572642D01*
X43617339Y-118770076D01*
X43617343Y-118770081D01*
X43789918Y-118942656D01*
X43789923Y-118942660D01*
X43826530Y-118969256D01*
X43987361Y-119086106D01*
X44204815Y-119196904D01*
X44436924Y-119272321D01*
X44677973Y-119310500D01*
X44677974Y-119310500D01*
X44922026Y-119310500D01*
X44922027Y-119310500D01*
X45163076Y-119272321D01*
X45395185Y-119196904D01*
X45612639Y-119086106D01*
X45810083Y-118942655D01*
X45982655Y-118770083D01*
X46126106Y-118572639D01*
X46236904Y-118355185D01*
X46312321Y-118123076D01*
X46350500Y-117882027D01*
X46350500Y-117692880D01*
X81169500Y-117692880D01*
X81169500Y-118019119D01*
X81206022Y-118343274D01*
X81206025Y-118343288D01*
X81278617Y-118661335D01*
X81278618Y-118661337D01*
X81386363Y-118969256D01*
X81527910Y-119263179D01*
X81560265Y-119314671D01*
X81701471Y-119539399D01*
X81904870Y-119794454D01*
X82135546Y-120025130D01*
X82390601Y-120228529D01*
X82666825Y-120402092D01*
X82960744Y-120543637D01*
X83268664Y-120651382D01*
X83586711Y-120723975D01*
X83586720Y-120723976D01*
X83586725Y-120723977D01*
X83802828Y-120748325D01*
X83910881Y-120760499D01*
X83910884Y-120760500D01*
X83910887Y-120760500D01*
X84237116Y-120760500D01*
X84237117Y-120760499D01*
X84402784Y-120741833D01*
X84561274Y-120723977D01*
X84561277Y-120723976D01*
X84561289Y-120723975D01*
X84879336Y-120651382D01*
X85187256Y-120543637D01*
X85481175Y-120402092D01*
X85757399Y-120228529D01*
X86012454Y-120025130D01*
X86243130Y-119794454D01*
X86446529Y-119539399D01*
X86620092Y-119263175D01*
X86761637Y-118969256D01*
X86869382Y-118661336D01*
X86941975Y-118343289D01*
X86978500Y-118019113D01*
X86978500Y-117692887D01*
X86941975Y-117368711D01*
X86869382Y-117050664D01*
X86761637Y-116742744D01*
X86620092Y-116448825D01*
X86618182Y-116445786D01*
X86548124Y-116334289D01*
X86446529Y-116172601D01*
X86243130Y-115917546D01*
X86012454Y-115686870D01*
X85757399Y-115483471D01*
X85665324Y-115425616D01*
X85481179Y-115309910D01*
X85187256Y-115168363D01*
X84879337Y-115060618D01*
X84879335Y-115060617D01*
X84616317Y-115000585D01*
X84561289Y-114988025D01*
X84561286Y-114988024D01*
X84561274Y-114988022D01*
X84237119Y-114951500D01*
X84237113Y-114951500D01*
X83910887Y-114951500D01*
X83910880Y-114951500D01*
X83586725Y-114988022D01*
X83586711Y-114988025D01*
X83268664Y-115060617D01*
X83268662Y-115060618D01*
X82960743Y-115168363D01*
X82666820Y-115309910D01*
X82390602Y-115483470D01*
X82135546Y-115686869D01*
X81904869Y-115917546D01*
X81701470Y-116172602D01*
X81527910Y-116448820D01*
X81386363Y-116742743D01*
X81278618Y-117050662D01*
X81278617Y-117050664D01*
X81206025Y-117368711D01*
X81206022Y-117368725D01*
X81169500Y-117692880D01*
X46350500Y-117692880D01*
X46350500Y-117637973D01*
X46312321Y-117396924D01*
X46262227Y-117242753D01*
X46260233Y-117172913D01*
X46292476Y-117116757D01*
X46948416Y-116460819D01*
X47009739Y-116427334D01*
X47036097Y-116424500D01*
X50220234Y-116424500D01*
X50287273Y-116444185D01*
X50289125Y-116445398D01*
X50420814Y-116533390D01*
X50420827Y-116533397D01*
X50566498Y-116593735D01*
X50566503Y-116593737D01*
X50721153Y-116624499D01*
X50721156Y-116624500D01*
X50721158Y-116624500D01*
X50878844Y-116624500D01*
X50878845Y-116624499D01*
X51033497Y-116593737D01*
X51179179Y-116533394D01*
X51310289Y-116445789D01*
X51421789Y-116334289D01*
X51509394Y-116203179D01*
X51569737Y-116057497D01*
X51600500Y-115902842D01*
X51600500Y-115745158D01*
X51600500Y-115745155D01*
X51600499Y-115745153D01*
X51588906Y-115686870D01*
X51569737Y-115590503D01*
X51569735Y-115590498D01*
X51509397Y-115444827D01*
X51509390Y-115444814D01*
X51421789Y-115313711D01*
X51421786Y-115313707D01*
X51310292Y-115202213D01*
X51310288Y-115202210D01*
X51179185Y-115114609D01*
X51179172Y-115114602D01*
X51033501Y-115054264D01*
X51033491Y-115054261D01*
X50926454Y-115032970D01*
X50864543Y-115000585D01*
X50829969Y-114939869D01*
X50829029Y-114935544D01*
X50807738Y-114828510D01*
X50807737Y-114828503D01*
X50807735Y-114828498D01*
X50747397Y-114682827D01*
X50747390Y-114682814D01*
X50659789Y-114551711D01*
X50659786Y-114551707D01*
X50548292Y-114440213D01*
X50548288Y-114440210D01*
X50472188Y-114389361D01*
X50427383Y-114335748D01*
X50418676Y-114266423D01*
X50448831Y-114203396D01*
X50484783Y-114175775D01*
X50562639Y-114136106D01*
X50760083Y-113992655D01*
X50932655Y-113820083D01*
X51076106Y-113622639D01*
X51186904Y-113405185D01*
X51262321Y-113173076D01*
X51300500Y-112932027D01*
X51300500Y-112687973D01*
X51262321Y-112446924D01*
X51186904Y-112214815D01*
X51076106Y-111997361D01*
X50997044Y-111888541D01*
X50932660Y-111799923D01*
X50932656Y-111799918D01*
X50760081Y-111627343D01*
X50760076Y-111627339D01*
X50562642Y-111483896D01*
X50562641Y-111483895D01*
X50562639Y-111483894D01*
X50345185Y-111373096D01*
X50113076Y-111297679D01*
X50113074Y-111297678D01*
X50113072Y-111297678D01*
X49944769Y-111271021D01*
X49872027Y-111259500D01*
X49627973Y-111259500D01*
X49572093Y-111268350D01*
X49386927Y-111297678D01*
X49154812Y-111373097D01*
X48937357Y-111483896D01*
X48739923Y-111627339D01*
X48739918Y-111627343D01*
X48567343Y-111799918D01*
X48567339Y-111799923D01*
X48423896Y-111997357D01*
X48313097Y-112214812D01*
X48313096Y-112214814D01*
X48313096Y-112214815D01*
X48306923Y-112233815D01*
X48237678Y-112446927D01*
X48225142Y-112526076D01*
X48199500Y-112687973D01*
X48199500Y-112932027D01*
X48237679Y-113173076D01*
X48243852Y-113192076D01*
X48313097Y-113405187D01*
X48321792Y-113422252D01*
X48334688Y-113490921D01*
X48308412Y-113555662D01*
X48251306Y-113595919D01*
X48181500Y-113598911D01*
X48179214Y-113598322D01*
X48086662Y-113573522D01*
X48038057Y-113560499D01*
X47879943Y-113560499D01*
X47872347Y-113560499D01*
X47872331Y-113560500D01*
X43585097Y-113560500D01*
X43555656Y-113551855D01*
X43525670Y-113545332D01*
X43520654Y-113541577D01*
X43518058Y-113540815D01*
X43497416Y-113524181D01*
X43445478Y-113472243D01*
X43411993Y-113410920D01*
X43415228Y-113346244D01*
X43465321Y-113192076D01*
X43503500Y-112951027D01*
X43503500Y-112706973D01*
X43465321Y-112465924D01*
X43389904Y-112233815D01*
X43279106Y-112016361D01*
X43253423Y-111981011D01*
X43135660Y-111818923D01*
X43135656Y-111818918D01*
X42963081Y-111646343D01*
X42963076Y-111646339D01*
X42765642Y-111502896D01*
X42765641Y-111502895D01*
X42765639Y-111502894D01*
X42548185Y-111392096D01*
X42316076Y-111316679D01*
X42316074Y-111316678D01*
X42316072Y-111316678D01*
X42147769Y-111290021D01*
X42075027Y-111278500D01*
X41830973Y-111278500D01*
X41775093Y-111287350D01*
X41589927Y-111316678D01*
X41357812Y-111392097D01*
X41140357Y-111502896D01*
X40942923Y-111646339D01*
X40942918Y-111646343D01*
X40770343Y-111818918D01*
X40770339Y-111818923D01*
X40626896Y-112016357D01*
X40516097Y-112233812D01*
X40440678Y-112465927D01*
X40402500Y-112706973D01*
X805782Y-112706973D01*
X-17267Y-112133964D01*
X-17268Y-112133963D01*
X-49190Y-112111739D01*
X-58644Y-112104457D01*
X-156512Y-112021277D01*
X-173106Y-112004167D01*
X-249502Y-111908494D01*
X-262516Y-111888525D01*
X-319197Y-111779999D01*
X-328150Y-111757908D01*
X-363016Y-111640549D01*
X-367577Y-111617152D01*
X-379926Y-111489255D01*
X-380500Y-111477338D01*
X-380500Y-107013006D01*
X40403000Y-107013006D01*
X40403000Y-107256993D01*
X40441165Y-107497959D01*
X40516560Y-107729998D01*
X40627323Y-107947380D01*
X40694543Y-108039901D01*
X40694544Y-108039902D01*
X41313689Y-107420756D01*
X41332668Y-107466574D01*
X41409274Y-107581224D01*
X41506776Y-107678726D01*
X41621426Y-107755332D01*
X41667242Y-107774309D01*
X41048096Y-108393454D01*
X41048097Y-108393456D01*
X41140619Y-108460676D01*
X41358001Y-108571439D01*
X41590040Y-108646834D01*
X41831007Y-108685000D01*
X42074993Y-108685000D01*
X42315959Y-108646834D01*
X42547998Y-108571439D01*
X42765377Y-108460678D01*
X42857901Y-108393454D01*
X42857902Y-108393454D01*
X42238757Y-107774309D01*
X42284574Y-107755332D01*
X42399224Y-107678726D01*
X42496726Y-107581224D01*
X42573332Y-107466574D01*
X42592309Y-107420757D01*
X43211454Y-108039902D01*
X43211454Y-108039901D01*
X43278678Y-107947377D01*
X43389439Y-107729998D01*
X43464834Y-107497959D01*
X43503000Y-107256993D01*
X43503000Y-107013006D01*
X43502995Y-107012973D01*
X61652500Y-107012973D01*
X61652500Y-107257026D01*
X61689170Y-107488553D01*
X61690679Y-107498076D01*
X61766096Y-107730185D01*
X61876762Y-107947380D01*
X61876896Y-107947642D01*
X62020339Y-108145076D01*
X62020343Y-108145081D01*
X62192918Y-108317656D01*
X62192923Y-108317660D01*
X62297248Y-108393456D01*
X62390361Y-108461106D01*
X62607815Y-108571904D01*
X62839924Y-108647321D01*
X63080973Y-108685500D01*
X63080974Y-108685500D01*
X63325026Y-108685500D01*
X63325027Y-108685500D01*
X63566076Y-108647321D01*
X63798185Y-108571904D01*
X64015639Y-108461106D01*
X64213083Y-108317655D01*
X64385655Y-108145083D01*
X64529106Y-107947639D01*
X64639904Y-107730185D01*
X64715321Y-107498076D01*
X64753500Y-107257027D01*
X64753500Y-107012973D01*
X64715321Y-106771924D01*
X64639904Y-106539815D01*
X64529106Y-106322361D01*
X64510779Y-106297136D01*
X64385660Y-106124923D01*
X64385656Y-106124918D01*
X64213081Y-105952343D01*
X64213076Y-105952339D01*
X64015642Y-105808896D01*
X64015641Y-105808895D01*
X64015639Y-105808894D01*
X63798185Y-105698096D01*
X63566076Y-105622679D01*
X63566074Y-105622678D01*
X63566072Y-105622678D01*
X63397769Y-105596021D01*
X63325027Y-105584500D01*
X63080973Y-105584500D01*
X63025093Y-105593350D01*
X62839927Y-105622678D01*
X62607812Y-105698097D01*
X62390357Y-105808896D01*
X62192923Y-105952339D01*
X62192918Y-105952343D01*
X62020343Y-106124918D01*
X62020339Y-106124923D01*
X61876896Y-106322357D01*
X61766097Y-106539812D01*
X61690678Y-106771927D01*
X61652500Y-107012973D01*
X43502995Y-107012973D01*
X43464834Y-106772040D01*
X43389439Y-106540001D01*
X43278676Y-106322619D01*
X43211456Y-106230097D01*
X43211454Y-106230096D01*
X42592309Y-106849241D01*
X42573332Y-106803426D01*
X42496726Y-106688776D01*
X42399224Y-106591274D01*
X42284574Y-106514668D01*
X42238756Y-106495689D01*
X42857902Y-105876544D01*
X42857901Y-105876543D01*
X42765380Y-105809323D01*
X42547998Y-105698560D01*
X42315959Y-105623165D01*
X42074993Y-105585000D01*
X41831007Y-105585000D01*
X41590040Y-105623165D01*
X41358001Y-105698560D01*
X41140626Y-105809319D01*
X41048097Y-105876544D01*
X41667243Y-106495689D01*
X41621426Y-106514668D01*
X41506776Y-106591274D01*
X41409274Y-106688776D01*
X41332668Y-106803426D01*
X41313690Y-106849243D01*
X40694544Y-106230097D01*
X40627319Y-106322626D01*
X40516560Y-106540001D01*
X40441165Y-106772040D01*
X40403000Y-107013006D01*
X-380500Y-107013006D01*
X-380500Y-103027135D01*
X10602500Y-103027135D01*
X10602500Y-105222870D01*
X10602501Y-105222876D01*
X10608908Y-105282483D01*
X10659202Y-105417328D01*
X10659206Y-105417335D01*
X10745452Y-105532544D01*
X10745455Y-105532547D01*
X10860664Y-105618793D01*
X10860671Y-105618797D01*
X10995517Y-105669091D01*
X10995516Y-105669091D01*
X11002444Y-105669835D01*
X11055127Y-105675500D01*
X13250872Y-105675499D01*
X13310483Y-105669091D01*
X13445331Y-105618796D01*
X13560546Y-105532546D01*
X13646796Y-105417331D01*
X13697091Y-105282483D01*
X13703500Y-105222873D01*
X13703499Y-103027128D01*
X13697091Y-102967517D01*
X13646796Y-102832669D01*
X13646795Y-102832668D01*
X13646793Y-102832664D01*
X13560547Y-102717455D01*
X13560544Y-102717452D01*
X13445335Y-102631206D01*
X13445328Y-102631202D01*
X13310482Y-102580908D01*
X13310483Y-102580908D01*
X13250883Y-102574501D01*
X13250881Y-102574500D01*
X13250873Y-102574500D01*
X13250864Y-102574500D01*
X11055129Y-102574500D01*
X11055123Y-102574501D01*
X10995516Y-102580908D01*
X10860671Y-102631202D01*
X10860664Y-102631206D01*
X10745455Y-102717452D01*
X10745452Y-102717455D01*
X10659206Y-102832664D01*
X10659202Y-102832671D01*
X10608908Y-102967517D01*
X10602501Y-103027116D01*
X10602501Y-103027123D01*
X10602500Y-103027135D01*
X-380500Y-103027135D01*
X-380500Y-101155973D01*
X5671500Y-101155973D01*
X5671500Y-101400026D01*
X5708729Y-101635083D01*
X5709679Y-101641076D01*
X5785096Y-101873185D01*
X5882552Y-102064454D01*
X5895896Y-102090642D01*
X6039339Y-102288076D01*
X6039343Y-102288081D01*
X6211918Y-102460656D01*
X6211923Y-102460660D01*
X6368612Y-102574500D01*
X6409361Y-102604106D01*
X6626815Y-102714904D01*
X6858924Y-102790321D01*
X7099973Y-102828500D01*
X7099974Y-102828500D01*
X7344026Y-102828500D01*
X7344027Y-102828500D01*
X7585076Y-102790321D01*
X7817185Y-102714904D01*
X8034639Y-102604106D01*
X8232083Y-102460655D01*
X8318603Y-102374135D01*
X86477500Y-102374135D01*
X86477500Y-104569870D01*
X86477501Y-104569876D01*
X86483908Y-104629483D01*
X86534202Y-104764328D01*
X86534206Y-104764335D01*
X86620452Y-104879544D01*
X86620455Y-104879547D01*
X86735664Y-104965793D01*
X86735671Y-104965797D01*
X86870517Y-105016091D01*
X86870516Y-105016091D01*
X86877444Y-105016835D01*
X86930127Y-105022500D01*
X89125872Y-105022499D01*
X89185483Y-105016091D01*
X89320331Y-104965796D01*
X89435546Y-104879546D01*
X89521796Y-104764331D01*
X89572091Y-104629483D01*
X89578500Y-104569873D01*
X89578499Y-102374128D01*
X89572091Y-102314517D01*
X89562229Y-102288076D01*
X89521797Y-102179671D01*
X89521793Y-102179664D01*
X89435547Y-102064455D01*
X89435544Y-102064452D01*
X89320335Y-101978206D01*
X89320328Y-101978202D01*
X89185482Y-101927908D01*
X89185483Y-101927908D01*
X89125883Y-101921501D01*
X89125881Y-101921500D01*
X89125873Y-101921500D01*
X89125864Y-101921500D01*
X86930129Y-101921500D01*
X86930123Y-101921501D01*
X86870516Y-101927908D01*
X86735671Y-101978202D01*
X86735664Y-101978206D01*
X86620455Y-102064452D01*
X86620452Y-102064455D01*
X86534206Y-102179664D01*
X86534202Y-102179671D01*
X86483908Y-102314517D01*
X86477501Y-102374116D01*
X86477501Y-102374123D01*
X86477500Y-102374135D01*
X8318603Y-102374135D01*
X8404655Y-102288083D01*
X8548106Y-102090639D01*
X8658904Y-101873185D01*
X8734321Y-101641076D01*
X8772500Y-101400027D01*
X8772500Y-101155973D01*
X8734321Y-100914924D01*
X8658904Y-100682815D01*
X8567270Y-100502973D01*
X81546500Y-100502973D01*
X81546500Y-100747026D01*
X81573092Y-100914924D01*
X81584679Y-100988076D01*
X81660096Y-101220185D01*
X81751729Y-101400026D01*
X81770896Y-101437642D01*
X81914339Y-101635076D01*
X81914343Y-101635081D01*
X82086918Y-101807656D01*
X82086923Y-101807660D01*
X82177114Y-101873187D01*
X82284361Y-101951106D01*
X82501815Y-102061904D01*
X82733924Y-102137321D01*
X82974973Y-102175500D01*
X82974974Y-102175500D01*
X83219026Y-102175500D01*
X83219027Y-102175500D01*
X83460076Y-102137321D01*
X83692185Y-102061904D01*
X83909639Y-101951106D01*
X84107083Y-101807655D01*
X84279655Y-101635083D01*
X84423106Y-101437639D01*
X84533904Y-101220185D01*
X84609321Y-100988076D01*
X84647500Y-100747027D01*
X84647500Y-100502973D01*
X84609321Y-100261924D01*
X84533904Y-100029815D01*
X84423106Y-99812361D01*
X84361451Y-99727500D01*
X84279660Y-99614923D01*
X84279656Y-99614918D01*
X84107081Y-99442343D01*
X84107076Y-99442339D01*
X83909642Y-99298896D01*
X83909641Y-99298895D01*
X83909639Y-99298894D01*
X83692185Y-99188096D01*
X83460076Y-99112679D01*
X83460074Y-99112678D01*
X83460072Y-99112678D01*
X83291769Y-99086021D01*
X83219027Y-99074500D01*
X82974973Y-99074500D01*
X82919093Y-99083350D01*
X82733927Y-99112678D01*
X82501812Y-99188097D01*
X82284357Y-99298896D01*
X82086923Y-99442339D01*
X82086918Y-99442343D01*
X81914343Y-99614918D01*
X81914339Y-99614923D01*
X81770896Y-99812357D01*
X81660097Y-100029812D01*
X81584678Y-100261927D01*
X81546500Y-100502973D01*
X8567270Y-100502973D01*
X8548106Y-100465361D01*
X8548105Y-100465359D01*
X8404660Y-100267923D01*
X8404656Y-100267918D01*
X8232081Y-100095343D01*
X8232076Y-100095339D01*
X8034642Y-99951896D01*
X8034641Y-99951895D01*
X8034639Y-99951894D01*
X7817185Y-99841096D01*
X7585076Y-99765679D01*
X7585074Y-99765678D01*
X7585072Y-99765678D01*
X7416769Y-99739021D01*
X7344027Y-99727500D01*
X7099973Y-99727500D01*
X7044093Y-99736350D01*
X6858927Y-99765678D01*
X6626812Y-99841097D01*
X6409357Y-99951896D01*
X6211923Y-100095339D01*
X6211918Y-100095343D01*
X6039343Y-100267918D01*
X6039339Y-100267923D01*
X5895896Y-100465357D01*
X5785097Y-100682812D01*
X5709678Y-100914927D01*
X5671500Y-101155973D01*
X-380500Y-101155973D01*
X-380500Y-96224973D01*
X2824500Y-96224973D01*
X2824500Y-96469026D01*
X2861729Y-96704083D01*
X2862679Y-96710076D01*
X2931923Y-96923187D01*
X2938097Y-96942187D01*
X3048896Y-97159642D01*
X3192339Y-97357076D01*
X3192343Y-97357081D01*
X3364918Y-97529656D01*
X3364923Y-97529660D01*
X3536206Y-97654103D01*
X3562361Y-97673106D01*
X3779815Y-97783904D01*
X4011924Y-97859321D01*
X4252973Y-97897500D01*
X4252974Y-97897500D01*
X4497026Y-97897500D01*
X4497027Y-97897500D01*
X4738076Y-97859321D01*
X4970185Y-97783904D01*
X5187639Y-97673106D01*
X5385083Y-97529655D01*
X5557655Y-97357083D01*
X5701106Y-97159639D01*
X5811904Y-96942185D01*
X5887321Y-96710076D01*
X5925500Y-96469027D01*
X5925500Y-96224973D01*
X5922491Y-96205973D01*
X10621500Y-96205973D01*
X10621500Y-96450026D01*
X10658729Y-96685083D01*
X10659679Y-96691076D01*
X10719977Y-96876655D01*
X10735097Y-96923187D01*
X10845896Y-97140642D01*
X10989339Y-97338076D01*
X10989343Y-97338081D01*
X11161918Y-97510656D01*
X11161923Y-97510660D01*
X11334136Y-97635779D01*
X11359361Y-97654106D01*
X11576815Y-97764904D01*
X11808924Y-97840321D01*
X12049973Y-97878500D01*
X12049974Y-97878500D01*
X12294026Y-97878500D01*
X12294027Y-97878500D01*
X12535076Y-97840321D01*
X12767185Y-97764904D01*
X12984639Y-97654106D01*
X13182083Y-97510655D01*
X13354655Y-97338083D01*
X13498106Y-97140639D01*
X13608904Y-96923185D01*
X13684321Y-96691076D01*
X13722500Y-96450027D01*
X13722500Y-96205973D01*
X13684321Y-95964924D01*
X13608904Y-95732815D01*
X13526951Y-95571973D01*
X78699500Y-95571973D01*
X78699500Y-95816026D01*
X78734669Y-96038076D01*
X78737679Y-96057076D01*
X78813096Y-96289185D01*
X78904729Y-96469026D01*
X78923896Y-96506642D01*
X79067339Y-96704076D01*
X79067343Y-96704081D01*
X79239918Y-96876656D01*
X79239923Y-96876660D01*
X79330114Y-96942187D01*
X79437361Y-97020106D01*
X79654815Y-97130904D01*
X79886924Y-97206321D01*
X80127973Y-97244500D01*
X80127974Y-97244500D01*
X80372026Y-97244500D01*
X80372027Y-97244500D01*
X80613076Y-97206321D01*
X80845185Y-97130904D01*
X81062639Y-97020106D01*
X81260083Y-96876655D01*
X81432655Y-96704083D01*
X81576106Y-96506639D01*
X81686904Y-96289185D01*
X81762321Y-96057076D01*
X81800500Y-95816027D01*
X81800500Y-95571973D01*
X81797491Y-95552973D01*
X86496500Y-95552973D01*
X86496500Y-95797026D01*
X86526102Y-95983927D01*
X86534679Y-96038076D01*
X86610096Y-96270185D01*
X86711410Y-96469026D01*
X86720896Y-96487642D01*
X86864339Y-96685076D01*
X86864343Y-96685081D01*
X87036918Y-96857656D01*
X87036923Y-96857660D01*
X87209136Y-96982779D01*
X87234361Y-97001106D01*
X87451815Y-97111904D01*
X87683924Y-97187321D01*
X87924973Y-97225500D01*
X87924974Y-97225500D01*
X88169026Y-97225500D01*
X88169027Y-97225500D01*
X88410076Y-97187321D01*
X88642185Y-97111904D01*
X88859639Y-97001106D01*
X89057083Y-96857655D01*
X89229655Y-96685083D01*
X89373106Y-96487639D01*
X89483904Y-96270185D01*
X89559321Y-96038076D01*
X89597500Y-95797027D01*
X89597500Y-95552973D01*
X89559321Y-95311924D01*
X89483904Y-95079815D01*
X89373106Y-94862361D01*
X89243464Y-94683923D01*
X89229660Y-94664923D01*
X89229656Y-94664918D01*
X89057081Y-94492343D01*
X89057076Y-94492339D01*
X88859642Y-94348896D01*
X88859641Y-94348895D01*
X88859639Y-94348894D01*
X88642185Y-94238096D01*
X88410076Y-94162679D01*
X88410074Y-94162678D01*
X88410072Y-94162678D01*
X88241769Y-94136021D01*
X88169027Y-94124500D01*
X87924973Y-94124500D01*
X87869093Y-94133350D01*
X87683927Y-94162678D01*
X87451812Y-94238097D01*
X87234357Y-94348896D01*
X87036923Y-94492339D01*
X87036918Y-94492343D01*
X86864343Y-94664918D01*
X86864339Y-94664923D01*
X86720896Y-94862357D01*
X86610097Y-95079812D01*
X86610096Y-95079814D01*
X86610096Y-95079815D01*
X86603923Y-95098815D01*
X86534678Y-95311927D01*
X86496500Y-95552973D01*
X81797491Y-95552973D01*
X81762321Y-95330924D01*
X81686904Y-95098815D01*
X81576106Y-94881361D01*
X81542189Y-94834678D01*
X81432660Y-94683923D01*
X81432656Y-94683918D01*
X81260081Y-94511343D01*
X81260076Y-94511339D01*
X81062642Y-94367896D01*
X81062641Y-94367895D01*
X81062639Y-94367894D01*
X80845185Y-94257096D01*
X80613076Y-94181679D01*
X80613074Y-94181678D01*
X80613072Y-94181678D01*
X80444769Y-94155021D01*
X80372027Y-94143500D01*
X80127973Y-94143500D01*
X80072093Y-94152350D01*
X79886927Y-94181678D01*
X79654812Y-94257097D01*
X79437357Y-94367896D01*
X79239923Y-94511339D01*
X79239918Y-94511343D01*
X79067343Y-94683918D01*
X79067339Y-94683923D01*
X78923896Y-94881357D01*
X78813097Y-95098812D01*
X78737678Y-95330927D01*
X78699500Y-95571973D01*
X13526951Y-95571973D01*
X13498106Y-95515361D01*
X13498105Y-95515359D01*
X13354660Y-95317923D01*
X13354656Y-95317918D01*
X13182081Y-95145343D01*
X13182076Y-95145339D01*
X12984642Y-95001896D01*
X12984641Y-95001895D01*
X12984639Y-95001894D01*
X12767185Y-94891096D01*
X12535076Y-94815679D01*
X12535074Y-94815678D01*
X12535072Y-94815678D01*
X12366769Y-94789021D01*
X12294027Y-94777500D01*
X12049973Y-94777500D01*
X11994093Y-94786350D01*
X11808927Y-94815678D01*
X11808924Y-94815679D01*
X11606789Y-94881357D01*
X11576812Y-94891097D01*
X11359357Y-95001896D01*
X11161923Y-95145339D01*
X11161918Y-95145343D01*
X10989343Y-95317918D01*
X10989339Y-95317923D01*
X10845896Y-95515357D01*
X10735097Y-95732812D01*
X10735096Y-95732814D01*
X10735096Y-95732815D01*
X10728923Y-95751815D01*
X10659678Y-95964927D01*
X10621500Y-96205973D01*
X5922491Y-96205973D01*
X5887321Y-95983924D01*
X5811904Y-95751815D01*
X5701106Y-95534361D01*
X5682779Y-95509136D01*
X5557660Y-95336923D01*
X5557656Y-95336918D01*
X5385081Y-95164343D01*
X5385076Y-95164339D01*
X5187642Y-95020896D01*
X5187641Y-95020895D01*
X5187639Y-95020894D01*
X4970185Y-94910096D01*
X4738076Y-94834679D01*
X4738074Y-94834678D01*
X4738072Y-94834678D01*
X4569769Y-94808021D01*
X4497027Y-94796500D01*
X4252973Y-94796500D01*
X4197093Y-94805350D01*
X4011927Y-94834678D01*
X3779812Y-94910097D01*
X3562357Y-95020896D01*
X3364923Y-95164339D01*
X3364918Y-95164343D01*
X3192343Y-95336918D01*
X3192339Y-95336923D01*
X3048896Y-95534357D01*
X2938097Y-95751812D01*
X2862678Y-95983927D01*
X2824500Y-96224973D01*
X-380500Y-96224973D01*
X-380500Y-90531006D01*
X2825000Y-90531006D01*
X2825000Y-90774993D01*
X2863165Y-91015959D01*
X2938560Y-91247998D01*
X3049323Y-91465380D01*
X3116543Y-91557901D01*
X3116544Y-91557902D01*
X3735689Y-90938756D01*
X3754668Y-90984574D01*
X3831274Y-91099224D01*
X3928776Y-91196726D01*
X4043426Y-91273332D01*
X4089242Y-91292309D01*
X3470096Y-91911454D01*
X3470097Y-91911456D01*
X3562619Y-91978676D01*
X3780001Y-92089439D01*
X4012040Y-92164834D01*
X4253007Y-92203000D01*
X4496993Y-92203000D01*
X4737959Y-92164834D01*
X4969998Y-92089439D01*
X5187377Y-91978678D01*
X5279901Y-91911454D01*
X5279902Y-91911454D01*
X4660757Y-91292309D01*
X4706574Y-91273332D01*
X4821224Y-91196726D01*
X4918726Y-91099224D01*
X4995332Y-90984574D01*
X5014309Y-90938757D01*
X5633454Y-91557902D01*
X5633454Y-91557901D01*
X5700678Y-91465377D01*
X5811439Y-91247998D01*
X5886834Y-91015959D01*
X5925000Y-90774993D01*
X5925000Y-90531006D01*
X5924995Y-90530973D01*
X24074500Y-90530973D01*
X24074500Y-90775026D01*
X24112678Y-91016072D01*
X24112678Y-91016074D01*
X24112679Y-91016076D01*
X24188096Y-91248185D01*
X24298762Y-91465380D01*
X24298896Y-91465642D01*
X24442339Y-91663076D01*
X24442343Y-91663081D01*
X24614918Y-91835656D01*
X24614923Y-91835660D01*
X24719248Y-91911456D01*
X24812361Y-91979106D01*
X25029815Y-92089904D01*
X25261924Y-92165321D01*
X25502973Y-92203500D01*
X25502974Y-92203500D01*
X25747026Y-92203500D01*
X25747027Y-92203500D01*
X25988076Y-92165321D01*
X26220185Y-92089904D01*
X26437639Y-91979106D01*
X26635083Y-91835655D01*
X26807655Y-91663083D01*
X26951106Y-91465639D01*
X27061904Y-91248185D01*
X27137321Y-91016076D01*
X27175500Y-90775027D01*
X27175500Y-90530973D01*
X27137321Y-90289924D01*
X27061904Y-90057815D01*
X26951106Y-89840361D01*
X26886140Y-89750943D01*
X26807660Y-89642923D01*
X26807656Y-89642918D01*
X26635081Y-89470343D01*
X26635076Y-89470339D01*
X26437642Y-89326896D01*
X26437641Y-89326895D01*
X26437639Y-89326894D01*
X26220185Y-89216096D01*
X25988076Y-89140679D01*
X25988074Y-89140678D01*
X25988072Y-89140678D01*
X25819769Y-89114021D01*
X25747027Y-89102500D01*
X25502973Y-89102500D01*
X25447093Y-89111350D01*
X25261927Y-89140678D01*
X25029812Y-89216097D01*
X24812357Y-89326896D01*
X24614923Y-89470339D01*
X24614918Y-89470343D01*
X24442343Y-89642918D01*
X24442339Y-89642923D01*
X24298896Y-89840357D01*
X24188097Y-90057812D01*
X24112678Y-90289927D01*
X24074500Y-90530973D01*
X5924995Y-90530973D01*
X5886834Y-90290040D01*
X5811439Y-90058001D01*
X5700676Y-89840619D01*
X5633456Y-89748097D01*
X5633454Y-89748096D01*
X5014309Y-90367241D01*
X4995332Y-90321426D01*
X4918726Y-90206776D01*
X4821224Y-90109274D01*
X4706574Y-90032668D01*
X4660756Y-90013689D01*
X5279902Y-89394544D01*
X5279901Y-89394543D01*
X5187380Y-89327323D01*
X4969998Y-89216560D01*
X4737959Y-89141165D01*
X4496993Y-89103000D01*
X4253007Y-89103000D01*
X4012040Y-89141165D01*
X3780001Y-89216560D01*
X3562626Y-89327319D01*
X3470097Y-89394544D01*
X4089243Y-90013689D01*
X4043426Y-90032668D01*
X3928776Y-90109274D01*
X3831274Y-90206776D01*
X3754668Y-90321426D01*
X3735690Y-90367243D01*
X3116544Y-89748097D01*
X3049319Y-89840626D01*
X2938560Y-90058001D01*
X2863165Y-90290040D01*
X2825000Y-90531006D01*
X-380500Y-90531006D01*
X-380500Y-56431828D01*
X19303500Y-56431828D01*
X19303500Y-57568171D01*
X19342296Y-58703883D01*
X19419844Y-59837585D01*
X19536053Y-60967992D01*
X19690786Y-62093763D01*
X19883870Y-63213616D01*
X20115063Y-64326185D01*
X20384110Y-65430227D01*
X20526136Y-65937122D01*
X20690701Y-66524463D01*
X20690703Y-66524468D01*
X21034471Y-67607590D01*
X21415001Y-68678302D01*
X21831895Y-69735471D01*
X22284617Y-70777741D01*
X22772657Y-71803945D01*
X22772663Y-71803956D01*
X23295463Y-72812913D01*
X23852404Y-73803432D01*
X24442838Y-74774360D01*
X24876444Y-75435446D01*
X25066089Y-75724582D01*
X25721386Y-76652926D01*
X25721393Y-76652935D01*
X26408023Y-77558393D01*
X27125166Y-78439880D01*
X27871986Y-79296369D01*
X28647611Y-80126861D01*
X29451139Y-80930389D01*
X30281631Y-81706014D01*
X31138120Y-82452834D01*
X32019607Y-83169977D01*
X32925065Y-83856607D01*
X32925073Y-83856613D01*
X33853417Y-84511910D01*
X33853425Y-84511915D01*
X33853436Y-84511923D01*
X34803640Y-85135162D01*
X35774568Y-85725596D01*
X36765087Y-86282537D01*
X36765089Y-86282538D01*
X37774054Y-86805342D01*
X38507056Y-87153942D01*
X38800262Y-87293384D01*
X39842544Y-87746111D01*
X40899675Y-88162990D01*
X40899692Y-88162996D01*
X40899697Y-88162998D01*
X41245540Y-88285910D01*
X41970422Y-88543533D01*
X43053537Y-88887299D01*
X44147757Y-89193885D01*
X44147762Y-89193886D01*
X44147772Y-89193889D01*
X45251814Y-89462936D01*
X45688963Y-89553776D01*
X46364399Y-89694133D01*
X47484235Y-89887213D01*
X48610011Y-90041947D01*
X49740413Y-90158156D01*
X50874123Y-90235704D01*
X52009820Y-90274500D01*
X52009828Y-90274500D01*
X53146172Y-90274500D01*
X53146180Y-90274500D01*
X54281877Y-90235704D01*
X55415587Y-90158156D01*
X56545989Y-90041947D01*
X57671765Y-89887213D01*
X57725164Y-89878006D01*
X78700000Y-89878006D01*
X78700000Y-90121993D01*
X78738165Y-90362959D01*
X78813560Y-90594998D01*
X78924323Y-90812380D01*
X78991543Y-90904901D01*
X78991544Y-90904902D01*
X79610690Y-90285756D01*
X79629668Y-90331574D01*
X79706274Y-90446224D01*
X79803776Y-90543726D01*
X79918426Y-90620332D01*
X79964242Y-90639309D01*
X79345096Y-91258454D01*
X79345097Y-91258456D01*
X79437619Y-91325676D01*
X79655001Y-91436439D01*
X79887040Y-91511834D01*
X80128007Y-91550000D01*
X80371993Y-91550000D01*
X80612959Y-91511834D01*
X80844998Y-91436439D01*
X81062377Y-91325678D01*
X81154901Y-91258454D01*
X81154902Y-91258454D01*
X80535757Y-90639309D01*
X80581574Y-90620332D01*
X80696224Y-90543726D01*
X80793726Y-90446224D01*
X80870332Y-90331574D01*
X80889309Y-90285757D01*
X81508454Y-90904902D01*
X81508454Y-90904901D01*
X81575678Y-90812377D01*
X81686439Y-90594998D01*
X81761834Y-90362959D01*
X81800000Y-90121993D01*
X81800000Y-89878006D01*
X81799995Y-89877973D01*
X99949500Y-89877973D01*
X99949500Y-90122026D01*
X99986170Y-90353553D01*
X99987679Y-90363076D01*
X100063096Y-90595185D01*
X100173762Y-90812380D01*
X100173896Y-90812642D01*
X100317339Y-91010076D01*
X100317343Y-91010081D01*
X100489918Y-91182656D01*
X100489923Y-91182660D01*
X100662136Y-91307779D01*
X100687361Y-91326106D01*
X100904815Y-91436904D01*
X101136924Y-91512321D01*
X101377973Y-91550500D01*
X101377974Y-91550500D01*
X101622026Y-91550500D01*
X101622027Y-91550500D01*
X101863076Y-91512321D01*
X102095185Y-91436904D01*
X102312639Y-91326106D01*
X102510083Y-91182655D01*
X102682655Y-91010083D01*
X102826106Y-90812639D01*
X102936904Y-90595185D01*
X103012321Y-90363076D01*
X103050500Y-90122027D01*
X103050500Y-89877973D01*
X103012321Y-89636924D01*
X102936904Y-89404815D01*
X102826106Y-89187361D01*
X102792189Y-89140678D01*
X102682660Y-88989923D01*
X102682656Y-88989918D01*
X102510081Y-88817343D01*
X102510076Y-88817339D01*
X102312642Y-88673896D01*
X102312641Y-88673895D01*
X102312639Y-88673894D01*
X102095185Y-88563096D01*
X101863076Y-88487679D01*
X101863074Y-88487678D01*
X101863072Y-88487678D01*
X101694769Y-88461021D01*
X101622027Y-88449500D01*
X101377973Y-88449500D01*
X101322093Y-88458350D01*
X101136927Y-88487678D01*
X100904812Y-88563097D01*
X100687357Y-88673896D01*
X100489923Y-88817339D01*
X100489918Y-88817343D01*
X100317343Y-88989918D01*
X100317339Y-88989923D01*
X100173896Y-89187357D01*
X100063097Y-89404812D01*
X99987678Y-89636927D01*
X99949500Y-89877973D01*
X81799995Y-89877973D01*
X81761834Y-89637040D01*
X81686439Y-89405001D01*
X81575676Y-89187619D01*
X81508456Y-89095097D01*
X81508454Y-89095096D01*
X80889309Y-89714241D01*
X80870332Y-89668426D01*
X80793726Y-89553776D01*
X80696224Y-89456274D01*
X80581574Y-89379668D01*
X80535756Y-89360689D01*
X81154902Y-88741544D01*
X81154901Y-88741543D01*
X81062380Y-88674323D01*
X80844998Y-88563560D01*
X80612959Y-88488165D01*
X80371993Y-88450000D01*
X80128007Y-88450000D01*
X79887040Y-88488165D01*
X79655001Y-88563560D01*
X79437626Y-88674319D01*
X79345097Y-88741544D01*
X79964243Y-89360689D01*
X79918426Y-89379668D01*
X79803776Y-89456274D01*
X79706274Y-89553776D01*
X79629668Y-89668426D01*
X79610690Y-89714243D01*
X78991544Y-89095097D01*
X78924319Y-89187626D01*
X78813560Y-89405001D01*
X78738165Y-89637040D01*
X78700000Y-89878006D01*
X57725164Y-89878006D01*
X58791601Y-89694133D01*
X59596467Y-89526879D01*
X59904185Y-89462936D01*
X61008227Y-89193889D01*
X61008229Y-89193888D01*
X61008243Y-89193885D01*
X62102463Y-88887299D01*
X63185578Y-88543533D01*
X64256325Y-88162990D01*
X65313456Y-87746111D01*
X66355738Y-87293384D01*
X67381956Y-86805337D01*
X68390913Y-86282537D01*
X69381432Y-85725596D01*
X70352360Y-85135162D01*
X71302564Y-84511923D01*
X72230935Y-83856607D01*
X73136393Y-83169977D01*
X74017880Y-82452834D01*
X74874369Y-81706014D01*
X75704861Y-80930389D01*
X76508389Y-80126861D01*
X77284014Y-79296369D01*
X78030834Y-78439880D01*
X78747977Y-77558393D01*
X79434607Y-76652935D01*
X80089923Y-75724564D01*
X80713162Y-74774360D01*
X81303596Y-73803432D01*
X81860537Y-72812913D01*
X82383337Y-71803956D01*
X82871384Y-70777738D01*
X83324111Y-69735456D01*
X83740990Y-68678325D01*
X84121533Y-67607578D01*
X84465299Y-66524463D01*
X84771885Y-65430243D01*
X85040934Y-64326193D01*
X85272133Y-63213601D01*
X85465213Y-62093765D01*
X85619947Y-60967989D01*
X85736156Y-59837587D01*
X85813704Y-58703877D01*
X85852500Y-57568180D01*
X85852500Y-56431820D01*
X85813704Y-55296123D01*
X85736156Y-54162413D01*
X85619947Y-53032011D01*
X85465213Y-51906235D01*
X85272133Y-50786399D01*
X85064441Y-49786927D01*
X85040936Y-49673814D01*
X84771889Y-48569772D01*
X84771885Y-48569757D01*
X84465299Y-47475537D01*
X84121533Y-46392422D01*
X83740990Y-45321675D01*
X83324111Y-44264544D01*
X82871384Y-43222262D01*
X82383337Y-42196044D01*
X81860537Y-41187087D01*
X81303596Y-40196568D01*
X80713162Y-39225640D01*
X80089923Y-38275436D01*
X79648806Y-37650516D01*
X79434613Y-37347073D01*
X79126298Y-36940499D01*
X78747977Y-36441607D01*
X78030834Y-35560120D01*
X77284014Y-34703631D01*
X76508389Y-33873139D01*
X76508130Y-33872880D01*
X94123500Y-33872880D01*
X94123500Y-34199119D01*
X94160022Y-34523274D01*
X94160025Y-34523288D01*
X94232617Y-34841335D01*
X94232618Y-34841337D01*
X94340363Y-35149256D01*
X94481910Y-35443179D01*
X94555384Y-35560111D01*
X94655471Y-35719399D01*
X94858870Y-35974454D01*
X95089546Y-36205130D01*
X95344601Y-36408529D01*
X95620825Y-36582092D01*
X95914744Y-36723637D01*
X96222664Y-36831382D01*
X96540711Y-36903975D01*
X96540720Y-36903976D01*
X96540725Y-36903977D01*
X96756828Y-36928325D01*
X96864881Y-36940499D01*
X96864884Y-36940500D01*
X96864887Y-36940500D01*
X97191116Y-36940500D01*
X97191117Y-36940499D01*
X97356784Y-36921833D01*
X97515274Y-36903977D01*
X97515277Y-36903976D01*
X97515289Y-36903975D01*
X97833336Y-36831382D01*
X98141256Y-36723637D01*
X98435175Y-36582092D01*
X98711399Y-36408529D01*
X98966454Y-36205130D01*
X99197130Y-35974454D01*
X99400529Y-35719399D01*
X99574092Y-35443175D01*
X99715637Y-35149256D01*
X99823382Y-34841336D01*
X99895975Y-34523289D01*
X99932500Y-34199113D01*
X99932500Y-33872887D01*
X99895975Y-33548711D01*
X99823382Y-33230664D01*
X99715637Y-32922744D01*
X99574092Y-32628825D01*
X99400529Y-32352601D01*
X99197130Y-32097546D01*
X98966454Y-31866870D01*
X98711399Y-31663471D01*
X98526301Y-31547166D01*
X98435179Y-31489910D01*
X98141256Y-31348363D01*
X97833337Y-31240618D01*
X97833335Y-31240617D01*
X97587881Y-31184593D01*
X97515289Y-31168025D01*
X97515286Y-31168024D01*
X97515274Y-31168022D01*
X97191119Y-31131500D01*
X97191113Y-31131500D01*
X96864887Y-31131500D01*
X96864880Y-31131500D01*
X96540725Y-31168022D01*
X96540711Y-31168025D01*
X96222664Y-31240617D01*
X96222662Y-31240618D01*
X95914743Y-31348363D01*
X95620820Y-31489910D01*
X95344602Y-31663470D01*
X95089546Y-31866869D01*
X94858869Y-32097546D01*
X94655470Y-32352602D01*
X94481910Y-32628820D01*
X94340363Y-32922743D01*
X94232618Y-33230662D01*
X94232617Y-33230664D01*
X94160025Y-33548711D01*
X94160022Y-33548725D01*
X94123500Y-33872880D01*
X76508130Y-33872880D01*
X75704861Y-33069611D01*
X74874369Y-32293986D01*
X74017880Y-31547166D01*
X73136393Y-30830023D01*
X72230935Y-30143393D01*
X72230926Y-30143386D01*
X71302582Y-29488089D01*
X70352346Y-28864829D01*
X69759923Y-28504569D01*
X69381432Y-28274404D01*
X68665880Y-27872069D01*
X68390910Y-27717461D01*
X67381945Y-27194657D01*
X66355741Y-26706617D01*
X65313471Y-26253895D01*
X64256302Y-25837001D01*
X63185590Y-25456471D01*
X63185583Y-25456468D01*
X63185578Y-25456467D01*
X62102463Y-25112701D01*
X61515122Y-24948136D01*
X61008227Y-24806110D01*
X59904185Y-24537063D01*
X58791616Y-24305870D01*
X58791612Y-24305869D01*
X58791601Y-24305867D01*
X58358162Y-24231134D01*
X57671763Y-24112786D01*
X56545992Y-23958053D01*
X55867747Y-23888327D01*
X55415587Y-23841844D01*
X55132159Y-23822457D01*
X54281883Y-23764296D01*
X53795149Y-23747669D01*
X53146180Y-23725500D01*
X52009820Y-23725500D01*
X51404114Y-23746191D01*
X50874116Y-23764296D01*
X49882126Y-23832150D01*
X49740413Y-23841844D01*
X49514332Y-23865085D01*
X48610007Y-23958053D01*
X47484236Y-24112786D01*
X46617198Y-24262279D01*
X46364399Y-24305867D01*
X46364392Y-24305868D01*
X46364383Y-24305870D01*
X45251814Y-24537063D01*
X44147772Y-24806110D01*
X43366171Y-25025105D01*
X43053537Y-25112701D01*
X43053531Y-25112703D01*
X41970409Y-25456471D01*
X40899697Y-25837001D01*
X39842528Y-26253895D01*
X38800258Y-26706617D01*
X37774054Y-27194657D01*
X36765089Y-27717461D01*
X35774556Y-28274411D01*
X34803653Y-28864829D01*
X33853417Y-29488089D01*
X32925073Y-30143386D01*
X32019606Y-30830024D01*
X31138111Y-31547173D01*
X30281653Y-32293966D01*
X30281639Y-32293978D01*
X30281631Y-32293986D01*
X29451139Y-33069611D01*
X29451120Y-33069629D01*
X28647629Y-33873120D01*
X28647614Y-33873135D01*
X28647611Y-33873139D01*
X27871986Y-34703631D01*
X27871978Y-34703639D01*
X27871966Y-34703653D01*
X27125173Y-35560111D01*
X26408024Y-36441606D01*
X25721386Y-37347073D01*
X25066089Y-38275417D01*
X24442829Y-39225653D01*
X23852411Y-40196556D01*
X23295461Y-41187089D01*
X22772657Y-42196054D01*
X22284617Y-43222258D01*
X21831895Y-44264528D01*
X21415001Y-45321697D01*
X21034471Y-46392409D01*
X20690703Y-47475531D01*
X20384110Y-48569772D01*
X20115063Y-49673814D01*
X19883870Y-50786383D01*
X19690786Y-51906236D01*
X19536053Y-53032007D01*
X19419844Y-54162414D01*
X19342296Y-55296116D01*
X19303500Y-56431828D01*
X-380500Y-56431828D01*
X-380500Y-33872880D01*
X4969500Y-33872880D01*
X4969500Y-34199119D01*
X5006022Y-34523274D01*
X5006025Y-34523288D01*
X5078617Y-34841335D01*
X5078618Y-34841337D01*
X5186363Y-35149256D01*
X5327910Y-35443179D01*
X5401384Y-35560111D01*
X5501471Y-35719399D01*
X5704870Y-35974454D01*
X5935546Y-36205130D01*
X6190601Y-36408529D01*
X6466825Y-36582092D01*
X6760744Y-36723637D01*
X7068664Y-36831382D01*
X7386711Y-36903975D01*
X7386720Y-36903976D01*
X7386725Y-36903977D01*
X7602828Y-36928325D01*
X7710881Y-36940499D01*
X7710884Y-36940500D01*
X7710887Y-36940500D01*
X8037116Y-36940500D01*
X8037117Y-36940499D01*
X8202784Y-36921833D01*
X8361274Y-36903977D01*
X8361277Y-36903976D01*
X8361289Y-36903975D01*
X8679336Y-36831382D01*
X8987256Y-36723637D01*
X9281175Y-36582092D01*
X9557399Y-36408529D01*
X9812454Y-36205130D01*
X10043130Y-35974454D01*
X10246529Y-35719399D01*
X10420092Y-35443175D01*
X10561637Y-35149256D01*
X10669382Y-34841336D01*
X10741975Y-34523289D01*
X10778500Y-34199113D01*
X10778500Y-33872887D01*
X10741975Y-33548711D01*
X10669382Y-33230664D01*
X10561637Y-32922744D01*
X10420092Y-32628825D01*
X10246529Y-32352601D01*
X10043130Y-32097546D01*
X9812454Y-31866870D01*
X9557399Y-31663471D01*
X9372301Y-31547166D01*
X9281179Y-31489910D01*
X8987256Y-31348363D01*
X8679337Y-31240618D01*
X8679335Y-31240617D01*
X8433881Y-31184593D01*
X8361289Y-31168025D01*
X8361286Y-31168024D01*
X8361274Y-31168022D01*
X8037119Y-31131500D01*
X8037113Y-31131500D01*
X7710887Y-31131500D01*
X7710880Y-31131500D01*
X7386725Y-31168022D01*
X7386711Y-31168025D01*
X7068664Y-31240617D01*
X7068662Y-31240618D01*
X6760743Y-31348363D01*
X6466820Y-31489910D01*
X6190602Y-31663470D01*
X5935546Y-31866869D01*
X5704869Y-32097546D01*
X5501470Y-32352602D01*
X5327910Y-32628820D01*
X5186363Y-32922743D01*
X5078618Y-33230662D01*
X5078617Y-33230664D01*
X5006025Y-33548711D01*
X5006022Y-33548725D01*
X4969500Y-33872880D01*
X-380500Y-33872880D01*
X-380500Y-19568418D01*
X66420235Y-19568418D01*
X66420235Y-19726111D01*
X66450996Y-19880754D01*
X66450999Y-19880766D01*
X66511337Y-20026437D01*
X66511344Y-20026450D01*
X66598945Y-20157553D01*
X66598948Y-20157557D01*
X66710442Y-20269051D01*
X66710446Y-20269054D01*
X66841549Y-20356655D01*
X66841562Y-20356662D01*
X66924743Y-20391116D01*
X66987238Y-20417002D01*
X67141888Y-20447764D01*
X67141891Y-20447765D01*
X67141893Y-20447765D01*
X67299579Y-20447765D01*
X67299580Y-20447764D01*
X67454232Y-20417002D01*
X67570429Y-20368872D01*
X71499500Y-20368872D01*
X71499500Y-20631127D01*
X71526123Y-20833339D01*
X71533730Y-20891116D01*
X71593229Y-21113169D01*
X71601602Y-21144418D01*
X71601605Y-21144428D01*
X71701953Y-21386690D01*
X71701958Y-21386698D01*
X71833075Y-21613803D01*
X71992718Y-21821851D01*
X71992726Y-21821860D01*
X72178140Y-22007274D01*
X72178148Y-22007281D01*
X72386196Y-22166924D01*
X72613299Y-22298041D01*
X72613309Y-22298046D01*
X72855571Y-22398394D01*
X72855581Y-22398398D01*
X73108884Y-22466270D01*
X73368880Y-22500500D01*
X73368887Y-22500500D01*
X73631113Y-22500500D01*
X73631120Y-22500500D01*
X73891116Y-22466270D01*
X74144419Y-22398398D01*
X74386697Y-22298043D01*
X74613803Y-22166924D01*
X74821851Y-22007282D01*
X74821855Y-22007277D01*
X74821860Y-22007274D01*
X75007274Y-21821860D01*
X75007277Y-21821855D01*
X75007282Y-21821851D01*
X75166924Y-21613803D01*
X75298043Y-21386697D01*
X75398398Y-21144419D01*
X75466270Y-20891116D01*
X75500500Y-20631120D01*
X75500500Y-20368880D01*
X75500499Y-20368872D01*
X78499500Y-20368872D01*
X78499500Y-20631127D01*
X78526123Y-20833339D01*
X78533730Y-20891116D01*
X78593229Y-21113169D01*
X78601602Y-21144418D01*
X78601605Y-21144428D01*
X78701953Y-21386690D01*
X78701958Y-21386698D01*
X78833075Y-21613803D01*
X78992718Y-21821851D01*
X78992726Y-21821860D01*
X79178140Y-22007274D01*
X79178148Y-22007281D01*
X79386196Y-22166924D01*
X79613299Y-22298041D01*
X79613309Y-22298046D01*
X79855571Y-22398394D01*
X79855581Y-22398398D01*
X80108884Y-22466270D01*
X80368880Y-22500500D01*
X80368887Y-22500500D01*
X80631113Y-22500500D01*
X80631120Y-22500500D01*
X80891116Y-22466270D01*
X81144419Y-22398398D01*
X81386697Y-22298043D01*
X81613803Y-22166924D01*
X81821851Y-22007282D01*
X81821855Y-22007277D01*
X81821860Y-22007274D01*
X82007274Y-21821860D01*
X82007277Y-21821855D01*
X82007282Y-21821851D01*
X82166924Y-21613803D01*
X82298043Y-21386697D01*
X82398398Y-21144419D01*
X82466270Y-20891116D01*
X82500500Y-20631120D01*
X82500500Y-20368880D01*
X82466270Y-20108884D01*
X82401959Y-19868872D01*
X84999500Y-19868872D01*
X84999500Y-20131127D01*
X85025386Y-20327737D01*
X85033730Y-20391116D01*
X85101602Y-20644418D01*
X85101605Y-20644428D01*
X85201953Y-20886690D01*
X85201958Y-20886700D01*
X85333075Y-21113803D01*
X85492718Y-21321851D01*
X85492726Y-21321860D01*
X85678140Y-21507274D01*
X85678148Y-21507281D01*
X85886196Y-21666924D01*
X86113299Y-21798041D01*
X86113309Y-21798046D01*
X86355571Y-21898394D01*
X86355581Y-21898398D01*
X86608884Y-21966270D01*
X86868880Y-22000500D01*
X86868887Y-22000500D01*
X87131113Y-22000500D01*
X87131120Y-22000500D01*
X87391116Y-21966270D01*
X87644419Y-21898398D01*
X87829198Y-21821860D01*
X87886690Y-21798046D01*
X87886691Y-21798045D01*
X87886697Y-21798043D01*
X88113803Y-21666924D01*
X88321851Y-21507282D01*
X88321855Y-21507277D01*
X88321860Y-21507274D01*
X88507274Y-21321860D01*
X88507277Y-21321855D01*
X88507282Y-21321851D01*
X88666924Y-21113803D01*
X88798043Y-20886697D01*
X88898398Y-20644419D01*
X88921586Y-20557881D01*
X92113302Y-20557881D01*
X92113302Y-20706514D01*
X92142295Y-20852270D01*
X92142297Y-20852278D01*
X92199173Y-20989589D01*
X92281741Y-21113162D01*
X92281747Y-21113169D01*
X92386830Y-21218252D01*
X92386837Y-21218258D01*
X92510410Y-21300826D01*
X92510411Y-21300826D01*
X92510412Y-21300827D01*
X92647722Y-21357703D01*
X92793450Y-21386690D01*
X92793485Y-21386697D01*
X92793489Y-21386698D01*
X92793490Y-21386698D01*
X92942115Y-21386698D01*
X92942116Y-21386697D01*
X93087882Y-21357703D01*
X93225192Y-21300827D01*
X93348768Y-21218257D01*
X93453861Y-21113164D01*
X93536431Y-20989588D01*
X93593307Y-20852278D01*
X93622302Y-20706510D01*
X93622302Y-20557886D01*
X93593307Y-20412118D01*
X93536431Y-20274808D01*
X93489199Y-20204119D01*
X93468322Y-20137441D01*
X93468302Y-20135229D01*
X93468302Y-19650086D01*
X93487987Y-19583047D01*
X93504621Y-19562405D01*
X93586054Y-19480971D01*
X93586059Y-19480966D01*
X93668629Y-19357390D01*
X93725505Y-19220080D01*
X93754500Y-19074312D01*
X93754500Y-18925688D01*
X93725505Y-18779920D01*
X93668629Y-18642610D01*
X93595878Y-18533730D01*
X93586060Y-18519035D01*
X93586054Y-18519028D01*
X93480971Y-18413945D01*
X93480964Y-18413939D01*
X93357391Y-18331371D01*
X93220080Y-18274495D01*
X93220072Y-18274493D01*
X93074316Y-18245500D01*
X93074312Y-18245500D01*
X92925688Y-18245500D01*
X92925683Y-18245500D01*
X92779927Y-18274493D01*
X92779919Y-18274495D01*
X92642608Y-18331371D01*
X92519035Y-18413939D01*
X92519028Y-18413945D01*
X92413945Y-18519028D01*
X92413939Y-18519035D01*
X92331371Y-18642608D01*
X92274495Y-18779919D01*
X92274493Y-18779927D01*
X92245500Y-18925683D01*
X92245500Y-18925687D01*
X92245500Y-18925688D01*
X92245500Y-19074312D01*
X92245500Y-19074314D01*
X92245499Y-19074314D01*
X92264918Y-19171932D01*
X92267301Y-19196119D01*
X92267301Y-19211255D01*
X92267301Y-19211256D01*
X92267302Y-19221251D01*
X92267302Y-20135229D01*
X92247617Y-20202268D01*
X92246405Y-20204119D01*
X92199172Y-20274809D01*
X92142297Y-20412117D01*
X92142295Y-20412125D01*
X92113302Y-20557881D01*
X88921586Y-20557881D01*
X88966270Y-20391116D01*
X89000500Y-20131120D01*
X89000500Y-19868880D01*
X88966270Y-19608884D01*
X88898398Y-19355581D01*
X88862159Y-19268092D01*
X88798046Y-19113309D01*
X88798041Y-19113299D01*
X88666924Y-18886196D01*
X88525551Y-18701957D01*
X88507282Y-18678149D01*
X88507281Y-18678148D01*
X88507274Y-18678140D01*
X88321860Y-18492726D01*
X88321851Y-18492718D01*
X88113803Y-18333075D01*
X87886700Y-18201958D01*
X87886690Y-18201953D01*
X87644428Y-18101605D01*
X87644421Y-18101603D01*
X87644419Y-18101602D01*
X87391116Y-18033730D01*
X87333339Y-18026123D01*
X87131127Y-17999500D01*
X87131120Y-17999500D01*
X86868880Y-17999500D01*
X86868872Y-17999500D01*
X86637772Y-18029926D01*
X86608884Y-18033730D01*
X86359694Y-18100500D01*
X86355581Y-18101602D01*
X86355571Y-18101605D01*
X86113309Y-18201953D01*
X86113299Y-18201958D01*
X85886196Y-18333075D01*
X85678148Y-18492718D01*
X85492718Y-18678148D01*
X85333075Y-18886196D01*
X85201958Y-19113299D01*
X85201953Y-19113309D01*
X85101605Y-19355571D01*
X85101602Y-19355581D01*
X85033730Y-19608884D01*
X85030049Y-19636842D01*
X84999500Y-19868872D01*
X82401959Y-19868872D01*
X82398398Y-19855581D01*
X82371855Y-19791501D01*
X82298046Y-19613309D01*
X82298041Y-19613299D01*
X82166924Y-19386196D01*
X82007802Y-19178827D01*
X82007282Y-19178149D01*
X82007281Y-19178148D01*
X82007274Y-19178140D01*
X81821860Y-18992726D01*
X81821851Y-18992718D01*
X81613803Y-18833075D01*
X81386700Y-18701958D01*
X81386690Y-18701953D01*
X81144428Y-18601605D01*
X81144421Y-18601603D01*
X81144419Y-18601602D01*
X80891116Y-18533730D01*
X80833339Y-18526123D01*
X80631127Y-18499500D01*
X80631120Y-18499500D01*
X80368880Y-18499500D01*
X80368872Y-18499500D01*
X80137772Y-18529926D01*
X80108884Y-18533730D01*
X79855581Y-18601602D01*
X79855571Y-18601605D01*
X79613309Y-18701953D01*
X79613299Y-18701958D01*
X79386196Y-18833075D01*
X79178148Y-18992718D01*
X78992718Y-19178148D01*
X78833075Y-19386196D01*
X78701958Y-19613299D01*
X78701953Y-19613309D01*
X78601605Y-19855571D01*
X78601603Y-19855578D01*
X78601602Y-19855581D01*
X78544608Y-20068289D01*
X78533730Y-20108885D01*
X78499500Y-20368872D01*
X75500499Y-20368872D01*
X75466270Y-20108884D01*
X75398398Y-19855581D01*
X75371855Y-19791501D01*
X75298046Y-19613309D01*
X75298041Y-19613299D01*
X75166924Y-19386196D01*
X75007802Y-19178827D01*
X75007282Y-19178149D01*
X75007281Y-19178148D01*
X75007274Y-19178140D01*
X74821860Y-18992726D01*
X74821851Y-18992718D01*
X74613803Y-18833075D01*
X74386700Y-18701958D01*
X74386690Y-18701953D01*
X74144428Y-18601605D01*
X74144421Y-18601603D01*
X74144419Y-18601602D01*
X73891116Y-18533730D01*
X73833339Y-18526123D01*
X73631127Y-18499500D01*
X73631120Y-18499500D01*
X73368880Y-18499500D01*
X73368872Y-18499500D01*
X73137772Y-18529926D01*
X73108884Y-18533730D01*
X72855581Y-18601602D01*
X72855571Y-18601605D01*
X72613309Y-18701953D01*
X72613299Y-18701958D01*
X72386196Y-18833075D01*
X72178148Y-18992718D01*
X71992718Y-19178148D01*
X71833075Y-19386196D01*
X71701958Y-19613299D01*
X71701953Y-19613309D01*
X71601605Y-19855571D01*
X71601603Y-19855578D01*
X71601602Y-19855581D01*
X71544608Y-20068289D01*
X71533730Y-20108885D01*
X71499500Y-20368872D01*
X67570429Y-20368872D01*
X67599907Y-20356662D01*
X67599907Y-20356661D01*
X67599914Y-20356659D01*
X67599920Y-20356655D01*
X67731610Y-20268663D01*
X67798288Y-20247785D01*
X67800501Y-20247765D01*
X68895829Y-20247765D01*
X68956829Y-20265676D01*
X68957447Y-20264521D01*
X68962815Y-20267390D01*
X68962821Y-20267394D01*
X68962827Y-20267396D01*
X68962828Y-20267397D01*
X69108498Y-20327735D01*
X69108503Y-20327737D01*
X69253883Y-20356655D01*
X69263153Y-20358499D01*
X69263156Y-20358500D01*
X69263158Y-20358500D01*
X69420844Y-20358500D01*
X69420845Y-20358499D01*
X69575497Y-20327737D01*
X69688166Y-20281067D01*
X69721172Y-20267397D01*
X69721172Y-20267396D01*
X69721179Y-20267394D01*
X69852289Y-20179789D01*
X69963789Y-20068289D01*
X70051394Y-19937179D01*
X70111737Y-19791497D01*
X70142500Y-19636842D01*
X70142500Y-19479158D01*
X70142500Y-19479155D01*
X70142499Y-19479153D01*
X70124009Y-19386197D01*
X70111737Y-19324503D01*
X70088371Y-19268092D01*
X70051397Y-19178827D01*
X70051390Y-19178814D01*
X69963789Y-19047711D01*
X69963786Y-19047707D01*
X69852292Y-18936213D01*
X69852288Y-18936210D01*
X69721185Y-18848609D01*
X69721172Y-18848602D01*
X69575501Y-18788264D01*
X69575489Y-18788261D01*
X69420845Y-18757500D01*
X69420842Y-18757500D01*
X69263158Y-18757500D01*
X69263155Y-18757500D01*
X69108510Y-18788261D01*
X69108498Y-18788264D01*
X68962827Y-18848602D01*
X68962814Y-18848609D01*
X68831712Y-18936209D01*
X68794594Y-18973327D01*
X68757474Y-19010447D01*
X68696154Y-19043931D01*
X68669795Y-19046765D01*
X67800501Y-19046765D01*
X67733462Y-19027080D01*
X67731610Y-19025867D01*
X67599920Y-18937874D01*
X67599907Y-18937867D01*
X67454236Y-18877529D01*
X67454224Y-18877526D01*
X67299580Y-18846765D01*
X67299577Y-18846765D01*
X67141893Y-18846765D01*
X67141890Y-18846765D01*
X66987245Y-18877526D01*
X66987233Y-18877529D01*
X66841562Y-18937867D01*
X66841549Y-18937874D01*
X66710446Y-19025475D01*
X66710442Y-19025478D01*
X66598948Y-19136972D01*
X66598945Y-19136976D01*
X66511344Y-19268079D01*
X66511337Y-19268092D01*
X66450999Y-19413763D01*
X66450996Y-19413775D01*
X66420235Y-19568418D01*
X-380500Y-19568418D01*
X-380500Y-17421153D01*
X32473500Y-17421153D01*
X32473500Y-17578846D01*
X32504261Y-17733489D01*
X32504264Y-17733501D01*
X32564602Y-17879172D01*
X32564609Y-17879185D01*
X32652210Y-18010288D01*
X32652213Y-18010292D01*
X32763707Y-18121786D01*
X32763711Y-18121789D01*
X32894814Y-18209390D01*
X32894827Y-18209397D01*
X32981989Y-18245500D01*
X33040503Y-18269737D01*
X33195153Y-18300499D01*
X33195156Y-18300500D01*
X33195158Y-18300500D01*
X33352844Y-18300500D01*
X33352845Y-18300499D01*
X33507497Y-18269737D01*
X33653179Y-18209394D01*
X33664315Y-18201953D01*
X33784875Y-18121398D01*
X33851553Y-18100520D01*
X33853766Y-18100500D01*
X36250234Y-18100500D01*
X36317273Y-18120185D01*
X36319125Y-18121398D01*
X36450814Y-18209390D01*
X36450827Y-18209397D01*
X36537989Y-18245500D01*
X36596503Y-18269737D01*
X36751153Y-18300499D01*
X36751156Y-18300500D01*
X36751158Y-18300500D01*
X36908844Y-18300500D01*
X36908845Y-18300499D01*
X37063497Y-18269737D01*
X37209179Y-18209394D01*
X37340289Y-18121789D01*
X37451789Y-18010289D01*
X37539394Y-17879179D01*
X37599737Y-17733497D01*
X37630500Y-17578842D01*
X37630500Y-17421158D01*
X37630500Y-17421155D01*
X37630499Y-17421153D01*
X37599738Y-17266510D01*
X37599737Y-17266503D01*
X37599735Y-17266498D01*
X37539397Y-17120827D01*
X37539390Y-17120814D01*
X37451789Y-16989711D01*
X37451786Y-16989707D01*
X37340292Y-16878213D01*
X37340288Y-16878210D01*
X37209185Y-16790609D01*
X37209172Y-16790602D01*
X37063501Y-16730264D01*
X37063489Y-16730261D01*
X36908845Y-16699500D01*
X36908842Y-16699500D01*
X36751158Y-16699500D01*
X36751155Y-16699500D01*
X36596510Y-16730261D01*
X36596498Y-16730264D01*
X36450827Y-16790602D01*
X36450814Y-16790609D01*
X36319125Y-16878602D01*
X36252447Y-16899480D01*
X36250234Y-16899500D01*
X33853766Y-16899500D01*
X33786727Y-16879815D01*
X33784875Y-16878602D01*
X33653185Y-16790609D01*
X33653172Y-16790602D01*
X33507501Y-16730264D01*
X33507489Y-16730261D01*
X33352845Y-16699500D01*
X33352842Y-16699500D01*
X33195158Y-16699500D01*
X33195155Y-16699500D01*
X33040510Y-16730261D01*
X33040498Y-16730264D01*
X32894827Y-16790602D01*
X32894814Y-16790609D01*
X32763711Y-16878210D01*
X32763707Y-16878213D01*
X32652213Y-16989707D01*
X32652210Y-16989711D01*
X32564609Y-17120814D01*
X32564602Y-17120827D01*
X32504264Y-17266498D01*
X32504261Y-17266510D01*
X32473500Y-17421153D01*
X-380500Y-17421153D01*
X-380500Y-8727418D01*
X41701235Y-8727418D01*
X41701235Y-8885111D01*
X41731996Y-9039754D01*
X41731999Y-9039766D01*
X41792337Y-9185437D01*
X41792344Y-9185450D01*
X41879945Y-9316553D01*
X41879948Y-9316557D01*
X41991442Y-9428051D01*
X41991446Y-9428054D01*
X42122549Y-9515655D01*
X42122562Y-9515662D01*
X42268233Y-9576000D01*
X42268238Y-9576002D01*
X42422888Y-9606764D01*
X42422891Y-9606765D01*
X42422893Y-9606765D01*
X42580579Y-9606765D01*
X42580580Y-9606764D01*
X42735232Y-9576002D01*
X42880914Y-9515659D01*
X43012024Y-9428054D01*
X43123524Y-9316554D01*
X43211129Y-9185444D01*
X43212349Y-9182500D01*
X43231501Y-9136261D01*
X43271472Y-9039762D01*
X43302235Y-8885107D01*
X43302235Y-8727423D01*
X43302235Y-8727420D01*
X43302234Y-8727418D01*
X43273417Y-8582547D01*
X43271472Y-8572768D01*
X43228605Y-8469277D01*
X43221113Y-8451189D01*
X43213644Y-8381720D01*
X43244919Y-8319241D01*
X43288221Y-8289176D01*
X43332960Y-8270645D01*
X43464070Y-8183040D01*
X43575570Y-8071540D01*
X43663175Y-7940430D01*
X43723518Y-7794748D01*
X43754281Y-7640093D01*
X43754281Y-7482409D01*
X43754281Y-7482406D01*
X43754280Y-7482404D01*
X43723519Y-7327761D01*
X43723519Y-7327759D01*
X43723518Y-7327754D01*
X43716031Y-7309679D01*
X43663178Y-7182078D01*
X43663171Y-7182065D01*
X43575570Y-7050962D01*
X43575567Y-7050958D01*
X43464073Y-6939464D01*
X43464069Y-6939461D01*
X43332966Y-6851860D01*
X43332953Y-6851853D01*
X43187282Y-6791515D01*
X43187270Y-6791512D01*
X43032626Y-6760751D01*
X43032623Y-6760751D01*
X42874939Y-6760751D01*
X42874936Y-6760751D01*
X42720291Y-6791512D01*
X42720279Y-6791515D01*
X42574608Y-6851853D01*
X42574595Y-6851860D01*
X42443492Y-6939461D01*
X42443488Y-6939464D01*
X42331994Y-7050958D01*
X42331991Y-7050962D01*
X42244390Y-7182065D01*
X42244383Y-7182078D01*
X42184045Y-7327749D01*
X42184042Y-7327759D01*
X42153143Y-7483099D01*
X42146996Y-7496112D01*
X42145708Y-7507264D01*
X42132402Y-7527008D01*
X42127459Y-7537474D01*
X42123554Y-7542241D01*
X42021215Y-7644581D01*
X41982002Y-7712501D01*
X41976955Y-7721241D01*
X41976952Y-7721246D01*
X41942158Y-7781511D01*
X41938611Y-7794748D01*
X41901234Y-7934240D01*
X41901234Y-7934242D01*
X41901234Y-8102343D01*
X41901235Y-8102356D01*
X41901235Y-8226499D01*
X41881550Y-8293538D01*
X41880337Y-8295390D01*
X41792344Y-8427079D01*
X41792337Y-8427092D01*
X41731999Y-8572763D01*
X41731996Y-8572775D01*
X41701235Y-8727418D01*
X-380500Y-8727418D01*
X-380500Y7783119D01*
X4969500Y7783119D01*
X4969500Y7456880D01*
X5006022Y7132725D01*
X5006025Y7132711D01*
X5078617Y6814664D01*
X5078618Y6814662D01*
X5186363Y6506743D01*
X5327910Y6212820D01*
X5501470Y5936602D01*
X5704869Y5681546D01*
X5935546Y5450869D01*
X6190602Y5247470D01*
X6466820Y5073910D01*
X6760743Y4932363D01*
X7068662Y4824618D01*
X7068664Y4824617D01*
X7386711Y4752025D01*
X7386725Y4752022D01*
X7710880Y4715500D01*
X7710887Y4715500D01*
X8037119Y4715500D01*
X8361274Y4752022D01*
X8361286Y4752024D01*
X8361289Y4752025D01*
X8450719Y4772437D01*
X8679335Y4824617D01*
X8679337Y4824618D01*
X8987256Y4932363D01*
X9177696Y5024075D01*
X9281175Y5073908D01*
X9281179Y5073910D01*
X9465324Y5189616D01*
X9557399Y5247471D01*
X9812454Y5450870D01*
X10043130Y5681546D01*
X10246529Y5936601D01*
X10420092Y6212825D01*
X10561637Y6506744D01*
X10669382Y6814664D01*
X10741975Y7132711D01*
X10745653Y7165349D01*
X10778499Y7456880D01*
X10778500Y7456884D01*
X10778500Y7783115D01*
X10778499Y7783119D01*
X10749829Y8037589D01*
X10748620Y8048322D01*
X25025000Y8048322D01*
X25025000Y8025000D01*
X25750000Y8025000D01*
X25750000Y8724998D01*
X26250000Y8724998D01*
X26250000Y8025000D01*
X26974999Y8025000D01*
X26984263Y8034264D01*
X27045586Y8067749D01*
X27115278Y8062765D01*
X27171211Y8020893D01*
X27177482Y8011680D01*
X27257680Y7881659D01*
X27257683Y7881655D01*
X27381654Y7757684D01*
X27530875Y7665643D01*
X27530880Y7665641D01*
X27697302Y7610494D01*
X27697309Y7610493D01*
X27800013Y7600000D01*
X28125000Y7600000D01*
X28125000Y8350000D01*
X27100001Y8350000D01*
X27078494Y8328493D01*
X27017171Y8295008D01*
X26947479Y8299992D01*
X26891546Y8341864D01*
X26885274Y8351077D01*
X26822571Y8452733D01*
X26702732Y8572572D01*
X26702728Y8572575D01*
X26558492Y8661542D01*
X26558481Y8661547D01*
X26397606Y8714855D01*
X26298316Y8724999D01*
X26250000Y8724998D01*
X25750000Y8724998D01*
X25750000Y8724999D01*
X25701692Y8724999D01*
X25701677Y8724998D01*
X25602392Y8714855D01*
X25441518Y8661547D01*
X25441507Y8661542D01*
X25297271Y8572575D01*
X25297267Y8572572D01*
X25177427Y8452732D01*
X25177424Y8452728D01*
X25088457Y8308492D01*
X25088452Y8308481D01*
X25035144Y8147606D01*
X25025000Y8048322D01*
X10748620Y8048322D01*
X10744674Y8083338D01*
X10741975Y8107289D01*
X10669382Y8425336D01*
X10561637Y8733256D01*
X10481343Y8899986D01*
X27100000Y8899986D01*
X27100000Y8850000D01*
X28125000Y8850000D01*
X28125000Y9599999D01*
X27800028Y9599999D01*
X27800013Y9599998D01*
X27697302Y9589505D01*
X27530880Y9534358D01*
X27530875Y9534356D01*
X27381654Y9442315D01*
X27257684Y9318345D01*
X27165643Y9169124D01*
X27165641Y9169119D01*
X27110494Y9002697D01*
X27110493Y9002690D01*
X27100000Y8899986D01*
X10481343Y8899986D01*
X10420092Y9027175D01*
X10246529Y9303399D01*
X10043130Y9558454D01*
X9812454Y9789130D01*
X9557399Y9992529D01*
X9281175Y10166092D01*
X8987256Y10307637D01*
X8679336Y10415382D01*
X8361289Y10487975D01*
X8361277Y10487976D01*
X8361274Y10487977D01*
X8202784Y10505833D01*
X8037116Y10524499D01*
X8037115Y10524500D01*
X8037113Y10524500D01*
X7710887Y10524500D01*
X7710885Y10524500D01*
X7710882Y10524499D01*
X7602828Y10512325D01*
X7386725Y10487977D01*
X7386720Y10487976D01*
X7386711Y10487975D01*
X7068664Y10415382D01*
X6760744Y10307637D01*
X6466825Y10166092D01*
X6190601Y9992529D01*
X5951984Y9802239D01*
X5935546Y9789130D01*
X5704869Y9558453D01*
X5673789Y9519480D01*
X5501471Y9303399D01*
X5501470Y9303397D01*
X5327910Y9027179D01*
X5327908Y9027175D01*
X5264292Y8895076D01*
X5186363Y8733256D01*
X5078618Y8425337D01*
X5078617Y8425335D01*
X5040527Y8258451D01*
X5010627Y8127449D01*
X5006025Y8107288D01*
X5006022Y8107274D01*
X4969500Y7783119D01*
X-380500Y7783119D01*
X-380500Y13547864D01*
X19999500Y13547864D01*
X19999500Y12452129D01*
X19999501Y12452123D01*
X20005908Y12392516D01*
X20056202Y12257671D01*
X20056206Y12257664D01*
X20142452Y12142455D01*
X20142455Y12142452D01*
X20257664Y12056206D01*
X20257671Y12056202D01*
X20392517Y12005908D01*
X20392516Y12005908D01*
X20452116Y11999501D01*
X20452119Y11999500D01*
X20452127Y11999500D01*
X20452134Y11999500D01*
X20452135Y11999500D01*
X21547870Y11999500D01*
X21547876Y11999501D01*
X21607483Y12005908D01*
X21742328Y12056202D01*
X21742335Y12056206D01*
X21857544Y12142452D01*
X21857547Y12142455D01*
X21943793Y12257664D01*
X21943797Y12257671D01*
X21979071Y12352247D01*
X21994091Y12392517D01*
X22000500Y12452127D01*
X22000499Y13099900D01*
X22009144Y13129344D01*
X22015666Y13159325D01*
X22019419Y13164339D01*
X22020183Y13166939D01*
X22036817Y13187580D01*
X22073208Y13223972D01*
X22134530Y13257458D01*
X22136699Y13257909D01*
X22220072Y13274493D01*
X22220080Y13274495D01*
X22357391Y13331371D01*
X22480964Y13413939D01*
X22480971Y13413945D01*
X22586054Y13519028D01*
X22586060Y13519035D01*
X22668628Y13642608D01*
X22668629Y13642610D01*
X22725505Y13779920D01*
X22754500Y13925688D01*
X22754500Y14074312D01*
X22725505Y14220080D01*
X22668629Y14357390D01*
X22586059Y14480966D01*
X22480966Y14586059D01*
X22357390Y14668629D01*
X22220080Y14725505D01*
X22074314Y14754499D01*
X22074313Y14754500D01*
X22074312Y14754500D01*
X21925688Y14754500D01*
X21925687Y14754500D01*
X21925683Y14754499D01*
X21779920Y14725505D01*
X21642610Y14668629D01*
X21642608Y14668628D01*
X21519035Y14586060D01*
X21519028Y14586054D01*
X21413945Y14480971D01*
X21413939Y14480964D01*
X21331371Y14357391D01*
X21274495Y14220080D01*
X21274493Y14220072D01*
X21257909Y14136698D01*
X21249144Y14119941D01*
X21245124Y14101462D01*
X21226379Y14076423D01*
X21225524Y14074787D01*
X21223973Y14073208D01*
X21187583Y14036818D01*
X21126260Y14003333D01*
X21099902Y14000499D01*
X20452128Y14000499D01*
X20403757Y13995299D01*
X20392516Y13994091D01*
X20257671Y13943797D01*
X20257664Y13943793D01*
X20142455Y13857547D01*
X20142452Y13857544D01*
X20056206Y13742335D01*
X20056202Y13742328D01*
X20005908Y13607482D01*
X20002119Y13572236D01*
X19999501Y13547876D01*
X19999500Y13547864D01*
X-380500Y13547864D01*
X-380500Y14979908D01*
X-379903Y14992063D01*
X-367065Y15122404D01*
X-362322Y15146245D01*
X-326076Y15265730D01*
X-316774Y15288187D01*
X-257921Y15398293D01*
X-244416Y15418505D01*
X-165208Y15515020D01*
X-148020Y15532208D01*
X-51506Y15611416D01*
X-31294Y15624921D01*
X78812Y15683774D01*
X101269Y15693076D01*
X220753Y15729322D01*
X244595Y15734065D01*
X374940Y15746903D01*
X387094Y15747500D01*
X425876Y15747500D01*
X25630934Y15747500D01*
X25697973Y15727815D01*
G37*
%TD.AperFunction*%
%TA.AperFunction,Conductor*%
G36*
X37479424Y4896949D02*
G01*
X37488386Y4898238D01*
X37512426Y4887259D01*
X37537778Y4879815D01*
X37543705Y4872974D01*
X37551942Y4869213D01*
X37566231Y4846978D01*
X37583533Y4827011D01*
X37585820Y4816496D01*
X37589716Y4810435D01*
X37594739Y4775500D01*
X37594739Y4751683D01*
X37623732Y4605927D01*
X37623734Y4605919D01*
X37680610Y4468608D01*
X37763178Y4345035D01*
X37763184Y4345028D01*
X37868267Y4239945D01*
X37868274Y4239939D01*
X37991847Y4157371D01*
X38129158Y4100495D01*
X38129166Y4100493D01*
X38274922Y4071500D01*
X38274927Y4071500D01*
X38423555Y4071500D01*
X38569311Y4100493D01*
X38569319Y4100495D01*
X38706630Y4157371D01*
X38830203Y4239939D01*
X38830210Y4239945D01*
X38935293Y4345028D01*
X38935299Y4345035D01*
X39017867Y4468608D01*
X39049311Y4544520D01*
X39074744Y4605920D01*
X39095551Y4710528D01*
X39127935Y4772437D01*
X39188650Y4807011D01*
X39258420Y4803272D01*
X39315092Y4762406D01*
X39338785Y4710527D01*
X39362261Y4592508D01*
X39362264Y4592498D01*
X39422602Y4446827D01*
X39422609Y4446814D01*
X39510210Y4315711D01*
X39510213Y4315707D01*
X39621707Y4204213D01*
X39621711Y4204210D01*
X39752814Y4116609D01*
X39752827Y4116602D01*
X39898498Y4056264D01*
X39898508Y4056261D01*
X40053850Y4025361D01*
X40115761Y3992976D01*
X40117339Y3991425D01*
X41273181Y2835583D01*
X41287884Y2808655D01*
X41304477Y2782837D01*
X41305368Y2776636D01*
X41306666Y2774260D01*
X41309500Y2747902D01*
X41309500Y2657927D01*
X41289815Y2590888D01*
X41237011Y2545133D01*
X41167853Y2535189D01*
X41138050Y2543365D01*
X41127497Y2547737D01*
X41050520Y2563048D01*
X40972845Y2578500D01*
X40972842Y2578500D01*
X40815158Y2578500D01*
X40815155Y2578500D01*
X40721858Y2559941D01*
X40660503Y2547737D01*
X40660498Y2547735D01*
X40514827Y2487397D01*
X40514814Y2487390D01*
X40383711Y2399789D01*
X40383707Y2399786D01*
X40272213Y2288292D01*
X40272210Y2288288D01*
X40184609Y2157185D01*
X40184602Y2157172D01*
X40124264Y2011501D01*
X40124261Y2011489D01*
X40093500Y1856846D01*
X40093500Y1699153D01*
X40124261Y1544510D01*
X40124264Y1544498D01*
X40184602Y1398827D01*
X40184609Y1398814D01*
X40272210Y1267711D01*
X40272213Y1267707D01*
X40383707Y1156213D01*
X40383711Y1156210D01*
X40492391Y1083592D01*
X40537196Y1029979D01*
X40547500Y980490D01*
X40547500Y-798657D01*
X40527815Y-865696D01*
X40475011Y-911451D01*
X40447692Y-920274D01*
X40339952Y-941705D01*
X40339942Y-941708D01*
X40194271Y-1002046D01*
X40194258Y-1002053D01*
X40063155Y-1089654D01*
X40063151Y-1089657D01*
X39951657Y-1201151D01*
X39951654Y-1201155D01*
X39864053Y-1332258D01*
X39864046Y-1332271D01*
X39803708Y-1477942D01*
X39803705Y-1477954D01*
X39772944Y-1632597D01*
X39772944Y-1775500D01*
X39770393Y-1784185D01*
X39771682Y-1793147D01*
X39760703Y-1817187D01*
X39753259Y-1842539D01*
X39746418Y-1848466D01*
X39742657Y-1856703D01*
X39720422Y-1870992D01*
X39700455Y-1888294D01*
X39689940Y-1890581D01*
X39683879Y-1894477D01*
X39648944Y-1899500D01*
X39496967Y-1899500D01*
X39429928Y-1879815D01*
X39428111Y-1878625D01*
X39357390Y-1831371D01*
X39357391Y-1831371D01*
X39357389Y-1831370D01*
X39220080Y-1774495D01*
X39220072Y-1774493D01*
X39074316Y-1745500D01*
X39074312Y-1745500D01*
X38925688Y-1745500D01*
X38925683Y-1745500D01*
X38779927Y-1774493D01*
X38779919Y-1774495D01*
X38642608Y-1831371D01*
X38519035Y-1913939D01*
X38519028Y-1913945D01*
X38413945Y-2019028D01*
X38413939Y-2019035D01*
X38331371Y-2142608D01*
X38274495Y-2279919D01*
X38274493Y-2279927D01*
X38245500Y-2425683D01*
X38245500Y-2574316D01*
X38274493Y-2720072D01*
X38274495Y-2720080D01*
X38331371Y-2857391D01*
X38413939Y-2980964D01*
X38413945Y-2980971D01*
X38430793Y-2997819D01*
X38464278Y-3059142D01*
X38459294Y-3128834D01*
X38417422Y-3184767D01*
X38351958Y-3209184D01*
X38343112Y-3209500D01*
X34726521Y-3209500D01*
X34659482Y-3189815D01*
X34619795Y-3148631D01*
X34614185Y-3139148D01*
X34583796Y-3057669D01*
X34498926Y-2944298D01*
X34495501Y-2938507D01*
X34488494Y-2910903D01*
X34478543Y-2884223D01*
X34480010Y-2877476D01*
X34478312Y-2870785D01*
X34487340Y-2843777D01*
X34493394Y-2815950D01*
X34498275Y-2811067D01*
X34500465Y-2804520D01*
X34522661Y-2786682D01*
X34542799Y-2766544D01*
X34551770Y-2763288D01*
X34554927Y-2760752D01*
X34560346Y-2760176D01*
X34578028Y-2753760D01*
X34720080Y-2725505D01*
X34857390Y-2668629D01*
X34980966Y-2586059D01*
X35086059Y-2480966D01*
X35168629Y-2357390D01*
X35225505Y-2220080D01*
X35254500Y-2074312D01*
X35254500Y-1925688D01*
X35225505Y-1779920D01*
X35168629Y-1642610D01*
X35086059Y-1519034D01*
X35086054Y-1519028D01*
X34980971Y-1413945D01*
X34980964Y-1413939D01*
X34857391Y-1331371D01*
X34717046Y-1273238D01*
X34662643Y-1229397D01*
X34640578Y-1163103D01*
X34640499Y-1158677D01*
X34640499Y647870D01*
X34640499Y647873D01*
X34634091Y707483D01*
X34583796Y842331D01*
X34497546Y957546D01*
X34382331Y1043796D01*
X34247483Y1094091D01*
X34187873Y1100500D01*
X33871023Y1100499D01*
X33803987Y1120183D01*
X33758232Y1172987D01*
X33748288Y1242146D01*
X33777313Y1305701D01*
X33783345Y1312180D01*
X33860872Y1389707D01*
X33860875Y1389711D01*
X33948476Y1520814D01*
X33948483Y1520827D01*
X34008821Y1666498D01*
X34008823Y1666503D01*
X34039586Y1821158D01*
X34039723Y1821847D01*
X34059345Y1868176D01*
X34065723Y1877401D01*
X34105520Y1917198D01*
X34165161Y2020500D01*
X34184577Y2054129D01*
X34225501Y2206857D01*
X34225501Y2364971D01*
X34225501Y2374960D01*
X34225500Y2374973D01*
X34225500Y4294845D01*
X34245185Y4361884D01*
X34297989Y4407639D01*
X34310495Y4412551D01*
X34425497Y4450660D01*
X34469334Y4465186D01*
X34474886Y4468610D01*
X34597952Y4544518D01*
X34618656Y4557288D01*
X34742712Y4681344D01*
X34834814Y4830666D01*
X34834814Y4830667D01*
X34838605Y4836813D01*
X34840399Y4835706D01*
X34879687Y4880337D01*
X34945908Y4899500D01*
X37470739Y4899500D01*
X37479424Y4896949D01*
G37*
%TD.AperFunction*%
%TD*%
M02*
