M48
; DRILL file {KiCad 9.0.6} date 2026-04-28T02:04:29-0700
; FORMAT={-:-/ absolute / metric / decimal}
; #@! TF.CreationDate,2026-04-28T02:04:29-07:00
; #@! TF.GenerationSoftware,Kicad,Pcbnew,9.0.6
; #@! TF.FileFunction,Plated,1,2,PTH
FMAT,2
METRIC
; #@! TA.AperFunction,Plated,PTH,ViaDrill
T1C0.300
; #@! TA.AperFunction,Plated,PTH,ComponentDrill
T2C0.900
; #@! TA.AperFunction,Plated,PTH,ComponentDrill
T3C1.400
; #@! TA.AperFunction,Plated,PTH,ComponentDrill
T4C1.600
; #@! TA.AperFunction,Plated,PTH,ComponentDrill
T5C2.000
%
G90
G05
T1
X9.224Y-93.743
X17.272Y-21.946
X17.424Y-34.798
X22.301Y-22.098
X22.504Y-2.845
X24.079Y-10.516
X25.4Y-3.302
X26.568Y-14.275
X27.534Y-22.86
X27.534Y-35.56
X27.889Y-4.521
X28.753Y-22.809
X29.551Y-22.862
X30.175Y-11.633
X30.277Y-13.767
X31.293Y-35.306
X31.852Y-8.687
X32.207Y-28.6
X32.309Y-8.026
X33.172Y-26.984
X33.274Y-28.591
X33.68Y-12.852
X34.29Y-26.924
X34.493Y-14.021
X34.646Y-28.591
X34.956Y-35.509
X35.052Y-17.729
X35.865Y-26.873
X36.017Y-11.481
X36.22Y-8.128
X36.424Y-10.465
X36.627Y-5.842
X36.932Y-11.582
X37.449Y-6.248
X37.919Y-10.595
X38.717Y-9.441
X38.884Y-16.945
X39.929Y-7.976
X39.975Y-1.662
X40.228Y-14.972
X40.36Y-2.363
X40.497Y-14.218
X40.742Y-8.89
X40.825Y-17.965
X41.111Y-10.521
X41.554Y-9.855
X42.266Y-26.67
X42.358Y-15.291
X42.621Y-34.747
X42.875Y-14.63
X43.207Y-13.892
X43.586Y-4.423
X43.703Y-12.863
X44.501Y-12.802
X44.856Y-7.468
X44.856Y-11.379
X46.634Y-23.063
X46.673Y-10.406
X47.071Y-5.131
X48.158Y-27.28
X49.124Y-10.82
X49.916Y-5.16
X51.054Y-24.74
X53.848Y-14.834
X55.067Y-28.753
X56.012Y-3.406
X56.794Y-28.346
X57.404Y-8.484
X57.556Y-25.857
X59.03Y-5.131
X59.06Y-3.406
X59.334Y-9.581
X61.011Y-6.299
X61.417Y-32.817
X62.789Y-6.35
X62.959Y-34.933
X67.666Y-8.077
X68.174Y-10.312
X69.698Y-12.141
X70.409Y-21.336
X72.029Y-16.216
X72.339Y-30.683
X72.593Y-23.927
X73.863Y-6.045
X74.115Y-23.573
X74.676Y-0.554
X74.727Y-6.045
X75.54Y-1.016
X76.98Y-5.182
X79.68Y-5.911
X81.94Y-26.01
X82.804Y-2.845
X83.312Y-5.385
X83.438Y-13.082
X84.176Y-25.806
X84.734Y-12.954
X85.801Y-31.547
X86.97Y-31.293
X87.427Y-21.031
X87.455Y-29.943
X88.494Y-39.878
X90.424Y-31.09
T2
X48.26Y-21.199
X49.53Y-23.749
X50.8Y-21.199
X52.07Y-23.749
X53.34Y-21.199
X54.61Y-23.749
X55.88Y-21.199
X57.15Y-23.749
T3
X4.262Y-115.509
X4.262Y-121.203
X7.109Y-126.134
X12.04Y-128.981
X12.059Y-121.184
X25.512Y-115.509
X42.616Y-123.536
X42.616Y-129.23
X45.463Y-134.161
X50.394Y-137.008
X50.413Y-129.211
X63.866Y-123.536
X80.97Y-115.509
X80.97Y-121.203
X83.817Y-126.134
X88.748Y-128.981
X88.767Y-121.184
X102.22Y-115.509
T4
X44.83Y-17.599
X47.205Y-14.279
X58.205Y-14.279
X60.58Y-17.599
T5
X73.58Y-36.779
X80.416Y-38.303
X87.08Y-36.279
M30
