%TF.GenerationSoftware,KiCad,Pcbnew,9.0.7*%
%TF.CreationDate,2026-02-10T03:54:41-08:00*%
%TF.ProjectId,steering_wheel,73746565-7269-46e6-975f-776865656c2e,rev?*%
%TF.SameCoordinates,Original*%
%TF.FileFunction,Paste,Top*%
%TF.FilePolarity,Positive*%
%FSLAX46Y46*%
G04 Gerber Fmt 4.6, Leading zero omitted, Abs format (unit mm)*
G04 Created by KiCad (PCBNEW 9.0.7) date 2026-02-10 03:54:41*
%MOMM*%
%LPD*%
G01*
G04 APERTURE LIST*
G04 Aperture macros list*
%AMRoundRect*
0 Rectangle with rounded corners*
0 $1 Rounding radius*
0 $2 $3 $4 $5 $6 $7 $8 $9 X,Y pos of 4 corners*
0 Add a 4 corners polygon primitive as box body*
4,1,4,$2,$3,$4,$5,$6,$7,$8,$9,$2,$3,0*
0 Add four circle primitives for the rounded corners*
1,1,$1+$1,$2,$3*
1,1,$1+$1,$4,$5*
1,1,$1+$1,$6,$7*
1,1,$1+$1,$8,$9*
0 Add four rect primitives between the rounded corners*
20,1,$1+$1,$2,$3,$4,$5,0*
20,1,$1+$1,$4,$5,$6,$7,0*
20,1,$1+$1,$6,$7,$8,$9,0*
20,1,$1+$1,$8,$9,$2,$3,0*%
G04 Aperture macros list end*
%ADD10R,2.489200X1.244600*%
%ADD11R,8.204200X1.092200*%
%ADD12RoundRect,0.225000X0.225000X0.250000X-0.225000X0.250000X-0.225000X-0.250000X0.225000X-0.250000X0*%
%ADD13RoundRect,0.250000X-0.337500X-0.475000X0.337500X-0.475000X0.337500X0.475000X-0.337500X0.475000X0*%
%ADD14RoundRect,0.225000X-0.225000X-0.250000X0.225000X-0.250000X0.225000X0.250000X-0.225000X0.250000X0*%
%ADD15RoundRect,0.200000X-0.275000X0.200000X-0.275000X-0.200000X0.275000X-0.200000X0.275000X0.200000X0*%
%ADD16RoundRect,0.237500X-0.237500X0.300000X-0.237500X-0.300000X0.237500X-0.300000X0.237500X0.300000X0*%
%ADD17RoundRect,0.200000X-0.200000X-0.275000X0.200000X-0.275000X0.200000X0.275000X-0.200000X0.275000X0*%
%ADD18RoundRect,0.250000X-0.312500X-1.075000X0.312500X-1.075000X0.312500X1.075000X-0.312500X1.075000X0*%
%ADD19R,0.254000X1.295400*%
%ADD20R,1.727200X2.794000*%
%ADD21RoundRect,0.250000X0.337500X0.475000X-0.337500X0.475000X-0.337500X-0.475000X0.337500X-0.475000X0*%
%ADD22RoundRect,0.200000X0.200000X0.275000X-0.200000X0.275000X-0.200000X-0.275000X0.200000X-0.275000X0*%
%ADD23RoundRect,0.225000X0.250000X-0.225000X0.250000X0.225000X-0.250000X0.225000X-0.250000X-0.225000X0*%
%ADD24RoundRect,0.237500X0.237500X-0.287500X0.237500X0.287500X-0.237500X0.287500X-0.237500X-0.287500X0*%
%ADD25RoundRect,0.150000X0.150000X-0.512500X0.150000X0.512500X-0.150000X0.512500X-0.150000X-0.512500X0*%
%ADD26RoundRect,0.249999X-0.710001X0.710001X-0.710001X-0.710001X0.710001X-0.710001X0.710001X0.710001X0*%
%ADD27RoundRect,0.062500X-0.062500X0.350000X-0.062500X-0.350000X0.062500X-0.350000X0.062500X0.350000X0*%
%ADD28RoundRect,0.062500X-0.350000X0.062500X-0.350000X-0.062500X0.350000X-0.062500X0.350000X0.062500X0*%
%ADD29RoundRect,0.237500X0.237500X-0.300000X0.237500X0.300000X-0.237500X0.300000X-0.237500X-0.300000X0*%
%ADD30RoundRect,0.200000X0.275000X-0.200000X0.275000X0.200000X-0.275000X0.200000X-0.275000X-0.200000X0*%
%ADD31RoundRect,0.150000X0.512500X0.150000X-0.512500X0.150000X-0.512500X-0.150000X0.512500X-0.150000X0*%
%ADD32RoundRect,0.200000X0.250000X0.200000X-0.250000X0.200000X-0.250000X-0.200000X0.250000X-0.200000X0*%
%ADD33RoundRect,0.250000X0.750000X0.650000X-0.750000X0.650000X-0.750000X-0.650000X0.750000X-0.650000X0*%
%ADD34RoundRect,0.322500X2.827500X-0.752500X2.827500X0.752500X-2.827500X0.752500X-2.827500X-0.752500X0*%
%ADD35RoundRect,0.150000X-0.150000X0.825000X-0.150000X-0.825000X0.150000X-0.825000X0.150000X0.825000X0*%
%ADD36RoundRect,0.125000X0.125000X-0.625000X0.125000X0.625000X-0.125000X0.625000X-0.125000X-0.625000X0*%
%ADD37RoundRect,0.125000X0.625000X-0.125000X0.625000X0.125000X-0.625000X0.125000X-0.625000X-0.125000X0*%
%ADD38RoundRect,0.225000X-0.250000X0.225000X-0.250000X-0.225000X0.250000X-0.225000X0.250000X0.225000X0*%
G04 APERTURE END LIST*
D10*
%TO.C,J5*%
X10389998Y-22229999D03*
X10389998Y-19729999D03*
D11*
X6000000Y-17459998D03*
X6000000Y-24500000D03*
%TD*%
D12*
%TO.C,C24*%
X86000000Y-8500000D03*
X84450000Y-8500000D03*
%TD*%
D13*
%TO.C,C1*%
X57382500Y-10160000D03*
X59457500Y-10160000D03*
%TD*%
D12*
%TO.C,C13*%
X70275000Y2000000D03*
X68725000Y2000000D03*
%TD*%
D14*
%TO.C,C15*%
X82725000Y4500000D03*
X84275000Y4500000D03*
%TD*%
D15*
%TO.C,R6*%
X14732000Y-28107000D03*
X14732000Y-29757000D03*
%TD*%
D12*
%TO.C,C14*%
X70275000Y8000000D03*
X68725000Y8000000D03*
%TD*%
D16*
%TO.C,C22*%
X48500000Y10362500D03*
X48500000Y8637500D03*
%TD*%
D14*
%TO.C,C2*%
X56479000Y-16002000D03*
X58029000Y-16002000D03*
%TD*%
D17*
%TO.C,R4*%
X15000000Y-19500000D03*
X16650000Y-19500000D03*
%TD*%
D14*
%TO.C,C10*%
X68725000Y3500000D03*
X70275000Y3500000D03*
%TD*%
D18*
%TO.C,R11*%
X88537500Y-14500000D03*
X91462500Y-14500000D03*
%TD*%
D10*
%TO.C,J6*%
X94816601Y-21250000D03*
X94816601Y-23750000D03*
D11*
X99206599Y-26020001D03*
X99206599Y-18979999D03*
%TD*%
D16*
%TO.C,C23*%
X45500000Y10362500D03*
X45500000Y8637500D03*
%TD*%
D19*
%TO.C,J4*%
X88000000Y-6277800D03*
X87499998Y-6277800D03*
X86999999Y-6277800D03*
X86500000Y-6277800D03*
X85999999Y-6277800D03*
X85500000Y-6277800D03*
X84999998Y-6277800D03*
X84499999Y-6277800D03*
X84000000Y-6277800D03*
X83499999Y-6277800D03*
X83000000Y-6277800D03*
X82499998Y-6277800D03*
X81999999Y-6277800D03*
X81500000Y-6277800D03*
X80999999Y-6277800D03*
X80500000Y-6277800D03*
X79999998Y-6277800D03*
X79499999Y-6277800D03*
X79000000Y-6277800D03*
X78499999Y-6277800D03*
X77999999Y-6277800D03*
X77499998Y-6277800D03*
X76999999Y-6277800D03*
X76500000Y-6277800D03*
X75999998Y-6277800D03*
X75499999Y-6277800D03*
X74999998Y-6277800D03*
X74499999Y-6277800D03*
X74000000Y-6277800D03*
X73499998Y-6277800D03*
X72999999Y-6277800D03*
X72500000Y-6277800D03*
X71999999Y-6277800D03*
X71500000Y-6277800D03*
X70999998Y-6277800D03*
X70499999Y-6277800D03*
X70000000Y-6277800D03*
X69499999Y-6277800D03*
X69000000Y-6277800D03*
X68499998Y-6277800D03*
D20*
X89939998Y-3197801D03*
X66560000Y-3197801D03*
%TD*%
D12*
%TO.C,C11*%
X70275000Y5000000D03*
X68725000Y5000000D03*
%TD*%
D14*
%TO.C,C6*%
X54838000Y-3302000D03*
X56388000Y-3302000D03*
%TD*%
D21*
%TO.C,C3*%
X54123500Y-9906000D03*
X52048500Y-9906000D03*
%TD*%
D16*
%TO.C,C19*%
X60490000Y10362500D03*
X60490000Y8637500D03*
%TD*%
D22*
%TO.C,R9*%
X40449000Y-23368000D03*
X38799000Y-23368000D03*
%TD*%
D10*
%TO.C,J3*%
X10389998Y-10765199D03*
X10389998Y-8265199D03*
D11*
X6000000Y-5995198D03*
X6000000Y-13035200D03*
%TD*%
D23*
%TO.C,C4*%
X47034000Y-12293000D03*
X47034000Y-10743000D03*
%TD*%
D22*
%TO.C,R7*%
X92325000Y-27000000D03*
X90675000Y-27000000D03*
%TD*%
D24*
%TO.C,FB1*%
X51500000Y8625000D03*
X51500000Y10375000D03*
%TD*%
D25*
%TO.C,U7*%
X84600000Y-13637500D03*
X85550000Y-13637500D03*
X86500000Y-13637500D03*
X86500000Y-11362500D03*
X85550000Y-11362500D03*
X84600000Y-11362500D03*
%TD*%
D16*
%TO.C,C20*%
X57500000Y10362500D03*
X57500000Y8637500D03*
%TD*%
D26*
%TO.C,U4*%
X78630000Y6817500D03*
X76250000Y6817500D03*
X73870000Y6817500D03*
X78630000Y4437500D03*
X76250000Y4437500D03*
X73870000Y4437500D03*
X78630000Y2057500D03*
X76250000Y2057500D03*
X73870000Y2057500D03*
D27*
X80000000Y8875000D03*
X79500000Y8875000D03*
X79000000Y8875000D03*
X78500000Y8875000D03*
X78000000Y8875000D03*
X77500000Y8875000D03*
X77000000Y8875000D03*
X76500000Y8875000D03*
X76000000Y8875000D03*
X75500000Y8875000D03*
X75000000Y8875000D03*
X74500000Y8875000D03*
X74000000Y8875000D03*
X73500000Y8875000D03*
X73000000Y8875000D03*
X72500000Y8875000D03*
D28*
X71812500Y8187500D03*
X71812500Y7687500D03*
X71812500Y7187500D03*
X71812500Y6687500D03*
X71812500Y6187500D03*
X71812500Y5687500D03*
X71812500Y5187500D03*
X71812500Y4687500D03*
X71812500Y4187500D03*
X71812500Y3687500D03*
X71812500Y3187500D03*
X71812500Y2687500D03*
X71812500Y2187500D03*
X71812500Y1687500D03*
X71812500Y1187500D03*
X71812500Y687500D03*
D27*
X72500000Y0D03*
X73000000Y0D03*
X73500000Y0D03*
X74000000Y0D03*
X74500000Y0D03*
X75000000Y0D03*
X75500000Y0D03*
X76000000Y0D03*
X76500000Y0D03*
X77000000Y0D03*
X77500000Y0D03*
X78000000Y0D03*
X78500000Y0D03*
X79000000Y0D03*
X79500000Y0D03*
X80000000Y0D03*
D28*
X80687500Y687500D03*
X80687500Y1187500D03*
X80687500Y1687500D03*
X80687500Y2187500D03*
X80687500Y2687500D03*
X80687500Y3187500D03*
X80687500Y3687500D03*
X80687500Y4187500D03*
X80687500Y4687500D03*
X80687500Y5187500D03*
X80687500Y5687500D03*
X80687500Y6187500D03*
X80687500Y6687500D03*
X80687500Y7187500D03*
X80687500Y7687500D03*
X80687500Y8187500D03*
%TD*%
D15*
%TO.C,R5*%
X14732000Y-22107000D03*
X14732000Y-23757000D03*
%TD*%
D22*
%TO.C,R12*%
X33083000Y-23622000D03*
X31433000Y-23622000D03*
%TD*%
D29*
%TO.C,C16*%
X34500000Y-362500D03*
X34500000Y1362500D03*
%TD*%
D14*
%TO.C,C29*%
X31483000Y-20320000D03*
X33033000Y-20320000D03*
%TD*%
%TO.C,C27*%
X39034000Y-20066000D03*
X40584000Y-20066000D03*
%TD*%
D15*
%TO.C,R17*%
X18500000Y-6675000D03*
X18500000Y-8325000D03*
%TD*%
D14*
%TO.C,C8*%
X80725000Y14460000D03*
X82275000Y14460000D03*
%TD*%
D30*
%TO.C,R18*%
X47244000Y-7683000D03*
X47244000Y-6033000D03*
%TD*%
D31*
%TO.C,U1*%
X59303500Y-14158000D03*
X59303500Y-13208000D03*
X59303500Y-12258000D03*
X57028500Y-12258000D03*
X57028500Y-13208000D03*
X57028500Y-14158000D03*
%TD*%
D16*
%TO.C,C17*%
X39500000Y362500D03*
X39500000Y-1362500D03*
%TD*%
D23*
%TO.C,C26*%
X21500000Y-8275000D03*
X21500000Y-6725000D03*
%TD*%
D32*
%TO.C,Y1*%
X37900000Y1050000D03*
X36500000Y1050000D03*
X36500000Y-50000D03*
X37900000Y-50000D03*
%TD*%
D14*
%TO.C,C9*%
X80725000Y11500000D03*
X82275000Y11500000D03*
%TD*%
D22*
%TO.C,R1*%
X32325000Y3500000D03*
X30675000Y3500000D03*
%TD*%
D33*
%TO.C,L1*%
X54320000Y-13970000D03*
X49820000Y-13970000D03*
%TD*%
D15*
%TO.C,R3*%
X14732000Y-25107000D03*
X14732000Y-26757000D03*
%TD*%
D22*
%TO.C,R10*%
X36639000Y-23622000D03*
X34989000Y-23622000D03*
%TD*%
D34*
%TO.C,L2*%
X79000000Y-16000000D03*
X79000000Y-11850000D03*
%TD*%
D35*
%TO.C,U3*%
X53213000Y2221000D03*
X51943000Y2221000D03*
X50673000Y2221000D03*
X49403000Y2221000D03*
X49403000Y-2729000D03*
X50673000Y-2729000D03*
X51943000Y-2729000D03*
X53213000Y-2729000D03*
%TD*%
D31*
%TO.C,U2*%
X45333500Y-11872000D03*
X45333500Y-10922000D03*
X45333500Y-9972000D03*
X43058500Y-9972000D03*
X43058500Y-11872000D03*
%TD*%
D36*
%TO.C,U5*%
X36200000Y3325000D03*
X37000000Y3325000D03*
X37800000Y3325000D03*
X38600000Y3325000D03*
X39400000Y3325000D03*
X40200000Y3325000D03*
X41000000Y3325000D03*
X41800000Y3325000D03*
D37*
X43175000Y4700000D03*
X43175000Y5500000D03*
X43175000Y6300000D03*
X43175000Y7100000D03*
X43175000Y7900000D03*
X43175000Y8700000D03*
X43175000Y9500000D03*
X43175000Y10300000D03*
D36*
X41800000Y11675000D03*
X41000000Y11675000D03*
X40200000Y11675000D03*
X39400000Y11675000D03*
X38600000Y11675000D03*
X37800000Y11675000D03*
X37000000Y11675000D03*
X36200000Y11675000D03*
D37*
X34825000Y10300000D03*
X34825000Y9500000D03*
X34825000Y8700000D03*
X34825000Y7900000D03*
X34825000Y7100000D03*
X34825000Y6300000D03*
X34825000Y5500000D03*
X34825000Y4700000D03*
%TD*%
D14*
%TO.C,C28*%
X35039000Y-20320000D03*
X36589000Y-20320000D03*
%TD*%
%TO.C,C25*%
X78981000Y-9906000D03*
X80531000Y-9906000D03*
%TD*%
D23*
%TO.C,C12*%
X76000000Y10500000D03*
X76000000Y12050000D03*
%TD*%
%TO.C,C5*%
X41196000Y-11697000D03*
X41196000Y-10147000D03*
%TD*%
D17*
%TO.C,R2*%
X31175000Y6000000D03*
X32825000Y6000000D03*
%TD*%
D38*
%TO.C,C7*%
X55118000Y2820000D03*
X55118000Y1270000D03*
%TD*%
D16*
%TO.C,C21*%
X54500000Y10362500D03*
X54500000Y8637500D03*
%TD*%
D30*
%TO.C,R8*%
X16500000Y-8325000D03*
X16500000Y-6675000D03*
%TD*%
M02*
