%TF.GenerationSoftware,KiCad,Pcbnew,9.0.7*%
%TF.CreationDate,2026-02-11T01:53:08-08:00*%
%TF.ProjectId,steering_wheel,73746565-7269-46e6-975f-776865656c2e,rev?*%
%TF.SameCoordinates,Original*%
%TF.FileFunction,Soldermask,Bot*%
%TF.FilePolarity,Negative*%
%FSLAX46Y46*%
G04 Gerber Fmt 4.6, Leading zero omitted, Abs format (unit mm)*
G04 Created by KiCad (PCBNEW 9.0.7) date 2026-02-11 01:53:08*
%MOMM*%
%LPD*%
G01*
G04 APERTURE LIST*
G04 Aperture macros list*
%AMRoundRect*
0 Rectangle with rounded corners*
0 $1 Rounding radius*
0 $2 $3 $4 $5 $6 $7 $8 $9 X,Y pos of 4 corners*
0 Add a 4 corners polygon primitive as box body*
4,1,4,$2,$3,$4,$5,$6,$7,$8,$9,$2,$3,0*
0 Add four circle primitives for the rounded corners*
1,1,$1+$1,$2,$3*
1,1,$1+$1,$4,$5*
1,1,$1+$1,$6,$7*
1,1,$1+$1,$8,$9*
0 Add four rect primitives between the rounded corners*
20,1,$1+$1,$2,$3,$4,$5,0*
20,1,$1+$1,$4,$5,$6,$7,0*
20,1,$1+$1,$6,$7,$8,$9,0*
20,1,$1+$1,$8,$9,$2,$3,0*%
G04 Aperture macros list end*
%ADD10C,5.300000*%
%ADD11R,2.100000X2.100000*%
%ADD12C,2.100000*%
%ADD13C,3.000000*%
%ADD14R,1.000000X1.000000*%
%ADD15RoundRect,0.250000X0.525000X0.250000X-0.525000X0.250000X-0.525000X-0.250000X0.525000X-0.250000X0*%
%ADD16RoundRect,0.225000X-0.250000X0.225000X-0.250000X-0.225000X0.250000X-0.225000X0.250000X0.225000X0*%
%ADD17R,0.740000X2.400000*%
%ADD18C,1.400000*%
%ADD19C,2.400000*%
G04 APERTURE END LIST*
D10*
%TO.C,REF\u002A\u002A*%
X7874000Y-34036000D03*
%TD*%
D11*
%TO.C,S1*%
X88028000Y-103472000D03*
D12*
X83097000Y-100625000D03*
X80250000Y-95694000D03*
X80250000Y-90000000D03*
X88047000Y-95675000D03*
X101500000Y-90000000D03*
%TD*%
D10*
%TO.C,REF\u002A\u002A*%
X7874000Y7620000D03*
%TD*%
%TO.C,REF\u002A\u002A*%
X21336000Y-117856000D03*
%TD*%
D11*
%TO.C,S2*%
X49731000Y-120607000D03*
D12*
X44800000Y-117760000D03*
X41953000Y-112829000D03*
X41953000Y-107135000D03*
X49750000Y-112810000D03*
X63203000Y-107135000D03*
%TD*%
D10*
%TO.C,REF\u002A\u002A*%
X84074000Y-117856000D03*
%TD*%
D11*
%TO.C,S3*%
X12153000Y-104125000D03*
D12*
X7222000Y-101278000D03*
X4375000Y-96347000D03*
X4375000Y-90653000D03*
X12172000Y-96328000D03*
X25625000Y-90653000D03*
%TD*%
D10*
%TO.C,REF\u002A\u002A*%
X97028000Y-34036000D03*
%TD*%
D13*
%TO.C,J10*%
X73500000Y-20500000D03*
%TD*%
D10*
%TO.C,REF\u002A\u002A*%
X97028000Y7620000D03*
%TD*%
D13*
%TO.C,J11*%
X87000000Y-20000000D03*
%TD*%
%TO.C,J12*%
X80500000Y-20500000D03*
%TD*%
D14*
%TO.C,TP5*%
X29500000Y13000000D03*
%TD*%
%TO.C,TP1*%
X21000000Y13000000D03*
%TD*%
%TO.C,TP3*%
X27000000Y13000000D03*
%TD*%
D15*
%TO.C,SW1*%
X33625000Y8600000D03*
X28375000Y8600000D03*
X33625000Y5400000D03*
X28375000Y5400000D03*
%TD*%
D16*
%TO.C,C18*%
X26000000Y7775000D03*
X26000000Y6225000D03*
%TD*%
D14*
%TO.C,TP2*%
X24000000Y13000000D03*
%TD*%
D17*
%TO.C,J2*%
X26150000Y-600000D03*
X26150000Y-4500000D03*
X27420000Y-600000D03*
X27420000Y-4500000D03*
X28690000Y-600000D03*
X28690000Y-4500000D03*
X29960000Y-600000D03*
X29960000Y-4500000D03*
X31230000Y-600000D03*
X31230000Y-4500000D03*
X32500000Y-600000D03*
X32500000Y-4500000D03*
X33770000Y-600000D03*
X33770000Y-4500000D03*
%TD*%
D14*
%TO.C,TP4*%
X32000000Y13000000D03*
%TD*%
D18*
%TO.C,J1*%
X49450000Y-7470000D03*
X48180000Y-4920000D03*
X50720000Y-4920000D03*
X53260000Y-4920000D03*
X51990000Y-7470000D03*
X54530000Y-7470000D03*
X57070000Y-7470000D03*
X55800000Y-4920000D03*
D19*
X60500000Y-1320000D03*
X44750000Y-1320000D03*
X47125000Y2000000D03*
X58125000Y2000000D03*
%TD*%
M02*
