M48
; DRILL file {KiCad 9.0.7} date 2026-02-10T03:54:39-0800
; FORMAT={-:-/ absolute / metric / decimal}
; #@! TF.CreationDate,2026-02-10T03:54:39-08:00
; #@! TF.GenerationSoftware,Kicad,Pcbnew,9.0.7
; #@! TF.FileFunction,Plated,1,2,PTH
FMAT,2
METRIC
; #@! TA.AperFunction,Plated,PTH,ViaDrill
T1C0.254
; #@! TA.AperFunction,Plated,PTH,ViaDrill
T2C0.300
; #@! TA.AperFunction,Plated,PTH,ComponentDrill
T3C0.900
; #@! TA.AperFunction,Plated,PTH,ComponentDrill
T4C1.400
; #@! TA.AperFunction,Plated,PTH,ComponentDrill
T5C1.600
; #@! TA.AperFunction,Plated,PTH,ComponentDrill
T6C2.000
%
G90
G05
T1
X18.0Y-19.0
X22.0Y14.0
X26.832Y-7.189
X26.997Y-6.501
X27.76Y-6.26
X29.717Y10.283
X31.5Y7.65
X32.071Y11.001
X32.167Y8.833
X32.32Y2.374
X34.285Y13.215
X34.5Y4.0
X34.5Y-2.0
X34.851Y13.781
X35.0Y2.5
X36.075Y9.481
X36.167Y12.833
X36.845Y8.845
X37.0Y12.954
X37.23Y9.626
X38.0Y-1.0
X38.349Y4.826
X39.0Y-2.5
X39.108Y13.108
X39.757Y13.456
X41.66Y9.34
X43.0Y12.5
X43.0Y1.5
X44.85Y6.75
X49.5Y8.5
X56.0Y11.0
X60.5Y4.749
X62.0Y7.0
X62.582Y4.667
X63.0Y8.0
X64.238Y9.154
X64.5Y6.0
X64.9Y11.0
X65.658Y6.309
X66.1Y11.5
X67.391Y8.109
X68.0Y6.5
X68.0Y4.0
X69.0Y0.5
X70.5Y1.0
X71.5Y-1.0
X71.69Y0.062
X72.136Y-7.62
X73.0Y9.9
X74.859Y10.359
X77.0Y12.05
X79.623Y-1.623
X83.0Y9.188
X83.277Y3.277
X83.566Y-8.382
X85.0Y-15.0
X85.079Y3.724
X86.5Y-15.5
X87.475Y-13.764
X87.5Y-5.0
X91.0Y-12.0
X92.868Y-20.632
X93.0Y-19.0
T2
X14.732Y-31.242
X30.5Y2.6
X33.02Y-2.54
X33.02Y-21.844
X33.239Y1.9
X33.274Y-17.5
X34.559Y-7.76
X34.561Y-6.96
X36.322Y-21.844
X36.83Y-17.5
X37.123Y-7.16
X37.9Y7.748
X38.465Y8.314
X38.608Y-7.559
X39.37Y8.128
X39.746Y-3.1
X40.132Y4.826
X40.573Y-1.711
X40.64Y-21.59
X40.894Y1.778
X41.148Y-8.89
X42.4Y0.762
X42.502Y-8.806
X42.954Y-7.561
X43.672Y3.017
X44.704Y3.549
X47.244Y-9.652
X50.038Y0.854
X50.038Y-115.062
X50.8Y-115.824
X52.324Y-1.27
X54.102Y7.366
X54.102Y-11.43
X54.356Y3.549
X55.118Y-0.254
X55.118Y-12.192
X56.642Y-11.43
X57.15Y-6.096
X58.166Y-12.7
X64.516Y-8.382
X65.278Y-14.986
X67.221Y-19.647
X69.342Y-19.558
X81.788Y-9.906
X84.836Y-9.906
X86.15Y-9.906
T3
X48.18Y-4.92
X49.45Y-7.47
X50.72Y-4.92
X51.99Y-7.47
X53.26Y-4.92
X54.53Y-7.47
X55.8Y-4.92
X57.07Y-7.47
T4
X4.375Y-90.653
X4.375Y-96.347
X7.222Y-101.278
X12.153Y-104.125
X12.172Y-96.328
X25.625Y-90.653
X41.953Y-107.135
X41.953Y-112.829
X44.8Y-117.76
X49.731Y-120.607
X49.75Y-112.81
X63.203Y-107.135
X80.25Y-90.0
X80.25Y-95.694
X83.097Y-100.625
X88.028Y-103.472
X88.047Y-95.675
X101.5Y-90.0
T5
X44.75Y-1.32
X47.125Y2.0
X58.125Y2.0
X60.5Y-1.32
T6
X73.5Y-20.5
X80.5Y-20.5
X87.0Y-20.0
M30
