%TF.GenerationSoftware,KiCad,Pcbnew,9.0.6*%
%TF.CreationDate,2026-04-28T02:04:34-07:00*%
%TF.ProjectId,steering_wheel,73746565-7269-46e6-975f-776865656c2e,rev?*%
%TF.SameCoordinates,Original*%
%TF.FileFunction,Legend,Top*%
%TF.FilePolarity,Positive*%
%FSLAX46Y46*%
G04 Gerber Fmt 4.6, Leading zero omitted, Abs format (unit mm)*
G04 Created by KiCad (PCBNEW 9.0.6) date 2026-04-28 02:04:34*
%MOMM*%
%LPD*%
G01*
G04 APERTURE LIST*
%ADD10C,0.152400*%
%ADD11C,0.554000*%
%ADD12C,0.120000*%
%ADD13C,0.200000*%
%ADD14C,0.508000*%
G04 APERTURE END LIST*
D10*
X14703607Y-31798933D02*
X13977892Y-31798933D01*
X13977892Y-31798933D02*
X13832749Y-31750552D01*
X13832749Y-31750552D02*
X13735988Y-31653790D01*
X13735988Y-31653790D02*
X13687607Y-31508647D01*
X13687607Y-31508647D02*
X13687607Y-31411885D01*
X14703607Y-32766552D02*
X14703607Y-32282742D01*
X14703607Y-32282742D02*
X14219797Y-32234361D01*
X14219797Y-32234361D02*
X14268178Y-32282742D01*
X14268178Y-32282742D02*
X14316559Y-32379504D01*
X14316559Y-32379504D02*
X14316559Y-32621409D01*
X14316559Y-32621409D02*
X14268178Y-32718171D01*
X14268178Y-32718171D02*
X14219797Y-32766552D01*
X14219797Y-32766552D02*
X14123035Y-32814933D01*
X14123035Y-32814933D02*
X13881130Y-32814933D01*
X13881130Y-32814933D02*
X13784368Y-32766552D01*
X13784368Y-32766552D02*
X13735988Y-32718171D01*
X13735988Y-32718171D02*
X13687607Y-32621409D01*
X13687607Y-32621409D02*
X13687607Y-32379504D01*
X13687607Y-32379504D02*
X13735988Y-32282742D01*
X13735988Y-32282742D02*
X13784368Y-32234361D01*
X87818857Y-25280334D02*
X87770476Y-25328715D01*
X87770476Y-25328715D02*
X87625333Y-25377095D01*
X87625333Y-25377095D02*
X87528571Y-25377095D01*
X87528571Y-25377095D02*
X87383428Y-25328715D01*
X87383428Y-25328715D02*
X87286666Y-25231953D01*
X87286666Y-25231953D02*
X87238285Y-25135191D01*
X87238285Y-25135191D02*
X87189904Y-24941667D01*
X87189904Y-24941667D02*
X87189904Y-24796524D01*
X87189904Y-24796524D02*
X87238285Y-24603000D01*
X87238285Y-24603000D02*
X87286666Y-24506238D01*
X87286666Y-24506238D02*
X87383428Y-24409476D01*
X87383428Y-24409476D02*
X87528571Y-24361095D01*
X87528571Y-24361095D02*
X87625333Y-24361095D01*
X87625333Y-24361095D02*
X87770476Y-24409476D01*
X87770476Y-24409476D02*
X87818857Y-24457857D01*
X88205904Y-24457857D02*
X88254285Y-24409476D01*
X88254285Y-24409476D02*
X88351047Y-24361095D01*
X88351047Y-24361095D02*
X88592952Y-24361095D01*
X88592952Y-24361095D02*
X88689714Y-24409476D01*
X88689714Y-24409476D02*
X88738095Y-24457857D01*
X88738095Y-24457857D02*
X88786476Y-24554619D01*
X88786476Y-24554619D02*
X88786476Y-24651381D01*
X88786476Y-24651381D02*
X88738095Y-24796524D01*
X88738095Y-24796524D02*
X88157523Y-25377095D01*
X88157523Y-25377095D02*
X88786476Y-25377095D01*
X89657333Y-24699762D02*
X89657333Y-25377095D01*
X89415428Y-24312715D02*
X89173523Y-25038429D01*
X89173523Y-25038429D02*
X89802476Y-25038429D01*
X59041867Y-26292734D02*
X58993486Y-26341115D01*
X58993486Y-26341115D02*
X58848343Y-26389495D01*
X58848343Y-26389495D02*
X58751581Y-26389495D01*
X58751581Y-26389495D02*
X58606438Y-26341115D01*
X58606438Y-26341115D02*
X58509676Y-26244353D01*
X58509676Y-26244353D02*
X58461295Y-26147591D01*
X58461295Y-26147591D02*
X58412914Y-25954067D01*
X58412914Y-25954067D02*
X58412914Y-25808924D01*
X58412914Y-25808924D02*
X58461295Y-25615400D01*
X58461295Y-25615400D02*
X58509676Y-25518638D01*
X58509676Y-25518638D02*
X58606438Y-25421876D01*
X58606438Y-25421876D02*
X58751581Y-25373495D01*
X58751581Y-25373495D02*
X58848343Y-25373495D01*
X58848343Y-25373495D02*
X58993486Y-25421876D01*
X58993486Y-25421876D02*
X59041867Y-25470257D01*
X60009486Y-26389495D02*
X59428914Y-26389495D01*
X59719200Y-26389495D02*
X59719200Y-25373495D01*
X59719200Y-25373495D02*
X59622438Y-25518638D01*
X59622438Y-25518638D02*
X59525676Y-25615400D01*
X59525676Y-25615400D02*
X59428914Y-25663781D01*
X65926857Y-14644334D02*
X65878476Y-14692715D01*
X65878476Y-14692715D02*
X65733333Y-14741095D01*
X65733333Y-14741095D02*
X65636571Y-14741095D01*
X65636571Y-14741095D02*
X65491428Y-14692715D01*
X65491428Y-14692715D02*
X65394666Y-14595953D01*
X65394666Y-14595953D02*
X65346285Y-14499191D01*
X65346285Y-14499191D02*
X65297904Y-14305667D01*
X65297904Y-14305667D02*
X65297904Y-14160524D01*
X65297904Y-14160524D02*
X65346285Y-13967000D01*
X65346285Y-13967000D02*
X65394666Y-13870238D01*
X65394666Y-13870238D02*
X65491428Y-13773476D01*
X65491428Y-13773476D02*
X65636571Y-13725095D01*
X65636571Y-13725095D02*
X65733333Y-13725095D01*
X65733333Y-13725095D02*
X65878476Y-13773476D01*
X65878476Y-13773476D02*
X65926857Y-13821857D01*
X66894476Y-14741095D02*
X66313904Y-14741095D01*
X66604190Y-14741095D02*
X66604190Y-13725095D01*
X66604190Y-13725095D02*
X66507428Y-13870238D01*
X66507428Y-13870238D02*
X66410666Y-13967000D01*
X66410666Y-13967000D02*
X66313904Y-14015381D01*
X67233142Y-13725095D02*
X67862095Y-13725095D01*
X67862095Y-13725095D02*
X67523428Y-14112143D01*
X67523428Y-14112143D02*
X67668571Y-14112143D01*
X67668571Y-14112143D02*
X67765333Y-14160524D01*
X67765333Y-14160524D02*
X67813714Y-14208905D01*
X67813714Y-14208905D02*
X67862095Y-14305667D01*
X67862095Y-14305667D02*
X67862095Y-14547572D01*
X67862095Y-14547572D02*
X67813714Y-14644334D01*
X67813714Y-14644334D02*
X67765333Y-14692715D01*
X67765333Y-14692715D02*
X67668571Y-14741095D01*
X67668571Y-14741095D02*
X67378285Y-14741095D01*
X67378285Y-14741095D02*
X67281523Y-14692715D01*
X67281523Y-14692715D02*
X67233142Y-14644334D01*
X90820504Y-118769915D02*
X90965647Y-118818295D01*
X90965647Y-118818295D02*
X91207552Y-118818295D01*
X91207552Y-118818295D02*
X91304314Y-118769915D01*
X91304314Y-118769915D02*
X91352695Y-118721534D01*
X91352695Y-118721534D02*
X91401076Y-118624772D01*
X91401076Y-118624772D02*
X91401076Y-118528010D01*
X91401076Y-118528010D02*
X91352695Y-118431248D01*
X91352695Y-118431248D02*
X91304314Y-118382867D01*
X91304314Y-118382867D02*
X91207552Y-118334486D01*
X91207552Y-118334486D02*
X91014028Y-118286105D01*
X91014028Y-118286105D02*
X90917266Y-118237724D01*
X90917266Y-118237724D02*
X90868885Y-118189343D01*
X90868885Y-118189343D02*
X90820504Y-118092581D01*
X90820504Y-118092581D02*
X90820504Y-117995819D01*
X90820504Y-117995819D02*
X90868885Y-117899057D01*
X90868885Y-117899057D02*
X90917266Y-117850676D01*
X90917266Y-117850676D02*
X91014028Y-117802295D01*
X91014028Y-117802295D02*
X91255933Y-117802295D01*
X91255933Y-117802295D02*
X91401076Y-117850676D01*
X92368695Y-118818295D02*
X91788123Y-118818295D01*
X92078409Y-118818295D02*
X92078409Y-117802295D01*
X92078409Y-117802295D02*
X91981647Y-117947438D01*
X91981647Y-117947438D02*
X91884885Y-118044200D01*
X91884885Y-118044200D02*
X91788123Y-118092581D01*
X82926857Y-10714334D02*
X82878476Y-10762715D01*
X82878476Y-10762715D02*
X82733333Y-10811095D01*
X82733333Y-10811095D02*
X82636571Y-10811095D01*
X82636571Y-10811095D02*
X82491428Y-10762715D01*
X82491428Y-10762715D02*
X82394666Y-10665953D01*
X82394666Y-10665953D02*
X82346285Y-10569191D01*
X82346285Y-10569191D02*
X82297904Y-10375667D01*
X82297904Y-10375667D02*
X82297904Y-10230524D01*
X82297904Y-10230524D02*
X82346285Y-10037000D01*
X82346285Y-10037000D02*
X82394666Y-9940238D01*
X82394666Y-9940238D02*
X82491428Y-9843476D01*
X82491428Y-9843476D02*
X82636571Y-9795095D01*
X82636571Y-9795095D02*
X82733333Y-9795095D01*
X82733333Y-9795095D02*
X82878476Y-9843476D01*
X82878476Y-9843476D02*
X82926857Y-9891857D01*
X83894476Y-10811095D02*
X83313904Y-10811095D01*
X83604190Y-10811095D02*
X83604190Y-9795095D01*
X83604190Y-9795095D02*
X83507428Y-9940238D01*
X83507428Y-9940238D02*
X83410666Y-10037000D01*
X83410666Y-10037000D02*
X83313904Y-10085381D01*
X84813714Y-9795095D02*
X84329904Y-9795095D01*
X84329904Y-9795095D02*
X84281523Y-10278905D01*
X84281523Y-10278905D02*
X84329904Y-10230524D01*
X84329904Y-10230524D02*
X84426666Y-10182143D01*
X84426666Y-10182143D02*
X84668571Y-10182143D01*
X84668571Y-10182143D02*
X84765333Y-10230524D01*
X84765333Y-10230524D02*
X84813714Y-10278905D01*
X84813714Y-10278905D02*
X84862095Y-10375667D01*
X84862095Y-10375667D02*
X84862095Y-10617572D01*
X84862095Y-10617572D02*
X84813714Y-10714334D01*
X84813714Y-10714334D02*
X84765333Y-10762715D01*
X84765333Y-10762715D02*
X84668571Y-10811095D01*
X84668571Y-10811095D02*
X84426666Y-10811095D01*
X84426666Y-10811095D02*
X84329904Y-10762715D01*
X84329904Y-10762715D02*
X84281523Y-10714334D01*
X8814695Y-95637048D02*
X8330886Y-95975715D01*
X8814695Y-96217620D02*
X7798695Y-96217620D01*
X7798695Y-96217620D02*
X7798695Y-95830572D01*
X7798695Y-95830572D02*
X7847076Y-95733810D01*
X7847076Y-95733810D02*
X7895457Y-95685429D01*
X7895457Y-95685429D02*
X7992219Y-95637048D01*
X7992219Y-95637048D02*
X8137362Y-95637048D01*
X8137362Y-95637048D02*
X8234124Y-95685429D01*
X8234124Y-95685429D02*
X8282505Y-95733810D01*
X8282505Y-95733810D02*
X8330886Y-95830572D01*
X8330886Y-95830572D02*
X8330886Y-96217620D01*
X7798695Y-94766191D02*
X7798695Y-94959715D01*
X7798695Y-94959715D02*
X7847076Y-95056477D01*
X7847076Y-95056477D02*
X7895457Y-95104858D01*
X7895457Y-95104858D02*
X8040600Y-95201620D01*
X8040600Y-95201620D02*
X8234124Y-95250001D01*
X8234124Y-95250001D02*
X8621172Y-95250001D01*
X8621172Y-95250001D02*
X8717934Y-95201620D01*
X8717934Y-95201620D02*
X8766315Y-95153239D01*
X8766315Y-95153239D02*
X8814695Y-95056477D01*
X8814695Y-95056477D02*
X8814695Y-94862953D01*
X8814695Y-94862953D02*
X8766315Y-94766191D01*
X8766315Y-94766191D02*
X8717934Y-94717810D01*
X8717934Y-94717810D02*
X8621172Y-94669429D01*
X8621172Y-94669429D02*
X8379267Y-94669429D01*
X8379267Y-94669429D02*
X8282505Y-94717810D01*
X8282505Y-94717810D02*
X8234124Y-94766191D01*
X8234124Y-94766191D02*
X8185743Y-94862953D01*
X8185743Y-94862953D02*
X8185743Y-95056477D01*
X8185743Y-95056477D02*
X8234124Y-95153239D01*
X8234124Y-95153239D02*
X8282505Y-95201620D01*
X8282505Y-95201620D02*
X8379267Y-95250001D01*
X68926857Y-7144334D02*
X68878476Y-7192715D01*
X68878476Y-7192715D02*
X68733333Y-7241095D01*
X68733333Y-7241095D02*
X68636571Y-7241095D01*
X68636571Y-7241095D02*
X68491428Y-7192715D01*
X68491428Y-7192715D02*
X68394666Y-7095953D01*
X68394666Y-7095953D02*
X68346285Y-6999191D01*
X68346285Y-6999191D02*
X68297904Y-6805667D01*
X68297904Y-6805667D02*
X68297904Y-6660524D01*
X68297904Y-6660524D02*
X68346285Y-6467000D01*
X68346285Y-6467000D02*
X68394666Y-6370238D01*
X68394666Y-6370238D02*
X68491428Y-6273476D01*
X68491428Y-6273476D02*
X68636571Y-6225095D01*
X68636571Y-6225095D02*
X68733333Y-6225095D01*
X68733333Y-6225095D02*
X68878476Y-6273476D01*
X68878476Y-6273476D02*
X68926857Y-6321857D01*
X69894476Y-7241095D02*
X69313904Y-7241095D01*
X69604190Y-7241095D02*
X69604190Y-6225095D01*
X69604190Y-6225095D02*
X69507428Y-6370238D01*
X69507428Y-6370238D02*
X69410666Y-6467000D01*
X69410666Y-6467000D02*
X69313904Y-6515381D01*
X70765333Y-6563762D02*
X70765333Y-7241095D01*
X70523428Y-6176715D02*
X70281523Y-6902429D01*
X70281523Y-6902429D02*
X70910476Y-6902429D01*
X50303734Y-4921442D02*
X50352115Y-4969823D01*
X50352115Y-4969823D02*
X50400495Y-5114966D01*
X50400495Y-5114966D02*
X50400495Y-5211728D01*
X50400495Y-5211728D02*
X50352115Y-5356871D01*
X50352115Y-5356871D02*
X50255353Y-5453633D01*
X50255353Y-5453633D02*
X50158591Y-5502014D01*
X50158591Y-5502014D02*
X49965067Y-5550395D01*
X49965067Y-5550395D02*
X49819924Y-5550395D01*
X49819924Y-5550395D02*
X49626400Y-5502014D01*
X49626400Y-5502014D02*
X49529638Y-5453633D01*
X49529638Y-5453633D02*
X49432876Y-5356871D01*
X49432876Y-5356871D02*
X49384495Y-5211728D01*
X49384495Y-5211728D02*
X49384495Y-5114966D01*
X49384495Y-5114966D02*
X49432876Y-4969823D01*
X49432876Y-4969823D02*
X49481257Y-4921442D01*
X49481257Y-4534395D02*
X49432876Y-4486014D01*
X49432876Y-4486014D02*
X49384495Y-4389252D01*
X49384495Y-4389252D02*
X49384495Y-4147347D01*
X49384495Y-4147347D02*
X49432876Y-4050585D01*
X49432876Y-4050585D02*
X49481257Y-4002204D01*
X49481257Y-4002204D02*
X49578019Y-3953823D01*
X49578019Y-3953823D02*
X49674781Y-3953823D01*
X49674781Y-3953823D02*
X49819924Y-4002204D01*
X49819924Y-4002204D02*
X50400495Y-4582776D01*
X50400495Y-4582776D02*
X50400495Y-3953823D01*
X49481257Y-3566776D02*
X49432876Y-3518395D01*
X49432876Y-3518395D02*
X49384495Y-3421633D01*
X49384495Y-3421633D02*
X49384495Y-3179728D01*
X49384495Y-3179728D02*
X49432876Y-3082966D01*
X49432876Y-3082966D02*
X49481257Y-3034585D01*
X49481257Y-3034585D02*
X49578019Y-2986204D01*
X49578019Y-2986204D02*
X49674781Y-2986204D01*
X49674781Y-2986204D02*
X49819924Y-3034585D01*
X49819924Y-3034585D02*
X50400495Y-3615157D01*
X50400495Y-3615157D02*
X50400495Y-2986204D01*
X57621867Y-35314734D02*
X57573486Y-35363115D01*
X57573486Y-35363115D02*
X57428343Y-35411495D01*
X57428343Y-35411495D02*
X57331581Y-35411495D01*
X57331581Y-35411495D02*
X57186438Y-35363115D01*
X57186438Y-35363115D02*
X57089676Y-35266353D01*
X57089676Y-35266353D02*
X57041295Y-35169591D01*
X57041295Y-35169591D02*
X56992914Y-34976067D01*
X56992914Y-34976067D02*
X56992914Y-34830924D01*
X56992914Y-34830924D02*
X57041295Y-34637400D01*
X57041295Y-34637400D02*
X57089676Y-34540638D01*
X57089676Y-34540638D02*
X57186438Y-34443876D01*
X57186438Y-34443876D02*
X57331581Y-34395495D01*
X57331581Y-34395495D02*
X57428343Y-34395495D01*
X57428343Y-34395495D02*
X57573486Y-34443876D01*
X57573486Y-34443876D02*
X57621867Y-34492257D01*
X58008914Y-34492257D02*
X58057295Y-34443876D01*
X58057295Y-34443876D02*
X58154057Y-34395495D01*
X58154057Y-34395495D02*
X58395962Y-34395495D01*
X58395962Y-34395495D02*
X58492724Y-34443876D01*
X58492724Y-34443876D02*
X58541105Y-34492257D01*
X58541105Y-34492257D02*
X58589486Y-34589019D01*
X58589486Y-34589019D02*
X58589486Y-34685781D01*
X58589486Y-34685781D02*
X58541105Y-34830924D01*
X58541105Y-34830924D02*
X57960533Y-35411495D01*
X57960533Y-35411495D02*
X58589486Y-35411495D01*
X15735667Y-34811095D02*
X15397000Y-34327286D01*
X15155095Y-34811095D02*
X15155095Y-33795095D01*
X15155095Y-33795095D02*
X15542143Y-33795095D01*
X15542143Y-33795095D02*
X15638905Y-33843476D01*
X15638905Y-33843476D02*
X15687286Y-33891857D01*
X15687286Y-33891857D02*
X15735667Y-33988619D01*
X15735667Y-33988619D02*
X15735667Y-34133762D01*
X15735667Y-34133762D02*
X15687286Y-34230524D01*
X15687286Y-34230524D02*
X15638905Y-34278905D01*
X15638905Y-34278905D02*
X15542143Y-34327286D01*
X15542143Y-34327286D02*
X15155095Y-34327286D01*
X16606524Y-34133762D02*
X16606524Y-34811095D01*
X16364619Y-33746715D02*
X16122714Y-34472429D01*
X16122714Y-34472429D02*
X16751667Y-34472429D01*
X65926857Y-13144334D02*
X65878476Y-13192715D01*
X65878476Y-13192715D02*
X65733333Y-13241095D01*
X65733333Y-13241095D02*
X65636571Y-13241095D01*
X65636571Y-13241095D02*
X65491428Y-13192715D01*
X65491428Y-13192715D02*
X65394666Y-13095953D01*
X65394666Y-13095953D02*
X65346285Y-12999191D01*
X65346285Y-12999191D02*
X65297904Y-12805667D01*
X65297904Y-12805667D02*
X65297904Y-12660524D01*
X65297904Y-12660524D02*
X65346285Y-12467000D01*
X65346285Y-12467000D02*
X65394666Y-12370238D01*
X65394666Y-12370238D02*
X65491428Y-12273476D01*
X65491428Y-12273476D02*
X65636571Y-12225095D01*
X65636571Y-12225095D02*
X65733333Y-12225095D01*
X65733333Y-12225095D02*
X65878476Y-12273476D01*
X65878476Y-12273476D02*
X65926857Y-12321857D01*
X66894476Y-13241095D02*
X66313904Y-13241095D01*
X66604190Y-13241095D02*
X66604190Y-12225095D01*
X66604190Y-12225095D02*
X66507428Y-12370238D01*
X66507428Y-12370238D02*
X66410666Y-12467000D01*
X66410666Y-12467000D02*
X66313904Y-12515381D01*
X67523428Y-12225095D02*
X67620190Y-12225095D01*
X67620190Y-12225095D02*
X67716952Y-12273476D01*
X67716952Y-12273476D02*
X67765333Y-12321857D01*
X67765333Y-12321857D02*
X67813714Y-12418619D01*
X67813714Y-12418619D02*
X67862095Y-12612143D01*
X67862095Y-12612143D02*
X67862095Y-12854048D01*
X67862095Y-12854048D02*
X67813714Y-13047572D01*
X67813714Y-13047572D02*
X67765333Y-13144334D01*
X67765333Y-13144334D02*
X67716952Y-13192715D01*
X67716952Y-13192715D02*
X67620190Y-13241095D01*
X67620190Y-13241095D02*
X67523428Y-13241095D01*
X67523428Y-13241095D02*
X67426666Y-13192715D01*
X67426666Y-13192715D02*
X67378285Y-13144334D01*
X67378285Y-13144334D02*
X67329904Y-13047572D01*
X67329904Y-13047572D02*
X67281523Y-12854048D01*
X67281523Y-12854048D02*
X67281523Y-12612143D01*
X67281523Y-12612143D02*
X67329904Y-12418619D01*
X67329904Y-12418619D02*
X67378285Y-12321857D01*
X67378285Y-12321857D02*
X67426666Y-12273476D01*
X67426666Y-12273476D02*
X67523428Y-12225095D01*
X89850857Y-33759095D02*
X89512190Y-33275286D01*
X89270285Y-33759095D02*
X89270285Y-32743095D01*
X89270285Y-32743095D02*
X89657333Y-32743095D01*
X89657333Y-32743095D02*
X89754095Y-32791476D01*
X89754095Y-32791476D02*
X89802476Y-32839857D01*
X89802476Y-32839857D02*
X89850857Y-32936619D01*
X89850857Y-32936619D02*
X89850857Y-33081762D01*
X89850857Y-33081762D02*
X89802476Y-33178524D01*
X89802476Y-33178524D02*
X89754095Y-33226905D01*
X89754095Y-33226905D02*
X89657333Y-33275286D01*
X89657333Y-33275286D02*
X89270285Y-33275286D01*
X90818476Y-33759095D02*
X90237904Y-33759095D01*
X90528190Y-33759095D02*
X90528190Y-32743095D01*
X90528190Y-32743095D02*
X90431428Y-32888238D01*
X90431428Y-32888238D02*
X90334666Y-32985000D01*
X90334666Y-32985000D02*
X90237904Y-33033381D01*
X91786095Y-33759095D02*
X91205523Y-33759095D01*
X91495809Y-33759095D02*
X91495809Y-32743095D01*
X91495809Y-32743095D02*
X91399047Y-32888238D01*
X91399047Y-32888238D02*
X91302285Y-32985000D01*
X91302285Y-32985000D02*
X91205523Y-33033381D01*
X102980333Y-29778095D02*
X102980333Y-30503810D01*
X102980333Y-30503810D02*
X102931952Y-30648953D01*
X102931952Y-30648953D02*
X102835190Y-30745715D01*
X102835190Y-30745715D02*
X102690047Y-30794095D01*
X102690047Y-30794095D02*
X102593285Y-30794095D01*
X103899571Y-29778095D02*
X103706047Y-29778095D01*
X103706047Y-29778095D02*
X103609285Y-29826476D01*
X103609285Y-29826476D02*
X103560904Y-29874857D01*
X103560904Y-29874857D02*
X103464142Y-30020000D01*
X103464142Y-30020000D02*
X103415761Y-30213524D01*
X103415761Y-30213524D02*
X103415761Y-30600572D01*
X103415761Y-30600572D02*
X103464142Y-30697334D01*
X103464142Y-30697334D02*
X103512523Y-30745715D01*
X103512523Y-30745715D02*
X103609285Y-30794095D01*
X103609285Y-30794095D02*
X103802809Y-30794095D01*
X103802809Y-30794095D02*
X103899571Y-30745715D01*
X103899571Y-30745715D02*
X103947952Y-30697334D01*
X103947952Y-30697334D02*
X103996333Y-30600572D01*
X103996333Y-30600572D02*
X103996333Y-30358667D01*
X103996333Y-30358667D02*
X103947952Y-30261905D01*
X103947952Y-30261905D02*
X103899571Y-30213524D01*
X103899571Y-30213524D02*
X103802809Y-30165143D01*
X103802809Y-30165143D02*
X103609285Y-30165143D01*
X103609285Y-30165143D02*
X103512523Y-30213524D01*
X103512523Y-30213524D02*
X103464142Y-30261905D01*
X103464142Y-30261905D02*
X103415761Y-30358667D01*
X47303734Y-4921442D02*
X47352115Y-4969823D01*
X47352115Y-4969823D02*
X47400495Y-5114966D01*
X47400495Y-5114966D02*
X47400495Y-5211728D01*
X47400495Y-5211728D02*
X47352115Y-5356871D01*
X47352115Y-5356871D02*
X47255353Y-5453633D01*
X47255353Y-5453633D02*
X47158591Y-5502014D01*
X47158591Y-5502014D02*
X46965067Y-5550395D01*
X46965067Y-5550395D02*
X46819924Y-5550395D01*
X46819924Y-5550395D02*
X46626400Y-5502014D01*
X46626400Y-5502014D02*
X46529638Y-5453633D01*
X46529638Y-5453633D02*
X46432876Y-5356871D01*
X46432876Y-5356871D02*
X46384495Y-5211728D01*
X46384495Y-5211728D02*
X46384495Y-5114966D01*
X46384495Y-5114966D02*
X46432876Y-4969823D01*
X46432876Y-4969823D02*
X46481257Y-4921442D01*
X46481257Y-4534395D02*
X46432876Y-4486014D01*
X46432876Y-4486014D02*
X46384495Y-4389252D01*
X46384495Y-4389252D02*
X46384495Y-4147347D01*
X46384495Y-4147347D02*
X46432876Y-4050585D01*
X46432876Y-4050585D02*
X46481257Y-4002204D01*
X46481257Y-4002204D02*
X46578019Y-3953823D01*
X46578019Y-3953823D02*
X46674781Y-3953823D01*
X46674781Y-3953823D02*
X46819924Y-4002204D01*
X46819924Y-4002204D02*
X47400495Y-4582776D01*
X47400495Y-4582776D02*
X47400495Y-3953823D01*
X46384495Y-3615157D02*
X46384495Y-2986204D01*
X46384495Y-2986204D02*
X46771543Y-3324871D01*
X46771543Y-3324871D02*
X46771543Y-3179728D01*
X46771543Y-3179728D02*
X46819924Y-3082966D01*
X46819924Y-3082966D02*
X46868305Y-3034585D01*
X46868305Y-3034585D02*
X46965067Y-2986204D01*
X46965067Y-2986204D02*
X47206972Y-2986204D01*
X47206972Y-2986204D02*
X47303734Y-3034585D01*
X47303734Y-3034585D02*
X47352115Y-3082966D01*
X47352115Y-3082966D02*
X47400495Y-3179728D01*
X47400495Y-3179728D02*
X47400495Y-3470014D01*
X47400495Y-3470014D02*
X47352115Y-3566776D01*
X47352115Y-3566776D02*
X47303734Y-3615157D01*
X52466504Y-126796315D02*
X52611647Y-126844695D01*
X52611647Y-126844695D02*
X52853552Y-126844695D01*
X52853552Y-126844695D02*
X52950314Y-126796315D01*
X52950314Y-126796315D02*
X52998695Y-126747934D01*
X52998695Y-126747934D02*
X53047076Y-126651172D01*
X53047076Y-126651172D02*
X53047076Y-126554410D01*
X53047076Y-126554410D02*
X52998695Y-126457648D01*
X52998695Y-126457648D02*
X52950314Y-126409267D01*
X52950314Y-126409267D02*
X52853552Y-126360886D01*
X52853552Y-126360886D02*
X52660028Y-126312505D01*
X52660028Y-126312505D02*
X52563266Y-126264124D01*
X52563266Y-126264124D02*
X52514885Y-126215743D01*
X52514885Y-126215743D02*
X52466504Y-126118981D01*
X52466504Y-126118981D02*
X52466504Y-126022219D01*
X52466504Y-126022219D02*
X52514885Y-125925457D01*
X52514885Y-125925457D02*
X52563266Y-125877076D01*
X52563266Y-125877076D02*
X52660028Y-125828695D01*
X52660028Y-125828695D02*
X52901933Y-125828695D01*
X52901933Y-125828695D02*
X53047076Y-125877076D01*
X53434123Y-125925457D02*
X53482504Y-125877076D01*
X53482504Y-125877076D02*
X53579266Y-125828695D01*
X53579266Y-125828695D02*
X53821171Y-125828695D01*
X53821171Y-125828695D02*
X53917933Y-125877076D01*
X53917933Y-125877076D02*
X53966314Y-125925457D01*
X53966314Y-125925457D02*
X54014695Y-126022219D01*
X54014695Y-126022219D02*
X54014695Y-126118981D01*
X54014695Y-126118981D02*
X53966314Y-126264124D01*
X53966314Y-126264124D02*
X53385742Y-126844695D01*
X53385742Y-126844695D02*
X54014695Y-126844695D01*
X68829333Y-24107095D02*
X68829333Y-24832810D01*
X68829333Y-24832810D02*
X68780952Y-24977953D01*
X68780952Y-24977953D02*
X68684190Y-25074715D01*
X68684190Y-25074715D02*
X68539047Y-25123095D01*
X68539047Y-25123095D02*
X68442285Y-25123095D01*
X69748571Y-24445762D02*
X69748571Y-25123095D01*
X69506666Y-24058715D02*
X69264761Y-24784429D01*
X69264761Y-24784429D02*
X69893714Y-24784429D01*
X65926857Y-11644334D02*
X65878476Y-11692715D01*
X65878476Y-11692715D02*
X65733333Y-11741095D01*
X65733333Y-11741095D02*
X65636571Y-11741095D01*
X65636571Y-11741095D02*
X65491428Y-11692715D01*
X65491428Y-11692715D02*
X65394666Y-11595953D01*
X65394666Y-11595953D02*
X65346285Y-11499191D01*
X65346285Y-11499191D02*
X65297904Y-11305667D01*
X65297904Y-11305667D02*
X65297904Y-11160524D01*
X65297904Y-11160524D02*
X65346285Y-10967000D01*
X65346285Y-10967000D02*
X65394666Y-10870238D01*
X65394666Y-10870238D02*
X65491428Y-10773476D01*
X65491428Y-10773476D02*
X65636571Y-10725095D01*
X65636571Y-10725095D02*
X65733333Y-10725095D01*
X65733333Y-10725095D02*
X65878476Y-10773476D01*
X65878476Y-10773476D02*
X65926857Y-10821857D01*
X66894476Y-11741095D02*
X66313904Y-11741095D01*
X66604190Y-11741095D02*
X66604190Y-10725095D01*
X66604190Y-10725095D02*
X66507428Y-10870238D01*
X66507428Y-10870238D02*
X66410666Y-10967000D01*
X66410666Y-10967000D02*
X66313904Y-11015381D01*
X67862095Y-11741095D02*
X67281523Y-11741095D01*
X67571809Y-11741095D02*
X67571809Y-10725095D01*
X67571809Y-10725095D02*
X67475047Y-10870238D01*
X67475047Y-10870238D02*
X67378285Y-10967000D01*
X67378285Y-10967000D02*
X67281523Y-11015381D01*
X53881867Y-19161334D02*
X53833486Y-19209715D01*
X53833486Y-19209715D02*
X53688343Y-19258095D01*
X53688343Y-19258095D02*
X53591581Y-19258095D01*
X53591581Y-19258095D02*
X53446438Y-19209715D01*
X53446438Y-19209715D02*
X53349676Y-19112953D01*
X53349676Y-19112953D02*
X53301295Y-19016191D01*
X53301295Y-19016191D02*
X53252914Y-18822667D01*
X53252914Y-18822667D02*
X53252914Y-18677524D01*
X53252914Y-18677524D02*
X53301295Y-18484000D01*
X53301295Y-18484000D02*
X53349676Y-18387238D01*
X53349676Y-18387238D02*
X53446438Y-18290476D01*
X53446438Y-18290476D02*
X53591581Y-18242095D01*
X53591581Y-18242095D02*
X53688343Y-18242095D01*
X53688343Y-18242095D02*
X53833486Y-18290476D01*
X53833486Y-18290476D02*
X53881867Y-18338857D01*
X54752724Y-18242095D02*
X54559200Y-18242095D01*
X54559200Y-18242095D02*
X54462438Y-18290476D01*
X54462438Y-18290476D02*
X54414057Y-18338857D01*
X54414057Y-18338857D02*
X54317295Y-18484000D01*
X54317295Y-18484000D02*
X54268914Y-18677524D01*
X54268914Y-18677524D02*
X54268914Y-19064572D01*
X54268914Y-19064572D02*
X54317295Y-19161334D01*
X54317295Y-19161334D02*
X54365676Y-19209715D01*
X54365676Y-19209715D02*
X54462438Y-19258095D01*
X54462438Y-19258095D02*
X54655962Y-19258095D01*
X54655962Y-19258095D02*
X54752724Y-19209715D01*
X54752724Y-19209715D02*
X54801105Y-19161334D01*
X54801105Y-19161334D02*
X54849486Y-19064572D01*
X54849486Y-19064572D02*
X54849486Y-18822667D01*
X54849486Y-18822667D02*
X54801105Y-18725905D01*
X54801105Y-18725905D02*
X54752724Y-18677524D01*
X54752724Y-18677524D02*
X54655962Y-18629143D01*
X54655962Y-18629143D02*
X54462438Y-18629143D01*
X54462438Y-18629143D02*
X54365676Y-18677524D01*
X54365676Y-18677524D02*
X54317295Y-18725905D01*
X54317295Y-18725905D02*
X54268914Y-18822667D01*
X50405867Y-27718734D02*
X50357486Y-27767115D01*
X50357486Y-27767115D02*
X50212343Y-27815495D01*
X50212343Y-27815495D02*
X50115581Y-27815495D01*
X50115581Y-27815495D02*
X49970438Y-27767115D01*
X49970438Y-27767115D02*
X49873676Y-27670353D01*
X49873676Y-27670353D02*
X49825295Y-27573591D01*
X49825295Y-27573591D02*
X49776914Y-27380067D01*
X49776914Y-27380067D02*
X49776914Y-27234924D01*
X49776914Y-27234924D02*
X49825295Y-27041400D01*
X49825295Y-27041400D02*
X49873676Y-26944638D01*
X49873676Y-26944638D02*
X49970438Y-26847876D01*
X49970438Y-26847876D02*
X50115581Y-26799495D01*
X50115581Y-26799495D02*
X50212343Y-26799495D01*
X50212343Y-26799495D02*
X50357486Y-26847876D01*
X50357486Y-26847876D02*
X50405867Y-26896257D01*
X50744533Y-26799495D02*
X51373486Y-26799495D01*
X51373486Y-26799495D02*
X51034819Y-27186543D01*
X51034819Y-27186543D02*
X51179962Y-27186543D01*
X51179962Y-27186543D02*
X51276724Y-27234924D01*
X51276724Y-27234924D02*
X51325105Y-27283305D01*
X51325105Y-27283305D02*
X51373486Y-27380067D01*
X51373486Y-27380067D02*
X51373486Y-27621972D01*
X51373486Y-27621972D02*
X51325105Y-27718734D01*
X51325105Y-27718734D02*
X51276724Y-27767115D01*
X51276724Y-27767115D02*
X51179962Y-27815495D01*
X51179962Y-27815495D02*
X50889676Y-27815495D01*
X50889676Y-27815495D02*
X50792914Y-27767115D01*
X50792914Y-27767115D02*
X50744533Y-27718734D01*
X14112504Y-118769915D02*
X14257647Y-118818295D01*
X14257647Y-118818295D02*
X14499552Y-118818295D01*
X14499552Y-118818295D02*
X14596314Y-118769915D01*
X14596314Y-118769915D02*
X14644695Y-118721534D01*
X14644695Y-118721534D02*
X14693076Y-118624772D01*
X14693076Y-118624772D02*
X14693076Y-118528010D01*
X14693076Y-118528010D02*
X14644695Y-118431248D01*
X14644695Y-118431248D02*
X14596314Y-118382867D01*
X14596314Y-118382867D02*
X14499552Y-118334486D01*
X14499552Y-118334486D02*
X14306028Y-118286105D01*
X14306028Y-118286105D02*
X14209266Y-118237724D01*
X14209266Y-118237724D02*
X14160885Y-118189343D01*
X14160885Y-118189343D02*
X14112504Y-118092581D01*
X14112504Y-118092581D02*
X14112504Y-117995819D01*
X14112504Y-117995819D02*
X14160885Y-117899057D01*
X14160885Y-117899057D02*
X14209266Y-117850676D01*
X14209266Y-117850676D02*
X14306028Y-117802295D01*
X14306028Y-117802295D02*
X14547933Y-117802295D01*
X14547933Y-117802295D02*
X14693076Y-117850676D01*
X15031742Y-117802295D02*
X15660695Y-117802295D01*
X15660695Y-117802295D02*
X15322028Y-118189343D01*
X15322028Y-118189343D02*
X15467171Y-118189343D01*
X15467171Y-118189343D02*
X15563933Y-118237724D01*
X15563933Y-118237724D02*
X15612314Y-118286105D01*
X15612314Y-118286105D02*
X15660695Y-118382867D01*
X15660695Y-118382867D02*
X15660695Y-118624772D01*
X15660695Y-118624772D02*
X15612314Y-118721534D01*
X15612314Y-118721534D02*
X15563933Y-118769915D01*
X15563933Y-118769915D02*
X15467171Y-118818295D01*
X15467171Y-118818295D02*
X15176885Y-118818295D01*
X15176885Y-118818295D02*
X15080123Y-118769915D01*
X15080123Y-118769915D02*
X15031742Y-118721534D01*
X62293734Y-4921442D02*
X62342115Y-4969823D01*
X62342115Y-4969823D02*
X62390495Y-5114966D01*
X62390495Y-5114966D02*
X62390495Y-5211728D01*
X62390495Y-5211728D02*
X62342115Y-5356871D01*
X62342115Y-5356871D02*
X62245353Y-5453633D01*
X62245353Y-5453633D02*
X62148591Y-5502014D01*
X62148591Y-5502014D02*
X61955067Y-5550395D01*
X61955067Y-5550395D02*
X61809924Y-5550395D01*
X61809924Y-5550395D02*
X61616400Y-5502014D01*
X61616400Y-5502014D02*
X61519638Y-5453633D01*
X61519638Y-5453633D02*
X61422876Y-5356871D01*
X61422876Y-5356871D02*
X61374495Y-5211728D01*
X61374495Y-5211728D02*
X61374495Y-5114966D01*
X61374495Y-5114966D02*
X61422876Y-4969823D01*
X61422876Y-4969823D02*
X61471257Y-4921442D01*
X62390495Y-3953823D02*
X62390495Y-4534395D01*
X62390495Y-4244109D02*
X61374495Y-4244109D01*
X61374495Y-4244109D02*
X61519638Y-4340871D01*
X61519638Y-4340871D02*
X61616400Y-4437633D01*
X61616400Y-4437633D02*
X61664781Y-4534395D01*
X62390495Y-3470014D02*
X62390495Y-3276490D01*
X62390495Y-3276490D02*
X62342115Y-3179728D01*
X62342115Y-3179728D02*
X62293734Y-3131347D01*
X62293734Y-3131347D02*
X62148591Y-3034585D01*
X62148591Y-3034585D02*
X61955067Y-2986204D01*
X61955067Y-2986204D02*
X61568019Y-2986204D01*
X61568019Y-2986204D02*
X61471257Y-3034585D01*
X61471257Y-3034585D02*
X61422876Y-3082966D01*
X61422876Y-3082966D02*
X61374495Y-3179728D01*
X61374495Y-3179728D02*
X61374495Y-3373252D01*
X61374495Y-3373252D02*
X61422876Y-3470014D01*
X61422876Y-3470014D02*
X61471257Y-3518395D01*
X61471257Y-3518395D02*
X61568019Y-3566776D01*
X61568019Y-3566776D02*
X61809924Y-3566776D01*
X61809924Y-3566776D02*
X61906686Y-3518395D01*
X61906686Y-3518395D02*
X61955067Y-3470014D01*
X61955067Y-3470014D02*
X62003448Y-3373252D01*
X62003448Y-3373252D02*
X62003448Y-3179728D01*
X62003448Y-3179728D02*
X61955067Y-3082966D01*
X61955067Y-3082966D02*
X61906686Y-3034585D01*
X61906686Y-3034585D02*
X61809924Y-2986204D01*
X33122867Y-37038095D02*
X32784200Y-36554286D01*
X32542295Y-37038095D02*
X32542295Y-36022095D01*
X32542295Y-36022095D02*
X32929343Y-36022095D01*
X32929343Y-36022095D02*
X33026105Y-36070476D01*
X33026105Y-36070476D02*
X33074486Y-36118857D01*
X33074486Y-36118857D02*
X33122867Y-36215619D01*
X33122867Y-36215619D02*
X33122867Y-36360762D01*
X33122867Y-36360762D02*
X33074486Y-36457524D01*
X33074486Y-36457524D02*
X33026105Y-36505905D01*
X33026105Y-36505905D02*
X32929343Y-36554286D01*
X32929343Y-36554286D02*
X32542295Y-36554286D01*
X33606676Y-37038095D02*
X33800200Y-37038095D01*
X33800200Y-37038095D02*
X33896962Y-36989715D01*
X33896962Y-36989715D02*
X33945343Y-36941334D01*
X33945343Y-36941334D02*
X34042105Y-36796191D01*
X34042105Y-36796191D02*
X34090486Y-36602667D01*
X34090486Y-36602667D02*
X34090486Y-36215619D01*
X34090486Y-36215619D02*
X34042105Y-36118857D01*
X34042105Y-36118857D02*
X33993724Y-36070476D01*
X33993724Y-36070476D02*
X33896962Y-36022095D01*
X33896962Y-36022095D02*
X33703438Y-36022095D01*
X33703438Y-36022095D02*
X33606676Y-36070476D01*
X33606676Y-36070476D02*
X33558295Y-36118857D01*
X33558295Y-36118857D02*
X33509914Y-36215619D01*
X33509914Y-36215619D02*
X33509914Y-36457524D01*
X33509914Y-36457524D02*
X33558295Y-36554286D01*
X33558295Y-36554286D02*
X33606676Y-36602667D01*
X33606676Y-36602667D02*
X33703438Y-36651048D01*
X33703438Y-36651048D02*
X33896962Y-36651048D01*
X33896962Y-36651048D02*
X33993724Y-36602667D01*
X33993724Y-36602667D02*
X34042105Y-36554286D01*
X34042105Y-36554286D02*
X34090486Y-36457524D01*
X14530904Y-20013333D02*
X13805189Y-20013333D01*
X13805189Y-20013333D02*
X13660046Y-19964952D01*
X13660046Y-19964952D02*
X13563285Y-19868190D01*
X13563285Y-19868190D02*
X13514904Y-19723047D01*
X13514904Y-19723047D02*
X13514904Y-19626285D01*
X14530904Y-20400380D02*
X14530904Y-21029333D01*
X14530904Y-21029333D02*
X14143856Y-20690666D01*
X14143856Y-20690666D02*
X14143856Y-20835809D01*
X14143856Y-20835809D02*
X14095475Y-20932571D01*
X14095475Y-20932571D02*
X14047094Y-20980952D01*
X14047094Y-20980952D02*
X13950332Y-21029333D01*
X13950332Y-21029333D02*
X13708427Y-21029333D01*
X13708427Y-21029333D02*
X13611665Y-20980952D01*
X13611665Y-20980952D02*
X13563285Y-20932571D01*
X13563285Y-20932571D02*
X13514904Y-20835809D01*
X13514904Y-20835809D02*
X13514904Y-20545523D01*
X13514904Y-20545523D02*
X13563285Y-20448761D01*
X13563285Y-20448761D02*
X13611665Y-20400380D01*
X47357867Y-31528734D02*
X47309486Y-31577115D01*
X47309486Y-31577115D02*
X47164343Y-31625495D01*
X47164343Y-31625495D02*
X47067581Y-31625495D01*
X47067581Y-31625495D02*
X46922438Y-31577115D01*
X46922438Y-31577115D02*
X46825676Y-31480353D01*
X46825676Y-31480353D02*
X46777295Y-31383591D01*
X46777295Y-31383591D02*
X46728914Y-31190067D01*
X46728914Y-31190067D02*
X46728914Y-31044924D01*
X46728914Y-31044924D02*
X46777295Y-30851400D01*
X46777295Y-30851400D02*
X46825676Y-30754638D01*
X46825676Y-30754638D02*
X46922438Y-30657876D01*
X46922438Y-30657876D02*
X47067581Y-30609495D01*
X47067581Y-30609495D02*
X47164343Y-30609495D01*
X47164343Y-30609495D02*
X47309486Y-30657876D01*
X47309486Y-30657876D02*
X47357867Y-30706257D01*
X48228724Y-30948162D02*
X48228724Y-31625495D01*
X47986819Y-30561115D02*
X47744914Y-31286829D01*
X47744914Y-31286829D02*
X48373867Y-31286829D01*
X91016667Y-41516095D02*
X90678000Y-41032286D01*
X90436095Y-41516095D02*
X90436095Y-40500095D01*
X90436095Y-40500095D02*
X90823143Y-40500095D01*
X90823143Y-40500095D02*
X90919905Y-40548476D01*
X90919905Y-40548476D02*
X90968286Y-40596857D01*
X90968286Y-40596857D02*
X91016667Y-40693619D01*
X91016667Y-40693619D02*
X91016667Y-40838762D01*
X91016667Y-40838762D02*
X90968286Y-40935524D01*
X90968286Y-40935524D02*
X90919905Y-40983905D01*
X90919905Y-40983905D02*
X90823143Y-41032286D01*
X90823143Y-41032286D02*
X90436095Y-41032286D01*
X91355333Y-40500095D02*
X92032667Y-40500095D01*
X92032667Y-40500095D02*
X91597238Y-41516095D01*
X52938305Y-5114966D02*
X52938305Y-5453633D01*
X53470495Y-5453633D02*
X52454495Y-5453633D01*
X52454495Y-5453633D02*
X52454495Y-4969823D01*
X52938305Y-4244109D02*
X52986686Y-4098966D01*
X52986686Y-4098966D02*
X53035067Y-4050585D01*
X53035067Y-4050585D02*
X53131829Y-4002204D01*
X53131829Y-4002204D02*
X53276972Y-4002204D01*
X53276972Y-4002204D02*
X53373734Y-4050585D01*
X53373734Y-4050585D02*
X53422115Y-4098966D01*
X53422115Y-4098966D02*
X53470495Y-4195728D01*
X53470495Y-4195728D02*
X53470495Y-4582776D01*
X53470495Y-4582776D02*
X52454495Y-4582776D01*
X52454495Y-4582776D02*
X52454495Y-4244109D01*
X52454495Y-4244109D02*
X52502876Y-4147347D01*
X52502876Y-4147347D02*
X52551257Y-4098966D01*
X52551257Y-4098966D02*
X52648019Y-4050585D01*
X52648019Y-4050585D02*
X52744781Y-4050585D01*
X52744781Y-4050585D02*
X52841543Y-4098966D01*
X52841543Y-4098966D02*
X52889924Y-4147347D01*
X52889924Y-4147347D02*
X52938305Y-4244109D01*
X52938305Y-4244109D02*
X52938305Y-4582776D01*
X53470495Y-3034585D02*
X53470495Y-3615157D01*
X53470495Y-3324871D02*
X52454495Y-3324871D01*
X52454495Y-3324871D02*
X52599638Y-3421633D01*
X52599638Y-3421633D02*
X52696400Y-3518395D01*
X52696400Y-3518395D02*
X52744781Y-3615157D01*
X82676095Y-29553095D02*
X83498572Y-29553095D01*
X83498572Y-29553095D02*
X83595334Y-29504714D01*
X83595334Y-29504714D02*
X83643715Y-29456333D01*
X83643715Y-29456333D02*
X83692095Y-29359571D01*
X83692095Y-29359571D02*
X83692095Y-29166047D01*
X83692095Y-29166047D02*
X83643715Y-29069285D01*
X83643715Y-29069285D02*
X83595334Y-29020904D01*
X83595334Y-29020904D02*
X83498572Y-28972523D01*
X83498572Y-28972523D02*
X82676095Y-28972523D01*
X82676095Y-28585476D02*
X82676095Y-27908142D01*
X82676095Y-27908142D02*
X83692095Y-28343571D01*
X59303734Y-4921442D02*
X59352115Y-4969823D01*
X59352115Y-4969823D02*
X59400495Y-5114966D01*
X59400495Y-5114966D02*
X59400495Y-5211728D01*
X59400495Y-5211728D02*
X59352115Y-5356871D01*
X59352115Y-5356871D02*
X59255353Y-5453633D01*
X59255353Y-5453633D02*
X59158591Y-5502014D01*
X59158591Y-5502014D02*
X58965067Y-5550395D01*
X58965067Y-5550395D02*
X58819924Y-5550395D01*
X58819924Y-5550395D02*
X58626400Y-5502014D01*
X58626400Y-5502014D02*
X58529638Y-5453633D01*
X58529638Y-5453633D02*
X58432876Y-5356871D01*
X58432876Y-5356871D02*
X58384495Y-5211728D01*
X58384495Y-5211728D02*
X58384495Y-5114966D01*
X58384495Y-5114966D02*
X58432876Y-4969823D01*
X58432876Y-4969823D02*
X58481257Y-4921442D01*
X58481257Y-4534395D02*
X58432876Y-4486014D01*
X58432876Y-4486014D02*
X58384495Y-4389252D01*
X58384495Y-4389252D02*
X58384495Y-4147347D01*
X58384495Y-4147347D02*
X58432876Y-4050585D01*
X58432876Y-4050585D02*
X58481257Y-4002204D01*
X58481257Y-4002204D02*
X58578019Y-3953823D01*
X58578019Y-3953823D02*
X58674781Y-3953823D01*
X58674781Y-3953823D02*
X58819924Y-4002204D01*
X58819924Y-4002204D02*
X59400495Y-4582776D01*
X59400495Y-4582776D02*
X59400495Y-3953823D01*
X58384495Y-3324871D02*
X58384495Y-3228109D01*
X58384495Y-3228109D02*
X58432876Y-3131347D01*
X58432876Y-3131347D02*
X58481257Y-3082966D01*
X58481257Y-3082966D02*
X58578019Y-3034585D01*
X58578019Y-3034585D02*
X58771543Y-2986204D01*
X58771543Y-2986204D02*
X59013448Y-2986204D01*
X59013448Y-2986204D02*
X59206972Y-3034585D01*
X59206972Y-3034585D02*
X59303734Y-3082966D01*
X59303734Y-3082966D02*
X59352115Y-3131347D01*
X59352115Y-3131347D02*
X59400495Y-3228109D01*
X59400495Y-3228109D02*
X59400495Y-3324871D01*
X59400495Y-3324871D02*
X59352115Y-3421633D01*
X59352115Y-3421633D02*
X59303734Y-3470014D01*
X59303734Y-3470014D02*
X59206972Y-3518395D01*
X59206972Y-3518395D02*
X59013448Y-3566776D01*
X59013448Y-3566776D02*
X58771543Y-3566776D01*
X58771543Y-3566776D02*
X58578019Y-3518395D01*
X58578019Y-3518395D02*
X58481257Y-3470014D01*
X58481257Y-3470014D02*
X58432876Y-3421633D01*
X58432876Y-3421633D02*
X58384495Y-3324871D01*
X71805904Y-5225095D02*
X71805904Y-6047572D01*
X71805904Y-6047572D02*
X71854285Y-6144334D01*
X71854285Y-6144334D02*
X71902666Y-6192715D01*
X71902666Y-6192715D02*
X71999428Y-6241095D01*
X71999428Y-6241095D02*
X72192952Y-6241095D01*
X72192952Y-6241095D02*
X72289714Y-6192715D01*
X72289714Y-6192715D02*
X72338095Y-6144334D01*
X72338095Y-6144334D02*
X72386476Y-6047572D01*
X72386476Y-6047572D02*
X72386476Y-5225095D01*
X73305714Y-5563762D02*
X73305714Y-6241095D01*
X73063809Y-5176715D02*
X72821904Y-5902429D01*
X72821904Y-5902429D02*
X73450857Y-5902429D01*
X8814695Y-101637048D02*
X8330886Y-101975715D01*
X8814695Y-102217620D02*
X7798695Y-102217620D01*
X7798695Y-102217620D02*
X7798695Y-101830572D01*
X7798695Y-101830572D02*
X7847076Y-101733810D01*
X7847076Y-101733810D02*
X7895457Y-101685429D01*
X7895457Y-101685429D02*
X7992219Y-101637048D01*
X7992219Y-101637048D02*
X8137362Y-101637048D01*
X8137362Y-101637048D02*
X8234124Y-101685429D01*
X8234124Y-101685429D02*
X8282505Y-101733810D01*
X8282505Y-101733810D02*
X8330886Y-101830572D01*
X8330886Y-101830572D02*
X8330886Y-102217620D01*
X7798695Y-100717810D02*
X7798695Y-101201620D01*
X7798695Y-101201620D02*
X8282505Y-101250001D01*
X8282505Y-101250001D02*
X8234124Y-101201620D01*
X8234124Y-101201620D02*
X8185743Y-101104858D01*
X8185743Y-101104858D02*
X8185743Y-100862953D01*
X8185743Y-100862953D02*
X8234124Y-100766191D01*
X8234124Y-100766191D02*
X8282505Y-100717810D01*
X8282505Y-100717810D02*
X8379267Y-100669429D01*
X8379267Y-100669429D02*
X8621172Y-100669429D01*
X8621172Y-100669429D02*
X8717934Y-100717810D01*
X8717934Y-100717810D02*
X8766315Y-100766191D01*
X8766315Y-100766191D02*
X8814695Y-100862953D01*
X8814695Y-100862953D02*
X8814695Y-101104858D01*
X8814695Y-101104858D02*
X8766315Y-101201620D01*
X8766315Y-101201620D02*
X8717934Y-101250001D01*
X25521857Y-37038095D02*
X25183190Y-36554286D01*
X24941285Y-37038095D02*
X24941285Y-36022095D01*
X24941285Y-36022095D02*
X25328333Y-36022095D01*
X25328333Y-36022095D02*
X25425095Y-36070476D01*
X25425095Y-36070476D02*
X25473476Y-36118857D01*
X25473476Y-36118857D02*
X25521857Y-36215619D01*
X25521857Y-36215619D02*
X25521857Y-36360762D01*
X25521857Y-36360762D02*
X25473476Y-36457524D01*
X25473476Y-36457524D02*
X25425095Y-36505905D01*
X25425095Y-36505905D02*
X25328333Y-36554286D01*
X25328333Y-36554286D02*
X24941285Y-36554286D01*
X26489476Y-37038095D02*
X25908904Y-37038095D01*
X26199190Y-37038095D02*
X26199190Y-36022095D01*
X26199190Y-36022095D02*
X26102428Y-36167238D01*
X26102428Y-36167238D02*
X26005666Y-36264000D01*
X26005666Y-36264000D02*
X25908904Y-36312381D01*
X26876523Y-36118857D02*
X26924904Y-36070476D01*
X26924904Y-36070476D02*
X27021666Y-36022095D01*
X27021666Y-36022095D02*
X27263571Y-36022095D01*
X27263571Y-36022095D02*
X27360333Y-36070476D01*
X27360333Y-36070476D02*
X27408714Y-36118857D01*
X27408714Y-36118857D02*
X27457095Y-36215619D01*
X27457095Y-36215619D02*
X27457095Y-36312381D01*
X27457095Y-36312381D02*
X27408714Y-36457524D01*
X27408714Y-36457524D02*
X26828142Y-37038095D01*
X26828142Y-37038095D02*
X27457095Y-37038095D01*
X33515334Y-16432142D02*
X33563715Y-16480523D01*
X33563715Y-16480523D02*
X33612095Y-16625666D01*
X33612095Y-16625666D02*
X33612095Y-16722428D01*
X33612095Y-16722428D02*
X33563715Y-16867571D01*
X33563715Y-16867571D02*
X33466953Y-16964333D01*
X33466953Y-16964333D02*
X33370191Y-17012714D01*
X33370191Y-17012714D02*
X33176667Y-17061095D01*
X33176667Y-17061095D02*
X33031524Y-17061095D01*
X33031524Y-17061095D02*
X32838000Y-17012714D01*
X32838000Y-17012714D02*
X32741238Y-16964333D01*
X32741238Y-16964333D02*
X32644476Y-16867571D01*
X32644476Y-16867571D02*
X32596095Y-16722428D01*
X32596095Y-16722428D02*
X32596095Y-16625666D01*
X32596095Y-16625666D02*
X32644476Y-16480523D01*
X32644476Y-16480523D02*
X32692857Y-16432142D01*
X33612095Y-15464523D02*
X33612095Y-16045095D01*
X33612095Y-15754809D02*
X32596095Y-15754809D01*
X32596095Y-15754809D02*
X32741238Y-15851571D01*
X32741238Y-15851571D02*
X32838000Y-15948333D01*
X32838000Y-15948333D02*
X32886381Y-16045095D01*
X32596095Y-14593666D02*
X32596095Y-14787190D01*
X32596095Y-14787190D02*
X32644476Y-14883952D01*
X32644476Y-14883952D02*
X32692857Y-14932333D01*
X32692857Y-14932333D02*
X32838000Y-15029095D01*
X32838000Y-15029095D02*
X33031524Y-15077476D01*
X33031524Y-15077476D02*
X33418572Y-15077476D01*
X33418572Y-15077476D02*
X33515334Y-15029095D01*
X33515334Y-15029095D02*
X33563715Y-14980714D01*
X33563715Y-14980714D02*
X33612095Y-14883952D01*
X33612095Y-14883952D02*
X33612095Y-14690428D01*
X33612095Y-14690428D02*
X33563715Y-14593666D01*
X33563715Y-14593666D02*
X33515334Y-14545285D01*
X33515334Y-14545285D02*
X33418572Y-14496904D01*
X33418572Y-14496904D02*
X33176667Y-14496904D01*
X33176667Y-14496904D02*
X33079905Y-14545285D01*
X33079905Y-14545285D02*
X33031524Y-14593666D01*
X33031524Y-14593666D02*
X32983143Y-14690428D01*
X32983143Y-14690428D02*
X32983143Y-14883952D01*
X32983143Y-14883952D02*
X33031524Y-14980714D01*
X33031524Y-14980714D02*
X33079905Y-15029095D01*
X33079905Y-15029095D02*
X33176667Y-15077476D01*
X25521857Y-33733334D02*
X25473476Y-33781715D01*
X25473476Y-33781715D02*
X25328333Y-33830095D01*
X25328333Y-33830095D02*
X25231571Y-33830095D01*
X25231571Y-33830095D02*
X25086428Y-33781715D01*
X25086428Y-33781715D02*
X24989666Y-33684953D01*
X24989666Y-33684953D02*
X24941285Y-33588191D01*
X24941285Y-33588191D02*
X24892904Y-33394667D01*
X24892904Y-33394667D02*
X24892904Y-33249524D01*
X24892904Y-33249524D02*
X24941285Y-33056000D01*
X24941285Y-33056000D02*
X24989666Y-32959238D01*
X24989666Y-32959238D02*
X25086428Y-32862476D01*
X25086428Y-32862476D02*
X25231571Y-32814095D01*
X25231571Y-32814095D02*
X25328333Y-32814095D01*
X25328333Y-32814095D02*
X25473476Y-32862476D01*
X25473476Y-32862476D02*
X25521857Y-32910857D01*
X25908904Y-32910857D02*
X25957285Y-32862476D01*
X25957285Y-32862476D02*
X26054047Y-32814095D01*
X26054047Y-32814095D02*
X26295952Y-32814095D01*
X26295952Y-32814095D02*
X26392714Y-32862476D01*
X26392714Y-32862476D02*
X26441095Y-32910857D01*
X26441095Y-32910857D02*
X26489476Y-33007619D01*
X26489476Y-33007619D02*
X26489476Y-33104381D01*
X26489476Y-33104381D02*
X26441095Y-33249524D01*
X26441095Y-33249524D02*
X25860523Y-33830095D01*
X25860523Y-33830095D02*
X26489476Y-33830095D01*
X26973285Y-33830095D02*
X27166809Y-33830095D01*
X27166809Y-33830095D02*
X27263571Y-33781715D01*
X27263571Y-33781715D02*
X27311952Y-33733334D01*
X27311952Y-33733334D02*
X27408714Y-33588191D01*
X27408714Y-33588191D02*
X27457095Y-33394667D01*
X27457095Y-33394667D02*
X27457095Y-33007619D01*
X27457095Y-33007619D02*
X27408714Y-32910857D01*
X27408714Y-32910857D02*
X27360333Y-32862476D01*
X27360333Y-32862476D02*
X27263571Y-32814095D01*
X27263571Y-32814095D02*
X27070047Y-32814095D01*
X27070047Y-32814095D02*
X26973285Y-32862476D01*
X26973285Y-32862476D02*
X26924904Y-32910857D01*
X26924904Y-32910857D02*
X26876523Y-33007619D01*
X26876523Y-33007619D02*
X26876523Y-33249524D01*
X26876523Y-33249524D02*
X26924904Y-33346286D01*
X26924904Y-33346286D02*
X26973285Y-33394667D01*
X26973285Y-33394667D02*
X27070047Y-33443048D01*
X27070047Y-33443048D02*
X27263571Y-33443048D01*
X27263571Y-33443048D02*
X27360333Y-33394667D01*
X27360333Y-33394667D02*
X27408714Y-33346286D01*
X27408714Y-33346286D02*
X27457095Y-33249524D01*
X32824057Y-33733334D02*
X32775676Y-33781715D01*
X32775676Y-33781715D02*
X32630533Y-33830095D01*
X32630533Y-33830095D02*
X32533771Y-33830095D01*
X32533771Y-33830095D02*
X32388628Y-33781715D01*
X32388628Y-33781715D02*
X32291866Y-33684953D01*
X32291866Y-33684953D02*
X32243485Y-33588191D01*
X32243485Y-33588191D02*
X32195104Y-33394667D01*
X32195104Y-33394667D02*
X32195104Y-33249524D01*
X32195104Y-33249524D02*
X32243485Y-33056000D01*
X32243485Y-33056000D02*
X32291866Y-32959238D01*
X32291866Y-32959238D02*
X32388628Y-32862476D01*
X32388628Y-32862476D02*
X32533771Y-32814095D01*
X32533771Y-32814095D02*
X32630533Y-32814095D01*
X32630533Y-32814095D02*
X32775676Y-32862476D01*
X32775676Y-32862476D02*
X32824057Y-32910857D01*
X33211104Y-32910857D02*
X33259485Y-32862476D01*
X33259485Y-32862476D02*
X33356247Y-32814095D01*
X33356247Y-32814095D02*
X33598152Y-32814095D01*
X33598152Y-32814095D02*
X33694914Y-32862476D01*
X33694914Y-32862476D02*
X33743295Y-32910857D01*
X33743295Y-32910857D02*
X33791676Y-33007619D01*
X33791676Y-33007619D02*
X33791676Y-33104381D01*
X33791676Y-33104381D02*
X33743295Y-33249524D01*
X33743295Y-33249524D02*
X33162723Y-33830095D01*
X33162723Y-33830095D02*
X33791676Y-33830095D01*
X34130342Y-32814095D02*
X34807676Y-32814095D01*
X34807676Y-32814095D02*
X34372247Y-33830095D01*
X20472095Y-24432142D02*
X19988286Y-24770809D01*
X20472095Y-25012714D02*
X19456095Y-25012714D01*
X19456095Y-25012714D02*
X19456095Y-24625666D01*
X19456095Y-24625666D02*
X19504476Y-24528904D01*
X19504476Y-24528904D02*
X19552857Y-24480523D01*
X19552857Y-24480523D02*
X19649619Y-24432142D01*
X19649619Y-24432142D02*
X19794762Y-24432142D01*
X19794762Y-24432142D02*
X19891524Y-24480523D01*
X19891524Y-24480523D02*
X19939905Y-24528904D01*
X19939905Y-24528904D02*
X19988286Y-24625666D01*
X19988286Y-24625666D02*
X19988286Y-25012714D01*
X20472095Y-23464523D02*
X20472095Y-24045095D01*
X20472095Y-23754809D02*
X19456095Y-23754809D01*
X19456095Y-23754809D02*
X19601238Y-23851571D01*
X19601238Y-23851571D02*
X19698000Y-23948333D01*
X19698000Y-23948333D02*
X19746381Y-24045095D01*
X19456095Y-23125857D02*
X19456095Y-22448523D01*
X19456095Y-22448523D02*
X20472095Y-22883952D01*
X81410667Y-3684334D02*
X81362286Y-3732715D01*
X81362286Y-3732715D02*
X81217143Y-3781095D01*
X81217143Y-3781095D02*
X81120381Y-3781095D01*
X81120381Y-3781095D02*
X80975238Y-3732715D01*
X80975238Y-3732715D02*
X80878476Y-3635953D01*
X80878476Y-3635953D02*
X80830095Y-3539191D01*
X80830095Y-3539191D02*
X80781714Y-3345667D01*
X80781714Y-3345667D02*
X80781714Y-3200524D01*
X80781714Y-3200524D02*
X80830095Y-3007000D01*
X80830095Y-3007000D02*
X80878476Y-2910238D01*
X80878476Y-2910238D02*
X80975238Y-2813476D01*
X80975238Y-2813476D02*
X81120381Y-2765095D01*
X81120381Y-2765095D02*
X81217143Y-2765095D01*
X81217143Y-2765095D02*
X81362286Y-2813476D01*
X81362286Y-2813476D02*
X81410667Y-2861857D01*
X81991238Y-3200524D02*
X81894476Y-3152143D01*
X81894476Y-3152143D02*
X81846095Y-3103762D01*
X81846095Y-3103762D02*
X81797714Y-3007000D01*
X81797714Y-3007000D02*
X81797714Y-2958619D01*
X81797714Y-2958619D02*
X81846095Y-2861857D01*
X81846095Y-2861857D02*
X81894476Y-2813476D01*
X81894476Y-2813476D02*
X81991238Y-2765095D01*
X81991238Y-2765095D02*
X82184762Y-2765095D01*
X82184762Y-2765095D02*
X82281524Y-2813476D01*
X82281524Y-2813476D02*
X82329905Y-2861857D01*
X82329905Y-2861857D02*
X82378286Y-2958619D01*
X82378286Y-2958619D02*
X82378286Y-3007000D01*
X82378286Y-3007000D02*
X82329905Y-3103762D01*
X82329905Y-3103762D02*
X82281524Y-3152143D01*
X82281524Y-3152143D02*
X82184762Y-3200524D01*
X82184762Y-3200524D02*
X81991238Y-3200524D01*
X81991238Y-3200524D02*
X81894476Y-3248905D01*
X81894476Y-3248905D02*
X81846095Y-3297286D01*
X81846095Y-3297286D02*
X81797714Y-3394048D01*
X81797714Y-3394048D02*
X81797714Y-3587572D01*
X81797714Y-3587572D02*
X81846095Y-3684334D01*
X81846095Y-3684334D02*
X81894476Y-3732715D01*
X81894476Y-3732715D02*
X81991238Y-3781095D01*
X81991238Y-3781095D02*
X82184762Y-3781095D01*
X82184762Y-3781095D02*
X82281524Y-3732715D01*
X82281524Y-3732715D02*
X82329905Y-3684334D01*
X82329905Y-3684334D02*
X82378286Y-3587572D01*
X82378286Y-3587572D02*
X82378286Y-3394048D01*
X82378286Y-3394048D02*
X82329905Y-3297286D01*
X82329905Y-3297286D02*
X82281524Y-3248905D01*
X82281524Y-3248905D02*
X82184762Y-3200524D01*
X72757524Y-38723095D02*
X72757524Y-39448810D01*
X72757524Y-39448810D02*
X72709143Y-39593953D01*
X72709143Y-39593953D02*
X72612381Y-39690715D01*
X72612381Y-39690715D02*
X72467238Y-39739095D01*
X72467238Y-39739095D02*
X72370476Y-39739095D01*
X73773524Y-39739095D02*
X73192952Y-39739095D01*
X73483238Y-39739095D02*
X73483238Y-38723095D01*
X73483238Y-38723095D02*
X73386476Y-38868238D01*
X73386476Y-38868238D02*
X73289714Y-38965000D01*
X73289714Y-38965000D02*
X73192952Y-39013381D01*
X74402476Y-38723095D02*
X74499238Y-38723095D01*
X74499238Y-38723095D02*
X74596000Y-38771476D01*
X74596000Y-38771476D02*
X74644381Y-38819857D01*
X74644381Y-38819857D02*
X74692762Y-38916619D01*
X74692762Y-38916619D02*
X74741143Y-39110143D01*
X74741143Y-39110143D02*
X74741143Y-39352048D01*
X74741143Y-39352048D02*
X74692762Y-39545572D01*
X74692762Y-39545572D02*
X74644381Y-39642334D01*
X74644381Y-39642334D02*
X74596000Y-39690715D01*
X74596000Y-39690715D02*
X74499238Y-39739095D01*
X74499238Y-39739095D02*
X74402476Y-39739095D01*
X74402476Y-39739095D02*
X74305714Y-39690715D01*
X74305714Y-39690715D02*
X74257333Y-39642334D01*
X74257333Y-39642334D02*
X74208952Y-39545572D01*
X74208952Y-39545572D02*
X74160571Y-39352048D01*
X74160571Y-39352048D02*
X74160571Y-39110143D01*
X74160571Y-39110143D02*
X74208952Y-38916619D01*
X74208952Y-38916619D02*
X74257333Y-38819857D01*
X74257333Y-38819857D02*
X74305714Y-38771476D01*
X74305714Y-38771476D02*
X74402476Y-38723095D01*
X61047295Y-31937495D02*
X61869772Y-31937495D01*
X61869772Y-31937495D02*
X61966534Y-31889114D01*
X61966534Y-31889114D02*
X62014915Y-31840733D01*
X62014915Y-31840733D02*
X62063295Y-31743971D01*
X62063295Y-31743971D02*
X62063295Y-31550447D01*
X62063295Y-31550447D02*
X62014915Y-31453685D01*
X62014915Y-31453685D02*
X61966534Y-31405304D01*
X61966534Y-31405304D02*
X61869772Y-31356923D01*
X61869772Y-31356923D02*
X61047295Y-31356923D01*
X62063295Y-30340923D02*
X62063295Y-30921495D01*
X62063295Y-30631209D02*
X61047295Y-30631209D01*
X61047295Y-30631209D02*
X61192438Y-30727971D01*
X61192438Y-30727971D02*
X61289200Y-30824733D01*
X61289200Y-30824733D02*
X61337581Y-30921495D01*
X41593334Y-17440142D02*
X41641715Y-17488523D01*
X41641715Y-17488523D02*
X41690095Y-17633666D01*
X41690095Y-17633666D02*
X41690095Y-17730428D01*
X41690095Y-17730428D02*
X41641715Y-17875571D01*
X41641715Y-17875571D02*
X41544953Y-17972333D01*
X41544953Y-17972333D02*
X41448191Y-18020714D01*
X41448191Y-18020714D02*
X41254667Y-18069095D01*
X41254667Y-18069095D02*
X41109524Y-18069095D01*
X41109524Y-18069095D02*
X40916000Y-18020714D01*
X40916000Y-18020714D02*
X40819238Y-17972333D01*
X40819238Y-17972333D02*
X40722476Y-17875571D01*
X40722476Y-17875571D02*
X40674095Y-17730428D01*
X40674095Y-17730428D02*
X40674095Y-17633666D01*
X40674095Y-17633666D02*
X40722476Y-17488523D01*
X40722476Y-17488523D02*
X40770857Y-17440142D01*
X41690095Y-16472523D02*
X41690095Y-17053095D01*
X41690095Y-16762809D02*
X40674095Y-16762809D01*
X40674095Y-16762809D02*
X40819238Y-16859571D01*
X40819238Y-16859571D02*
X40916000Y-16956333D01*
X40916000Y-16956333D02*
X40964381Y-17053095D01*
X40674095Y-16133857D02*
X40674095Y-15456523D01*
X40674095Y-15456523D02*
X41690095Y-15891952D01*
X23445334Y-24432142D02*
X23493715Y-24480523D01*
X23493715Y-24480523D02*
X23542095Y-24625666D01*
X23542095Y-24625666D02*
X23542095Y-24722428D01*
X23542095Y-24722428D02*
X23493715Y-24867571D01*
X23493715Y-24867571D02*
X23396953Y-24964333D01*
X23396953Y-24964333D02*
X23300191Y-25012714D01*
X23300191Y-25012714D02*
X23106667Y-25061095D01*
X23106667Y-25061095D02*
X22961524Y-25061095D01*
X22961524Y-25061095D02*
X22768000Y-25012714D01*
X22768000Y-25012714D02*
X22671238Y-24964333D01*
X22671238Y-24964333D02*
X22574476Y-24867571D01*
X22574476Y-24867571D02*
X22526095Y-24722428D01*
X22526095Y-24722428D02*
X22526095Y-24625666D01*
X22526095Y-24625666D02*
X22574476Y-24480523D01*
X22574476Y-24480523D02*
X22622857Y-24432142D01*
X22622857Y-24045095D02*
X22574476Y-23996714D01*
X22574476Y-23996714D02*
X22526095Y-23899952D01*
X22526095Y-23899952D02*
X22526095Y-23658047D01*
X22526095Y-23658047D02*
X22574476Y-23561285D01*
X22574476Y-23561285D02*
X22622857Y-23512904D01*
X22622857Y-23512904D02*
X22719619Y-23464523D01*
X22719619Y-23464523D02*
X22816381Y-23464523D01*
X22816381Y-23464523D02*
X22961524Y-23512904D01*
X22961524Y-23512904D02*
X23542095Y-24093476D01*
X23542095Y-24093476D02*
X23542095Y-23464523D01*
X22526095Y-22593666D02*
X22526095Y-22787190D01*
X22526095Y-22787190D02*
X22574476Y-22883952D01*
X22574476Y-22883952D02*
X22622857Y-22932333D01*
X22622857Y-22932333D02*
X22768000Y-23029095D01*
X22768000Y-23029095D02*
X22961524Y-23077476D01*
X22961524Y-23077476D02*
X23348572Y-23077476D01*
X23348572Y-23077476D02*
X23445334Y-23029095D01*
X23445334Y-23029095D02*
X23493715Y-22980714D01*
X23493715Y-22980714D02*
X23542095Y-22883952D01*
X23542095Y-22883952D02*
X23542095Y-22690428D01*
X23542095Y-22690428D02*
X23493715Y-22593666D01*
X23493715Y-22593666D02*
X23445334Y-22545285D01*
X23445334Y-22545285D02*
X23348572Y-22496904D01*
X23348572Y-22496904D02*
X23106667Y-22496904D01*
X23106667Y-22496904D02*
X23009905Y-22545285D01*
X23009905Y-22545285D02*
X22961524Y-22593666D01*
X22961524Y-22593666D02*
X22913143Y-22690428D01*
X22913143Y-22690428D02*
X22913143Y-22883952D01*
X22913143Y-22883952D02*
X22961524Y-22980714D01*
X22961524Y-22980714D02*
X23009905Y-23029095D01*
X23009905Y-23029095D02*
X23106667Y-23077476D01*
X36680190Y-18035286D02*
X36680190Y-18519095D01*
X36341523Y-17503095D02*
X36680190Y-18035286D01*
X36680190Y-18035286D02*
X37018857Y-17503095D01*
X37889714Y-18519095D02*
X37309142Y-18519095D01*
X37599428Y-18519095D02*
X37599428Y-17503095D01*
X37599428Y-17503095D02*
X37502666Y-17648238D01*
X37502666Y-17648238D02*
X37405904Y-17745000D01*
X37405904Y-17745000D02*
X37309142Y-17793381D01*
X81410667Y-6684334D02*
X81362286Y-6732715D01*
X81362286Y-6732715D02*
X81217143Y-6781095D01*
X81217143Y-6781095D02*
X81120381Y-6781095D01*
X81120381Y-6781095D02*
X80975238Y-6732715D01*
X80975238Y-6732715D02*
X80878476Y-6635953D01*
X80878476Y-6635953D02*
X80830095Y-6539191D01*
X80830095Y-6539191D02*
X80781714Y-6345667D01*
X80781714Y-6345667D02*
X80781714Y-6200524D01*
X80781714Y-6200524D02*
X80830095Y-6007000D01*
X80830095Y-6007000D02*
X80878476Y-5910238D01*
X80878476Y-5910238D02*
X80975238Y-5813476D01*
X80975238Y-5813476D02*
X81120381Y-5765095D01*
X81120381Y-5765095D02*
X81217143Y-5765095D01*
X81217143Y-5765095D02*
X81362286Y-5813476D01*
X81362286Y-5813476D02*
X81410667Y-5861857D01*
X81894476Y-6781095D02*
X82088000Y-6781095D01*
X82088000Y-6781095D02*
X82184762Y-6732715D01*
X82184762Y-6732715D02*
X82233143Y-6684334D01*
X82233143Y-6684334D02*
X82329905Y-6539191D01*
X82329905Y-6539191D02*
X82378286Y-6345667D01*
X82378286Y-6345667D02*
X82378286Y-5958619D01*
X82378286Y-5958619D02*
X82329905Y-5861857D01*
X82329905Y-5861857D02*
X82281524Y-5813476D01*
X82281524Y-5813476D02*
X82184762Y-5765095D01*
X82184762Y-5765095D02*
X81991238Y-5765095D01*
X81991238Y-5765095D02*
X81894476Y-5813476D01*
X81894476Y-5813476D02*
X81846095Y-5861857D01*
X81846095Y-5861857D02*
X81797714Y-5958619D01*
X81797714Y-5958619D02*
X81797714Y-6200524D01*
X81797714Y-6200524D02*
X81846095Y-6297286D01*
X81846095Y-6297286D02*
X81894476Y-6345667D01*
X81894476Y-6345667D02*
X81991238Y-6394048D01*
X81991238Y-6394048D02*
X82184762Y-6394048D01*
X82184762Y-6394048D02*
X82281524Y-6345667D01*
X82281524Y-6345667D02*
X82329905Y-6297286D01*
X82329905Y-6297286D02*
X82378286Y-6200524D01*
X28866667Y-13185095D02*
X28528000Y-12701286D01*
X28286095Y-13185095D02*
X28286095Y-12169095D01*
X28286095Y-12169095D02*
X28673143Y-12169095D01*
X28673143Y-12169095D02*
X28769905Y-12217476D01*
X28769905Y-12217476D02*
X28818286Y-12265857D01*
X28818286Y-12265857D02*
X28866667Y-12362619D01*
X28866667Y-12362619D02*
X28866667Y-12507762D01*
X28866667Y-12507762D02*
X28818286Y-12604524D01*
X28818286Y-12604524D02*
X28769905Y-12652905D01*
X28769905Y-12652905D02*
X28673143Y-12701286D01*
X28673143Y-12701286D02*
X28286095Y-12701286D01*
X29834286Y-13185095D02*
X29253714Y-13185095D01*
X29544000Y-13185095D02*
X29544000Y-12169095D01*
X29544000Y-12169095D02*
X29447238Y-12314238D01*
X29447238Y-12314238D02*
X29350476Y-12411000D01*
X29350476Y-12411000D02*
X29253714Y-12459381D01*
X52437867Y-35429495D02*
X51954057Y-35429495D01*
X51954057Y-35429495D02*
X51954057Y-34413495D01*
X53308724Y-35429495D02*
X52728152Y-35429495D01*
X53018438Y-35429495D02*
X53018438Y-34413495D01*
X53018438Y-34413495D02*
X52921676Y-34558638D01*
X52921676Y-34558638D02*
X52824914Y-34655400D01*
X52824914Y-34655400D02*
X52728152Y-34703781D01*
X86257524Y-38223095D02*
X86257524Y-38948810D01*
X86257524Y-38948810D02*
X86209143Y-39093953D01*
X86209143Y-39093953D02*
X86112381Y-39190715D01*
X86112381Y-39190715D02*
X85967238Y-39239095D01*
X85967238Y-39239095D02*
X85870476Y-39239095D01*
X87273524Y-39239095D02*
X86692952Y-39239095D01*
X86983238Y-39239095D02*
X86983238Y-38223095D01*
X86983238Y-38223095D02*
X86886476Y-38368238D01*
X86886476Y-38368238D02*
X86789714Y-38465000D01*
X86789714Y-38465000D02*
X86692952Y-38513381D01*
X88241143Y-39239095D02*
X87660571Y-39239095D01*
X87950857Y-39239095D02*
X87950857Y-38223095D01*
X87950857Y-38223095D02*
X87854095Y-38368238D01*
X87854095Y-38368238D02*
X87757333Y-38465000D01*
X87757333Y-38465000D02*
X87660571Y-38513381D01*
X8814695Y-98637048D02*
X8330886Y-98975715D01*
X8814695Y-99217620D02*
X7798695Y-99217620D01*
X7798695Y-99217620D02*
X7798695Y-98830572D01*
X7798695Y-98830572D02*
X7847076Y-98733810D01*
X7847076Y-98733810D02*
X7895457Y-98685429D01*
X7895457Y-98685429D02*
X7992219Y-98637048D01*
X7992219Y-98637048D02*
X8137362Y-98637048D01*
X8137362Y-98637048D02*
X8234124Y-98685429D01*
X8234124Y-98685429D02*
X8282505Y-98733810D01*
X8282505Y-98733810D02*
X8330886Y-98830572D01*
X8330886Y-98830572D02*
X8330886Y-99217620D01*
X7798695Y-98298382D02*
X7798695Y-97669429D01*
X7798695Y-97669429D02*
X8185743Y-98008096D01*
X8185743Y-98008096D02*
X8185743Y-97862953D01*
X8185743Y-97862953D02*
X8234124Y-97766191D01*
X8234124Y-97766191D02*
X8282505Y-97717810D01*
X8282505Y-97717810D02*
X8379267Y-97669429D01*
X8379267Y-97669429D02*
X8621172Y-97669429D01*
X8621172Y-97669429D02*
X8717934Y-97717810D01*
X8717934Y-97717810D02*
X8766315Y-97766191D01*
X8766315Y-97766191D02*
X8814695Y-97862953D01*
X8814695Y-97862953D02*
X8814695Y-98153239D01*
X8814695Y-98153239D02*
X8766315Y-98250001D01*
X8766315Y-98250001D02*
X8717934Y-98298382D01*
X29077857Y-37038095D02*
X28739190Y-36554286D01*
X28497285Y-37038095D02*
X28497285Y-36022095D01*
X28497285Y-36022095D02*
X28884333Y-36022095D01*
X28884333Y-36022095D02*
X28981095Y-36070476D01*
X28981095Y-36070476D02*
X29029476Y-36118857D01*
X29029476Y-36118857D02*
X29077857Y-36215619D01*
X29077857Y-36215619D02*
X29077857Y-36360762D01*
X29077857Y-36360762D02*
X29029476Y-36457524D01*
X29029476Y-36457524D02*
X28981095Y-36505905D01*
X28981095Y-36505905D02*
X28884333Y-36554286D01*
X28884333Y-36554286D02*
X28497285Y-36554286D01*
X30045476Y-37038095D02*
X29464904Y-37038095D01*
X29755190Y-37038095D02*
X29755190Y-36022095D01*
X29755190Y-36022095D02*
X29658428Y-36167238D01*
X29658428Y-36167238D02*
X29561666Y-36264000D01*
X29561666Y-36264000D02*
X29464904Y-36312381D01*
X30674428Y-36022095D02*
X30771190Y-36022095D01*
X30771190Y-36022095D02*
X30867952Y-36070476D01*
X30867952Y-36070476D02*
X30916333Y-36118857D01*
X30916333Y-36118857D02*
X30964714Y-36215619D01*
X30964714Y-36215619D02*
X31013095Y-36409143D01*
X31013095Y-36409143D02*
X31013095Y-36651048D01*
X31013095Y-36651048D02*
X30964714Y-36844572D01*
X30964714Y-36844572D02*
X30916333Y-36941334D01*
X30916333Y-36941334D02*
X30867952Y-36989715D01*
X30867952Y-36989715D02*
X30771190Y-37038095D01*
X30771190Y-37038095D02*
X30674428Y-37038095D01*
X30674428Y-37038095D02*
X30577666Y-36989715D01*
X30577666Y-36989715D02*
X30529285Y-36941334D01*
X30529285Y-36941334D02*
X30480904Y-36844572D01*
X30480904Y-36844572D02*
X30432523Y-36651048D01*
X30432523Y-36651048D02*
X30432523Y-36409143D01*
X30432523Y-36409143D02*
X30480904Y-36215619D01*
X30480904Y-36215619D02*
X30529285Y-36118857D01*
X30529285Y-36118857D02*
X30577666Y-36070476D01*
X30577666Y-36070476D02*
X30674428Y-36022095D01*
X75042095Y-30448332D02*
X75042095Y-30932142D01*
X75042095Y-30932142D02*
X74026095Y-30932142D01*
X74122857Y-30158047D02*
X74074476Y-30109666D01*
X74074476Y-30109666D02*
X74026095Y-30012904D01*
X74026095Y-30012904D02*
X74026095Y-29770999D01*
X74026095Y-29770999D02*
X74074476Y-29674237D01*
X74074476Y-29674237D02*
X74122857Y-29625856D01*
X74122857Y-29625856D02*
X74219619Y-29577475D01*
X74219619Y-29577475D02*
X74316381Y-29577475D01*
X74316381Y-29577475D02*
X74461524Y-29625856D01*
X74461524Y-29625856D02*
X75042095Y-30206428D01*
X75042095Y-30206428D02*
X75042095Y-29577475D01*
X79593924Y-40247295D02*
X79593924Y-40973010D01*
X79593924Y-40973010D02*
X79545543Y-41118153D01*
X79545543Y-41118153D02*
X79448781Y-41214915D01*
X79448781Y-41214915D02*
X79303638Y-41263295D01*
X79303638Y-41263295D02*
X79206876Y-41263295D01*
X80609924Y-41263295D02*
X80029352Y-41263295D01*
X80319638Y-41263295D02*
X80319638Y-40247295D01*
X80319638Y-40247295D02*
X80222876Y-40392438D01*
X80222876Y-40392438D02*
X80126114Y-40489200D01*
X80126114Y-40489200D02*
X80029352Y-40537581D01*
X80996971Y-40344057D02*
X81045352Y-40295676D01*
X81045352Y-40295676D02*
X81142114Y-40247295D01*
X81142114Y-40247295D02*
X81384019Y-40247295D01*
X81384019Y-40247295D02*
X81480781Y-40295676D01*
X81480781Y-40295676D02*
X81529162Y-40344057D01*
X81529162Y-40344057D02*
X81577543Y-40440819D01*
X81577543Y-40440819D02*
X81577543Y-40537581D01*
X81577543Y-40537581D02*
X81529162Y-40682724D01*
X81529162Y-40682724D02*
X80948590Y-41263295D01*
X80948590Y-41263295D02*
X81577543Y-41263295D01*
X50178304Y-9199695D02*
X50178304Y-10022172D01*
X50178304Y-10022172D02*
X50226685Y-10118934D01*
X50226685Y-10118934D02*
X50275066Y-10167315D01*
X50275066Y-10167315D02*
X50371828Y-10215695D01*
X50371828Y-10215695D02*
X50565352Y-10215695D01*
X50565352Y-10215695D02*
X50662114Y-10167315D01*
X50662114Y-10167315D02*
X50710495Y-10118934D01*
X50710495Y-10118934D02*
X50758876Y-10022172D01*
X50758876Y-10022172D02*
X50758876Y-9199695D01*
X51145923Y-9199695D02*
X51774876Y-9199695D01*
X51774876Y-9199695D02*
X51436209Y-9586743D01*
X51436209Y-9586743D02*
X51581352Y-9586743D01*
X51581352Y-9586743D02*
X51678114Y-9635124D01*
X51678114Y-9635124D02*
X51726495Y-9683505D01*
X51726495Y-9683505D02*
X51774876Y-9780267D01*
X51774876Y-9780267D02*
X51774876Y-10022172D01*
X51774876Y-10022172D02*
X51726495Y-10118934D01*
X51726495Y-10118934D02*
X51678114Y-10167315D01*
X51678114Y-10167315D02*
X51581352Y-10215695D01*
X51581352Y-10215695D02*
X51291066Y-10215695D01*
X51291066Y-10215695D02*
X51194304Y-10167315D01*
X51194304Y-10167315D02*
X51145923Y-10118934D01*
X43959104Y-30215495D02*
X43959104Y-31037972D01*
X43959104Y-31037972D02*
X44007485Y-31134734D01*
X44007485Y-31134734D02*
X44055866Y-31183115D01*
X44055866Y-31183115D02*
X44152628Y-31231495D01*
X44152628Y-31231495D02*
X44346152Y-31231495D01*
X44346152Y-31231495D02*
X44442914Y-31183115D01*
X44442914Y-31183115D02*
X44491295Y-31134734D01*
X44491295Y-31134734D02*
X44539676Y-31037972D01*
X44539676Y-31037972D02*
X44539676Y-30215495D01*
X44975104Y-30312257D02*
X45023485Y-30263876D01*
X45023485Y-30263876D02*
X45120247Y-30215495D01*
X45120247Y-30215495D02*
X45362152Y-30215495D01*
X45362152Y-30215495D02*
X45458914Y-30263876D01*
X45458914Y-30263876D02*
X45507295Y-30312257D01*
X45507295Y-30312257D02*
X45555676Y-30409019D01*
X45555676Y-30409019D02*
X45555676Y-30505781D01*
X45555676Y-30505781D02*
X45507295Y-30650924D01*
X45507295Y-30650924D02*
X44926723Y-31231495D01*
X44926723Y-31231495D02*
X45555676Y-31231495D01*
X32646095Y-8053095D02*
X33468572Y-8053095D01*
X33468572Y-8053095D02*
X33565334Y-8004714D01*
X33565334Y-8004714D02*
X33613715Y-7956333D01*
X33613715Y-7956333D02*
X33662095Y-7859571D01*
X33662095Y-7859571D02*
X33662095Y-7666047D01*
X33662095Y-7666047D02*
X33613715Y-7569285D01*
X33613715Y-7569285D02*
X33565334Y-7520904D01*
X33565334Y-7520904D02*
X33468572Y-7472523D01*
X33468572Y-7472523D02*
X32646095Y-7472523D01*
X32646095Y-6504904D02*
X32646095Y-6988714D01*
X32646095Y-6988714D02*
X33129905Y-7037095D01*
X33129905Y-7037095D02*
X33081524Y-6988714D01*
X33081524Y-6988714D02*
X33033143Y-6891952D01*
X33033143Y-6891952D02*
X33033143Y-6650047D01*
X33033143Y-6650047D02*
X33081524Y-6553285D01*
X33081524Y-6553285D02*
X33129905Y-6504904D01*
X33129905Y-6504904D02*
X33226667Y-6456523D01*
X33226667Y-6456523D02*
X33468572Y-6456523D01*
X33468572Y-6456523D02*
X33565334Y-6504904D01*
X33565334Y-6504904D02*
X33613715Y-6553285D01*
X33613715Y-6553285D02*
X33662095Y-6650047D01*
X33662095Y-6650047D02*
X33662095Y-6891952D01*
X33662095Y-6891952D02*
X33613715Y-6988714D01*
X33613715Y-6988714D02*
X33565334Y-7037095D01*
X29077857Y-33733334D02*
X29029476Y-33781715D01*
X29029476Y-33781715D02*
X28884333Y-33830095D01*
X28884333Y-33830095D02*
X28787571Y-33830095D01*
X28787571Y-33830095D02*
X28642428Y-33781715D01*
X28642428Y-33781715D02*
X28545666Y-33684953D01*
X28545666Y-33684953D02*
X28497285Y-33588191D01*
X28497285Y-33588191D02*
X28448904Y-33394667D01*
X28448904Y-33394667D02*
X28448904Y-33249524D01*
X28448904Y-33249524D02*
X28497285Y-33056000D01*
X28497285Y-33056000D02*
X28545666Y-32959238D01*
X28545666Y-32959238D02*
X28642428Y-32862476D01*
X28642428Y-32862476D02*
X28787571Y-32814095D01*
X28787571Y-32814095D02*
X28884333Y-32814095D01*
X28884333Y-32814095D02*
X29029476Y-32862476D01*
X29029476Y-32862476D02*
X29077857Y-32910857D01*
X29464904Y-32910857D02*
X29513285Y-32862476D01*
X29513285Y-32862476D02*
X29610047Y-32814095D01*
X29610047Y-32814095D02*
X29851952Y-32814095D01*
X29851952Y-32814095D02*
X29948714Y-32862476D01*
X29948714Y-32862476D02*
X29997095Y-32910857D01*
X29997095Y-32910857D02*
X30045476Y-33007619D01*
X30045476Y-33007619D02*
X30045476Y-33104381D01*
X30045476Y-33104381D02*
X29997095Y-33249524D01*
X29997095Y-33249524D02*
X29416523Y-33830095D01*
X29416523Y-33830095D02*
X30045476Y-33830095D01*
X30626047Y-33249524D02*
X30529285Y-33201143D01*
X30529285Y-33201143D02*
X30480904Y-33152762D01*
X30480904Y-33152762D02*
X30432523Y-33056000D01*
X30432523Y-33056000D02*
X30432523Y-33007619D01*
X30432523Y-33007619D02*
X30480904Y-32910857D01*
X30480904Y-32910857D02*
X30529285Y-32862476D01*
X30529285Y-32862476D02*
X30626047Y-32814095D01*
X30626047Y-32814095D02*
X30819571Y-32814095D01*
X30819571Y-32814095D02*
X30916333Y-32862476D01*
X30916333Y-32862476D02*
X30964714Y-32910857D01*
X30964714Y-32910857D02*
X31013095Y-33007619D01*
X31013095Y-33007619D02*
X31013095Y-33056000D01*
X31013095Y-33056000D02*
X30964714Y-33152762D01*
X30964714Y-33152762D02*
X30916333Y-33201143D01*
X30916333Y-33201143D02*
X30819571Y-33249524D01*
X30819571Y-33249524D02*
X30626047Y-33249524D01*
X30626047Y-33249524D02*
X30529285Y-33297905D01*
X30529285Y-33297905D02*
X30480904Y-33346286D01*
X30480904Y-33346286D02*
X30432523Y-33443048D01*
X30432523Y-33443048D02*
X30432523Y-33636572D01*
X30432523Y-33636572D02*
X30480904Y-33733334D01*
X30480904Y-33733334D02*
X30529285Y-33781715D01*
X30529285Y-33781715D02*
X30626047Y-33830095D01*
X30626047Y-33830095D02*
X30819571Y-33830095D01*
X30819571Y-33830095D02*
X30916333Y-33781715D01*
X30916333Y-33781715D02*
X30964714Y-33733334D01*
X30964714Y-33733334D02*
X31013095Y-33636572D01*
X31013095Y-33636572D02*
X31013095Y-33443048D01*
X31013095Y-33443048D02*
X30964714Y-33346286D01*
X30964714Y-33346286D02*
X30916333Y-33297905D01*
X30916333Y-33297905D02*
X30819571Y-33249524D01*
X76134857Y-25788334D02*
X76086476Y-25836715D01*
X76086476Y-25836715D02*
X75941333Y-25885095D01*
X75941333Y-25885095D02*
X75844571Y-25885095D01*
X75844571Y-25885095D02*
X75699428Y-25836715D01*
X75699428Y-25836715D02*
X75602666Y-25739953D01*
X75602666Y-25739953D02*
X75554285Y-25643191D01*
X75554285Y-25643191D02*
X75505904Y-25449667D01*
X75505904Y-25449667D02*
X75505904Y-25304524D01*
X75505904Y-25304524D02*
X75554285Y-25111000D01*
X75554285Y-25111000D02*
X75602666Y-25014238D01*
X75602666Y-25014238D02*
X75699428Y-24917476D01*
X75699428Y-24917476D02*
X75844571Y-24869095D01*
X75844571Y-24869095D02*
X75941333Y-24869095D01*
X75941333Y-24869095D02*
X76086476Y-24917476D01*
X76086476Y-24917476D02*
X76134857Y-24965857D01*
X76521904Y-24965857D02*
X76570285Y-24917476D01*
X76570285Y-24917476D02*
X76667047Y-24869095D01*
X76667047Y-24869095D02*
X76908952Y-24869095D01*
X76908952Y-24869095D02*
X77005714Y-24917476D01*
X77005714Y-24917476D02*
X77054095Y-24965857D01*
X77054095Y-24965857D02*
X77102476Y-25062619D01*
X77102476Y-25062619D02*
X77102476Y-25159381D01*
X77102476Y-25159381D02*
X77054095Y-25304524D01*
X77054095Y-25304524D02*
X76473523Y-25885095D01*
X76473523Y-25885095D02*
X77102476Y-25885095D01*
X78021714Y-24869095D02*
X77537904Y-24869095D01*
X77537904Y-24869095D02*
X77489523Y-25352905D01*
X77489523Y-25352905D02*
X77537904Y-25304524D01*
X77537904Y-25304524D02*
X77634666Y-25256143D01*
X77634666Y-25256143D02*
X77876571Y-25256143D01*
X77876571Y-25256143D02*
X77973333Y-25304524D01*
X77973333Y-25304524D02*
X78021714Y-25352905D01*
X78021714Y-25352905D02*
X78070095Y-25449667D01*
X78070095Y-25449667D02*
X78070095Y-25691572D01*
X78070095Y-25691572D02*
X78021714Y-25788334D01*
X78021714Y-25788334D02*
X77973333Y-25836715D01*
X77973333Y-25836715D02*
X77876571Y-25885095D01*
X77876571Y-25885095D02*
X77634666Y-25885095D01*
X77634666Y-25885095D02*
X77537904Y-25836715D01*
X77537904Y-25836715D02*
X77489523Y-25788334D01*
X75015334Y-5657142D02*
X75063715Y-5705523D01*
X75063715Y-5705523D02*
X75112095Y-5850666D01*
X75112095Y-5850666D02*
X75112095Y-5947428D01*
X75112095Y-5947428D02*
X75063715Y-6092571D01*
X75063715Y-6092571D02*
X74966953Y-6189333D01*
X74966953Y-6189333D02*
X74870191Y-6237714D01*
X74870191Y-6237714D02*
X74676667Y-6286095D01*
X74676667Y-6286095D02*
X74531524Y-6286095D01*
X74531524Y-6286095D02*
X74338000Y-6237714D01*
X74338000Y-6237714D02*
X74241238Y-6189333D01*
X74241238Y-6189333D02*
X74144476Y-6092571D01*
X74144476Y-6092571D02*
X74096095Y-5947428D01*
X74096095Y-5947428D02*
X74096095Y-5850666D01*
X74096095Y-5850666D02*
X74144476Y-5705523D01*
X74144476Y-5705523D02*
X74192857Y-5657142D01*
X75112095Y-4689523D02*
X75112095Y-5270095D01*
X75112095Y-4979809D02*
X74096095Y-4979809D01*
X74096095Y-4979809D02*
X74241238Y-5076571D01*
X74241238Y-5076571D02*
X74338000Y-5173333D01*
X74338000Y-5173333D02*
X74386381Y-5270095D01*
X74192857Y-4302476D02*
X74144476Y-4254095D01*
X74144476Y-4254095D02*
X74096095Y-4157333D01*
X74096095Y-4157333D02*
X74096095Y-3915428D01*
X74096095Y-3915428D02*
X74144476Y-3818666D01*
X74144476Y-3818666D02*
X74192857Y-3770285D01*
X74192857Y-3770285D02*
X74289619Y-3721904D01*
X74289619Y-3721904D02*
X74386381Y-3721904D01*
X74386381Y-3721904D02*
X74531524Y-3770285D01*
X74531524Y-3770285D02*
X75112095Y-4350857D01*
X75112095Y-4350857D02*
X75112095Y-3721904D01*
X40668534Y-28538732D02*
X40716915Y-28587113D01*
X40716915Y-28587113D02*
X40765295Y-28732256D01*
X40765295Y-28732256D02*
X40765295Y-28829018D01*
X40765295Y-28829018D02*
X40716915Y-28974161D01*
X40716915Y-28974161D02*
X40620153Y-29070923D01*
X40620153Y-29070923D02*
X40523391Y-29119304D01*
X40523391Y-29119304D02*
X40329867Y-29167685D01*
X40329867Y-29167685D02*
X40184724Y-29167685D01*
X40184724Y-29167685D02*
X39991200Y-29119304D01*
X39991200Y-29119304D02*
X39894438Y-29070923D01*
X39894438Y-29070923D02*
X39797676Y-28974161D01*
X39797676Y-28974161D02*
X39749295Y-28829018D01*
X39749295Y-28829018D02*
X39749295Y-28732256D01*
X39749295Y-28732256D02*
X39797676Y-28587113D01*
X39797676Y-28587113D02*
X39846057Y-28538732D01*
X39749295Y-27619494D02*
X39749295Y-28103304D01*
X39749295Y-28103304D02*
X40233105Y-28151685D01*
X40233105Y-28151685D02*
X40184724Y-28103304D01*
X40184724Y-28103304D02*
X40136343Y-28006542D01*
X40136343Y-28006542D02*
X40136343Y-27764637D01*
X40136343Y-27764637D02*
X40184724Y-27667875D01*
X40184724Y-27667875D02*
X40233105Y-27619494D01*
X40233105Y-27619494D02*
X40329867Y-27571113D01*
X40329867Y-27571113D02*
X40571772Y-27571113D01*
X40571772Y-27571113D02*
X40668534Y-27619494D01*
X40668534Y-27619494D02*
X40716915Y-27667875D01*
X40716915Y-27667875D02*
X40765295Y-27764637D01*
X40765295Y-27764637D02*
X40765295Y-28006542D01*
X40765295Y-28006542D02*
X40716915Y-28103304D01*
X40716915Y-28103304D02*
X40668534Y-28151685D01*
X29120667Y-10645095D02*
X28782000Y-10161286D01*
X28540095Y-10645095D02*
X28540095Y-9629095D01*
X28540095Y-9629095D02*
X28927143Y-9629095D01*
X28927143Y-9629095D02*
X29023905Y-9677476D01*
X29023905Y-9677476D02*
X29072286Y-9725857D01*
X29072286Y-9725857D02*
X29120667Y-9822619D01*
X29120667Y-9822619D02*
X29120667Y-9967762D01*
X29120667Y-9967762D02*
X29072286Y-10064524D01*
X29072286Y-10064524D02*
X29023905Y-10112905D01*
X29023905Y-10112905D02*
X28927143Y-10161286D01*
X28927143Y-10161286D02*
X28540095Y-10161286D01*
X29507714Y-9725857D02*
X29556095Y-9677476D01*
X29556095Y-9677476D02*
X29652857Y-9629095D01*
X29652857Y-9629095D02*
X29894762Y-9629095D01*
X29894762Y-9629095D02*
X29991524Y-9677476D01*
X29991524Y-9677476D02*
X30039905Y-9725857D01*
X30039905Y-9725857D02*
X30088286Y-9822619D01*
X30088286Y-9822619D02*
X30088286Y-9919381D01*
X30088286Y-9919381D02*
X30039905Y-10064524D01*
X30039905Y-10064524D02*
X29459333Y-10645095D01*
X29459333Y-10645095D02*
X30088286Y-10645095D01*
X56472667Y-10982534D02*
X56424286Y-11030915D01*
X56424286Y-11030915D02*
X56279143Y-11079295D01*
X56279143Y-11079295D02*
X56182381Y-11079295D01*
X56182381Y-11079295D02*
X56037238Y-11030915D01*
X56037238Y-11030915D02*
X55940476Y-10934153D01*
X55940476Y-10934153D02*
X55892095Y-10837391D01*
X55892095Y-10837391D02*
X55843714Y-10643867D01*
X55843714Y-10643867D02*
X55843714Y-10498724D01*
X55843714Y-10498724D02*
X55892095Y-10305200D01*
X55892095Y-10305200D02*
X55940476Y-10208438D01*
X55940476Y-10208438D02*
X56037238Y-10111676D01*
X56037238Y-10111676D02*
X56182381Y-10063295D01*
X56182381Y-10063295D02*
X56279143Y-10063295D01*
X56279143Y-10063295D02*
X56424286Y-10111676D01*
X56424286Y-10111676D02*
X56472667Y-10160057D01*
X56811333Y-10063295D02*
X57488667Y-10063295D01*
X57488667Y-10063295D02*
X57053238Y-11079295D01*
X56303734Y-4921442D02*
X56352115Y-4969823D01*
X56352115Y-4969823D02*
X56400495Y-5114966D01*
X56400495Y-5114966D02*
X56400495Y-5211728D01*
X56400495Y-5211728D02*
X56352115Y-5356871D01*
X56352115Y-5356871D02*
X56255353Y-5453633D01*
X56255353Y-5453633D02*
X56158591Y-5502014D01*
X56158591Y-5502014D02*
X55965067Y-5550395D01*
X55965067Y-5550395D02*
X55819924Y-5550395D01*
X55819924Y-5550395D02*
X55626400Y-5502014D01*
X55626400Y-5502014D02*
X55529638Y-5453633D01*
X55529638Y-5453633D02*
X55432876Y-5356871D01*
X55432876Y-5356871D02*
X55384495Y-5211728D01*
X55384495Y-5211728D02*
X55384495Y-5114966D01*
X55384495Y-5114966D02*
X55432876Y-4969823D01*
X55432876Y-4969823D02*
X55481257Y-4921442D01*
X55481257Y-4534395D02*
X55432876Y-4486014D01*
X55432876Y-4486014D02*
X55384495Y-4389252D01*
X55384495Y-4389252D02*
X55384495Y-4147347D01*
X55384495Y-4147347D02*
X55432876Y-4050585D01*
X55432876Y-4050585D02*
X55481257Y-4002204D01*
X55481257Y-4002204D02*
X55578019Y-3953823D01*
X55578019Y-3953823D02*
X55674781Y-3953823D01*
X55674781Y-3953823D02*
X55819924Y-4002204D01*
X55819924Y-4002204D02*
X56400495Y-4582776D01*
X56400495Y-4582776D02*
X56400495Y-3953823D01*
X56400495Y-2986204D02*
X56400495Y-3566776D01*
X56400495Y-3276490D02*
X55384495Y-3276490D01*
X55384495Y-3276490D02*
X55529638Y-3373252D01*
X55529638Y-3373252D02*
X55626400Y-3470014D01*
X55626400Y-3470014D02*
X55674781Y-3566776D01*
X15612095Y-23948332D02*
X15128286Y-24286999D01*
X15612095Y-24528904D02*
X14596095Y-24528904D01*
X14596095Y-24528904D02*
X14596095Y-24141856D01*
X14596095Y-24141856D02*
X14644476Y-24045094D01*
X14644476Y-24045094D02*
X14692857Y-23996713D01*
X14692857Y-23996713D02*
X14789619Y-23948332D01*
X14789619Y-23948332D02*
X14934762Y-23948332D01*
X14934762Y-23948332D02*
X15031524Y-23996713D01*
X15031524Y-23996713D02*
X15079905Y-24045094D01*
X15079905Y-24045094D02*
X15128286Y-24141856D01*
X15128286Y-24141856D02*
X15128286Y-24528904D01*
X15031524Y-23367761D02*
X14983143Y-23464523D01*
X14983143Y-23464523D02*
X14934762Y-23512904D01*
X14934762Y-23512904D02*
X14838000Y-23561285D01*
X14838000Y-23561285D02*
X14789619Y-23561285D01*
X14789619Y-23561285D02*
X14692857Y-23512904D01*
X14692857Y-23512904D02*
X14644476Y-23464523D01*
X14644476Y-23464523D02*
X14596095Y-23367761D01*
X14596095Y-23367761D02*
X14596095Y-23174237D01*
X14596095Y-23174237D02*
X14644476Y-23077475D01*
X14644476Y-23077475D02*
X14692857Y-23029094D01*
X14692857Y-23029094D02*
X14789619Y-22980713D01*
X14789619Y-22980713D02*
X14838000Y-22980713D01*
X14838000Y-22980713D02*
X14934762Y-23029094D01*
X14934762Y-23029094D02*
X14983143Y-23077475D01*
X14983143Y-23077475D02*
X15031524Y-23174237D01*
X15031524Y-23174237D02*
X15031524Y-23367761D01*
X15031524Y-23367761D02*
X15079905Y-23464523D01*
X15079905Y-23464523D02*
X15128286Y-23512904D01*
X15128286Y-23512904D02*
X15225048Y-23561285D01*
X15225048Y-23561285D02*
X15418572Y-23561285D01*
X15418572Y-23561285D02*
X15515334Y-23512904D01*
X15515334Y-23512904D02*
X15563715Y-23464523D01*
X15563715Y-23464523D02*
X15612095Y-23367761D01*
X15612095Y-23367761D02*
X15612095Y-23174237D01*
X15612095Y-23174237D02*
X15563715Y-23077475D01*
X15563715Y-23077475D02*
X15515334Y-23029094D01*
X15515334Y-23029094D02*
X15418572Y-22980713D01*
X15418572Y-22980713D02*
X15225048Y-22980713D01*
X15225048Y-22980713D02*
X15128286Y-23029094D01*
X15128286Y-23029094D02*
X15079905Y-23077475D01*
X15079905Y-23077475D02*
X15031524Y-23174237D01*
%TO.C,J5*%
X731498Y-31216600D02*
X731498Y-37058600D01*
X731498Y-37058600D02*
X2179298Y-37058600D01*
X2179298Y-31216600D02*
X731498Y-31216600D01*
X2179298Y-37058600D02*
X2179303Y-38633400D01*
X2179303Y-29641800D02*
X2179298Y-31216600D01*
X2179303Y-38633400D02*
X11120102Y-38633400D01*
X11120102Y-29641800D02*
X2179303Y-29641800D01*
X11120102Y-31932560D02*
X11120102Y-31487900D01*
X11120102Y-34432560D02*
X11120102Y-33842640D01*
X11120102Y-36787300D02*
X11120102Y-36342640D01*
D11*
X13926703Y-35637600D02*
G75*
G02*
X13372703Y-35637600I-277000J0D01*
G01*
X13372703Y-35637600D02*
G75*
G02*
X13926703Y-35637600I277000J0D01*
G01*
D12*
%TO.C,C24*%
X85445580Y-24269000D02*
X85164420Y-24269000D01*
X85445580Y-25289000D02*
X85164420Y-25289000D01*
%TO.C,C1*%
X58695948Y-26872400D02*
X59218452Y-26872400D01*
X58695948Y-28342400D02*
X59218452Y-28342400D01*
%TO.C,C13*%
X69720580Y-13769000D02*
X69439420Y-13769000D01*
X69720580Y-14789000D02*
X69439420Y-14789000D01*
D13*
%TO.C,S1*%
X77844600Y-118356200D02*
X77844600Y-118356200D01*
X88647600Y-132481200D02*
X88647600Y-132481200D01*
X88847600Y-132481200D02*
X88847600Y-132481200D01*
X105344600Y-118356200D02*
X105344600Y-118356200D01*
X77844600Y-118356200D02*
G75*
G02*
X105344600Y-118356200I13750000J0D01*
G01*
X88647600Y-132481200D02*
G75*
G02*
X88847600Y-132481200I100000J0D01*
G01*
X88847600Y-132481200D02*
G75*
G02*
X88647600Y-132481200I-100000J0D01*
G01*
X105344600Y-118356200D02*
G75*
G02*
X77844600Y-118356200I-13750000J0D01*
G01*
D12*
%TO.C,C15*%
X83439420Y-11269000D02*
X83720580Y-11269000D01*
X83439420Y-12289000D02*
X83720580Y-12289000D01*
%TO.C,R6*%
X9260100Y-95704974D02*
X9260100Y-95230458D01*
X10305100Y-95704974D02*
X10305100Y-95230458D01*
%TO.C,C14*%
X69720580Y-7769000D02*
X69439420Y-7769000D01*
X69720580Y-8789000D02*
X69439420Y-8789000D01*
%TO.C,C22*%
X47998400Y-4122033D02*
X47998400Y-4414567D01*
X49018400Y-4122033D02*
X49018400Y-4414567D01*
%TO.C,C2*%
X57650620Y-32939400D02*
X57931780Y-32939400D01*
X57650620Y-33959400D02*
X57931780Y-33959400D01*
%TO.C,R4*%
X15667742Y-35256500D02*
X16142258Y-35256500D01*
X15667742Y-36301500D02*
X16142258Y-36301500D01*
%TO.C,C10*%
X69439420Y-12269000D02*
X69720580Y-12269000D01*
X69439420Y-13289000D02*
X69720580Y-13289000D01*
%TO.C,R11*%
X89356263Y-29424000D02*
X90803737Y-29424000D01*
X89356263Y-32134000D02*
X90803737Y-32134000D01*
D10*
%TO.C,J6*%
X95478601Y-33418300D02*
X95478601Y-33862960D01*
X95478601Y-35773040D02*
X95478601Y-36362960D01*
X95478601Y-38273040D02*
X95478601Y-38717700D01*
X95478601Y-40563800D02*
X104419400Y-40563800D01*
X104419400Y-31572200D02*
X95478601Y-31572200D01*
X104419400Y-40563800D02*
X104419405Y-38989000D01*
X104419405Y-33147000D02*
X104419400Y-31572200D01*
X104419405Y-38989000D02*
X105867205Y-38989000D01*
X105867205Y-33147000D02*
X104419405Y-33147000D01*
X105867205Y-38989000D02*
X105867205Y-33147000D01*
D11*
X93226000Y-34568000D02*
G75*
G02*
X92672000Y-34568000I-277000J0D01*
G01*
X92672000Y-34568000D02*
G75*
G02*
X93226000Y-34568000I277000J0D01*
G01*
D12*
%TO.C,C23*%
X44998400Y-4122033D02*
X44998400Y-4414567D01*
X46018400Y-4122033D02*
X46018400Y-4414567D01*
D13*
%TO.C,S2*%
X39490600Y-126382600D02*
X39490600Y-126382600D01*
X50293600Y-140507600D02*
X50293600Y-140507600D01*
X50493600Y-140507600D02*
X50493600Y-140507600D01*
X66990600Y-126382600D02*
X66990600Y-126382600D01*
X39490600Y-126382600D02*
G75*
G02*
X66990600Y-126382600I13750000J0D01*
G01*
X50293600Y-140507600D02*
G75*
G02*
X50493600Y-140507600I100000J0D01*
G01*
X50493600Y-140507600D02*
G75*
G02*
X50293600Y-140507600I-100000J0D01*
G01*
X66990600Y-126382600D02*
G75*
G02*
X39490600Y-126382600I-13750000J0D01*
G01*
D10*
%TO.C,J4*%
X66150699Y-17299201D02*
X66150699Y-17747061D01*
X66150699Y-21206541D02*
X66150699Y-23623800D01*
X66150699Y-23623800D02*
X90509299Y-23623800D01*
X90509299Y-17299201D02*
X66150699Y-17299201D01*
X90509299Y-17747061D02*
X90509299Y-17299201D01*
X90509299Y-23623800D02*
X90509299Y-21206541D01*
D14*
X92668299Y-22556800D02*
G75*
G02*
X91906299Y-22556800I-381000J0D01*
G01*
X91906299Y-22556800D02*
G75*
G02*
X92668299Y-22556800I381000J0D01*
G01*
D12*
%TO.C,C11*%
X69720580Y-10769000D02*
X69439420Y-10769000D01*
X69720580Y-11789000D02*
X69439420Y-11789000D01*
%TO.C,C6*%
X55370000Y-18096620D02*
X55370000Y-18377780D01*
X56390000Y-18096620D02*
X56390000Y-18377780D01*
%TO.C,C3*%
X53884452Y-26618400D02*
X53361948Y-26618400D01*
X53884452Y-28088400D02*
X53361948Y-28088400D01*
D13*
%TO.C,S3*%
X1136600Y-118356200D02*
X1136600Y-118356200D01*
X11939600Y-132481200D02*
X11939600Y-132481200D01*
X12139600Y-132481200D02*
X12139600Y-132481200D01*
X28636600Y-118356200D02*
X28636600Y-118356200D01*
X1136600Y-118356200D02*
G75*
G02*
X28636600Y-118356200I13750000J0D01*
G01*
X11939600Y-132481200D02*
G75*
G02*
X12139600Y-132481200I100000J0D01*
G01*
X12139600Y-132481200D02*
G75*
G02*
X11939600Y-132481200I-100000J0D01*
G01*
X28636600Y-118356200D02*
G75*
G02*
X1136600Y-118356200I-13750000J0D01*
G01*
D12*
%TO.C,C19*%
X59988400Y-4122033D02*
X59988400Y-4414567D01*
X61008400Y-4122033D02*
X61008400Y-4414567D01*
%TO.C,R9*%
X33529458Y-37577500D02*
X33054942Y-37577500D01*
X33529458Y-38622500D02*
X33054942Y-38622500D01*
D10*
%TO.C,J3*%
X558795Y-19431000D02*
X558795Y-25273000D01*
X558795Y-25273000D02*
X2006595Y-25273000D01*
X2006595Y-19431000D02*
X558795Y-19431000D01*
X2006595Y-25273000D02*
X2006600Y-26847800D01*
X2006600Y-17856200D02*
X2006595Y-19431000D01*
X2006600Y-26847800D02*
X10947399Y-26847800D01*
X10947399Y-17856200D02*
X2006600Y-17856200D01*
X10947399Y-20146960D02*
X10947399Y-19702300D01*
X10947399Y-22646960D02*
X10947399Y-22057040D01*
X10947399Y-25001700D02*
X10947399Y-24557040D01*
D11*
X13754000Y-23852000D02*
G75*
G02*
X13200000Y-23852000I-277000J0D01*
G01*
X13200000Y-23852000D02*
G75*
G02*
X13754000Y-23852000I277000J0D01*
G01*
D12*
%TO.C,C4*%
X47061200Y-29105980D02*
X47061200Y-28824820D01*
X48081200Y-29105980D02*
X48081200Y-28824820D01*
%TO.C,R7*%
X91423258Y-39101500D02*
X90948742Y-39101500D01*
X91423258Y-40146500D02*
X90948742Y-40146500D01*
%TO.C,FB1*%
X50998400Y-4439567D02*
X50998400Y-4097033D01*
X52018400Y-4439567D02*
X52018400Y-4097033D01*
%TO.C,U7*%
X84070000Y-27869000D02*
X84120000Y-27869000D01*
X84070000Y-29689000D02*
X84070000Y-27869000D01*
X84120000Y-29689000D02*
X84070000Y-29689000D01*
X87140000Y-27869000D02*
X87190000Y-27869000D01*
X87190000Y-27869000D02*
X87190000Y-29689000D01*
X87190000Y-29689000D02*
X87140000Y-29689000D01*
X84120000Y-30229000D02*
X83790000Y-30469000D01*
X83790000Y-29989000D01*
X84120000Y-30229000D01*
G36*
X84120000Y-30229000D02*
G01*
X83790000Y-30469000D01*
X83790000Y-29989000D01*
X84120000Y-30229000D01*
G37*
%TO.C,C20*%
X56998400Y-4122033D02*
X56998400Y-4414567D01*
X58018400Y-4122033D02*
X58018400Y-4414567D01*
%TO.C,U4*%
X71720000Y-7231500D02*
X72195000Y-7231500D01*
X71720000Y-7706500D02*
X71720000Y-7231500D01*
X71720000Y-16451500D02*
X71720000Y-15976500D01*
X72195000Y-16451500D02*
X71720000Y-16451500D01*
X80465000Y-7231500D02*
X80940000Y-7231500D01*
X80940000Y-7231500D02*
X80940000Y-7706500D01*
X80940000Y-15976500D02*
X80940000Y-16451500D01*
X80940000Y-16451500D02*
X80465000Y-16451500D01*
X80080000Y-6731500D02*
X79840000Y-6401500D01*
X80320000Y-6401500D01*
X80080000Y-6731500D01*
G36*
X80080000Y-6731500D02*
G01*
X79840000Y-6401500D01*
X80320000Y-6401500D01*
X80080000Y-6731500D01*
G37*
%TO.C,R5*%
X9260100Y-101704974D02*
X9260100Y-101230458D01*
X10305100Y-101704974D02*
X10305100Y-101230458D01*
%TO.C,R12*%
X26412258Y-37577500D02*
X25937742Y-37577500D01*
X26412258Y-38622500D02*
X25937742Y-38622500D01*
%TO.C,C16*%
X34070000Y-15925267D02*
X34070000Y-15632733D01*
X35090000Y-15925267D02*
X35090000Y-15632733D01*
%TO.C,C29*%
X26034420Y-34288000D02*
X26315580Y-34288000D01*
X26034420Y-35308000D02*
X26315580Y-35308000D01*
%TO.C,C27*%
X33336620Y-34288000D02*
X33617780Y-34288000D01*
X33336620Y-35308000D02*
X33617780Y-35308000D01*
%TO.C,R17*%
X18057500Y-23541742D02*
X18057500Y-24016258D01*
X19102500Y-23541742D02*
X19102500Y-24016258D01*
%TO.C,C8*%
X81439420Y-1309000D02*
X81720580Y-1309000D01*
X81439420Y-2329000D02*
X81720580Y-2329000D01*
%TO.C,J10*%
X75280000Y-36779000D02*
G75*
G02*
X71880000Y-36779000I-1700000J0D01*
G01*
X71880000Y-36779000D02*
G75*
G02*
X75280000Y-36779000I1700000J0D01*
G01*
%TO.C,U1*%
X57793200Y-29095400D02*
X59613200Y-29095400D01*
X57793200Y-29145400D02*
X57793200Y-29095400D01*
X57793200Y-32215400D02*
X57793200Y-32165400D01*
X59613200Y-29095400D02*
X59613200Y-29145400D01*
X59613200Y-32165400D02*
X59613200Y-32215400D01*
X59613200Y-32215400D02*
X57793200Y-32215400D01*
X60393200Y-32495400D02*
X59913200Y-32495400D01*
X60153200Y-32165400D01*
X60393200Y-32495400D01*
G36*
X60393200Y-32495400D02*
G01*
X59913200Y-32495400D01*
X60153200Y-32165400D01*
X60393200Y-32495400D01*
G37*
%TO.C,C17*%
X39070000Y-16632733D02*
X39070000Y-16925267D01*
X40090000Y-16632733D02*
X40090000Y-16925267D01*
%TO.C,C26*%
X21070000Y-23919580D02*
X21070000Y-23638420D01*
X22090000Y-23919580D02*
X22090000Y-23638420D01*
%TO.C,Y1*%
X38690000Y-14569000D02*
X35870000Y-14569000D01*
X38690000Y-16989000D02*
X38690000Y-14569000D01*
%TO.C,C9*%
X81439420Y-4269000D02*
X81720580Y-4269000D01*
X81439420Y-5289000D02*
X81720580Y-5289000D01*
%TO.C,R1*%
X31817258Y-12256500D02*
X31342742Y-12256500D01*
X31817258Y-13301500D02*
X31342742Y-13301500D01*
%TO.C,L1*%
X49647200Y-28707400D02*
X55567200Y-28707400D01*
X49647200Y-30257400D02*
X49647200Y-28707400D01*
X49647200Y-34127400D02*
X49647200Y-32577400D01*
X55567200Y-28707400D02*
X55567200Y-30257400D01*
X55567200Y-32577400D02*
X55567200Y-34127400D01*
X55567200Y-34127400D02*
X49647200Y-34127400D01*
%TO.C,J11*%
X88780000Y-36279000D02*
G75*
G02*
X85380000Y-36279000I-1700000J0D01*
G01*
X85380000Y-36279000D02*
G75*
G02*
X88780000Y-36279000I1700000J0D01*
G01*
%TO.C,R3*%
X9260100Y-98704974D02*
X9260100Y-98230458D01*
X10305100Y-98704974D02*
X10305100Y-98230458D01*
%TO.C,R10*%
X29968258Y-37577500D02*
X29493742Y-37577500D01*
X29968258Y-38622500D02*
X29493742Y-38622500D01*
%TO.C,J12*%
X82116400Y-38303200D02*
G75*
G02*
X78716400Y-38303200I-1700000J0D01*
G01*
X78716400Y-38303200D02*
G75*
G02*
X82116400Y-38303200I1700000J0D01*
G01*
%TO.C,U3*%
X50094200Y-12113200D02*
X50189200Y-12113200D01*
X50094200Y-16233200D02*
X50094200Y-12113200D01*
X50189200Y-16233200D02*
X50094200Y-16233200D01*
X55119200Y-12113200D02*
X55214200Y-12113200D01*
X55214200Y-12113200D02*
X55214200Y-16233200D01*
X55214200Y-16233200D02*
X55119200Y-16233200D01*
X55454200Y-11813200D02*
X55124200Y-11573200D01*
X55454200Y-11333200D01*
X55454200Y-11813200D01*
G36*
X55454200Y-11813200D02*
G01*
X55124200Y-11573200D01*
X55454200Y-11333200D01*
X55454200Y-11813200D01*
G37*
%TO.C,U2*%
X43823200Y-26809400D02*
X45643200Y-26809400D01*
X43823200Y-26859400D02*
X43823200Y-26809400D01*
X43823200Y-28759400D02*
X43823200Y-27979400D01*
X43823200Y-29929400D02*
X43823200Y-29879400D01*
X45643200Y-26809400D02*
X45643200Y-26859400D01*
X45643200Y-29879400D02*
X45643200Y-29929400D01*
X45643200Y-29929400D02*
X43823200Y-29929400D01*
X46423200Y-30209400D02*
X45943200Y-30209400D01*
X46183200Y-29879400D01*
X46423200Y-30209400D01*
G36*
X46423200Y-30209400D02*
G01*
X45943200Y-30209400D01*
X46183200Y-29879400D01*
X46423200Y-30209400D01*
G37*
%TO.C,U5*%
X35470000Y-5169000D02*
X35770000Y-5169000D01*
X35470000Y-5469000D02*
X35470000Y-5169000D01*
X35470000Y-12389000D02*
X35470000Y-12089000D01*
X35770000Y-12389000D02*
X35470000Y-12389000D01*
X42390000Y-5169000D02*
X42690000Y-5169000D01*
X42690000Y-5169000D02*
X42690000Y-5469000D01*
X42690000Y-12089000D02*
X42690000Y-12389000D01*
X42690000Y-12389000D02*
X42390000Y-12389000D01*
X35760000Y-13029000D02*
X35290000Y-13369000D01*
X35290000Y-12689000D01*
X35760000Y-13029000D01*
G36*
X35760000Y-13029000D02*
G01*
X35290000Y-13369000D01*
X35290000Y-12689000D01*
X35760000Y-13029000D01*
G37*
%TO.C,C28*%
X29590420Y-34288000D02*
X29871580Y-34288000D01*
X29590420Y-35308000D02*
X29871580Y-35308000D01*
%TO.C,C25*%
X79695420Y-25675000D02*
X79976580Y-25675000D01*
X79695420Y-26695000D02*
X79976580Y-26695000D01*
%TO.C,C12*%
X75570000Y-5144580D02*
X75570000Y-4863420D01*
X76590000Y-5144580D02*
X76590000Y-4863420D01*
%TO.C,C5*%
X41223200Y-28509980D02*
X41223200Y-28228820D01*
X42243200Y-28509980D02*
X42243200Y-28228820D01*
%TO.C,R2*%
X31842742Y-9756500D02*
X32317258Y-9756500D01*
X31842742Y-10801500D02*
X32317258Y-10801500D01*
%TO.C,C7*%
X55333020Y-8583200D02*
X55614180Y-8583200D01*
X55333020Y-9603200D02*
X55614180Y-9603200D01*
%TO.C,C21*%
X53998400Y-4122033D02*
X53998400Y-4414567D01*
X55018400Y-4122033D02*
X55018400Y-4414567D01*
%TO.C,R8*%
X16057500Y-24016258D02*
X16057500Y-23541742D01*
X17102500Y-24016258D02*
X17102500Y-23541742D01*
%TD*%
M02*
