%TF.GenerationSoftware,KiCad,Pcbnew,9.0.7*%
%TF.CreationDate,2026-04-30T18:41:43-07:00*%
%TF.ProjectId,chargingboard,63686172-6769-46e6-9762-6f6172642e6b,1*%
%TF.SameCoordinates,Original*%
%TF.FileFunction,Soldermask,Bot*%
%TF.FilePolarity,Negative*%
%FSLAX46Y46*%
G04 Gerber Fmt 4.6, Leading zero omitted, Abs format (unit mm)*
G04 Created by KiCad (PCBNEW 9.0.7) date 2026-04-30 18:41:43*
%MOMM*%
%LPD*%
G01*
G04 APERTURE LIST*
G04 Aperture macros list*
%AMRoundRect*
0 Rectangle with rounded corners*
0 $1 Rounding radius*
0 $2 $3 $4 $5 $6 $7 $8 $9 X,Y pos of 4 corners*
0 Add a 4 corners polygon primitive as box body*
4,1,4,$2,$3,$4,$5,$6,$7,$8,$9,$2,$3,0*
0 Add four circle primitives for the rounded corners*
1,1,$1+$1,$2,$3*
1,1,$1+$1,$4,$5*
1,1,$1+$1,$6,$7*
1,1,$1+$1,$8,$9*
0 Add four rect primitives between the rounded corners*
20,1,$1+$1,$2,$3,$4,$5,0*
20,1,$1+$1,$4,$5,$6,$7,0*
20,1,$1+$1,$6,$7,$8,$9,0*
20,1,$1+$1,$8,$9,$2,$3,0*%
%AMFreePoly0*
4,1,22,0.945671,0.830970,1.026777,0.776777,1.080970,0.695671,1.100000,0.600000,1.100000,-0.600000,1.080970,-0.695671,1.026777,-0.776777,0.945671,-0.830970,0.850000,-0.850000,-0.596447,-0.850000,-0.692118,-0.830970,-0.773224,-0.776777,-1.026777,-0.523224,-1.080970,-0.442118,-1.100000,-0.346447,-1.100000,0.600000,-1.080970,0.695671,-1.026777,0.776777,-0.945671,0.830970,-0.850000,0.850000,
0.850000,0.850000,0.945671,0.830970,0.945671,0.830970,$1*%
G04 Aperture macros list end*
%ADD10C,3.200000*%
%ADD11C,2.000000*%
%ADD12C,1.300000*%
%ADD13RoundRect,0.250000X0.850000X0.600000X-0.850000X0.600000X-0.850000X-0.600000X0.850000X-0.600000X0*%
%ADD14O,2.200000X1.700000*%
%ADD15FreePoly0,0.000000*%
%ADD16FreePoly0,180.000000*%
%ADD17FreePoly0,270.000000*%
%ADD18O,1.700000X2.200000*%
%ADD19C,1.700000*%
%ADD20RoundRect,0.250000X0.600000X0.600000X-0.600000X0.600000X-0.600000X-0.600000X0.600000X-0.600000X0*%
%ADD21C,2.400000*%
G04 APERTURE END LIST*
D10*
%TO.C,J1*%
X206000000Y-43000000D03*
D11*
X211500000Y-47500000D03*
X211500000Y-50500000D03*
X211500000Y-53500000D03*
X211500000Y-56500000D03*
X211500000Y-59500000D03*
X211500000Y-62500000D03*
X211500000Y-65500000D03*
X208000000Y-49000000D03*
X208000000Y-52000000D03*
X208000000Y-55000000D03*
X208000000Y-58000000D03*
X208000000Y-61000000D03*
X208000000Y-64000000D03*
X204000000Y-49000000D03*
X204000000Y-52000000D03*
X204000000Y-55000000D03*
X204000000Y-58000000D03*
X204000000Y-61000000D03*
X204000000Y-64000000D03*
X200500000Y-47500000D03*
X200500000Y-50500000D03*
X200500000Y-53500000D03*
X200500000Y-56500000D03*
X200500000Y-59500000D03*
X200500000Y-62500000D03*
X200500000Y-65500000D03*
%TD*%
D12*
%TO.C,J2*%
X212415000Y-92000000D03*
D13*
X211075000Y-95750000D03*
D14*
X211075000Y-93250000D03*
X211075000Y-90750000D03*
X211075000Y-88250000D03*
%TD*%
D12*
%TO.C,J7*%
X165058000Y-115811223D03*
D15*
X166398000Y-114561223D03*
D14*
X166398000Y-117061223D03*
%TD*%
D12*
%TO.C,J6*%
X212415000Y-116000000D03*
D16*
X211075000Y-117250000D03*
D14*
X211075000Y-114750000D03*
%TD*%
D12*
%TO.C,J8*%
X180500000Y-44085000D03*
D17*
X181750000Y-45425000D03*
D18*
X179250000Y-45425000D03*
%TD*%
D19*
%TO.C,J12*%
X208560309Y-71041500D03*
X208560309Y-73541500D03*
X208560309Y-76041500D03*
X208560309Y-78541500D03*
X208560309Y-81041500D03*
X208560309Y-83541500D03*
X211060309Y-71041500D03*
X211060309Y-73541500D03*
X211060309Y-76041500D03*
X211060309Y-78541500D03*
X211060309Y-81041500D03*
D20*
X211060309Y-83541500D03*
D12*
X212400309Y-77291500D03*
%TD*%
D21*
%TO.C,R5*%
X203400309Y-116008000D03*
X178000309Y-116008000D03*
%TD*%
%TO.C,R6*%
X203400309Y-129008000D03*
X178000309Y-129008000D03*
%TD*%
D10*
%TO.C,H1*%
X164846000Y-131826000D03*
%TD*%
%TO.C,H2*%
X212598000Y-131826000D03*
%TD*%
M02*
