%TF.GenerationSoftware,KiCad,Pcbnew,9.0.7*%
%TF.CreationDate,2026-04-30T18:41:43-07:00*%
%TF.ProjectId,chargingboard,63686172-6769-46e6-9762-6f6172642e6b,1*%
%TF.SameCoordinates,Original*%
%TF.FileFunction,Soldermask,Top*%
%TF.FilePolarity,Negative*%
%FSLAX46Y46*%
G04 Gerber Fmt 4.6, Leading zero omitted, Abs format (unit mm)*
G04 Created by KiCad (PCBNEW 9.0.7) date 2026-04-30 18:41:43*
%MOMM*%
%LPD*%
G01*
G04 APERTURE LIST*
G04 Aperture macros list*
%AMRoundRect*
0 Rectangle with rounded corners*
0 $1 Rounding radius*
0 $2 $3 $4 $5 $6 $7 $8 $9 X,Y pos of 4 corners*
0 Add a 4 corners polygon primitive as box body*
4,1,4,$2,$3,$4,$5,$6,$7,$8,$9,$2,$3,0*
0 Add four circle primitives for the rounded corners*
1,1,$1+$1,$2,$3*
1,1,$1+$1,$4,$5*
1,1,$1+$1,$6,$7*
1,1,$1+$1,$8,$9*
0 Add four rect primitives between the rounded corners*
20,1,$1+$1,$2,$3,$4,$5,0*
20,1,$1+$1,$4,$5,$6,$7,0*
20,1,$1+$1,$6,$7,$8,$9,0*
20,1,$1+$1,$8,$9,$2,$3,0*%
%AMFreePoly0*
4,1,22,0.945671,0.830970,1.026777,0.776777,1.080970,0.695671,1.100000,0.600000,1.100000,-0.600000,1.080970,-0.695671,1.026777,-0.776777,0.945671,-0.830970,0.850000,-0.850000,-0.596447,-0.850000,-0.692118,-0.830970,-0.773224,-0.776777,-1.026777,-0.523224,-1.080970,-0.442118,-1.100000,-0.346447,-1.100000,0.600000,-1.080970,0.695671,-1.026777,0.776777,-0.945671,0.830970,-0.850000,0.850000,
0.850000,0.850000,0.945671,0.830970,0.945671,0.830970,$1*%
G04 Aperture macros list end*
%ADD10C,3.200000*%
%ADD11C,2.000000*%
%ADD12C,1.300000*%
%ADD13RoundRect,0.250000X0.850000X0.600000X-0.850000X0.600000X-0.850000X-0.600000X0.850000X-0.600000X0*%
%ADD14O,2.200000X1.700000*%
%ADD15FreePoly0,0.000000*%
%ADD16FreePoly0,180.000000*%
%ADD17C,1.000000*%
%ADD18RoundRect,0.237500X0.300000X0.237500X-0.300000X0.237500X-0.300000X-0.237500X0.300000X-0.237500X0*%
%ADD19RoundRect,0.237500X-0.237500X0.300000X-0.237500X-0.300000X0.237500X-0.300000X0.237500X0.300000X0*%
%ADD20RoundRect,0.237500X-0.300000X-0.237500X0.300000X-0.237500X0.300000X0.237500X-0.300000X0.237500X0*%
%ADD21FreePoly0,270.000000*%
%ADD22O,1.700000X2.200000*%
%ADD23RoundRect,0.250000X0.750000X0.650000X-0.750000X0.650000X-0.750000X-0.650000X0.750000X-0.650000X0*%
%ADD24RoundRect,0.150000X0.512500X0.150000X-0.512500X0.150000X-0.512500X-0.150000X0.512500X-0.150000X0*%
%ADD25RoundRect,0.250000X-0.325000X-0.450000X0.325000X-0.450000X0.325000X0.450000X-0.325000X0.450000X0*%
%ADD26RoundRect,0.237500X0.250000X0.237500X-0.250000X0.237500X-0.250000X-0.237500X0.250000X-0.237500X0*%
%ADD27RoundRect,0.237500X-0.250000X-0.237500X0.250000X-0.237500X0.250000X0.237500X-0.250000X0.237500X0*%
%ADD28RoundRect,0.237500X0.237500X-0.300000X0.237500X0.300000X-0.237500X0.300000X-0.237500X-0.300000X0*%
%ADD29RoundRect,0.250000X0.525000X0.250000X-0.525000X0.250000X-0.525000X-0.250000X0.525000X-0.250000X0*%
%ADD30RoundRect,0.250000X0.337500X0.475000X-0.337500X0.475000X-0.337500X-0.475000X0.337500X-0.475000X0*%
%ADD31RoundRect,0.200000X-0.200000X0.250000X-0.200000X-0.250000X0.200000X-0.250000X0.200000X0.250000X0*%
%ADD32R,2.400000X0.740000*%
%ADD33RoundRect,0.125000X-0.625000X0.125000X-0.625000X-0.125000X0.625000X-0.125000X0.625000X0.125000X0*%
%ADD34RoundRect,0.125000X-0.125000X0.625000X-0.125000X-0.625000X0.125000X-0.625000X0.125000X0.625000X0*%
%ADD35C,1.700000*%
%ADD36RoundRect,0.250000X0.600000X0.600000X-0.600000X0.600000X-0.600000X-0.600000X0.600000X-0.600000X0*%
%ADD37RoundRect,0.150000X-0.825000X-0.150000X0.825000X-0.150000X0.825000X0.150000X-0.825000X0.150000X0*%
%ADD38RoundRect,0.237500X-0.237500X0.250000X-0.237500X-0.250000X0.237500X-0.250000X0.237500X0.250000X0*%
%ADD39RoundRect,0.237500X0.237500X-0.287500X0.237500X0.287500X-0.237500X0.287500X-0.237500X-0.287500X0*%
%ADD40R,7.150000X7.150000*%
%ADD41RoundRect,0.062500X-0.350000X0.062500X-0.350000X-0.062500X0.350000X-0.062500X0.350000X0.062500X0*%
%ADD42RoundRect,0.062500X-0.062500X0.350000X-0.062500X-0.350000X0.062500X-0.350000X0.062500X0.350000X0*%
%ADD43RoundRect,0.322500X-0.752500X-2.827500X0.752500X-2.827500X0.752500X2.827500X-0.752500X2.827500X0*%
%ADD44R,1.727200X2.794000*%
%ADD45R,0.254000X1.295400*%
%ADD46RoundRect,0.150000X-0.512500X-0.150000X0.512500X-0.150000X0.512500X0.150000X-0.512500X0.150000X0*%
%ADD47RoundRect,0.250000X0.400000X1.075000X-0.400000X1.075000X-0.400000X-1.075000X0.400000X-1.075000X0*%
%ADD48C,2.400000*%
G04 APERTURE END LIST*
D10*
%TO.C,J1*%
X206000000Y-43000000D03*
D11*
X211500000Y-47500000D03*
X211500000Y-50500000D03*
X211500000Y-53500000D03*
X211500000Y-56500000D03*
X211500000Y-59500000D03*
X211500000Y-62500000D03*
X211500000Y-65500000D03*
X208000000Y-49000000D03*
X208000000Y-52000000D03*
X208000000Y-55000000D03*
X208000000Y-58000000D03*
X208000000Y-61000000D03*
X208000000Y-64000000D03*
X204000000Y-49000000D03*
X204000000Y-52000000D03*
X204000000Y-55000000D03*
X204000000Y-58000000D03*
X204000000Y-61000000D03*
X204000000Y-64000000D03*
X200500000Y-47500000D03*
X200500000Y-50500000D03*
X200500000Y-53500000D03*
X200500000Y-56500000D03*
X200500000Y-59500000D03*
X200500000Y-62500000D03*
X200500000Y-65500000D03*
%TD*%
D12*
%TO.C,J2*%
X212415000Y-92000000D03*
D13*
X211075000Y-95750000D03*
D14*
X211075000Y-93250000D03*
X211075000Y-90750000D03*
X211075000Y-88250000D03*
%TD*%
D12*
%TO.C,J7*%
X165058000Y-115811223D03*
D15*
X166398000Y-114561223D03*
D14*
X166398000Y-117061223D03*
%TD*%
D12*
%TO.C,J6*%
X212415000Y-116000000D03*
D16*
X211075000Y-117250000D03*
D14*
X211075000Y-114750000D03*
%TD*%
D17*
%TO.C,TP6*%
X195326000Y-72644000D03*
%TD*%
%TO.C,TP3*%
X185928000Y-75184000D03*
%TD*%
D18*
%TO.C,C32*%
X187806500Y-79248000D03*
X186081500Y-79248000D03*
%TD*%
%TO.C,C33*%
X187806500Y-81280000D03*
X186081500Y-81280000D03*
%TD*%
D19*
%TO.C,C34*%
X181356000Y-73813500D03*
X181356000Y-75538500D03*
%TD*%
D18*
%TO.C,C31*%
X187806500Y-77216000D03*
X186081500Y-77216000D03*
%TD*%
D19*
%TO.C,C35*%
X179324000Y-73813500D03*
X179324000Y-75538500D03*
%TD*%
D20*
%TO.C,C15*%
X178207500Y-81788000D03*
X179932500Y-81788000D03*
%TD*%
D12*
%TO.C,J8*%
X180500000Y-44085000D03*
D21*
X181750000Y-45425000D03*
D22*
X179250000Y-45425000D03*
%TD*%
D23*
%TO.C,L1*%
X186250000Y-45500000D03*
X190750000Y-45500000D03*
%TD*%
D24*
%TO.C,U1*%
X193412500Y-46587500D03*
X193412500Y-45637500D03*
X193412500Y-44687500D03*
X195687500Y-44687500D03*
X195687500Y-45637500D03*
X195687500Y-46587500D03*
%TD*%
D20*
%TO.C,C12*%
X194209500Y-42164000D03*
X195934500Y-42164000D03*
%TD*%
D25*
%TO.C,D1*%
X178073500Y-48768000D03*
X180123500Y-48768000D03*
%TD*%
D26*
%TO.C,R8*%
X182250000Y-48925000D03*
X184075000Y-48925000D03*
%TD*%
D20*
%TO.C,C13*%
X192886500Y-49500000D03*
X191161500Y-49500000D03*
%TD*%
D27*
%TO.C,R7*%
X179825000Y-50925000D03*
X178000000Y-50925000D03*
%TD*%
%TO.C,R12*%
X184075000Y-50925000D03*
X182250000Y-50925000D03*
%TD*%
D28*
%TO.C,C23*%
X194056000Y-54509500D03*
X194056000Y-56234500D03*
%TD*%
D27*
%TO.C,R9*%
X179662500Y-52925000D03*
X177837500Y-52925000D03*
%TD*%
D26*
%TO.C,R13*%
X182250000Y-52925000D03*
X184075000Y-52925000D03*
%TD*%
D29*
%TO.C,SW1*%
X167047000Y-52756000D03*
X172297000Y-52756000D03*
X167047000Y-55956000D03*
X172297000Y-55956000D03*
%TD*%
D30*
%TO.C,C22*%
X195050500Y-49530000D03*
X197125500Y-49530000D03*
%TD*%
D24*
%TO.C,U7*%
X189625309Y-56408000D03*
X189625309Y-54508000D03*
X191900309Y-54508000D03*
X191900309Y-55458000D03*
X191900309Y-56408000D03*
%TD*%
D19*
%TO.C,C24*%
X186625309Y-56270500D03*
X186625309Y-54545500D03*
%TD*%
D28*
%TO.C,C4*%
X174400309Y-54645500D03*
X174400309Y-56370500D03*
%TD*%
D26*
%TO.C,R10*%
X177837500Y-54925000D03*
X179662500Y-54925000D03*
%TD*%
D20*
%TO.C,C1*%
X184025000Y-55012500D03*
X182300000Y-55012500D03*
%TD*%
D28*
%TO.C,C3*%
X187452000Y-58065500D03*
X187452000Y-59790500D03*
%TD*%
D20*
%TO.C,C2*%
X193902500Y-58928000D03*
X192177500Y-58928000D03*
%TD*%
D31*
%TO.C,Y2*%
X190202000Y-58608000D03*
X190202000Y-60008000D03*
X189102000Y-60008000D03*
X189102000Y-58608000D03*
%TD*%
D32*
%TO.C,J13*%
X168720309Y-59436000D03*
X172620309Y-59436000D03*
X168720309Y-60706000D03*
X172620309Y-60706000D03*
X168720309Y-61976000D03*
X172620309Y-61976000D03*
X168720309Y-63246000D03*
X172620309Y-63246000D03*
X168720309Y-64516000D03*
X172620309Y-64516000D03*
X168720309Y-65786000D03*
X172620309Y-65786000D03*
X168720309Y-67056000D03*
X172620309Y-67056000D03*
%TD*%
D33*
%TO.C,U3*%
X191575309Y-65208000D03*
X191575309Y-66008000D03*
X191575309Y-66808000D03*
X191575309Y-67608000D03*
X191575309Y-68408000D03*
X191575309Y-69208000D03*
X191575309Y-70008000D03*
X191575309Y-70808000D03*
D34*
X190200309Y-72183000D03*
X189400309Y-72183000D03*
X188600309Y-72183000D03*
X187800309Y-72183000D03*
X187000309Y-72183000D03*
X186200309Y-72183000D03*
X185400309Y-72183000D03*
X184600309Y-72183000D03*
D33*
X183225309Y-70808000D03*
X183225309Y-70008000D03*
X183225309Y-69208000D03*
X183225309Y-68408000D03*
X183225309Y-67608000D03*
X183225309Y-66808000D03*
X183225309Y-66008000D03*
X183225309Y-65208000D03*
D34*
X184600309Y-63833000D03*
X185400309Y-63833000D03*
X186200309Y-63833000D03*
X187000309Y-63833000D03*
X187800309Y-63833000D03*
X188600309Y-63833000D03*
X189400309Y-63833000D03*
X190200309Y-63833000D03*
%TD*%
D27*
%TO.C,R1*%
X195312809Y-64500000D03*
X193487809Y-64500000D03*
%TD*%
D17*
%TO.C,TP4*%
X194000000Y-66500000D03*
%TD*%
D28*
%TO.C,C6*%
X197500000Y-68137500D03*
X197500000Y-69862500D03*
%TD*%
D17*
%TO.C,TP5*%
X195580000Y-69850000D03*
%TD*%
D35*
%TO.C,J12*%
X208560309Y-71041500D03*
X208560309Y-73541500D03*
X208560309Y-76041500D03*
X208560309Y-78541500D03*
X208560309Y-81041500D03*
X208560309Y-83541500D03*
X211060309Y-71041500D03*
X211060309Y-73541500D03*
X211060309Y-76041500D03*
X211060309Y-78541500D03*
X211060309Y-81041500D03*
D36*
X211060309Y-83541500D03*
D12*
X212400309Y-77291500D03*
%TD*%
D17*
%TO.C,TP7*%
X180400309Y-70508000D03*
%TD*%
D20*
%TO.C,C7*%
X204787809Y-70865000D03*
X203062809Y-70865000D03*
%TD*%
D17*
%TO.C,TP1*%
X193040000Y-72390000D03*
%TD*%
D37*
%TO.C,U2*%
X202900309Y-72960000D03*
X202900309Y-74230000D03*
X202900309Y-75500000D03*
X202900309Y-76770000D03*
X197950309Y-76770000D03*
X197950309Y-75500000D03*
X197950309Y-74230000D03*
X197950309Y-72960000D03*
%TD*%
D28*
%TO.C,C14*%
X166964809Y-73201000D03*
X166964809Y-74926000D03*
%TD*%
%TO.C,C10*%
X165186809Y-73201000D03*
X165186809Y-74926000D03*
%TD*%
%TO.C,C26*%
X168742809Y-73201000D03*
X168742809Y-74926000D03*
%TD*%
%TO.C,C8*%
X175346809Y-73963000D03*
X175346809Y-75688000D03*
%TD*%
D38*
%TO.C,R11*%
X205425309Y-75912500D03*
X205425309Y-74087500D03*
%TD*%
D17*
%TO.C,TP2*%
X191516000Y-75692000D03*
%TD*%
D39*
%TO.C,FB2*%
X183134000Y-73801000D03*
X183134000Y-75551000D03*
%TD*%
D40*
%TO.C,U5*%
X170819618Y-82228000D03*
D41*
X175257118Y-78478000D03*
X175257118Y-78978000D03*
X175257118Y-79478000D03*
X175257118Y-79978000D03*
X175257118Y-80478000D03*
X175257118Y-80978000D03*
X175257118Y-81478000D03*
X175257118Y-81978000D03*
X175257118Y-82478000D03*
X175257118Y-82978000D03*
X175257118Y-83478000D03*
X175257118Y-83978000D03*
X175257118Y-84478000D03*
X175257118Y-84978000D03*
X175257118Y-85478000D03*
X175257118Y-85978000D03*
D42*
X174569618Y-86665500D03*
X174069618Y-86665500D03*
X173569618Y-86665500D03*
X173069618Y-86665500D03*
X172569618Y-86665500D03*
X172069618Y-86665500D03*
X171569618Y-86665500D03*
X171069618Y-86665500D03*
X170569618Y-86665500D03*
X170069618Y-86665500D03*
X169569618Y-86665500D03*
X169069618Y-86665500D03*
X168569618Y-86665500D03*
X168069618Y-86665500D03*
X167569618Y-86665500D03*
X167069618Y-86665500D03*
D41*
X166382118Y-85978000D03*
X166382118Y-85478000D03*
X166382118Y-84978000D03*
X166382118Y-84478000D03*
X166382118Y-83978000D03*
X166382118Y-83478000D03*
X166382118Y-82978000D03*
X166382118Y-82478000D03*
X166382118Y-81978000D03*
X166382118Y-81478000D03*
X166382118Y-80978000D03*
X166382118Y-80478000D03*
X166382118Y-79978000D03*
X166382118Y-79478000D03*
X166382118Y-78978000D03*
X166382118Y-78478000D03*
D42*
X167069618Y-77790500D03*
X167569618Y-77790500D03*
X168069618Y-77790500D03*
X168569618Y-77790500D03*
X169069618Y-77790500D03*
X169569618Y-77790500D03*
X170069618Y-77790500D03*
X170569618Y-77790500D03*
X171069618Y-77790500D03*
X171569618Y-77790500D03*
X172069618Y-77790500D03*
X172569618Y-77790500D03*
X173069618Y-77790500D03*
X173569618Y-77790500D03*
X174069618Y-77790500D03*
X174569618Y-77790500D03*
%TD*%
D28*
%TO.C,C5*%
X164846000Y-78893500D03*
X164846000Y-80618500D03*
%TD*%
%TO.C,C9*%
X164084000Y-82449500D03*
X164084000Y-84174500D03*
%TD*%
D38*
%TO.C,R3*%
X201400309Y-84420500D03*
X201400309Y-82595500D03*
%TD*%
D28*
%TO.C,C17*%
X199390309Y-82645500D03*
X199390309Y-84370500D03*
%TD*%
D18*
%TO.C,C11*%
X162637500Y-87000000D03*
X164362500Y-87000000D03*
%TD*%
D43*
%TO.C,L2*%
X203708000Y-89662000D03*
X199558000Y-89662000D03*
%TD*%
D28*
%TO.C,C16*%
X207518000Y-92863500D03*
X207518000Y-94588500D03*
%TD*%
D44*
%TO.C,J9*%
X168310001Y-96015301D03*
X191689999Y-96015301D03*
D45*
X170249999Y-99095300D03*
X170750001Y-99095300D03*
X171250000Y-99095300D03*
X171750001Y-99095300D03*
X172250000Y-99095300D03*
X172749999Y-99095300D03*
X173250001Y-99095300D03*
X173750000Y-99095300D03*
X174250001Y-99095300D03*
X174750000Y-99095300D03*
X175249999Y-99095300D03*
X175750001Y-99095300D03*
X176250000Y-99095300D03*
X176749999Y-99095300D03*
X177250000Y-99095300D03*
X177749999Y-99095300D03*
X178250001Y-99095300D03*
X178750000Y-99095300D03*
X179249999Y-99095300D03*
X179750000Y-99095300D03*
X180250000Y-99095300D03*
X180750001Y-99095300D03*
X181250000Y-99095300D03*
X181749999Y-99095300D03*
X182250001Y-99095300D03*
X182750000Y-99095300D03*
X183250001Y-99095300D03*
X183750000Y-99095300D03*
X184249999Y-99095300D03*
X184750001Y-99095300D03*
X185250000Y-99095300D03*
X185750001Y-99095300D03*
X186250000Y-99095300D03*
X186749999Y-99095300D03*
X187250001Y-99095300D03*
X187750000Y-99095300D03*
X188250001Y-99095300D03*
X188750000Y-99095300D03*
X189249999Y-99095300D03*
X189750001Y-99095300D03*
%TD*%
D46*
%TO.C,U6*%
X205088000Y-94620000D03*
X205088000Y-95570000D03*
X205088000Y-96520000D03*
X202813000Y-96520000D03*
X202813000Y-95570000D03*
X202813000Y-94620000D03*
%TD*%
D47*
%TO.C,R2*%
X196570000Y-95504000D03*
X199670000Y-95504000D03*
%TD*%
D20*
%TO.C,C29*%
X204934500Y-98298000D03*
X203209500Y-98298000D03*
%TD*%
D48*
%TO.C,R5*%
X203400309Y-116008000D03*
X178000309Y-116008000D03*
%TD*%
%TO.C,R6*%
X203400309Y-129008000D03*
X178000309Y-129008000D03*
%TD*%
D10*
%TO.C,H1*%
X164846000Y-131826000D03*
%TD*%
%TO.C,H2*%
X212598000Y-131826000D03*
%TD*%
M02*
