M48
; DRILL file {KiCad 9.0.7} date 2026-04-30T18:41:25-0700
; FORMAT={-:-/ absolute / metric / decimal}
; #@! TF.CreationDate,2026-04-30T18:41:25-07:00
; #@! TF.GenerationSoftware,Kicad,Pcbnew,9.0.7
; #@! TF.FileFunction,Plated,1,2,PTH
FMAT,2
METRIC
; #@! TA.AperFunction,Plated,PTH,ViaDrill
T1C0.254
; #@! TA.AperFunction,Plated,PTH,ComponentDrill
T2C1.200
; #@! TA.AperFunction,Plated,PTH,ComponentDrill
T3C1.400
; #@! TA.AperFunction,Plated,PTH,ComponentDrill
T4C2.600
%
G90
G05
T1
X163.576Y-77.47
X163.576Y-81.026
X163.83Y-72.644
X165.1Y-77.724
X165.354Y-85.09
X165.441Y-82.7
X165.5Y-88.0
X165.862Y-87.376
X166.116Y-72.136
X166.183Y-76.665
X168.743Y-76.033
X169.672Y-71.882
X170.775Y-74.317
X171.45Y-76.454
X171.704Y-74.168
X171.958Y-98.044
X172.212Y-57.404
X172.212Y-76.489
X172.466Y-73.914
X172.652Y-75.928
X173.228Y-73.66
X173.57Y-76.137
X174.078Y-76.747
X174.244Y-60.706
X174.244Y-63.246
X174.244Y-64.516
X175.768Y-56.642
X175.826Y-62.738
X175.826Y-63.373
X175.826Y-64.008
X176.276Y-59.944
X176.617Y-73.809
X176.784Y-59.436
X177.292Y-60.96
X177.326Y-62.738
X177.8Y-60.452
X178.054Y-75.692
X178.5Y-56.0
X178.667Y-82.953
X180.0Y-57.5
X180.051Y-58.988
X180.088Y-58.306
X180.34Y-60.452
X180.34Y-72.644
X180.34Y-75.692
X180.34Y-83.058
X180.442Y-68.224
X180.89Y-67.072
X181.0Y-52.0
X181.5Y-60.0
X181.61Y-68.326
X181.852Y-69.838
X181.859Y-59.359
X181.864Y-66.04
X182.826Y-71.508
X183.074Y-72.508
X185.166Y-54.864
X185.42Y-53.848
X185.928Y-53.34
X185.928Y-58.42
X186.69Y-53.34
X187.452Y-53.34
X187.96Y-53.848
X187.96Y-54.61
X188.468Y-53.34
X188.976Y-77.47
X188.976Y-79.248
X188.976Y-81.28
X188.976Y-97.536
X188.994Y-69.832
X189.484Y-53.34
X189.484Y-57.404
X190.5Y-65.278
X190.754Y-73.406
X191.008Y-41.148
X191.008Y-42.164
X191.262Y-71.882
X192.024Y-40.416
X192.024Y-41.148
X192.024Y-42.164
X193.04Y-40.416
X193.04Y-41.148
X193.04Y-42.164
X193.04Y-43.688
X193.04Y-71.12
X194.056Y-40.416
X194.056Y-41.148
X194.056Y-60.452
X194.564Y-95.758
X195.072Y-56.388
X195.072Y-57.404
X195.5Y-65.5
X196.088Y-56.388
X196.088Y-57.404
X196.088Y-58.42
X196.596Y-51.054
X196.596Y-51.816
X196.596Y-52.578
X197.104Y-56.388
X197.104Y-57.404
X197.104Y-58.42
X197.104Y-80.772
X197.358Y-51.054
X197.358Y-51.816
X197.358Y-52.578
X197.358Y-77.724
X198.12Y-51.054
X198.12Y-51.816
X198.12Y-52.578
X198.12Y-56.388
X198.12Y-57.404
X198.12Y-58.42
X198.374Y-82.042
X199.39Y-51.816
X200.0Y-81.5
X201.5Y-74.5
X201.676Y-95.504
X202.404Y-82.596
X204.47Y-99.314
X204.5Y-73.0
X204.978Y-71.906
X206.0Y-82.0
X206.0Y-83.0
X206.0Y-84.0
X206.248Y-92.964
X211.0Y-98.5
T2
X166.398Y-114.561
X166.398Y-117.061
X178.0Y-116.008
X178.0Y-129.008
X179.25Y-45.425
X181.75Y-45.425
X203.4Y-116.008
X203.4Y-129.008
X208.56Y-71.041
X208.56Y-73.541
X208.56Y-76.041
X208.56Y-78.541
X208.56Y-81.041
X208.56Y-83.541
X211.06Y-71.041
X211.06Y-73.541
X211.06Y-76.041
X211.06Y-78.541
X211.06Y-81.041
X211.06Y-83.541
X211.075Y-88.25
X211.075Y-90.75
X211.075Y-93.25
X211.075Y-95.75
X211.075Y-114.75
X211.075Y-117.25
T3
X200.5Y-47.5
X200.5Y-50.5
X200.5Y-53.5
X200.5Y-56.5
X200.5Y-59.5
X200.5Y-62.5
X200.5Y-65.5
X204.0Y-49.0
X204.0Y-52.0
X204.0Y-55.0
X204.0Y-58.0
X204.0Y-61.0
X204.0Y-64.0
X208.0Y-49.0
X208.0Y-52.0
X208.0Y-55.0
X208.0Y-58.0
X208.0Y-61.0
X208.0Y-64.0
X211.5Y-47.5
X211.5Y-50.5
X211.5Y-53.5
X211.5Y-56.5
X211.5Y-59.5
X211.5Y-62.5
X211.5Y-65.5
T4
X206.0Y-43.0
M30
