%TF.GenerationSoftware,KiCad,Pcbnew,9.0.7*%
%TF.CreationDate,2026-04-30T18:41:43-07:00*%
%TF.ProjectId,chargingboard,63686172-6769-46e6-9762-6f6172642e6b,1*%
%TF.SameCoordinates,Original*%
%TF.FileFunction,Legend,Top*%
%TF.FilePolarity,Positive*%
%FSLAX46Y46*%
G04 Gerber Fmt 4.6, Leading zero omitted, Abs format (unit mm)*
G04 Created by KiCad (PCBNEW 9.0.7) date 2026-04-30 18:41:43*
%MOMM*%
%LPD*%
G01*
G04 APERTURE LIST*
%ADD10C,0.100000*%
%ADD11C,0.152400*%
%ADD12C,0.203200*%
%ADD13C,0.120000*%
%ADD14C,0.508000*%
G04 APERTURE END LIST*
D10*
X216154154Y-102108000D02*
X215054154Y-102108000D01*
X214654154Y-102108000D02*
X213554154Y-102108000D01*
X213154154Y-102108000D02*
X212054154Y-102108000D01*
X211654154Y-102108000D02*
X210554154Y-102108000D01*
X210154154Y-102108000D02*
X209054154Y-102108000D01*
X208654154Y-102108000D02*
X207554154Y-102108000D01*
X207154154Y-102108000D02*
X206054154Y-102108000D01*
X205654154Y-102108000D02*
X204554154Y-102108000D01*
X204154154Y-102108000D02*
X203054154Y-102108000D01*
X202654154Y-102108000D02*
X201554154Y-102108000D01*
X201154154Y-102108000D02*
X200054154Y-102108000D01*
X199654154Y-102108000D02*
X198554154Y-102108000D01*
X198154154Y-102108000D02*
X197054154Y-102108000D01*
X196654154Y-102108000D02*
X195554154Y-102108000D01*
X195154154Y-102108000D02*
X194054154Y-102108000D01*
X193654154Y-102108000D02*
X192554154Y-102108000D01*
X192154154Y-102108000D02*
X191054154Y-102108000D01*
X190654154Y-102108000D02*
X189554154Y-102108000D01*
X189154154Y-102108000D02*
X188054154Y-102108000D01*
X187654154Y-102108000D02*
X186554154Y-102108000D01*
X186154154Y-102108000D02*
X185054154Y-102108000D01*
X184654154Y-102108000D02*
X183554154Y-102108000D01*
X183154154Y-102108000D02*
X182054154Y-102108000D01*
X181654154Y-102108000D02*
X180554154Y-102108000D01*
X180154154Y-102108000D02*
X179054154Y-102108000D01*
X178654154Y-102108000D02*
X177554154Y-102108000D01*
X177154154Y-102108000D02*
X176054154Y-102108000D01*
X175654154Y-102108000D02*
X174554154Y-102108000D01*
X174154154Y-102108000D02*
X173054154Y-102108000D01*
X172654154Y-102108000D02*
X171554154Y-102108000D01*
X171154154Y-102108000D02*
X170054154Y-102108000D01*
X169654154Y-102108000D02*
X168554154Y-102108000D01*
X168154154Y-102108000D02*
X167054154Y-102108000D01*
X166654154Y-102108000D02*
X165554154Y-102108000D01*
X165154154Y-102108000D02*
X164054154Y-102108000D01*
X163654154Y-102108000D02*
X162554154Y-102108000D01*
X162154154Y-102108000D02*
X161797845Y-102108000D01*
D11*
X164401977Y-43642095D02*
X163918167Y-43642095D01*
X163918167Y-43642095D02*
X163918167Y-42626095D01*
X164595500Y-42626095D02*
X164934167Y-43642095D01*
X164934167Y-43642095D02*
X165272834Y-42626095D01*
D12*
X169224475Y-105869453D02*
X169901809Y-105869453D01*
X169901809Y-105869453D02*
X169466380Y-106885453D01*
X170288856Y-106788692D02*
X170337237Y-106837073D01*
X170337237Y-106837073D02*
X170288856Y-106885453D01*
X170288856Y-106885453D02*
X170240475Y-106837073D01*
X170240475Y-106837073D02*
X170288856Y-106788692D01*
X170288856Y-106788692D02*
X170288856Y-106885453D01*
X171208095Y-105869453D02*
X171014571Y-105869453D01*
X171014571Y-105869453D02*
X170917809Y-105917834D01*
X170917809Y-105917834D02*
X170869428Y-105966215D01*
X170869428Y-105966215D02*
X170772666Y-106111358D01*
X170772666Y-106111358D02*
X170724285Y-106304882D01*
X170724285Y-106304882D02*
X170724285Y-106691930D01*
X170724285Y-106691930D02*
X170772666Y-106788692D01*
X170772666Y-106788692D02*
X170821047Y-106837073D01*
X170821047Y-106837073D02*
X170917809Y-106885453D01*
X170917809Y-106885453D02*
X171111333Y-106885453D01*
X171111333Y-106885453D02*
X171208095Y-106837073D01*
X171208095Y-106837073D02*
X171256476Y-106788692D01*
X171256476Y-106788692D02*
X171304857Y-106691930D01*
X171304857Y-106691930D02*
X171304857Y-106450025D01*
X171304857Y-106450025D02*
X171256476Y-106353263D01*
X171256476Y-106353263D02*
X171208095Y-106304882D01*
X171208095Y-106304882D02*
X171111333Y-106256501D01*
X171111333Y-106256501D02*
X170917809Y-106256501D01*
X170917809Y-106256501D02*
X170821047Y-106304882D01*
X170821047Y-106304882D02*
X170772666Y-106353263D01*
X170772666Y-106353263D02*
X170724285Y-106450025D01*
X171691904Y-105966215D02*
X171740285Y-105917834D01*
X171740285Y-105917834D02*
X171837047Y-105869453D01*
X171837047Y-105869453D02*
X172078952Y-105869453D01*
X172078952Y-105869453D02*
X172175714Y-105917834D01*
X172175714Y-105917834D02*
X172224095Y-105966215D01*
X172224095Y-105966215D02*
X172272476Y-106062977D01*
X172272476Y-106062977D02*
X172272476Y-106159739D01*
X172272476Y-106159739D02*
X172224095Y-106304882D01*
X172224095Y-106304882D02*
X171643523Y-106885453D01*
X171643523Y-106885453D02*
X172272476Y-106885453D01*
X172901428Y-105869453D02*
X172998190Y-105869453D01*
X172998190Y-105869453D02*
X173094952Y-105917834D01*
X173094952Y-105917834D02*
X173143333Y-105966215D01*
X173143333Y-105966215D02*
X173191714Y-106062977D01*
X173191714Y-106062977D02*
X173240095Y-106256501D01*
X173240095Y-106256501D02*
X173240095Y-106498406D01*
X173240095Y-106498406D02*
X173191714Y-106691930D01*
X173191714Y-106691930D02*
X173143333Y-106788692D01*
X173143333Y-106788692D02*
X173094952Y-106837073D01*
X173094952Y-106837073D02*
X172998190Y-106885453D01*
X172998190Y-106885453D02*
X172901428Y-106885453D01*
X172901428Y-106885453D02*
X172804666Y-106837073D01*
X172804666Y-106837073D02*
X172756285Y-106788692D01*
X172756285Y-106788692D02*
X172707904Y-106691930D01*
X172707904Y-106691930D02*
X172659523Y-106498406D01*
X172659523Y-106498406D02*
X172659523Y-106256501D01*
X172659523Y-106256501D02*
X172707904Y-106062977D01*
X172707904Y-106062977D02*
X172756285Y-105966215D01*
X172756285Y-105966215D02*
X172804666Y-105917834D01*
X172804666Y-105917834D02*
X172901428Y-105869453D01*
X173869047Y-105869453D02*
X173965809Y-105869453D01*
X173965809Y-105869453D02*
X174062571Y-105917834D01*
X174062571Y-105917834D02*
X174110952Y-105966215D01*
X174110952Y-105966215D02*
X174159333Y-106062977D01*
X174159333Y-106062977D02*
X174207714Y-106256501D01*
X174207714Y-106256501D02*
X174207714Y-106498406D01*
X174207714Y-106498406D02*
X174159333Y-106691930D01*
X174159333Y-106691930D02*
X174110952Y-106788692D01*
X174110952Y-106788692D02*
X174062571Y-106837073D01*
X174062571Y-106837073D02*
X173965809Y-106885453D01*
X173965809Y-106885453D02*
X173869047Y-106885453D01*
X173869047Y-106885453D02*
X173772285Y-106837073D01*
X173772285Y-106837073D02*
X173723904Y-106788692D01*
X173723904Y-106788692D02*
X173675523Y-106691930D01*
X173675523Y-106691930D02*
X173627142Y-106498406D01*
X173627142Y-106498406D02*
X173627142Y-106256501D01*
X173627142Y-106256501D02*
X173675523Y-106062977D01*
X173675523Y-106062977D02*
X173723904Y-105966215D01*
X173723904Y-105966215D02*
X173772285Y-105917834D01*
X173772285Y-105917834D02*
X173869047Y-105869453D01*
X175417237Y-106885453D02*
X175417237Y-106208120D01*
X175417237Y-106304882D02*
X175465618Y-106256501D01*
X175465618Y-106256501D02*
X175562380Y-106208120D01*
X175562380Y-106208120D02*
X175707523Y-106208120D01*
X175707523Y-106208120D02*
X175804285Y-106256501D01*
X175804285Y-106256501D02*
X175852666Y-106353263D01*
X175852666Y-106353263D02*
X175852666Y-106885453D01*
X175852666Y-106353263D02*
X175901047Y-106256501D01*
X175901047Y-106256501D02*
X175997809Y-106208120D01*
X175997809Y-106208120D02*
X176142952Y-106208120D01*
X176142952Y-106208120D02*
X176239713Y-106256501D01*
X176239713Y-106256501D02*
X176288094Y-106353263D01*
X176288094Y-106353263D02*
X176288094Y-106885453D01*
X176771904Y-106885453D02*
X176771904Y-106208120D01*
X176771904Y-106304882D02*
X176820285Y-106256501D01*
X176820285Y-106256501D02*
X176917047Y-106208120D01*
X176917047Y-106208120D02*
X177062190Y-106208120D01*
X177062190Y-106208120D02*
X177158952Y-106256501D01*
X177158952Y-106256501D02*
X177207333Y-106353263D01*
X177207333Y-106353263D02*
X177207333Y-106885453D01*
X177207333Y-106353263D02*
X177255714Y-106256501D01*
X177255714Y-106256501D02*
X177352476Y-106208120D01*
X177352476Y-106208120D02*
X177497619Y-106208120D01*
X177497619Y-106208120D02*
X177594380Y-106256501D01*
X177594380Y-106256501D02*
X177642761Y-106353263D01*
X177642761Y-106353263D02*
X177642761Y-106885453D01*
D10*
X178062000Y-110236000D02*
X177975580Y-110236000D01*
X178062000Y-102616000D02*
X177975580Y-102616000D01*
X178562000Y-110236000D02*
X178562000Y-107173776D01*
X178562000Y-105678224D02*
X178562000Y-102616000D01*
X178562000Y-110236000D02*
X177975579Y-109109496D01*
X178562000Y-110236000D02*
X179148421Y-109109496D01*
X178562000Y-102616000D02*
X179148421Y-103742504D01*
X178562000Y-102616000D02*
X177975579Y-103742504D01*
X215900154Y-110486000D02*
X214800154Y-110486162D01*
X214400154Y-110486221D02*
X213300154Y-110486383D01*
X212900154Y-110486442D02*
X211800154Y-110486603D01*
X211400154Y-110486662D02*
X210300154Y-110486824D01*
X209900154Y-110486883D02*
X208800154Y-110487045D01*
X208400154Y-110487104D02*
X207300154Y-110487266D01*
X206900154Y-110487325D02*
X205800154Y-110487486D01*
X205400154Y-110487545D02*
X204300154Y-110487707D01*
X203900154Y-110487766D02*
X202800154Y-110487928D01*
X202400154Y-110487987D02*
X201300154Y-110488149D01*
X200900154Y-110488208D02*
X199800154Y-110488370D01*
X199400154Y-110488428D02*
X198300154Y-110488590D01*
X197900154Y-110488649D02*
X196800154Y-110488811D01*
X196400154Y-110488870D02*
X195300154Y-110489032D01*
X194900154Y-110489091D02*
X193800154Y-110489253D01*
X193400154Y-110489311D02*
X192300154Y-110489473D01*
X191900154Y-110489532D02*
X190800154Y-110489694D01*
X190400154Y-110489753D02*
X189300154Y-110489915D01*
X188900154Y-110489974D02*
X187800154Y-110490136D01*
X187400154Y-110490195D02*
X186300154Y-110490356D01*
X185900154Y-110490415D02*
X184800154Y-110490577D01*
X184400154Y-110490636D02*
X183300154Y-110490798D01*
X182900154Y-110490857D02*
X181800154Y-110491019D01*
X181400154Y-110491078D02*
X180300154Y-110491240D01*
X179900154Y-110491298D02*
X178800154Y-110491460D01*
X178400154Y-110491519D02*
X177300154Y-110491681D01*
X176900154Y-110491740D02*
X175800154Y-110491902D01*
X175400154Y-110491961D02*
X174300154Y-110492123D01*
X173900154Y-110492181D02*
X172800154Y-110492343D01*
X172400154Y-110492402D02*
X171300154Y-110492564D01*
X170900154Y-110492623D02*
X169800154Y-110492785D01*
X169400155Y-110492844D02*
X168300155Y-110493006D01*
X167900155Y-110493064D02*
X166800155Y-110493226D01*
X166400155Y-110493285D02*
X165300155Y-110493447D01*
X164900155Y-110493506D02*
X163800155Y-110493668D01*
X163400155Y-110493727D02*
X162300155Y-110493889D01*
X161900155Y-110493948D02*
X161544876Y-110494000D01*
D11*
X193212834Y-104156351D02*
X192874167Y-104156351D01*
X192874167Y-104688541D02*
X192874167Y-103672541D01*
X192874167Y-103672541D02*
X193357977Y-103672541D01*
X193696643Y-104640161D02*
X193841786Y-104688541D01*
X193841786Y-104688541D02*
X194083691Y-104688541D01*
X194083691Y-104688541D02*
X194180453Y-104640161D01*
X194180453Y-104640161D02*
X194228834Y-104591780D01*
X194228834Y-104591780D02*
X194277215Y-104495018D01*
X194277215Y-104495018D02*
X194277215Y-104398256D01*
X194277215Y-104398256D02*
X194228834Y-104301494D01*
X194228834Y-104301494D02*
X194180453Y-104253113D01*
X194180453Y-104253113D02*
X194083691Y-104204732D01*
X194083691Y-104204732D02*
X193890167Y-104156351D01*
X193890167Y-104156351D02*
X193793405Y-104107970D01*
X193793405Y-104107970D02*
X193745024Y-104059589D01*
X193745024Y-104059589D02*
X193696643Y-103962827D01*
X193696643Y-103962827D02*
X193696643Y-103866065D01*
X193696643Y-103866065D02*
X193745024Y-103769303D01*
X193745024Y-103769303D02*
X193793405Y-103720922D01*
X193793405Y-103720922D02*
X193890167Y-103672541D01*
X193890167Y-103672541D02*
X194132072Y-103672541D01*
X194132072Y-103672541D02*
X194277215Y-103720922D01*
X194712643Y-104301494D02*
X195486739Y-104301494D01*
X196405977Y-104011208D02*
X196405977Y-104688541D01*
X196164072Y-103624161D02*
X195922167Y-104349875D01*
X195922167Y-104349875D02*
X196551120Y-104349875D01*
X198292834Y-104591780D02*
X198244453Y-104640161D01*
X198244453Y-104640161D02*
X198099310Y-104688541D01*
X198099310Y-104688541D02*
X198002548Y-104688541D01*
X198002548Y-104688541D02*
X197857405Y-104640161D01*
X197857405Y-104640161D02*
X197760643Y-104543399D01*
X197760643Y-104543399D02*
X197712262Y-104446637D01*
X197712262Y-104446637D02*
X197663881Y-104253113D01*
X197663881Y-104253113D02*
X197663881Y-104107970D01*
X197663881Y-104107970D02*
X197712262Y-103914446D01*
X197712262Y-103914446D02*
X197760643Y-103817684D01*
X197760643Y-103817684D02*
X197857405Y-103720922D01*
X197857405Y-103720922D02*
X198002548Y-103672541D01*
X198002548Y-103672541D02*
X198099310Y-103672541D01*
X198099310Y-103672541D02*
X198244453Y-103720922D01*
X198244453Y-103720922D02*
X198292834Y-103769303D01*
X198728262Y-104688541D02*
X198728262Y-103672541D01*
X199163691Y-104688541D02*
X199163691Y-104156351D01*
X199163691Y-104156351D02*
X199115310Y-104059589D01*
X199115310Y-104059589D02*
X199018548Y-104011208D01*
X199018548Y-104011208D02*
X198873405Y-104011208D01*
X198873405Y-104011208D02*
X198776643Y-104059589D01*
X198776643Y-104059589D02*
X198728262Y-104107970D01*
X200082929Y-104688541D02*
X200082929Y-104156351D01*
X200082929Y-104156351D02*
X200034548Y-104059589D01*
X200034548Y-104059589D02*
X199937786Y-104011208D01*
X199937786Y-104011208D02*
X199744262Y-104011208D01*
X199744262Y-104011208D02*
X199647500Y-104059589D01*
X200082929Y-104640161D02*
X199986167Y-104688541D01*
X199986167Y-104688541D02*
X199744262Y-104688541D01*
X199744262Y-104688541D02*
X199647500Y-104640161D01*
X199647500Y-104640161D02*
X199599119Y-104543399D01*
X199599119Y-104543399D02*
X199599119Y-104446637D01*
X199599119Y-104446637D02*
X199647500Y-104349875D01*
X199647500Y-104349875D02*
X199744262Y-104301494D01*
X199744262Y-104301494D02*
X199986167Y-104301494D01*
X199986167Y-104301494D02*
X200082929Y-104253113D01*
X200566738Y-104688541D02*
X200566738Y-104011208D01*
X200566738Y-104204732D02*
X200615119Y-104107970D01*
X200615119Y-104107970D02*
X200663500Y-104059589D01*
X200663500Y-104059589D02*
X200760262Y-104011208D01*
X200760262Y-104011208D02*
X200857024Y-104011208D01*
X201631119Y-104011208D02*
X201631119Y-104833684D01*
X201631119Y-104833684D02*
X201582738Y-104930446D01*
X201582738Y-104930446D02*
X201534357Y-104978827D01*
X201534357Y-104978827D02*
X201437595Y-105027208D01*
X201437595Y-105027208D02*
X201292452Y-105027208D01*
X201292452Y-105027208D02*
X201195690Y-104978827D01*
X201631119Y-104640161D02*
X201534357Y-104688541D01*
X201534357Y-104688541D02*
X201340833Y-104688541D01*
X201340833Y-104688541D02*
X201244071Y-104640161D01*
X201244071Y-104640161D02*
X201195690Y-104591780D01*
X201195690Y-104591780D02*
X201147309Y-104495018D01*
X201147309Y-104495018D02*
X201147309Y-104204732D01*
X201147309Y-104204732D02*
X201195690Y-104107970D01*
X201195690Y-104107970D02*
X201244071Y-104059589D01*
X201244071Y-104059589D02*
X201340833Y-104011208D01*
X201340833Y-104011208D02*
X201534357Y-104011208D01*
X201534357Y-104011208D02*
X201631119Y-104059589D01*
X202114928Y-104688541D02*
X202114928Y-104011208D01*
X202114928Y-103672541D02*
X202066547Y-103720922D01*
X202066547Y-103720922D02*
X202114928Y-103769303D01*
X202114928Y-103769303D02*
X202163309Y-103720922D01*
X202163309Y-103720922D02*
X202114928Y-103672541D01*
X202114928Y-103672541D02*
X202114928Y-103769303D01*
X202598738Y-104011208D02*
X202598738Y-104688541D01*
X202598738Y-104107970D02*
X202647119Y-104059589D01*
X202647119Y-104059589D02*
X202743881Y-104011208D01*
X202743881Y-104011208D02*
X202889024Y-104011208D01*
X202889024Y-104011208D02*
X202985786Y-104059589D01*
X202985786Y-104059589D02*
X203034167Y-104156351D01*
X203034167Y-104156351D02*
X203034167Y-104688541D01*
X203953405Y-104011208D02*
X203953405Y-104833684D01*
X203953405Y-104833684D02*
X203905024Y-104930446D01*
X203905024Y-104930446D02*
X203856643Y-104978827D01*
X203856643Y-104978827D02*
X203759881Y-105027208D01*
X203759881Y-105027208D02*
X203614738Y-105027208D01*
X203614738Y-105027208D02*
X203517976Y-104978827D01*
X203953405Y-104640161D02*
X203856643Y-104688541D01*
X203856643Y-104688541D02*
X203663119Y-104688541D01*
X203663119Y-104688541D02*
X203566357Y-104640161D01*
X203566357Y-104640161D02*
X203517976Y-104591780D01*
X203517976Y-104591780D02*
X203469595Y-104495018D01*
X203469595Y-104495018D02*
X203469595Y-104204732D01*
X203469595Y-104204732D02*
X203517976Y-104107970D01*
X203517976Y-104107970D02*
X203566357Y-104059589D01*
X203566357Y-104059589D02*
X203663119Y-104011208D01*
X203663119Y-104011208D02*
X203856643Y-104011208D01*
X203856643Y-104011208D02*
X203953405Y-104059589D01*
X205549976Y-104156351D02*
X205695119Y-104204732D01*
X205695119Y-104204732D02*
X205743500Y-104253113D01*
X205743500Y-104253113D02*
X205791881Y-104349875D01*
X205791881Y-104349875D02*
X205791881Y-104495018D01*
X205791881Y-104495018D02*
X205743500Y-104591780D01*
X205743500Y-104591780D02*
X205695119Y-104640161D01*
X205695119Y-104640161D02*
X205598357Y-104688541D01*
X205598357Y-104688541D02*
X205211309Y-104688541D01*
X205211309Y-104688541D02*
X205211309Y-103672541D01*
X205211309Y-103672541D02*
X205549976Y-103672541D01*
X205549976Y-103672541D02*
X205646738Y-103720922D01*
X205646738Y-103720922D02*
X205695119Y-103769303D01*
X205695119Y-103769303D02*
X205743500Y-103866065D01*
X205743500Y-103866065D02*
X205743500Y-103962827D01*
X205743500Y-103962827D02*
X205695119Y-104059589D01*
X205695119Y-104059589D02*
X205646738Y-104107970D01*
X205646738Y-104107970D02*
X205549976Y-104156351D01*
X205549976Y-104156351D02*
X205211309Y-104156351D01*
X206372452Y-104688541D02*
X206275690Y-104640161D01*
X206275690Y-104640161D02*
X206227309Y-104591780D01*
X206227309Y-104591780D02*
X206178928Y-104495018D01*
X206178928Y-104495018D02*
X206178928Y-104204732D01*
X206178928Y-104204732D02*
X206227309Y-104107970D01*
X206227309Y-104107970D02*
X206275690Y-104059589D01*
X206275690Y-104059589D02*
X206372452Y-104011208D01*
X206372452Y-104011208D02*
X206517595Y-104011208D01*
X206517595Y-104011208D02*
X206614357Y-104059589D01*
X206614357Y-104059589D02*
X206662738Y-104107970D01*
X206662738Y-104107970D02*
X206711119Y-104204732D01*
X206711119Y-104204732D02*
X206711119Y-104495018D01*
X206711119Y-104495018D02*
X206662738Y-104591780D01*
X206662738Y-104591780D02*
X206614357Y-104640161D01*
X206614357Y-104640161D02*
X206517595Y-104688541D01*
X206517595Y-104688541D02*
X206372452Y-104688541D01*
X207581976Y-104688541D02*
X207581976Y-104156351D01*
X207581976Y-104156351D02*
X207533595Y-104059589D01*
X207533595Y-104059589D02*
X207436833Y-104011208D01*
X207436833Y-104011208D02*
X207243309Y-104011208D01*
X207243309Y-104011208D02*
X207146547Y-104059589D01*
X207581976Y-104640161D02*
X207485214Y-104688541D01*
X207485214Y-104688541D02*
X207243309Y-104688541D01*
X207243309Y-104688541D02*
X207146547Y-104640161D01*
X207146547Y-104640161D02*
X207098166Y-104543399D01*
X207098166Y-104543399D02*
X207098166Y-104446637D01*
X207098166Y-104446637D02*
X207146547Y-104349875D01*
X207146547Y-104349875D02*
X207243309Y-104301494D01*
X207243309Y-104301494D02*
X207485214Y-104301494D01*
X207485214Y-104301494D02*
X207581976Y-104253113D01*
X208065785Y-104688541D02*
X208065785Y-104011208D01*
X208065785Y-104204732D02*
X208114166Y-104107970D01*
X208114166Y-104107970D02*
X208162547Y-104059589D01*
X208162547Y-104059589D02*
X208259309Y-104011208D01*
X208259309Y-104011208D02*
X208356071Y-104011208D01*
X209130166Y-104688541D02*
X209130166Y-103672541D01*
X209130166Y-104640161D02*
X209033404Y-104688541D01*
X209033404Y-104688541D02*
X208839880Y-104688541D01*
X208839880Y-104688541D02*
X208743118Y-104640161D01*
X208743118Y-104640161D02*
X208694737Y-104591780D01*
X208694737Y-104591780D02*
X208646356Y-104495018D01*
X208646356Y-104495018D02*
X208646356Y-104204732D01*
X208646356Y-104204732D02*
X208694737Y-104107970D01*
X208694737Y-104107970D02*
X208743118Y-104059589D01*
X208743118Y-104059589D02*
X208839880Y-104011208D01*
X208839880Y-104011208D02*
X209033404Y-104011208D01*
X209033404Y-104011208D02*
X209130166Y-104059589D01*
X210920261Y-104688541D02*
X210339689Y-104688541D01*
X210629975Y-104688541D02*
X210629975Y-103672541D01*
X210629975Y-103672541D02*
X210533213Y-103817684D01*
X210533213Y-103817684D02*
X210436451Y-103914446D01*
X210436451Y-103914446D02*
X210339689Y-103962827D01*
X193212834Y-105792054D02*
X192874167Y-105792054D01*
X192874167Y-106324244D02*
X192874167Y-105308244D01*
X192874167Y-105308244D02*
X193357977Y-105308244D01*
X193890167Y-106324244D02*
X193793405Y-106275864D01*
X193793405Y-106275864D02*
X193745024Y-106227483D01*
X193745024Y-106227483D02*
X193696643Y-106130721D01*
X193696643Y-106130721D02*
X193696643Y-105840435D01*
X193696643Y-105840435D02*
X193745024Y-105743673D01*
X193745024Y-105743673D02*
X193793405Y-105695292D01*
X193793405Y-105695292D02*
X193890167Y-105646911D01*
X193890167Y-105646911D02*
X194035310Y-105646911D01*
X194035310Y-105646911D02*
X194132072Y-105695292D01*
X194132072Y-105695292D02*
X194180453Y-105743673D01*
X194180453Y-105743673D02*
X194228834Y-105840435D01*
X194228834Y-105840435D02*
X194228834Y-106130721D01*
X194228834Y-106130721D02*
X194180453Y-106227483D01*
X194180453Y-106227483D02*
X194132072Y-106275864D01*
X194132072Y-106275864D02*
X194035310Y-106324244D01*
X194035310Y-106324244D02*
X193890167Y-106324244D01*
X194664262Y-106324244D02*
X194664262Y-105646911D01*
X194664262Y-105840435D02*
X194712643Y-105743673D01*
X194712643Y-105743673D02*
X194761024Y-105695292D01*
X194761024Y-105695292D02*
X194857786Y-105646911D01*
X194857786Y-105646911D02*
X194954548Y-105646911D01*
X195293214Y-106324244D02*
X195293214Y-105646911D01*
X195293214Y-105743673D02*
X195341595Y-105695292D01*
X195341595Y-105695292D02*
X195438357Y-105646911D01*
X195438357Y-105646911D02*
X195583500Y-105646911D01*
X195583500Y-105646911D02*
X195680262Y-105695292D01*
X195680262Y-105695292D02*
X195728643Y-105792054D01*
X195728643Y-105792054D02*
X195728643Y-106324244D01*
X195728643Y-105792054D02*
X195777024Y-105695292D01*
X195777024Y-105695292D02*
X195873786Y-105646911D01*
X195873786Y-105646911D02*
X196018929Y-105646911D01*
X196018929Y-105646911D02*
X196115690Y-105695292D01*
X196115690Y-105695292D02*
X196164071Y-105792054D01*
X196164071Y-105792054D02*
X196164071Y-106324244D01*
X197083310Y-105646911D02*
X197083310Y-106324244D01*
X196647881Y-105646911D02*
X196647881Y-106179102D01*
X196647881Y-106179102D02*
X196696262Y-106275864D01*
X196696262Y-106275864D02*
X196793024Y-106324244D01*
X196793024Y-106324244D02*
X196938167Y-106324244D01*
X196938167Y-106324244D02*
X197034929Y-106275864D01*
X197034929Y-106275864D02*
X197083310Y-106227483D01*
X197712262Y-106324244D02*
X197615500Y-106275864D01*
X197615500Y-106275864D02*
X197567119Y-106179102D01*
X197567119Y-106179102D02*
X197567119Y-105308244D01*
X198534738Y-106324244D02*
X198534738Y-105792054D01*
X198534738Y-105792054D02*
X198486357Y-105695292D01*
X198486357Y-105695292D02*
X198389595Y-105646911D01*
X198389595Y-105646911D02*
X198196071Y-105646911D01*
X198196071Y-105646911D02*
X198099309Y-105695292D01*
X198534738Y-106275864D02*
X198437976Y-106324244D01*
X198437976Y-106324244D02*
X198196071Y-106324244D01*
X198196071Y-106324244D02*
X198099309Y-106275864D01*
X198099309Y-106275864D02*
X198050928Y-106179102D01*
X198050928Y-106179102D02*
X198050928Y-106082340D01*
X198050928Y-106082340D02*
X198099309Y-105985578D01*
X198099309Y-105985578D02*
X198196071Y-105937197D01*
X198196071Y-105937197D02*
X198437976Y-105937197D01*
X198437976Y-105937197D02*
X198534738Y-105888816D01*
X199744261Y-106275864D02*
X199889404Y-106324244D01*
X199889404Y-106324244D02*
X200131309Y-106324244D01*
X200131309Y-106324244D02*
X200228071Y-106275864D01*
X200228071Y-106275864D02*
X200276452Y-106227483D01*
X200276452Y-106227483D02*
X200324833Y-106130721D01*
X200324833Y-106130721D02*
X200324833Y-106033959D01*
X200324833Y-106033959D02*
X200276452Y-105937197D01*
X200276452Y-105937197D02*
X200228071Y-105888816D01*
X200228071Y-105888816D02*
X200131309Y-105840435D01*
X200131309Y-105840435D02*
X199937785Y-105792054D01*
X199937785Y-105792054D02*
X199841023Y-105743673D01*
X199841023Y-105743673D02*
X199792642Y-105695292D01*
X199792642Y-105695292D02*
X199744261Y-105598530D01*
X199744261Y-105598530D02*
X199744261Y-105501768D01*
X199744261Y-105501768D02*
X199792642Y-105405006D01*
X199792642Y-105405006D02*
X199841023Y-105356625D01*
X199841023Y-105356625D02*
X199937785Y-105308244D01*
X199937785Y-105308244D02*
X200179690Y-105308244D01*
X200179690Y-105308244D02*
X200324833Y-105356625D01*
X200905404Y-106324244D02*
X200808642Y-106275864D01*
X200808642Y-106275864D02*
X200760261Y-106179102D01*
X200760261Y-106179102D02*
X200760261Y-105308244D01*
X201727880Y-105646911D02*
X201727880Y-106324244D01*
X201292451Y-105646911D02*
X201292451Y-106179102D01*
X201292451Y-106179102D02*
X201340832Y-106275864D01*
X201340832Y-106275864D02*
X201437594Y-106324244D01*
X201437594Y-106324244D02*
X201582737Y-106324244D01*
X201582737Y-106324244D02*
X201679499Y-106275864D01*
X201679499Y-106275864D02*
X201727880Y-106227483D01*
X202647118Y-105646911D02*
X202647118Y-106469387D01*
X202647118Y-106469387D02*
X202598737Y-106566149D01*
X202598737Y-106566149D02*
X202550356Y-106614530D01*
X202550356Y-106614530D02*
X202453594Y-106662911D01*
X202453594Y-106662911D02*
X202308451Y-106662911D01*
X202308451Y-106662911D02*
X202211689Y-106614530D01*
X202647118Y-106275864D02*
X202550356Y-106324244D01*
X202550356Y-106324244D02*
X202356832Y-106324244D01*
X202356832Y-106324244D02*
X202260070Y-106275864D01*
X202260070Y-106275864D02*
X202211689Y-106227483D01*
X202211689Y-106227483D02*
X202163308Y-106130721D01*
X202163308Y-106130721D02*
X202163308Y-105840435D01*
X202163308Y-105840435D02*
X202211689Y-105743673D01*
X202211689Y-105743673D02*
X202260070Y-105695292D01*
X202260070Y-105695292D02*
X202356832Y-105646911D01*
X202356832Y-105646911D02*
X202550356Y-105646911D01*
X202550356Y-105646911D02*
X202647118Y-105695292D01*
X192874167Y-107959947D02*
X192874167Y-106943947D01*
X192874167Y-106943947D02*
X193116072Y-106943947D01*
X193116072Y-106943947D02*
X193261215Y-106992328D01*
X193261215Y-106992328D02*
X193357977Y-107089090D01*
X193357977Y-107089090D02*
X193406358Y-107185852D01*
X193406358Y-107185852D02*
X193454739Y-107379376D01*
X193454739Y-107379376D02*
X193454739Y-107524519D01*
X193454739Y-107524519D02*
X193406358Y-107718043D01*
X193406358Y-107718043D02*
X193357977Y-107814805D01*
X193357977Y-107814805D02*
X193261215Y-107911567D01*
X193261215Y-107911567D02*
X193116072Y-107959947D01*
X193116072Y-107959947D02*
X192874167Y-107959947D01*
X194277215Y-107911567D02*
X194180453Y-107959947D01*
X194180453Y-107959947D02*
X193986929Y-107959947D01*
X193986929Y-107959947D02*
X193890167Y-107911567D01*
X193890167Y-107911567D02*
X193841786Y-107814805D01*
X193841786Y-107814805D02*
X193841786Y-107427757D01*
X193841786Y-107427757D02*
X193890167Y-107330995D01*
X193890167Y-107330995D02*
X193986929Y-107282614D01*
X193986929Y-107282614D02*
X194180453Y-107282614D01*
X194180453Y-107282614D02*
X194277215Y-107330995D01*
X194277215Y-107330995D02*
X194325596Y-107427757D01*
X194325596Y-107427757D02*
X194325596Y-107524519D01*
X194325596Y-107524519D02*
X193841786Y-107621281D01*
X194712643Y-107911567D02*
X194809405Y-107959947D01*
X194809405Y-107959947D02*
X195002929Y-107959947D01*
X195002929Y-107959947D02*
X195099691Y-107911567D01*
X195099691Y-107911567D02*
X195148072Y-107814805D01*
X195148072Y-107814805D02*
X195148072Y-107766424D01*
X195148072Y-107766424D02*
X195099691Y-107669662D01*
X195099691Y-107669662D02*
X195002929Y-107621281D01*
X195002929Y-107621281D02*
X194857786Y-107621281D01*
X194857786Y-107621281D02*
X194761024Y-107572900D01*
X194761024Y-107572900D02*
X194712643Y-107476138D01*
X194712643Y-107476138D02*
X194712643Y-107427757D01*
X194712643Y-107427757D02*
X194761024Y-107330995D01*
X194761024Y-107330995D02*
X194857786Y-107282614D01*
X194857786Y-107282614D02*
X195002929Y-107282614D01*
X195002929Y-107282614D02*
X195099691Y-107330995D01*
X195583500Y-107959947D02*
X195583500Y-107282614D01*
X195583500Y-106943947D02*
X195535119Y-106992328D01*
X195535119Y-106992328D02*
X195583500Y-107040709D01*
X195583500Y-107040709D02*
X195631881Y-106992328D01*
X195631881Y-106992328D02*
X195583500Y-106943947D01*
X195583500Y-106943947D02*
X195583500Y-107040709D01*
X196502739Y-107282614D02*
X196502739Y-108105090D01*
X196502739Y-108105090D02*
X196454358Y-108201852D01*
X196454358Y-108201852D02*
X196405977Y-108250233D01*
X196405977Y-108250233D02*
X196309215Y-108298614D01*
X196309215Y-108298614D02*
X196164072Y-108298614D01*
X196164072Y-108298614D02*
X196067310Y-108250233D01*
X196502739Y-107911567D02*
X196405977Y-107959947D01*
X196405977Y-107959947D02*
X196212453Y-107959947D01*
X196212453Y-107959947D02*
X196115691Y-107911567D01*
X196115691Y-107911567D02*
X196067310Y-107863186D01*
X196067310Y-107863186D02*
X196018929Y-107766424D01*
X196018929Y-107766424D02*
X196018929Y-107476138D01*
X196018929Y-107476138D02*
X196067310Y-107379376D01*
X196067310Y-107379376D02*
X196115691Y-107330995D01*
X196115691Y-107330995D02*
X196212453Y-107282614D01*
X196212453Y-107282614D02*
X196405977Y-107282614D01*
X196405977Y-107282614D02*
X196502739Y-107330995D01*
X196986548Y-107282614D02*
X196986548Y-107959947D01*
X196986548Y-107379376D02*
X197034929Y-107330995D01*
X197034929Y-107330995D02*
X197131691Y-107282614D01*
X197131691Y-107282614D02*
X197276834Y-107282614D01*
X197276834Y-107282614D02*
X197373596Y-107330995D01*
X197373596Y-107330995D02*
X197421977Y-107427757D01*
X197421977Y-107427757D02*
X197421977Y-107959947D01*
X198292834Y-107911567D02*
X198196072Y-107959947D01*
X198196072Y-107959947D02*
X198002548Y-107959947D01*
X198002548Y-107959947D02*
X197905786Y-107911567D01*
X197905786Y-107911567D02*
X197857405Y-107814805D01*
X197857405Y-107814805D02*
X197857405Y-107427757D01*
X197857405Y-107427757D02*
X197905786Y-107330995D01*
X197905786Y-107330995D02*
X198002548Y-107282614D01*
X198002548Y-107282614D02*
X198196072Y-107282614D01*
X198196072Y-107282614D02*
X198292834Y-107330995D01*
X198292834Y-107330995D02*
X198341215Y-107427757D01*
X198341215Y-107427757D02*
X198341215Y-107524519D01*
X198341215Y-107524519D02*
X197857405Y-107621281D01*
X199212072Y-107959947D02*
X199212072Y-106943947D01*
X199212072Y-107911567D02*
X199115310Y-107959947D01*
X199115310Y-107959947D02*
X198921786Y-107959947D01*
X198921786Y-107959947D02*
X198825024Y-107911567D01*
X198825024Y-107911567D02*
X198776643Y-107863186D01*
X198776643Y-107863186D02*
X198728262Y-107766424D01*
X198728262Y-107766424D02*
X198728262Y-107476138D01*
X198728262Y-107476138D02*
X198776643Y-107379376D01*
X198776643Y-107379376D02*
X198825024Y-107330995D01*
X198825024Y-107330995D02*
X198921786Y-107282614D01*
X198921786Y-107282614D02*
X199115310Y-107282614D01*
X199115310Y-107282614D02*
X199212072Y-107330995D01*
X200469976Y-107959947D02*
X200469976Y-106943947D01*
X200469976Y-107330995D02*
X200566738Y-107282614D01*
X200566738Y-107282614D02*
X200760262Y-107282614D01*
X200760262Y-107282614D02*
X200857024Y-107330995D01*
X200857024Y-107330995D02*
X200905405Y-107379376D01*
X200905405Y-107379376D02*
X200953786Y-107476138D01*
X200953786Y-107476138D02*
X200953786Y-107766424D01*
X200953786Y-107766424D02*
X200905405Y-107863186D01*
X200905405Y-107863186D02*
X200857024Y-107911567D01*
X200857024Y-107911567D02*
X200760262Y-107959947D01*
X200760262Y-107959947D02*
X200566738Y-107959947D01*
X200566738Y-107959947D02*
X200469976Y-107911567D01*
X201292452Y-107282614D02*
X201534357Y-107959947D01*
X201776262Y-107282614D02*
X201534357Y-107959947D01*
X201534357Y-107959947D02*
X201437595Y-108201852D01*
X201437595Y-108201852D02*
X201389214Y-108250233D01*
X201389214Y-108250233D02*
X201292452Y-108298614D01*
X202937404Y-107959947D02*
X202937404Y-106943947D01*
X202937404Y-106943947D02*
X203276071Y-107669662D01*
X203276071Y-107669662D02*
X203614738Y-106943947D01*
X203614738Y-106943947D02*
X203614738Y-107959947D01*
X204098547Y-107959947D02*
X204098547Y-107282614D01*
X204098547Y-106943947D02*
X204050166Y-106992328D01*
X204050166Y-106992328D02*
X204098547Y-107040709D01*
X204098547Y-107040709D02*
X204146928Y-106992328D01*
X204146928Y-106992328D02*
X204098547Y-106943947D01*
X204098547Y-106943947D02*
X204098547Y-107040709D01*
X204582357Y-107959947D02*
X204582357Y-106943947D01*
X205017786Y-107959947D02*
X205017786Y-107427757D01*
X205017786Y-107427757D02*
X204969405Y-107330995D01*
X204969405Y-107330995D02*
X204872643Y-107282614D01*
X204872643Y-107282614D02*
X204727500Y-107282614D01*
X204727500Y-107282614D02*
X204630738Y-107330995D01*
X204630738Y-107330995D02*
X204582357Y-107379376D01*
X205501595Y-107959947D02*
X205501595Y-107282614D01*
X205501595Y-106943947D02*
X205453214Y-106992328D01*
X205453214Y-106992328D02*
X205501595Y-107040709D01*
X205501595Y-107040709D02*
X205549976Y-106992328D01*
X205549976Y-106992328D02*
X205501595Y-106943947D01*
X205501595Y-106943947D02*
X205501595Y-107040709D01*
X205985405Y-107959947D02*
X205985405Y-107282614D01*
X205985405Y-107476138D02*
X206033786Y-107379376D01*
X206033786Y-107379376D02*
X206082167Y-107330995D01*
X206082167Y-107330995D02*
X206178929Y-107282614D01*
X206178929Y-107282614D02*
X206275691Y-107282614D01*
X207727119Y-107427757D02*
X207872262Y-107476138D01*
X207872262Y-107476138D02*
X207920643Y-107524519D01*
X207920643Y-107524519D02*
X207969024Y-107621281D01*
X207969024Y-107621281D02*
X207969024Y-107766424D01*
X207969024Y-107766424D02*
X207920643Y-107863186D01*
X207920643Y-107863186D02*
X207872262Y-107911567D01*
X207872262Y-107911567D02*
X207775500Y-107959947D01*
X207775500Y-107959947D02*
X207388452Y-107959947D01*
X207388452Y-107959947D02*
X207388452Y-106943947D01*
X207388452Y-106943947D02*
X207727119Y-106943947D01*
X207727119Y-106943947D02*
X207823881Y-106992328D01*
X207823881Y-106992328D02*
X207872262Y-107040709D01*
X207872262Y-107040709D02*
X207920643Y-107137471D01*
X207920643Y-107137471D02*
X207920643Y-107234233D01*
X207920643Y-107234233D02*
X207872262Y-107330995D01*
X207872262Y-107330995D02*
X207823881Y-107379376D01*
X207823881Y-107379376D02*
X207727119Y-107427757D01*
X207727119Y-107427757D02*
X207388452Y-107427757D01*
X208404452Y-107959947D02*
X208404452Y-106943947D01*
X208839881Y-107959947D02*
X208839881Y-107427757D01*
X208839881Y-107427757D02*
X208791500Y-107330995D01*
X208791500Y-107330995D02*
X208694738Y-107282614D01*
X208694738Y-107282614D02*
X208549595Y-107282614D01*
X208549595Y-107282614D02*
X208452833Y-107330995D01*
X208452833Y-107330995D02*
X208404452Y-107379376D01*
X209759119Y-107959947D02*
X209759119Y-107427757D01*
X209759119Y-107427757D02*
X209710738Y-107330995D01*
X209710738Y-107330995D02*
X209613976Y-107282614D01*
X209613976Y-107282614D02*
X209420452Y-107282614D01*
X209420452Y-107282614D02*
X209323690Y-107330995D01*
X209759119Y-107911567D02*
X209662357Y-107959947D01*
X209662357Y-107959947D02*
X209420452Y-107959947D01*
X209420452Y-107959947D02*
X209323690Y-107911567D01*
X209323690Y-107911567D02*
X209275309Y-107814805D01*
X209275309Y-107814805D02*
X209275309Y-107718043D01*
X209275309Y-107718043D02*
X209323690Y-107621281D01*
X209323690Y-107621281D02*
X209420452Y-107572900D01*
X209420452Y-107572900D02*
X209662357Y-107572900D01*
X209662357Y-107572900D02*
X209759119Y-107524519D01*
X210678357Y-107282614D02*
X210678357Y-108105090D01*
X210678357Y-108105090D02*
X210629976Y-108201852D01*
X210629976Y-108201852D02*
X210581595Y-108250233D01*
X210581595Y-108250233D02*
X210484833Y-108298614D01*
X210484833Y-108298614D02*
X210339690Y-108298614D01*
X210339690Y-108298614D02*
X210242928Y-108250233D01*
X210678357Y-107911567D02*
X210581595Y-107959947D01*
X210581595Y-107959947D02*
X210388071Y-107959947D01*
X210388071Y-107959947D02*
X210291309Y-107911567D01*
X210291309Y-107911567D02*
X210242928Y-107863186D01*
X210242928Y-107863186D02*
X210194547Y-107766424D01*
X210194547Y-107766424D02*
X210194547Y-107476138D01*
X210194547Y-107476138D02*
X210242928Y-107379376D01*
X210242928Y-107379376D02*
X210291309Y-107330995D01*
X210291309Y-107330995D02*
X210388071Y-107282614D01*
X210388071Y-107282614D02*
X210581595Y-107282614D01*
X210581595Y-107282614D02*
X210678357Y-107330995D01*
X211597595Y-107959947D02*
X211597595Y-107427757D01*
X211597595Y-107427757D02*
X211549214Y-107330995D01*
X211549214Y-107330995D02*
X211452452Y-107282614D01*
X211452452Y-107282614D02*
X211258928Y-107282614D01*
X211258928Y-107282614D02*
X211162166Y-107330995D01*
X211597595Y-107911567D02*
X211500833Y-107959947D01*
X211500833Y-107959947D02*
X211258928Y-107959947D01*
X211258928Y-107959947D02*
X211162166Y-107911567D01*
X211162166Y-107911567D02*
X211113785Y-107814805D01*
X211113785Y-107814805D02*
X211113785Y-107718043D01*
X211113785Y-107718043D02*
X211162166Y-107621281D01*
X211162166Y-107621281D02*
X211258928Y-107572900D01*
X211258928Y-107572900D02*
X211500833Y-107572900D01*
X211500833Y-107572900D02*
X211597595Y-107524519D01*
X211936261Y-107282614D02*
X212323309Y-107282614D01*
X212081404Y-106943947D02*
X212081404Y-107814805D01*
X212081404Y-107814805D02*
X212129785Y-107911567D01*
X212129785Y-107911567D02*
X212226547Y-107959947D01*
X212226547Y-107959947D02*
X212323309Y-107959947D01*
X212565213Y-107282614D02*
X212758737Y-107959947D01*
X212758737Y-107959947D02*
X212952261Y-107476138D01*
X212952261Y-107476138D02*
X213145785Y-107959947D01*
X213145785Y-107959947D02*
X213339309Y-107282614D01*
X214161785Y-107959947D02*
X214161785Y-107427757D01*
X214161785Y-107427757D02*
X214113404Y-107330995D01*
X214113404Y-107330995D02*
X214016642Y-107282614D01*
X214016642Y-107282614D02*
X213823118Y-107282614D01*
X213823118Y-107282614D02*
X213726356Y-107330995D01*
X214161785Y-107911567D02*
X214065023Y-107959947D01*
X214065023Y-107959947D02*
X213823118Y-107959947D01*
X213823118Y-107959947D02*
X213726356Y-107911567D01*
X213726356Y-107911567D02*
X213677975Y-107814805D01*
X213677975Y-107814805D02*
X213677975Y-107718043D01*
X213677975Y-107718043D02*
X213726356Y-107621281D01*
X213726356Y-107621281D02*
X213823118Y-107572900D01*
X213823118Y-107572900D02*
X214065023Y-107572900D01*
X214065023Y-107572900D02*
X214161785Y-107524519D01*
X214790737Y-107959947D02*
X214693975Y-107911567D01*
X214693975Y-107911567D02*
X214645594Y-107814805D01*
X214645594Y-107814805D02*
X214645594Y-106943947D01*
X215613213Y-107959947D02*
X215613213Y-107427757D01*
X215613213Y-107427757D02*
X215564832Y-107330995D01*
X215564832Y-107330995D02*
X215468070Y-107282614D01*
X215468070Y-107282614D02*
X215274546Y-107282614D01*
X215274546Y-107282614D02*
X215177784Y-107330995D01*
X215613213Y-107911567D02*
X215516451Y-107959947D01*
X215516451Y-107959947D02*
X215274546Y-107959947D01*
X215274546Y-107959947D02*
X215177784Y-107911567D01*
X215177784Y-107911567D02*
X215129403Y-107814805D01*
X215129403Y-107814805D02*
X215129403Y-107718043D01*
X215129403Y-107718043D02*
X215177784Y-107621281D01*
X215177784Y-107621281D02*
X215274546Y-107572900D01*
X215274546Y-107572900D02*
X215516451Y-107572900D01*
X215516451Y-107572900D02*
X215613213Y-107524519D01*
X192825786Y-109305365D02*
X193309596Y-109305365D01*
X192729024Y-109595650D02*
X193067691Y-108579650D01*
X193067691Y-108579650D02*
X193406358Y-109595650D01*
X193745024Y-109595650D02*
X193745024Y-108918317D01*
X193745024Y-109015079D02*
X193793405Y-108966698D01*
X193793405Y-108966698D02*
X193890167Y-108918317D01*
X193890167Y-108918317D02*
X194035310Y-108918317D01*
X194035310Y-108918317D02*
X194132072Y-108966698D01*
X194132072Y-108966698D02*
X194180453Y-109063460D01*
X194180453Y-109063460D02*
X194180453Y-109595650D01*
X194180453Y-109063460D02*
X194228834Y-108966698D01*
X194228834Y-108966698D02*
X194325596Y-108918317D01*
X194325596Y-108918317D02*
X194470739Y-108918317D01*
X194470739Y-108918317D02*
X194567500Y-108966698D01*
X194567500Y-108966698D02*
X194615881Y-109063460D01*
X194615881Y-109063460D02*
X194615881Y-109595650D01*
X195099691Y-109595650D02*
X195099691Y-108579650D01*
X195099691Y-108966698D02*
X195196453Y-108918317D01*
X195196453Y-108918317D02*
X195389977Y-108918317D01*
X195389977Y-108918317D02*
X195486739Y-108966698D01*
X195486739Y-108966698D02*
X195535120Y-109015079D01*
X195535120Y-109015079D02*
X195583501Y-109111841D01*
X195583501Y-109111841D02*
X195583501Y-109402127D01*
X195583501Y-109402127D02*
X195535120Y-109498889D01*
X195535120Y-109498889D02*
X195486739Y-109547270D01*
X195486739Y-109547270D02*
X195389977Y-109595650D01*
X195389977Y-109595650D02*
X195196453Y-109595650D01*
X195196453Y-109595650D02*
X195099691Y-109547270D01*
X196405977Y-109547270D02*
X196309215Y-109595650D01*
X196309215Y-109595650D02*
X196115691Y-109595650D01*
X196115691Y-109595650D02*
X196018929Y-109547270D01*
X196018929Y-109547270D02*
X195970548Y-109450508D01*
X195970548Y-109450508D02*
X195970548Y-109063460D01*
X195970548Y-109063460D02*
X196018929Y-108966698D01*
X196018929Y-108966698D02*
X196115691Y-108918317D01*
X196115691Y-108918317D02*
X196309215Y-108918317D01*
X196309215Y-108918317D02*
X196405977Y-108966698D01*
X196405977Y-108966698D02*
X196454358Y-109063460D01*
X196454358Y-109063460D02*
X196454358Y-109160222D01*
X196454358Y-109160222D02*
X195970548Y-109256984D01*
X196889786Y-109595650D02*
X196889786Y-108918317D01*
X196889786Y-109111841D02*
X196938167Y-109015079D01*
X196938167Y-109015079D02*
X196986548Y-108966698D01*
X196986548Y-108966698D02*
X197083310Y-108918317D01*
X197083310Y-108918317D02*
X197180072Y-108918317D01*
X198292833Y-109595650D02*
X198292833Y-108579650D01*
X198292833Y-109063460D02*
X198873405Y-109063460D01*
X198873405Y-109595650D02*
X198873405Y-108579650D01*
X199792643Y-108918317D02*
X199792643Y-109595650D01*
X199357214Y-108918317D02*
X199357214Y-109450508D01*
X199357214Y-109450508D02*
X199405595Y-109547270D01*
X199405595Y-109547270D02*
X199502357Y-109595650D01*
X199502357Y-109595650D02*
X199647500Y-109595650D01*
X199647500Y-109595650D02*
X199744262Y-109547270D01*
X199744262Y-109547270D02*
X199792643Y-109498889D01*
X200711881Y-109595650D02*
X200711881Y-109063460D01*
X200711881Y-109063460D02*
X200663500Y-108966698D01*
X200663500Y-108966698D02*
X200566738Y-108918317D01*
X200566738Y-108918317D02*
X200373214Y-108918317D01*
X200373214Y-108918317D02*
X200276452Y-108966698D01*
X200711881Y-109547270D02*
X200615119Y-109595650D01*
X200615119Y-109595650D02*
X200373214Y-109595650D01*
X200373214Y-109595650D02*
X200276452Y-109547270D01*
X200276452Y-109547270D02*
X200228071Y-109450508D01*
X200228071Y-109450508D02*
X200228071Y-109353746D01*
X200228071Y-109353746D02*
X200276452Y-109256984D01*
X200276452Y-109256984D02*
X200373214Y-109208603D01*
X200373214Y-109208603D02*
X200615119Y-109208603D01*
X200615119Y-109208603D02*
X200711881Y-109160222D01*
X201195690Y-108918317D02*
X201195690Y-109595650D01*
X201195690Y-109015079D02*
X201244071Y-108966698D01*
X201244071Y-108966698D02*
X201340833Y-108918317D01*
X201340833Y-108918317D02*
X201485976Y-108918317D01*
X201485976Y-108918317D02*
X201582738Y-108966698D01*
X201582738Y-108966698D02*
X201631119Y-109063460D01*
X201631119Y-109063460D02*
X201631119Y-109595650D01*
X202550357Y-108918317D02*
X202550357Y-109740793D01*
X202550357Y-109740793D02*
X202501976Y-109837555D01*
X202501976Y-109837555D02*
X202453595Y-109885936D01*
X202453595Y-109885936D02*
X202356833Y-109934317D01*
X202356833Y-109934317D02*
X202211690Y-109934317D01*
X202211690Y-109934317D02*
X202114928Y-109885936D01*
X202550357Y-109547270D02*
X202453595Y-109595650D01*
X202453595Y-109595650D02*
X202260071Y-109595650D01*
X202260071Y-109595650D02*
X202163309Y-109547270D01*
X202163309Y-109547270D02*
X202114928Y-109498889D01*
X202114928Y-109498889D02*
X202066547Y-109402127D01*
X202066547Y-109402127D02*
X202066547Y-109111841D01*
X202066547Y-109111841D02*
X202114928Y-109015079D01*
X202114928Y-109015079D02*
X202163309Y-108966698D01*
X202163309Y-108966698D02*
X202260071Y-108918317D01*
X202260071Y-108918317D02*
X202453595Y-108918317D01*
X202453595Y-108918317D02*
X202550357Y-108966698D01*
X161886167Y-125938095D02*
X161886167Y-124922095D01*
X161886167Y-125405905D02*
X162466739Y-125405905D01*
X162466739Y-125938095D02*
X162466739Y-124922095D01*
X162805405Y-124922095D02*
X163144072Y-125938095D01*
X163144072Y-125938095D02*
X163482739Y-124922095D01*
X214137024Y-96490095D02*
X214137024Y-97215810D01*
X214137024Y-97215810D02*
X214088643Y-97360953D01*
X214088643Y-97360953D02*
X213991881Y-97457715D01*
X213991881Y-97457715D02*
X213846738Y-97506095D01*
X213846738Y-97506095D02*
X213749976Y-97506095D01*
X214572452Y-96586857D02*
X214620833Y-96538476D01*
X214620833Y-96538476D02*
X214717595Y-96490095D01*
X214717595Y-96490095D02*
X214959500Y-96490095D01*
X214959500Y-96490095D02*
X215056262Y-96538476D01*
X215056262Y-96538476D02*
X215104643Y-96586857D01*
X215104643Y-96586857D02*
X215153024Y-96683619D01*
X215153024Y-96683619D02*
X215153024Y-96780381D01*
X215153024Y-96780381D02*
X215104643Y-96925524D01*
X215104643Y-96925524D02*
X214524071Y-97506095D01*
X214524071Y-97506095D02*
X215153024Y-97506095D01*
X162134333Y-119757318D02*
X162134333Y-120483033D01*
X162134333Y-120483033D02*
X162085952Y-120628176D01*
X162085952Y-120628176D02*
X161989190Y-120724938D01*
X161989190Y-120724938D02*
X161844047Y-120773318D01*
X161844047Y-120773318D02*
X161747285Y-120773318D01*
X162521380Y-119757318D02*
X163198714Y-119757318D01*
X163198714Y-119757318D02*
X162763285Y-120773318D01*
X214560024Y-119834095D02*
X214560024Y-120559810D01*
X214560024Y-120559810D02*
X214511643Y-120704953D01*
X214511643Y-120704953D02*
X214414881Y-120801715D01*
X214414881Y-120801715D02*
X214269738Y-120850095D01*
X214269738Y-120850095D02*
X214172976Y-120850095D01*
X215479262Y-119834095D02*
X215285738Y-119834095D01*
X215285738Y-119834095D02*
X215188976Y-119882476D01*
X215188976Y-119882476D02*
X215140595Y-119930857D01*
X215140595Y-119930857D02*
X215043833Y-120076000D01*
X215043833Y-120076000D02*
X214995452Y-120269524D01*
X214995452Y-120269524D02*
X214995452Y-120656572D01*
X214995452Y-120656572D02*
X215043833Y-120753334D01*
X215043833Y-120753334D02*
X215092214Y-120801715D01*
X215092214Y-120801715D02*
X215188976Y-120850095D01*
X215188976Y-120850095D02*
X215382500Y-120850095D01*
X215382500Y-120850095D02*
X215479262Y-120801715D01*
X215479262Y-120801715D02*
X215527643Y-120753334D01*
X215527643Y-120753334D02*
X215576024Y-120656572D01*
X215576024Y-120656572D02*
X215576024Y-120414667D01*
X215576024Y-120414667D02*
X215527643Y-120317905D01*
X215527643Y-120317905D02*
X215479262Y-120269524D01*
X215479262Y-120269524D02*
X215382500Y-120221143D01*
X215382500Y-120221143D02*
X215188976Y-120221143D01*
X215188976Y-120221143D02*
X215092214Y-120269524D01*
X215092214Y-120269524D02*
X215043833Y-120317905D01*
X215043833Y-120317905D02*
X214995452Y-120414667D01*
X194043904Y-73868095D02*
X194624476Y-73868095D01*
X194334190Y-74884095D02*
X194334190Y-73868095D01*
X194963142Y-74884095D02*
X194963142Y-73868095D01*
X194963142Y-73868095D02*
X195350190Y-73868095D01*
X195350190Y-73868095D02*
X195446952Y-73916476D01*
X195446952Y-73916476D02*
X195495333Y-73964857D01*
X195495333Y-73964857D02*
X195543714Y-74061619D01*
X195543714Y-74061619D02*
X195543714Y-74206762D01*
X195543714Y-74206762D02*
X195495333Y-74303524D01*
X195495333Y-74303524D02*
X195446952Y-74351905D01*
X195446952Y-74351905D02*
X195350190Y-74400286D01*
X195350190Y-74400286D02*
X194963142Y-74400286D01*
X196414571Y-73868095D02*
X196221047Y-73868095D01*
X196221047Y-73868095D02*
X196124285Y-73916476D01*
X196124285Y-73916476D02*
X196075904Y-73964857D01*
X196075904Y-73964857D02*
X195979142Y-74110000D01*
X195979142Y-74110000D02*
X195930761Y-74303524D01*
X195930761Y-74303524D02*
X195930761Y-74690572D01*
X195930761Y-74690572D02*
X195979142Y-74787334D01*
X195979142Y-74787334D02*
X196027523Y-74835715D01*
X196027523Y-74835715D02*
X196124285Y-74884095D01*
X196124285Y-74884095D02*
X196317809Y-74884095D01*
X196317809Y-74884095D02*
X196414571Y-74835715D01*
X196414571Y-74835715D02*
X196462952Y-74787334D01*
X196462952Y-74787334D02*
X196511333Y-74690572D01*
X196511333Y-74690572D02*
X196511333Y-74448667D01*
X196511333Y-74448667D02*
X196462952Y-74351905D01*
X196462952Y-74351905D02*
X196414571Y-74303524D01*
X196414571Y-74303524D02*
X196317809Y-74255143D01*
X196317809Y-74255143D02*
X196124285Y-74255143D01*
X196124285Y-74255143D02*
X196027523Y-74303524D01*
X196027523Y-74303524D02*
X195979142Y-74351905D01*
X195979142Y-74351905D02*
X195930761Y-74448667D01*
X187185904Y-75138095D02*
X187766476Y-75138095D01*
X187476190Y-76154095D02*
X187476190Y-75138095D01*
X188105142Y-76154095D02*
X188105142Y-75138095D01*
X188105142Y-75138095D02*
X188492190Y-75138095D01*
X188492190Y-75138095D02*
X188588952Y-75186476D01*
X188588952Y-75186476D02*
X188637333Y-75234857D01*
X188637333Y-75234857D02*
X188685714Y-75331619D01*
X188685714Y-75331619D02*
X188685714Y-75476762D01*
X188685714Y-75476762D02*
X188637333Y-75573524D01*
X188637333Y-75573524D02*
X188588952Y-75621905D01*
X188588952Y-75621905D02*
X188492190Y-75670286D01*
X188492190Y-75670286D02*
X188105142Y-75670286D01*
X189024380Y-75138095D02*
X189653333Y-75138095D01*
X189653333Y-75138095D02*
X189314666Y-75525143D01*
X189314666Y-75525143D02*
X189459809Y-75525143D01*
X189459809Y-75525143D02*
X189556571Y-75573524D01*
X189556571Y-75573524D02*
X189604952Y-75621905D01*
X189604952Y-75621905D02*
X189653333Y-75718667D01*
X189653333Y-75718667D02*
X189653333Y-75960572D01*
X189653333Y-75960572D02*
X189604952Y-76057334D01*
X189604952Y-76057334D02*
X189556571Y-76105715D01*
X189556571Y-76105715D02*
X189459809Y-76154095D01*
X189459809Y-76154095D02*
X189169523Y-76154095D01*
X189169523Y-76154095D02*
X189072761Y-76105715D01*
X189072761Y-76105715D02*
X189024380Y-76057334D01*
X190354857Y-79613334D02*
X190306476Y-79661715D01*
X190306476Y-79661715D02*
X190161333Y-79710095D01*
X190161333Y-79710095D02*
X190064571Y-79710095D01*
X190064571Y-79710095D02*
X189919428Y-79661715D01*
X189919428Y-79661715D02*
X189822666Y-79564953D01*
X189822666Y-79564953D02*
X189774285Y-79468191D01*
X189774285Y-79468191D02*
X189725904Y-79274667D01*
X189725904Y-79274667D02*
X189725904Y-79129524D01*
X189725904Y-79129524D02*
X189774285Y-78936000D01*
X189774285Y-78936000D02*
X189822666Y-78839238D01*
X189822666Y-78839238D02*
X189919428Y-78742476D01*
X189919428Y-78742476D02*
X190064571Y-78694095D01*
X190064571Y-78694095D02*
X190161333Y-78694095D01*
X190161333Y-78694095D02*
X190306476Y-78742476D01*
X190306476Y-78742476D02*
X190354857Y-78790857D01*
X190693523Y-78694095D02*
X191322476Y-78694095D01*
X191322476Y-78694095D02*
X190983809Y-79081143D01*
X190983809Y-79081143D02*
X191128952Y-79081143D01*
X191128952Y-79081143D02*
X191225714Y-79129524D01*
X191225714Y-79129524D02*
X191274095Y-79177905D01*
X191274095Y-79177905D02*
X191322476Y-79274667D01*
X191322476Y-79274667D02*
X191322476Y-79516572D01*
X191322476Y-79516572D02*
X191274095Y-79613334D01*
X191274095Y-79613334D02*
X191225714Y-79661715D01*
X191225714Y-79661715D02*
X191128952Y-79710095D01*
X191128952Y-79710095D02*
X190838666Y-79710095D01*
X190838666Y-79710095D02*
X190741904Y-79661715D01*
X190741904Y-79661715D02*
X190693523Y-79613334D01*
X191709523Y-78790857D02*
X191757904Y-78742476D01*
X191757904Y-78742476D02*
X191854666Y-78694095D01*
X191854666Y-78694095D02*
X192096571Y-78694095D01*
X192096571Y-78694095D02*
X192193333Y-78742476D01*
X192193333Y-78742476D02*
X192241714Y-78790857D01*
X192241714Y-78790857D02*
X192290095Y-78887619D01*
X192290095Y-78887619D02*
X192290095Y-78984381D01*
X192290095Y-78984381D02*
X192241714Y-79129524D01*
X192241714Y-79129524D02*
X191661142Y-79710095D01*
X191661142Y-79710095D02*
X192290095Y-79710095D01*
X190354857Y-81645334D02*
X190306476Y-81693715D01*
X190306476Y-81693715D02*
X190161333Y-81742095D01*
X190161333Y-81742095D02*
X190064571Y-81742095D01*
X190064571Y-81742095D02*
X189919428Y-81693715D01*
X189919428Y-81693715D02*
X189822666Y-81596953D01*
X189822666Y-81596953D02*
X189774285Y-81500191D01*
X189774285Y-81500191D02*
X189725904Y-81306667D01*
X189725904Y-81306667D02*
X189725904Y-81161524D01*
X189725904Y-81161524D02*
X189774285Y-80968000D01*
X189774285Y-80968000D02*
X189822666Y-80871238D01*
X189822666Y-80871238D02*
X189919428Y-80774476D01*
X189919428Y-80774476D02*
X190064571Y-80726095D01*
X190064571Y-80726095D02*
X190161333Y-80726095D01*
X190161333Y-80726095D02*
X190306476Y-80774476D01*
X190306476Y-80774476D02*
X190354857Y-80822857D01*
X190693523Y-80726095D02*
X191322476Y-80726095D01*
X191322476Y-80726095D02*
X190983809Y-81113143D01*
X190983809Y-81113143D02*
X191128952Y-81113143D01*
X191128952Y-81113143D02*
X191225714Y-81161524D01*
X191225714Y-81161524D02*
X191274095Y-81209905D01*
X191274095Y-81209905D02*
X191322476Y-81306667D01*
X191322476Y-81306667D02*
X191322476Y-81548572D01*
X191322476Y-81548572D02*
X191274095Y-81645334D01*
X191274095Y-81645334D02*
X191225714Y-81693715D01*
X191225714Y-81693715D02*
X191128952Y-81742095D01*
X191128952Y-81742095D02*
X190838666Y-81742095D01*
X190838666Y-81742095D02*
X190741904Y-81693715D01*
X190741904Y-81693715D02*
X190693523Y-81645334D01*
X191661142Y-80726095D02*
X192290095Y-80726095D01*
X192290095Y-80726095D02*
X191951428Y-81113143D01*
X191951428Y-81113143D02*
X192096571Y-81113143D01*
X192096571Y-81113143D02*
X192193333Y-81161524D01*
X192193333Y-81161524D02*
X192241714Y-81209905D01*
X192241714Y-81209905D02*
X192290095Y-81306667D01*
X192290095Y-81306667D02*
X192290095Y-81548572D01*
X192290095Y-81548572D02*
X192241714Y-81645334D01*
X192241714Y-81645334D02*
X192193333Y-81693715D01*
X192193333Y-81693715D02*
X192096571Y-81742095D01*
X192096571Y-81742095D02*
X191806285Y-81742095D01*
X191806285Y-81742095D02*
X191709523Y-81693715D01*
X191709523Y-81693715D02*
X191661142Y-81645334D01*
X181721334Y-78377142D02*
X181769715Y-78425523D01*
X181769715Y-78425523D02*
X181818095Y-78570666D01*
X181818095Y-78570666D02*
X181818095Y-78667428D01*
X181818095Y-78667428D02*
X181769715Y-78812571D01*
X181769715Y-78812571D02*
X181672953Y-78909333D01*
X181672953Y-78909333D02*
X181576191Y-78957714D01*
X181576191Y-78957714D02*
X181382667Y-79006095D01*
X181382667Y-79006095D02*
X181237524Y-79006095D01*
X181237524Y-79006095D02*
X181044000Y-78957714D01*
X181044000Y-78957714D02*
X180947238Y-78909333D01*
X180947238Y-78909333D02*
X180850476Y-78812571D01*
X180850476Y-78812571D02*
X180802095Y-78667428D01*
X180802095Y-78667428D02*
X180802095Y-78570666D01*
X180802095Y-78570666D02*
X180850476Y-78425523D01*
X180850476Y-78425523D02*
X180898857Y-78377142D01*
X180802095Y-78038476D02*
X180802095Y-77409523D01*
X180802095Y-77409523D02*
X181189143Y-77748190D01*
X181189143Y-77748190D02*
X181189143Y-77603047D01*
X181189143Y-77603047D02*
X181237524Y-77506285D01*
X181237524Y-77506285D02*
X181285905Y-77457904D01*
X181285905Y-77457904D02*
X181382667Y-77409523D01*
X181382667Y-77409523D02*
X181624572Y-77409523D01*
X181624572Y-77409523D02*
X181721334Y-77457904D01*
X181721334Y-77457904D02*
X181769715Y-77506285D01*
X181769715Y-77506285D02*
X181818095Y-77603047D01*
X181818095Y-77603047D02*
X181818095Y-77893333D01*
X181818095Y-77893333D02*
X181769715Y-77990095D01*
X181769715Y-77990095D02*
X181721334Y-78038476D01*
X181140762Y-76538666D02*
X181818095Y-76538666D01*
X180753715Y-76780571D02*
X181479429Y-77022476D01*
X181479429Y-77022476D02*
X181479429Y-76393523D01*
X190354857Y-77835334D02*
X190306476Y-77883715D01*
X190306476Y-77883715D02*
X190161333Y-77932095D01*
X190161333Y-77932095D02*
X190064571Y-77932095D01*
X190064571Y-77932095D02*
X189919428Y-77883715D01*
X189919428Y-77883715D02*
X189822666Y-77786953D01*
X189822666Y-77786953D02*
X189774285Y-77690191D01*
X189774285Y-77690191D02*
X189725904Y-77496667D01*
X189725904Y-77496667D02*
X189725904Y-77351524D01*
X189725904Y-77351524D02*
X189774285Y-77158000D01*
X189774285Y-77158000D02*
X189822666Y-77061238D01*
X189822666Y-77061238D02*
X189919428Y-76964476D01*
X189919428Y-76964476D02*
X190064571Y-76916095D01*
X190064571Y-76916095D02*
X190161333Y-76916095D01*
X190161333Y-76916095D02*
X190306476Y-76964476D01*
X190306476Y-76964476D02*
X190354857Y-77012857D01*
X190693523Y-76916095D02*
X191322476Y-76916095D01*
X191322476Y-76916095D02*
X190983809Y-77303143D01*
X190983809Y-77303143D02*
X191128952Y-77303143D01*
X191128952Y-77303143D02*
X191225714Y-77351524D01*
X191225714Y-77351524D02*
X191274095Y-77399905D01*
X191274095Y-77399905D02*
X191322476Y-77496667D01*
X191322476Y-77496667D02*
X191322476Y-77738572D01*
X191322476Y-77738572D02*
X191274095Y-77835334D01*
X191274095Y-77835334D02*
X191225714Y-77883715D01*
X191225714Y-77883715D02*
X191128952Y-77932095D01*
X191128952Y-77932095D02*
X190838666Y-77932095D01*
X190838666Y-77932095D02*
X190741904Y-77883715D01*
X190741904Y-77883715D02*
X190693523Y-77835334D01*
X192290095Y-77932095D02*
X191709523Y-77932095D01*
X191999809Y-77932095D02*
X191999809Y-76916095D01*
X191999809Y-76916095D02*
X191903047Y-77061238D01*
X191903047Y-77061238D02*
X191806285Y-77158000D01*
X191806285Y-77158000D02*
X191709523Y-77206381D01*
X179689334Y-78885142D02*
X179737715Y-78933523D01*
X179737715Y-78933523D02*
X179786095Y-79078666D01*
X179786095Y-79078666D02*
X179786095Y-79175428D01*
X179786095Y-79175428D02*
X179737715Y-79320571D01*
X179737715Y-79320571D02*
X179640953Y-79417333D01*
X179640953Y-79417333D02*
X179544191Y-79465714D01*
X179544191Y-79465714D02*
X179350667Y-79514095D01*
X179350667Y-79514095D02*
X179205524Y-79514095D01*
X179205524Y-79514095D02*
X179012000Y-79465714D01*
X179012000Y-79465714D02*
X178915238Y-79417333D01*
X178915238Y-79417333D02*
X178818476Y-79320571D01*
X178818476Y-79320571D02*
X178770095Y-79175428D01*
X178770095Y-79175428D02*
X178770095Y-79078666D01*
X178770095Y-79078666D02*
X178818476Y-78933523D01*
X178818476Y-78933523D02*
X178866857Y-78885142D01*
X178770095Y-78546476D02*
X178770095Y-77917523D01*
X178770095Y-77917523D02*
X179157143Y-78256190D01*
X179157143Y-78256190D02*
X179157143Y-78111047D01*
X179157143Y-78111047D02*
X179205524Y-78014285D01*
X179205524Y-78014285D02*
X179253905Y-77965904D01*
X179253905Y-77965904D02*
X179350667Y-77917523D01*
X179350667Y-77917523D02*
X179592572Y-77917523D01*
X179592572Y-77917523D02*
X179689334Y-77965904D01*
X179689334Y-77965904D02*
X179737715Y-78014285D01*
X179737715Y-78014285D02*
X179786095Y-78111047D01*
X179786095Y-78111047D02*
X179786095Y-78401333D01*
X179786095Y-78401333D02*
X179737715Y-78498095D01*
X179737715Y-78498095D02*
X179689334Y-78546476D01*
X178770095Y-76998285D02*
X178770095Y-77482095D01*
X178770095Y-77482095D02*
X179253905Y-77530476D01*
X179253905Y-77530476D02*
X179205524Y-77482095D01*
X179205524Y-77482095D02*
X179157143Y-77385333D01*
X179157143Y-77385333D02*
X179157143Y-77143428D01*
X179157143Y-77143428D02*
X179205524Y-77046666D01*
X179205524Y-77046666D02*
X179253905Y-76998285D01*
X179253905Y-76998285D02*
X179350667Y-76949904D01*
X179350667Y-76949904D02*
X179592572Y-76949904D01*
X179592572Y-76949904D02*
X179689334Y-76998285D01*
X179689334Y-76998285D02*
X179737715Y-77046666D01*
X179737715Y-77046666D02*
X179786095Y-77143428D01*
X179786095Y-77143428D02*
X179786095Y-77385333D01*
X179786095Y-77385333D02*
X179737715Y-77482095D01*
X179737715Y-77482095D02*
X179689334Y-77530476D01*
X181718857Y-82407334D02*
X181670476Y-82455715D01*
X181670476Y-82455715D02*
X181525333Y-82504095D01*
X181525333Y-82504095D02*
X181428571Y-82504095D01*
X181428571Y-82504095D02*
X181283428Y-82455715D01*
X181283428Y-82455715D02*
X181186666Y-82358953D01*
X181186666Y-82358953D02*
X181138285Y-82262191D01*
X181138285Y-82262191D02*
X181089904Y-82068667D01*
X181089904Y-82068667D02*
X181089904Y-81923524D01*
X181089904Y-81923524D02*
X181138285Y-81730000D01*
X181138285Y-81730000D02*
X181186666Y-81633238D01*
X181186666Y-81633238D02*
X181283428Y-81536476D01*
X181283428Y-81536476D02*
X181428571Y-81488095D01*
X181428571Y-81488095D02*
X181525333Y-81488095D01*
X181525333Y-81488095D02*
X181670476Y-81536476D01*
X181670476Y-81536476D02*
X181718857Y-81584857D01*
X182686476Y-82504095D02*
X182105904Y-82504095D01*
X182396190Y-82504095D02*
X182396190Y-81488095D01*
X182396190Y-81488095D02*
X182299428Y-81633238D01*
X182299428Y-81633238D02*
X182202666Y-81730000D01*
X182202666Y-81730000D02*
X182105904Y-81778381D01*
X183605714Y-81488095D02*
X183121904Y-81488095D01*
X183121904Y-81488095D02*
X183073523Y-81971905D01*
X183073523Y-81971905D02*
X183121904Y-81923524D01*
X183121904Y-81923524D02*
X183218666Y-81875143D01*
X183218666Y-81875143D02*
X183460571Y-81875143D01*
X183460571Y-81875143D02*
X183557333Y-81923524D01*
X183557333Y-81923524D02*
X183605714Y-81971905D01*
X183605714Y-81971905D02*
X183654095Y-82068667D01*
X183654095Y-82068667D02*
X183654095Y-82310572D01*
X183654095Y-82310572D02*
X183605714Y-82407334D01*
X183605714Y-82407334D02*
X183557333Y-82455715D01*
X183557333Y-82455715D02*
X183460571Y-82504095D01*
X183460571Y-82504095D02*
X183218666Y-82504095D01*
X183218666Y-82504095D02*
X183121904Y-82455715D01*
X183121904Y-82455715D02*
X183073523Y-82407334D01*
X174921333Y-45674095D02*
X174921333Y-46399810D01*
X174921333Y-46399810D02*
X174872952Y-46544953D01*
X174872952Y-46544953D02*
X174776190Y-46641715D01*
X174776190Y-46641715D02*
X174631047Y-46690095D01*
X174631047Y-46690095D02*
X174534285Y-46690095D01*
X175550285Y-46109524D02*
X175453523Y-46061143D01*
X175453523Y-46061143D02*
X175405142Y-46012762D01*
X175405142Y-46012762D02*
X175356761Y-45916000D01*
X175356761Y-45916000D02*
X175356761Y-45867619D01*
X175356761Y-45867619D02*
X175405142Y-45770857D01*
X175405142Y-45770857D02*
X175453523Y-45722476D01*
X175453523Y-45722476D02*
X175550285Y-45674095D01*
X175550285Y-45674095D02*
X175743809Y-45674095D01*
X175743809Y-45674095D02*
X175840571Y-45722476D01*
X175840571Y-45722476D02*
X175888952Y-45770857D01*
X175888952Y-45770857D02*
X175937333Y-45867619D01*
X175937333Y-45867619D02*
X175937333Y-45916000D01*
X175937333Y-45916000D02*
X175888952Y-46012762D01*
X175888952Y-46012762D02*
X175840571Y-46061143D01*
X175840571Y-46061143D02*
X175743809Y-46109524D01*
X175743809Y-46109524D02*
X175550285Y-46109524D01*
X175550285Y-46109524D02*
X175453523Y-46157905D01*
X175453523Y-46157905D02*
X175405142Y-46206286D01*
X175405142Y-46206286D02*
X175356761Y-46303048D01*
X175356761Y-46303048D02*
X175356761Y-46496572D01*
X175356761Y-46496572D02*
X175405142Y-46593334D01*
X175405142Y-46593334D02*
X175453523Y-46641715D01*
X175453523Y-46641715D02*
X175550285Y-46690095D01*
X175550285Y-46690095D02*
X175743809Y-46690095D01*
X175743809Y-46690095D02*
X175840571Y-46641715D01*
X175840571Y-46641715D02*
X175888952Y-46593334D01*
X175888952Y-46593334D02*
X175937333Y-46496572D01*
X175937333Y-46496572D02*
X175937333Y-46303048D01*
X175937333Y-46303048D02*
X175888952Y-46206286D01*
X175888952Y-46206286D02*
X175840571Y-46157905D01*
X175840571Y-46157905D02*
X175743809Y-46109524D01*
X186266667Y-42118095D02*
X185782857Y-42118095D01*
X185782857Y-42118095D02*
X185782857Y-41102095D01*
X187137524Y-42118095D02*
X186556952Y-42118095D01*
X186847238Y-42118095D02*
X186847238Y-41102095D01*
X186847238Y-41102095D02*
X186750476Y-41247238D01*
X186750476Y-41247238D02*
X186653714Y-41344000D01*
X186653714Y-41344000D02*
X186556952Y-41392381D01*
X197058095Y-46494095D02*
X197880572Y-46494095D01*
X197880572Y-46494095D02*
X197977334Y-46445714D01*
X197977334Y-46445714D02*
X198025715Y-46397333D01*
X198025715Y-46397333D02*
X198074095Y-46300571D01*
X198074095Y-46300571D02*
X198074095Y-46107047D01*
X198074095Y-46107047D02*
X198025715Y-46010285D01*
X198025715Y-46010285D02*
X197977334Y-45961904D01*
X197977334Y-45961904D02*
X197880572Y-45913523D01*
X197880572Y-45913523D02*
X197058095Y-45913523D01*
X198074095Y-44897523D02*
X198074095Y-45478095D01*
X198074095Y-45187809D02*
X197058095Y-45187809D01*
X197058095Y-45187809D02*
X197203238Y-45284571D01*
X197203238Y-45284571D02*
X197300000Y-45381333D01*
X197300000Y-45381333D02*
X197348381Y-45478095D01*
X197937334Y-43417142D02*
X197985715Y-43465523D01*
X197985715Y-43465523D02*
X198034095Y-43610666D01*
X198034095Y-43610666D02*
X198034095Y-43707428D01*
X198034095Y-43707428D02*
X197985715Y-43852571D01*
X197985715Y-43852571D02*
X197888953Y-43949333D01*
X197888953Y-43949333D02*
X197792191Y-43997714D01*
X197792191Y-43997714D02*
X197598667Y-44046095D01*
X197598667Y-44046095D02*
X197453524Y-44046095D01*
X197453524Y-44046095D02*
X197260000Y-43997714D01*
X197260000Y-43997714D02*
X197163238Y-43949333D01*
X197163238Y-43949333D02*
X197066476Y-43852571D01*
X197066476Y-43852571D02*
X197018095Y-43707428D01*
X197018095Y-43707428D02*
X197018095Y-43610666D01*
X197018095Y-43610666D02*
X197066476Y-43465523D01*
X197066476Y-43465523D02*
X197114857Y-43417142D01*
X198034095Y-42449523D02*
X198034095Y-43030095D01*
X198034095Y-42739809D02*
X197018095Y-42739809D01*
X197018095Y-42739809D02*
X197163238Y-42836571D01*
X197163238Y-42836571D02*
X197260000Y-42933333D01*
X197260000Y-42933333D02*
X197308381Y-43030095D01*
X197114857Y-42062476D02*
X197066476Y-42014095D01*
X197066476Y-42014095D02*
X197018095Y-41917333D01*
X197018095Y-41917333D02*
X197018095Y-41675428D01*
X197018095Y-41675428D02*
X197066476Y-41578666D01*
X197066476Y-41578666D02*
X197114857Y-41530285D01*
X197114857Y-41530285D02*
X197211619Y-41481904D01*
X197211619Y-41481904D02*
X197308381Y-41481904D01*
X197308381Y-41481904D02*
X197453524Y-41530285D01*
X197453524Y-41530285D02*
X198034095Y-42110857D01*
X198034095Y-42110857D02*
X198034095Y-41481904D01*
X175250095Y-49591095D02*
X175250095Y-48575095D01*
X175250095Y-48575095D02*
X175492000Y-48575095D01*
X175492000Y-48575095D02*
X175637143Y-48623476D01*
X175637143Y-48623476D02*
X175733905Y-48720238D01*
X175733905Y-48720238D02*
X175782286Y-48817000D01*
X175782286Y-48817000D02*
X175830667Y-49010524D01*
X175830667Y-49010524D02*
X175830667Y-49155667D01*
X175830667Y-49155667D02*
X175782286Y-49349191D01*
X175782286Y-49349191D02*
X175733905Y-49445953D01*
X175733905Y-49445953D02*
X175637143Y-49542715D01*
X175637143Y-49542715D02*
X175492000Y-49591095D01*
X175492000Y-49591095D02*
X175250095Y-49591095D01*
X176798286Y-49591095D02*
X176217714Y-49591095D01*
X176508000Y-49591095D02*
X176508000Y-48575095D01*
X176508000Y-48575095D02*
X176411238Y-48720238D01*
X176411238Y-48720238D02*
X176314476Y-48817000D01*
X176314476Y-48817000D02*
X176217714Y-48865381D01*
X185758667Y-49738095D02*
X185420000Y-49254286D01*
X185178095Y-49738095D02*
X185178095Y-48722095D01*
X185178095Y-48722095D02*
X185565143Y-48722095D01*
X185565143Y-48722095D02*
X185661905Y-48770476D01*
X185661905Y-48770476D02*
X185710286Y-48818857D01*
X185710286Y-48818857D02*
X185758667Y-48915619D01*
X185758667Y-48915619D02*
X185758667Y-49060762D01*
X185758667Y-49060762D02*
X185710286Y-49157524D01*
X185710286Y-49157524D02*
X185661905Y-49205905D01*
X185661905Y-49205905D02*
X185565143Y-49254286D01*
X185565143Y-49254286D02*
X185178095Y-49254286D01*
X186339238Y-49157524D02*
X186242476Y-49109143D01*
X186242476Y-49109143D02*
X186194095Y-49060762D01*
X186194095Y-49060762D02*
X186145714Y-48964000D01*
X186145714Y-48964000D02*
X186145714Y-48915619D01*
X186145714Y-48915619D02*
X186194095Y-48818857D01*
X186194095Y-48818857D02*
X186242476Y-48770476D01*
X186242476Y-48770476D02*
X186339238Y-48722095D01*
X186339238Y-48722095D02*
X186532762Y-48722095D01*
X186532762Y-48722095D02*
X186629524Y-48770476D01*
X186629524Y-48770476D02*
X186677905Y-48818857D01*
X186677905Y-48818857D02*
X186726286Y-48915619D01*
X186726286Y-48915619D02*
X186726286Y-48964000D01*
X186726286Y-48964000D02*
X186677905Y-49060762D01*
X186677905Y-49060762D02*
X186629524Y-49109143D01*
X186629524Y-49109143D02*
X186532762Y-49157524D01*
X186532762Y-49157524D02*
X186339238Y-49157524D01*
X186339238Y-49157524D02*
X186242476Y-49205905D01*
X186242476Y-49205905D02*
X186194095Y-49254286D01*
X186194095Y-49254286D02*
X186145714Y-49351048D01*
X186145714Y-49351048D02*
X186145714Y-49544572D01*
X186145714Y-49544572D02*
X186194095Y-49641334D01*
X186194095Y-49641334D02*
X186242476Y-49689715D01*
X186242476Y-49689715D02*
X186339238Y-49738095D01*
X186339238Y-49738095D02*
X186532762Y-49738095D01*
X186532762Y-49738095D02*
X186629524Y-49689715D01*
X186629524Y-49689715D02*
X186677905Y-49641334D01*
X186677905Y-49641334D02*
X186726286Y-49544572D01*
X186726286Y-49544572D02*
X186726286Y-49351048D01*
X186726286Y-49351048D02*
X186677905Y-49254286D01*
X186677905Y-49254286D02*
X186629524Y-49205905D01*
X186629524Y-49205905D02*
X186532762Y-49157524D01*
X191370857Y-51419334D02*
X191322476Y-51467715D01*
X191322476Y-51467715D02*
X191177333Y-51516095D01*
X191177333Y-51516095D02*
X191080571Y-51516095D01*
X191080571Y-51516095D02*
X190935428Y-51467715D01*
X190935428Y-51467715D02*
X190838666Y-51370953D01*
X190838666Y-51370953D02*
X190790285Y-51274191D01*
X190790285Y-51274191D02*
X190741904Y-51080667D01*
X190741904Y-51080667D02*
X190741904Y-50935524D01*
X190741904Y-50935524D02*
X190790285Y-50742000D01*
X190790285Y-50742000D02*
X190838666Y-50645238D01*
X190838666Y-50645238D02*
X190935428Y-50548476D01*
X190935428Y-50548476D02*
X191080571Y-50500095D01*
X191080571Y-50500095D02*
X191177333Y-50500095D01*
X191177333Y-50500095D02*
X191322476Y-50548476D01*
X191322476Y-50548476D02*
X191370857Y-50596857D01*
X192338476Y-51516095D02*
X191757904Y-51516095D01*
X192048190Y-51516095D02*
X192048190Y-50500095D01*
X192048190Y-50500095D02*
X191951428Y-50645238D01*
X191951428Y-50645238D02*
X191854666Y-50742000D01*
X191854666Y-50742000D02*
X191757904Y-50790381D01*
X192677142Y-50500095D02*
X193306095Y-50500095D01*
X193306095Y-50500095D02*
X192967428Y-50887143D01*
X192967428Y-50887143D02*
X193112571Y-50887143D01*
X193112571Y-50887143D02*
X193209333Y-50935524D01*
X193209333Y-50935524D02*
X193257714Y-50983905D01*
X193257714Y-50983905D02*
X193306095Y-51080667D01*
X193306095Y-51080667D02*
X193306095Y-51322572D01*
X193306095Y-51322572D02*
X193257714Y-51419334D01*
X193257714Y-51419334D02*
X193209333Y-51467715D01*
X193209333Y-51467715D02*
X193112571Y-51516095D01*
X193112571Y-51516095D02*
X192822285Y-51516095D01*
X192822285Y-51516095D02*
X192725523Y-51467715D01*
X192725523Y-51467715D02*
X192677142Y-51419334D01*
X175830667Y-51462095D02*
X175492000Y-50978286D01*
X175250095Y-51462095D02*
X175250095Y-50446095D01*
X175250095Y-50446095D02*
X175637143Y-50446095D01*
X175637143Y-50446095D02*
X175733905Y-50494476D01*
X175733905Y-50494476D02*
X175782286Y-50542857D01*
X175782286Y-50542857D02*
X175830667Y-50639619D01*
X175830667Y-50639619D02*
X175830667Y-50784762D01*
X175830667Y-50784762D02*
X175782286Y-50881524D01*
X175782286Y-50881524D02*
X175733905Y-50929905D01*
X175733905Y-50929905D02*
X175637143Y-50978286D01*
X175637143Y-50978286D02*
X175250095Y-50978286D01*
X176169333Y-50446095D02*
X176846667Y-50446095D01*
X176846667Y-50446095D02*
X176411238Y-51462095D01*
X185782857Y-51262095D02*
X185444190Y-50778286D01*
X185202285Y-51262095D02*
X185202285Y-50246095D01*
X185202285Y-50246095D02*
X185589333Y-50246095D01*
X185589333Y-50246095D02*
X185686095Y-50294476D01*
X185686095Y-50294476D02*
X185734476Y-50342857D01*
X185734476Y-50342857D02*
X185782857Y-50439619D01*
X185782857Y-50439619D02*
X185782857Y-50584762D01*
X185782857Y-50584762D02*
X185734476Y-50681524D01*
X185734476Y-50681524D02*
X185686095Y-50729905D01*
X185686095Y-50729905D02*
X185589333Y-50778286D01*
X185589333Y-50778286D02*
X185202285Y-50778286D01*
X186750476Y-51262095D02*
X186169904Y-51262095D01*
X186460190Y-51262095D02*
X186460190Y-50246095D01*
X186460190Y-50246095D02*
X186363428Y-50391238D01*
X186363428Y-50391238D02*
X186266666Y-50488000D01*
X186266666Y-50488000D02*
X186169904Y-50536381D01*
X187137523Y-50342857D02*
X187185904Y-50294476D01*
X187185904Y-50294476D02*
X187282666Y-50246095D01*
X187282666Y-50246095D02*
X187524571Y-50246095D01*
X187524571Y-50246095D02*
X187621333Y-50294476D01*
X187621333Y-50294476D02*
X187669714Y-50342857D01*
X187669714Y-50342857D02*
X187718095Y-50439619D01*
X187718095Y-50439619D02*
X187718095Y-50536381D01*
X187718095Y-50536381D02*
X187669714Y-50681524D01*
X187669714Y-50681524D02*
X187089142Y-51262095D01*
X187089142Y-51262095D02*
X187718095Y-51262095D01*
X195434857Y-54721334D02*
X195386476Y-54769715D01*
X195386476Y-54769715D02*
X195241333Y-54818095D01*
X195241333Y-54818095D02*
X195144571Y-54818095D01*
X195144571Y-54818095D02*
X194999428Y-54769715D01*
X194999428Y-54769715D02*
X194902666Y-54672953D01*
X194902666Y-54672953D02*
X194854285Y-54576191D01*
X194854285Y-54576191D02*
X194805904Y-54382667D01*
X194805904Y-54382667D02*
X194805904Y-54237524D01*
X194805904Y-54237524D02*
X194854285Y-54044000D01*
X194854285Y-54044000D02*
X194902666Y-53947238D01*
X194902666Y-53947238D02*
X194999428Y-53850476D01*
X194999428Y-53850476D02*
X195144571Y-53802095D01*
X195144571Y-53802095D02*
X195241333Y-53802095D01*
X195241333Y-53802095D02*
X195386476Y-53850476D01*
X195386476Y-53850476D02*
X195434857Y-53898857D01*
X195821904Y-53898857D02*
X195870285Y-53850476D01*
X195870285Y-53850476D02*
X195967047Y-53802095D01*
X195967047Y-53802095D02*
X196208952Y-53802095D01*
X196208952Y-53802095D02*
X196305714Y-53850476D01*
X196305714Y-53850476D02*
X196354095Y-53898857D01*
X196354095Y-53898857D02*
X196402476Y-53995619D01*
X196402476Y-53995619D02*
X196402476Y-54092381D01*
X196402476Y-54092381D02*
X196354095Y-54237524D01*
X196354095Y-54237524D02*
X195773523Y-54818095D01*
X195773523Y-54818095D02*
X196402476Y-54818095D01*
X196741142Y-53802095D02*
X197370095Y-53802095D01*
X197370095Y-53802095D02*
X197031428Y-54189143D01*
X197031428Y-54189143D02*
X197176571Y-54189143D01*
X197176571Y-54189143D02*
X197273333Y-54237524D01*
X197273333Y-54237524D02*
X197321714Y-54285905D01*
X197321714Y-54285905D02*
X197370095Y-54382667D01*
X197370095Y-54382667D02*
X197370095Y-54624572D01*
X197370095Y-54624572D02*
X197321714Y-54721334D01*
X197321714Y-54721334D02*
X197273333Y-54769715D01*
X197273333Y-54769715D02*
X197176571Y-54818095D01*
X197176571Y-54818095D02*
X196886285Y-54818095D01*
X196886285Y-54818095D02*
X196789523Y-54769715D01*
X196789523Y-54769715D02*
X196741142Y-54721334D01*
X175830667Y-53462095D02*
X175492000Y-52978286D01*
X175250095Y-53462095D02*
X175250095Y-52446095D01*
X175250095Y-52446095D02*
X175637143Y-52446095D01*
X175637143Y-52446095D02*
X175733905Y-52494476D01*
X175733905Y-52494476D02*
X175782286Y-52542857D01*
X175782286Y-52542857D02*
X175830667Y-52639619D01*
X175830667Y-52639619D02*
X175830667Y-52784762D01*
X175830667Y-52784762D02*
X175782286Y-52881524D01*
X175782286Y-52881524D02*
X175733905Y-52929905D01*
X175733905Y-52929905D02*
X175637143Y-52978286D01*
X175637143Y-52978286D02*
X175250095Y-52978286D01*
X176314476Y-53462095D02*
X176508000Y-53462095D01*
X176508000Y-53462095D02*
X176604762Y-53413715D01*
X176604762Y-53413715D02*
X176653143Y-53365334D01*
X176653143Y-53365334D02*
X176749905Y-53220191D01*
X176749905Y-53220191D02*
X176798286Y-53026667D01*
X176798286Y-53026667D02*
X176798286Y-52639619D01*
X176798286Y-52639619D02*
X176749905Y-52542857D01*
X176749905Y-52542857D02*
X176701524Y-52494476D01*
X176701524Y-52494476D02*
X176604762Y-52446095D01*
X176604762Y-52446095D02*
X176411238Y-52446095D01*
X176411238Y-52446095D02*
X176314476Y-52494476D01*
X176314476Y-52494476D02*
X176266095Y-52542857D01*
X176266095Y-52542857D02*
X176217714Y-52639619D01*
X176217714Y-52639619D02*
X176217714Y-52881524D01*
X176217714Y-52881524D02*
X176266095Y-52978286D01*
X176266095Y-52978286D02*
X176314476Y-53026667D01*
X176314476Y-53026667D02*
X176411238Y-53075048D01*
X176411238Y-53075048D02*
X176604762Y-53075048D01*
X176604762Y-53075048D02*
X176701524Y-53026667D01*
X176701524Y-53026667D02*
X176749905Y-52978286D01*
X176749905Y-52978286D02*
X176798286Y-52881524D01*
X185782857Y-52786095D02*
X185444190Y-52302286D01*
X185202285Y-52786095D02*
X185202285Y-51770095D01*
X185202285Y-51770095D02*
X185589333Y-51770095D01*
X185589333Y-51770095D02*
X185686095Y-51818476D01*
X185686095Y-51818476D02*
X185734476Y-51866857D01*
X185734476Y-51866857D02*
X185782857Y-51963619D01*
X185782857Y-51963619D02*
X185782857Y-52108762D01*
X185782857Y-52108762D02*
X185734476Y-52205524D01*
X185734476Y-52205524D02*
X185686095Y-52253905D01*
X185686095Y-52253905D02*
X185589333Y-52302286D01*
X185589333Y-52302286D02*
X185202285Y-52302286D01*
X186750476Y-52786095D02*
X186169904Y-52786095D01*
X186460190Y-52786095D02*
X186460190Y-51770095D01*
X186460190Y-51770095D02*
X186363428Y-51915238D01*
X186363428Y-51915238D02*
X186266666Y-52012000D01*
X186266666Y-52012000D02*
X186169904Y-52060381D01*
X187089142Y-51770095D02*
X187718095Y-51770095D01*
X187718095Y-51770095D02*
X187379428Y-52157143D01*
X187379428Y-52157143D02*
X187524571Y-52157143D01*
X187524571Y-52157143D02*
X187621333Y-52205524D01*
X187621333Y-52205524D02*
X187669714Y-52253905D01*
X187669714Y-52253905D02*
X187718095Y-52350667D01*
X187718095Y-52350667D02*
X187718095Y-52592572D01*
X187718095Y-52592572D02*
X187669714Y-52689334D01*
X187669714Y-52689334D02*
X187621333Y-52737715D01*
X187621333Y-52737715D02*
X187524571Y-52786095D01*
X187524571Y-52786095D02*
X187234285Y-52786095D01*
X187234285Y-52786095D02*
X187137523Y-52737715D01*
X187137523Y-52737715D02*
X187089142Y-52689334D01*
X167936024Y-51431715D02*
X168081167Y-51480095D01*
X168081167Y-51480095D02*
X168323072Y-51480095D01*
X168323072Y-51480095D02*
X168419834Y-51431715D01*
X168419834Y-51431715D02*
X168468215Y-51383334D01*
X168468215Y-51383334D02*
X168516596Y-51286572D01*
X168516596Y-51286572D02*
X168516596Y-51189810D01*
X168516596Y-51189810D02*
X168468215Y-51093048D01*
X168468215Y-51093048D02*
X168419834Y-51044667D01*
X168419834Y-51044667D02*
X168323072Y-50996286D01*
X168323072Y-50996286D02*
X168129548Y-50947905D01*
X168129548Y-50947905D02*
X168032786Y-50899524D01*
X168032786Y-50899524D02*
X167984405Y-50851143D01*
X167984405Y-50851143D02*
X167936024Y-50754381D01*
X167936024Y-50754381D02*
X167936024Y-50657619D01*
X167936024Y-50657619D02*
X167984405Y-50560857D01*
X167984405Y-50560857D02*
X168032786Y-50512476D01*
X168032786Y-50512476D02*
X168129548Y-50464095D01*
X168129548Y-50464095D02*
X168371453Y-50464095D01*
X168371453Y-50464095D02*
X168516596Y-50512476D01*
X168855262Y-50464095D02*
X169097167Y-51480095D01*
X169097167Y-51480095D02*
X169290691Y-50754381D01*
X169290691Y-50754381D02*
X169484215Y-51480095D01*
X169484215Y-51480095D02*
X169726120Y-50464095D01*
X170645358Y-51480095D02*
X170064786Y-51480095D01*
X170355072Y-51480095D02*
X170355072Y-50464095D01*
X170355072Y-50464095D02*
X170258310Y-50609238D01*
X170258310Y-50609238D02*
X170161548Y-50706000D01*
X170161548Y-50706000D02*
X170064786Y-50754381D01*
X195437334Y-52977142D02*
X195485715Y-53025523D01*
X195485715Y-53025523D02*
X195534095Y-53170666D01*
X195534095Y-53170666D02*
X195534095Y-53267428D01*
X195534095Y-53267428D02*
X195485715Y-53412571D01*
X195485715Y-53412571D02*
X195388953Y-53509333D01*
X195388953Y-53509333D02*
X195292191Y-53557714D01*
X195292191Y-53557714D02*
X195098667Y-53606095D01*
X195098667Y-53606095D02*
X194953524Y-53606095D01*
X194953524Y-53606095D02*
X194760000Y-53557714D01*
X194760000Y-53557714D02*
X194663238Y-53509333D01*
X194663238Y-53509333D02*
X194566476Y-53412571D01*
X194566476Y-53412571D02*
X194518095Y-53267428D01*
X194518095Y-53267428D02*
X194518095Y-53170666D01*
X194518095Y-53170666D02*
X194566476Y-53025523D01*
X194566476Y-53025523D02*
X194614857Y-52977142D01*
X194614857Y-52590095D02*
X194566476Y-52541714D01*
X194566476Y-52541714D02*
X194518095Y-52444952D01*
X194518095Y-52444952D02*
X194518095Y-52203047D01*
X194518095Y-52203047D02*
X194566476Y-52106285D01*
X194566476Y-52106285D02*
X194614857Y-52057904D01*
X194614857Y-52057904D02*
X194711619Y-52009523D01*
X194711619Y-52009523D02*
X194808381Y-52009523D01*
X194808381Y-52009523D02*
X194953524Y-52057904D01*
X194953524Y-52057904D02*
X195534095Y-52638476D01*
X195534095Y-52638476D02*
X195534095Y-52009523D01*
X194614857Y-51622476D02*
X194566476Y-51574095D01*
X194566476Y-51574095D02*
X194518095Y-51477333D01*
X194518095Y-51477333D02*
X194518095Y-51235428D01*
X194518095Y-51235428D02*
X194566476Y-51138666D01*
X194566476Y-51138666D02*
X194614857Y-51090285D01*
X194614857Y-51090285D02*
X194711619Y-51041904D01*
X194711619Y-51041904D02*
X194808381Y-51041904D01*
X194808381Y-51041904D02*
X194953524Y-51090285D01*
X194953524Y-51090285D02*
X195534095Y-51670857D01*
X195534095Y-51670857D02*
X195534095Y-51041904D01*
X190741904Y-52278095D02*
X190741904Y-53100572D01*
X190741904Y-53100572D02*
X190790285Y-53197334D01*
X190790285Y-53197334D02*
X190838666Y-53245715D01*
X190838666Y-53245715D02*
X190935428Y-53294095D01*
X190935428Y-53294095D02*
X191128952Y-53294095D01*
X191128952Y-53294095D02*
X191225714Y-53245715D01*
X191225714Y-53245715D02*
X191274095Y-53197334D01*
X191274095Y-53197334D02*
X191322476Y-53100572D01*
X191322476Y-53100572D02*
X191322476Y-52278095D01*
X191709523Y-52278095D02*
X192386857Y-52278095D01*
X192386857Y-52278095D02*
X191951428Y-53294095D01*
X184004857Y-58023334D02*
X183956476Y-58071715D01*
X183956476Y-58071715D02*
X183811333Y-58120095D01*
X183811333Y-58120095D02*
X183714571Y-58120095D01*
X183714571Y-58120095D02*
X183569428Y-58071715D01*
X183569428Y-58071715D02*
X183472666Y-57974953D01*
X183472666Y-57974953D02*
X183424285Y-57878191D01*
X183424285Y-57878191D02*
X183375904Y-57684667D01*
X183375904Y-57684667D02*
X183375904Y-57539524D01*
X183375904Y-57539524D02*
X183424285Y-57346000D01*
X183424285Y-57346000D02*
X183472666Y-57249238D01*
X183472666Y-57249238D02*
X183569428Y-57152476D01*
X183569428Y-57152476D02*
X183714571Y-57104095D01*
X183714571Y-57104095D02*
X183811333Y-57104095D01*
X183811333Y-57104095D02*
X183956476Y-57152476D01*
X183956476Y-57152476D02*
X184004857Y-57200857D01*
X184391904Y-57200857D02*
X184440285Y-57152476D01*
X184440285Y-57152476D02*
X184537047Y-57104095D01*
X184537047Y-57104095D02*
X184778952Y-57104095D01*
X184778952Y-57104095D02*
X184875714Y-57152476D01*
X184875714Y-57152476D02*
X184924095Y-57200857D01*
X184924095Y-57200857D02*
X184972476Y-57297619D01*
X184972476Y-57297619D02*
X184972476Y-57394381D01*
X184972476Y-57394381D02*
X184924095Y-57539524D01*
X184924095Y-57539524D02*
X184343523Y-58120095D01*
X184343523Y-58120095D02*
X184972476Y-58120095D01*
X185843333Y-57442762D02*
X185843333Y-58120095D01*
X185601428Y-57055715D02*
X185359523Y-57781429D01*
X185359523Y-57781429D02*
X185988476Y-57781429D01*
X176641334Y-57827332D02*
X176689715Y-57875713D01*
X176689715Y-57875713D02*
X176738095Y-58020856D01*
X176738095Y-58020856D02*
X176738095Y-58117618D01*
X176738095Y-58117618D02*
X176689715Y-58262761D01*
X176689715Y-58262761D02*
X176592953Y-58359523D01*
X176592953Y-58359523D02*
X176496191Y-58407904D01*
X176496191Y-58407904D02*
X176302667Y-58456285D01*
X176302667Y-58456285D02*
X176157524Y-58456285D01*
X176157524Y-58456285D02*
X175964000Y-58407904D01*
X175964000Y-58407904D02*
X175867238Y-58359523D01*
X175867238Y-58359523D02*
X175770476Y-58262761D01*
X175770476Y-58262761D02*
X175722095Y-58117618D01*
X175722095Y-58117618D02*
X175722095Y-58020856D01*
X175722095Y-58020856D02*
X175770476Y-57875713D01*
X175770476Y-57875713D02*
X175818857Y-57827332D01*
X176060762Y-56956475D02*
X176738095Y-56956475D01*
X175673715Y-57198380D02*
X176399429Y-57440285D01*
X176399429Y-57440285D02*
X176399429Y-56811332D01*
X178346857Y-57462095D02*
X178008190Y-56978286D01*
X177766285Y-57462095D02*
X177766285Y-56446095D01*
X177766285Y-56446095D02*
X178153333Y-56446095D01*
X178153333Y-56446095D02*
X178250095Y-56494476D01*
X178250095Y-56494476D02*
X178298476Y-56542857D01*
X178298476Y-56542857D02*
X178346857Y-56639619D01*
X178346857Y-56639619D02*
X178346857Y-56784762D01*
X178346857Y-56784762D02*
X178298476Y-56881524D01*
X178298476Y-56881524D02*
X178250095Y-56929905D01*
X178250095Y-56929905D02*
X178153333Y-56978286D01*
X178153333Y-56978286D02*
X177766285Y-56978286D01*
X179314476Y-57462095D02*
X178733904Y-57462095D01*
X179024190Y-57462095D02*
X179024190Y-56446095D01*
X179024190Y-56446095D02*
X178927428Y-56591238D01*
X178927428Y-56591238D02*
X178830666Y-56688000D01*
X178830666Y-56688000D02*
X178733904Y-56736381D01*
X179943428Y-56446095D02*
X180040190Y-56446095D01*
X180040190Y-56446095D02*
X180136952Y-56494476D01*
X180136952Y-56494476D02*
X180185333Y-56542857D01*
X180185333Y-56542857D02*
X180233714Y-56639619D01*
X180233714Y-56639619D02*
X180282095Y-56833143D01*
X180282095Y-56833143D02*
X180282095Y-57075048D01*
X180282095Y-57075048D02*
X180233714Y-57268572D01*
X180233714Y-57268572D02*
X180185333Y-57365334D01*
X180185333Y-57365334D02*
X180136952Y-57413715D01*
X180136952Y-57413715D02*
X180040190Y-57462095D01*
X180040190Y-57462095D02*
X179943428Y-57462095D01*
X179943428Y-57462095D02*
X179846666Y-57413715D01*
X179846666Y-57413715D02*
X179798285Y-57365334D01*
X179798285Y-57365334D02*
X179749904Y-57268572D01*
X179749904Y-57268572D02*
X179701523Y-57075048D01*
X179701523Y-57075048D02*
X179701523Y-56833143D01*
X179701523Y-56833143D02*
X179749904Y-56639619D01*
X179749904Y-56639619D02*
X179798285Y-56542857D01*
X179798285Y-56542857D02*
X179846666Y-56494476D01*
X179846666Y-56494476D02*
X179943428Y-56446095D01*
X182330667Y-56865334D02*
X182282286Y-56913715D01*
X182282286Y-56913715D02*
X182137143Y-56962095D01*
X182137143Y-56962095D02*
X182040381Y-56962095D01*
X182040381Y-56962095D02*
X181895238Y-56913715D01*
X181895238Y-56913715D02*
X181798476Y-56816953D01*
X181798476Y-56816953D02*
X181750095Y-56720191D01*
X181750095Y-56720191D02*
X181701714Y-56526667D01*
X181701714Y-56526667D02*
X181701714Y-56381524D01*
X181701714Y-56381524D02*
X181750095Y-56188000D01*
X181750095Y-56188000D02*
X181798476Y-56091238D01*
X181798476Y-56091238D02*
X181895238Y-55994476D01*
X181895238Y-55994476D02*
X182040381Y-55946095D01*
X182040381Y-55946095D02*
X182137143Y-55946095D01*
X182137143Y-55946095D02*
X182282286Y-55994476D01*
X182282286Y-55994476D02*
X182330667Y-56042857D01*
X183298286Y-56962095D02*
X182717714Y-56962095D01*
X183008000Y-56962095D02*
X183008000Y-55946095D01*
X183008000Y-55946095D02*
X182911238Y-56091238D01*
X182911238Y-56091238D02*
X182814476Y-56188000D01*
X182814476Y-56188000D02*
X182717714Y-56236381D01*
X185504667Y-59801334D02*
X185456286Y-59849715D01*
X185456286Y-59849715D02*
X185311143Y-59898095D01*
X185311143Y-59898095D02*
X185214381Y-59898095D01*
X185214381Y-59898095D02*
X185069238Y-59849715D01*
X185069238Y-59849715D02*
X184972476Y-59752953D01*
X184972476Y-59752953D02*
X184924095Y-59656191D01*
X184924095Y-59656191D02*
X184875714Y-59462667D01*
X184875714Y-59462667D02*
X184875714Y-59317524D01*
X184875714Y-59317524D02*
X184924095Y-59124000D01*
X184924095Y-59124000D02*
X184972476Y-59027238D01*
X184972476Y-59027238D02*
X185069238Y-58930476D01*
X185069238Y-58930476D02*
X185214381Y-58882095D01*
X185214381Y-58882095D02*
X185311143Y-58882095D01*
X185311143Y-58882095D02*
X185456286Y-58930476D01*
X185456286Y-58930476D02*
X185504667Y-58978857D01*
X185843333Y-58882095D02*
X186472286Y-58882095D01*
X186472286Y-58882095D02*
X186133619Y-59269143D01*
X186133619Y-59269143D02*
X186278762Y-59269143D01*
X186278762Y-59269143D02*
X186375524Y-59317524D01*
X186375524Y-59317524D02*
X186423905Y-59365905D01*
X186423905Y-59365905D02*
X186472286Y-59462667D01*
X186472286Y-59462667D02*
X186472286Y-59704572D01*
X186472286Y-59704572D02*
X186423905Y-59801334D01*
X186423905Y-59801334D02*
X186375524Y-59849715D01*
X186375524Y-59849715D02*
X186278762Y-59898095D01*
X186278762Y-59898095D02*
X185988476Y-59898095D01*
X185988476Y-59898095D02*
X185891714Y-59849715D01*
X185891714Y-59849715D02*
X185843333Y-59801334D01*
X192596665Y-60508358D02*
X192548285Y-60459977D01*
X192548285Y-60459977D02*
X192499904Y-60314834D01*
X192499904Y-60314834D02*
X192499904Y-60218072D01*
X192499904Y-60218072D02*
X192548285Y-60072929D01*
X192548285Y-60072929D02*
X192645046Y-59976167D01*
X192645046Y-59976167D02*
X192741808Y-59927786D01*
X192741808Y-59927786D02*
X192935332Y-59879405D01*
X192935332Y-59879405D02*
X193080475Y-59879405D01*
X193080475Y-59879405D02*
X193273999Y-59927786D01*
X193273999Y-59927786D02*
X193370761Y-59976167D01*
X193370761Y-59976167D02*
X193467523Y-60072929D01*
X193467523Y-60072929D02*
X193515904Y-60218072D01*
X193515904Y-60218072D02*
X193515904Y-60314834D01*
X193515904Y-60314834D02*
X193467523Y-60459977D01*
X193467523Y-60459977D02*
X193419142Y-60508358D01*
X193419142Y-60895405D02*
X193467523Y-60943786D01*
X193467523Y-60943786D02*
X193515904Y-61040548D01*
X193515904Y-61040548D02*
X193515904Y-61282453D01*
X193515904Y-61282453D02*
X193467523Y-61379215D01*
X193467523Y-61379215D02*
X193419142Y-61427596D01*
X193419142Y-61427596D02*
X193322380Y-61475977D01*
X193322380Y-61475977D02*
X193225618Y-61475977D01*
X193225618Y-61475977D02*
X193080475Y-61427596D01*
X193080475Y-61427596D02*
X192499904Y-60847024D01*
X192499904Y-60847024D02*
X192499904Y-61475977D01*
X190016190Y-61954286D02*
X190016190Y-62438095D01*
X189677523Y-61422095D02*
X190016190Y-61954286D01*
X190016190Y-61954286D02*
X190354857Y-61422095D01*
X190645142Y-61518857D02*
X190693523Y-61470476D01*
X190693523Y-61470476D02*
X190790285Y-61422095D01*
X190790285Y-61422095D02*
X191032190Y-61422095D01*
X191032190Y-61422095D02*
X191128952Y-61470476D01*
X191128952Y-61470476D02*
X191177333Y-61518857D01*
X191177333Y-61518857D02*
X191225714Y-61615619D01*
X191225714Y-61615619D02*
X191225714Y-61712381D01*
X191225714Y-61712381D02*
X191177333Y-61857524D01*
X191177333Y-61857524D02*
X190596761Y-62438095D01*
X190596761Y-62438095D02*
X191225714Y-62438095D01*
X163515524Y-63200095D02*
X163515524Y-63925810D01*
X163515524Y-63925810D02*
X163467143Y-64070953D01*
X163467143Y-64070953D02*
X163370381Y-64167715D01*
X163370381Y-64167715D02*
X163225238Y-64216095D01*
X163225238Y-64216095D02*
X163128476Y-64216095D01*
X164531524Y-64216095D02*
X163950952Y-64216095D01*
X164241238Y-64216095D02*
X164241238Y-63200095D01*
X164241238Y-63200095D02*
X164144476Y-63345238D01*
X164144476Y-63345238D02*
X164047714Y-63442000D01*
X164047714Y-63442000D02*
X163950952Y-63490381D01*
X164870190Y-63200095D02*
X165499143Y-63200095D01*
X165499143Y-63200095D02*
X165160476Y-63587143D01*
X165160476Y-63587143D02*
X165305619Y-63587143D01*
X165305619Y-63587143D02*
X165402381Y-63635524D01*
X165402381Y-63635524D02*
X165450762Y-63683905D01*
X165450762Y-63683905D02*
X165499143Y-63780667D01*
X165499143Y-63780667D02*
X165499143Y-64022572D01*
X165499143Y-64022572D02*
X165450762Y-64119334D01*
X165450762Y-64119334D02*
X165402381Y-64167715D01*
X165402381Y-64167715D02*
X165305619Y-64216095D01*
X165305619Y-64216095D02*
X165015333Y-64216095D01*
X165015333Y-64216095D02*
X164918571Y-64167715D01*
X164918571Y-64167715D02*
X164870190Y-64119334D01*
X196830667Y-64962095D02*
X196492000Y-64478286D01*
X196250095Y-64962095D02*
X196250095Y-63946095D01*
X196250095Y-63946095D02*
X196637143Y-63946095D01*
X196637143Y-63946095D02*
X196733905Y-63994476D01*
X196733905Y-63994476D02*
X196782286Y-64042857D01*
X196782286Y-64042857D02*
X196830667Y-64139619D01*
X196830667Y-64139619D02*
X196830667Y-64284762D01*
X196830667Y-64284762D02*
X196782286Y-64381524D01*
X196782286Y-64381524D02*
X196733905Y-64429905D01*
X196733905Y-64429905D02*
X196637143Y-64478286D01*
X196637143Y-64478286D02*
X196250095Y-64478286D01*
X197798286Y-64962095D02*
X197217714Y-64962095D01*
X197508000Y-64962095D02*
X197508000Y-63946095D01*
X197508000Y-63946095D02*
X197411238Y-64091238D01*
X197411238Y-64091238D02*
X197314476Y-64188000D01*
X197314476Y-64188000D02*
X197217714Y-64236381D01*
X195059904Y-65994095D02*
X195640476Y-65994095D01*
X195350190Y-67010095D02*
X195350190Y-65994095D01*
X195979142Y-67010095D02*
X195979142Y-65994095D01*
X195979142Y-65994095D02*
X196366190Y-65994095D01*
X196366190Y-65994095D02*
X196462952Y-66042476D01*
X196462952Y-66042476D02*
X196511333Y-66090857D01*
X196511333Y-66090857D02*
X196559714Y-66187619D01*
X196559714Y-66187619D02*
X196559714Y-66332762D01*
X196559714Y-66332762D02*
X196511333Y-66429524D01*
X196511333Y-66429524D02*
X196462952Y-66477905D01*
X196462952Y-66477905D02*
X196366190Y-66526286D01*
X196366190Y-66526286D02*
X195979142Y-66526286D01*
X197430571Y-66332762D02*
X197430571Y-67010095D01*
X197188666Y-65945715D02*
X196946761Y-66671429D01*
X196946761Y-66671429D02*
X197575714Y-66671429D01*
X199220667Y-69453334D02*
X199172286Y-69501715D01*
X199172286Y-69501715D02*
X199027143Y-69550095D01*
X199027143Y-69550095D02*
X198930381Y-69550095D01*
X198930381Y-69550095D02*
X198785238Y-69501715D01*
X198785238Y-69501715D02*
X198688476Y-69404953D01*
X198688476Y-69404953D02*
X198640095Y-69308191D01*
X198640095Y-69308191D02*
X198591714Y-69114667D01*
X198591714Y-69114667D02*
X198591714Y-68969524D01*
X198591714Y-68969524D02*
X198640095Y-68776000D01*
X198640095Y-68776000D02*
X198688476Y-68679238D01*
X198688476Y-68679238D02*
X198785238Y-68582476D01*
X198785238Y-68582476D02*
X198930381Y-68534095D01*
X198930381Y-68534095D02*
X199027143Y-68534095D01*
X199027143Y-68534095D02*
X199172286Y-68582476D01*
X199172286Y-68582476D02*
X199220667Y-68630857D01*
X200091524Y-68534095D02*
X199898000Y-68534095D01*
X199898000Y-68534095D02*
X199801238Y-68582476D01*
X199801238Y-68582476D02*
X199752857Y-68630857D01*
X199752857Y-68630857D02*
X199656095Y-68776000D01*
X199656095Y-68776000D02*
X199607714Y-68969524D01*
X199607714Y-68969524D02*
X199607714Y-69356572D01*
X199607714Y-69356572D02*
X199656095Y-69453334D01*
X199656095Y-69453334D02*
X199704476Y-69501715D01*
X199704476Y-69501715D02*
X199801238Y-69550095D01*
X199801238Y-69550095D02*
X199994762Y-69550095D01*
X199994762Y-69550095D02*
X200091524Y-69501715D01*
X200091524Y-69501715D02*
X200139905Y-69453334D01*
X200139905Y-69453334D02*
X200188286Y-69356572D01*
X200188286Y-69356572D02*
X200188286Y-69114667D01*
X200188286Y-69114667D02*
X200139905Y-69017905D01*
X200139905Y-69017905D02*
X200091524Y-68969524D01*
X200091524Y-68969524D02*
X199994762Y-68921143D01*
X199994762Y-68921143D02*
X199801238Y-68921143D01*
X199801238Y-68921143D02*
X199704476Y-68969524D01*
X199704476Y-68969524D02*
X199656095Y-69017905D01*
X199656095Y-69017905D02*
X199607714Y-69114667D01*
X193248095Y-71132095D02*
X193248095Y-70551523D01*
X194264095Y-70841809D02*
X193248095Y-70841809D01*
X194264095Y-70212857D02*
X193248095Y-70212857D01*
X193248095Y-70212857D02*
X193248095Y-69825809D01*
X193248095Y-69825809D02*
X193296476Y-69729047D01*
X193296476Y-69729047D02*
X193344857Y-69680666D01*
X193344857Y-69680666D02*
X193441619Y-69632285D01*
X193441619Y-69632285D02*
X193586762Y-69632285D01*
X193586762Y-69632285D02*
X193683524Y-69680666D01*
X193683524Y-69680666D02*
X193731905Y-69729047D01*
X193731905Y-69729047D02*
X193780286Y-69825809D01*
X193780286Y-69825809D02*
X193780286Y-70212857D01*
X193248095Y-68713047D02*
X193248095Y-69196857D01*
X193248095Y-69196857D02*
X193731905Y-69245238D01*
X193731905Y-69245238D02*
X193683524Y-69196857D01*
X193683524Y-69196857D02*
X193635143Y-69100095D01*
X193635143Y-69100095D02*
X193635143Y-68858190D01*
X193635143Y-68858190D02*
X193683524Y-68761428D01*
X193683524Y-68761428D02*
X193731905Y-68713047D01*
X193731905Y-68713047D02*
X193828667Y-68664666D01*
X193828667Y-68664666D02*
X194070572Y-68664666D01*
X194070572Y-68664666D02*
X194167334Y-68713047D01*
X194167334Y-68713047D02*
X194215715Y-68761428D01*
X194215715Y-68761428D02*
X194264095Y-68858190D01*
X194264095Y-68858190D02*
X194264095Y-69100095D01*
X194264095Y-69100095D02*
X194215715Y-69196857D01*
X194215715Y-69196857D02*
X194167334Y-69245238D01*
X213946095Y-88105975D02*
X214671810Y-88105975D01*
X214671810Y-88105975D02*
X214816953Y-88154356D01*
X214816953Y-88154356D02*
X214913715Y-88251118D01*
X214913715Y-88251118D02*
X214962095Y-88396261D01*
X214962095Y-88396261D02*
X214962095Y-88493023D01*
X214962095Y-87089975D02*
X214962095Y-87670547D01*
X214962095Y-87380261D02*
X213946095Y-87380261D01*
X213946095Y-87380261D02*
X214091238Y-87477023D01*
X214091238Y-87477023D02*
X214188000Y-87573785D01*
X214188000Y-87573785D02*
X214236381Y-87670547D01*
X214042857Y-86702928D02*
X213994476Y-86654547D01*
X213994476Y-86654547D02*
X213946095Y-86557785D01*
X213946095Y-86557785D02*
X213946095Y-86315880D01*
X213946095Y-86315880D02*
X213994476Y-86219118D01*
X213994476Y-86219118D02*
X214042857Y-86170737D01*
X214042857Y-86170737D02*
X214139619Y-86122356D01*
X214139619Y-86122356D02*
X214236381Y-86122356D01*
X214236381Y-86122356D02*
X214381524Y-86170737D01*
X214381524Y-86170737D02*
X214962095Y-86751309D01*
X214962095Y-86751309D02*
X214962095Y-86122356D01*
X177025904Y-71074095D02*
X177606476Y-71074095D01*
X177316190Y-72090095D02*
X177316190Y-71074095D01*
X177945142Y-72090095D02*
X177945142Y-71074095D01*
X177945142Y-71074095D02*
X178332190Y-71074095D01*
X178332190Y-71074095D02*
X178428952Y-71122476D01*
X178428952Y-71122476D02*
X178477333Y-71170857D01*
X178477333Y-71170857D02*
X178525714Y-71267619D01*
X178525714Y-71267619D02*
X178525714Y-71412762D01*
X178525714Y-71412762D02*
X178477333Y-71509524D01*
X178477333Y-71509524D02*
X178428952Y-71557905D01*
X178428952Y-71557905D02*
X178332190Y-71606286D01*
X178332190Y-71606286D02*
X177945142Y-71606286D01*
X178864380Y-71074095D02*
X179541714Y-71074095D01*
X179541714Y-71074095D02*
X179106285Y-72090095D01*
X203755976Y-69800334D02*
X203707595Y-69848715D01*
X203707595Y-69848715D02*
X203562452Y-69897095D01*
X203562452Y-69897095D02*
X203465690Y-69897095D01*
X203465690Y-69897095D02*
X203320547Y-69848715D01*
X203320547Y-69848715D02*
X203223785Y-69751953D01*
X203223785Y-69751953D02*
X203175404Y-69655191D01*
X203175404Y-69655191D02*
X203127023Y-69461667D01*
X203127023Y-69461667D02*
X203127023Y-69316524D01*
X203127023Y-69316524D02*
X203175404Y-69123000D01*
X203175404Y-69123000D02*
X203223785Y-69026238D01*
X203223785Y-69026238D02*
X203320547Y-68929476D01*
X203320547Y-68929476D02*
X203465690Y-68881095D01*
X203465690Y-68881095D02*
X203562452Y-68881095D01*
X203562452Y-68881095D02*
X203707595Y-68929476D01*
X203707595Y-68929476D02*
X203755976Y-68977857D01*
X204094642Y-68881095D02*
X204771976Y-68881095D01*
X204771976Y-68881095D02*
X204336547Y-69897095D01*
X191503904Y-73614095D02*
X192084476Y-73614095D01*
X191794190Y-74630095D02*
X191794190Y-73614095D01*
X192423142Y-74630095D02*
X192423142Y-73614095D01*
X192423142Y-73614095D02*
X192810190Y-73614095D01*
X192810190Y-73614095D02*
X192906952Y-73662476D01*
X192906952Y-73662476D02*
X192955333Y-73710857D01*
X192955333Y-73710857D02*
X193003714Y-73807619D01*
X193003714Y-73807619D02*
X193003714Y-73952762D01*
X193003714Y-73952762D02*
X192955333Y-74049524D01*
X192955333Y-74049524D02*
X192906952Y-74097905D01*
X192906952Y-74097905D02*
X192810190Y-74146286D01*
X192810190Y-74146286D02*
X192423142Y-74146286D01*
X193971333Y-74630095D02*
X193390761Y-74630095D01*
X193681047Y-74630095D02*
X193681047Y-73614095D01*
X193681047Y-73614095D02*
X193584285Y-73759238D01*
X193584285Y-73759238D02*
X193487523Y-73856000D01*
X193487523Y-73856000D02*
X193390761Y-73904381D01*
X199377904Y-70566095D02*
X199377904Y-71388572D01*
X199377904Y-71388572D02*
X199426285Y-71485334D01*
X199426285Y-71485334D02*
X199474666Y-71533715D01*
X199474666Y-71533715D02*
X199571428Y-71582095D01*
X199571428Y-71582095D02*
X199764952Y-71582095D01*
X199764952Y-71582095D02*
X199861714Y-71533715D01*
X199861714Y-71533715D02*
X199910095Y-71485334D01*
X199910095Y-71485334D02*
X199958476Y-71388572D01*
X199958476Y-71388572D02*
X199958476Y-70566095D01*
X200393904Y-70662857D02*
X200442285Y-70614476D01*
X200442285Y-70614476D02*
X200539047Y-70566095D01*
X200539047Y-70566095D02*
X200780952Y-70566095D01*
X200780952Y-70566095D02*
X200877714Y-70614476D01*
X200877714Y-70614476D02*
X200926095Y-70662857D01*
X200926095Y-70662857D02*
X200974476Y-70759619D01*
X200974476Y-70759619D02*
X200974476Y-70856381D01*
X200974476Y-70856381D02*
X200926095Y-71001524D01*
X200926095Y-71001524D02*
X200345523Y-71582095D01*
X200345523Y-71582095D02*
X200974476Y-71582095D01*
X167330143Y-71414642D02*
X167378524Y-71463023D01*
X167378524Y-71463023D02*
X167426904Y-71608166D01*
X167426904Y-71608166D02*
X167426904Y-71704928D01*
X167426904Y-71704928D02*
X167378524Y-71850071D01*
X167378524Y-71850071D02*
X167281762Y-71946833D01*
X167281762Y-71946833D02*
X167185000Y-71995214D01*
X167185000Y-71995214D02*
X166991476Y-72043595D01*
X166991476Y-72043595D02*
X166846333Y-72043595D01*
X166846333Y-72043595D02*
X166652809Y-71995214D01*
X166652809Y-71995214D02*
X166556047Y-71946833D01*
X166556047Y-71946833D02*
X166459285Y-71850071D01*
X166459285Y-71850071D02*
X166410904Y-71704928D01*
X166410904Y-71704928D02*
X166410904Y-71608166D01*
X166410904Y-71608166D02*
X166459285Y-71463023D01*
X166459285Y-71463023D02*
X166507666Y-71414642D01*
X167426904Y-70447023D02*
X167426904Y-71027595D01*
X167426904Y-70737309D02*
X166410904Y-70737309D01*
X166410904Y-70737309D02*
X166556047Y-70834071D01*
X166556047Y-70834071D02*
X166652809Y-70930833D01*
X166652809Y-70930833D02*
X166701190Y-71027595D01*
X166749571Y-69576166D02*
X167426904Y-69576166D01*
X166362524Y-69818071D02*
X167088238Y-70059976D01*
X167088238Y-70059976D02*
X167088238Y-69431023D01*
X165552143Y-71579142D02*
X165600524Y-71627523D01*
X165600524Y-71627523D02*
X165648904Y-71772666D01*
X165648904Y-71772666D02*
X165648904Y-71869428D01*
X165648904Y-71869428D02*
X165600524Y-72014571D01*
X165600524Y-72014571D02*
X165503762Y-72111333D01*
X165503762Y-72111333D02*
X165407000Y-72159714D01*
X165407000Y-72159714D02*
X165213476Y-72208095D01*
X165213476Y-72208095D02*
X165068333Y-72208095D01*
X165068333Y-72208095D02*
X164874809Y-72159714D01*
X164874809Y-72159714D02*
X164778047Y-72111333D01*
X164778047Y-72111333D02*
X164681285Y-72014571D01*
X164681285Y-72014571D02*
X164632904Y-71869428D01*
X164632904Y-71869428D02*
X164632904Y-71772666D01*
X164632904Y-71772666D02*
X164681285Y-71627523D01*
X164681285Y-71627523D02*
X164729666Y-71579142D01*
X165648904Y-70611523D02*
X165648904Y-71192095D01*
X165648904Y-70901809D02*
X164632904Y-70901809D01*
X164632904Y-70901809D02*
X164778047Y-70998571D01*
X164778047Y-70998571D02*
X164874809Y-71095333D01*
X164874809Y-71095333D02*
X164923190Y-71192095D01*
X164632904Y-69982571D02*
X164632904Y-69885809D01*
X164632904Y-69885809D02*
X164681285Y-69789047D01*
X164681285Y-69789047D02*
X164729666Y-69740666D01*
X164729666Y-69740666D02*
X164826428Y-69692285D01*
X164826428Y-69692285D02*
X165019952Y-69643904D01*
X165019952Y-69643904D02*
X165261857Y-69643904D01*
X165261857Y-69643904D02*
X165455381Y-69692285D01*
X165455381Y-69692285D02*
X165552143Y-69740666D01*
X165552143Y-69740666D02*
X165600524Y-69789047D01*
X165600524Y-69789047D02*
X165648904Y-69885809D01*
X165648904Y-69885809D02*
X165648904Y-69982571D01*
X165648904Y-69982571D02*
X165600524Y-70079333D01*
X165600524Y-70079333D02*
X165552143Y-70127714D01*
X165552143Y-70127714D02*
X165455381Y-70176095D01*
X165455381Y-70176095D02*
X165261857Y-70224476D01*
X165261857Y-70224476D02*
X165019952Y-70224476D01*
X165019952Y-70224476D02*
X164826428Y-70176095D01*
X164826428Y-70176095D02*
X164729666Y-70127714D01*
X164729666Y-70127714D02*
X164681285Y-70079333D01*
X164681285Y-70079333D02*
X164632904Y-69982571D01*
X169108143Y-71668642D02*
X169156524Y-71717023D01*
X169156524Y-71717023D02*
X169204904Y-71862166D01*
X169204904Y-71862166D02*
X169204904Y-71958928D01*
X169204904Y-71958928D02*
X169156524Y-72104071D01*
X169156524Y-72104071D02*
X169059762Y-72200833D01*
X169059762Y-72200833D02*
X168963000Y-72249214D01*
X168963000Y-72249214D02*
X168769476Y-72297595D01*
X168769476Y-72297595D02*
X168624333Y-72297595D01*
X168624333Y-72297595D02*
X168430809Y-72249214D01*
X168430809Y-72249214D02*
X168334047Y-72200833D01*
X168334047Y-72200833D02*
X168237285Y-72104071D01*
X168237285Y-72104071D02*
X168188904Y-71958928D01*
X168188904Y-71958928D02*
X168188904Y-71862166D01*
X168188904Y-71862166D02*
X168237285Y-71717023D01*
X168237285Y-71717023D02*
X168285666Y-71668642D01*
X168285666Y-71281595D02*
X168237285Y-71233214D01*
X168237285Y-71233214D02*
X168188904Y-71136452D01*
X168188904Y-71136452D02*
X168188904Y-70894547D01*
X168188904Y-70894547D02*
X168237285Y-70797785D01*
X168237285Y-70797785D02*
X168285666Y-70749404D01*
X168285666Y-70749404D02*
X168382428Y-70701023D01*
X168382428Y-70701023D02*
X168479190Y-70701023D01*
X168479190Y-70701023D02*
X168624333Y-70749404D01*
X168624333Y-70749404D02*
X169204904Y-71329976D01*
X169204904Y-71329976D02*
X169204904Y-70701023D01*
X168188904Y-69830166D02*
X168188904Y-70023690D01*
X168188904Y-70023690D02*
X168237285Y-70120452D01*
X168237285Y-70120452D02*
X168285666Y-70168833D01*
X168285666Y-70168833D02*
X168430809Y-70265595D01*
X168430809Y-70265595D02*
X168624333Y-70313976D01*
X168624333Y-70313976D02*
X169011381Y-70313976D01*
X169011381Y-70313976D02*
X169108143Y-70265595D01*
X169108143Y-70265595D02*
X169156524Y-70217214D01*
X169156524Y-70217214D02*
X169204904Y-70120452D01*
X169204904Y-70120452D02*
X169204904Y-69926928D01*
X169204904Y-69926928D02*
X169156524Y-69830166D01*
X169156524Y-69830166D02*
X169108143Y-69781785D01*
X169108143Y-69781785D02*
X169011381Y-69733404D01*
X169011381Y-69733404D02*
X168769476Y-69733404D01*
X168769476Y-69733404D02*
X168672714Y-69781785D01*
X168672714Y-69781785D02*
X168624333Y-69830166D01*
X168624333Y-69830166D02*
X168575952Y-69926928D01*
X168575952Y-69926928D02*
X168575952Y-70120452D01*
X168575952Y-70120452D02*
X168624333Y-70217214D01*
X168624333Y-70217214D02*
X168672714Y-70265595D01*
X168672714Y-70265595D02*
X168769476Y-70313976D01*
X177630667Y-74279334D02*
X177582286Y-74327715D01*
X177582286Y-74327715D02*
X177437143Y-74376095D01*
X177437143Y-74376095D02*
X177340381Y-74376095D01*
X177340381Y-74376095D02*
X177195238Y-74327715D01*
X177195238Y-74327715D02*
X177098476Y-74230953D01*
X177098476Y-74230953D02*
X177050095Y-74134191D01*
X177050095Y-74134191D02*
X177001714Y-73940667D01*
X177001714Y-73940667D02*
X177001714Y-73795524D01*
X177001714Y-73795524D02*
X177050095Y-73602000D01*
X177050095Y-73602000D02*
X177098476Y-73505238D01*
X177098476Y-73505238D02*
X177195238Y-73408476D01*
X177195238Y-73408476D02*
X177340381Y-73360095D01*
X177340381Y-73360095D02*
X177437143Y-73360095D01*
X177437143Y-73360095D02*
X177582286Y-73408476D01*
X177582286Y-73408476D02*
X177630667Y-73456857D01*
X178211238Y-73795524D02*
X178114476Y-73747143D01*
X178114476Y-73747143D02*
X178066095Y-73698762D01*
X178066095Y-73698762D02*
X178017714Y-73602000D01*
X178017714Y-73602000D02*
X178017714Y-73553619D01*
X178017714Y-73553619D02*
X178066095Y-73456857D01*
X178066095Y-73456857D02*
X178114476Y-73408476D01*
X178114476Y-73408476D02*
X178211238Y-73360095D01*
X178211238Y-73360095D02*
X178404762Y-73360095D01*
X178404762Y-73360095D02*
X178501524Y-73408476D01*
X178501524Y-73408476D02*
X178549905Y-73456857D01*
X178549905Y-73456857D02*
X178598286Y-73553619D01*
X178598286Y-73553619D02*
X178598286Y-73602000D01*
X178598286Y-73602000D02*
X178549905Y-73698762D01*
X178549905Y-73698762D02*
X178501524Y-73747143D01*
X178501524Y-73747143D02*
X178404762Y-73795524D01*
X178404762Y-73795524D02*
X178211238Y-73795524D01*
X178211238Y-73795524D02*
X178114476Y-73843905D01*
X178114476Y-73843905D02*
X178066095Y-73892286D01*
X178066095Y-73892286D02*
X178017714Y-73989048D01*
X178017714Y-73989048D02*
X178017714Y-74182572D01*
X178017714Y-74182572D02*
X178066095Y-74279334D01*
X178066095Y-74279334D02*
X178114476Y-74327715D01*
X178114476Y-74327715D02*
X178211238Y-74376095D01*
X178211238Y-74376095D02*
X178404762Y-74376095D01*
X178404762Y-74376095D02*
X178501524Y-74327715D01*
X178501524Y-74327715D02*
X178549905Y-74279334D01*
X178549905Y-74279334D02*
X178598286Y-74182572D01*
X178598286Y-74182572D02*
X178598286Y-73989048D01*
X178598286Y-73989048D02*
X178549905Y-73892286D01*
X178549905Y-73892286D02*
X178501524Y-73843905D01*
X178501524Y-73843905D02*
X178404762Y-73795524D01*
X205962095Y-80436642D02*
X205478286Y-80775309D01*
X205962095Y-81017214D02*
X204946095Y-81017214D01*
X204946095Y-81017214D02*
X204946095Y-80630166D01*
X204946095Y-80630166D02*
X204994476Y-80533404D01*
X204994476Y-80533404D02*
X205042857Y-80485023D01*
X205042857Y-80485023D02*
X205139619Y-80436642D01*
X205139619Y-80436642D02*
X205284762Y-80436642D01*
X205284762Y-80436642D02*
X205381524Y-80485023D01*
X205381524Y-80485023D02*
X205429905Y-80533404D01*
X205429905Y-80533404D02*
X205478286Y-80630166D01*
X205478286Y-80630166D02*
X205478286Y-81017214D01*
X205962095Y-79469023D02*
X205962095Y-80049595D01*
X205962095Y-79759309D02*
X204946095Y-79759309D01*
X204946095Y-79759309D02*
X205091238Y-79856071D01*
X205091238Y-79856071D02*
X205188000Y-79952833D01*
X205188000Y-79952833D02*
X205236381Y-80049595D01*
X205962095Y-78501404D02*
X205962095Y-79081976D01*
X205962095Y-78791690D02*
X204946095Y-78791690D01*
X204946095Y-78791690D02*
X205091238Y-78888452D01*
X205091238Y-78888452D02*
X205188000Y-78985214D01*
X205188000Y-78985214D02*
X205236381Y-79081976D01*
X192773904Y-75392095D02*
X193354476Y-75392095D01*
X193064190Y-76408095D02*
X193064190Y-75392095D01*
X193693142Y-76408095D02*
X193693142Y-75392095D01*
X193693142Y-75392095D02*
X194080190Y-75392095D01*
X194080190Y-75392095D02*
X194176952Y-75440476D01*
X194176952Y-75440476D02*
X194225333Y-75488857D01*
X194225333Y-75488857D02*
X194273714Y-75585619D01*
X194273714Y-75585619D02*
X194273714Y-75730762D01*
X194273714Y-75730762D02*
X194225333Y-75827524D01*
X194225333Y-75827524D02*
X194176952Y-75875905D01*
X194176952Y-75875905D02*
X194080190Y-75924286D01*
X194080190Y-75924286D02*
X193693142Y-75924286D01*
X194660761Y-75488857D02*
X194709142Y-75440476D01*
X194709142Y-75440476D02*
X194805904Y-75392095D01*
X194805904Y-75392095D02*
X195047809Y-75392095D01*
X195047809Y-75392095D02*
X195144571Y-75440476D01*
X195144571Y-75440476D02*
X195192952Y-75488857D01*
X195192952Y-75488857D02*
X195241333Y-75585619D01*
X195241333Y-75585619D02*
X195241333Y-75682381D01*
X195241333Y-75682381D02*
X195192952Y-75827524D01*
X195192952Y-75827524D02*
X194612380Y-76408095D01*
X194612380Y-76408095D02*
X195241333Y-76408095D01*
X182950094Y-76877333D02*
X182950094Y-76538666D01*
X182417904Y-76538666D02*
X183433904Y-76538666D01*
X183433904Y-76538666D02*
X183433904Y-77022476D01*
X182950094Y-77748190D02*
X182901713Y-77893333D01*
X182901713Y-77893333D02*
X182853332Y-77941714D01*
X182853332Y-77941714D02*
X182756570Y-77990095D01*
X182756570Y-77990095D02*
X182611427Y-77990095D01*
X182611427Y-77990095D02*
X182514665Y-77941714D01*
X182514665Y-77941714D02*
X182466285Y-77893333D01*
X182466285Y-77893333D02*
X182417904Y-77796571D01*
X182417904Y-77796571D02*
X182417904Y-77409523D01*
X182417904Y-77409523D02*
X183433904Y-77409523D01*
X183433904Y-77409523D02*
X183433904Y-77748190D01*
X183433904Y-77748190D02*
X183385523Y-77844952D01*
X183385523Y-77844952D02*
X183337142Y-77893333D01*
X183337142Y-77893333D02*
X183240380Y-77941714D01*
X183240380Y-77941714D02*
X183143618Y-77941714D01*
X183143618Y-77941714D02*
X183046856Y-77893333D01*
X183046856Y-77893333D02*
X182998475Y-77844952D01*
X182998475Y-77844952D02*
X182950094Y-77748190D01*
X182950094Y-77748190D02*
X182950094Y-77409523D01*
X183337142Y-78377142D02*
X183385523Y-78425523D01*
X183385523Y-78425523D02*
X183433904Y-78522285D01*
X183433904Y-78522285D02*
X183433904Y-78764190D01*
X183433904Y-78764190D02*
X183385523Y-78860952D01*
X183385523Y-78860952D02*
X183337142Y-78909333D01*
X183337142Y-78909333D02*
X183240380Y-78957714D01*
X183240380Y-78957714D02*
X183143618Y-78957714D01*
X183143618Y-78957714D02*
X182998475Y-78909333D01*
X182998475Y-78909333D02*
X182417904Y-78328761D01*
X182417904Y-78328761D02*
X182417904Y-78957714D01*
X172707904Y-88092095D02*
X172707904Y-88914572D01*
X172707904Y-88914572D02*
X172756285Y-89011334D01*
X172756285Y-89011334D02*
X172804666Y-89059715D01*
X172804666Y-89059715D02*
X172901428Y-89108095D01*
X172901428Y-89108095D02*
X173094952Y-89108095D01*
X173094952Y-89108095D02*
X173191714Y-89059715D01*
X173191714Y-89059715D02*
X173240095Y-89011334D01*
X173240095Y-89011334D02*
X173288476Y-88914572D01*
X173288476Y-88914572D02*
X173288476Y-88092095D01*
X174256095Y-88092095D02*
X173772285Y-88092095D01*
X173772285Y-88092095D02*
X173723904Y-88575905D01*
X173723904Y-88575905D02*
X173772285Y-88527524D01*
X173772285Y-88527524D02*
X173869047Y-88479143D01*
X173869047Y-88479143D02*
X174110952Y-88479143D01*
X174110952Y-88479143D02*
X174207714Y-88527524D01*
X174207714Y-88527524D02*
X174256095Y-88575905D01*
X174256095Y-88575905D02*
X174304476Y-88672667D01*
X174304476Y-88672667D02*
X174304476Y-88914572D01*
X174304476Y-88914572D02*
X174256095Y-89011334D01*
X174256095Y-89011334D02*
X174207714Y-89059715D01*
X174207714Y-89059715D02*
X174110952Y-89108095D01*
X174110952Y-89108095D02*
X173869047Y-89108095D01*
X173869047Y-89108095D02*
X173772285Y-89059715D01*
X173772285Y-89059715D02*
X173723904Y-89011334D01*
X162898667Y-80121334D02*
X162850286Y-80169715D01*
X162850286Y-80169715D02*
X162705143Y-80218095D01*
X162705143Y-80218095D02*
X162608381Y-80218095D01*
X162608381Y-80218095D02*
X162463238Y-80169715D01*
X162463238Y-80169715D02*
X162366476Y-80072953D01*
X162366476Y-80072953D02*
X162318095Y-79976191D01*
X162318095Y-79976191D02*
X162269714Y-79782667D01*
X162269714Y-79782667D02*
X162269714Y-79637524D01*
X162269714Y-79637524D02*
X162318095Y-79444000D01*
X162318095Y-79444000D02*
X162366476Y-79347238D01*
X162366476Y-79347238D02*
X162463238Y-79250476D01*
X162463238Y-79250476D02*
X162608381Y-79202095D01*
X162608381Y-79202095D02*
X162705143Y-79202095D01*
X162705143Y-79202095D02*
X162850286Y-79250476D01*
X162850286Y-79250476D02*
X162898667Y-79298857D01*
X163817905Y-79202095D02*
X163334095Y-79202095D01*
X163334095Y-79202095D02*
X163285714Y-79685905D01*
X163285714Y-79685905D02*
X163334095Y-79637524D01*
X163334095Y-79637524D02*
X163430857Y-79589143D01*
X163430857Y-79589143D02*
X163672762Y-79589143D01*
X163672762Y-79589143D02*
X163769524Y-79637524D01*
X163769524Y-79637524D02*
X163817905Y-79685905D01*
X163817905Y-79685905D02*
X163866286Y-79782667D01*
X163866286Y-79782667D02*
X163866286Y-80024572D01*
X163866286Y-80024572D02*
X163817905Y-80121334D01*
X163817905Y-80121334D02*
X163769524Y-80169715D01*
X163769524Y-80169715D02*
X163672762Y-80218095D01*
X163672762Y-80218095D02*
X163430857Y-80218095D01*
X163430857Y-80218095D02*
X163334095Y-80169715D01*
X163334095Y-80169715D02*
X163285714Y-80121334D01*
X162925334Y-83227332D02*
X162973715Y-83275713D01*
X162973715Y-83275713D02*
X163022095Y-83420856D01*
X163022095Y-83420856D02*
X163022095Y-83517618D01*
X163022095Y-83517618D02*
X162973715Y-83662761D01*
X162973715Y-83662761D02*
X162876953Y-83759523D01*
X162876953Y-83759523D02*
X162780191Y-83807904D01*
X162780191Y-83807904D02*
X162586667Y-83856285D01*
X162586667Y-83856285D02*
X162441524Y-83856285D01*
X162441524Y-83856285D02*
X162248000Y-83807904D01*
X162248000Y-83807904D02*
X162151238Y-83759523D01*
X162151238Y-83759523D02*
X162054476Y-83662761D01*
X162054476Y-83662761D02*
X162006095Y-83517618D01*
X162006095Y-83517618D02*
X162006095Y-83420856D01*
X162006095Y-83420856D02*
X162054476Y-83275713D01*
X162054476Y-83275713D02*
X162102857Y-83227332D01*
X163022095Y-82743523D02*
X163022095Y-82549999D01*
X163022095Y-82549999D02*
X162973715Y-82453237D01*
X162973715Y-82453237D02*
X162925334Y-82404856D01*
X162925334Y-82404856D02*
X162780191Y-82308094D01*
X162780191Y-82308094D02*
X162586667Y-82259713D01*
X162586667Y-82259713D02*
X162199619Y-82259713D01*
X162199619Y-82259713D02*
X162102857Y-82308094D01*
X162102857Y-82308094D02*
X162054476Y-82356475D01*
X162054476Y-82356475D02*
X162006095Y-82453237D01*
X162006095Y-82453237D02*
X162006095Y-82646761D01*
X162006095Y-82646761D02*
X162054476Y-82743523D01*
X162054476Y-82743523D02*
X162102857Y-82791904D01*
X162102857Y-82791904D02*
X162199619Y-82840285D01*
X162199619Y-82840285D02*
X162441524Y-82840285D01*
X162441524Y-82840285D02*
X162538286Y-82791904D01*
X162538286Y-82791904D02*
X162586667Y-82743523D01*
X162586667Y-82743523D02*
X162635048Y-82646761D01*
X162635048Y-82646761D02*
X162635048Y-82453237D01*
X162635048Y-82453237D02*
X162586667Y-82356475D01*
X162586667Y-82356475D02*
X162538286Y-82308094D01*
X162538286Y-82308094D02*
X162441524Y-82259713D01*
X203030667Y-84282095D02*
X202692000Y-83798286D01*
X202450095Y-84282095D02*
X202450095Y-83266095D01*
X202450095Y-83266095D02*
X202837143Y-83266095D01*
X202837143Y-83266095D02*
X202933905Y-83314476D01*
X202933905Y-83314476D02*
X202982286Y-83362857D01*
X202982286Y-83362857D02*
X203030667Y-83459619D01*
X203030667Y-83459619D02*
X203030667Y-83604762D01*
X203030667Y-83604762D02*
X202982286Y-83701524D01*
X202982286Y-83701524D02*
X202933905Y-83749905D01*
X202933905Y-83749905D02*
X202837143Y-83798286D01*
X202837143Y-83798286D02*
X202450095Y-83798286D01*
X203369333Y-83266095D02*
X203998286Y-83266095D01*
X203998286Y-83266095D02*
X203659619Y-83653143D01*
X203659619Y-83653143D02*
X203804762Y-83653143D01*
X203804762Y-83653143D02*
X203901524Y-83701524D01*
X203901524Y-83701524D02*
X203949905Y-83749905D01*
X203949905Y-83749905D02*
X203998286Y-83846667D01*
X203998286Y-83846667D02*
X203998286Y-84088572D01*
X203998286Y-84088572D02*
X203949905Y-84185334D01*
X203949905Y-84185334D02*
X203901524Y-84233715D01*
X203901524Y-84233715D02*
X203804762Y-84282095D01*
X203804762Y-84282095D02*
X203514476Y-84282095D01*
X203514476Y-84282095D02*
X203417714Y-84233715D01*
X203417714Y-84233715D02*
X203369333Y-84185334D01*
X196450857Y-85455334D02*
X196402476Y-85503715D01*
X196402476Y-85503715D02*
X196257333Y-85552095D01*
X196257333Y-85552095D02*
X196160571Y-85552095D01*
X196160571Y-85552095D02*
X196015428Y-85503715D01*
X196015428Y-85503715D02*
X195918666Y-85406953D01*
X195918666Y-85406953D02*
X195870285Y-85310191D01*
X195870285Y-85310191D02*
X195821904Y-85116667D01*
X195821904Y-85116667D02*
X195821904Y-84971524D01*
X195821904Y-84971524D02*
X195870285Y-84778000D01*
X195870285Y-84778000D02*
X195918666Y-84681238D01*
X195918666Y-84681238D02*
X196015428Y-84584476D01*
X196015428Y-84584476D02*
X196160571Y-84536095D01*
X196160571Y-84536095D02*
X196257333Y-84536095D01*
X196257333Y-84536095D02*
X196402476Y-84584476D01*
X196402476Y-84584476D02*
X196450857Y-84632857D01*
X197418476Y-85552095D02*
X196837904Y-85552095D01*
X197128190Y-85552095D02*
X197128190Y-84536095D01*
X197128190Y-84536095D02*
X197031428Y-84681238D01*
X197031428Y-84681238D02*
X196934666Y-84778000D01*
X196934666Y-84778000D02*
X196837904Y-84826381D01*
X197757142Y-84536095D02*
X198434476Y-84536095D01*
X198434476Y-84536095D02*
X197999047Y-85552095D01*
X162922857Y-89519334D02*
X162874476Y-89567715D01*
X162874476Y-89567715D02*
X162729333Y-89616095D01*
X162729333Y-89616095D02*
X162632571Y-89616095D01*
X162632571Y-89616095D02*
X162487428Y-89567715D01*
X162487428Y-89567715D02*
X162390666Y-89470953D01*
X162390666Y-89470953D02*
X162342285Y-89374191D01*
X162342285Y-89374191D02*
X162293904Y-89180667D01*
X162293904Y-89180667D02*
X162293904Y-89035524D01*
X162293904Y-89035524D02*
X162342285Y-88842000D01*
X162342285Y-88842000D02*
X162390666Y-88745238D01*
X162390666Y-88745238D02*
X162487428Y-88648476D01*
X162487428Y-88648476D02*
X162632571Y-88600095D01*
X162632571Y-88600095D02*
X162729333Y-88600095D01*
X162729333Y-88600095D02*
X162874476Y-88648476D01*
X162874476Y-88648476D02*
X162922857Y-88696857D01*
X163890476Y-89616095D02*
X163309904Y-89616095D01*
X163600190Y-89616095D02*
X163600190Y-88600095D01*
X163600190Y-88600095D02*
X163503428Y-88745238D01*
X163503428Y-88745238D02*
X163406666Y-88842000D01*
X163406666Y-88842000D02*
X163309904Y-88890381D01*
X164858095Y-89616095D02*
X164277523Y-89616095D01*
X164567809Y-89616095D02*
X164567809Y-88600095D01*
X164567809Y-88600095D02*
X164471047Y-88745238D01*
X164471047Y-88745238D02*
X164374285Y-88842000D01*
X164374285Y-88842000D02*
X164277523Y-88890381D01*
X196934667Y-89616095D02*
X196450857Y-89616095D01*
X196450857Y-89616095D02*
X196450857Y-88600095D01*
X197224952Y-88696857D02*
X197273333Y-88648476D01*
X197273333Y-88648476D02*
X197370095Y-88600095D01*
X197370095Y-88600095D02*
X197612000Y-88600095D01*
X197612000Y-88600095D02*
X197708762Y-88648476D01*
X197708762Y-88648476D02*
X197757143Y-88696857D01*
X197757143Y-88696857D02*
X197805524Y-88793619D01*
X197805524Y-88793619D02*
X197805524Y-88890381D01*
X197805524Y-88890381D02*
X197757143Y-89035524D01*
X197757143Y-89035524D02*
X197176571Y-89616095D01*
X197176571Y-89616095D02*
X197805524Y-89616095D01*
X207883334Y-97681142D02*
X207931715Y-97729523D01*
X207931715Y-97729523D02*
X207980095Y-97874666D01*
X207980095Y-97874666D02*
X207980095Y-97971428D01*
X207980095Y-97971428D02*
X207931715Y-98116571D01*
X207931715Y-98116571D02*
X207834953Y-98213333D01*
X207834953Y-98213333D02*
X207738191Y-98261714D01*
X207738191Y-98261714D02*
X207544667Y-98310095D01*
X207544667Y-98310095D02*
X207399524Y-98310095D01*
X207399524Y-98310095D02*
X207206000Y-98261714D01*
X207206000Y-98261714D02*
X207109238Y-98213333D01*
X207109238Y-98213333D02*
X207012476Y-98116571D01*
X207012476Y-98116571D02*
X206964095Y-97971428D01*
X206964095Y-97971428D02*
X206964095Y-97874666D01*
X206964095Y-97874666D02*
X207012476Y-97729523D01*
X207012476Y-97729523D02*
X207060857Y-97681142D01*
X207980095Y-96713523D02*
X207980095Y-97294095D01*
X207980095Y-97003809D02*
X206964095Y-97003809D01*
X206964095Y-97003809D02*
X207109238Y-97100571D01*
X207109238Y-97100571D02*
X207206000Y-97197333D01*
X207206000Y-97197333D02*
X207254381Y-97294095D01*
X206964095Y-95842666D02*
X206964095Y-96036190D01*
X206964095Y-96036190D02*
X207012476Y-96132952D01*
X207012476Y-96132952D02*
X207060857Y-96181333D01*
X207060857Y-96181333D02*
X207206000Y-96278095D01*
X207206000Y-96278095D02*
X207399524Y-96326476D01*
X207399524Y-96326476D02*
X207786572Y-96326476D01*
X207786572Y-96326476D02*
X207883334Y-96278095D01*
X207883334Y-96278095D02*
X207931715Y-96229714D01*
X207931715Y-96229714D02*
X207980095Y-96132952D01*
X207980095Y-96132952D02*
X207980095Y-95939428D01*
X207980095Y-95939428D02*
X207931715Y-95842666D01*
X207931715Y-95842666D02*
X207883334Y-95794285D01*
X207883334Y-95794285D02*
X207786572Y-95745904D01*
X207786572Y-95745904D02*
X207544667Y-95745904D01*
X207544667Y-95745904D02*
X207447905Y-95794285D01*
X207447905Y-95794285D02*
X207399524Y-95842666D01*
X207399524Y-95842666D02*
X207351143Y-95939428D01*
X207351143Y-95939428D02*
X207351143Y-96132952D01*
X207351143Y-96132952D02*
X207399524Y-96229714D01*
X207399524Y-96229714D02*
X207447905Y-96278095D01*
X207447905Y-96278095D02*
X207544667Y-96326476D01*
X166923904Y-97451333D02*
X166198189Y-97451333D01*
X166198189Y-97451333D02*
X166053046Y-97402952D01*
X166053046Y-97402952D02*
X165956285Y-97306190D01*
X165956285Y-97306190D02*
X165907904Y-97161047D01*
X165907904Y-97161047D02*
X165907904Y-97064285D01*
X165907904Y-97983523D02*
X165907904Y-98177047D01*
X165907904Y-98177047D02*
X165956285Y-98273809D01*
X165956285Y-98273809D02*
X166004665Y-98322190D01*
X166004665Y-98322190D02*
X166149808Y-98418952D01*
X166149808Y-98418952D02*
X166343332Y-98467333D01*
X166343332Y-98467333D02*
X166730380Y-98467333D01*
X166730380Y-98467333D02*
X166827142Y-98418952D01*
X166827142Y-98418952D02*
X166875523Y-98370571D01*
X166875523Y-98370571D02*
X166923904Y-98273809D01*
X166923904Y-98273809D02*
X166923904Y-98080285D01*
X166923904Y-98080285D02*
X166875523Y-97983523D01*
X166875523Y-97983523D02*
X166827142Y-97935142D01*
X166827142Y-97935142D02*
X166730380Y-97886761D01*
X166730380Y-97886761D02*
X166488475Y-97886761D01*
X166488475Y-97886761D02*
X166391713Y-97935142D01*
X166391713Y-97935142D02*
X166343332Y-97983523D01*
X166343332Y-97983523D02*
X166294951Y-98080285D01*
X166294951Y-98080285D02*
X166294951Y-98273809D01*
X166294951Y-98273809D02*
X166343332Y-98370571D01*
X166343332Y-98370571D02*
X166391713Y-98418952D01*
X166391713Y-98418952D02*
X166488475Y-98467333D01*
X199885904Y-97236095D02*
X199885904Y-98058572D01*
X199885904Y-98058572D02*
X199934285Y-98155334D01*
X199934285Y-98155334D02*
X199982666Y-98203715D01*
X199982666Y-98203715D02*
X200079428Y-98252095D01*
X200079428Y-98252095D02*
X200272952Y-98252095D01*
X200272952Y-98252095D02*
X200369714Y-98203715D01*
X200369714Y-98203715D02*
X200418095Y-98155334D01*
X200418095Y-98155334D02*
X200466476Y-98058572D01*
X200466476Y-98058572D02*
X200466476Y-97236095D01*
X201385714Y-97236095D02*
X201192190Y-97236095D01*
X201192190Y-97236095D02*
X201095428Y-97284476D01*
X201095428Y-97284476D02*
X201047047Y-97332857D01*
X201047047Y-97332857D02*
X200950285Y-97478000D01*
X200950285Y-97478000D02*
X200901904Y-97671524D01*
X200901904Y-97671524D02*
X200901904Y-98058572D01*
X200901904Y-98058572D02*
X200950285Y-98155334D01*
X200950285Y-98155334D02*
X200998666Y-98203715D01*
X200998666Y-98203715D02*
X201095428Y-98252095D01*
X201095428Y-98252095D02*
X201288952Y-98252095D01*
X201288952Y-98252095D02*
X201385714Y-98203715D01*
X201385714Y-98203715D02*
X201434095Y-98155334D01*
X201434095Y-98155334D02*
X201482476Y-98058572D01*
X201482476Y-98058572D02*
X201482476Y-97816667D01*
X201482476Y-97816667D02*
X201434095Y-97719905D01*
X201434095Y-97719905D02*
X201385714Y-97671524D01*
X201385714Y-97671524D02*
X201288952Y-97623143D01*
X201288952Y-97623143D02*
X201095428Y-97623143D01*
X201095428Y-97623143D02*
X200998666Y-97671524D01*
X200998666Y-97671524D02*
X200950285Y-97719905D01*
X200950285Y-97719905D02*
X200901904Y-97816667D01*
X195918667Y-93426095D02*
X195580000Y-92942286D01*
X195338095Y-93426095D02*
X195338095Y-92410095D01*
X195338095Y-92410095D02*
X195725143Y-92410095D01*
X195725143Y-92410095D02*
X195821905Y-92458476D01*
X195821905Y-92458476D02*
X195870286Y-92506857D01*
X195870286Y-92506857D02*
X195918667Y-92603619D01*
X195918667Y-92603619D02*
X195918667Y-92748762D01*
X195918667Y-92748762D02*
X195870286Y-92845524D01*
X195870286Y-92845524D02*
X195821905Y-92893905D01*
X195821905Y-92893905D02*
X195725143Y-92942286D01*
X195725143Y-92942286D02*
X195338095Y-92942286D01*
X196305714Y-92506857D02*
X196354095Y-92458476D01*
X196354095Y-92458476D02*
X196450857Y-92410095D01*
X196450857Y-92410095D02*
X196692762Y-92410095D01*
X196692762Y-92410095D02*
X196789524Y-92458476D01*
X196789524Y-92458476D02*
X196837905Y-92506857D01*
X196837905Y-92506857D02*
X196886286Y-92603619D01*
X196886286Y-92603619D02*
X196886286Y-92700381D01*
X196886286Y-92700381D02*
X196837905Y-92845524D01*
X196837905Y-92845524D02*
X196257333Y-93426095D01*
X196257333Y-93426095D02*
X196886286Y-93426095D01*
X203418857Y-100187334D02*
X203370476Y-100235715D01*
X203370476Y-100235715D02*
X203225333Y-100284095D01*
X203225333Y-100284095D02*
X203128571Y-100284095D01*
X203128571Y-100284095D02*
X202983428Y-100235715D01*
X202983428Y-100235715D02*
X202886666Y-100138953D01*
X202886666Y-100138953D02*
X202838285Y-100042191D01*
X202838285Y-100042191D02*
X202789904Y-99848667D01*
X202789904Y-99848667D02*
X202789904Y-99703524D01*
X202789904Y-99703524D02*
X202838285Y-99510000D01*
X202838285Y-99510000D02*
X202886666Y-99413238D01*
X202886666Y-99413238D02*
X202983428Y-99316476D01*
X202983428Y-99316476D02*
X203128571Y-99268095D01*
X203128571Y-99268095D02*
X203225333Y-99268095D01*
X203225333Y-99268095D02*
X203370476Y-99316476D01*
X203370476Y-99316476D02*
X203418857Y-99364857D01*
X203805904Y-99364857D02*
X203854285Y-99316476D01*
X203854285Y-99316476D02*
X203951047Y-99268095D01*
X203951047Y-99268095D02*
X204192952Y-99268095D01*
X204192952Y-99268095D02*
X204289714Y-99316476D01*
X204289714Y-99316476D02*
X204338095Y-99364857D01*
X204338095Y-99364857D02*
X204386476Y-99461619D01*
X204386476Y-99461619D02*
X204386476Y-99558381D01*
X204386476Y-99558381D02*
X204338095Y-99703524D01*
X204338095Y-99703524D02*
X203757523Y-100284095D01*
X203757523Y-100284095D02*
X204386476Y-100284095D01*
X204870285Y-100284095D02*
X205063809Y-100284095D01*
X205063809Y-100284095D02*
X205160571Y-100235715D01*
X205160571Y-100235715D02*
X205208952Y-100187334D01*
X205208952Y-100187334D02*
X205305714Y-100042191D01*
X205305714Y-100042191D02*
X205354095Y-99848667D01*
X205354095Y-99848667D02*
X205354095Y-99461619D01*
X205354095Y-99461619D02*
X205305714Y-99364857D01*
X205305714Y-99364857D02*
X205257333Y-99316476D01*
X205257333Y-99316476D02*
X205160571Y-99268095D01*
X205160571Y-99268095D02*
X204967047Y-99268095D01*
X204967047Y-99268095D02*
X204870285Y-99316476D01*
X204870285Y-99316476D02*
X204821904Y-99364857D01*
X204821904Y-99364857D02*
X204773523Y-99461619D01*
X204773523Y-99461619D02*
X204773523Y-99703524D01*
X204773523Y-99703524D02*
X204821904Y-99800286D01*
X204821904Y-99800286D02*
X204870285Y-99848667D01*
X204870285Y-99848667D02*
X204967047Y-99897048D01*
X204967047Y-99897048D02*
X205160571Y-99897048D01*
X205160571Y-99897048D02*
X205257333Y-99848667D01*
X205257333Y-99848667D02*
X205305714Y-99800286D01*
X205305714Y-99800286D02*
X205354095Y-99703524D01*
X193124667Y-122128095D02*
X192786000Y-121644286D01*
X192544095Y-122128095D02*
X192544095Y-121112095D01*
X192544095Y-121112095D02*
X192931143Y-121112095D01*
X192931143Y-121112095D02*
X193027905Y-121160476D01*
X193027905Y-121160476D02*
X193076286Y-121208857D01*
X193076286Y-121208857D02*
X193124667Y-121305619D01*
X193124667Y-121305619D02*
X193124667Y-121450762D01*
X193124667Y-121450762D02*
X193076286Y-121547524D01*
X193076286Y-121547524D02*
X193027905Y-121595905D01*
X193027905Y-121595905D02*
X192931143Y-121644286D01*
X192931143Y-121644286D02*
X192544095Y-121644286D01*
X194043905Y-121112095D02*
X193560095Y-121112095D01*
X193560095Y-121112095D02*
X193511714Y-121595905D01*
X193511714Y-121595905D02*
X193560095Y-121547524D01*
X193560095Y-121547524D02*
X193656857Y-121499143D01*
X193656857Y-121499143D02*
X193898762Y-121499143D01*
X193898762Y-121499143D02*
X193995524Y-121547524D01*
X193995524Y-121547524D02*
X194043905Y-121595905D01*
X194043905Y-121595905D02*
X194092286Y-121692667D01*
X194092286Y-121692667D02*
X194092286Y-121934572D01*
X194092286Y-121934572D02*
X194043905Y-122031334D01*
X194043905Y-122031334D02*
X193995524Y-122079715D01*
X193995524Y-122079715D02*
X193898762Y-122128095D01*
X193898762Y-122128095D02*
X193656857Y-122128095D01*
X193656857Y-122128095D02*
X193560095Y-122079715D01*
X193560095Y-122079715D02*
X193511714Y-122031334D01*
X193124667Y-123906095D02*
X192786000Y-123422286D01*
X192544095Y-123906095D02*
X192544095Y-122890095D01*
X192544095Y-122890095D02*
X192931143Y-122890095D01*
X192931143Y-122890095D02*
X193027905Y-122938476D01*
X193027905Y-122938476D02*
X193076286Y-122986857D01*
X193076286Y-122986857D02*
X193124667Y-123083619D01*
X193124667Y-123083619D02*
X193124667Y-123228762D01*
X193124667Y-123228762D02*
X193076286Y-123325524D01*
X193076286Y-123325524D02*
X193027905Y-123373905D01*
X193027905Y-123373905D02*
X192931143Y-123422286D01*
X192931143Y-123422286D02*
X192544095Y-123422286D01*
X193995524Y-122890095D02*
X193802000Y-122890095D01*
X193802000Y-122890095D02*
X193705238Y-122938476D01*
X193705238Y-122938476D02*
X193656857Y-122986857D01*
X193656857Y-122986857D02*
X193560095Y-123132000D01*
X193560095Y-123132000D02*
X193511714Y-123325524D01*
X193511714Y-123325524D02*
X193511714Y-123712572D01*
X193511714Y-123712572D02*
X193560095Y-123809334D01*
X193560095Y-123809334D02*
X193608476Y-123857715D01*
X193608476Y-123857715D02*
X193705238Y-123906095D01*
X193705238Y-123906095D02*
X193898762Y-123906095D01*
X193898762Y-123906095D02*
X193995524Y-123857715D01*
X193995524Y-123857715D02*
X194043905Y-123809334D01*
X194043905Y-123809334D02*
X194092286Y-123712572D01*
X194092286Y-123712572D02*
X194092286Y-123470667D01*
X194092286Y-123470667D02*
X194043905Y-123373905D01*
X194043905Y-123373905D02*
X193995524Y-123325524D01*
X193995524Y-123325524D02*
X193898762Y-123277143D01*
X193898762Y-123277143D02*
X193705238Y-123277143D01*
X193705238Y-123277143D02*
X193608476Y-123325524D01*
X193608476Y-123325524D02*
X193560095Y-123373905D01*
X193560095Y-123373905D02*
X193511714Y-123470667D01*
X164071904Y-128138095D02*
X164071904Y-127122095D01*
X164071904Y-127605905D02*
X164652476Y-127605905D01*
X164652476Y-128138095D02*
X164652476Y-127122095D01*
X165668476Y-128138095D02*
X165087904Y-128138095D01*
X165378190Y-128138095D02*
X165378190Y-127122095D01*
X165378190Y-127122095D02*
X165281428Y-127267238D01*
X165281428Y-127267238D02*
X165184666Y-127364000D01*
X165184666Y-127364000D02*
X165087904Y-127412381D01*
X211823904Y-128138095D02*
X211823904Y-127122095D01*
X211823904Y-127605905D02*
X212404476Y-127605905D01*
X212404476Y-128138095D02*
X212404476Y-127122095D01*
X212839904Y-127218857D02*
X212888285Y-127170476D01*
X212888285Y-127170476D02*
X212985047Y-127122095D01*
X212985047Y-127122095D02*
X213226952Y-127122095D01*
X213226952Y-127122095D02*
X213323714Y-127170476D01*
X213323714Y-127170476D02*
X213372095Y-127218857D01*
X213372095Y-127218857D02*
X213420476Y-127315619D01*
X213420476Y-127315619D02*
X213420476Y-127412381D01*
X213420476Y-127412381D02*
X213372095Y-127557524D01*
X213372095Y-127557524D02*
X212791523Y-128138095D01*
X212791523Y-128138095D02*
X213420476Y-128138095D01*
D13*
%TO.C,J2*%
X209225000Y-86420000D02*
X212925000Y-86420000D01*
X209225000Y-92000000D02*
X209225000Y-86420000D01*
X209225000Y-92000000D02*
X209225000Y-97580000D01*
X209225000Y-97580000D02*
X212925000Y-97580000D01*
X211075000Y-97880000D02*
X213225000Y-97880000D01*
X212925000Y-86420000D02*
X212925000Y-89290000D01*
X212925000Y-89290000D02*
X215785000Y-89290000D01*
X212925000Y-94710000D02*
X215785000Y-94710000D01*
X212925000Y-97580000D02*
X212925000Y-94710000D01*
X213225000Y-97880000D02*
X213225000Y-95750000D01*
X215785000Y-89290000D02*
X215785000Y-92000000D01*
X215785000Y-94710000D02*
X215785000Y-92000000D01*
%TO.C,J7*%
X161688000Y-113101223D02*
X161688000Y-115811223D01*
X161688000Y-118521223D02*
X161688000Y-115811223D01*
X164248000Y-112431223D02*
X164248000Y-113101223D01*
X164548000Y-112731223D02*
X164548000Y-113101223D01*
X164548000Y-113101223D02*
X161688000Y-113101223D01*
X164548000Y-118521223D02*
X161688000Y-118521223D01*
X164548000Y-118891223D02*
X164548000Y-118521223D01*
X166398000Y-112431223D02*
X164248000Y-112431223D01*
X168248000Y-112731223D02*
X164548000Y-112731223D01*
X168248000Y-115811223D02*
X168248000Y-112731223D01*
X168248000Y-115811223D02*
X168248000Y-118891223D01*
X168248000Y-118891223D02*
X164548000Y-118891223D01*
%TO.C,J6*%
X209225000Y-112920000D02*
X212925000Y-112920000D01*
X209225000Y-116000000D02*
X209225000Y-112920000D01*
X209225000Y-116000000D02*
X209225000Y-119080000D01*
X209225000Y-119080000D02*
X212925000Y-119080000D01*
X211075000Y-119380000D02*
X213225000Y-119380000D01*
X212925000Y-112920000D02*
X212925000Y-113290000D01*
X212925000Y-113290000D02*
X215785000Y-113290000D01*
X212925000Y-118710000D02*
X215785000Y-118710000D01*
X212925000Y-119080000D02*
X212925000Y-118710000D01*
X213225000Y-119380000D02*
X213225000Y-118710000D01*
X215785000Y-113290000D02*
X215785000Y-116000000D01*
X215785000Y-118710000D02*
X215785000Y-116000000D01*
%TO.C,TP6*%
X196026000Y-72644000D02*
G75*
G02*
X194626000Y-72644000I-700000J0D01*
G01*
X194626000Y-72644000D02*
G75*
G02*
X196026000Y-72644000I700000J0D01*
G01*
%TO.C,TP3*%
X186628000Y-75184000D02*
G75*
G02*
X185228000Y-75184000I-700000J0D01*
G01*
X185228000Y-75184000D02*
G75*
G02*
X186628000Y-75184000I700000J0D01*
G01*
%TO.C,C32*%
X187090267Y-78738000D02*
X186797733Y-78738000D01*
X187090267Y-79758000D02*
X186797733Y-79758000D01*
%TO.C,C33*%
X187090267Y-80770000D02*
X186797733Y-80770000D01*
X187090267Y-81790000D02*
X186797733Y-81790000D01*
%TO.C,C34*%
X180846000Y-74529733D02*
X180846000Y-74822267D01*
X181866000Y-74529733D02*
X181866000Y-74822267D01*
%TO.C,C31*%
X187090267Y-76706000D02*
X186797733Y-76706000D01*
X187090267Y-77726000D02*
X186797733Y-77726000D01*
%TO.C,C35*%
X178814000Y-74529733D02*
X178814000Y-74822267D01*
X179834000Y-74529733D02*
X179834000Y-74822267D01*
%TO.C,C15*%
X178923733Y-82298000D02*
X179216267Y-82298000D01*
X178923733Y-81278000D02*
X179216267Y-81278000D01*
%TO.C,J8*%
X177420000Y-43575000D02*
X177790000Y-43575000D01*
X177420000Y-47275000D02*
X177420000Y-43575000D01*
X177790000Y-40715000D02*
X180500000Y-40715000D01*
X177790000Y-43575000D02*
X177790000Y-40715000D01*
X180500000Y-47275000D02*
X177420000Y-47275000D01*
X180500000Y-47275000D02*
X183580000Y-47275000D01*
X183210000Y-40715000D02*
X180500000Y-40715000D01*
X183210000Y-43575000D02*
X183210000Y-40715000D01*
X183580000Y-43575000D02*
X183210000Y-43575000D01*
X183580000Y-47275000D02*
X183580000Y-43575000D01*
X183880000Y-43275000D02*
X183210000Y-43275000D01*
X183880000Y-45425000D02*
X183880000Y-43275000D01*
%TO.C,L1*%
X191460000Y-42790000D02*
X191460000Y-44340000D01*
X185540000Y-42790000D02*
X191460000Y-42790000D01*
X185540000Y-44340000D02*
X185540000Y-42790000D01*
X191460000Y-46660000D02*
X191460000Y-48210000D01*
X191460000Y-48210000D02*
X185540000Y-48210000D01*
X185540000Y-48210000D02*
X185540000Y-46660000D01*
%TO.C,U1*%
X196240000Y-47477500D02*
X195760000Y-47477500D01*
X196000000Y-47147500D01*
X196240000Y-47477500D01*
G36*
X196240000Y-47477500D02*
G01*
X195760000Y-47477500D01*
X196000000Y-47147500D01*
X196240000Y-47477500D01*
G37*
X195460000Y-47197500D02*
X193640000Y-47197500D01*
X195460000Y-47147500D02*
X195460000Y-47197500D01*
X195460000Y-44077500D02*
X195460000Y-44127500D01*
X193640000Y-47197500D02*
X193640000Y-47147500D01*
X193640000Y-44127500D02*
X193640000Y-44077500D01*
X193640000Y-44077500D02*
X195460000Y-44077500D01*
%TO.C,C12*%
X194925733Y-42674000D02*
X195218267Y-42674000D01*
X194925733Y-41654000D02*
X195218267Y-41654000D01*
%TO.C,D1*%
X177238500Y-47808000D02*
X177238500Y-49728000D01*
X177238500Y-49728000D02*
X180098500Y-49728000D01*
X180098500Y-47808000D02*
X177238500Y-47808000D01*
%TO.C,R8*%
X183417224Y-49447500D02*
X182907776Y-49447500D01*
X183417224Y-48402500D02*
X182907776Y-48402500D01*
%TO.C,C13*%
X191877733Y-50010000D02*
X192170267Y-50010000D01*
X191877733Y-48990000D02*
X192170267Y-48990000D01*
%TO.C,R7*%
X178657776Y-51447500D02*
X179167224Y-51447500D01*
X178657776Y-50402500D02*
X179167224Y-50402500D01*
%TO.C,R12*%
X182907776Y-51447500D02*
X183417224Y-51447500D01*
X182907776Y-50402500D02*
X183417224Y-50402500D01*
%TO.C,C23*%
X194566000Y-55518267D02*
X194566000Y-55225733D01*
X193546000Y-55518267D02*
X193546000Y-55225733D01*
%TO.C,R9*%
X178495276Y-53447500D02*
X179004724Y-53447500D01*
X178495276Y-52402500D02*
X179004724Y-52402500D01*
%TO.C,R13*%
X183417224Y-53447500D02*
X182907776Y-53447500D01*
X183417224Y-52402500D02*
X182907776Y-52402500D01*
%TO.C,SW1*%
X172122000Y-56806000D02*
X172122000Y-56756000D01*
X172122000Y-56806000D02*
X167222000Y-56806000D01*
X172122000Y-55106000D02*
X172122000Y-53606000D01*
X172122000Y-51906000D02*
X172122000Y-51956000D01*
X172122000Y-51906000D02*
X167222000Y-51906000D01*
X167222000Y-56806000D02*
X167222000Y-56756000D01*
X167222000Y-55106000D02*
X167222000Y-53606000D01*
X167222000Y-51906000D02*
X167222000Y-51956000D01*
%TO.C,C22*%
X196349252Y-48795000D02*
X195826748Y-48795000D01*
X196349252Y-50265000D02*
X195826748Y-50265000D01*
%TO.C,U7*%
X192452809Y-57298000D02*
X191972809Y-57298000D01*
X192212809Y-56968000D01*
X192452809Y-57298000D01*
G36*
X192452809Y-57298000D02*
G01*
X191972809Y-57298000D01*
X192212809Y-56968000D01*
X192452809Y-57298000D01*
G37*
X191672809Y-57018000D02*
X189852809Y-57018000D01*
X191672809Y-56968000D02*
X191672809Y-57018000D01*
X191672809Y-53898000D02*
X191672809Y-53948000D01*
X189852809Y-57018000D02*
X189852809Y-56968000D01*
X189852809Y-55848000D02*
X189852809Y-55068000D01*
X189852809Y-53948000D02*
X189852809Y-53898000D01*
X189852809Y-53898000D02*
X191672809Y-53898000D01*
%TO.C,C24*%
X187135309Y-55261733D02*
X187135309Y-55554267D01*
X186115309Y-55261733D02*
X186115309Y-55554267D01*
%TO.C,C4*%
X174910309Y-55654267D02*
X174910309Y-55361733D01*
X173890309Y-55654267D02*
X173890309Y-55361733D01*
%TO.C,R10*%
X179004724Y-55447500D02*
X178495276Y-55447500D01*
X179004724Y-54402500D02*
X178495276Y-54402500D01*
%TO.C,C1*%
X183016233Y-55522500D02*
X183308767Y-55522500D01*
X183016233Y-54502500D02*
X183308767Y-54502500D01*
%TO.C,C3*%
X186942000Y-59074267D02*
X186942000Y-58781733D01*
X187962000Y-59074267D02*
X187962000Y-58781733D01*
%TO.C,C2*%
X192893733Y-59438000D02*
X193186267Y-59438000D01*
X192893733Y-58418000D02*
X193186267Y-58418000D01*
%TO.C,Y2*%
X190862000Y-57898000D02*
X188442000Y-57898000D01*
X188442000Y-57898000D02*
X188442000Y-60718000D01*
%TO.C,J13*%
X168855309Y-67801000D02*
X168855309Y-67736000D01*
X172485309Y-67801000D02*
X168855309Y-67801000D01*
X172485309Y-67801000D02*
X172485309Y-67736000D01*
X173760309Y-67736000D02*
X172485309Y-67736000D01*
X168855309Y-58756000D02*
X168855309Y-58691000D01*
X172485309Y-58756000D02*
X172485309Y-58691000D01*
X172485309Y-58691000D02*
X168855309Y-58691000D01*
%TO.C,U3*%
X191190309Y-64098000D02*
X190720309Y-63758000D01*
X191190309Y-63418000D01*
X191190309Y-64098000D01*
G36*
X191190309Y-64098000D02*
G01*
X190720309Y-63758000D01*
X191190309Y-63418000D01*
X191190309Y-64098000D01*
G37*
X191010309Y-71618000D02*
X190710309Y-71618000D01*
X191010309Y-71318000D02*
X191010309Y-71618000D01*
X191010309Y-64398000D02*
X191010309Y-64698000D01*
X190710309Y-64398000D02*
X191010309Y-64398000D01*
X184090309Y-71618000D02*
X183790309Y-71618000D01*
X183790309Y-71618000D02*
X183790309Y-71318000D01*
X183790309Y-64698000D02*
X183790309Y-64398000D01*
X183790309Y-64398000D02*
X184090309Y-64398000D01*
%TO.C,R1*%
X194145585Y-65022500D02*
X194655033Y-65022500D01*
X194145585Y-63977500D02*
X194655033Y-63977500D01*
%TO.C,TP4*%
X194700000Y-66500000D02*
G75*
G02*
X193300000Y-66500000I-700000J0D01*
G01*
X193300000Y-66500000D02*
G75*
G02*
X194700000Y-66500000I700000J0D01*
G01*
%TO.C,C6*%
X198010000Y-69146267D02*
X198010000Y-68853733D01*
X196990000Y-69146267D02*
X196990000Y-68853733D01*
%TO.C,TP5*%
X196280000Y-69850000D02*
G75*
G02*
X194880000Y-69850000I-700000J0D01*
G01*
X194880000Y-69850000D02*
G75*
G02*
X196280000Y-69850000I700000J0D01*
G01*
%TO.C,J12*%
X215770309Y-80001500D02*
X215770309Y-77291500D01*
X215770309Y-74581500D02*
X215770309Y-77291500D01*
X213210309Y-85671500D02*
X213210309Y-83541500D01*
X212910309Y-85371500D02*
X212910309Y-80001500D01*
X212910309Y-80001500D02*
X215770309Y-80001500D01*
X212910309Y-74581500D02*
X215770309Y-74581500D01*
X212910309Y-69211500D02*
X212910309Y-74581500D01*
X211060309Y-85671500D02*
X213210309Y-85671500D01*
X206710309Y-85371500D02*
X212910309Y-85371500D01*
X206710309Y-77291500D02*
X206710309Y-85371500D01*
X206710309Y-77291500D02*
X206710309Y-69211500D01*
X206710309Y-69211500D02*
X212910309Y-69211500D01*
%TO.C,TP7*%
X181100309Y-70508000D02*
G75*
G02*
X179700309Y-70508000I-700000J0D01*
G01*
X179700309Y-70508000D02*
G75*
G02*
X181100309Y-70508000I700000J0D01*
G01*
%TO.C,C7*%
X203779042Y-71375000D02*
X204071576Y-71375000D01*
X203779042Y-70355000D02*
X204071576Y-70355000D01*
%TO.C,TP1*%
X193740000Y-72390000D02*
G75*
G02*
X192340000Y-72390000I-700000J0D01*
G01*
X192340000Y-72390000D02*
G75*
G02*
X193740000Y-72390000I700000J0D01*
G01*
%TO.C,U2*%
X197825309Y-72395000D02*
X197585309Y-72065000D01*
X198065309Y-72065000D01*
X197825309Y-72395000D01*
G36*
X197825309Y-72395000D02*
G01*
X197585309Y-72065000D01*
X198065309Y-72065000D01*
X197825309Y-72395000D01*
G37*
X202485309Y-77425000D02*
X198365309Y-77425000D01*
X202485309Y-77330000D02*
X202485309Y-77425000D01*
X202485309Y-72305000D02*
X202485309Y-72400000D01*
X198365309Y-77425000D02*
X198365309Y-77330000D01*
X198365309Y-72400000D02*
X198365309Y-72305000D01*
X198365309Y-72305000D02*
X202485309Y-72305000D01*
%TO.C,C14*%
X167474809Y-74209767D02*
X167474809Y-73917233D01*
X166454809Y-74209767D02*
X166454809Y-73917233D01*
%TO.C,C10*%
X165696809Y-74209767D02*
X165696809Y-73917233D01*
X164676809Y-74209767D02*
X164676809Y-73917233D01*
%TO.C,C26*%
X169252809Y-74209767D02*
X169252809Y-73917233D01*
X168232809Y-74209767D02*
X168232809Y-73917233D01*
%TO.C,C8*%
X175856809Y-74971767D02*
X175856809Y-74679233D01*
X174836809Y-74971767D02*
X174836809Y-74679233D01*
%TO.C,R11*%
X205947809Y-74745276D02*
X205947809Y-75254724D01*
X204902809Y-74745276D02*
X204902809Y-75254724D01*
%TO.C,TP2*%
X192216000Y-75692000D02*
G75*
G02*
X190816000Y-75692000I-700000J0D01*
G01*
X190816000Y-75692000D02*
G75*
G02*
X192216000Y-75692000I700000J0D01*
G01*
%TO.C,FB2*%
X182624000Y-74847267D02*
X182624000Y-74504733D01*
X183644000Y-74847267D02*
X183644000Y-74504733D01*
%TO.C,U5*%
X174569618Y-77118000D02*
X174329618Y-76788000D01*
X174809618Y-76788000D01*
X174569618Y-77118000D01*
G36*
X174569618Y-77118000D02*
G01*
X174329618Y-76788000D01*
X174809618Y-76788000D01*
X174569618Y-77118000D01*
G37*
X175429618Y-86838000D02*
X174954618Y-86838000D01*
X175429618Y-86363000D02*
X175429618Y-86838000D01*
X175429618Y-77618000D02*
X175429618Y-78093000D01*
X174954618Y-77618000D02*
X175429618Y-77618000D01*
X166684618Y-86838000D02*
X166209618Y-86838000D01*
X166209618Y-86838000D02*
X166209618Y-86363000D01*
X166209618Y-78093000D02*
X166209618Y-77618000D01*
X166209618Y-77618000D02*
X166684618Y-77618000D01*
%TO.C,C5*%
X165356000Y-79902267D02*
X165356000Y-79609733D01*
X164336000Y-79902267D02*
X164336000Y-79609733D01*
%TO.C,C9*%
X164594000Y-83458267D02*
X164594000Y-83165733D01*
X163574000Y-83458267D02*
X163574000Y-83165733D01*
%TO.C,R3*%
X201922809Y-83253276D02*
X201922809Y-83762724D01*
X200877809Y-83253276D02*
X200877809Y-83762724D01*
%TO.C,C17*%
X199900309Y-83654267D02*
X199900309Y-83361733D01*
X198880309Y-83654267D02*
X198880309Y-83361733D01*
%TO.C,C11*%
X163646267Y-87510000D02*
X163353733Y-87510000D01*
X163646267Y-86490000D02*
X163353733Y-86490000D01*
%TO.C,C16*%
X208028000Y-93872267D02*
X208028000Y-93579733D01*
X207008000Y-93872267D02*
X207008000Y-93579733D01*
D14*
%TO.C,J9*%
X194338300Y-99095300D02*
G75*
G02*
X193576300Y-99095300I-381000J0D01*
G01*
X193576300Y-99095300D02*
G75*
G02*
X194338300Y-99095300I381000J0D01*
G01*
D11*
X167820700Y-100162300D02*
X192179300Y-100162300D01*
X192179300Y-100162300D02*
X192179300Y-97745041D01*
X167820700Y-97745041D02*
X167820700Y-100162300D01*
X192179300Y-94285561D02*
X192179300Y-93837701D01*
X167820700Y-93837701D02*
X167820700Y-94285561D01*
X192179300Y-93837701D02*
X167820700Y-93837701D01*
D13*
%TO.C,U6*%
X202500500Y-94060000D02*
X202260500Y-93730000D01*
X202740500Y-93730000D01*
X202500500Y-94060000D01*
G36*
X202500500Y-94060000D02*
G01*
X202260500Y-93730000D01*
X202740500Y-93730000D01*
X202500500Y-94060000D01*
G37*
X204860500Y-97130000D02*
X203040500Y-97130000D01*
X204860500Y-97080000D02*
X204860500Y-97130000D01*
X204860500Y-94010000D02*
X204860500Y-94060000D01*
X203040500Y-97130000D02*
X203040500Y-97080000D01*
X203040500Y-94060000D02*
X203040500Y-94010000D01*
X203040500Y-94010000D02*
X204860500Y-94010000D01*
%TO.C,R2*%
X198843737Y-96859000D02*
X197396263Y-96859000D01*
X198843737Y-94149000D02*
X197396263Y-94149000D01*
%TO.C,C29*%
X203925733Y-98808000D02*
X204218267Y-98808000D01*
X203925733Y-97788000D02*
X204218267Y-97788000D01*
%TO.C,R5*%
X180580309Y-111388000D02*
X200820309Y-111388000D01*
X200820309Y-120628000D01*
X180580309Y-120628000D01*
X180580309Y-111388000D01*
X201960309Y-116008000D02*
X200820309Y-116008000D01*
X179440309Y-116008000D02*
X180580309Y-116008000D01*
%TO.C,R6*%
X180580309Y-124388000D02*
X200820309Y-124388000D01*
X200820309Y-133628000D01*
X180580309Y-133628000D01*
X180580309Y-124388000D01*
X201960309Y-129008000D02*
X200820309Y-129008000D01*
X179440309Y-129008000D02*
X180580309Y-129008000D01*
%TD*%
M02*
